G04 #@! TF.GenerationSoftware,KiCad,Pcbnew,(6.0.9)*
G04 #@! TF.CreationDate,2022-11-21T10:51:55+01:00*
G04 #@! TF.ProjectId,Dohle TankVerb,446f686c-6520-4546-916e-6b566572622e,rev?*
G04 #@! TF.SameCoordinates,Original*
G04 #@! TF.FileFunction,Soldermask,Top*
G04 #@! TF.FilePolarity,Negative*
%FSLAX46Y46*%
G04 Gerber Fmt 4.6, Leading zero omitted, Abs format (unit mm)*
G04 Created by KiCad (PCBNEW (6.0.9)) date 2022-11-21 10:51:55*
%MOMM*%
%LPD*%
G01*
G04 APERTURE LIST*
G04 Aperture macros list*
%AMRoundRect*
0 Rectangle with rounded corners*
0 $1 Rounding radius*
0 $2 $3 $4 $5 $6 $7 $8 $9 X,Y pos of 4 corners*
0 Add a 4 corners polygon primitive as box body*
4,1,4,$2,$3,$4,$5,$6,$7,$8,$9,$2,$3,0*
0 Add four circle primitives for the rounded corners*
1,1,$1+$1,$2,$3*
1,1,$1+$1,$4,$5*
1,1,$1+$1,$6,$7*
1,1,$1+$1,$8,$9*
0 Add four rect primitives between the rounded corners*
20,1,$1+$1,$2,$3,$4,$5,0*
20,1,$1+$1,$4,$5,$6,$7,0*
20,1,$1+$1,$6,$7,$8,$9,0*
20,1,$1+$1,$8,$9,$2,$3,0*%
%AMHorizOval*
0 Thick line with rounded ends*
0 $1 width*
0 $2 $3 position (X,Y) of the first rounded end (center of the circle)*
0 $4 $5 position (X,Y) of the second rounded end (center of the circle)*
0 Add line between two ends*
20,1,$1,$2,$3,$4,$5,0*
0 Add two circle primitives to create the rounded ends*
1,1,$1,$2,$3*
1,1,$1,$4,$5*%
G04 Aperture macros list end*
%ADD10C,2.200000*%
%ADD11R,1.700000X1.700000*%
%ADD12O,1.700000X1.700000*%
%ADD13RoundRect,0.250000X-0.350000X-0.625000X0.350000X-0.625000X0.350000X0.625000X-0.350000X0.625000X0*%
%ADD14O,1.200000X1.750000*%
%ADD15C,1.600000*%
%ADD16R,2.400000X2.400000*%
%ADD17O,2.400000X2.400000*%
%ADD18O,4.003200X2.743200*%
%ADD19O,8.203200X2.203200*%
%ADD20HorizOval,2.203200X-1.414214X1.414214X1.414214X-1.414214X0*%
%ADD21O,2.203200X8.203200*%
%ADD22HorizOval,2.203200X-1.414214X-1.414214X1.414214X1.414214X0*%
%ADD23C,1.700000*%
%ADD24C,1.575000*%
%ADD25C,1.950000*%
G04 APERTURE END LIST*
D10*
X135509000Y-93700600D03*
D11*
X179552600Y-86106000D03*
D12*
X179552600Y-88646000D03*
X179552600Y-91186000D03*
X179552600Y-93726000D03*
X179552600Y-96266000D03*
X179552600Y-98806000D03*
X179552600Y-101346000D03*
D13*
X156407919Y-74930000D03*
D14*
X158407919Y-74930000D03*
D15*
X154940000Y-81280000D03*
X159940000Y-81280000D03*
D16*
X163855400Y-87604600D03*
D17*
X151155400Y-87604600D03*
D18*
X162225962Y-139708959D03*
X162225962Y-144410519D03*
X162225962Y-149108959D03*
X157226482Y-139708959D03*
X157226482Y-144410519D03*
X157226482Y-149108959D03*
X152125962Y-139709719D03*
X152125962Y-144411279D03*
X152125962Y-149109719D03*
D19*
X171437559Y-69113936D03*
D20*
X175945800Y-58166000D03*
D21*
X164915057Y-62119877D03*
X149534000Y-62595200D03*
D22*
X138586064Y-58086959D03*
D19*
X142539941Y-69117702D03*
D11*
X132283200Y-133273800D03*
D23*
X134823200Y-133273800D03*
X137363200Y-133273800D03*
X139903200Y-133273800D03*
X142443200Y-133273800D03*
X144983200Y-133273800D03*
X147523200Y-133273800D03*
X150063200Y-133273800D03*
X152603200Y-133273800D03*
X155143200Y-133273800D03*
X157683200Y-133273800D03*
X160223200Y-133273800D03*
X162763200Y-133273800D03*
X165303200Y-133273800D03*
X167843200Y-133273800D03*
X170383200Y-133273800D03*
X172923200Y-133273800D03*
X175463200Y-133273800D03*
X178003200Y-133273800D03*
X180543200Y-133273800D03*
X180543200Y-118033800D03*
X178003200Y-118033800D03*
X175463200Y-118033800D03*
X172923200Y-118033800D03*
X170383200Y-118033800D03*
X167843200Y-118033800D03*
X165303200Y-118033800D03*
X162763200Y-118033800D03*
X160223200Y-118033800D03*
X157683200Y-118033800D03*
X155143200Y-118033800D03*
X152603200Y-118033800D03*
X150063200Y-118033800D03*
X147523200Y-118033800D03*
X144983200Y-118033800D03*
X142443200Y-118033800D03*
X139903200Y-118033800D03*
X137363200Y-118033800D03*
X134823200Y-118033800D03*
X132283200Y-118033800D03*
D24*
X135441000Y-127886400D03*
X135441000Y-123386400D03*
D25*
X137941000Y-129136400D03*
X137941000Y-122136400D03*
M02*
