%TF.GenerationSoftware,KiCad,Pcbnew,(6.0.9)*%
%TF.CreationDate,2022-11-21T10:52:18+01:00*%
%TF.ProjectId,Dohle TankVerb,446f686c-6520-4546-916e-6b566572622e,rev?*%
%TF.SameCoordinates,Original*%
%TF.FileFunction,Drillmap*%
%TF.FilePolarity,Positive*%
%FSLAX45Y45*%
G04 Gerber Fmt 4.5, Leading zero omitted, Abs format (unit mm)*
G04 Created by KiCad (PCBNEW (6.0.9)) date 2022-11-21 10:52:18*
%MOMM*%
%LPD*%
G01*
G04 APERTURE LIST*
%ADD10C,0.200000*%
%ADD11C,0.220000*%
G04 APERTURE END LIST*
D10*
X18385151Y-6185636D02*
G75*
G03*
X18297280Y-5973504I-300001J-4D01*
G01*
X13085148Y-6185636D02*
X13085148Y-14579587D01*
X13797279Y-15415984D02*
G75*
G03*
X14009412Y-15503851I212131J212134D01*
G01*
X18297281Y-14791720D02*
G75*
G03*
X18385148Y-14579587I-212131J212130D01*
G01*
X17673014Y-5349242D02*
G75*
G03*
X17460884Y-5261372I-212134J-212128D01*
G01*
X14009412Y-5261373D02*
G75*
G03*
X13797280Y-5349240I-2J-299997D01*
G01*
X14009412Y-15503851D02*
X17460884Y-15503851D01*
X13085151Y-14579587D02*
G75*
G03*
X13173016Y-14791719I299999J-3D01*
G01*
X18297280Y-5973504D02*
X17673016Y-5349240D01*
X13173016Y-14791719D02*
X13797280Y-15415983D01*
X17460884Y-15503853D02*
G75*
G03*
X17673016Y-15415983I-4J300004D01*
G01*
X18385148Y-14579587D02*
X18385148Y-6185636D01*
X13173017Y-5973506D02*
G75*
G03*
X13085148Y-6185636I212133J-212134D01*
G01*
X17673016Y-15415983D02*
X18297280Y-14791719D01*
X17460884Y-5261372D02*
X14009412Y-5261372D01*
X13797280Y-5349240D02*
X13173016Y-5973504D01*
D11*
X13440900Y-9260060D02*
X13660900Y-9480060D01*
X13660900Y-9260060D02*
X13440900Y-9480060D01*
D10*
X13332767Y-15824327D02*
X13332767Y-15624327D01*
X13380386Y-15624327D01*
X13408957Y-15633851D01*
X13428005Y-15652898D01*
X13437529Y-15671946D01*
X13447053Y-15710041D01*
X13447053Y-15738613D01*
X13437529Y-15776708D01*
X13428005Y-15795756D01*
X13408957Y-15814803D01*
X13380386Y-15824327D01*
X13332767Y-15824327D01*
X13532767Y-15824327D02*
X13532767Y-15690994D01*
X13532767Y-15729089D02*
X13542291Y-15710041D01*
X13551815Y-15700517D01*
X13570862Y-15690994D01*
X13589910Y-15690994D01*
X13656576Y-15824327D02*
X13656576Y-15690994D01*
X13656576Y-15624327D02*
X13647053Y-15633851D01*
X13656576Y-15643375D01*
X13666100Y-15633851D01*
X13656576Y-15624327D01*
X13656576Y-15643375D01*
X13780386Y-15824327D02*
X13761338Y-15814803D01*
X13751815Y-15795756D01*
X13751815Y-15624327D01*
X13885148Y-15824327D02*
X13866100Y-15814803D01*
X13856576Y-15795756D01*
X13856576Y-15624327D01*
X14113719Y-15824327D02*
X14113719Y-15624327D01*
X14180386Y-15767184D01*
X14247053Y-15624327D01*
X14247053Y-15824327D01*
X14428005Y-15824327D02*
X14428005Y-15719565D01*
X14418481Y-15700517D01*
X14399434Y-15690994D01*
X14361338Y-15690994D01*
X14342291Y-15700517D01*
X14428005Y-15814803D02*
X14408957Y-15824327D01*
X14361338Y-15824327D01*
X14342291Y-15814803D01*
X14332767Y-15795756D01*
X14332767Y-15776708D01*
X14342291Y-15757660D01*
X14361338Y-15748137D01*
X14408957Y-15748137D01*
X14428005Y-15738613D01*
X14523243Y-15690994D02*
X14523243Y-15890994D01*
X14523243Y-15700517D02*
X14542291Y-15690994D01*
X14580386Y-15690994D01*
X14599434Y-15700517D01*
X14608957Y-15710041D01*
X14618481Y-15729089D01*
X14618481Y-15786232D01*
X14608957Y-15805279D01*
X14599434Y-15814803D01*
X14580386Y-15824327D01*
X14542291Y-15824327D01*
X14523243Y-15814803D01*
X14704196Y-15805279D02*
X14713719Y-15814803D01*
X14704196Y-15824327D01*
X14694672Y-15814803D01*
X14704196Y-15805279D01*
X14704196Y-15824327D01*
X14704196Y-15700517D02*
X14713719Y-15710041D01*
X14704196Y-15719565D01*
X14694672Y-15710041D01*
X14704196Y-15700517D01*
X14704196Y-15719565D01*
X12875148Y-16053851D02*
X13075148Y-16253851D01*
X13075148Y-16053851D02*
X12875148Y-16253851D01*
X13323243Y-16063375D02*
X13332767Y-16053851D01*
X13351815Y-16044327D01*
X13399434Y-16044327D01*
X13418481Y-16053851D01*
X13428005Y-16063375D01*
X13437529Y-16082422D01*
X13437529Y-16101470D01*
X13428005Y-16130041D01*
X13313719Y-16244327D01*
X13437529Y-16244327D01*
X13523243Y-16225279D02*
X13532767Y-16234803D01*
X13523243Y-16244327D01*
X13513719Y-16234803D01*
X13523243Y-16225279D01*
X13523243Y-16244327D01*
X13608957Y-16063375D02*
X13618481Y-16053851D01*
X13637529Y-16044327D01*
X13685148Y-16044327D01*
X13704196Y-16053851D01*
X13713719Y-16063375D01*
X13723243Y-16082422D01*
X13723243Y-16101470D01*
X13713719Y-16130041D01*
X13599434Y-16244327D01*
X13723243Y-16244327D01*
X13847053Y-16044327D02*
X13866100Y-16044327D01*
X13885148Y-16053851D01*
X13894672Y-16063375D01*
X13904196Y-16082422D01*
X13913719Y-16120517D01*
X13913719Y-16168137D01*
X13904196Y-16206232D01*
X13894672Y-16225279D01*
X13885148Y-16234803D01*
X13866100Y-16244327D01*
X13847053Y-16244327D01*
X13828005Y-16234803D01*
X13818481Y-16225279D01*
X13808957Y-16206232D01*
X13799434Y-16168137D01*
X13799434Y-16120517D01*
X13808957Y-16082422D01*
X13818481Y-16063375D01*
X13828005Y-16053851D01*
X13847053Y-16044327D01*
X14037529Y-16044327D02*
X14056576Y-16044327D01*
X14075624Y-16053851D01*
X14085148Y-16063375D01*
X14094672Y-16082422D01*
X14104196Y-16120517D01*
X14104196Y-16168137D01*
X14094672Y-16206232D01*
X14085148Y-16225279D01*
X14075624Y-16234803D01*
X14056576Y-16244327D01*
X14037529Y-16244327D01*
X14018481Y-16234803D01*
X14008957Y-16225279D01*
X13999434Y-16206232D01*
X13989910Y-16168137D01*
X13989910Y-16120517D01*
X13999434Y-16082422D01*
X14008957Y-16063375D01*
X14018481Y-16053851D01*
X14037529Y-16044327D01*
X14189910Y-16244327D02*
X14189910Y-16110994D01*
X14189910Y-16130041D02*
X14199434Y-16120517D01*
X14218481Y-16110994D01*
X14247053Y-16110994D01*
X14266100Y-16120517D01*
X14275624Y-16139565D01*
X14275624Y-16244327D01*
X14275624Y-16139565D02*
X14285148Y-16120517D01*
X14304196Y-16110994D01*
X14332767Y-16110994D01*
X14351815Y-16120517D01*
X14361338Y-16139565D01*
X14361338Y-16244327D01*
X14456576Y-16244327D02*
X14456576Y-16110994D01*
X14456576Y-16130041D02*
X14466100Y-16120517D01*
X14485148Y-16110994D01*
X14513719Y-16110994D01*
X14532767Y-16120517D01*
X14542291Y-16139565D01*
X14542291Y-16244327D01*
X14542291Y-16139565D02*
X14551815Y-16120517D01*
X14570862Y-16110994D01*
X14599434Y-16110994D01*
X14618481Y-16120517D01*
X14628005Y-16139565D01*
X14628005Y-16244327D01*
X15018481Y-16034803D02*
X14847053Y-16291946D01*
X15275624Y-16044327D02*
X15294672Y-16044327D01*
X15313719Y-16053851D01*
X15323243Y-16063375D01*
X15332767Y-16082422D01*
X15342291Y-16120517D01*
X15342291Y-16168137D01*
X15332767Y-16206232D01*
X15323243Y-16225279D01*
X15313719Y-16234803D01*
X15294672Y-16244327D01*
X15275624Y-16244327D01*
X15256576Y-16234803D01*
X15247053Y-16225279D01*
X15237529Y-16206232D01*
X15228005Y-16168137D01*
X15228005Y-16120517D01*
X15237529Y-16082422D01*
X15247053Y-16063375D01*
X15256576Y-16053851D01*
X15275624Y-16044327D01*
X15428005Y-16225279D02*
X15437529Y-16234803D01*
X15428005Y-16244327D01*
X15418481Y-16234803D01*
X15428005Y-16225279D01*
X15428005Y-16244327D01*
X15561338Y-16044327D02*
X15580386Y-16044327D01*
X15599434Y-16053851D01*
X15608957Y-16063375D01*
X15618481Y-16082422D01*
X15628005Y-16120517D01*
X15628005Y-16168137D01*
X15618481Y-16206232D01*
X15608957Y-16225279D01*
X15599434Y-16234803D01*
X15580386Y-16244327D01*
X15561338Y-16244327D01*
X15542291Y-16234803D01*
X15532767Y-16225279D01*
X15523243Y-16206232D01*
X15513719Y-16168137D01*
X15513719Y-16120517D01*
X15523243Y-16082422D01*
X15532767Y-16063375D01*
X15542291Y-16053851D01*
X15561338Y-16044327D01*
X15742291Y-16130041D02*
X15723243Y-16120517D01*
X15713719Y-16110994D01*
X15704196Y-16091946D01*
X15704196Y-16082422D01*
X15713719Y-16063375D01*
X15723243Y-16053851D01*
X15742291Y-16044327D01*
X15780386Y-16044327D01*
X15799434Y-16053851D01*
X15808957Y-16063375D01*
X15818481Y-16082422D01*
X15818481Y-16091946D01*
X15808957Y-16110994D01*
X15799434Y-16120517D01*
X15780386Y-16130041D01*
X15742291Y-16130041D01*
X15723243Y-16139565D01*
X15713719Y-16149089D01*
X15704196Y-16168137D01*
X15704196Y-16206232D01*
X15713719Y-16225279D01*
X15723243Y-16234803D01*
X15742291Y-16244327D01*
X15780386Y-16244327D01*
X15799434Y-16234803D01*
X15808957Y-16225279D01*
X15818481Y-16206232D01*
X15818481Y-16168137D01*
X15808957Y-16149089D01*
X15799434Y-16139565D01*
X15780386Y-16130041D01*
X15989910Y-16044327D02*
X15951815Y-16044327D01*
X15932767Y-16053851D01*
X15923243Y-16063375D01*
X15904196Y-16091946D01*
X15894672Y-16130041D01*
X15894672Y-16206232D01*
X15904196Y-16225279D01*
X15913719Y-16234803D01*
X15932767Y-16244327D01*
X15970862Y-16244327D01*
X15989910Y-16234803D01*
X15999434Y-16225279D01*
X16008957Y-16206232D01*
X16008957Y-16158613D01*
X15999434Y-16139565D01*
X15989910Y-16130041D01*
X15970862Y-16120517D01*
X15932767Y-16120517D01*
X15913719Y-16130041D01*
X15904196Y-16139565D01*
X15894672Y-16158613D01*
X16180386Y-16044327D02*
X16142291Y-16044327D01*
X16123243Y-16053851D01*
X16113719Y-16063375D01*
X16094672Y-16091946D01*
X16085148Y-16130041D01*
X16085148Y-16206232D01*
X16094672Y-16225279D01*
X16104196Y-16234803D01*
X16123243Y-16244327D01*
X16161338Y-16244327D01*
X16180386Y-16234803D01*
X16189910Y-16225279D01*
X16199434Y-16206232D01*
X16199434Y-16158613D01*
X16189910Y-16139565D01*
X16180386Y-16130041D01*
X16161338Y-16120517D01*
X16123243Y-16120517D01*
X16104196Y-16130041D01*
X16094672Y-16139565D01*
X16085148Y-16158613D01*
X16275624Y-16044327D02*
X16275624Y-16082422D01*
X16351815Y-16044327D02*
X16351815Y-16082422D01*
X16647053Y-16320517D02*
X16637529Y-16310994D01*
X16618481Y-16282422D01*
X16608957Y-16263375D01*
X16599434Y-16234803D01*
X16589910Y-16187184D01*
X16589910Y-16149089D01*
X16599434Y-16101470D01*
X16608957Y-16072898D01*
X16618481Y-16053851D01*
X16637529Y-16025279D01*
X16647053Y-16015756D01*
X16828005Y-16244327D02*
X16713719Y-16244327D01*
X16770862Y-16244327D02*
X16770862Y-16044327D01*
X16751815Y-16072898D01*
X16732767Y-16091946D01*
X16713719Y-16101470D01*
X17066100Y-16244327D02*
X17066100Y-16044327D01*
X17151815Y-16244327D02*
X17151815Y-16139565D01*
X17142291Y-16120517D01*
X17123243Y-16110994D01*
X17094672Y-16110994D01*
X17075624Y-16120517D01*
X17066100Y-16130041D01*
X17275624Y-16244327D02*
X17256577Y-16234803D01*
X17247053Y-16225279D01*
X17237529Y-16206232D01*
X17237529Y-16149089D01*
X17247053Y-16130041D01*
X17256577Y-16120517D01*
X17275624Y-16110994D01*
X17304196Y-16110994D01*
X17323243Y-16120517D01*
X17332767Y-16130041D01*
X17342291Y-16149089D01*
X17342291Y-16206232D01*
X17332767Y-16225279D01*
X17323243Y-16234803D01*
X17304196Y-16244327D01*
X17275624Y-16244327D01*
X17456577Y-16244327D02*
X17437529Y-16234803D01*
X17428005Y-16215756D01*
X17428005Y-16044327D01*
X17608958Y-16234803D02*
X17589910Y-16244327D01*
X17551815Y-16244327D01*
X17532767Y-16234803D01*
X17523243Y-16215756D01*
X17523243Y-16139565D01*
X17532767Y-16120517D01*
X17551815Y-16110994D01*
X17589910Y-16110994D01*
X17608958Y-16120517D01*
X17618481Y-16139565D01*
X17618481Y-16158613D01*
X17523243Y-16177660D01*
X17685148Y-16320517D02*
X17694672Y-16310994D01*
X17713719Y-16282422D01*
X17723243Y-16263375D01*
X17732767Y-16234803D01*
X17742291Y-16187184D01*
X17742291Y-16149089D01*
X17732767Y-16101470D01*
X17723243Y-16072898D01*
X17713719Y-16053851D01*
X17694672Y-16025279D01*
X17685148Y-16015756D01*
X18047053Y-16320517D02*
X18037529Y-16310994D01*
X18018481Y-16282422D01*
X18008958Y-16263375D01*
X17999434Y-16234803D01*
X17989910Y-16187184D01*
X17989910Y-16149089D01*
X17999434Y-16101470D01*
X18008958Y-16072898D01*
X18018481Y-16053851D01*
X18037529Y-16025279D01*
X18047053Y-16015756D01*
X18123243Y-16110994D02*
X18123243Y-16244327D01*
X18123243Y-16130041D02*
X18132767Y-16120517D01*
X18151815Y-16110994D01*
X18180386Y-16110994D01*
X18199434Y-16120517D01*
X18208958Y-16139565D01*
X18208958Y-16244327D01*
X18332767Y-16244327D02*
X18313719Y-16234803D01*
X18304196Y-16225279D01*
X18294672Y-16206232D01*
X18294672Y-16149089D01*
X18304196Y-16130041D01*
X18313719Y-16120517D01*
X18332767Y-16110994D01*
X18361338Y-16110994D01*
X18380386Y-16120517D01*
X18389910Y-16130041D01*
X18399434Y-16149089D01*
X18399434Y-16206232D01*
X18389910Y-16225279D01*
X18380386Y-16234803D01*
X18361338Y-16244327D01*
X18332767Y-16244327D01*
X18456577Y-16110994D02*
X18532767Y-16110994D01*
X18485148Y-16044327D02*
X18485148Y-16215756D01*
X18494672Y-16234803D01*
X18513719Y-16244327D01*
X18532767Y-16244327D01*
X18751815Y-16110994D02*
X18751815Y-16310994D01*
X18751815Y-16120517D02*
X18770862Y-16110994D01*
X18808958Y-16110994D01*
X18828005Y-16120517D01*
X18837529Y-16130041D01*
X18847053Y-16149089D01*
X18847053Y-16206232D01*
X18837529Y-16225279D01*
X18828005Y-16234803D01*
X18808958Y-16244327D01*
X18770862Y-16244327D01*
X18751815Y-16234803D01*
X18961338Y-16244327D02*
X18942291Y-16234803D01*
X18932767Y-16215756D01*
X18932767Y-16044327D01*
X19123243Y-16244327D02*
X19123243Y-16139565D01*
X19113719Y-16120517D01*
X19094672Y-16110994D01*
X19056577Y-16110994D01*
X19037529Y-16120517D01*
X19123243Y-16234803D02*
X19104196Y-16244327D01*
X19056577Y-16244327D01*
X19037529Y-16234803D01*
X19028005Y-16215756D01*
X19028005Y-16196708D01*
X19037529Y-16177660D01*
X19056577Y-16168137D01*
X19104196Y-16168137D01*
X19123243Y-16158613D01*
X19189910Y-16110994D02*
X19266100Y-16110994D01*
X19218481Y-16044327D02*
X19218481Y-16215756D01*
X19228005Y-16234803D01*
X19247053Y-16244327D01*
X19266100Y-16244327D01*
X19408958Y-16234803D02*
X19389910Y-16244327D01*
X19351815Y-16244327D01*
X19332767Y-16234803D01*
X19323243Y-16215756D01*
X19323243Y-16139565D01*
X19332767Y-16120517D01*
X19351815Y-16110994D01*
X19389910Y-16110994D01*
X19408958Y-16120517D01*
X19418481Y-16139565D01*
X19418481Y-16158613D01*
X19323243Y-16177660D01*
X19589910Y-16244327D02*
X19589910Y-16044327D01*
X19589910Y-16234803D02*
X19570862Y-16244327D01*
X19532767Y-16244327D01*
X19513719Y-16234803D01*
X19504196Y-16225279D01*
X19494672Y-16206232D01*
X19494672Y-16149089D01*
X19504196Y-16130041D01*
X19513719Y-16120517D01*
X19532767Y-16110994D01*
X19570862Y-16110994D01*
X19589910Y-16120517D01*
X19666100Y-16320517D02*
X19675624Y-16310994D01*
X19694672Y-16282422D01*
X19704196Y-16263375D01*
X19713719Y-16234803D01*
X19723243Y-16187184D01*
X19723243Y-16149089D01*
X19713719Y-16101470D01*
X19704196Y-16072898D01*
X19694672Y-16053851D01*
X19675624Y-16025279D01*
X19666100Y-16015756D01*
M02*
