%TF.GenerationSoftware,KiCad,Pcbnew,(6.0.11)*%
%TF.CreationDate,2023-07-08T12:30:29+02:00*%
%TF.ProjectId,Dohle TankVerb,446f686c-6520-4546-916e-6b566572622e,rev?*%
%TF.SameCoordinates,Original*%
%TF.FileFunction,Drillmap*%
%TF.FilePolarity,Positive*%
%FSLAX45Y45*%
G04 Gerber Fmt 4.5, Leading zero omitted, Abs format (unit mm)*
G04 Created by KiCad (PCBNEW (6.0.11)) date 2023-07-08 12:30:29*
%MOMM*%
%LPD*%
G01*
G04 APERTURE LIST*
%ADD10C,0.200000*%
%ADD11C,0.220000*%
G04 APERTURE END LIST*
D10*
X18196934Y-14629536D02*
G75*
G03*
X18284800Y-14417402I-212124J212126D01*
G01*
X13272015Y-14628881D02*
X13996932Y-15353798D01*
X17290536Y-5271771D02*
X14190536Y-5271771D01*
X13978404Y-5359639D02*
X13272668Y-6065375D01*
X17472668Y-15353798D02*
X18196932Y-14629534D01*
X13184802Y-14396961D02*
G75*
G03*
X13272015Y-14628881I299348J-19789D01*
G01*
X13184800Y-6277507D02*
X13184800Y-14396961D01*
X17260536Y-15441665D02*
G75*
G03*
X17472668Y-15353798I4J299995D01*
G01*
X14209064Y-15441666D02*
X17260536Y-15441666D01*
X17502669Y-5359638D02*
G75*
G03*
X17290536Y-5271771I-212139J-212152D01*
G01*
X14190536Y-5271775D02*
G75*
G03*
X13978404Y-5359639I-6J-299995D01*
G01*
X18284799Y-6266035D02*
G75*
G03*
X18196932Y-6053903I-299989J5D01*
G01*
X18284800Y-14417402D02*
X18284800Y-6266035D01*
X18196932Y-6053903D02*
X17502668Y-5359639D01*
X13996931Y-15353800D02*
G75*
G03*
X14209064Y-15441666I212129J212130D01*
G01*
X13272669Y-6065376D02*
G75*
G03*
X13184800Y-6277507I212131J-212134D01*
G01*
D11*
X13474800Y-7561771D02*
X13694800Y-7781771D01*
X13694800Y-7561771D02*
X13474800Y-7781771D01*
D10*
X13431767Y-15762142D02*
X13431767Y-15562142D01*
X13479386Y-15562142D01*
X13507958Y-15571666D01*
X13527005Y-15590714D01*
X13536529Y-15609762D01*
X13546053Y-15647857D01*
X13546053Y-15676428D01*
X13536529Y-15714523D01*
X13527005Y-15733571D01*
X13507958Y-15752619D01*
X13479386Y-15762142D01*
X13431767Y-15762142D01*
X13631767Y-15762142D02*
X13631767Y-15628809D01*
X13631767Y-15666904D02*
X13641291Y-15647857D01*
X13650815Y-15638333D01*
X13669863Y-15628809D01*
X13688910Y-15628809D01*
X13755577Y-15762142D02*
X13755577Y-15628809D01*
X13755577Y-15562142D02*
X13746053Y-15571666D01*
X13755577Y-15581190D01*
X13765101Y-15571666D01*
X13755577Y-15562142D01*
X13755577Y-15581190D01*
X13879386Y-15762142D02*
X13860339Y-15752619D01*
X13850815Y-15733571D01*
X13850815Y-15562142D01*
X13984148Y-15762142D02*
X13965101Y-15752619D01*
X13955577Y-15733571D01*
X13955577Y-15562142D01*
X14212720Y-15762142D02*
X14212720Y-15562142D01*
X14279386Y-15705000D01*
X14346053Y-15562142D01*
X14346053Y-15762142D01*
X14527005Y-15762142D02*
X14527005Y-15657381D01*
X14517482Y-15638333D01*
X14498434Y-15628809D01*
X14460339Y-15628809D01*
X14441291Y-15638333D01*
X14527005Y-15752619D02*
X14507958Y-15762142D01*
X14460339Y-15762142D01*
X14441291Y-15752619D01*
X14431767Y-15733571D01*
X14431767Y-15714523D01*
X14441291Y-15695476D01*
X14460339Y-15685952D01*
X14507958Y-15685952D01*
X14527005Y-15676428D01*
X14622244Y-15628809D02*
X14622244Y-15828809D01*
X14622244Y-15638333D02*
X14641291Y-15628809D01*
X14679386Y-15628809D01*
X14698434Y-15638333D01*
X14707958Y-15647857D01*
X14717482Y-15666904D01*
X14717482Y-15724047D01*
X14707958Y-15743095D01*
X14698434Y-15752619D01*
X14679386Y-15762142D01*
X14641291Y-15762142D01*
X14622244Y-15752619D01*
X14803196Y-15743095D02*
X14812720Y-15752619D01*
X14803196Y-15762142D01*
X14793672Y-15752619D01*
X14803196Y-15743095D01*
X14803196Y-15762142D01*
X14803196Y-15638333D02*
X14812720Y-15647857D01*
X14803196Y-15657381D01*
X14793672Y-15647857D01*
X14803196Y-15638333D01*
X14803196Y-15657381D01*
X12974148Y-15991666D02*
X13174148Y-16191666D01*
X13174148Y-15991666D02*
X12974148Y-16191666D01*
X13422244Y-16001190D02*
X13431767Y-15991666D01*
X13450815Y-15982142D01*
X13498434Y-15982142D01*
X13517482Y-15991666D01*
X13527005Y-16001190D01*
X13536529Y-16020238D01*
X13536529Y-16039285D01*
X13527005Y-16067857D01*
X13412720Y-16182142D01*
X13536529Y-16182142D01*
X13622244Y-16163095D02*
X13631767Y-16172619D01*
X13622244Y-16182142D01*
X13612720Y-16172619D01*
X13622244Y-16163095D01*
X13622244Y-16182142D01*
X13707958Y-16001190D02*
X13717482Y-15991666D01*
X13736529Y-15982142D01*
X13784148Y-15982142D01*
X13803196Y-15991666D01*
X13812720Y-16001190D01*
X13822244Y-16020238D01*
X13822244Y-16039285D01*
X13812720Y-16067857D01*
X13698434Y-16182142D01*
X13822244Y-16182142D01*
X13946053Y-15982142D02*
X13965101Y-15982142D01*
X13984148Y-15991666D01*
X13993672Y-16001190D01*
X14003196Y-16020238D01*
X14012720Y-16058333D01*
X14012720Y-16105952D01*
X14003196Y-16144047D01*
X13993672Y-16163095D01*
X13984148Y-16172619D01*
X13965101Y-16182142D01*
X13946053Y-16182142D01*
X13927005Y-16172619D01*
X13917482Y-16163095D01*
X13907958Y-16144047D01*
X13898434Y-16105952D01*
X13898434Y-16058333D01*
X13907958Y-16020238D01*
X13917482Y-16001190D01*
X13927005Y-15991666D01*
X13946053Y-15982142D01*
X14136529Y-15982142D02*
X14155577Y-15982142D01*
X14174624Y-15991666D01*
X14184148Y-16001190D01*
X14193672Y-16020238D01*
X14203196Y-16058333D01*
X14203196Y-16105952D01*
X14193672Y-16144047D01*
X14184148Y-16163095D01*
X14174624Y-16172619D01*
X14155577Y-16182142D01*
X14136529Y-16182142D01*
X14117482Y-16172619D01*
X14107958Y-16163095D01*
X14098434Y-16144047D01*
X14088910Y-16105952D01*
X14088910Y-16058333D01*
X14098434Y-16020238D01*
X14107958Y-16001190D01*
X14117482Y-15991666D01*
X14136529Y-15982142D01*
X14288910Y-16182142D02*
X14288910Y-16048809D01*
X14288910Y-16067857D02*
X14298434Y-16058333D01*
X14317482Y-16048809D01*
X14346053Y-16048809D01*
X14365101Y-16058333D01*
X14374624Y-16077381D01*
X14374624Y-16182142D01*
X14374624Y-16077381D02*
X14384148Y-16058333D01*
X14403196Y-16048809D01*
X14431767Y-16048809D01*
X14450815Y-16058333D01*
X14460339Y-16077381D01*
X14460339Y-16182142D01*
X14555577Y-16182142D02*
X14555577Y-16048809D01*
X14555577Y-16067857D02*
X14565101Y-16058333D01*
X14584148Y-16048809D01*
X14612720Y-16048809D01*
X14631767Y-16058333D01*
X14641291Y-16077381D01*
X14641291Y-16182142D01*
X14641291Y-16077381D02*
X14650815Y-16058333D01*
X14669863Y-16048809D01*
X14698434Y-16048809D01*
X14717482Y-16058333D01*
X14727005Y-16077381D01*
X14727005Y-16182142D01*
X15117482Y-15972619D02*
X14946053Y-16229762D01*
X15374624Y-15982142D02*
X15393672Y-15982142D01*
X15412720Y-15991666D01*
X15422244Y-16001190D01*
X15431767Y-16020238D01*
X15441291Y-16058333D01*
X15441291Y-16105952D01*
X15431767Y-16144047D01*
X15422244Y-16163095D01*
X15412720Y-16172619D01*
X15393672Y-16182142D01*
X15374624Y-16182142D01*
X15355577Y-16172619D01*
X15346053Y-16163095D01*
X15336529Y-16144047D01*
X15327005Y-16105952D01*
X15327005Y-16058333D01*
X15336529Y-16020238D01*
X15346053Y-16001190D01*
X15355577Y-15991666D01*
X15374624Y-15982142D01*
X15527005Y-16163095D02*
X15536529Y-16172619D01*
X15527005Y-16182142D01*
X15517482Y-16172619D01*
X15527005Y-16163095D01*
X15527005Y-16182142D01*
X15660339Y-15982142D02*
X15679386Y-15982142D01*
X15698434Y-15991666D01*
X15707958Y-16001190D01*
X15717482Y-16020238D01*
X15727005Y-16058333D01*
X15727005Y-16105952D01*
X15717482Y-16144047D01*
X15707958Y-16163095D01*
X15698434Y-16172619D01*
X15679386Y-16182142D01*
X15660339Y-16182142D01*
X15641291Y-16172619D01*
X15631767Y-16163095D01*
X15622244Y-16144047D01*
X15612720Y-16105952D01*
X15612720Y-16058333D01*
X15622244Y-16020238D01*
X15631767Y-16001190D01*
X15641291Y-15991666D01*
X15660339Y-15982142D01*
X15841291Y-16067857D02*
X15822244Y-16058333D01*
X15812720Y-16048809D01*
X15803196Y-16029762D01*
X15803196Y-16020238D01*
X15812720Y-16001190D01*
X15822244Y-15991666D01*
X15841291Y-15982142D01*
X15879386Y-15982142D01*
X15898434Y-15991666D01*
X15907958Y-16001190D01*
X15917482Y-16020238D01*
X15917482Y-16029762D01*
X15907958Y-16048809D01*
X15898434Y-16058333D01*
X15879386Y-16067857D01*
X15841291Y-16067857D01*
X15822244Y-16077381D01*
X15812720Y-16086904D01*
X15803196Y-16105952D01*
X15803196Y-16144047D01*
X15812720Y-16163095D01*
X15822244Y-16172619D01*
X15841291Y-16182142D01*
X15879386Y-16182142D01*
X15898434Y-16172619D01*
X15907958Y-16163095D01*
X15917482Y-16144047D01*
X15917482Y-16105952D01*
X15907958Y-16086904D01*
X15898434Y-16077381D01*
X15879386Y-16067857D01*
X16088910Y-15982142D02*
X16050815Y-15982142D01*
X16031767Y-15991666D01*
X16022244Y-16001190D01*
X16003196Y-16029762D01*
X15993672Y-16067857D01*
X15993672Y-16144047D01*
X16003196Y-16163095D01*
X16012720Y-16172619D01*
X16031767Y-16182142D01*
X16069863Y-16182142D01*
X16088910Y-16172619D01*
X16098434Y-16163095D01*
X16107958Y-16144047D01*
X16107958Y-16096428D01*
X16098434Y-16077381D01*
X16088910Y-16067857D01*
X16069863Y-16058333D01*
X16031767Y-16058333D01*
X16012720Y-16067857D01*
X16003196Y-16077381D01*
X15993672Y-16096428D01*
X16279386Y-15982142D02*
X16241291Y-15982142D01*
X16222244Y-15991666D01*
X16212720Y-16001190D01*
X16193672Y-16029762D01*
X16184148Y-16067857D01*
X16184148Y-16144047D01*
X16193672Y-16163095D01*
X16203196Y-16172619D01*
X16222244Y-16182142D01*
X16260339Y-16182142D01*
X16279386Y-16172619D01*
X16288910Y-16163095D01*
X16298434Y-16144047D01*
X16298434Y-16096428D01*
X16288910Y-16077381D01*
X16279386Y-16067857D01*
X16260339Y-16058333D01*
X16222244Y-16058333D01*
X16203196Y-16067857D01*
X16193672Y-16077381D01*
X16184148Y-16096428D01*
X16374624Y-15982142D02*
X16374624Y-16020238D01*
X16450815Y-15982142D02*
X16450815Y-16020238D01*
X16746053Y-16258333D02*
X16736529Y-16248809D01*
X16717482Y-16220238D01*
X16707958Y-16201190D01*
X16698434Y-16172619D01*
X16688910Y-16125000D01*
X16688910Y-16086904D01*
X16698434Y-16039285D01*
X16707958Y-16010714D01*
X16717482Y-15991666D01*
X16736529Y-15963095D01*
X16746053Y-15953571D01*
X16927006Y-16182142D02*
X16812720Y-16182142D01*
X16869863Y-16182142D02*
X16869863Y-15982142D01*
X16850815Y-16010714D01*
X16831767Y-16029762D01*
X16812720Y-16039285D01*
X17165101Y-16182142D02*
X17165101Y-15982142D01*
X17250815Y-16182142D02*
X17250815Y-16077381D01*
X17241291Y-16058333D01*
X17222244Y-16048809D01*
X17193672Y-16048809D01*
X17174625Y-16058333D01*
X17165101Y-16067857D01*
X17374625Y-16182142D02*
X17355577Y-16172619D01*
X17346053Y-16163095D01*
X17336529Y-16144047D01*
X17336529Y-16086904D01*
X17346053Y-16067857D01*
X17355577Y-16058333D01*
X17374625Y-16048809D01*
X17403196Y-16048809D01*
X17422244Y-16058333D01*
X17431767Y-16067857D01*
X17441291Y-16086904D01*
X17441291Y-16144047D01*
X17431767Y-16163095D01*
X17422244Y-16172619D01*
X17403196Y-16182142D01*
X17374625Y-16182142D01*
X17555577Y-16182142D02*
X17536529Y-16172619D01*
X17527006Y-16153571D01*
X17527006Y-15982142D01*
X17707958Y-16172619D02*
X17688910Y-16182142D01*
X17650815Y-16182142D01*
X17631767Y-16172619D01*
X17622244Y-16153571D01*
X17622244Y-16077381D01*
X17631767Y-16058333D01*
X17650815Y-16048809D01*
X17688910Y-16048809D01*
X17707958Y-16058333D01*
X17717482Y-16077381D01*
X17717482Y-16096428D01*
X17622244Y-16115476D01*
X17784148Y-16258333D02*
X17793672Y-16248809D01*
X17812720Y-16220238D01*
X17822244Y-16201190D01*
X17831767Y-16172619D01*
X17841291Y-16125000D01*
X17841291Y-16086904D01*
X17831767Y-16039285D01*
X17822244Y-16010714D01*
X17812720Y-15991666D01*
X17793672Y-15963095D01*
X17784148Y-15953571D01*
X18146053Y-16258333D02*
X18136529Y-16248809D01*
X18117482Y-16220238D01*
X18107958Y-16201190D01*
X18098434Y-16172619D01*
X18088910Y-16125000D01*
X18088910Y-16086904D01*
X18098434Y-16039285D01*
X18107958Y-16010714D01*
X18117482Y-15991666D01*
X18136529Y-15963095D01*
X18146053Y-15953571D01*
X18222244Y-16048809D02*
X18222244Y-16182142D01*
X18222244Y-16067857D02*
X18231767Y-16058333D01*
X18250815Y-16048809D01*
X18279386Y-16048809D01*
X18298434Y-16058333D01*
X18307958Y-16077381D01*
X18307958Y-16182142D01*
X18431767Y-16182142D02*
X18412720Y-16172619D01*
X18403196Y-16163095D01*
X18393672Y-16144047D01*
X18393672Y-16086904D01*
X18403196Y-16067857D01*
X18412720Y-16058333D01*
X18431767Y-16048809D01*
X18460339Y-16048809D01*
X18479386Y-16058333D01*
X18488910Y-16067857D01*
X18498434Y-16086904D01*
X18498434Y-16144047D01*
X18488910Y-16163095D01*
X18479386Y-16172619D01*
X18460339Y-16182142D01*
X18431767Y-16182142D01*
X18555577Y-16048809D02*
X18631767Y-16048809D01*
X18584148Y-15982142D02*
X18584148Y-16153571D01*
X18593672Y-16172619D01*
X18612720Y-16182142D01*
X18631767Y-16182142D01*
X18850815Y-16048809D02*
X18850815Y-16248809D01*
X18850815Y-16058333D02*
X18869863Y-16048809D01*
X18907958Y-16048809D01*
X18927006Y-16058333D01*
X18936529Y-16067857D01*
X18946053Y-16086904D01*
X18946053Y-16144047D01*
X18936529Y-16163095D01*
X18927006Y-16172619D01*
X18907958Y-16182142D01*
X18869863Y-16182142D01*
X18850815Y-16172619D01*
X19060339Y-16182142D02*
X19041291Y-16172619D01*
X19031767Y-16153571D01*
X19031767Y-15982142D01*
X19222244Y-16182142D02*
X19222244Y-16077381D01*
X19212720Y-16058333D01*
X19193672Y-16048809D01*
X19155577Y-16048809D01*
X19136529Y-16058333D01*
X19222244Y-16172619D02*
X19203196Y-16182142D01*
X19155577Y-16182142D01*
X19136529Y-16172619D01*
X19127006Y-16153571D01*
X19127006Y-16134523D01*
X19136529Y-16115476D01*
X19155577Y-16105952D01*
X19203196Y-16105952D01*
X19222244Y-16096428D01*
X19288910Y-16048809D02*
X19365101Y-16048809D01*
X19317482Y-15982142D02*
X19317482Y-16153571D01*
X19327006Y-16172619D01*
X19346053Y-16182142D01*
X19365101Y-16182142D01*
X19507958Y-16172619D02*
X19488910Y-16182142D01*
X19450815Y-16182142D01*
X19431767Y-16172619D01*
X19422244Y-16153571D01*
X19422244Y-16077381D01*
X19431767Y-16058333D01*
X19450815Y-16048809D01*
X19488910Y-16048809D01*
X19507958Y-16058333D01*
X19517482Y-16077381D01*
X19517482Y-16096428D01*
X19422244Y-16115476D01*
X19688910Y-16182142D02*
X19688910Y-15982142D01*
X19688910Y-16172619D02*
X19669863Y-16182142D01*
X19631767Y-16182142D01*
X19612720Y-16172619D01*
X19603196Y-16163095D01*
X19593672Y-16144047D01*
X19593672Y-16086904D01*
X19603196Y-16067857D01*
X19612720Y-16058333D01*
X19631767Y-16048809D01*
X19669863Y-16048809D01*
X19688910Y-16058333D01*
X19765101Y-16258333D02*
X19774625Y-16248809D01*
X19793672Y-16220238D01*
X19803196Y-16201190D01*
X19812720Y-16172619D01*
X19822244Y-16125000D01*
X19822244Y-16086904D01*
X19812720Y-16039285D01*
X19803196Y-16010714D01*
X19793672Y-15991666D01*
X19774625Y-15963095D01*
X19765101Y-15953571D01*
M02*
