G04 #@! TF.GenerationSoftware,KiCad,Pcbnew,(6.0.11)*
G04 #@! TF.CreationDate,2023-07-08T12:30:26+02:00*
G04 #@! TF.ProjectId,Dohle TankVerb,446f686c-6520-4546-916e-6b566572622e,rev?*
G04 #@! TF.SameCoordinates,Original*
G04 #@! TF.FileFunction,Copper,L1,Top*
G04 #@! TF.FilePolarity,Positive*
%FSLAX46Y46*%
G04 Gerber Fmt 4.6, Leading zero omitted, Abs format (unit mm)*
G04 Created by KiCad (PCBNEW (6.0.11)) date 2023-07-08 12:30:26*
%MOMM*%
%LPD*%
G01*
G04 APERTURE LIST*
G04 Aperture macros list*
%AMRoundRect*
0 Rectangle with rounded corners*
0 $1 Rounding radius*
0 $2 $3 $4 $5 $6 $7 $8 $9 X,Y pos of 4 corners*
0 Add a 4 corners polygon primitive as box body*
4,1,4,$2,$3,$4,$5,$6,$7,$8,$9,$2,$3,0*
0 Add four circle primitives for the rounded corners*
1,1,$1+$1,$2,$3*
1,1,$1+$1,$4,$5*
1,1,$1+$1,$6,$7*
1,1,$1+$1,$8,$9*
0 Add four rect primitives between the rounded corners*
20,1,$1+$1,$2,$3,$4,$5,0*
20,1,$1+$1,$4,$5,$6,$7,0*
20,1,$1+$1,$6,$7,$8,$9,0*
20,1,$1+$1,$8,$9,$2,$3,0*%
%AMHorizOval*
0 Thick line with rounded ends*
0 $1 width*
0 $2 $3 position (X,Y) of the first rounded end (center of the circle)*
0 $4 $5 position (X,Y) of the second rounded end (center of the circle)*
0 Add line between two ends*
20,1,$1,$2,$3,$4,$5,0*
0 Add two circle primitives to create the rounded ends*
1,1,$1,$2,$3*
1,1,$1,$4,$5*%
G04 Aperture macros list end*
G04 #@! TA.AperFunction,ComponentPad*
%ADD10O,4.250000X1.600000*%
G04 #@! TD*
G04 #@! TA.AperFunction,ComponentPad*
%ADD11R,1.700000X1.700000*%
G04 #@! TD*
G04 #@! TA.AperFunction,ComponentPad*
%ADD12O,1.700000X1.700000*%
G04 #@! TD*
G04 #@! TA.AperFunction,ComponentPad*
%ADD13RoundRect,0.250000X-0.350000X-0.625000X0.350000X-0.625000X0.350000X0.625000X-0.350000X0.625000X0*%
G04 #@! TD*
G04 #@! TA.AperFunction,ComponentPad*
%ADD14O,1.200000X1.750000*%
G04 #@! TD*
G04 #@! TA.AperFunction,ComponentPad*
%ADD15C,1.600000*%
G04 #@! TD*
G04 #@! TA.AperFunction,ComponentPad*
%ADD16R,2.400000X2.400000*%
G04 #@! TD*
G04 #@! TA.AperFunction,ComponentPad*
%ADD17O,2.400000X2.400000*%
G04 #@! TD*
G04 #@! TA.AperFunction,ComponentPad*
%ADD18O,3.800000X2.540000*%
G04 #@! TD*
G04 #@! TA.AperFunction,ComponentPad*
%ADD19O,8.000000X2.000000*%
G04 #@! TD*
G04 #@! TA.AperFunction,ComponentPad*
%ADD20HorizOval,2.000000X-1.414214X1.414214X1.414214X-1.414214X0*%
G04 #@! TD*
G04 #@! TA.AperFunction,ComponentPad*
%ADD21O,2.000000X8.000000*%
G04 #@! TD*
G04 #@! TA.AperFunction,ComponentPad*
%ADD22HorizOval,2.000000X-1.414214X-1.414214X1.414214X1.414214X0*%
G04 #@! TD*
G04 #@! TA.AperFunction,ComponentPad*
%ADD23C,1.700000*%
G04 #@! TD*
G04 #@! TA.AperFunction,ComponentPad*
%ADD24C,1.950000*%
G04 #@! TD*
G04 #@! TA.AperFunction,ComponentPad*
%ADD25C,1.575000*%
G04 #@! TD*
G04 #@! TA.AperFunction,ViaPad*
%ADD26C,0.800000*%
G04 #@! TD*
G04 #@! TA.AperFunction,Conductor*
%ADD27C,1.000000*%
G04 #@! TD*
G04 #@! TA.AperFunction,Conductor*
%ADD28C,0.250000*%
G04 #@! TD*
G04 #@! TA.AperFunction,Conductor*
%ADD29C,0.500000*%
G04 #@! TD*
G04 APERTURE END LIST*
D10*
X156434422Y-100558217D03*
X141423108Y-98079634D03*
X156396290Y-95588340D03*
D11*
X179552600Y-86106000D03*
D12*
X179552600Y-88646000D03*
X179552600Y-91186000D03*
X179552600Y-93726000D03*
X179552600Y-96266000D03*
X179552600Y-98806000D03*
X179552600Y-101346000D03*
D13*
X156407919Y-74930000D03*
D14*
X158407919Y-74930000D03*
D15*
X154940000Y-81280000D03*
X159940000Y-81280000D03*
D16*
X163855400Y-87604600D03*
D17*
X151155400Y-87604600D03*
D18*
X162225962Y-139708959D03*
X162225962Y-144410519D03*
X162225962Y-149108959D03*
X157226482Y-139708959D03*
X157226482Y-144410519D03*
X157226482Y-149108959D03*
X152125962Y-139709719D03*
X152125962Y-144411279D03*
X152125962Y-149109719D03*
D19*
X171437559Y-69113936D03*
D20*
X175945800Y-58166000D03*
D21*
X164915057Y-62119877D03*
X149534000Y-62595200D03*
D22*
X138586064Y-58086959D03*
D19*
X142539941Y-69117702D03*
D23*
X133223000Y-118059200D03*
X135763000Y-118059200D03*
X138303000Y-118059200D03*
X140843000Y-118059200D03*
X143383000Y-118059200D03*
X145923000Y-118059200D03*
X148463000Y-118059200D03*
X151003000Y-118059200D03*
X153543000Y-118059200D03*
X156083000Y-118059200D03*
X158623000Y-118059200D03*
X161163000Y-118059200D03*
X163703000Y-118059200D03*
X166243000Y-118059200D03*
X168783000Y-118059200D03*
X171323000Y-118059200D03*
X173863000Y-118059200D03*
X176403000Y-118059200D03*
X178943000Y-118059200D03*
X181483000Y-118059200D03*
X181483000Y-133299200D03*
X178943000Y-133299200D03*
X176403000Y-133299200D03*
X173863000Y-133299200D03*
X171323000Y-133299200D03*
X168783000Y-133299200D03*
X166243000Y-133299200D03*
X163703000Y-133299200D03*
X161163000Y-133299200D03*
X158623000Y-133299200D03*
X156083000Y-133299200D03*
X153543000Y-133299200D03*
X151003000Y-133299200D03*
X148463000Y-133299200D03*
X145923000Y-133299200D03*
X143383000Y-133299200D03*
X140843000Y-133299200D03*
X138303000Y-133299200D03*
X135763000Y-133299200D03*
D11*
X133223000Y-133299200D03*
D24*
X137941000Y-122136400D03*
X137941000Y-129136400D03*
D25*
X135441000Y-123386400D03*
X135441000Y-127886400D03*
D26*
X153114711Y-115951000D03*
X159182889Y-116052600D03*
X169348000Y-89967711D03*
D27*
X163957000Y-87503000D02*
X163855400Y-87604600D01*
X163957000Y-85297000D02*
X163957000Y-87503000D01*
X159940000Y-81280000D02*
X163957000Y-85297000D01*
X135763000Y-96052711D02*
X141348000Y-90467711D01*
X141348000Y-90467711D02*
X160992289Y-90467711D01*
X160992289Y-90467711D02*
X163855400Y-87604600D01*
X135763000Y-118059200D02*
X135763000Y-96052711D01*
D28*
X180238400Y-102031800D02*
X180238400Y-132054600D01*
X179552600Y-101346000D02*
X180238400Y-102031800D01*
X180238400Y-132054600D02*
X181483000Y-133299200D01*
D27*
X154940000Y-81280000D02*
X158407919Y-77812081D01*
X158407919Y-77812081D02*
X158407919Y-74930000D01*
D29*
X153114711Y-115951000D02*
X159081289Y-115951000D01*
X163727371Y-95588340D02*
X167848000Y-91467711D01*
X167848000Y-91467711D02*
X169348000Y-89967711D01*
X156396290Y-95588340D02*
X163727371Y-95588340D01*
X159081289Y-115951000D02*
X159182889Y-116052600D01*
D28*
X164973000Y-141663481D02*
X164973000Y-132461000D01*
X159667165Y-127155165D02*
X136172235Y-127155165D01*
X136172235Y-127155165D02*
X135441000Y-127886400D01*
X164973000Y-132461000D02*
X159667165Y-127155165D01*
X162225962Y-144410519D02*
X164973000Y-141663481D01*
D29*
X135441000Y-123386400D02*
X136516000Y-122311400D01*
X136516000Y-121546145D02*
X137666145Y-120396000D01*
X137666145Y-120396000D02*
X158826200Y-120396000D01*
X136516000Y-122311400D02*
X136516000Y-121546145D01*
X158826200Y-120396000D02*
X161163000Y-118059200D01*
D28*
X167418000Y-143916921D02*
X162225962Y-149108959D01*
X167418000Y-119234200D02*
X167418000Y-143916921D01*
X166243000Y-118059200D02*
X167418000Y-119234200D01*
D29*
X163703000Y-117072711D02*
X163703000Y-118059200D01*
X156434422Y-109804133D02*
X163703000Y-117072711D01*
X156434422Y-100558217D02*
X156434422Y-109804133D01*
X171437559Y-83680559D02*
X171437559Y-69113936D01*
X175103000Y-87346000D02*
X171437559Y-83680559D01*
X173736000Y-133172200D02*
X173863000Y-133299200D01*
X175103000Y-116429000D02*
X175103000Y-87346000D01*
D28*
X175133000Y-116459000D02*
X175133000Y-118999000D01*
D29*
X173736000Y-120396000D02*
X173736000Y-133172200D01*
X175133000Y-118999000D02*
X173736000Y-120396000D01*
X170180000Y-119126000D02*
X171323000Y-120269000D01*
X171704000Y-115473000D02*
X171704000Y-89154000D01*
X171704000Y-89154000D02*
X164915057Y-82365057D01*
X171323000Y-120269000D02*
X171323000Y-133299200D01*
X164915057Y-82365057D02*
X164915057Y-62119877D01*
X170083000Y-117094000D02*
X171704000Y-115473000D01*
D28*
X170083000Y-117094000D02*
X170089439Y-117100439D01*
X170089439Y-117100439D02*
X170089439Y-119035439D01*
X170089439Y-119035439D02*
X170180000Y-119126000D01*
G04 #@! TA.AperFunction,Conductor*
G36*
X180295026Y-118734344D02*
G01*
X180322875Y-118766194D01*
X180382987Y-118864288D01*
X180529250Y-119033138D01*
X180701126Y-119175832D01*
X180894000Y-119288538D01*
X180898825Y-119290380D01*
X180898826Y-119290381D01*
X180934863Y-119304142D01*
X181102692Y-119368230D01*
X181107760Y-119369261D01*
X181107763Y-119369262D01*
X181202720Y-119388581D01*
X181321597Y-119412767D01*
X181326772Y-119412957D01*
X181326774Y-119412957D01*
X181539673Y-119420764D01*
X181539677Y-119420764D01*
X181544837Y-119420953D01*
X181549957Y-119420297D01*
X181549959Y-119420297D01*
X181761288Y-119393225D01*
X181761289Y-119393225D01*
X181766416Y-119392568D01*
X181771376Y-119391080D01*
X181975429Y-119329861D01*
X181975434Y-119329859D01*
X181980384Y-119328374D01*
X182158070Y-119241327D01*
X182228041Y-119229320D01*
X182293399Y-119257050D01*
X182333389Y-119315713D01*
X182339500Y-119354478D01*
X182339500Y-132007276D01*
X182319498Y-132075397D01*
X182265842Y-132121890D01*
X182195568Y-132131994D01*
X182152606Y-132117585D01*
X182046107Y-132058794D01*
X182036705Y-132054569D01*
X181835959Y-131983480D01*
X181825989Y-131980846D01*
X181616327Y-131943501D01*
X181606073Y-131942531D01*
X181393116Y-131939928D01*
X181382832Y-131940648D01*
X181172321Y-131972861D01*
X181162293Y-131975250D01*
X180959868Y-132041412D01*
X180950359Y-132045409D01*
X180761466Y-132143740D01*
X180752734Y-132149239D01*
X180732677Y-132164299D01*
X180724223Y-132175627D01*
X180730968Y-132187958D01*
X181753115Y-133210105D01*
X181787141Y-133272417D01*
X181782076Y-133343232D01*
X181753115Y-133388295D01*
X180729737Y-134411673D01*
X180722977Y-134424053D01*
X180728258Y-134431107D01*
X180889756Y-134525479D01*
X180899042Y-134529929D01*
X181098001Y-134605903D01*
X181107899Y-134608779D01*
X181316595Y-134651238D01*
X181326823Y-134652457D01*
X181539650Y-134660262D01*
X181549936Y-134659795D01*
X181761185Y-134632734D01*
X181771262Y-134630592D01*
X181975255Y-134569391D01*
X181984842Y-134565633D01*
X182158067Y-134480771D01*
X182228041Y-134468764D01*
X182293399Y-134496494D01*
X182333389Y-134555157D01*
X182339500Y-134593922D01*
X182339500Y-144124670D01*
X182338000Y-144144052D01*
X182334309Y-144167761D01*
X182335474Y-144176667D01*
X182335474Y-144176668D01*
X182336662Y-144185753D01*
X182337529Y-144209157D01*
X182334646Y-144260515D01*
X182324236Y-144445935D01*
X182322654Y-144459975D01*
X182296356Y-144614779D01*
X182287643Y-144666069D01*
X182278231Y-144721470D01*
X182275088Y-144735241D01*
X182239344Y-144859320D01*
X182201659Y-144990132D01*
X182196992Y-145003469D01*
X182095489Y-145248525D01*
X182089364Y-145261245D01*
X181961049Y-145493417D01*
X181953547Y-145505357D01*
X181916263Y-145557904D01*
X181800046Y-145721696D01*
X181791236Y-145732743D01*
X181638159Y-145904036D01*
X181618534Y-145921819D01*
X181617776Y-145922373D01*
X181610525Y-145927670D01*
X181605054Y-145934787D01*
X181605050Y-145934791D01*
X181591121Y-145952911D01*
X181580321Y-145965215D01*
X174402027Y-153143510D01*
X174387259Y-153156157D01*
X174367883Y-153170312D01*
X174362409Y-153177433D01*
X174362408Y-153177434D01*
X174356824Y-153184698D01*
X174340888Y-153201858D01*
X174164062Y-153359878D01*
X174153015Y-153368688D01*
X173936686Y-153522180D01*
X173924722Y-153529697D01*
X173692578Y-153657998D01*
X173679847Y-153664129D01*
X173434792Y-153765631D01*
X173421455Y-153770298D01*
X173166574Y-153843726D01*
X173152799Y-153846870D01*
X172891295Y-153891299D01*
X172877265Y-153892879D01*
X172647681Y-153905769D01*
X172621239Y-153904467D01*
X172611642Y-153902973D01*
X172581982Y-153906851D01*
X172580070Y-153907101D01*
X172563735Y-153908164D01*
X142140000Y-153908164D01*
X142120616Y-153906664D01*
X142105782Y-153904354D01*
X142105779Y-153904354D01*
X142096909Y-153902973D01*
X142088007Y-153904137D01*
X142088004Y-153904137D01*
X142078915Y-153905326D01*
X142055516Y-153906192D01*
X141818730Y-153892897D01*
X141804704Y-153891317D01*
X141612156Y-153858604D01*
X141543197Y-153846888D01*
X141529422Y-153843744D01*
X141274538Y-153770316D01*
X141261205Y-153765651D01*
X141016152Y-153664148D01*
X141003423Y-153658018D01*
X140771261Y-153529710D01*
X140759303Y-153522196D01*
X140542975Y-153368705D01*
X140531929Y-153359897D01*
X140360604Y-153206791D01*
X140342823Y-153187169D01*
X140342289Y-153186438D01*
X140342287Y-153186436D01*
X140336992Y-153179188D01*
X140311747Y-153159782D01*
X140299443Y-153148981D01*
X136369061Y-149218598D01*
X149715802Y-149218598D01*
X149751448Y-149480527D01*
X149752757Y-149485017D01*
X149752758Y-149485023D01*
X149766017Y-149530511D01*
X149825419Y-149734309D01*
X149827377Y-149738556D01*
X149827378Y-149738559D01*
X149843431Y-149773380D01*
X149936089Y-149974371D01*
X149938652Y-149978280D01*
X150078461Y-150191524D01*
X150078465Y-150191529D01*
X150081027Y-150195437D01*
X150257048Y-150392652D01*
X150460286Y-150561683D01*
X150686276Y-150698818D01*
X150690584Y-150700624D01*
X150690585Y-150700625D01*
X150925738Y-150799233D01*
X150925743Y-150799235D01*
X150930053Y-150801042D01*
X150934585Y-150802193D01*
X150934588Y-150802194D01*
X150990159Y-150816307D01*
X151186263Y-150866111D01*
X151405818Y-150888219D01*
X152823070Y-150888219D01*
X152825395Y-150888046D01*
X152825401Y-150888046D01*
X153014926Y-150873962D01*
X153014930Y-150873961D01*
X153019578Y-150873616D01*
X153277403Y-150815276D01*
X153283711Y-150812823D01*
X153519420Y-150721161D01*
X153519422Y-150721160D01*
X153523773Y-150719468D01*
X153529159Y-150716390D01*
X153608410Y-150671094D01*
X153753275Y-150588297D01*
X153960868Y-150424644D01*
X154141992Y-150232104D01*
X154165006Y-150198929D01*
X154290004Y-150018745D01*
X154290007Y-150018740D01*
X154292666Y-150014907D01*
X154295108Y-150009956D01*
X154407517Y-149782013D01*
X154407518Y-149782010D01*
X154409582Y-149777825D01*
X154422395Y-149737799D01*
X154488748Y-149530511D01*
X154490171Y-149526066D01*
X154532662Y-149265160D01*
X154536122Y-149000840D01*
X154500476Y-148738911D01*
X154485686Y-148688167D01*
X154467697Y-148626451D01*
X154426505Y-148485129D01*
X154424196Y-148480119D01*
X154317792Y-148249313D01*
X154315835Y-148245067D01*
X154284309Y-148196982D01*
X154173463Y-148027914D01*
X154173459Y-148027909D01*
X154170897Y-148024001D01*
X153994876Y-147826786D01*
X153791638Y-147657755D01*
X153565648Y-147520620D01*
X153561339Y-147518813D01*
X153326186Y-147420205D01*
X153326181Y-147420203D01*
X153321871Y-147418396D01*
X153317339Y-147417245D01*
X153317336Y-147417244D01*
X153189841Y-147384865D01*
X153065661Y-147353327D01*
X152846106Y-147331219D01*
X151428854Y-147331219D01*
X151426529Y-147331392D01*
X151426523Y-147331392D01*
X151236998Y-147345476D01*
X151236994Y-147345477D01*
X151232346Y-147345822D01*
X150974521Y-147404162D01*
X150970169Y-147405854D01*
X150970167Y-147405855D01*
X150732504Y-147498277D01*
X150732502Y-147498278D01*
X150728151Y-147499970D01*
X150724097Y-147502287D01*
X150724095Y-147502288D01*
X150692021Y-147520620D01*
X150498649Y-147631141D01*
X150291056Y-147794794D01*
X150109932Y-147987334D01*
X150107266Y-147991177D01*
X149962448Y-148199933D01*
X149959258Y-148204531D01*
X149957192Y-148208720D01*
X149957191Y-148208722D01*
X149937549Y-148248553D01*
X149842342Y-148441613D01*
X149761753Y-148693372D01*
X149719262Y-148954278D01*
X149715802Y-149218598D01*
X136369061Y-149218598D01*
X133114623Y-145964160D01*
X133101974Y-145949390D01*
X133087822Y-145930017D01*
X133072995Y-145918619D01*
X133056078Y-145902954D01*
X132907026Y-145737128D01*
X132898609Y-145726697D01*
X132895795Y-145722802D01*
X132751235Y-145522755D01*
X132743976Y-145511491D01*
X132619107Y-145293061D01*
X132613083Y-145281088D01*
X132512118Y-145050618D01*
X132507400Y-145038072D01*
X132431488Y-144798181D01*
X132428130Y-144785206D01*
X132378130Y-144538614D01*
X132376169Y-144525355D01*
X132375681Y-144520158D01*
X149715802Y-144520158D01*
X149751448Y-144782087D01*
X149752757Y-144786577D01*
X149752758Y-144786583D01*
X149766017Y-144832071D01*
X149825419Y-145035869D01*
X149827377Y-145040116D01*
X149827378Y-145040119D01*
X149843431Y-145074940D01*
X149936089Y-145275931D01*
X149938652Y-145279840D01*
X150078461Y-145493084D01*
X150078465Y-145493089D01*
X150081027Y-145496997D01*
X150257048Y-145694212D01*
X150302649Y-145732138D01*
X150452025Y-145856372D01*
X150460286Y-145863243D01*
X150686276Y-146000378D01*
X150690584Y-146002184D01*
X150690585Y-146002185D01*
X150925738Y-146100793D01*
X150925743Y-146100795D01*
X150930053Y-146102602D01*
X150934585Y-146103753D01*
X150934588Y-146103754D01*
X150990159Y-146117867D01*
X151186263Y-146167671D01*
X151405818Y-146189779D01*
X152823070Y-146189779D01*
X152825395Y-146189606D01*
X152825401Y-146189606D01*
X153014926Y-146175522D01*
X153014930Y-146175521D01*
X153019578Y-146175176D01*
X153277403Y-146116836D01*
X153283711Y-146114383D01*
X153519420Y-146022721D01*
X153519422Y-146022720D01*
X153523773Y-146021028D01*
X153529159Y-146017950D01*
X153621426Y-145965215D01*
X153753275Y-145889857D01*
X153960868Y-145726204D01*
X154141992Y-145533664D01*
X154149558Y-145522757D01*
X154290004Y-145320305D01*
X154290007Y-145320300D01*
X154292666Y-145316467D01*
X154310113Y-145281088D01*
X154407517Y-145083573D01*
X154407518Y-145083570D01*
X154409582Y-145079385D01*
X154418791Y-145050618D01*
X154488748Y-144832071D01*
X154490171Y-144827626D01*
X154532662Y-144566720D01*
X154535378Y-144359254D01*
X154536061Y-144307077D01*
X154536061Y-144307074D01*
X154536122Y-144302400D01*
X154500476Y-144040471D01*
X154498189Y-144032622D01*
X154457480Y-143892960D01*
X154426505Y-143786689D01*
X154424196Y-143781679D01*
X154317792Y-143550873D01*
X154315835Y-143546627D01*
X154284309Y-143498542D01*
X154173463Y-143329474D01*
X154173459Y-143329469D01*
X154170897Y-143325561D01*
X153994876Y-143128346D01*
X153791638Y-142959315D01*
X153565648Y-142822180D01*
X153561339Y-142820373D01*
X153326186Y-142721765D01*
X153326181Y-142721763D01*
X153321871Y-142719956D01*
X153317339Y-142718805D01*
X153317336Y-142718804D01*
X153189841Y-142686425D01*
X153065661Y-142654887D01*
X152846106Y-142632779D01*
X151428854Y-142632779D01*
X151426529Y-142632952D01*
X151426523Y-142632952D01*
X151236998Y-142647036D01*
X151236994Y-142647037D01*
X151232346Y-142647382D01*
X150974521Y-142705722D01*
X150970169Y-142707414D01*
X150970167Y-142707415D01*
X150732504Y-142799837D01*
X150732502Y-142799838D01*
X150728151Y-142801530D01*
X150724097Y-142803847D01*
X150724095Y-142803848D01*
X150692021Y-142822180D01*
X150498649Y-142932701D01*
X150291056Y-143096354D01*
X150109932Y-143288894D01*
X150107266Y-143292737D01*
X149962448Y-143501493D01*
X149959258Y-143506091D01*
X149957192Y-143510280D01*
X149957191Y-143510282D01*
X149911800Y-143602327D01*
X149842342Y-143743173D01*
X149761753Y-143994932D01*
X149719262Y-144255838D01*
X149717927Y-144357826D01*
X149716774Y-144445935D01*
X149715802Y-144520158D01*
X132375681Y-144520158D01*
X132352646Y-144274849D01*
X132352104Y-144261456D01*
X132354865Y-144045749D01*
X132357905Y-144019807D01*
X132358194Y-144018516D01*
X132360158Y-144009754D01*
X132359455Y-143998778D01*
X132356758Y-143956716D01*
X132356500Y-143948655D01*
X132356500Y-139818598D01*
X149715802Y-139818598D01*
X149751448Y-140080527D01*
X149752757Y-140085017D01*
X149752758Y-140085023D01*
X149766017Y-140130511D01*
X149825419Y-140334309D01*
X149827377Y-140338556D01*
X149827378Y-140338559D01*
X149843431Y-140373380D01*
X149936089Y-140574371D01*
X149938652Y-140578280D01*
X150078461Y-140791524D01*
X150078465Y-140791529D01*
X150081027Y-140795437D01*
X150257048Y-140992652D01*
X150460286Y-141161683D01*
X150686276Y-141298818D01*
X150690584Y-141300624D01*
X150690585Y-141300625D01*
X150925738Y-141399233D01*
X150925743Y-141399235D01*
X150930053Y-141401042D01*
X150934585Y-141402193D01*
X150934588Y-141402194D01*
X150990159Y-141416307D01*
X151186263Y-141466111D01*
X151405818Y-141488219D01*
X152823070Y-141488219D01*
X152825395Y-141488046D01*
X152825401Y-141488046D01*
X153014926Y-141473962D01*
X153014930Y-141473961D01*
X153019578Y-141473616D01*
X153277403Y-141415276D01*
X153283711Y-141412823D01*
X153519420Y-141321161D01*
X153519422Y-141321160D01*
X153523773Y-141319468D01*
X153529159Y-141316390D01*
X153608410Y-141271094D01*
X153753275Y-141188297D01*
X153960868Y-141024644D01*
X154141992Y-140832104D01*
X154165006Y-140798929D01*
X154290004Y-140618745D01*
X154290007Y-140618740D01*
X154292666Y-140614907D01*
X154295108Y-140609956D01*
X154407517Y-140382013D01*
X154407518Y-140382010D01*
X154409582Y-140377825D01*
X154422395Y-140337799D01*
X154488748Y-140130511D01*
X154490171Y-140126066D01*
X154532662Y-139865160D01*
X154536122Y-139600840D01*
X154500476Y-139338911D01*
X154485686Y-139288167D01*
X154467697Y-139226451D01*
X154426505Y-139085129D01*
X154424196Y-139080119D01*
X154317792Y-138849313D01*
X154315835Y-138845067D01*
X154284309Y-138796982D01*
X154173463Y-138627914D01*
X154173459Y-138627909D01*
X154170897Y-138624001D01*
X154055250Y-138494429D01*
X153997993Y-138430278D01*
X153997991Y-138430276D01*
X153994876Y-138426786D01*
X153791638Y-138257755D01*
X153565648Y-138120620D01*
X153561339Y-138118813D01*
X153326186Y-138020205D01*
X153326181Y-138020203D01*
X153321871Y-138018396D01*
X153317339Y-138017245D01*
X153317336Y-138017244D01*
X153189841Y-137984865D01*
X153065661Y-137953327D01*
X152846106Y-137931219D01*
X151428854Y-137931219D01*
X151426529Y-137931392D01*
X151426523Y-137931392D01*
X151236998Y-137945476D01*
X151236994Y-137945477D01*
X151232346Y-137945822D01*
X150974521Y-138004162D01*
X150970169Y-138005854D01*
X150970167Y-138005855D01*
X150732504Y-138098277D01*
X150732502Y-138098278D01*
X150728151Y-138099970D01*
X150724097Y-138102287D01*
X150724095Y-138102288D01*
X150692021Y-138120620D01*
X150498649Y-138231141D01*
X150291056Y-138394794D01*
X150109932Y-138587334D01*
X150107266Y-138591177D01*
X149962448Y-138799933D01*
X149959258Y-138804531D01*
X149957192Y-138808720D01*
X149957191Y-138808722D01*
X149937549Y-138848553D01*
X149842342Y-139041613D01*
X149761753Y-139293372D01*
X149719262Y-139554278D01*
X149715802Y-139818598D01*
X132356500Y-139818598D01*
X132356500Y-134783700D01*
X132376502Y-134715579D01*
X132430158Y-134669086D01*
X132482500Y-134657700D01*
X134121134Y-134657700D01*
X134183316Y-134650945D01*
X134319705Y-134599815D01*
X134436261Y-134512461D01*
X134523615Y-134395905D01*
X134545799Y-134336729D01*
X134567598Y-134278582D01*
X134610240Y-134221818D01*
X134676802Y-134197118D01*
X134746150Y-134212326D01*
X134780817Y-134240314D01*
X134809250Y-134273138D01*
X134981126Y-134415832D01*
X135174000Y-134528538D01*
X135178825Y-134530380D01*
X135178826Y-134530381D01*
X135221724Y-134546762D01*
X135382692Y-134608230D01*
X135387760Y-134609261D01*
X135387763Y-134609262D01*
X135466436Y-134625268D01*
X135601597Y-134652767D01*
X135606772Y-134652957D01*
X135606774Y-134652957D01*
X135819673Y-134660764D01*
X135819677Y-134660764D01*
X135824837Y-134660953D01*
X135829957Y-134660297D01*
X135829959Y-134660297D01*
X136041288Y-134633225D01*
X136041289Y-134633225D01*
X136046416Y-134632568D01*
X136051369Y-134631082D01*
X136255429Y-134569861D01*
X136255434Y-134569859D01*
X136260384Y-134568374D01*
X136460994Y-134470096D01*
X136642860Y-134340373D01*
X136801096Y-134182689D01*
X136931453Y-134001277D01*
X136932776Y-134002228D01*
X136979645Y-133959057D01*
X137049580Y-133946825D01*
X137115026Y-133974344D01*
X137142875Y-134006194D01*
X137202987Y-134104288D01*
X137349250Y-134273138D01*
X137521126Y-134415832D01*
X137714000Y-134528538D01*
X137718825Y-134530380D01*
X137718826Y-134530381D01*
X137761724Y-134546762D01*
X137922692Y-134608230D01*
X137927760Y-134609261D01*
X137927763Y-134609262D01*
X138006436Y-134625268D01*
X138141597Y-134652767D01*
X138146772Y-134652957D01*
X138146774Y-134652957D01*
X138359673Y-134660764D01*
X138359677Y-134660764D01*
X138364837Y-134660953D01*
X138369957Y-134660297D01*
X138369959Y-134660297D01*
X138581288Y-134633225D01*
X138581289Y-134633225D01*
X138586416Y-134632568D01*
X138591369Y-134631082D01*
X138795429Y-134569861D01*
X138795434Y-134569859D01*
X138800384Y-134568374D01*
X139000994Y-134470096D01*
X139182860Y-134340373D01*
X139341096Y-134182689D01*
X139471453Y-134001277D01*
X139472776Y-134002228D01*
X139519645Y-133959057D01*
X139589580Y-133946825D01*
X139655026Y-133974344D01*
X139682875Y-134006194D01*
X139742987Y-134104288D01*
X139889250Y-134273138D01*
X140061126Y-134415832D01*
X140254000Y-134528538D01*
X140258825Y-134530380D01*
X140258826Y-134530381D01*
X140301724Y-134546762D01*
X140462692Y-134608230D01*
X140467760Y-134609261D01*
X140467763Y-134609262D01*
X140546436Y-134625268D01*
X140681597Y-134652767D01*
X140686772Y-134652957D01*
X140686774Y-134652957D01*
X140899673Y-134660764D01*
X140899677Y-134660764D01*
X140904837Y-134660953D01*
X140909957Y-134660297D01*
X140909959Y-134660297D01*
X141121288Y-134633225D01*
X141121289Y-134633225D01*
X141126416Y-134632568D01*
X141131369Y-134631082D01*
X141335429Y-134569861D01*
X141335434Y-134569859D01*
X141340384Y-134568374D01*
X141540994Y-134470096D01*
X141722860Y-134340373D01*
X141881096Y-134182689D01*
X142011453Y-134001277D01*
X142012776Y-134002228D01*
X142059645Y-133959057D01*
X142129580Y-133946825D01*
X142195026Y-133974344D01*
X142222875Y-134006194D01*
X142282987Y-134104288D01*
X142429250Y-134273138D01*
X142601126Y-134415832D01*
X142794000Y-134528538D01*
X142798825Y-134530380D01*
X142798826Y-134530381D01*
X142841724Y-134546762D01*
X143002692Y-134608230D01*
X143007760Y-134609261D01*
X143007763Y-134609262D01*
X143086436Y-134625268D01*
X143221597Y-134652767D01*
X143226772Y-134652957D01*
X143226774Y-134652957D01*
X143439673Y-134660764D01*
X143439677Y-134660764D01*
X143444837Y-134660953D01*
X143449957Y-134660297D01*
X143449959Y-134660297D01*
X143661288Y-134633225D01*
X143661289Y-134633225D01*
X143666416Y-134632568D01*
X143671369Y-134631082D01*
X143875429Y-134569861D01*
X143875434Y-134569859D01*
X143880384Y-134568374D01*
X144080994Y-134470096D01*
X144262860Y-134340373D01*
X144421096Y-134182689D01*
X144551453Y-134001277D01*
X144552776Y-134002228D01*
X144599645Y-133959057D01*
X144669580Y-133946825D01*
X144735026Y-133974344D01*
X144762875Y-134006194D01*
X144822987Y-134104288D01*
X144969250Y-134273138D01*
X145141126Y-134415832D01*
X145334000Y-134528538D01*
X145338825Y-134530380D01*
X145338826Y-134530381D01*
X145381724Y-134546762D01*
X145542692Y-134608230D01*
X145547760Y-134609261D01*
X145547763Y-134609262D01*
X145626436Y-134625268D01*
X145761597Y-134652767D01*
X145766772Y-134652957D01*
X145766774Y-134652957D01*
X145979673Y-134660764D01*
X145979677Y-134660764D01*
X145984837Y-134660953D01*
X145989957Y-134660297D01*
X145989959Y-134660297D01*
X146201288Y-134633225D01*
X146201289Y-134633225D01*
X146206416Y-134632568D01*
X146211369Y-134631082D01*
X146415429Y-134569861D01*
X146415434Y-134569859D01*
X146420384Y-134568374D01*
X146620994Y-134470096D01*
X146802860Y-134340373D01*
X146961096Y-134182689D01*
X147091453Y-134001277D01*
X147092776Y-134002228D01*
X147139645Y-133959057D01*
X147209580Y-133946825D01*
X147275026Y-133974344D01*
X147302875Y-134006194D01*
X147362987Y-134104288D01*
X147509250Y-134273138D01*
X147681126Y-134415832D01*
X147874000Y-134528538D01*
X147878825Y-134530380D01*
X147878826Y-134530381D01*
X147921724Y-134546762D01*
X148082692Y-134608230D01*
X148087760Y-134609261D01*
X148087763Y-134609262D01*
X148166436Y-134625268D01*
X148301597Y-134652767D01*
X148306772Y-134652957D01*
X148306774Y-134652957D01*
X148519673Y-134660764D01*
X148519677Y-134660764D01*
X148524837Y-134660953D01*
X148529957Y-134660297D01*
X148529959Y-134660297D01*
X148741288Y-134633225D01*
X148741289Y-134633225D01*
X148746416Y-134632568D01*
X148751369Y-134631082D01*
X148955429Y-134569861D01*
X148955434Y-134569859D01*
X148960384Y-134568374D01*
X149160994Y-134470096D01*
X149342860Y-134340373D01*
X149501096Y-134182689D01*
X149631453Y-134001277D01*
X149632776Y-134002228D01*
X149679645Y-133959057D01*
X149749580Y-133946825D01*
X149815026Y-133974344D01*
X149842875Y-134006194D01*
X149902987Y-134104288D01*
X150049250Y-134273138D01*
X150221126Y-134415832D01*
X150414000Y-134528538D01*
X150418825Y-134530380D01*
X150418826Y-134530381D01*
X150461724Y-134546762D01*
X150622692Y-134608230D01*
X150627760Y-134609261D01*
X150627763Y-134609262D01*
X150706436Y-134625268D01*
X150841597Y-134652767D01*
X150846772Y-134652957D01*
X150846774Y-134652957D01*
X151059673Y-134660764D01*
X151059677Y-134660764D01*
X151064837Y-134660953D01*
X151069957Y-134660297D01*
X151069959Y-134660297D01*
X151281288Y-134633225D01*
X151281289Y-134633225D01*
X151286416Y-134632568D01*
X151291369Y-134631082D01*
X151495429Y-134569861D01*
X151495434Y-134569859D01*
X151500384Y-134568374D01*
X151700994Y-134470096D01*
X151882860Y-134340373D01*
X152041096Y-134182689D01*
X152171453Y-134001277D01*
X152172776Y-134002228D01*
X152219645Y-133959057D01*
X152289580Y-133946825D01*
X152355026Y-133974344D01*
X152382875Y-134006194D01*
X152442987Y-134104288D01*
X152589250Y-134273138D01*
X152761126Y-134415832D01*
X152954000Y-134528538D01*
X152958825Y-134530380D01*
X152958826Y-134530381D01*
X153001724Y-134546762D01*
X153162692Y-134608230D01*
X153167760Y-134609261D01*
X153167763Y-134609262D01*
X153246436Y-134625268D01*
X153381597Y-134652767D01*
X153386772Y-134652957D01*
X153386774Y-134652957D01*
X153599673Y-134660764D01*
X153599677Y-134660764D01*
X153604837Y-134660953D01*
X153609957Y-134660297D01*
X153609959Y-134660297D01*
X153821288Y-134633225D01*
X153821289Y-134633225D01*
X153826416Y-134632568D01*
X153831369Y-134631082D01*
X154035429Y-134569861D01*
X154035434Y-134569859D01*
X154040384Y-134568374D01*
X154240994Y-134470096D01*
X154422860Y-134340373D01*
X154581096Y-134182689D01*
X154711453Y-134001277D01*
X154712776Y-134002228D01*
X154759645Y-133959057D01*
X154829580Y-133946825D01*
X154895026Y-133974344D01*
X154922875Y-134006194D01*
X154982987Y-134104288D01*
X155129250Y-134273138D01*
X155301126Y-134415832D01*
X155494000Y-134528538D01*
X155498825Y-134530380D01*
X155498826Y-134530381D01*
X155541724Y-134546762D01*
X155702692Y-134608230D01*
X155707760Y-134609261D01*
X155707763Y-134609262D01*
X155786436Y-134625268D01*
X155921597Y-134652767D01*
X155926772Y-134652957D01*
X155926774Y-134652957D01*
X156139673Y-134660764D01*
X156139677Y-134660764D01*
X156144837Y-134660953D01*
X156149957Y-134660297D01*
X156149959Y-134660297D01*
X156361288Y-134633225D01*
X156361289Y-134633225D01*
X156366416Y-134632568D01*
X156371369Y-134631082D01*
X156575429Y-134569861D01*
X156575434Y-134569859D01*
X156580384Y-134568374D01*
X156780994Y-134470096D01*
X156962860Y-134340373D01*
X157121096Y-134182689D01*
X157251453Y-134001277D01*
X157252776Y-134002228D01*
X157299645Y-133959057D01*
X157369580Y-133946825D01*
X157435026Y-133974344D01*
X157462875Y-134006194D01*
X157522987Y-134104288D01*
X157669250Y-134273138D01*
X157841126Y-134415832D01*
X158034000Y-134528538D01*
X158038825Y-134530380D01*
X158038826Y-134530381D01*
X158081724Y-134546762D01*
X158242692Y-134608230D01*
X158247760Y-134609261D01*
X158247763Y-134609262D01*
X158326436Y-134625268D01*
X158461597Y-134652767D01*
X158466772Y-134652957D01*
X158466774Y-134652957D01*
X158679673Y-134660764D01*
X158679677Y-134660764D01*
X158684837Y-134660953D01*
X158689957Y-134660297D01*
X158689959Y-134660297D01*
X158901288Y-134633225D01*
X158901289Y-134633225D01*
X158906416Y-134632568D01*
X158911369Y-134631082D01*
X159115429Y-134569861D01*
X159115434Y-134569859D01*
X159120384Y-134568374D01*
X159320994Y-134470096D01*
X159502860Y-134340373D01*
X159661096Y-134182689D01*
X159791453Y-134001277D01*
X159792776Y-134002228D01*
X159839645Y-133959057D01*
X159909580Y-133946825D01*
X159975026Y-133974344D01*
X160002875Y-134006194D01*
X160062987Y-134104288D01*
X160209250Y-134273138D01*
X160381126Y-134415832D01*
X160574000Y-134528538D01*
X160578825Y-134530380D01*
X160578826Y-134530381D01*
X160621724Y-134546762D01*
X160782692Y-134608230D01*
X160787760Y-134609261D01*
X160787763Y-134609262D01*
X160866436Y-134625268D01*
X161001597Y-134652767D01*
X161006772Y-134652957D01*
X161006774Y-134652957D01*
X161219673Y-134660764D01*
X161219677Y-134660764D01*
X161224837Y-134660953D01*
X161229957Y-134660297D01*
X161229959Y-134660297D01*
X161441288Y-134633225D01*
X161441289Y-134633225D01*
X161446416Y-134632568D01*
X161451369Y-134631082D01*
X161655429Y-134569861D01*
X161655434Y-134569859D01*
X161660384Y-134568374D01*
X161860994Y-134470096D01*
X162042860Y-134340373D01*
X162201096Y-134182689D01*
X162331453Y-134001277D01*
X162332776Y-134002228D01*
X162379645Y-133959057D01*
X162449580Y-133946825D01*
X162515026Y-133974344D01*
X162542875Y-134006194D01*
X162602987Y-134104288D01*
X162749250Y-134273138D01*
X162921126Y-134415832D01*
X163114000Y-134528538D01*
X163118825Y-134530380D01*
X163118826Y-134530381D01*
X163161724Y-134546762D01*
X163322692Y-134608230D01*
X163327760Y-134609261D01*
X163327763Y-134609262D01*
X163406436Y-134625268D01*
X163541597Y-134652767D01*
X163546772Y-134652957D01*
X163546774Y-134652957D01*
X163759673Y-134660764D01*
X163759677Y-134660764D01*
X163764837Y-134660953D01*
X163769957Y-134660297D01*
X163769959Y-134660297D01*
X163981288Y-134633225D01*
X163981289Y-134633225D01*
X163986416Y-134632568D01*
X163993003Y-134630592D01*
X164177292Y-134575302D01*
X164248288Y-134574885D01*
X164308238Y-134612918D01*
X164338110Y-134677324D01*
X164339500Y-134695988D01*
X164339500Y-138369711D01*
X164319498Y-138437832D01*
X164265842Y-138484325D01*
X164195568Y-138494429D01*
X164130988Y-138464935D01*
X164119500Y-138453615D01*
X164094876Y-138426026D01*
X163891638Y-138256995D01*
X163665648Y-138119860D01*
X163661339Y-138118053D01*
X163426186Y-138019445D01*
X163426181Y-138019443D01*
X163421871Y-138017636D01*
X163417339Y-138016485D01*
X163417336Y-138016484D01*
X163173193Y-137954480D01*
X163165661Y-137952567D01*
X162946106Y-137930459D01*
X161528854Y-137930459D01*
X161526529Y-137930632D01*
X161526523Y-137930632D01*
X161336998Y-137944716D01*
X161336994Y-137944717D01*
X161332346Y-137945062D01*
X161074521Y-138003402D01*
X161070169Y-138005094D01*
X161070167Y-138005095D01*
X160832504Y-138097517D01*
X160832502Y-138097518D01*
X160828151Y-138099210D01*
X160824097Y-138101527D01*
X160824095Y-138101528D01*
X160743514Y-138147584D01*
X160598649Y-138230381D01*
X160391056Y-138394034D01*
X160209932Y-138586574D01*
X160207266Y-138590417D01*
X160181254Y-138627914D01*
X160059258Y-138803771D01*
X160057192Y-138807960D01*
X160057191Y-138807962D01*
X160041196Y-138840398D01*
X159942342Y-139040853D01*
X159940920Y-139045296D01*
X159940919Y-139045298D01*
X159928412Y-139084369D01*
X159861753Y-139292612D01*
X159861004Y-139297213D01*
X159861003Y-139297216D01*
X159851845Y-139353450D01*
X159821153Y-139417469D01*
X159760721Y-139454733D01*
X159689737Y-139453409D01*
X159630737Y-139413919D01*
X159602634Y-139350187D01*
X159602598Y-139349923D01*
X159600996Y-139338151D01*
X159589065Y-139297216D01*
X159528556Y-139089622D01*
X159527025Y-139084369D01*
X159509364Y-139046058D01*
X159483478Y-138989909D01*
X159416355Y-138844307D01*
X159274481Y-138627914D01*
X159273983Y-138627154D01*
X159273979Y-138627149D01*
X159271417Y-138623241D01*
X159095396Y-138426026D01*
X158892158Y-138256995D01*
X158666168Y-138119860D01*
X158661859Y-138118053D01*
X158426706Y-138019445D01*
X158426701Y-138019443D01*
X158422391Y-138017636D01*
X158417859Y-138016485D01*
X158417856Y-138016484D01*
X158173713Y-137954480D01*
X158166181Y-137952567D01*
X157946626Y-137930459D01*
X156529374Y-137930459D01*
X156527049Y-137930632D01*
X156527043Y-137930632D01*
X156337518Y-137944716D01*
X156337514Y-137944717D01*
X156332866Y-137945062D01*
X156075041Y-138003402D01*
X156070689Y-138005094D01*
X156070687Y-138005095D01*
X155833024Y-138097517D01*
X155833022Y-138097518D01*
X155828671Y-138099210D01*
X155824617Y-138101527D01*
X155824615Y-138101528D01*
X155744034Y-138147584D01*
X155599169Y-138230381D01*
X155391576Y-138394034D01*
X155210452Y-138586574D01*
X155207786Y-138590417D01*
X155181774Y-138627914D01*
X155059778Y-138803771D01*
X155057712Y-138807960D01*
X155057711Y-138807962D01*
X155041716Y-138840398D01*
X154942862Y-139040853D01*
X154941440Y-139045296D01*
X154941439Y-139045298D01*
X154928932Y-139084369D01*
X154862273Y-139292612D01*
X154819782Y-139553518D01*
X154816322Y-139817838D01*
X154851968Y-140079767D01*
X154853277Y-140084257D01*
X154853278Y-140084263D01*
X154884747Y-140192227D01*
X154925939Y-140333549D01*
X154927897Y-140337796D01*
X154927898Y-140337799D01*
X154943951Y-140372620D01*
X155036609Y-140573611D01*
X155039172Y-140577520D01*
X155178981Y-140790764D01*
X155178985Y-140790769D01*
X155181547Y-140794677D01*
X155357568Y-140991892D01*
X155560806Y-141160923D01*
X155786796Y-141298058D01*
X155791104Y-141299864D01*
X155791105Y-141299865D01*
X156026258Y-141398473D01*
X156026263Y-141398475D01*
X156030573Y-141400282D01*
X156035105Y-141401433D01*
X156035108Y-141401434D01*
X156162603Y-141433813D01*
X156286783Y-141465351D01*
X156506338Y-141487459D01*
X157923590Y-141487459D01*
X157925915Y-141487286D01*
X157925921Y-141487286D01*
X158115446Y-141473202D01*
X158115450Y-141473201D01*
X158120098Y-141472856D01*
X158377923Y-141414516D01*
X158409609Y-141402194D01*
X158619940Y-141320401D01*
X158619942Y-141320400D01*
X158624293Y-141318708D01*
X158657262Y-141299865D01*
X158708930Y-141270334D01*
X158853795Y-141187537D01*
X159061388Y-141023884D01*
X159242512Y-140831344D01*
X159265526Y-140798169D01*
X159390524Y-140617985D01*
X159390527Y-140617980D01*
X159393186Y-140614147D01*
X159410874Y-140578280D01*
X159508037Y-140381253D01*
X159508038Y-140381250D01*
X159510102Y-140377065D01*
X159590691Y-140125306D01*
X159597252Y-140085023D01*
X159600599Y-140064468D01*
X159631291Y-140000449D01*
X159691723Y-139963185D01*
X159762707Y-139964509D01*
X159821707Y-140003999D01*
X159849810Y-140067731D01*
X159851448Y-140079767D01*
X159852757Y-140084257D01*
X159852758Y-140084263D01*
X159884227Y-140192227D01*
X159925419Y-140333549D01*
X159927377Y-140337796D01*
X159927378Y-140337799D01*
X159943431Y-140372620D01*
X160036089Y-140573611D01*
X160038652Y-140577520D01*
X160178461Y-140790764D01*
X160178465Y-140790769D01*
X160181027Y-140794677D01*
X160357048Y-140991892D01*
X160560286Y-141160923D01*
X160786276Y-141298058D01*
X160790584Y-141299864D01*
X160790585Y-141299865D01*
X161025738Y-141398473D01*
X161025743Y-141398475D01*
X161030053Y-141400282D01*
X161034585Y-141401433D01*
X161034588Y-141401434D01*
X161162083Y-141433813D01*
X161286263Y-141465351D01*
X161505818Y-141487459D01*
X162923070Y-141487459D01*
X162925395Y-141487286D01*
X162925401Y-141487286D01*
X163114926Y-141473202D01*
X163114930Y-141473201D01*
X163119578Y-141472856D01*
X163377403Y-141414516D01*
X163409089Y-141402194D01*
X163619420Y-141320401D01*
X163619422Y-141320400D01*
X163623773Y-141318708D01*
X163656742Y-141299865D01*
X163708410Y-141270334D01*
X163853275Y-141187537D01*
X164060868Y-141023884D01*
X164121726Y-140959191D01*
X164182969Y-140923279D01*
X164253907Y-140926179D01*
X164312015Y-140966970D01*
X164338846Y-141032701D01*
X164339500Y-141045524D01*
X164339500Y-141348886D01*
X164319498Y-141417007D01*
X164302595Y-141437981D01*
X163135954Y-142604622D01*
X163073642Y-142638648D01*
X163034237Y-142640893D01*
X162985551Y-142635991D01*
X162949245Y-142632335D01*
X162949244Y-142632335D01*
X162946106Y-142632019D01*
X161528854Y-142632019D01*
X161526529Y-142632192D01*
X161526523Y-142632192D01*
X161336998Y-142646276D01*
X161336994Y-142646277D01*
X161332346Y-142646622D01*
X161074521Y-142704962D01*
X161070169Y-142706654D01*
X161070167Y-142706655D01*
X160832504Y-142799077D01*
X160832502Y-142799078D01*
X160828151Y-142800770D01*
X160824097Y-142803087D01*
X160824095Y-142803088D01*
X160743514Y-142849144D01*
X160598649Y-142931941D01*
X160391056Y-143095594D01*
X160209932Y-143288134D01*
X160207266Y-143291977D01*
X160181254Y-143329474D01*
X160059258Y-143505331D01*
X160057192Y-143509520D01*
X160057191Y-143509522D01*
X159985688Y-143654517D01*
X159942342Y-143742413D01*
X159940920Y-143746856D01*
X159940919Y-143746858D01*
X159928412Y-143785929D01*
X159861753Y-143994172D01*
X159861004Y-143998773D01*
X159861003Y-143998776D01*
X159851845Y-144055010D01*
X159821153Y-144119029D01*
X159760721Y-144156293D01*
X159689737Y-144154969D01*
X159630737Y-144115479D01*
X159602634Y-144051747D01*
X159602586Y-144051397D01*
X159600996Y-144039711D01*
X159595195Y-144019807D01*
X159556498Y-143887046D01*
X159527025Y-143785929D01*
X159509364Y-143747618D01*
X159442383Y-143602327D01*
X159416355Y-143545867D01*
X159274481Y-143329474D01*
X159273983Y-143328714D01*
X159273979Y-143328709D01*
X159271417Y-143324801D01*
X159095396Y-143127586D01*
X158892158Y-142958555D01*
X158666168Y-142821420D01*
X158661859Y-142819613D01*
X158426706Y-142721005D01*
X158426701Y-142721003D01*
X158422391Y-142719196D01*
X158417859Y-142718045D01*
X158417856Y-142718044D01*
X158173713Y-142656040D01*
X158166181Y-142654127D01*
X157946626Y-142632019D01*
X156529374Y-142632019D01*
X156527049Y-142632192D01*
X156527043Y-142632192D01*
X156337518Y-142646276D01*
X156337514Y-142646277D01*
X156332866Y-142646622D01*
X156075041Y-142704962D01*
X156070689Y-142706654D01*
X156070687Y-142706655D01*
X155833024Y-142799077D01*
X155833022Y-142799078D01*
X155828671Y-142800770D01*
X155824617Y-142803087D01*
X155824615Y-142803088D01*
X155744034Y-142849144D01*
X155599169Y-142931941D01*
X155391576Y-143095594D01*
X155210452Y-143288134D01*
X155207786Y-143291977D01*
X155181774Y-143329474D01*
X155059778Y-143505331D01*
X155057712Y-143509520D01*
X155057711Y-143509522D01*
X154986208Y-143654517D01*
X154942862Y-143742413D01*
X154941440Y-143746856D01*
X154941439Y-143746858D01*
X154928932Y-143785929D01*
X154862273Y-143994172D01*
X154844657Y-144102341D01*
X154832985Y-144174011D01*
X154819782Y-144255078D01*
X154816322Y-144519398D01*
X154851968Y-144781327D01*
X154853277Y-144785817D01*
X154853278Y-144785823D01*
X154874701Y-144859320D01*
X154925939Y-145035109D01*
X154927897Y-145039356D01*
X154927898Y-145039359D01*
X154943951Y-145074180D01*
X155036609Y-145275171D01*
X155044516Y-145287231D01*
X155178981Y-145492324D01*
X155178985Y-145492329D01*
X155181547Y-145496237D01*
X155357568Y-145693452D01*
X155560806Y-145862483D01*
X155786796Y-145999618D01*
X155791104Y-146001424D01*
X155791105Y-146001425D01*
X156026258Y-146100033D01*
X156026263Y-146100035D01*
X156030573Y-146101842D01*
X156035105Y-146102993D01*
X156035108Y-146102994D01*
X156124148Y-146125607D01*
X156286783Y-146166911D01*
X156506338Y-146189019D01*
X157923590Y-146189019D01*
X157925915Y-146188846D01*
X157925921Y-146188846D01*
X158115446Y-146174762D01*
X158115450Y-146174761D01*
X158120098Y-146174416D01*
X158377923Y-146116076D01*
X158409609Y-146103754D01*
X158619940Y-146021961D01*
X158619942Y-146021960D01*
X158624293Y-146020268D01*
X158657262Y-146001425D01*
X158748304Y-145949390D01*
X158853795Y-145889097D01*
X159061388Y-145725444D01*
X159242512Y-145532904D01*
X159265617Y-145499598D01*
X159390524Y-145319545D01*
X159390527Y-145319540D01*
X159393186Y-145315707D01*
X159410874Y-145279840D01*
X159508037Y-145082813D01*
X159508038Y-145082810D01*
X159510102Y-145078625D01*
X159590691Y-144826866D01*
X159597252Y-144786583D01*
X159600599Y-144766028D01*
X159631291Y-144702009D01*
X159691723Y-144664745D01*
X159762707Y-144666069D01*
X159821707Y-144705559D01*
X159849810Y-144769291D01*
X159851448Y-144781327D01*
X159852757Y-144785817D01*
X159852758Y-144785823D01*
X159874181Y-144859320D01*
X159925419Y-145035109D01*
X159927377Y-145039356D01*
X159927378Y-145039359D01*
X159943431Y-145074180D01*
X160036089Y-145275171D01*
X160043996Y-145287231D01*
X160178461Y-145492324D01*
X160178465Y-145492329D01*
X160181027Y-145496237D01*
X160357048Y-145693452D01*
X160560286Y-145862483D01*
X160786276Y-145999618D01*
X160790584Y-146001424D01*
X160790585Y-146001425D01*
X161025738Y-146100033D01*
X161025743Y-146100035D01*
X161030053Y-146101842D01*
X161034585Y-146102993D01*
X161034588Y-146102994D01*
X161123628Y-146125607D01*
X161286263Y-146166911D01*
X161505818Y-146189019D01*
X162923070Y-146189019D01*
X162925395Y-146188846D01*
X162925401Y-146188846D01*
X163114926Y-146174762D01*
X163114930Y-146174761D01*
X163119578Y-146174416D01*
X163377403Y-146116076D01*
X163409089Y-146103754D01*
X163619420Y-146021961D01*
X163619422Y-146021960D01*
X163623773Y-146020268D01*
X163656742Y-146001425D01*
X163747784Y-145949390D01*
X163853275Y-145889097D01*
X164060868Y-145725444D01*
X164241992Y-145532904D01*
X164265097Y-145499598D01*
X164390004Y-145319545D01*
X164390007Y-145319540D01*
X164392666Y-145315707D01*
X164410354Y-145279840D01*
X164507517Y-145082813D01*
X164507518Y-145082810D01*
X164509582Y-145078625D01*
X164590171Y-144826866D01*
X164632662Y-144565960D01*
X164635405Y-144356412D01*
X164636061Y-144306317D01*
X164636061Y-144306314D01*
X164636122Y-144301640D01*
X164600476Y-144039711D01*
X164594675Y-144019807D01*
X164555978Y-143887046D01*
X164526505Y-143785929D01*
X164508844Y-143747618D01*
X164441863Y-143602327D01*
X164415835Y-143545867D01*
X164302019Y-143372269D01*
X164281396Y-143304334D01*
X164300776Y-143236033D01*
X164318296Y-143214089D01*
X165365247Y-142167138D01*
X165373537Y-142159594D01*
X165380018Y-142155481D01*
X165426659Y-142105813D01*
X165429413Y-142102972D01*
X165449134Y-142083251D01*
X165451612Y-142080056D01*
X165459318Y-142071034D01*
X165484158Y-142044582D01*
X165489586Y-142038802D01*
X165499346Y-142021049D01*
X165510199Y-142004526D01*
X165517753Y-141994787D01*
X165522613Y-141988522D01*
X165540176Y-141947938D01*
X165545383Y-141937308D01*
X165566695Y-141898541D01*
X165568666Y-141890864D01*
X165568668Y-141890859D01*
X165571732Y-141878923D01*
X165578138Y-141860211D01*
X165583034Y-141848898D01*
X165586181Y-141841626D01*
X165593097Y-141797962D01*
X165595504Y-141786341D01*
X165604528Y-141751192D01*
X165604528Y-141751191D01*
X165606500Y-141743511D01*
X165606500Y-141723250D01*
X165608051Y-141703539D01*
X165609979Y-141691366D01*
X165611219Y-141683538D01*
X165607059Y-141639527D01*
X165606500Y-141627670D01*
X165606500Y-134693389D01*
X165626502Y-134625268D01*
X165680158Y-134578775D01*
X165750432Y-134568671D01*
X165777449Y-134575679D01*
X165785557Y-134578775D01*
X165862692Y-134608230D01*
X165867760Y-134609261D01*
X165867763Y-134609262D01*
X165946436Y-134625268D01*
X166081597Y-134652767D01*
X166086772Y-134652957D01*
X166086774Y-134652957D01*
X166299673Y-134660764D01*
X166299677Y-134660764D01*
X166304837Y-134660953D01*
X166309957Y-134660297D01*
X166309959Y-134660297D01*
X166521288Y-134633225D01*
X166521289Y-134633225D01*
X166526416Y-134632568D01*
X166531367Y-134631083D01*
X166531370Y-134631082D01*
X166622293Y-134603804D01*
X166693288Y-134603388D01*
X166753239Y-134641420D01*
X166783110Y-134705827D01*
X166784500Y-134724490D01*
X166784500Y-143602327D01*
X166764498Y-143670448D01*
X166747595Y-143691422D01*
X163135954Y-147303062D01*
X163073642Y-147337088D01*
X163034237Y-147339333D01*
X162985551Y-147334431D01*
X162949245Y-147330775D01*
X162949244Y-147330775D01*
X162946106Y-147330459D01*
X161528854Y-147330459D01*
X161526529Y-147330632D01*
X161526523Y-147330632D01*
X161336998Y-147344716D01*
X161336994Y-147344717D01*
X161332346Y-147345062D01*
X161074521Y-147403402D01*
X161070169Y-147405094D01*
X161070167Y-147405095D01*
X160832504Y-147497517D01*
X160832502Y-147497518D01*
X160828151Y-147499210D01*
X160824097Y-147501527D01*
X160824095Y-147501528D01*
X160743514Y-147547584D01*
X160598649Y-147630381D01*
X160391056Y-147794034D01*
X160209932Y-147986574D01*
X160207266Y-147990417D01*
X160181254Y-148027914D01*
X160059258Y-148203771D01*
X160057192Y-148207960D01*
X160057191Y-148207962D01*
X160041196Y-148240398D01*
X159942342Y-148440853D01*
X159940920Y-148445296D01*
X159940919Y-148445298D01*
X159928412Y-148484369D01*
X159861753Y-148692612D01*
X159861004Y-148697213D01*
X159861003Y-148697216D01*
X159851845Y-148753450D01*
X159821153Y-148817469D01*
X159760721Y-148854733D01*
X159689737Y-148853409D01*
X159630737Y-148813919D01*
X159602634Y-148750187D01*
X159602598Y-148749923D01*
X159600996Y-148738151D01*
X159589065Y-148697216D01*
X159528556Y-148489622D01*
X159527025Y-148484369D01*
X159509364Y-148446058D01*
X159483478Y-148389909D01*
X159416355Y-148244307D01*
X159274481Y-148027914D01*
X159273983Y-148027154D01*
X159273979Y-148027149D01*
X159271417Y-148023241D01*
X159095396Y-147826026D01*
X158892158Y-147656995D01*
X158666168Y-147519860D01*
X158661859Y-147518053D01*
X158426706Y-147419445D01*
X158426701Y-147419443D01*
X158422391Y-147417636D01*
X158417859Y-147416485D01*
X158417856Y-147416484D01*
X158173713Y-147354480D01*
X158166181Y-147352567D01*
X157946626Y-147330459D01*
X156529374Y-147330459D01*
X156527049Y-147330632D01*
X156527043Y-147330632D01*
X156337518Y-147344716D01*
X156337514Y-147344717D01*
X156332866Y-147345062D01*
X156075041Y-147403402D01*
X156070689Y-147405094D01*
X156070687Y-147405095D01*
X155833024Y-147497517D01*
X155833022Y-147497518D01*
X155828671Y-147499210D01*
X155824617Y-147501527D01*
X155824615Y-147501528D01*
X155744034Y-147547584D01*
X155599169Y-147630381D01*
X155391576Y-147794034D01*
X155210452Y-147986574D01*
X155207786Y-147990417D01*
X155181774Y-148027914D01*
X155059778Y-148203771D01*
X155057712Y-148207960D01*
X155057711Y-148207962D01*
X155041716Y-148240398D01*
X154942862Y-148440853D01*
X154941440Y-148445296D01*
X154941439Y-148445298D01*
X154928932Y-148484369D01*
X154862273Y-148692612D01*
X154819782Y-148953518D01*
X154816322Y-149217838D01*
X154851968Y-149479767D01*
X154853277Y-149484257D01*
X154853278Y-149484263D01*
X154884747Y-149592227D01*
X154925939Y-149733549D01*
X154927897Y-149737796D01*
X154927898Y-149737799D01*
X154943951Y-149772620D01*
X155036609Y-149973611D01*
X155039172Y-149977520D01*
X155178981Y-150190764D01*
X155178985Y-150190769D01*
X155181547Y-150194677D01*
X155357568Y-150391892D01*
X155560806Y-150560923D01*
X155786796Y-150698058D01*
X155791104Y-150699864D01*
X155791105Y-150699865D01*
X156026258Y-150798473D01*
X156026263Y-150798475D01*
X156030573Y-150800282D01*
X156035105Y-150801433D01*
X156035108Y-150801434D01*
X156162603Y-150833813D01*
X156286783Y-150865351D01*
X156506338Y-150887459D01*
X157923590Y-150887459D01*
X157925915Y-150887286D01*
X157925921Y-150887286D01*
X158115446Y-150873202D01*
X158115450Y-150873201D01*
X158120098Y-150872856D01*
X158377923Y-150814516D01*
X158409609Y-150802194D01*
X158619940Y-150720401D01*
X158619942Y-150720400D01*
X158624293Y-150718708D01*
X158657262Y-150699865D01*
X158708930Y-150670334D01*
X158853795Y-150587537D01*
X159061388Y-150423884D01*
X159242512Y-150231344D01*
X159265526Y-150198169D01*
X159390524Y-150017985D01*
X159390527Y-150017980D01*
X159393186Y-150014147D01*
X159410874Y-149978280D01*
X159508037Y-149781253D01*
X159508038Y-149781250D01*
X159510102Y-149777065D01*
X159590691Y-149525306D01*
X159597252Y-149485023D01*
X159600599Y-149464468D01*
X159631291Y-149400449D01*
X159691723Y-149363185D01*
X159762707Y-149364509D01*
X159821707Y-149403999D01*
X159849810Y-149467731D01*
X159851448Y-149479767D01*
X159852757Y-149484257D01*
X159852758Y-149484263D01*
X159884227Y-149592227D01*
X159925419Y-149733549D01*
X159927377Y-149737796D01*
X159927378Y-149737799D01*
X159943431Y-149772620D01*
X160036089Y-149973611D01*
X160038652Y-149977520D01*
X160178461Y-150190764D01*
X160178465Y-150190769D01*
X160181027Y-150194677D01*
X160357048Y-150391892D01*
X160560286Y-150560923D01*
X160786276Y-150698058D01*
X160790584Y-150699864D01*
X160790585Y-150699865D01*
X161025738Y-150798473D01*
X161025743Y-150798475D01*
X161030053Y-150800282D01*
X161034585Y-150801433D01*
X161034588Y-150801434D01*
X161162083Y-150833813D01*
X161286263Y-150865351D01*
X161505818Y-150887459D01*
X162923070Y-150887459D01*
X162925395Y-150887286D01*
X162925401Y-150887286D01*
X163114926Y-150873202D01*
X163114930Y-150873201D01*
X163119578Y-150872856D01*
X163377403Y-150814516D01*
X163409089Y-150802194D01*
X163619420Y-150720401D01*
X163619422Y-150720400D01*
X163623773Y-150718708D01*
X163656742Y-150699865D01*
X163708410Y-150670334D01*
X163853275Y-150587537D01*
X164060868Y-150423884D01*
X164241992Y-150231344D01*
X164265006Y-150198169D01*
X164390004Y-150017985D01*
X164390007Y-150017980D01*
X164392666Y-150014147D01*
X164410354Y-149978280D01*
X164507517Y-149781253D01*
X164507518Y-149781250D01*
X164509582Y-149777065D01*
X164590171Y-149525306D01*
X164632662Y-149264400D01*
X164636122Y-149000080D01*
X164600476Y-148738151D01*
X164588545Y-148697216D01*
X164528036Y-148489622D01*
X164526505Y-148484369D01*
X164508844Y-148446058D01*
X164482958Y-148389909D01*
X164415835Y-148244307D01*
X164302019Y-148070709D01*
X164281396Y-148002774D01*
X164300776Y-147934473D01*
X164318296Y-147912529D01*
X167810247Y-144420578D01*
X167818537Y-144413034D01*
X167825018Y-144408921D01*
X167871659Y-144359253D01*
X167874413Y-144356412D01*
X167894135Y-144336690D01*
X167896612Y-144333497D01*
X167904317Y-144324476D01*
X167929159Y-144298021D01*
X167934586Y-144292242D01*
X167938407Y-144285292D01*
X167944346Y-144274489D01*
X167955202Y-144257962D01*
X167962757Y-144248223D01*
X167962758Y-144248221D01*
X167967614Y-144241961D01*
X167985174Y-144201381D01*
X167990391Y-144190733D01*
X168007875Y-144158930D01*
X168007876Y-144158928D01*
X168011695Y-144151981D01*
X168016733Y-144132358D01*
X168023137Y-144113655D01*
X168028033Y-144102341D01*
X168028033Y-144102340D01*
X168031181Y-144095066D01*
X168032420Y-144087243D01*
X168032423Y-144087233D01*
X168038099Y-144051397D01*
X168040505Y-144039777D01*
X168049528Y-144004632D01*
X168049528Y-144004631D01*
X168051500Y-143996951D01*
X168051500Y-143976697D01*
X168053051Y-143956986D01*
X168054980Y-143944807D01*
X168056220Y-143936978D01*
X168052059Y-143892959D01*
X168051500Y-143881102D01*
X168051500Y-134657112D01*
X168071502Y-134588991D01*
X168125158Y-134542498D01*
X168195432Y-134532394D01*
X168222449Y-134539402D01*
X168300983Y-134569391D01*
X168402692Y-134608230D01*
X168407760Y-134609261D01*
X168407763Y-134609262D01*
X168486436Y-134625268D01*
X168621597Y-134652767D01*
X168626772Y-134652957D01*
X168626774Y-134652957D01*
X168839673Y-134660764D01*
X168839677Y-134660764D01*
X168844837Y-134660953D01*
X168849957Y-134660297D01*
X168849959Y-134660297D01*
X169061288Y-134633225D01*
X169061289Y-134633225D01*
X169066416Y-134632568D01*
X169071369Y-134631082D01*
X169275429Y-134569861D01*
X169275434Y-134569859D01*
X169280384Y-134568374D01*
X169480994Y-134470096D01*
X169662860Y-134340373D01*
X169821096Y-134182689D01*
X169951453Y-134001277D01*
X169952776Y-134002228D01*
X169999645Y-133959057D01*
X170069580Y-133946825D01*
X170135026Y-133974344D01*
X170162875Y-134006194D01*
X170222987Y-134104288D01*
X170369250Y-134273138D01*
X170541126Y-134415832D01*
X170734000Y-134528538D01*
X170738825Y-134530380D01*
X170738826Y-134530381D01*
X170781724Y-134546762D01*
X170942692Y-134608230D01*
X170947760Y-134609261D01*
X170947763Y-134609262D01*
X171026436Y-134625268D01*
X171161597Y-134652767D01*
X171166772Y-134652957D01*
X171166774Y-134652957D01*
X171379673Y-134660764D01*
X171379677Y-134660764D01*
X171384837Y-134660953D01*
X171389957Y-134660297D01*
X171389959Y-134660297D01*
X171601288Y-134633225D01*
X171601289Y-134633225D01*
X171606416Y-134632568D01*
X171611369Y-134631082D01*
X171815429Y-134569861D01*
X171815434Y-134569859D01*
X171820384Y-134568374D01*
X172020994Y-134470096D01*
X172202860Y-134340373D01*
X172361096Y-134182689D01*
X172491453Y-134001277D01*
X172492776Y-134002228D01*
X172539645Y-133959057D01*
X172609580Y-133946825D01*
X172675026Y-133974344D01*
X172702875Y-134006194D01*
X172762987Y-134104288D01*
X172909250Y-134273138D01*
X173081126Y-134415832D01*
X173274000Y-134528538D01*
X173278825Y-134530380D01*
X173278826Y-134530381D01*
X173321724Y-134546762D01*
X173482692Y-134608230D01*
X173487760Y-134609261D01*
X173487763Y-134609262D01*
X173566436Y-134625268D01*
X173701597Y-134652767D01*
X173706772Y-134652957D01*
X173706774Y-134652957D01*
X173919673Y-134660764D01*
X173919677Y-134660764D01*
X173924837Y-134660953D01*
X173929957Y-134660297D01*
X173929959Y-134660297D01*
X174141288Y-134633225D01*
X174141289Y-134633225D01*
X174146416Y-134632568D01*
X174151369Y-134631082D01*
X174355429Y-134569861D01*
X174355434Y-134569859D01*
X174360384Y-134568374D01*
X174560994Y-134470096D01*
X174742860Y-134340373D01*
X174901096Y-134182689D01*
X175031453Y-134001277D01*
X175032776Y-134002228D01*
X175079645Y-133959057D01*
X175149580Y-133946825D01*
X175215026Y-133974344D01*
X175242875Y-134006194D01*
X175302987Y-134104288D01*
X175449250Y-134273138D01*
X175621126Y-134415832D01*
X175814000Y-134528538D01*
X175818825Y-134530380D01*
X175818826Y-134530381D01*
X175861724Y-134546762D01*
X176022692Y-134608230D01*
X176027760Y-134609261D01*
X176027763Y-134609262D01*
X176106436Y-134625268D01*
X176241597Y-134652767D01*
X176246772Y-134652957D01*
X176246774Y-134652957D01*
X176459673Y-134660764D01*
X176459677Y-134660764D01*
X176464837Y-134660953D01*
X176469957Y-134660297D01*
X176469959Y-134660297D01*
X176681288Y-134633225D01*
X176681289Y-134633225D01*
X176686416Y-134632568D01*
X176691369Y-134631082D01*
X176895429Y-134569861D01*
X176895434Y-134569859D01*
X176900384Y-134568374D01*
X177100994Y-134470096D01*
X177282860Y-134340373D01*
X177441096Y-134182689D01*
X177571453Y-134001277D01*
X177572776Y-134002228D01*
X177619645Y-133959057D01*
X177689580Y-133946825D01*
X177755026Y-133974344D01*
X177782875Y-134006194D01*
X177842987Y-134104288D01*
X177989250Y-134273138D01*
X178161126Y-134415832D01*
X178354000Y-134528538D01*
X178358825Y-134530380D01*
X178358826Y-134530381D01*
X178401724Y-134546762D01*
X178562692Y-134608230D01*
X178567760Y-134609261D01*
X178567763Y-134609262D01*
X178646436Y-134625268D01*
X178781597Y-134652767D01*
X178786772Y-134652957D01*
X178786774Y-134652957D01*
X178999673Y-134660764D01*
X178999677Y-134660764D01*
X179004837Y-134660953D01*
X179009957Y-134660297D01*
X179009959Y-134660297D01*
X179221288Y-134633225D01*
X179221289Y-134633225D01*
X179226416Y-134632568D01*
X179231369Y-134631082D01*
X179435429Y-134569861D01*
X179435434Y-134569859D01*
X179440384Y-134568374D01*
X179640994Y-134470096D01*
X179822860Y-134340373D01*
X179981096Y-134182689D01*
X180111453Y-134001277D01*
X180112640Y-134002130D01*
X180159960Y-133958562D01*
X180229897Y-133946345D01*
X180295338Y-133973878D01*
X180323166Y-134005712D01*
X180349459Y-134048619D01*
X180359916Y-134058080D01*
X180368694Y-134054296D01*
X181110978Y-133312012D01*
X181118592Y-133298068D01*
X181118461Y-133296235D01*
X181114210Y-133289620D01*
X180372849Y-132548259D01*
X180361313Y-132541959D01*
X180349031Y-132551582D01*
X180316499Y-132599272D01*
X180261587Y-132644275D01*
X180191063Y-132652446D01*
X180127316Y-132621192D01*
X180106618Y-132596708D01*
X180025822Y-132471817D01*
X180025820Y-132471814D01*
X180023014Y-132467477D01*
X179872670Y-132302251D01*
X179868619Y-132299052D01*
X179868615Y-132299048D01*
X179701414Y-132167000D01*
X179701410Y-132166998D01*
X179697359Y-132163798D01*
X179671533Y-132149541D01*
X179604990Y-132112808D01*
X179501789Y-132055838D01*
X179496920Y-132054114D01*
X179496916Y-132054112D01*
X179296087Y-131982995D01*
X179296083Y-131982994D01*
X179291212Y-131981269D01*
X179286119Y-131980362D01*
X179286116Y-131980361D01*
X179076373Y-131943000D01*
X179076367Y-131942999D01*
X179071284Y-131942094D01*
X178997452Y-131941192D01*
X178853081Y-131939428D01*
X178853079Y-131939428D01*
X178847911Y-131939365D01*
X178627091Y-131973155D01*
X178414756Y-132042557D01*
X178384443Y-132058337D01*
X178224130Y-132141791D01*
X178216607Y-132145707D01*
X178212474Y-132148810D01*
X178212471Y-132148812D01*
X178042100Y-132276730D01*
X178037965Y-132279835D01*
X178034393Y-132283573D01*
X177926729Y-132396237D01*
X177883629Y-132441338D01*
X177776201Y-132598821D01*
X177721293Y-132643821D01*
X177650768Y-132651992D01*
X177587021Y-132620738D01*
X177566324Y-132596254D01*
X177485822Y-132471817D01*
X177485820Y-132471814D01*
X177483014Y-132467477D01*
X177332670Y-132302251D01*
X177328619Y-132299052D01*
X177328615Y-132299048D01*
X177161414Y-132167000D01*
X177161410Y-132166998D01*
X177157359Y-132163798D01*
X177131533Y-132149541D01*
X177064990Y-132112808D01*
X176961789Y-132055838D01*
X176956920Y-132054114D01*
X176956916Y-132054112D01*
X176756087Y-131982995D01*
X176756083Y-131982994D01*
X176751212Y-131981269D01*
X176746119Y-131980362D01*
X176746116Y-131980361D01*
X176536373Y-131943000D01*
X176536367Y-131942999D01*
X176531284Y-131942094D01*
X176457452Y-131941192D01*
X176313081Y-131939428D01*
X176313079Y-131939428D01*
X176307911Y-131939365D01*
X176087091Y-131973155D01*
X175874756Y-132042557D01*
X175844443Y-132058337D01*
X175684130Y-132141791D01*
X175676607Y-132145707D01*
X175672474Y-132148810D01*
X175672471Y-132148812D01*
X175502100Y-132276730D01*
X175497965Y-132279835D01*
X175494393Y-132283573D01*
X175386729Y-132396237D01*
X175343629Y-132441338D01*
X175236201Y-132598821D01*
X175181293Y-132643821D01*
X175110768Y-132651992D01*
X175047021Y-132620738D01*
X175026324Y-132596254D01*
X174945822Y-132471817D01*
X174945820Y-132471814D01*
X174943014Y-132467477D01*
X174792670Y-132302251D01*
X174788619Y-132299052D01*
X174788615Y-132299048D01*
X174631513Y-132174976D01*
X174617359Y-132163798D01*
X174559605Y-132131916D01*
X174509636Y-132081485D01*
X174494500Y-132021609D01*
X174494500Y-120762371D01*
X174514502Y-120694250D01*
X174531405Y-120673276D01*
X175700660Y-119504021D01*
X175782734Y-119400284D01*
X175785835Y-119393649D01*
X175788965Y-119388581D01*
X175841778Y-119341133D01*
X175911859Y-119329770D01*
X175941111Y-119337077D01*
X176022692Y-119368230D01*
X176027760Y-119369261D01*
X176027763Y-119369262D01*
X176122720Y-119388581D01*
X176241597Y-119412767D01*
X176246772Y-119412957D01*
X176246774Y-119412957D01*
X176459673Y-119420764D01*
X176459677Y-119420764D01*
X176464837Y-119420953D01*
X176469957Y-119420297D01*
X176469959Y-119420297D01*
X176681288Y-119393225D01*
X176681289Y-119393225D01*
X176686416Y-119392568D01*
X176691376Y-119391080D01*
X176895429Y-119329861D01*
X176895434Y-119329859D01*
X176900384Y-119328374D01*
X177100994Y-119230096D01*
X177282860Y-119100373D01*
X177441096Y-118942689D01*
X177571453Y-118761277D01*
X177572776Y-118762228D01*
X177619645Y-118719057D01*
X177689580Y-118706825D01*
X177755026Y-118734344D01*
X177782875Y-118766194D01*
X177842987Y-118864288D01*
X177989250Y-119033138D01*
X178161126Y-119175832D01*
X178354000Y-119288538D01*
X178358825Y-119290380D01*
X178358826Y-119290381D01*
X178394863Y-119304142D01*
X178562692Y-119368230D01*
X178567760Y-119369261D01*
X178567763Y-119369262D01*
X178662720Y-119388581D01*
X178781597Y-119412767D01*
X178786772Y-119412957D01*
X178786774Y-119412957D01*
X178999673Y-119420764D01*
X178999677Y-119420764D01*
X179004837Y-119420953D01*
X179009957Y-119420297D01*
X179009959Y-119420297D01*
X179221288Y-119393225D01*
X179221289Y-119393225D01*
X179226416Y-119392568D01*
X179231376Y-119391080D01*
X179435429Y-119329861D01*
X179435434Y-119329859D01*
X179440384Y-119328374D01*
X179640994Y-119230096D01*
X179822860Y-119100373D01*
X179981096Y-118942689D01*
X180111453Y-118761277D01*
X180112776Y-118762228D01*
X180159645Y-118719057D01*
X180229580Y-118706825D01*
X180295026Y-118734344D01*
G37*
G04 #@! TD.AperFunction*
G04 #@! TA.AperFunction,Conductor*
G36*
X172875378Y-53227712D02*
G01*
X172890197Y-53230020D01*
X172890199Y-53230020D01*
X172899073Y-53231402D01*
X172917070Y-53229049D01*
X172940464Y-53228183D01*
X173177248Y-53241485D01*
X173191283Y-53243067D01*
X173254438Y-53253798D01*
X173452789Y-53287501D01*
X173466563Y-53290645D01*
X173662396Y-53347063D01*
X173721460Y-53364079D01*
X173734783Y-53368742D01*
X173979852Y-53470251D01*
X173992566Y-53476373D01*
X174224734Y-53604684D01*
X174236697Y-53612201D01*
X174453025Y-53765687D01*
X174464064Y-53774489D01*
X174635421Y-53927614D01*
X174653198Y-53947232D01*
X174659018Y-53955198D01*
X174684262Y-53974602D01*
X174696562Y-53985400D01*
X181574850Y-60863688D01*
X181587490Y-60878447D01*
X181601652Y-60897832D01*
X181608769Y-60903303D01*
X181608771Y-60903305D01*
X181616041Y-60908893D01*
X181633198Y-60924827D01*
X181724639Y-61027147D01*
X181791221Y-61101651D01*
X181800031Y-61112698D01*
X181953520Y-61329018D01*
X181961038Y-61340982D01*
X182079583Y-61555471D01*
X182089344Y-61573133D01*
X182095475Y-61585865D01*
X182196978Y-61830919D01*
X182201645Y-61844255D01*
X182234699Y-61958988D01*
X182272376Y-62089768D01*
X182275075Y-62099138D01*
X182278218Y-62112912D01*
X182321024Y-62364865D01*
X182322645Y-62374408D01*
X182324226Y-62388442D01*
X182336788Y-62612161D01*
X182337114Y-62617972D01*
X182335810Y-62644427D01*
X182334309Y-62654066D01*
X182335473Y-62662969D01*
X182338437Y-62685638D01*
X182339500Y-62701973D01*
X182339500Y-116766704D01*
X182319498Y-116834825D01*
X182265842Y-116881318D01*
X182195568Y-116891422D01*
X182152606Y-116877012D01*
X182046320Y-116818339D01*
X182046316Y-116818337D01*
X182041789Y-116815838D01*
X182036920Y-116814114D01*
X182036916Y-116814112D01*
X181836087Y-116742995D01*
X181836083Y-116742994D01*
X181831212Y-116741269D01*
X181826119Y-116740362D01*
X181826116Y-116740361D01*
X181616373Y-116703000D01*
X181616367Y-116702999D01*
X181611284Y-116702094D01*
X181537452Y-116701192D01*
X181393081Y-116699428D01*
X181393079Y-116699428D01*
X181387911Y-116699365D01*
X181167091Y-116733155D01*
X180954756Y-116802557D01*
X180921644Y-116819794D01*
X180799599Y-116883327D01*
X180756607Y-116905707D01*
X180752474Y-116908810D01*
X180752471Y-116908812D01*
X180702141Y-116946601D01*
X180577965Y-117039835D01*
X180574393Y-117043573D01*
X180457684Y-117165702D01*
X180423629Y-117201338D01*
X180316201Y-117358821D01*
X180261293Y-117403821D01*
X180190768Y-117411992D01*
X180127021Y-117380738D01*
X180106324Y-117356254D01*
X180025822Y-117231817D01*
X180025820Y-117231814D01*
X180023014Y-117227477D01*
X179872670Y-117062251D01*
X179868619Y-117059052D01*
X179868615Y-117059048D01*
X179701414Y-116927000D01*
X179701410Y-116926998D01*
X179697359Y-116923798D01*
X179501789Y-116815838D01*
X179496920Y-116814114D01*
X179496916Y-116814112D01*
X179296087Y-116742995D01*
X179296083Y-116742994D01*
X179291212Y-116741269D01*
X179286119Y-116740362D01*
X179286116Y-116740361D01*
X179076373Y-116703000D01*
X179076367Y-116702999D01*
X179071284Y-116702094D01*
X178997452Y-116701192D01*
X178853081Y-116699428D01*
X178853079Y-116699428D01*
X178847911Y-116699365D01*
X178627091Y-116733155D01*
X178414756Y-116802557D01*
X178381644Y-116819794D01*
X178259599Y-116883327D01*
X178216607Y-116905707D01*
X178212474Y-116908810D01*
X178212471Y-116908812D01*
X178162141Y-116946601D01*
X178037965Y-117039835D01*
X178034393Y-117043573D01*
X177917684Y-117165702D01*
X177883629Y-117201338D01*
X177776201Y-117358821D01*
X177721293Y-117403821D01*
X177650768Y-117411992D01*
X177587021Y-117380738D01*
X177566324Y-117356254D01*
X177485822Y-117231817D01*
X177485820Y-117231814D01*
X177483014Y-117227477D01*
X177332670Y-117062251D01*
X177328619Y-117059052D01*
X177328615Y-117059048D01*
X177161414Y-116927000D01*
X177161410Y-116926998D01*
X177157359Y-116923798D01*
X176961789Y-116815838D01*
X176956920Y-116814114D01*
X176956916Y-116814112D01*
X176756087Y-116742995D01*
X176756083Y-116742994D01*
X176751212Y-116741269D01*
X176746119Y-116740362D01*
X176746116Y-116740361D01*
X176536373Y-116703000D01*
X176536367Y-116702999D01*
X176531284Y-116702094D01*
X176457452Y-116701192D01*
X176313081Y-116699428D01*
X176313079Y-116699428D01*
X176307911Y-116699365D01*
X176087091Y-116733155D01*
X176071543Y-116738237D01*
X176000741Y-116761378D01*
X175929777Y-116763529D01*
X175868915Y-116726972D01*
X175837479Y-116663315D01*
X175839207Y-116611668D01*
X175860808Y-116523390D01*
X175861500Y-116512236D01*
X175861500Y-101613966D01*
X178220857Y-101613966D01*
X178251165Y-101748446D01*
X178254245Y-101758275D01*
X178334370Y-101955603D01*
X178339013Y-101964794D01*
X178450294Y-102146388D01*
X178456377Y-102154699D01*
X178595813Y-102315667D01*
X178603180Y-102322883D01*
X178767034Y-102458916D01*
X178775481Y-102464831D01*
X178959356Y-102572279D01*
X178968642Y-102576729D01*
X179167601Y-102652703D01*
X179177499Y-102655579D01*
X179280850Y-102676606D01*
X179294899Y-102675410D01*
X179298600Y-102665065D01*
X179298600Y-102664517D01*
X179806600Y-102664517D01*
X179810664Y-102678359D01*
X179824078Y-102680393D01*
X179830784Y-102679534D01*
X179840862Y-102677392D01*
X180044855Y-102616191D01*
X180054442Y-102612433D01*
X180245695Y-102518739D01*
X180254545Y-102513464D01*
X180427928Y-102389792D01*
X180435800Y-102383139D01*
X180586652Y-102232812D01*
X180593330Y-102224965D01*
X180717603Y-102052020D01*
X180722913Y-102043183D01*
X180817270Y-101852267D01*
X180821069Y-101842672D01*
X180882977Y-101638910D01*
X180885155Y-101628837D01*
X180886586Y-101617962D01*
X180884375Y-101603778D01*
X180871217Y-101600000D01*
X179824715Y-101600000D01*
X179809476Y-101604475D01*
X179808271Y-101605865D01*
X179806600Y-101613548D01*
X179806600Y-102664517D01*
X179298600Y-102664517D01*
X179298600Y-101618115D01*
X179294125Y-101602876D01*
X179292735Y-101601671D01*
X179285052Y-101600000D01*
X178235825Y-101600000D01*
X178222294Y-101603973D01*
X178220857Y-101613966D01*
X175861500Y-101613966D01*
X175861500Y-98772695D01*
X178189851Y-98772695D01*
X178190148Y-98777848D01*
X178190148Y-98777851D01*
X178198777Y-98927509D01*
X178202710Y-98995715D01*
X178203847Y-99000761D01*
X178203848Y-99000767D01*
X178222054Y-99081550D01*
X178251822Y-99213639D01*
X178297551Y-99326256D01*
X178322474Y-99387634D01*
X178335866Y-99420616D01*
X178338565Y-99425020D01*
X178416390Y-99552019D01*
X178452587Y-99611088D01*
X178598850Y-99779938D01*
X178770726Y-99922632D01*
X178844555Y-99965774D01*
X178893279Y-100017412D01*
X178906350Y-100087195D01*
X178879619Y-100152967D01*
X178839162Y-100186327D01*
X178831057Y-100190546D01*
X178822338Y-100196036D01*
X178652033Y-100323905D01*
X178644326Y-100330748D01*
X178497190Y-100484717D01*
X178490704Y-100492727D01*
X178370698Y-100668649D01*
X178365600Y-100677623D01*
X178275938Y-100870783D01*
X178272375Y-100880470D01*
X178216989Y-101080183D01*
X178218512Y-101088607D01*
X178230892Y-101092000D01*
X180870944Y-101092000D01*
X180884475Y-101088027D01*
X180885780Y-101078947D01*
X180843814Y-100911875D01*
X180840494Y-100902124D01*
X180755572Y-100706814D01*
X180750705Y-100697739D01*
X180635026Y-100518926D01*
X180628736Y-100510757D01*
X180485406Y-100353240D01*
X180477873Y-100346215D01*
X180310739Y-100214222D01*
X180302156Y-100208520D01*
X180265202Y-100188120D01*
X180215231Y-100137687D01*
X180200459Y-100068245D01*
X180225575Y-100001839D01*
X180252927Y-99975232D01*
X180276397Y-99958491D01*
X180432460Y-99847173D01*
X180590696Y-99689489D01*
X180650194Y-99606689D01*
X180718035Y-99512277D01*
X180721053Y-99508077D01*
X180812766Y-99322510D01*
X180817736Y-99312453D01*
X180817737Y-99312451D01*
X180820030Y-99307811D01*
X180884970Y-99094069D01*
X180914129Y-98872590D01*
X180915756Y-98806000D01*
X180897452Y-98583361D01*
X180843031Y-98366702D01*
X180753954Y-98161840D01*
X180632614Y-97974277D01*
X180482270Y-97809051D01*
X180478219Y-97805852D01*
X180478215Y-97805848D01*
X180311014Y-97673800D01*
X180311010Y-97673798D01*
X180306959Y-97670598D01*
X180265653Y-97647796D01*
X180215684Y-97597364D01*
X180200912Y-97527921D01*
X180226028Y-97461516D01*
X180253380Y-97434909D01*
X180297203Y-97403650D01*
X180432460Y-97307173D01*
X180590696Y-97149489D01*
X180650194Y-97066689D01*
X180718035Y-96972277D01*
X180721053Y-96968077D01*
X180756261Y-96896840D01*
X180817736Y-96772453D01*
X180817737Y-96772451D01*
X180820030Y-96767811D01*
X180884970Y-96554069D01*
X180914129Y-96332590D01*
X180915756Y-96266000D01*
X180897452Y-96043361D01*
X180843031Y-95826702D01*
X180753954Y-95621840D01*
X180668816Y-95490236D01*
X180635422Y-95438617D01*
X180635420Y-95438614D01*
X180632614Y-95434277D01*
X180482270Y-95269051D01*
X180478219Y-95265852D01*
X180478215Y-95265848D01*
X180311014Y-95133800D01*
X180311010Y-95133798D01*
X180306959Y-95130598D01*
X180265653Y-95107796D01*
X180215684Y-95057364D01*
X180200912Y-94987921D01*
X180226028Y-94921516D01*
X180253380Y-94894909D01*
X180301220Y-94860785D01*
X180432460Y-94767173D01*
X180436868Y-94762781D01*
X180513809Y-94686107D01*
X180590696Y-94609489D01*
X180607547Y-94586039D01*
X180718035Y-94432277D01*
X180721053Y-94428077D01*
X180787161Y-94294318D01*
X180817736Y-94232453D01*
X180817737Y-94232451D01*
X180820030Y-94227811D01*
X180862472Y-94088118D01*
X180883465Y-94019023D01*
X180883465Y-94019021D01*
X180884970Y-94014069D01*
X180914129Y-93792590D01*
X180915093Y-93753136D01*
X180915674Y-93729365D01*
X180915674Y-93729361D01*
X180915756Y-93726000D01*
X180897452Y-93503361D01*
X180843031Y-93286702D01*
X180753954Y-93081840D01*
X180632614Y-92894277D01*
X180482270Y-92729051D01*
X180478219Y-92725852D01*
X180478215Y-92725848D01*
X180311014Y-92593800D01*
X180311010Y-92593798D01*
X180306959Y-92590598D01*
X180265653Y-92567796D01*
X180215684Y-92517364D01*
X180200912Y-92447921D01*
X180226028Y-92381516D01*
X180253380Y-92354909D01*
X180314314Y-92311445D01*
X180432460Y-92227173D01*
X180501973Y-92157903D01*
X180587035Y-92073137D01*
X180590696Y-92069489D01*
X180623372Y-92024016D01*
X180718035Y-91892277D01*
X180721053Y-91888077D01*
X180820030Y-91687811D01*
X180883056Y-91480370D01*
X180883465Y-91479023D01*
X180883465Y-91479021D01*
X180884970Y-91474069D01*
X180914129Y-91252590D01*
X180914902Y-91220973D01*
X180915674Y-91189365D01*
X180915674Y-91189361D01*
X180915756Y-91186000D01*
X180897452Y-90963361D01*
X180843031Y-90746702D01*
X180753954Y-90541840D01*
X180632614Y-90354277D01*
X180482270Y-90189051D01*
X180478219Y-90185852D01*
X180478215Y-90185848D01*
X180311014Y-90053800D01*
X180311010Y-90053798D01*
X180306959Y-90050598D01*
X180265653Y-90027796D01*
X180215684Y-89977364D01*
X180200912Y-89907921D01*
X180226028Y-89841516D01*
X180253380Y-89814909D01*
X180314230Y-89771505D01*
X180432460Y-89687173D01*
X180495085Y-89624767D01*
X180544971Y-89575054D01*
X180590696Y-89529489D01*
X180593864Y-89525081D01*
X180718035Y-89352277D01*
X180721053Y-89348077D01*
X180800226Y-89187883D01*
X180817736Y-89152453D01*
X180817737Y-89152451D01*
X180820030Y-89147811D01*
X180884970Y-88934069D01*
X180914129Y-88712590D01*
X180914211Y-88709240D01*
X180915674Y-88649365D01*
X180915674Y-88649361D01*
X180915756Y-88646000D01*
X180897452Y-88423361D01*
X180843031Y-88206702D01*
X180753954Y-88001840D01*
X180663687Y-87862308D01*
X180635422Y-87818617D01*
X180635420Y-87818614D01*
X180632614Y-87814277D01*
X180629132Y-87810450D01*
X180485398Y-87652488D01*
X180454346Y-87588642D01*
X180462741Y-87518143D01*
X180507917Y-87463375D01*
X180534361Y-87449706D01*
X180640897Y-87409767D01*
X180649305Y-87406615D01*
X180765861Y-87319261D01*
X180853215Y-87202705D01*
X180904345Y-87066316D01*
X180911100Y-87004134D01*
X180911100Y-85207866D01*
X180904345Y-85145684D01*
X180853215Y-85009295D01*
X180765861Y-84892739D01*
X180649305Y-84805385D01*
X180512916Y-84754255D01*
X180450734Y-84747500D01*
X178654466Y-84747500D01*
X178592284Y-84754255D01*
X178455895Y-84805385D01*
X178339339Y-84892739D01*
X178251985Y-85009295D01*
X178200855Y-85145684D01*
X178194100Y-85207866D01*
X178194100Y-87004134D01*
X178200855Y-87066316D01*
X178251985Y-87202705D01*
X178339339Y-87319261D01*
X178455895Y-87406615D01*
X178464304Y-87409767D01*
X178464305Y-87409768D01*
X178573051Y-87450535D01*
X178629816Y-87493176D01*
X178654516Y-87559738D01*
X178639309Y-87629087D01*
X178619916Y-87655568D01*
X178493229Y-87788138D01*
X178367343Y-87972680D01*
X178273288Y-88175305D01*
X178213589Y-88390570D01*
X178189851Y-88612695D01*
X178190148Y-88617848D01*
X178190148Y-88617851D01*
X178197613Y-88747312D01*
X178202710Y-88835715D01*
X178203847Y-88840761D01*
X178203848Y-88840767D01*
X178220559Y-88914916D01*
X178251822Y-89053639D01*
X178335866Y-89260616D01*
X178369793Y-89315980D01*
X178445308Y-89439209D01*
X178452587Y-89451088D01*
X178455967Y-89454990D01*
X178458985Y-89458474D01*
X178598850Y-89619938D01*
X178770726Y-89762632D01*
X178822291Y-89792764D01*
X178844045Y-89805476D01*
X178892769Y-89857114D01*
X178905840Y-89926897D01*
X178879109Y-89992669D01*
X178838655Y-90026027D01*
X178826207Y-90032507D01*
X178822074Y-90035610D01*
X178822071Y-90035612D01*
X178651700Y-90163530D01*
X178647565Y-90166635D01*
X178493229Y-90328138D01*
X178490315Y-90332410D01*
X178490314Y-90332411D01*
X178485637Y-90339267D01*
X178367343Y-90512680D01*
X178273288Y-90715305D01*
X178213589Y-90930570D01*
X178189851Y-91152695D01*
X178190148Y-91157848D01*
X178190148Y-91157851D01*
X178195587Y-91252176D01*
X178202710Y-91375715D01*
X178203847Y-91380761D01*
X178203848Y-91380767D01*
X178222238Y-91462368D01*
X178251822Y-91593639D01*
X178335866Y-91800616D01*
X178452587Y-91991088D01*
X178598850Y-92159938D01*
X178770726Y-92302632D01*
X178784521Y-92310693D01*
X178844045Y-92345476D01*
X178892769Y-92397114D01*
X178905840Y-92466897D01*
X178879109Y-92532669D01*
X178838655Y-92566027D01*
X178826207Y-92572507D01*
X178822074Y-92575610D01*
X178822071Y-92575612D01*
X178660436Y-92696971D01*
X178647565Y-92706635D01*
X178493229Y-92868138D01*
X178490315Y-92872410D01*
X178490314Y-92872411D01*
X178405156Y-92997249D01*
X178367343Y-93052680D01*
X178352167Y-93085374D01*
X178310132Y-93175932D01*
X178273288Y-93255305D01*
X178213589Y-93470570D01*
X178189851Y-93692695D01*
X178190148Y-93697848D01*
X178190148Y-93697851D01*
X178201985Y-93903136D01*
X178202710Y-93915715D01*
X178203847Y-93920761D01*
X178203848Y-93920767D01*
X178225992Y-94019023D01*
X178251822Y-94133639D01*
X178335866Y-94340616D01*
X178368007Y-94393065D01*
X178443366Y-94516040D01*
X178452587Y-94531088D01*
X178598850Y-94699938D01*
X178770726Y-94842632D01*
X178841195Y-94883811D01*
X178844045Y-94885476D01*
X178892769Y-94937114D01*
X178905840Y-95006897D01*
X178879109Y-95072669D01*
X178838655Y-95106027D01*
X178826207Y-95112507D01*
X178822074Y-95115610D01*
X178822071Y-95115612D01*
X178672897Y-95227615D01*
X178647565Y-95246635D01*
X178493229Y-95408138D01*
X178490315Y-95412410D01*
X178490314Y-95412411D01*
X178434384Y-95494402D01*
X178367343Y-95592680D01*
X178334533Y-95663363D01*
X178276390Y-95788623D01*
X178273288Y-95795305D01*
X178213589Y-96010570D01*
X178189851Y-96232695D01*
X178190148Y-96237848D01*
X178190148Y-96237851D01*
X178201431Y-96433541D01*
X178202710Y-96455715D01*
X178203847Y-96460761D01*
X178203848Y-96460767D01*
X178223719Y-96548939D01*
X178251822Y-96673639D01*
X178298969Y-96789749D01*
X178322681Y-96848144D01*
X178335866Y-96880616D01*
X178452587Y-97071088D01*
X178598850Y-97239938D01*
X178770726Y-97382632D01*
X178832324Y-97418627D01*
X178844045Y-97425476D01*
X178892769Y-97477114D01*
X178905840Y-97546897D01*
X178879109Y-97612669D01*
X178838655Y-97646027D01*
X178826207Y-97652507D01*
X178822074Y-97655610D01*
X178822071Y-97655612D01*
X178797847Y-97673800D01*
X178647565Y-97786635D01*
X178493229Y-97948138D01*
X178367343Y-98132680D01*
X178273288Y-98335305D01*
X178213589Y-98550570D01*
X178189851Y-98772695D01*
X175861500Y-98772695D01*
X175861500Y-87413063D01*
X175862933Y-87394114D01*
X175865097Y-87379886D01*
X175866198Y-87372651D01*
X175864137Y-87347303D01*
X175861915Y-87319991D01*
X175861500Y-87309777D01*
X175861500Y-87301707D01*
X175861078Y-87298087D01*
X175861077Y-87298069D01*
X175858208Y-87273461D01*
X175857775Y-87269086D01*
X175852454Y-87203661D01*
X175852453Y-87203658D01*
X175851860Y-87196363D01*
X175849604Y-87189399D01*
X175848413Y-87183440D01*
X175847029Y-87177585D01*
X175846182Y-87170319D01*
X175821265Y-87101673D01*
X175819848Y-87097545D01*
X175799607Y-87035064D01*
X175799606Y-87035062D01*
X175797351Y-87028101D01*
X175793555Y-87021846D01*
X175791049Y-87016372D01*
X175788330Y-87010942D01*
X175785833Y-87004063D01*
X175745809Y-86943016D01*
X175743472Y-86939312D01*
X175708509Y-86881693D01*
X175708505Y-86881688D01*
X175705595Y-86876892D01*
X175698197Y-86868516D01*
X175698223Y-86868493D01*
X175695574Y-86865503D01*
X175692866Y-86862264D01*
X175688856Y-86856148D01*
X175683549Y-86851121D01*
X175683546Y-86851117D01*
X175632617Y-86802872D01*
X175630175Y-86800494D01*
X172232964Y-83403283D01*
X172198938Y-83340971D01*
X172196059Y-83314188D01*
X172196059Y-70748436D01*
X172216061Y-70680315D01*
X172269717Y-70633822D01*
X172322059Y-70622436D01*
X174498560Y-70622436D01*
X174501068Y-70622234D01*
X174501073Y-70622234D01*
X174674483Y-70608282D01*
X174674488Y-70608281D01*
X174679524Y-70607876D01*
X174684432Y-70606670D01*
X174684435Y-70606670D01*
X174910351Y-70551180D01*
X174915265Y-70549973D01*
X174919917Y-70547998D01*
X174919921Y-70547997D01*
X175125185Y-70460867D01*
X175138715Y-70455124D01*
X175247292Y-70386749D01*
X175339847Y-70328464D01*
X175339850Y-70328462D01*
X175344126Y-70325769D01*
X175442981Y-70238617D01*
X175522417Y-70168586D01*
X175522420Y-70168583D01*
X175526214Y-70165238D01*
X175614255Y-70058055D01*
X175677085Y-69981564D01*
X175677087Y-69981561D01*
X175680293Y-69977658D01*
X175802400Y-69767858D01*
X175889392Y-69541234D01*
X175939033Y-69303616D01*
X175950045Y-69061119D01*
X175934645Y-68928022D01*
X175922726Y-68825007D01*
X175922725Y-68825003D01*
X175922144Y-68819980D01*
X175883076Y-68681914D01*
X175857425Y-68591267D01*
X175856049Y-68586404D01*
X175853915Y-68581828D01*
X175853913Y-68581822D01*
X175755597Y-68370982D01*
X175755595Y-68370978D01*
X175753460Y-68366400D01*
X175617015Y-68165629D01*
X175450227Y-67989255D01*
X175341163Y-67905869D01*
X175261405Y-67844889D01*
X175261401Y-67844886D01*
X175257385Y-67841816D01*
X175043450Y-67727105D01*
X174813928Y-67648074D01*
X174673174Y-67623762D01*
X174578633Y-67607432D01*
X174578627Y-67607431D01*
X174574723Y-67606757D01*
X174570762Y-67606577D01*
X174570761Y-67606577D01*
X174547053Y-67605500D01*
X174547034Y-67605500D01*
X174545634Y-67605436D01*
X168376558Y-67605436D01*
X168374050Y-67605638D01*
X168374045Y-67605638D01*
X168200635Y-67619590D01*
X168200630Y-67619591D01*
X168195594Y-67619996D01*
X168190686Y-67621202D01*
X168190683Y-67621202D01*
X167964767Y-67676692D01*
X167959853Y-67677899D01*
X167955201Y-67679874D01*
X167955197Y-67679875D01*
X167847811Y-67725458D01*
X167736403Y-67772748D01*
X167659913Y-67820917D01*
X167535271Y-67899408D01*
X167535268Y-67899410D01*
X167530992Y-67902103D01*
X167527198Y-67905448D01*
X167352701Y-68059286D01*
X167352698Y-68059289D01*
X167348904Y-68062634D01*
X167194825Y-68250214D01*
X167072718Y-68460014D01*
X167070905Y-68464737D01*
X167020890Y-68595033D01*
X166985726Y-68686638D01*
X166984692Y-68691588D01*
X166984691Y-68691591D01*
X166957083Y-68823746D01*
X166936085Y-68924256D01*
X166925073Y-69166753D01*
X166925654Y-69171773D01*
X166925654Y-69171777D01*
X166941482Y-69308567D01*
X166952974Y-69407892D01*
X166954350Y-69412756D01*
X166954351Y-69412759D01*
X166993108Y-69549724D01*
X167019069Y-69641468D01*
X167021203Y-69646044D01*
X167021205Y-69646050D01*
X167077559Y-69766901D01*
X167121658Y-69861472D01*
X167124499Y-69865653D01*
X167124500Y-69865654D01*
X167172666Y-69936528D01*
X167258103Y-70062243D01*
X167424891Y-70238617D01*
X167428917Y-70241695D01*
X167428918Y-70241696D01*
X167613713Y-70382983D01*
X167613717Y-70382986D01*
X167617733Y-70386056D01*
X167622191Y-70388446D01*
X167622192Y-70388447D01*
X167629216Y-70392213D01*
X167831668Y-70500767D01*
X168061190Y-70579798D01*
X168160537Y-70596958D01*
X168296485Y-70620440D01*
X168296491Y-70620441D01*
X168300395Y-70621115D01*
X168304356Y-70621295D01*
X168304357Y-70621295D01*
X168328065Y-70622372D01*
X168328084Y-70622372D01*
X168329484Y-70622436D01*
X170553059Y-70622436D01*
X170621180Y-70642438D01*
X170667673Y-70696094D01*
X170679059Y-70748436D01*
X170679059Y-83613489D01*
X170677626Y-83632439D01*
X170674360Y-83653908D01*
X170674953Y-83661200D01*
X170674953Y-83661203D01*
X170678644Y-83706577D01*
X170679059Y-83716792D01*
X170679059Y-83724852D01*
X170679484Y-83728496D01*
X170682348Y-83753066D01*
X170682781Y-83757441D01*
X170688699Y-83830196D01*
X170690955Y-83837160D01*
X170692146Y-83843119D01*
X170693530Y-83848974D01*
X170694377Y-83856240D01*
X170719294Y-83924886D01*
X170720711Y-83929014D01*
X170743208Y-83998458D01*
X170747004Y-84004713D01*
X170749510Y-84010187D01*
X170752229Y-84015617D01*
X170754726Y-84022496D01*
X170758739Y-84028616D01*
X170758739Y-84028617D01*
X170794745Y-84083535D01*
X170797082Y-84087239D01*
X170834964Y-84149666D01*
X170838680Y-84153874D01*
X170838681Y-84153875D01*
X170842362Y-84158043D01*
X170842335Y-84158067D01*
X170844988Y-84161059D01*
X170847691Y-84164292D01*
X170851703Y-84170411D01*
X170857015Y-84175443D01*
X170907942Y-84223687D01*
X170910384Y-84226065D01*
X174307595Y-87623276D01*
X174341621Y-87685588D01*
X174344500Y-87712371D01*
X174344500Y-116473293D01*
X174358716Y-116595228D01*
X174359615Y-116602936D01*
X174347637Y-116672914D01*
X174299726Y-116725308D01*
X174231095Y-116743482D01*
X174211323Y-116740646D01*
X174211212Y-116741269D01*
X173996373Y-116703000D01*
X173996367Y-116702999D01*
X173991284Y-116702094D01*
X173917452Y-116701192D01*
X173773081Y-116699428D01*
X173773079Y-116699428D01*
X173767911Y-116699365D01*
X173547091Y-116733155D01*
X173334756Y-116802557D01*
X173301644Y-116819794D01*
X173179599Y-116883327D01*
X173136607Y-116905707D01*
X173132474Y-116908810D01*
X173132471Y-116908812D01*
X173082141Y-116946601D01*
X172957965Y-117039835D01*
X172954393Y-117043573D01*
X172837684Y-117165702D01*
X172803629Y-117201338D01*
X172696201Y-117358821D01*
X172641293Y-117403821D01*
X172570768Y-117411992D01*
X172507021Y-117380738D01*
X172486324Y-117356254D01*
X172405822Y-117231817D01*
X172405820Y-117231814D01*
X172403014Y-117227477D01*
X172252670Y-117062251D01*
X172248619Y-117059052D01*
X172248615Y-117059048D01*
X172081414Y-116927000D01*
X172081410Y-116926998D01*
X172077359Y-116923798D01*
X171881789Y-116815838D01*
X171876920Y-116814114D01*
X171876916Y-116814112D01*
X171739229Y-116765355D01*
X171681693Y-116723761D01*
X171655777Y-116657663D01*
X171669711Y-116588047D01*
X171692194Y-116557487D01*
X172192911Y-116056770D01*
X172207323Y-116044384D01*
X172218918Y-116035851D01*
X172218923Y-116035846D01*
X172224818Y-116031508D01*
X172229557Y-116025930D01*
X172229560Y-116025927D01*
X172259035Y-115991232D01*
X172265965Y-115983716D01*
X172271660Y-115978021D01*
X172289281Y-115955749D01*
X172292072Y-115952345D01*
X172334591Y-115902297D01*
X172334592Y-115902295D01*
X172339333Y-115896715D01*
X172342661Y-115890199D01*
X172346028Y-115885150D01*
X172349195Y-115880021D01*
X172353734Y-115874284D01*
X172384655Y-115808125D01*
X172386561Y-115804225D01*
X172411802Y-115754794D01*
X172419769Y-115739192D01*
X172421508Y-115732084D01*
X172423607Y-115726441D01*
X172425524Y-115720678D01*
X172428622Y-115714050D01*
X172443487Y-115642583D01*
X172444457Y-115638299D01*
X172461808Y-115567390D01*
X172462500Y-115556236D01*
X172462536Y-115556238D01*
X172462775Y-115552245D01*
X172463149Y-115548053D01*
X172464640Y-115540885D01*
X172462546Y-115463479D01*
X172462500Y-115460072D01*
X172462500Y-89221069D01*
X172463933Y-89202118D01*
X172466099Y-89187883D01*
X172466099Y-89187881D01*
X172467199Y-89180651D01*
X172466597Y-89173242D01*
X172462915Y-89127982D01*
X172462500Y-89117767D01*
X172462500Y-89109707D01*
X172459211Y-89081493D01*
X172458778Y-89077118D01*
X172453454Y-89011661D01*
X172453453Y-89011658D01*
X172452860Y-89004363D01*
X172450604Y-88997399D01*
X172449413Y-88991440D01*
X172448029Y-88985585D01*
X172447182Y-88978319D01*
X172422265Y-88909673D01*
X172420848Y-88905545D01*
X172400607Y-88843064D01*
X172400606Y-88843062D01*
X172398351Y-88836101D01*
X172394555Y-88829846D01*
X172392049Y-88824372D01*
X172389330Y-88818942D01*
X172386833Y-88812063D01*
X172346809Y-88751016D01*
X172344472Y-88747312D01*
X172309509Y-88689693D01*
X172309505Y-88689688D01*
X172306595Y-88684892D01*
X172299197Y-88676516D01*
X172299223Y-88676493D01*
X172296574Y-88673503D01*
X172293866Y-88670264D01*
X172289856Y-88664148D01*
X172284549Y-88659121D01*
X172284546Y-88659117D01*
X172233617Y-88610872D01*
X172231175Y-88608494D01*
X165710462Y-82087781D01*
X165676436Y-82025469D01*
X165673557Y-81998686D01*
X165673557Y-66495040D01*
X165693559Y-66426919D01*
X165728733Y-66390829D01*
X165863364Y-66299333D01*
X166039738Y-66132545D01*
X166042817Y-66128518D01*
X166184104Y-65943723D01*
X166184107Y-65943719D01*
X166187177Y-65939703D01*
X166301888Y-65725768D01*
X166380919Y-65496246D01*
X166398389Y-65395102D01*
X166421561Y-65260951D01*
X166421562Y-65260945D01*
X166422236Y-65257041D01*
X166423557Y-65227952D01*
X166423557Y-62771448D01*
X166928211Y-62771448D01*
X166928440Y-62774293D01*
X166928440Y-62774296D01*
X166959673Y-63162473D01*
X166961051Y-63179604D01*
X167030747Y-63583104D01*
X167136727Y-63978627D01*
X167137712Y-63981304D01*
X167276930Y-64359686D01*
X167278118Y-64362916D01*
X167279343Y-64365496D01*
X167279346Y-64365503D01*
X167417763Y-64657008D01*
X167453757Y-64732810D01*
X167570523Y-64930251D01*
X167650395Y-65065307D01*
X167662196Y-65085262D01*
X167663858Y-65087566D01*
X167663859Y-65087568D01*
X167888888Y-65399577D01*
X167901722Y-65417372D01*
X168170362Y-65726407D01*
X168465904Y-66009822D01*
X168468122Y-66011592D01*
X168468127Y-66011597D01*
X168614592Y-66128518D01*
X168785917Y-66265285D01*
X168788298Y-66266855D01*
X169097504Y-66470738D01*
X169127767Y-66490693D01*
X169130297Y-66492049D01*
X169130296Y-66492049D01*
X169453504Y-66665352D01*
X169488638Y-66684191D01*
X169865562Y-66844186D01*
X169868300Y-66845065D01*
X170252709Y-66968485D01*
X170252713Y-66968486D01*
X170255435Y-66969360D01*
X170258225Y-66969984D01*
X170258230Y-66969985D01*
X170652255Y-67058061D01*
X170652266Y-67058063D01*
X170655049Y-67058685D01*
X171061113Y-67111423D01*
X171470287Y-67127142D01*
X171473149Y-67126992D01*
X171473150Y-67126992D01*
X171876344Y-67105862D01*
X171876351Y-67105861D01*
X171879200Y-67105712D01*
X171882023Y-67105305D01*
X171882025Y-67105305D01*
X172281667Y-67047716D01*
X172281674Y-67047715D01*
X172284489Y-67047309D01*
X172682816Y-66952414D01*
X172685514Y-66951506D01*
X172685521Y-66951504D01*
X173068192Y-66822721D01*
X173068198Y-66822719D01*
X173070904Y-66821808D01*
X173445557Y-66656566D01*
X173479481Y-66637762D01*
X173742354Y-66492049D01*
X173803692Y-66458049D01*
X173861083Y-66419046D01*
X174139976Y-66229511D01*
X174139978Y-66229509D01*
X174142361Y-66227890D01*
X174166655Y-66207935D01*
X174456557Y-65969806D01*
X174456561Y-65969803D01*
X174458776Y-65967983D01*
X174460814Y-65965974D01*
X174460821Y-65965967D01*
X174709249Y-65720983D01*
X174750333Y-65680469D01*
X174786506Y-65637664D01*
X175012786Y-65369899D01*
X175012791Y-65369893D01*
X175014632Y-65367714D01*
X175113485Y-65226538D01*
X175247862Y-65034627D01*
X175249497Y-65032292D01*
X175452995Y-64676963D01*
X175595593Y-64365503D01*
X175622263Y-64307252D01*
X175622266Y-64307243D01*
X175623452Y-64304654D01*
X175759463Y-63918428D01*
X175859911Y-63521464D01*
X175862632Y-63504288D01*
X175923521Y-63119846D01*
X175923967Y-63117031D01*
X175934467Y-62958942D01*
X175950988Y-62710207D01*
X175950988Y-62710196D01*
X175951104Y-62708456D01*
X175952094Y-62613936D01*
X175933519Y-62204883D01*
X175877947Y-61799196D01*
X175785835Y-61400216D01*
X175711413Y-61173860D01*
X175658835Y-61013941D01*
X175658832Y-61013934D01*
X175657942Y-61011226D01*
X175495320Y-60635428D01*
X175362662Y-60392116D01*
X175300677Y-60278428D01*
X175300673Y-60278421D01*
X175299307Y-60275916D01*
X175217456Y-60153649D01*
X175073110Y-59938026D01*
X175073102Y-59938015D01*
X175071518Y-59935649D01*
X174813827Y-59617427D01*
X174792425Y-59595418D01*
X174615083Y-59413054D01*
X175064286Y-59413054D01*
X175064417Y-59414887D01*
X175068668Y-59421502D01*
X176335027Y-60687861D01*
X176338730Y-60691279D01*
X176471176Y-60803999D01*
X176479352Y-60809896D01*
X176678273Y-60930367D01*
X176687284Y-60934879D01*
X176902902Y-61021995D01*
X176912526Y-61025011D01*
X177139299Y-61076532D01*
X177149280Y-61077970D01*
X177381362Y-61092571D01*
X177391453Y-61092395D01*
X177622892Y-61069704D01*
X177632818Y-61067918D01*
X177857653Y-61008513D01*
X177867164Y-61005164D01*
X178079612Y-60910576D01*
X178088463Y-60905750D01*
X178217090Y-60821579D01*
X178226237Y-60810846D01*
X178221687Y-60801097D01*
X175958612Y-58538022D01*
X175944668Y-58530408D01*
X175942835Y-58530539D01*
X175936220Y-58534790D01*
X175071900Y-59399110D01*
X175064286Y-59413054D01*
X174615083Y-59413054D01*
X174530345Y-59325916D01*
X174530341Y-59325912D01*
X174528355Y-59323870D01*
X174526197Y-59322020D01*
X174526187Y-59322011D01*
X174219627Y-59059257D01*
X174219622Y-59059253D01*
X174217453Y-59057394D01*
X174215122Y-59055737D01*
X174215115Y-59055732D01*
X174009441Y-58909568D01*
X173883678Y-58820193D01*
X173657123Y-58688335D01*
X173532252Y-58615658D01*
X173532247Y-58615655D01*
X173529779Y-58614219D01*
X173314828Y-58513986D01*
X173161265Y-58442378D01*
X173161255Y-58442374D01*
X173158669Y-58441168D01*
X173096320Y-58418721D01*
X172776092Y-58303431D01*
X172776083Y-58303428D01*
X172773402Y-58302463D01*
X172489630Y-58228546D01*
X172379918Y-58199968D01*
X172379912Y-58199967D01*
X172377149Y-58199247D01*
X171973173Y-58132369D01*
X171970330Y-58132160D01*
X171970328Y-58132160D01*
X171567643Y-58102589D01*
X171564797Y-58102380D01*
X171394821Y-58105347D01*
X171158236Y-58109476D01*
X171158231Y-58109476D01*
X171155385Y-58109526D01*
X171152552Y-58109834D01*
X171152548Y-58109834D01*
X170853400Y-58142332D01*
X170748305Y-58153749D01*
X170346908Y-58234685D01*
X170344180Y-58235498D01*
X170344169Y-58235501D01*
X170112684Y-58304510D01*
X169954499Y-58351667D01*
X169951838Y-58352731D01*
X169951836Y-58352732D01*
X169686195Y-58458981D01*
X169574307Y-58503733D01*
X169507011Y-58538022D01*
X169212005Y-58688335D01*
X169212000Y-58688338D01*
X169209462Y-58689631D01*
X169207043Y-58691154D01*
X169207040Y-58691156D01*
X169115979Y-58748500D01*
X168862967Y-58907830D01*
X168537674Y-59156535D01*
X168236261Y-59433699D01*
X167961208Y-59737040D01*
X167959484Y-59739327D01*
X167959483Y-59739329D01*
X167748551Y-60019246D01*
X167714780Y-60064061D01*
X167499005Y-60412071D01*
X167497725Y-60414627D01*
X167497720Y-60414636D01*
X167382438Y-60644850D01*
X167315659Y-60778205D01*
X167314618Y-60780861D01*
X167314615Y-60780868D01*
X167182030Y-61119185D01*
X167166251Y-61159449D01*
X167165459Y-61162176D01*
X167165455Y-61162187D01*
X167057808Y-61532710D01*
X167052011Y-61552665D01*
X166973879Y-61954617D01*
X166932499Y-62361996D01*
X166929861Y-62613936D01*
X166928211Y-62771448D01*
X166423557Y-62771448D01*
X166423557Y-59058876D01*
X166423304Y-59055732D01*
X166409403Y-58882953D01*
X166409402Y-58882948D01*
X166408997Y-58877912D01*
X166393455Y-58814633D01*
X166352301Y-58647085D01*
X166351094Y-58642171D01*
X166338717Y-58613011D01*
X166258222Y-58423379D01*
X166256245Y-58418721D01*
X166170467Y-58282508D01*
X166129585Y-58217589D01*
X166129583Y-58217586D01*
X166126890Y-58213310D01*
X166064315Y-58142332D01*
X165969707Y-58035019D01*
X165969704Y-58035016D01*
X165966359Y-58031222D01*
X165860050Y-57943899D01*
X165782685Y-57880351D01*
X165782682Y-57880349D01*
X165778779Y-57877143D01*
X165568979Y-57755036D01*
X165536939Y-57742737D01*
X165347079Y-57669857D01*
X165347075Y-57669856D01*
X165342355Y-57668044D01*
X165337405Y-57667010D01*
X165337402Y-57667009D01*
X165109688Y-57619437D01*
X165109684Y-57619437D01*
X165104737Y-57618403D01*
X164862240Y-57607391D01*
X164857220Y-57607972D01*
X164857216Y-57607972D01*
X164626128Y-57634710D01*
X164626124Y-57634711D01*
X164621101Y-57635292D01*
X164616237Y-57636668D01*
X164616234Y-57636669D01*
X164509015Y-57667009D01*
X164387525Y-57701387D01*
X164382949Y-57703521D01*
X164382943Y-57703523D01*
X164172103Y-57801839D01*
X164172099Y-57801841D01*
X164167521Y-57803976D01*
X163966750Y-57940421D01*
X163790376Y-58107209D01*
X163787298Y-58111235D01*
X163787297Y-58111236D01*
X163646010Y-58296031D01*
X163646007Y-58296035D01*
X163642937Y-58300051D01*
X163640547Y-58304509D01*
X163640546Y-58304510D01*
X163625389Y-58332777D01*
X163528226Y-58513986D01*
X163449195Y-58743508D01*
X163435663Y-58821853D01*
X163410338Y-58968473D01*
X163407878Y-58982713D01*
X163406557Y-59011802D01*
X163406557Y-65180878D01*
X163406759Y-65183386D01*
X163406759Y-65183391D01*
X163420160Y-65349944D01*
X163421117Y-65361842D01*
X163422323Y-65366750D01*
X163422323Y-65366753D01*
X163435287Y-65419532D01*
X163479020Y-65597583D01*
X163480995Y-65602235D01*
X163480996Y-65602239D01*
X163531400Y-65720983D01*
X163573869Y-65821033D01*
X163584028Y-65837165D01*
X163692757Y-66009822D01*
X163703224Y-66026444D01*
X163706569Y-66030238D01*
X163860407Y-66204735D01*
X163860410Y-66204738D01*
X163863755Y-66208532D01*
X164051335Y-66362611D01*
X164055700Y-66365151D01*
X164055705Y-66365155D01*
X164093938Y-66387407D01*
X164142752Y-66438961D01*
X164156557Y-66496305D01*
X164156557Y-82297987D01*
X164155124Y-82316937D01*
X164151858Y-82338406D01*
X164152451Y-82345698D01*
X164152451Y-82345701D01*
X164156142Y-82391075D01*
X164156557Y-82401290D01*
X164156557Y-82409350D01*
X164156982Y-82412994D01*
X164159846Y-82437564D01*
X164160279Y-82441939D01*
X164166197Y-82514694D01*
X164168453Y-82521658D01*
X164169644Y-82527617D01*
X164171028Y-82533472D01*
X164171875Y-82540738D01*
X164196792Y-82609384D01*
X164198209Y-82613512D01*
X164220706Y-82682956D01*
X164224502Y-82689211D01*
X164227008Y-82694685D01*
X164229727Y-82700115D01*
X164232224Y-82706994D01*
X164236237Y-82713114D01*
X164236237Y-82713115D01*
X164272243Y-82768033D01*
X164274580Y-82771737D01*
X164312462Y-82834164D01*
X164316178Y-82838372D01*
X164316179Y-82838373D01*
X164319860Y-82842541D01*
X164319833Y-82842565D01*
X164322486Y-82845557D01*
X164325189Y-82848790D01*
X164329201Y-82854909D01*
X164334513Y-82859941D01*
X164385440Y-82908185D01*
X164387882Y-82910563D01*
X170908595Y-89431276D01*
X170942621Y-89493588D01*
X170945500Y-89520371D01*
X170945500Y-115106629D01*
X170925498Y-115174750D01*
X170908595Y-115195724D01*
X169515340Y-116588979D01*
X169504298Y-116602936D01*
X169437810Y-116686972D01*
X169437808Y-116686975D01*
X169433266Y-116692716D01*
X169430166Y-116699348D01*
X169430164Y-116699352D01*
X169419320Y-116722554D01*
X169372357Y-116775798D01*
X169304062Y-116795199D01*
X169263113Y-116787977D01*
X169136091Y-116742996D01*
X169136083Y-116742994D01*
X169131212Y-116741269D01*
X169126119Y-116740362D01*
X169126116Y-116740361D01*
X168916373Y-116703000D01*
X168916367Y-116702999D01*
X168911284Y-116702094D01*
X168837452Y-116701192D01*
X168693081Y-116699428D01*
X168693079Y-116699428D01*
X168687911Y-116699365D01*
X168467091Y-116733155D01*
X168254756Y-116802557D01*
X168221644Y-116819794D01*
X168099599Y-116883327D01*
X168056607Y-116905707D01*
X168052474Y-116908810D01*
X168052471Y-116908812D01*
X168002141Y-116946601D01*
X167877965Y-117039835D01*
X167874393Y-117043573D01*
X167757684Y-117165702D01*
X167723629Y-117201338D01*
X167616201Y-117358821D01*
X167561293Y-117403821D01*
X167490768Y-117411992D01*
X167427021Y-117380738D01*
X167406324Y-117356254D01*
X167325822Y-117231817D01*
X167325820Y-117231814D01*
X167323014Y-117227477D01*
X167172670Y-117062251D01*
X167168619Y-117059052D01*
X167168615Y-117059048D01*
X167001414Y-116927000D01*
X167001410Y-116926998D01*
X166997359Y-116923798D01*
X166801789Y-116815838D01*
X166796920Y-116814114D01*
X166796916Y-116814112D01*
X166596087Y-116742995D01*
X166596083Y-116742994D01*
X166591212Y-116741269D01*
X166586119Y-116740362D01*
X166586116Y-116740361D01*
X166376373Y-116703000D01*
X166376367Y-116702999D01*
X166371284Y-116702094D01*
X166297452Y-116701192D01*
X166153081Y-116699428D01*
X166153079Y-116699428D01*
X166147911Y-116699365D01*
X165927091Y-116733155D01*
X165714756Y-116802557D01*
X165681644Y-116819794D01*
X165559599Y-116883327D01*
X165516607Y-116905707D01*
X165512474Y-116908810D01*
X165512471Y-116908812D01*
X165462141Y-116946601D01*
X165337965Y-117039835D01*
X165334393Y-117043573D01*
X165217684Y-117165702D01*
X165183629Y-117201338D01*
X165076201Y-117358821D01*
X165021293Y-117403821D01*
X164950768Y-117411992D01*
X164887021Y-117380738D01*
X164866324Y-117356254D01*
X164785822Y-117231817D01*
X164785820Y-117231814D01*
X164783014Y-117227477D01*
X164632670Y-117062251D01*
X164628619Y-117059052D01*
X164628615Y-117059048D01*
X164483433Y-116944390D01*
X164443087Y-116888501D01*
X164421275Y-116828413D01*
X164419865Y-116824309D01*
X164397352Y-116754812D01*
X164393556Y-116748557D01*
X164391057Y-116743098D01*
X164388329Y-116737650D01*
X164385833Y-116730774D01*
X164345805Y-116669721D01*
X164343481Y-116666038D01*
X164308500Y-116608391D01*
X164308499Y-116608390D01*
X164305595Y-116603604D01*
X164298198Y-116595228D01*
X164298225Y-116595204D01*
X164295570Y-116592210D01*
X164292868Y-116588979D01*
X164288856Y-116582859D01*
X164232617Y-116529583D01*
X164230175Y-116527205D01*
X157229827Y-109526857D01*
X157195801Y-109464545D01*
X157192922Y-109437762D01*
X157192922Y-101992717D01*
X157212924Y-101924596D01*
X157266580Y-101878103D01*
X157318922Y-101866717D01*
X157816549Y-101866717D01*
X157819266Y-101866479D01*
X157819273Y-101866479D01*
X157887942Y-101860471D01*
X157987509Y-101851760D01*
X157992822Y-101850336D01*
X157992824Y-101850336D01*
X158203355Y-101793924D01*
X158203357Y-101793923D01*
X158208665Y-101792501D01*
X158213647Y-101790178D01*
X158411184Y-101698066D01*
X158411189Y-101698063D01*
X158416171Y-101695740D01*
X158543143Y-101606833D01*
X158599211Y-101567574D01*
X158599214Y-101567572D01*
X158603722Y-101564415D01*
X158765620Y-101402517D01*
X158896945Y-101214966D01*
X158899268Y-101209984D01*
X158899271Y-101209979D01*
X158991383Y-101012442D01*
X158991383Y-101012441D01*
X158993706Y-101007460D01*
X158998568Y-100989317D01*
X159051541Y-100791619D01*
X159051541Y-100791617D01*
X159052965Y-100786304D01*
X159072920Y-100558217D01*
X159052965Y-100330130D01*
X159047757Y-100310693D01*
X158995129Y-100114284D01*
X158995128Y-100114282D01*
X158993706Y-100108974D01*
X158991383Y-100103992D01*
X158899271Y-99906455D01*
X158899268Y-99906450D01*
X158896945Y-99901468D01*
X158765620Y-99713917D01*
X158603722Y-99552019D01*
X158599214Y-99548862D01*
X158599211Y-99548860D01*
X158422349Y-99425020D01*
X158416171Y-99420694D01*
X158411189Y-99418371D01*
X158411184Y-99418368D01*
X158213647Y-99326256D01*
X158213646Y-99326256D01*
X158208665Y-99323933D01*
X158203357Y-99322511D01*
X158203355Y-99322510D01*
X157992824Y-99266098D01*
X157992822Y-99266098D01*
X157987509Y-99264674D01*
X157887942Y-99255963D01*
X157819273Y-99249955D01*
X157819266Y-99249955D01*
X157816549Y-99249717D01*
X155052295Y-99249717D01*
X155049578Y-99249955D01*
X155049571Y-99249955D01*
X154980902Y-99255963D01*
X154881335Y-99264674D01*
X154876022Y-99266098D01*
X154876020Y-99266098D01*
X154665489Y-99322510D01*
X154665487Y-99322511D01*
X154660179Y-99323933D01*
X154655198Y-99326256D01*
X154655197Y-99326256D01*
X154457660Y-99418368D01*
X154457655Y-99418371D01*
X154452673Y-99420694D01*
X154446495Y-99425020D01*
X154269633Y-99548860D01*
X154269630Y-99548862D01*
X154265122Y-99552019D01*
X154103224Y-99713917D01*
X153971899Y-99901468D01*
X153969576Y-99906450D01*
X153969573Y-99906455D01*
X153877461Y-100103992D01*
X153875138Y-100108974D01*
X153873716Y-100114282D01*
X153873715Y-100114284D01*
X153833322Y-100265033D01*
X153796370Y-100325656D01*
X153732509Y-100356677D01*
X153682205Y-100354941D01*
X153678826Y-100354130D01*
X153674381Y-100352707D01*
X153416409Y-100310693D01*
X153302658Y-100309204D01*
X153159738Y-100307333D01*
X153159735Y-100307333D01*
X153155061Y-100307272D01*
X152896078Y-100342518D01*
X152891592Y-100343826D01*
X152891590Y-100343826D01*
X152824052Y-100363512D01*
X152645149Y-100415657D01*
X152407788Y-100525082D01*
X152357740Y-100557895D01*
X152193120Y-100665824D01*
X152193115Y-100665828D01*
X152189207Y-100668390D01*
X151994210Y-100842432D01*
X151827079Y-101043384D01*
X151824650Y-101047387D01*
X151710577Y-101235374D01*
X151691487Y-101266833D01*
X151590413Y-101507869D01*
X151526075Y-101761197D01*
X151525607Y-101765848D01*
X151525606Y-101765852D01*
X151517871Y-101842672D01*
X151499889Y-102021253D01*
X151501609Y-102057061D01*
X151512429Y-102282322D01*
X151563420Y-102538670D01*
X151651742Y-102784666D01*
X151653958Y-102788790D01*
X151745281Y-102958751D01*
X151775453Y-103014905D01*
X151778248Y-103018648D01*
X151778250Y-103018651D01*
X151929046Y-103220591D01*
X151929051Y-103220597D01*
X151931838Y-103224329D01*
X151935147Y-103227609D01*
X151935152Y-103227615D01*
X152114142Y-103405049D01*
X152117459Y-103408337D01*
X152121221Y-103411095D01*
X152121224Y-103411098D01*
X152317549Y-103555049D01*
X152328240Y-103562888D01*
X152332383Y-103565068D01*
X152332385Y-103565069D01*
X152555400Y-103682403D01*
X152555405Y-103682405D01*
X152559550Y-103684586D01*
X152806306Y-103770758D01*
X152810899Y-103771630D01*
X153058501Y-103818638D01*
X153058504Y-103818638D01*
X153063090Y-103819509D01*
X153193674Y-103824640D01*
X153319591Y-103829588D01*
X153319597Y-103829588D01*
X153324259Y-103829771D01*
X153403693Y-103821071D01*
X153579423Y-103801826D01*
X153579428Y-103801825D01*
X153584076Y-103801316D01*
X153651978Y-103783439D01*
X153832310Y-103735962D01*
X153832312Y-103735961D01*
X153836833Y-103734771D01*
X153882691Y-103715069D01*
X154047967Y-103644060D01*
X154076978Y-103631596D01*
X154299235Y-103494060D01*
X154302798Y-103491043D01*
X154302803Y-103491040D01*
X154495155Y-103328201D01*
X154495156Y-103328200D01*
X154498721Y-103325182D01*
X154590445Y-103220591D01*
X154667973Y-103132188D01*
X154667977Y-103132183D01*
X154671055Y-103128673D01*
X154812449Y-102908851D01*
X154919799Y-102670543D01*
X154949749Y-102564348D01*
X154989476Y-102423490D01*
X154989477Y-102423487D01*
X154990746Y-102418986D01*
X155004648Y-102309705D01*
X155023332Y-102162835D01*
X155023332Y-102162831D01*
X155023730Y-102159705D01*
X155026147Y-102067414D01*
X155021290Y-102002055D01*
X155036189Y-101932639D01*
X155086252Y-101882298D01*
X155146944Y-101866717D01*
X155549922Y-101866717D01*
X155618043Y-101886719D01*
X155664536Y-101940375D01*
X155675922Y-101992717D01*
X155675922Y-109737063D01*
X155674489Y-109756013D01*
X155671223Y-109777482D01*
X155671816Y-109784774D01*
X155671816Y-109784777D01*
X155675507Y-109830151D01*
X155675922Y-109840366D01*
X155675922Y-109848426D01*
X155676347Y-109852070D01*
X155679211Y-109876640D01*
X155679644Y-109881015D01*
X155685562Y-109953770D01*
X155687818Y-109960734D01*
X155689009Y-109966693D01*
X155690393Y-109972548D01*
X155691240Y-109979814D01*
X155716157Y-110048460D01*
X155717574Y-110052588D01*
X155740071Y-110122032D01*
X155743867Y-110128287D01*
X155746373Y-110133761D01*
X155749092Y-110139191D01*
X155751589Y-110146070D01*
X155755602Y-110152190D01*
X155755602Y-110152191D01*
X155791608Y-110207109D01*
X155793945Y-110210813D01*
X155831827Y-110273240D01*
X155835543Y-110277448D01*
X155835544Y-110277449D01*
X155839225Y-110281617D01*
X155839198Y-110281641D01*
X155841851Y-110284633D01*
X155844554Y-110287866D01*
X155848566Y-110293985D01*
X155853878Y-110299017D01*
X155904805Y-110347261D01*
X155907247Y-110349639D01*
X162616556Y-117058948D01*
X162650582Y-117121260D01*
X162645517Y-117192075D01*
X162631550Y-117219045D01*
X162536203Y-117358819D01*
X162481293Y-117403821D01*
X162410768Y-117411992D01*
X162347021Y-117380738D01*
X162326324Y-117356254D01*
X162245822Y-117231817D01*
X162245820Y-117231814D01*
X162243014Y-117227477D01*
X162092670Y-117062251D01*
X162088619Y-117059052D01*
X162088615Y-117059048D01*
X161921414Y-116927000D01*
X161921410Y-116926998D01*
X161917359Y-116923798D01*
X161721789Y-116815838D01*
X161716920Y-116814114D01*
X161716916Y-116814112D01*
X161516087Y-116742995D01*
X161516083Y-116742994D01*
X161511212Y-116741269D01*
X161506119Y-116740362D01*
X161506116Y-116740361D01*
X161296373Y-116703000D01*
X161296367Y-116702999D01*
X161291284Y-116702094D01*
X161217452Y-116701192D01*
X161073081Y-116699428D01*
X161073079Y-116699428D01*
X161067911Y-116699365D01*
X160847091Y-116733155D01*
X160634756Y-116802557D01*
X160601644Y-116819794D01*
X160479599Y-116883327D01*
X160436607Y-116905707D01*
X160432474Y-116908810D01*
X160432471Y-116908812D01*
X160382141Y-116946601D01*
X160257965Y-117039835D01*
X160254393Y-117043573D01*
X160137684Y-117165702D01*
X160103629Y-117201338D01*
X159996201Y-117358821D01*
X159941293Y-117403821D01*
X159870768Y-117411992D01*
X159807021Y-117380738D01*
X159786324Y-117356254D01*
X159705822Y-117231817D01*
X159705820Y-117231814D01*
X159703014Y-117227477D01*
X159606210Y-117121091D01*
X159553590Y-117063262D01*
X159522539Y-116999416D01*
X159530934Y-116928917D01*
X159576110Y-116874149D01*
X159595536Y-116863355D01*
X159633608Y-116846405D01*
X159633615Y-116846401D01*
X159639641Y-116843718D01*
X159660707Y-116828413D01*
X159706421Y-116795199D01*
X159794142Y-116731466D01*
X159801080Y-116723761D01*
X159917510Y-116594452D01*
X159917511Y-116594451D01*
X159921929Y-116589544D01*
X160017416Y-116424156D01*
X160076431Y-116242528D01*
X160087110Y-116140928D01*
X160095703Y-116059165D01*
X160096393Y-116052600D01*
X160078756Y-115884789D01*
X160077121Y-115869235D01*
X160077121Y-115869233D01*
X160076431Y-115862672D01*
X160017416Y-115681044D01*
X159921929Y-115515656D01*
X159794142Y-115373734D01*
X159639641Y-115261482D01*
X159633613Y-115258798D01*
X159633611Y-115258797D01*
X159471208Y-115186491D01*
X159471207Y-115186491D01*
X159465177Y-115183806D01*
X159370883Y-115163763D01*
X159284833Y-115145472D01*
X159284828Y-115145472D01*
X159278376Y-115144100D01*
X159087402Y-115144100D01*
X159080950Y-115145472D01*
X159080945Y-115145472D01*
X158907058Y-115182433D01*
X158907053Y-115182434D01*
X158900601Y-115183806D01*
X158894853Y-115186365D01*
X158856120Y-115192500D01*
X153657298Y-115192500D01*
X153583239Y-115168437D01*
X153576809Y-115163765D01*
X153576802Y-115163761D01*
X153571463Y-115159882D01*
X153565435Y-115157198D01*
X153565433Y-115157197D01*
X153403030Y-115084891D01*
X153403029Y-115084891D01*
X153396999Y-115082206D01*
X153303599Y-115062353D01*
X153216655Y-115043872D01*
X153216650Y-115043872D01*
X153210198Y-115042500D01*
X153019224Y-115042500D01*
X153012772Y-115043872D01*
X153012767Y-115043872D01*
X152925823Y-115062353D01*
X152832423Y-115082206D01*
X152826393Y-115084891D01*
X152826392Y-115084891D01*
X152663989Y-115157197D01*
X152663987Y-115157198D01*
X152657959Y-115159882D01*
X152652618Y-115163762D01*
X152652617Y-115163763D01*
X152621552Y-115186333D01*
X152503458Y-115272134D01*
X152375671Y-115414056D01*
X152280184Y-115579444D01*
X152221169Y-115761072D01*
X152220479Y-115767633D01*
X152220479Y-115767635D01*
X152206326Y-115902297D01*
X152201207Y-115951000D01*
X152201897Y-115957565D01*
X152205436Y-115991232D01*
X152221169Y-116140928D01*
X152280184Y-116322556D01*
X152375671Y-116487944D01*
X152380089Y-116492851D01*
X152380090Y-116492852D01*
X152480781Y-116604681D01*
X152503458Y-116629866D01*
X152599890Y-116699928D01*
X152645623Y-116733155D01*
X152657959Y-116742118D01*
X152663987Y-116744802D01*
X152663989Y-116744803D01*
X152698522Y-116760178D01*
X152752618Y-116806159D01*
X152773267Y-116874086D01*
X152753914Y-116942394D01*
X152722930Y-116976041D01*
X152637965Y-117039835D01*
X152634393Y-117043573D01*
X152517684Y-117165702D01*
X152483629Y-117201338D01*
X152376201Y-117358821D01*
X152321293Y-117403821D01*
X152250768Y-117411992D01*
X152187021Y-117380738D01*
X152166324Y-117356254D01*
X152085822Y-117231817D01*
X152085820Y-117231814D01*
X152083014Y-117227477D01*
X151932670Y-117062251D01*
X151928619Y-117059052D01*
X151928615Y-117059048D01*
X151761414Y-116927000D01*
X151761410Y-116926998D01*
X151757359Y-116923798D01*
X151561789Y-116815838D01*
X151556920Y-116814114D01*
X151556916Y-116814112D01*
X151356087Y-116742995D01*
X151356083Y-116742994D01*
X151351212Y-116741269D01*
X151346119Y-116740362D01*
X151346116Y-116740361D01*
X151136373Y-116703000D01*
X151136367Y-116702999D01*
X151131284Y-116702094D01*
X151057452Y-116701192D01*
X150913081Y-116699428D01*
X150913079Y-116699428D01*
X150907911Y-116699365D01*
X150687091Y-116733155D01*
X150474756Y-116802557D01*
X150441644Y-116819794D01*
X150319599Y-116883327D01*
X150276607Y-116905707D01*
X150272474Y-116908810D01*
X150272471Y-116908812D01*
X150222141Y-116946601D01*
X150097965Y-117039835D01*
X150094393Y-117043573D01*
X149977684Y-117165702D01*
X149943629Y-117201338D01*
X149836201Y-117358821D01*
X149781293Y-117403821D01*
X149710768Y-117411992D01*
X149647021Y-117380738D01*
X149626324Y-117356254D01*
X149545822Y-117231817D01*
X149545820Y-117231814D01*
X149543014Y-117227477D01*
X149392670Y-117062251D01*
X149388619Y-117059052D01*
X149388615Y-117059048D01*
X149221414Y-116927000D01*
X149221410Y-116926998D01*
X149217359Y-116923798D01*
X149021789Y-116815838D01*
X149016920Y-116814114D01*
X149016916Y-116814112D01*
X148816087Y-116742995D01*
X148816083Y-116742994D01*
X148811212Y-116741269D01*
X148806119Y-116740362D01*
X148806116Y-116740361D01*
X148596373Y-116703000D01*
X148596367Y-116702999D01*
X148591284Y-116702094D01*
X148517452Y-116701192D01*
X148373081Y-116699428D01*
X148373079Y-116699428D01*
X148367911Y-116699365D01*
X148147091Y-116733155D01*
X147934756Y-116802557D01*
X147901644Y-116819794D01*
X147779599Y-116883327D01*
X147736607Y-116905707D01*
X147732474Y-116908810D01*
X147732471Y-116908812D01*
X147682141Y-116946601D01*
X147557965Y-117039835D01*
X147554393Y-117043573D01*
X147437684Y-117165702D01*
X147403629Y-117201338D01*
X147296201Y-117358821D01*
X147241293Y-117403821D01*
X147170768Y-117411992D01*
X147107021Y-117380738D01*
X147086324Y-117356254D01*
X147005822Y-117231817D01*
X147005820Y-117231814D01*
X147003014Y-117227477D01*
X146852670Y-117062251D01*
X146848619Y-117059052D01*
X146848615Y-117059048D01*
X146681414Y-116927000D01*
X146681410Y-116926998D01*
X146677359Y-116923798D01*
X146481789Y-116815838D01*
X146476920Y-116814114D01*
X146476916Y-116814112D01*
X146276087Y-116742995D01*
X146276083Y-116742994D01*
X146271212Y-116741269D01*
X146266119Y-116740362D01*
X146266116Y-116740361D01*
X146056373Y-116703000D01*
X146056367Y-116702999D01*
X146051284Y-116702094D01*
X145977452Y-116701192D01*
X145833081Y-116699428D01*
X145833079Y-116699428D01*
X145827911Y-116699365D01*
X145607091Y-116733155D01*
X145394756Y-116802557D01*
X145361644Y-116819794D01*
X145239599Y-116883327D01*
X145196607Y-116905707D01*
X145192474Y-116908810D01*
X145192471Y-116908812D01*
X145142141Y-116946601D01*
X145017965Y-117039835D01*
X145014393Y-117043573D01*
X144897684Y-117165702D01*
X144863629Y-117201338D01*
X144756201Y-117358821D01*
X144701293Y-117403821D01*
X144630768Y-117411992D01*
X144567021Y-117380738D01*
X144546324Y-117356254D01*
X144465822Y-117231817D01*
X144465820Y-117231814D01*
X144463014Y-117227477D01*
X144312670Y-117062251D01*
X144308619Y-117059052D01*
X144308615Y-117059048D01*
X144141414Y-116927000D01*
X144141410Y-116926998D01*
X144137359Y-116923798D01*
X143941789Y-116815838D01*
X143936920Y-116814114D01*
X143936916Y-116814112D01*
X143736087Y-116742995D01*
X143736083Y-116742994D01*
X143731212Y-116741269D01*
X143726119Y-116740362D01*
X143726116Y-116740361D01*
X143516373Y-116703000D01*
X143516367Y-116702999D01*
X143511284Y-116702094D01*
X143437452Y-116701192D01*
X143293081Y-116699428D01*
X143293079Y-116699428D01*
X143287911Y-116699365D01*
X143067091Y-116733155D01*
X142854756Y-116802557D01*
X142821644Y-116819794D01*
X142699599Y-116883327D01*
X142656607Y-116905707D01*
X142652474Y-116908810D01*
X142652471Y-116908812D01*
X142602141Y-116946601D01*
X142477965Y-117039835D01*
X142474393Y-117043573D01*
X142357684Y-117165702D01*
X142323629Y-117201338D01*
X142216201Y-117358821D01*
X142161293Y-117403821D01*
X142090768Y-117411992D01*
X142027021Y-117380738D01*
X142006324Y-117356254D01*
X141925822Y-117231817D01*
X141925820Y-117231814D01*
X141923014Y-117227477D01*
X141772670Y-117062251D01*
X141768619Y-117059052D01*
X141768615Y-117059048D01*
X141601414Y-116927000D01*
X141601410Y-116926998D01*
X141597359Y-116923798D01*
X141401789Y-116815838D01*
X141396920Y-116814114D01*
X141396916Y-116814112D01*
X141196087Y-116742995D01*
X141196083Y-116742994D01*
X141191212Y-116741269D01*
X141186119Y-116740362D01*
X141186116Y-116740361D01*
X140976373Y-116703000D01*
X140976367Y-116702999D01*
X140971284Y-116702094D01*
X140897452Y-116701192D01*
X140753081Y-116699428D01*
X140753079Y-116699428D01*
X140747911Y-116699365D01*
X140527091Y-116733155D01*
X140314756Y-116802557D01*
X140281644Y-116819794D01*
X140159599Y-116883327D01*
X140116607Y-116905707D01*
X140112474Y-116908810D01*
X140112471Y-116908812D01*
X140062141Y-116946601D01*
X139937965Y-117039835D01*
X139934393Y-117043573D01*
X139817684Y-117165702D01*
X139783629Y-117201338D01*
X139676201Y-117358821D01*
X139621293Y-117403821D01*
X139550768Y-117411992D01*
X139487021Y-117380738D01*
X139466324Y-117356254D01*
X139385822Y-117231817D01*
X139385820Y-117231814D01*
X139383014Y-117227477D01*
X139232670Y-117062251D01*
X139228619Y-117059052D01*
X139228615Y-117059048D01*
X139061414Y-116927000D01*
X139061410Y-116926998D01*
X139057359Y-116923798D01*
X138861789Y-116815838D01*
X138856920Y-116814114D01*
X138856916Y-116814112D01*
X138656087Y-116742995D01*
X138656083Y-116742994D01*
X138651212Y-116741269D01*
X138646119Y-116740362D01*
X138646116Y-116740361D01*
X138436373Y-116703000D01*
X138436367Y-116702999D01*
X138431284Y-116702094D01*
X138357452Y-116701192D01*
X138213081Y-116699428D01*
X138213079Y-116699428D01*
X138207911Y-116699365D01*
X137987091Y-116733155D01*
X137774756Y-116802557D01*
X137741644Y-116819794D01*
X137619599Y-116883327D01*
X137576607Y-116905707D01*
X137572474Y-116908810D01*
X137572471Y-116908812D01*
X137522141Y-116946601D01*
X137397965Y-117039835D01*
X137394393Y-117043573D01*
X137277684Y-117165702D01*
X137243629Y-117201338D01*
X137136201Y-117358821D01*
X137081293Y-117403821D01*
X137010768Y-117411992D01*
X136947021Y-117380738D01*
X136926324Y-117356254D01*
X136845825Y-117231821D01*
X136845820Y-117231815D01*
X136843014Y-117227477D01*
X136839532Y-117223650D01*
X136804306Y-117184937D01*
X136773254Y-117121091D01*
X136771500Y-117100138D01*
X136771500Y-102171253D01*
X139999889Y-102171253D01*
X140001609Y-102207061D01*
X140012429Y-102432322D01*
X140063420Y-102688670D01*
X140151742Y-102934666D01*
X140153958Y-102938790D01*
X140257874Y-103132188D01*
X140275453Y-103164905D01*
X140278248Y-103168648D01*
X140278250Y-103168651D01*
X140429046Y-103370591D01*
X140429051Y-103370597D01*
X140431838Y-103374329D01*
X140435147Y-103377609D01*
X140435152Y-103377615D01*
X140555098Y-103496518D01*
X140617459Y-103558337D01*
X140621221Y-103561095D01*
X140621224Y-103561098D01*
X140789641Y-103684586D01*
X140828240Y-103712888D01*
X140832383Y-103715068D01*
X140832385Y-103715069D01*
X141055400Y-103832403D01*
X141055405Y-103832405D01*
X141059550Y-103834586D01*
X141306306Y-103920758D01*
X141310899Y-103921630D01*
X141558501Y-103968638D01*
X141558504Y-103968638D01*
X141563090Y-103969509D01*
X141693674Y-103974640D01*
X141819591Y-103979588D01*
X141819597Y-103979588D01*
X141824259Y-103979771D01*
X141903693Y-103971071D01*
X142079423Y-103951826D01*
X142079428Y-103951825D01*
X142084076Y-103951316D01*
X142196832Y-103921630D01*
X142332310Y-103885962D01*
X142332312Y-103885961D01*
X142336833Y-103884771D01*
X142576978Y-103781596D01*
X142799235Y-103644060D01*
X142802798Y-103641043D01*
X142802803Y-103641040D01*
X142995155Y-103478201D01*
X142995156Y-103478200D01*
X142998721Y-103475182D01*
X143133347Y-103321671D01*
X143167973Y-103282188D01*
X143167977Y-103282183D01*
X143171055Y-103278673D01*
X143312449Y-103058851D01*
X143419799Y-102820543D01*
X143459568Y-102679534D01*
X143489476Y-102573490D01*
X143489477Y-102573487D01*
X143490746Y-102568986D01*
X143507548Y-102436910D01*
X143523332Y-102312835D01*
X143523332Y-102312831D01*
X143523730Y-102309705D01*
X143524570Y-102277650D01*
X143526064Y-102220574D01*
X143526147Y-102217414D01*
X143522091Y-102162835D01*
X143507123Y-101961414D01*
X143507122Y-101961410D01*
X143506777Y-101956762D01*
X143501319Y-101932639D01*
X143450124Y-101706394D01*
X143449093Y-101701837D01*
X143446722Y-101695740D01*
X143356056Y-101462590D01*
X143356055Y-101462587D01*
X143354363Y-101458237D01*
X143224667Y-101231316D01*
X143062854Y-101026057D01*
X142872479Y-100846971D01*
X142657725Y-100697990D01*
X142653532Y-100695922D01*
X142427497Y-100584454D01*
X142427494Y-100584453D01*
X142423309Y-100582389D01*
X142377165Y-100567618D01*
X142178839Y-100504134D01*
X142174381Y-100502707D01*
X141916409Y-100460693D01*
X141802658Y-100459204D01*
X141659738Y-100457333D01*
X141659735Y-100457333D01*
X141655061Y-100457272D01*
X141396078Y-100492518D01*
X141145149Y-100565657D01*
X141140896Y-100567617D01*
X141140895Y-100567618D01*
X141104375Y-100584454D01*
X140907788Y-100675082D01*
X140868783Y-100700655D01*
X140693120Y-100815824D01*
X140693115Y-100815828D01*
X140689207Y-100818390D01*
X140494210Y-100992432D01*
X140327079Y-101193384D01*
X140324650Y-101197387D01*
X140284935Y-101262836D01*
X140191487Y-101416833D01*
X140090413Y-101657869D01*
X140026075Y-101911197D01*
X140025607Y-101915848D01*
X140025606Y-101915852D01*
X140021487Y-101956762D01*
X139999889Y-102171253D01*
X136771500Y-102171253D01*
X136771500Y-98346156D01*
X138815381Y-98346156D01*
X138862872Y-98523395D01*
X138866618Y-98533687D01*
X138958694Y-98731145D01*
X138964177Y-98740641D01*
X139089136Y-98919101D01*
X139096192Y-98927509D01*
X139250233Y-99081550D01*
X139258641Y-99088606D01*
X139437101Y-99213565D01*
X139446597Y-99219048D01*
X139644055Y-99311124D01*
X139654347Y-99314870D01*
X139864796Y-99371259D01*
X139875589Y-99373162D01*
X140038278Y-99387396D01*
X140043743Y-99387634D01*
X141150993Y-99387634D01*
X141166232Y-99383159D01*
X141167437Y-99381769D01*
X141169108Y-99374086D01*
X141169108Y-99369519D01*
X141677108Y-99369519D01*
X141681583Y-99384758D01*
X141682973Y-99385963D01*
X141690656Y-99387634D01*
X142802473Y-99387634D01*
X142807938Y-99387396D01*
X142970627Y-99373162D01*
X142981420Y-99371259D01*
X143191869Y-99314870D01*
X143202161Y-99311124D01*
X143399619Y-99219048D01*
X143409115Y-99213565D01*
X143587575Y-99088606D01*
X143595983Y-99081550D01*
X143750024Y-98927509D01*
X143757080Y-98919101D01*
X143882039Y-98740641D01*
X143887522Y-98731145D01*
X143979598Y-98533687D01*
X143983344Y-98523395D01*
X144029502Y-98351131D01*
X144029166Y-98337035D01*
X144021224Y-98333634D01*
X141695223Y-98333634D01*
X141679984Y-98338109D01*
X141678779Y-98339499D01*
X141677108Y-98347182D01*
X141677108Y-99369519D01*
X141169108Y-99369519D01*
X141169108Y-98351749D01*
X141164633Y-98336510D01*
X141163243Y-98335305D01*
X141155560Y-98333634D01*
X138830141Y-98333634D01*
X138816610Y-98337607D01*
X138815381Y-98346156D01*
X136771500Y-98346156D01*
X136771500Y-97808137D01*
X138816714Y-97808137D01*
X138817050Y-97822233D01*
X138824992Y-97825634D01*
X141150993Y-97825634D01*
X141166232Y-97821159D01*
X141167437Y-97819769D01*
X141169108Y-97812086D01*
X141169108Y-97807519D01*
X141677108Y-97807519D01*
X141681583Y-97822758D01*
X141682973Y-97823963D01*
X141690656Y-97825634D01*
X144016075Y-97825634D01*
X144029606Y-97821661D01*
X144030835Y-97813112D01*
X143983344Y-97635873D01*
X143979598Y-97625581D01*
X143887522Y-97428123D01*
X143882039Y-97418627D01*
X143757080Y-97240167D01*
X143750024Y-97231759D01*
X143595983Y-97077718D01*
X143587575Y-97070662D01*
X143409115Y-96945703D01*
X143399619Y-96940220D01*
X143202161Y-96848144D01*
X143191869Y-96844398D01*
X142981420Y-96788009D01*
X142970627Y-96786106D01*
X142807938Y-96771872D01*
X142802473Y-96771634D01*
X141695223Y-96771634D01*
X141679984Y-96776109D01*
X141678779Y-96777499D01*
X141677108Y-96785182D01*
X141677108Y-97807519D01*
X141169108Y-97807519D01*
X141169108Y-96789749D01*
X141164633Y-96774510D01*
X141163243Y-96773305D01*
X141155560Y-96771634D01*
X140043743Y-96771634D01*
X140038278Y-96771872D01*
X139875589Y-96786106D01*
X139864796Y-96788009D01*
X139654347Y-96844398D01*
X139644055Y-96848144D01*
X139446597Y-96940220D01*
X139437101Y-96945703D01*
X139258641Y-97070662D01*
X139250233Y-97077718D01*
X139096192Y-97231759D01*
X139089136Y-97240167D01*
X138964177Y-97418627D01*
X138958694Y-97428123D01*
X138866618Y-97625581D01*
X138862872Y-97635873D01*
X138816714Y-97808137D01*
X136771500Y-97808137D01*
X136771500Y-96522636D01*
X136791502Y-96454515D01*
X136808405Y-96433541D01*
X139836644Y-93405302D01*
X139898956Y-93371276D01*
X139969771Y-93376341D01*
X140026607Y-93418888D01*
X140051418Y-93485408D01*
X140047862Y-93525411D01*
X140026075Y-93611197D01*
X140025607Y-93615848D01*
X140025606Y-93615852D01*
X140017869Y-93692695D01*
X139999889Y-93871253D01*
X140001609Y-93907061D01*
X140012429Y-94132322D01*
X140063420Y-94388670D01*
X140151742Y-94634666D01*
X140153958Y-94638790D01*
X140261710Y-94839327D01*
X140275453Y-94864905D01*
X140278248Y-94868648D01*
X140278250Y-94868651D01*
X140429046Y-95070591D01*
X140429051Y-95070597D01*
X140431838Y-95074329D01*
X140435147Y-95077609D01*
X140435152Y-95077615D01*
X140602522Y-95243530D01*
X140617459Y-95258337D01*
X140621221Y-95261095D01*
X140621224Y-95261098D01*
X140822816Y-95408911D01*
X140828240Y-95412888D01*
X140832383Y-95415068D01*
X140832385Y-95415069D01*
X141055400Y-95532403D01*
X141055405Y-95532405D01*
X141059550Y-95534586D01*
X141165080Y-95571439D01*
X141296954Y-95617492D01*
X141306306Y-95620758D01*
X141310899Y-95621630D01*
X141558501Y-95668638D01*
X141558504Y-95668638D01*
X141563090Y-95669509D01*
X141693674Y-95674640D01*
X141819591Y-95679588D01*
X141819597Y-95679588D01*
X141824259Y-95679771D01*
X141903693Y-95671071D01*
X142079423Y-95651826D01*
X142079428Y-95651825D01*
X142084076Y-95651316D01*
X142096322Y-95648092D01*
X142332310Y-95585962D01*
X142332312Y-95585961D01*
X142336833Y-95584771D01*
X142382691Y-95565069D01*
X142568061Y-95485427D01*
X142576978Y-95481596D01*
X142586883Y-95475467D01*
X142795263Y-95346518D01*
X142795264Y-95346518D01*
X142799235Y-95344060D01*
X142802798Y-95341043D01*
X142802803Y-95341040D01*
X142995155Y-95178201D01*
X142995156Y-95178200D01*
X142998721Y-95175182D01*
X143057816Y-95107797D01*
X143167973Y-94982188D01*
X143167977Y-94982183D01*
X143171055Y-94978673D01*
X143312449Y-94758851D01*
X143419799Y-94520543D01*
X143447186Y-94423438D01*
X143489476Y-94273490D01*
X143489477Y-94273487D01*
X143490746Y-94268986D01*
X143507964Y-94133639D01*
X143522261Y-94021253D01*
X151499889Y-94021253D01*
X151501609Y-94057061D01*
X151512429Y-94282322D01*
X151563420Y-94538670D01*
X151651742Y-94784666D01*
X151653958Y-94788790D01*
X151766261Y-94997797D01*
X151775453Y-95014905D01*
X151778248Y-95018648D01*
X151778250Y-95018651D01*
X151929046Y-95220591D01*
X151929051Y-95220597D01*
X151931838Y-95224329D01*
X151935147Y-95227609D01*
X151935152Y-95227615D01*
X152079880Y-95371085D01*
X152117459Y-95408337D01*
X152121221Y-95411095D01*
X152121224Y-95411098D01*
X152289641Y-95534586D01*
X152328240Y-95562888D01*
X152332383Y-95565068D01*
X152332385Y-95565069D01*
X152555400Y-95682403D01*
X152555405Y-95682405D01*
X152559550Y-95684586D01*
X152720783Y-95740892D01*
X152752853Y-95752091D01*
X152806306Y-95770758D01*
X152810899Y-95771630D01*
X153058501Y-95818638D01*
X153058504Y-95818638D01*
X153063090Y-95819509D01*
X153193675Y-95824640D01*
X153319591Y-95829588D01*
X153319597Y-95829588D01*
X153324259Y-95829771D01*
X153403693Y-95821071D01*
X153579423Y-95801826D01*
X153579428Y-95801825D01*
X153584076Y-95801316D01*
X153588604Y-95800124D01*
X153639886Y-95786623D01*
X153710854Y-95788623D01*
X153769476Y-95828673D01*
X153793672Y-95875858D01*
X153837006Y-96037583D01*
X153839329Y-96042564D01*
X153839329Y-96042565D01*
X153931441Y-96240102D01*
X153931444Y-96240107D01*
X153933767Y-96245089D01*
X154065092Y-96432640D01*
X154226990Y-96594538D01*
X154231498Y-96597695D01*
X154231501Y-96597697D01*
X154309679Y-96652438D01*
X154414541Y-96725863D01*
X154419523Y-96728186D01*
X154419528Y-96728189D01*
X154617065Y-96820301D01*
X154622047Y-96822624D01*
X154627355Y-96824046D01*
X154627357Y-96824047D01*
X154837888Y-96880459D01*
X154837890Y-96880459D01*
X154843203Y-96881883D01*
X154942770Y-96890594D01*
X155011439Y-96896602D01*
X155011446Y-96896602D01*
X155014163Y-96896840D01*
X157778417Y-96896840D01*
X157781134Y-96896602D01*
X157781141Y-96896602D01*
X157849810Y-96890594D01*
X157949377Y-96881883D01*
X157954690Y-96880459D01*
X157954692Y-96880459D01*
X158165223Y-96824047D01*
X158165225Y-96824046D01*
X158170533Y-96822624D01*
X158175515Y-96820301D01*
X158373052Y-96728189D01*
X158373057Y-96728186D01*
X158378039Y-96725863D01*
X158482901Y-96652438D01*
X158561079Y-96597697D01*
X158561082Y-96597695D01*
X158565590Y-96594538D01*
X158727488Y-96432640D01*
X158749945Y-96400569D01*
X158805400Y-96356241D01*
X158853157Y-96346840D01*
X163660301Y-96346840D01*
X163679251Y-96348273D01*
X163693486Y-96350439D01*
X163693490Y-96350439D01*
X163700720Y-96351539D01*
X163708012Y-96350946D01*
X163708015Y-96350946D01*
X163753389Y-96347255D01*
X163763604Y-96346840D01*
X163771664Y-96346840D01*
X163784954Y-96345291D01*
X163799878Y-96343551D01*
X163804253Y-96343118D01*
X163869710Y-96337794D01*
X163869713Y-96337793D01*
X163877008Y-96337200D01*
X163883972Y-96334944D01*
X163889931Y-96333753D01*
X163895786Y-96332369D01*
X163903052Y-96331522D01*
X163971698Y-96306605D01*
X163975826Y-96305188D01*
X164038307Y-96284947D01*
X164038309Y-96284946D01*
X164045270Y-96282691D01*
X164051525Y-96278895D01*
X164056999Y-96276389D01*
X164062429Y-96273670D01*
X164069308Y-96271173D01*
X164102217Y-96249597D01*
X164130347Y-96231154D01*
X164134051Y-96228817D01*
X164196478Y-96190935D01*
X164204855Y-96183537D01*
X164204879Y-96183564D01*
X164207871Y-96180911D01*
X164211104Y-96178208D01*
X164217223Y-96174196D01*
X164270499Y-96117957D01*
X164272877Y-96115515D01*
X169504331Y-90884061D01*
X169567228Y-90849910D01*
X169623824Y-90837880D01*
X169623833Y-90837877D01*
X169630288Y-90836505D01*
X169636319Y-90833820D01*
X169798722Y-90761514D01*
X169798724Y-90761513D01*
X169804752Y-90758829D01*
X169821444Y-90746702D01*
X169871119Y-90710610D01*
X169959253Y-90646577D01*
X170053559Y-90541840D01*
X170082621Y-90509563D01*
X170082622Y-90509562D01*
X170087040Y-90504655D01*
X170173861Y-90354277D01*
X170179223Y-90344990D01*
X170179224Y-90344989D01*
X170182527Y-90339267D01*
X170241542Y-90157639D01*
X170253055Y-90048104D01*
X170260814Y-89974276D01*
X170261504Y-89967711D01*
X170241542Y-89777783D01*
X170182527Y-89596155D01*
X170087040Y-89430767D01*
X170016368Y-89352277D01*
X169963675Y-89293756D01*
X169963674Y-89293755D01*
X169959253Y-89288845D01*
X169839884Y-89202118D01*
X169810094Y-89180474D01*
X169810093Y-89180473D01*
X169804752Y-89176593D01*
X169798724Y-89173909D01*
X169798722Y-89173908D01*
X169636319Y-89101602D01*
X169636318Y-89101602D01*
X169630288Y-89098917D01*
X169536887Y-89079064D01*
X169449944Y-89060583D01*
X169449939Y-89060583D01*
X169443487Y-89059211D01*
X169252513Y-89059211D01*
X169246061Y-89060583D01*
X169246056Y-89060583D01*
X169159113Y-89079064D01*
X169065712Y-89098917D01*
X169059682Y-89101602D01*
X169059681Y-89101602D01*
X168897278Y-89173908D01*
X168897276Y-89173909D01*
X168891248Y-89176593D01*
X168885907Y-89180473D01*
X168885906Y-89180474D01*
X168856116Y-89202118D01*
X168736747Y-89288845D01*
X168732326Y-89293755D01*
X168732325Y-89293756D01*
X168679633Y-89352277D01*
X168608960Y-89430767D01*
X168513473Y-89596155D01*
X168474016Y-89717592D01*
X168458613Y-89764996D01*
X168427875Y-89815155D01*
X163450095Y-94792935D01*
X163387783Y-94826961D01*
X163361000Y-94829840D01*
X158853157Y-94829840D01*
X158785036Y-94809838D01*
X158749945Y-94776112D01*
X158727488Y-94744040D01*
X158565590Y-94582142D01*
X158561082Y-94578985D01*
X158561079Y-94578983D01*
X158459763Y-94508041D01*
X158378039Y-94450817D01*
X158373057Y-94448494D01*
X158373052Y-94448491D01*
X158175515Y-94356379D01*
X158175514Y-94356379D01*
X158170533Y-94354056D01*
X158165225Y-94352634D01*
X158165223Y-94352633D01*
X157954692Y-94296221D01*
X157954690Y-94296221D01*
X157949377Y-94294797D01*
X157849810Y-94286086D01*
X157781141Y-94280078D01*
X157781134Y-94280078D01*
X157778417Y-94279840D01*
X155149927Y-94279840D01*
X155081806Y-94259838D01*
X155035313Y-94206182D01*
X155023970Y-94150541D01*
X155026064Y-94070574D01*
X155026147Y-94067414D01*
X155022091Y-94012835D01*
X155007123Y-93811414D01*
X155007122Y-93811410D01*
X155006777Y-93806762D01*
X155003571Y-93792590D01*
X154950124Y-93556394D01*
X154949093Y-93551837D01*
X154947400Y-93547483D01*
X154856056Y-93312590D01*
X154856055Y-93312587D01*
X154854363Y-93308237D01*
X154821427Y-93250610D01*
X154766313Y-93154181D01*
X154724667Y-93081316D01*
X154562854Y-92876057D01*
X154372479Y-92696971D01*
X154157725Y-92547990D01*
X154153532Y-92545922D01*
X153927497Y-92434454D01*
X153927494Y-92434453D01*
X153923309Y-92432389D01*
X153877165Y-92417618D01*
X153678839Y-92354134D01*
X153674381Y-92352707D01*
X153416409Y-92310693D01*
X153302658Y-92309204D01*
X153159738Y-92307333D01*
X153159735Y-92307333D01*
X153155061Y-92307272D01*
X152896078Y-92342518D01*
X152891592Y-92343826D01*
X152891590Y-92343826D01*
X152863704Y-92351954D01*
X152645149Y-92415657D01*
X152640896Y-92417617D01*
X152640895Y-92417618D01*
X152604375Y-92434454D01*
X152407788Y-92525082D01*
X152369512Y-92550177D01*
X152193120Y-92665824D01*
X152193115Y-92665828D01*
X152189207Y-92668390D01*
X151994210Y-92842432D01*
X151827079Y-93043384D01*
X151824650Y-93047387D01*
X151757385Y-93158237D01*
X151691487Y-93266833D01*
X151590413Y-93507869D01*
X151526075Y-93761197D01*
X151499889Y-94021253D01*
X143522261Y-94021253D01*
X143523332Y-94012835D01*
X143523332Y-94012831D01*
X143523730Y-94009705D01*
X143526147Y-93917414D01*
X143517586Y-93802208D01*
X143507123Y-93661414D01*
X143507122Y-93661410D01*
X143506777Y-93656762D01*
X143495480Y-93606833D01*
X143450124Y-93406394D01*
X143449093Y-93401837D01*
X143424865Y-93339535D01*
X143356056Y-93162590D01*
X143356055Y-93162587D01*
X143354363Y-93158237D01*
X143224667Y-92931316D01*
X143062854Y-92726057D01*
X142872479Y-92546971D01*
X142707311Y-92432389D01*
X142661567Y-92400655D01*
X142661564Y-92400653D01*
X142657725Y-92397990D01*
X142624319Y-92381516D01*
X142427497Y-92284454D01*
X142427494Y-92284453D01*
X142423309Y-92282389D01*
X142174381Y-92202707D01*
X141916409Y-92160693D01*
X141802658Y-92159204D01*
X141659738Y-92157333D01*
X141659735Y-92157333D01*
X141655061Y-92157272D01*
X141396078Y-92192518D01*
X141378807Y-92197552D01*
X141307811Y-92197411D01*
X141248161Y-92158909D01*
X141218796Y-92094270D01*
X141229040Y-92024016D01*
X141254454Y-91987491D01*
X141728829Y-91513116D01*
X141791141Y-91479090D01*
X141817924Y-91476211D01*
X160930446Y-91476211D01*
X160944053Y-91476948D01*
X160975551Y-91480370D01*
X160975556Y-91480370D01*
X160981677Y-91481035D01*
X161007927Y-91478738D01*
X161031677Y-91476661D01*
X161036503Y-91476332D01*
X161038975Y-91476211D01*
X161042058Y-91476211D01*
X161054027Y-91475037D01*
X161084795Y-91472021D01*
X161086108Y-91471899D01*
X161130373Y-91468026D01*
X161178702Y-91463798D01*
X161183821Y-91462311D01*
X161189122Y-91461791D01*
X161278123Y-91434920D01*
X161279256Y-91434585D01*
X161362703Y-91410341D01*
X161362707Y-91410339D01*
X161368625Y-91408620D01*
X161373357Y-91406167D01*
X161378458Y-91404627D01*
X161383901Y-91401733D01*
X161460549Y-91360980D01*
X161461715Y-91360368D01*
X161538742Y-91320440D01*
X161544215Y-91317603D01*
X161548378Y-91314280D01*
X161553085Y-91311777D01*
X161625207Y-91252956D01*
X161626063Y-91252265D01*
X161665262Y-91220973D01*
X161667766Y-91218469D01*
X161668484Y-91217827D01*
X161672817Y-91214126D01*
X161706351Y-91186776D01*
X161735577Y-91151448D01*
X161743566Y-91142669D01*
X163536229Y-89350005D01*
X163598541Y-89315980D01*
X163625324Y-89313100D01*
X165103534Y-89313100D01*
X165165716Y-89306345D01*
X165302105Y-89255215D01*
X165418661Y-89167861D01*
X165506015Y-89051305D01*
X165557145Y-88914916D01*
X165563900Y-88852734D01*
X165563900Y-86356466D01*
X165557145Y-86294284D01*
X165506015Y-86157895D01*
X165418661Y-86041339D01*
X165302105Y-85953985D01*
X165165716Y-85902855D01*
X165103534Y-85896100D01*
X165091500Y-85896100D01*
X165023379Y-85876098D01*
X164976886Y-85822442D01*
X164965500Y-85770100D01*
X164965500Y-85358843D01*
X164966237Y-85345236D01*
X164969659Y-85313738D01*
X164969659Y-85313733D01*
X164970324Y-85307612D01*
X164965950Y-85257612D01*
X164965621Y-85252786D01*
X164965500Y-85250314D01*
X164965500Y-85247231D01*
X164964326Y-85235262D01*
X164961310Y-85204494D01*
X164961188Y-85203181D01*
X164953623Y-85116718D01*
X164953087Y-85110587D01*
X164951600Y-85105468D01*
X164951080Y-85100167D01*
X164924209Y-85011166D01*
X164923874Y-85010033D01*
X164899630Y-84926586D01*
X164899628Y-84926582D01*
X164897909Y-84920664D01*
X164895456Y-84915932D01*
X164893916Y-84910831D01*
X164884297Y-84892739D01*
X164850269Y-84828740D01*
X164849657Y-84827574D01*
X164809729Y-84750547D01*
X164806892Y-84745074D01*
X164803569Y-84740911D01*
X164801066Y-84736204D01*
X164742245Y-84664082D01*
X164741554Y-84663226D01*
X164710262Y-84624027D01*
X164707758Y-84621523D01*
X164707116Y-84620805D01*
X164703415Y-84616472D01*
X164676065Y-84582938D01*
X164640737Y-84553712D01*
X164631958Y-84545723D01*
X162994420Y-82908185D01*
X161275118Y-81188884D01*
X161241092Y-81126572D01*
X161238692Y-81110770D01*
X161234022Y-81057392D01*
X161233543Y-81051913D01*
X161174284Y-80830757D01*
X161171961Y-80825775D01*
X161079849Y-80628238D01*
X161079846Y-80628233D01*
X161077523Y-80623251D01*
X160946198Y-80435700D01*
X160784300Y-80273802D01*
X160779792Y-80270645D01*
X160779789Y-80270643D01*
X160701611Y-80215902D01*
X160596749Y-80142477D01*
X160591767Y-80140154D01*
X160591762Y-80140151D01*
X160394225Y-80048039D01*
X160394224Y-80048039D01*
X160389243Y-80045716D01*
X160383935Y-80044294D01*
X160383933Y-80044293D01*
X160173402Y-79987881D01*
X160173400Y-79987881D01*
X160168087Y-79986457D01*
X159940000Y-79966502D01*
X159711913Y-79986457D01*
X159706600Y-79987881D01*
X159706598Y-79987881D01*
X159496067Y-80044293D01*
X159496065Y-80044294D01*
X159490757Y-80045716D01*
X159485776Y-80048039D01*
X159485775Y-80048039D01*
X159288238Y-80140151D01*
X159288233Y-80140154D01*
X159283251Y-80142477D01*
X159178389Y-80215902D01*
X159100211Y-80270643D01*
X159100208Y-80270645D01*
X159095700Y-80273802D01*
X158933802Y-80435700D01*
X158802477Y-80623251D01*
X158800154Y-80628233D01*
X158800151Y-80628238D01*
X158708039Y-80825775D01*
X158705716Y-80830757D01*
X158646457Y-81051913D01*
X158626502Y-81280000D01*
X158646457Y-81508087D01*
X158705716Y-81729243D01*
X158708039Y-81734224D01*
X158708039Y-81734225D01*
X158800151Y-81931762D01*
X158800154Y-81931767D01*
X158802477Y-81936749D01*
X158933802Y-82124300D01*
X159095700Y-82286198D01*
X159100208Y-82289355D01*
X159100211Y-82289357D01*
X159178389Y-82344098D01*
X159283251Y-82417523D01*
X159288233Y-82419846D01*
X159288238Y-82419849D01*
X159485775Y-82511961D01*
X159490757Y-82514284D01*
X159496065Y-82515706D01*
X159496067Y-82515707D01*
X159539829Y-82527433D01*
X159711913Y-82573543D01*
X159770769Y-82578692D01*
X159836887Y-82604555D01*
X159848883Y-82615118D01*
X162911595Y-85677829D01*
X162945621Y-85740141D01*
X162948500Y-85766924D01*
X162948500Y-85770100D01*
X162928498Y-85838221D01*
X162874842Y-85884714D01*
X162822500Y-85896100D01*
X162607266Y-85896100D01*
X162545084Y-85902855D01*
X162408695Y-85953985D01*
X162292139Y-86041339D01*
X162204785Y-86157895D01*
X162153655Y-86294284D01*
X162146900Y-86356466D01*
X162146900Y-87834676D01*
X162126898Y-87902797D01*
X162109995Y-87923771D01*
X160611460Y-89422306D01*
X160549148Y-89456332D01*
X160522365Y-89459211D01*
X151778202Y-89459211D01*
X151710081Y-89439209D01*
X151663588Y-89385553D01*
X151653484Y-89315279D01*
X151682978Y-89250699D01*
X151728464Y-89217443D01*
X151941984Y-89125707D01*
X151950256Y-89121400D01*
X152158177Y-88992735D01*
X152165717Y-88987257D01*
X152352343Y-88829268D01*
X152358993Y-88822732D01*
X152520213Y-88638895D01*
X152525820Y-88631454D01*
X152658100Y-88425802D01*
X152662547Y-88417611D01*
X152762972Y-88194676D01*
X152766167Y-88185898D01*
X152832535Y-87950573D01*
X152834393Y-87941444D01*
X152842646Y-87876569D01*
X152840358Y-87862308D01*
X152827338Y-87858600D01*
X149482496Y-87858600D01*
X149470095Y-87862241D01*
X149468252Y-87878060D01*
X149503993Y-88057743D01*
X149506482Y-88066718D01*
X149589108Y-88296850D01*
X149592905Y-88305378D01*
X149708634Y-88520760D01*
X149713645Y-88528627D01*
X149859950Y-88724553D01*
X149866056Y-88731577D01*
X150039716Y-88903727D01*
X150046798Y-88909776D01*
X150243986Y-89054360D01*
X150251905Y-89059308D01*
X150468277Y-89173147D01*
X150476851Y-89176875D01*
X150583894Y-89214256D01*
X150641612Y-89255598D01*
X150667815Y-89321582D01*
X150654186Y-89391258D01*
X150605050Y-89442505D01*
X150542353Y-89459211D01*
X141409850Y-89459211D01*
X141396242Y-89458474D01*
X141395662Y-89458411D01*
X141358612Y-89454386D01*
X141308570Y-89458764D01*
X141303788Y-89459090D01*
X141301310Y-89459211D01*
X141298231Y-89459211D01*
X141295177Y-89459510D01*
X141295166Y-89459511D01*
X141255529Y-89463398D01*
X141254215Y-89463520D01*
X141218688Y-89466628D01*
X141161587Y-89471624D01*
X141156468Y-89473111D01*
X141151167Y-89473631D01*
X141062166Y-89500502D01*
X141061033Y-89500837D01*
X140977586Y-89525081D01*
X140977582Y-89525083D01*
X140971664Y-89526802D01*
X140966932Y-89529255D01*
X140961831Y-89530795D01*
X140956388Y-89533689D01*
X140879740Y-89574442D01*
X140878574Y-89575054D01*
X140801547Y-89614982D01*
X140796074Y-89617819D01*
X140791911Y-89621142D01*
X140787204Y-89623645D01*
X140782429Y-89627539D01*
X140782428Y-89627540D01*
X140715102Y-89682450D01*
X140714075Y-89683278D01*
X140677792Y-89712242D01*
X140677787Y-89712247D01*
X140675028Y-89714449D01*
X140672527Y-89716950D01*
X140671809Y-89717592D01*
X140667461Y-89721305D01*
X140633938Y-89748646D01*
X140630015Y-89753388D01*
X140630013Y-89753390D01*
X140604703Y-89783984D01*
X140596713Y-89792764D01*
X135093621Y-95295856D01*
X135083478Y-95304958D01*
X135053975Y-95328679D01*
X135050008Y-95333407D01*
X135021709Y-95367132D01*
X135018528Y-95370780D01*
X135016885Y-95372592D01*
X135014691Y-95374786D01*
X134987358Y-95408060D01*
X134986696Y-95408858D01*
X134926846Y-95480185D01*
X134924278Y-95484855D01*
X134920897Y-95488972D01*
X134897610Y-95532403D01*
X134877023Y-95570797D01*
X134876394Y-95571956D01*
X134834538Y-95648092D01*
X134834535Y-95648100D01*
X134831567Y-95653498D01*
X134829955Y-95658580D01*
X134827438Y-95663274D01*
X134800238Y-95752242D01*
X134799918Y-95753270D01*
X134771765Y-95842017D01*
X134771171Y-95847313D01*
X134769613Y-95852409D01*
X134768990Y-95858545D01*
X134760218Y-95944898D01*
X134760089Y-95946104D01*
X134754500Y-95995938D01*
X134754500Y-95999465D01*
X134754445Y-96000450D01*
X134753998Y-96006130D01*
X134749626Y-96049173D01*
X134750206Y-96055304D01*
X134753941Y-96094820D01*
X134754500Y-96106678D01*
X134754500Y-117097581D01*
X134734498Y-117165702D01*
X134719594Y-117184632D01*
X134703629Y-117201338D01*
X134596204Y-117358818D01*
X134595898Y-117359266D01*
X134540987Y-117404269D01*
X134470462Y-117412440D01*
X134406715Y-117381186D01*
X134386017Y-117356701D01*
X134356062Y-117310397D01*
X134345377Y-117301195D01*
X134335812Y-117305598D01*
X133595022Y-118046388D01*
X133587408Y-118060332D01*
X133587539Y-118062165D01*
X133591790Y-118068780D01*
X134333474Y-118810464D01*
X134345484Y-118817023D01*
X134357223Y-118808055D01*
X134391022Y-118761019D01*
X134392277Y-118761921D01*
X134439391Y-118718555D01*
X134509330Y-118706348D01*
X134574767Y-118733891D01*
X134602580Y-118765713D01*
X134660287Y-118859883D01*
X134660291Y-118859888D01*
X134662987Y-118864288D01*
X134809250Y-119033138D01*
X134981126Y-119175832D01*
X135174000Y-119288538D01*
X135178825Y-119290380D01*
X135178826Y-119290381D01*
X135214863Y-119304142D01*
X135382692Y-119368230D01*
X135387760Y-119369261D01*
X135387763Y-119369262D01*
X135482720Y-119388581D01*
X135601597Y-119412767D01*
X135606772Y-119412957D01*
X135606774Y-119412957D01*
X135819673Y-119420764D01*
X135819677Y-119420764D01*
X135824837Y-119420953D01*
X135829957Y-119420297D01*
X135829959Y-119420297D01*
X136041288Y-119393225D01*
X136041289Y-119393225D01*
X136046416Y-119392568D01*
X136051376Y-119391080D01*
X136255429Y-119329861D01*
X136255434Y-119329859D01*
X136260384Y-119328374D01*
X136460994Y-119230096D01*
X136642860Y-119100373D01*
X136801096Y-118942689D01*
X136931453Y-118761277D01*
X136932776Y-118762228D01*
X136979645Y-118719057D01*
X137049580Y-118706825D01*
X137115026Y-118734344D01*
X137142875Y-118766194D01*
X137202987Y-118864288D01*
X137349250Y-119033138D01*
X137521126Y-119175832D01*
X137714000Y-119288538D01*
X137718825Y-119290380D01*
X137718826Y-119290381D01*
X137754863Y-119304142D01*
X137922692Y-119368230D01*
X138020014Y-119388030D01*
X138082777Y-119421211D01*
X138117639Y-119483059D01*
X138113530Y-119553936D01*
X138071753Y-119611341D01*
X138005574Y-119637046D01*
X137994891Y-119637500D01*
X137733215Y-119637500D01*
X137714265Y-119636067D01*
X137700030Y-119633901D01*
X137700026Y-119633901D01*
X137692796Y-119632801D01*
X137685504Y-119633394D01*
X137685501Y-119633394D01*
X137640127Y-119637085D01*
X137629912Y-119637500D01*
X137621852Y-119637500D01*
X137618218Y-119637924D01*
X137618212Y-119637924D01*
X137605187Y-119639443D01*
X137593625Y-119640791D01*
X137589277Y-119641221D01*
X137567204Y-119643016D01*
X137523807Y-119646546D01*
X137523804Y-119646547D01*
X137516509Y-119647140D01*
X137509545Y-119649396D01*
X137503606Y-119650583D01*
X137497735Y-119651970D01*
X137490464Y-119652818D01*
X137483588Y-119655314D01*
X137483579Y-119655316D01*
X137421847Y-119677725D01*
X137417743Y-119679135D01*
X137348246Y-119701648D01*
X137341991Y-119705444D01*
X137336532Y-119707943D01*
X137331084Y-119710671D01*
X137324208Y-119713167D01*
X137263155Y-119753195D01*
X137259472Y-119755519D01*
X137201831Y-119790496D01*
X137201827Y-119790499D01*
X137197038Y-119793405D01*
X137192839Y-119797114D01*
X137192834Y-119797117D01*
X137188661Y-119800803D01*
X137188637Y-119800776D01*
X137185645Y-119803429D01*
X137182412Y-119806132D01*
X137176293Y-119810144D01*
X137154500Y-119833149D01*
X137123017Y-119866383D01*
X137120639Y-119868825D01*
X136027089Y-120962375D01*
X136012677Y-120974761D01*
X136001082Y-120983294D01*
X136001077Y-120983299D01*
X135995182Y-120987637D01*
X135990443Y-120993215D01*
X135990440Y-120993218D01*
X135960965Y-121027913D01*
X135954035Y-121035429D01*
X135948340Y-121041124D01*
X135946060Y-121044006D01*
X135930719Y-121063396D01*
X135927928Y-121066800D01*
X135887594Y-121114276D01*
X135880667Y-121122430D01*
X135877339Y-121128946D01*
X135873972Y-121133995D01*
X135870805Y-121139124D01*
X135866266Y-121144861D01*
X135835345Y-121211020D01*
X135833442Y-121214914D01*
X135800231Y-121279953D01*
X135798492Y-121287061D01*
X135796393Y-121292704D01*
X135794476Y-121298467D01*
X135791378Y-121305095D01*
X135789888Y-121312257D01*
X135789888Y-121312258D01*
X135776514Y-121376557D01*
X135775544Y-121380841D01*
X135758192Y-121451755D01*
X135757500Y-121462909D01*
X135757464Y-121462907D01*
X135757225Y-121466900D01*
X135756851Y-121471092D01*
X135755360Y-121478260D01*
X135755558Y-121485577D01*
X135757454Y-121555666D01*
X135757500Y-121559073D01*
X135757500Y-121945029D01*
X135737498Y-122013150D01*
X135720595Y-122034124D01*
X135692453Y-122062266D01*
X135630141Y-122096292D01*
X135592377Y-122098692D01*
X135446475Y-122085928D01*
X135441000Y-122085449D01*
X135215092Y-122105213D01*
X134996049Y-122163906D01*
X134906282Y-122205765D01*
X134795512Y-122257417D01*
X134795507Y-122257420D01*
X134790525Y-122259743D01*
X134686620Y-122332498D01*
X134609276Y-122386655D01*
X134609273Y-122386657D01*
X134604765Y-122389814D01*
X134444414Y-122550165D01*
X134314343Y-122735925D01*
X134312020Y-122740907D01*
X134312017Y-122740912D01*
X134263352Y-122845276D01*
X134218506Y-122941449D01*
X134159813Y-123160492D01*
X134140049Y-123386400D01*
X134159813Y-123612308D01*
X134218506Y-123831351D01*
X134220831Y-123836336D01*
X134312017Y-124031888D01*
X134312020Y-124031893D01*
X134314343Y-124036875D01*
X134444414Y-124222635D01*
X134604765Y-124382986D01*
X134609274Y-124386143D01*
X134609276Y-124386145D01*
X134786020Y-124509904D01*
X134786026Y-124509908D01*
X134790524Y-124513057D01*
X134996049Y-124608894D01*
X135001353Y-124610315D01*
X135001358Y-124610317D01*
X135150740Y-124650344D01*
X135215092Y-124667587D01*
X135441000Y-124687351D01*
X135666908Y-124667587D01*
X135731260Y-124650344D01*
X135880642Y-124610317D01*
X135880647Y-124610315D01*
X135885951Y-124608894D01*
X136091476Y-124513057D01*
X136095974Y-124509908D01*
X136095980Y-124509904D01*
X136272724Y-124386145D01*
X136272726Y-124386143D01*
X136277235Y-124382986D01*
X136437586Y-124222635D01*
X136567657Y-124036875D01*
X136569980Y-124031893D01*
X136569983Y-124031888D01*
X136661169Y-123836336D01*
X136663494Y-123831351D01*
X136722187Y-123612308D01*
X136741951Y-123386400D01*
X136738339Y-123345116D01*
X136752328Y-123275512D01*
X136801727Y-123224520D01*
X136870853Y-123208329D01*
X136937759Y-123232081D01*
X136944345Y-123237191D01*
X137074343Y-123345117D01*
X137087183Y-123355777D01*
X137297804Y-123478853D01*
X137525698Y-123565878D01*
X137530764Y-123566909D01*
X137530765Y-123566909D01*
X137759667Y-123613480D01*
X137759671Y-123613480D01*
X137764746Y-123614513D01*
X137769922Y-123614703D01*
X137769924Y-123614703D01*
X138003363Y-123623263D01*
X138003367Y-123623263D01*
X138008527Y-123623452D01*
X138013647Y-123622796D01*
X138013649Y-123622796D01*
X138095519Y-123612308D01*
X138250494Y-123592455D01*
X138255443Y-123590970D01*
X138255449Y-123590969D01*
X138479200Y-123523840D01*
X138479199Y-123523840D01*
X138484150Y-123522355D01*
X138703219Y-123415034D01*
X138707424Y-123412034D01*
X138707430Y-123412031D01*
X138897614Y-123276374D01*
X138897616Y-123276372D01*
X138901818Y-123273375D01*
X139074614Y-123101181D01*
X139216966Y-122903077D01*
X139297113Y-122740912D01*
X139322756Y-122689026D01*
X139322757Y-122689024D01*
X139325050Y-122684384D01*
X139364459Y-122554676D01*
X139394462Y-122455927D01*
X139394463Y-122455921D01*
X139395966Y-122450975D01*
X139427807Y-122209117D01*
X139429584Y-122136400D01*
X139409596Y-121893276D01*
X139350167Y-121656680D01*
X139252894Y-121432968D01*
X139198534Y-121348940D01*
X139178327Y-121280880D01*
X139198123Y-121212699D01*
X139251639Y-121166045D01*
X139304326Y-121154500D01*
X158759130Y-121154500D01*
X158778080Y-121155933D01*
X158792315Y-121158099D01*
X158792319Y-121158099D01*
X158799549Y-121159199D01*
X158806841Y-121158606D01*
X158806844Y-121158606D01*
X158852218Y-121154915D01*
X158862433Y-121154500D01*
X158870493Y-121154500D01*
X158883783Y-121152951D01*
X158898707Y-121151211D01*
X158903082Y-121150778D01*
X158968539Y-121145454D01*
X158968542Y-121145453D01*
X158975837Y-121144860D01*
X158982801Y-121142604D01*
X158988760Y-121141413D01*
X158994615Y-121140029D01*
X159001881Y-121139182D01*
X159070527Y-121114265D01*
X159074655Y-121112848D01*
X159137136Y-121092607D01*
X159137138Y-121092606D01*
X159144099Y-121090351D01*
X159150354Y-121086555D01*
X159155828Y-121084049D01*
X159161258Y-121081330D01*
X159168137Y-121078833D01*
X159221257Y-121044006D01*
X159229176Y-121038814D01*
X159232880Y-121036477D01*
X159295307Y-120998595D01*
X159303684Y-120991197D01*
X159303708Y-120991224D01*
X159306700Y-120988571D01*
X159309933Y-120985868D01*
X159316052Y-120981856D01*
X159369328Y-120925617D01*
X159371706Y-120923175D01*
X160854441Y-119440440D01*
X160916753Y-119406414D01*
X160968657Y-119406065D01*
X161001597Y-119412767D01*
X161006772Y-119412957D01*
X161006774Y-119412957D01*
X161219673Y-119420764D01*
X161219677Y-119420764D01*
X161224837Y-119420953D01*
X161229957Y-119420297D01*
X161229959Y-119420297D01*
X161441288Y-119393225D01*
X161441289Y-119393225D01*
X161446416Y-119392568D01*
X161451376Y-119391080D01*
X161655429Y-119329861D01*
X161655434Y-119329859D01*
X161660384Y-119328374D01*
X161860994Y-119230096D01*
X162042860Y-119100373D01*
X162201096Y-118942689D01*
X162331453Y-118761277D01*
X162332776Y-118762228D01*
X162379645Y-118719057D01*
X162449580Y-118706825D01*
X162515026Y-118734344D01*
X162542875Y-118766194D01*
X162602987Y-118864288D01*
X162749250Y-119033138D01*
X162921126Y-119175832D01*
X163114000Y-119288538D01*
X163118825Y-119290380D01*
X163118826Y-119290381D01*
X163154863Y-119304142D01*
X163322692Y-119368230D01*
X163327760Y-119369261D01*
X163327763Y-119369262D01*
X163422720Y-119388581D01*
X163541597Y-119412767D01*
X163546772Y-119412957D01*
X163546774Y-119412957D01*
X163759673Y-119420764D01*
X163759677Y-119420764D01*
X163764837Y-119420953D01*
X163769957Y-119420297D01*
X163769959Y-119420297D01*
X163981288Y-119393225D01*
X163981289Y-119393225D01*
X163986416Y-119392568D01*
X163991376Y-119391080D01*
X164195429Y-119329861D01*
X164195434Y-119329859D01*
X164200384Y-119328374D01*
X164400994Y-119230096D01*
X164582860Y-119100373D01*
X164741096Y-118942689D01*
X164871453Y-118761277D01*
X164872776Y-118762228D01*
X164919645Y-118719057D01*
X164989580Y-118706825D01*
X165055026Y-118734344D01*
X165082875Y-118766194D01*
X165142987Y-118864288D01*
X165289250Y-119033138D01*
X165461126Y-119175832D01*
X165654000Y-119288538D01*
X165658825Y-119290380D01*
X165658826Y-119290381D01*
X165694863Y-119304142D01*
X165862692Y-119368230D01*
X165867760Y-119369261D01*
X165867763Y-119369262D01*
X165962720Y-119388581D01*
X166081597Y-119412767D01*
X166086772Y-119412957D01*
X166086774Y-119412957D01*
X166299673Y-119420764D01*
X166299677Y-119420764D01*
X166304837Y-119420953D01*
X166309957Y-119420297D01*
X166309959Y-119420297D01*
X166418331Y-119406414D01*
X166526416Y-119392568D01*
X166572826Y-119378644D01*
X166643821Y-119378226D01*
X166698129Y-119410234D01*
X166747595Y-119459700D01*
X166781621Y-119522012D01*
X166784500Y-119548795D01*
X166784500Y-131871430D01*
X166764498Y-131939551D01*
X166710842Y-131986044D01*
X166640568Y-131996148D01*
X166616439Y-131990202D01*
X166596094Y-131982997D01*
X166596085Y-131982995D01*
X166591212Y-131981269D01*
X166586119Y-131980362D01*
X166586116Y-131980361D01*
X166376373Y-131943000D01*
X166376367Y-131942999D01*
X166371284Y-131942094D01*
X166297452Y-131941192D01*
X166153081Y-131939428D01*
X166153079Y-131939428D01*
X166147911Y-131939365D01*
X165927091Y-131973155D01*
X165832810Y-132003971D01*
X165719675Y-132040949D01*
X165719673Y-132040950D01*
X165714756Y-132042557D01*
X165710161Y-132044949D01*
X165622890Y-132090379D01*
X165553231Y-132104092D01*
X165487216Y-132077967D01*
X165475615Y-132067711D01*
X165463221Y-132055317D01*
X165450380Y-132040283D01*
X165443131Y-132030306D01*
X165438472Y-132023893D01*
X165404395Y-131995702D01*
X165395616Y-131987712D01*
X160170817Y-126762912D01*
X160163277Y-126754626D01*
X160159165Y-126748147D01*
X160109513Y-126701521D01*
X160106672Y-126698767D01*
X160086935Y-126679030D01*
X160083738Y-126676550D01*
X160074716Y-126668845D01*
X160042486Y-126638579D01*
X160035540Y-126634760D01*
X160035537Y-126634758D01*
X160024731Y-126628817D01*
X160008212Y-126617966D01*
X160007748Y-126617606D01*
X159992206Y-126605551D01*
X159984937Y-126602406D01*
X159984933Y-126602403D01*
X159951628Y-126587991D01*
X159940978Y-126582774D01*
X159902225Y-126561470D01*
X159882602Y-126556432D01*
X159863899Y-126550028D01*
X159852585Y-126545132D01*
X159852584Y-126545132D01*
X159845310Y-126541984D01*
X159837487Y-126540745D01*
X159837477Y-126540742D01*
X159801641Y-126535066D01*
X159790021Y-126532660D01*
X159754876Y-126523637D01*
X159754875Y-126523637D01*
X159747195Y-126521665D01*
X159726941Y-126521665D01*
X159707230Y-126520114D01*
X159704699Y-126519713D01*
X159687222Y-126516945D01*
X159679330Y-126517691D01*
X159643204Y-126521106D01*
X159631346Y-126521665D01*
X136250998Y-126521665D01*
X136239814Y-126521138D01*
X136232326Y-126519464D01*
X136224403Y-126519713D01*
X136164268Y-126521603D01*
X136160310Y-126521665D01*
X136132379Y-126521665D01*
X136128464Y-126522160D01*
X136128460Y-126522160D01*
X136128402Y-126522168D01*
X136128373Y-126522171D01*
X136116531Y-126523104D01*
X136072345Y-126524492D01*
X136054979Y-126529537D01*
X136052893Y-126530143D01*
X136033541Y-126534151D01*
X136021303Y-126535697D01*
X136021301Y-126535698D01*
X136013438Y-126536691D01*
X135972321Y-126552971D01*
X135961120Y-126556806D01*
X135918641Y-126569147D01*
X135911822Y-126573180D01*
X135911817Y-126573182D01*
X135901206Y-126579458D01*
X135883456Y-126588155D01*
X135864618Y-126595613D01*
X135850318Y-126606003D01*
X135783453Y-126629862D01*
X135743648Y-126625775D01*
X135666908Y-126605213D01*
X135441000Y-126585449D01*
X135215092Y-126605213D01*
X134996049Y-126663906D01*
X134921289Y-126698767D01*
X134795512Y-126757417D01*
X134795507Y-126757420D01*
X134790525Y-126759743D01*
X134686620Y-126832498D01*
X134609276Y-126886655D01*
X134609273Y-126886657D01*
X134604765Y-126889814D01*
X134444414Y-127050165D01*
X134314343Y-127235925D01*
X134312020Y-127240907D01*
X134312017Y-127240912D01*
X134263352Y-127345276D01*
X134218506Y-127441449D01*
X134159813Y-127660492D01*
X134140049Y-127886400D01*
X134159813Y-128112308D01*
X134218506Y-128331351D01*
X134263352Y-128427524D01*
X134312017Y-128531888D01*
X134312020Y-128531893D01*
X134314343Y-128536875D01*
X134444414Y-128722635D01*
X134604765Y-128882986D01*
X134609274Y-128886143D01*
X134609276Y-128886145D01*
X134786020Y-129009904D01*
X134786026Y-129009908D01*
X134790524Y-129013057D01*
X134996049Y-129108894D01*
X135001353Y-129110315D01*
X135001358Y-129110317D01*
X135111260Y-129139765D01*
X135215092Y-129167587D01*
X135441000Y-129187351D01*
X135666908Y-129167587D01*
X135770740Y-129139765D01*
X135880642Y-129110317D01*
X135880647Y-129110315D01*
X135885951Y-129108894D01*
X136091476Y-129013057D01*
X136198912Y-128937829D01*
X136265131Y-128891462D01*
X136332405Y-128868774D01*
X136401265Y-128886059D01*
X136449850Y-128937829D01*
X136462688Y-129008065D01*
X136453409Y-129094888D01*
X136453409Y-129094896D01*
X136452860Y-129100031D01*
X136453157Y-129105183D01*
X136453157Y-129105187D01*
X136464558Y-129302899D01*
X136466903Y-129343571D01*
X136468040Y-129348617D01*
X136468041Y-129348623D01*
X136491107Y-129450975D01*
X136520533Y-129581547D01*
X136522475Y-129586329D01*
X136522476Y-129586333D01*
X136610367Y-129802782D01*
X136612311Y-129807569D01*
X136739772Y-130015566D01*
X136899492Y-130199953D01*
X137087183Y-130355777D01*
X137297804Y-130478853D01*
X137525698Y-130565878D01*
X137530764Y-130566909D01*
X137530765Y-130566909D01*
X137759667Y-130613480D01*
X137759671Y-130613480D01*
X137764746Y-130614513D01*
X137769922Y-130614703D01*
X137769924Y-130614703D01*
X138003363Y-130623263D01*
X138003367Y-130623263D01*
X138008527Y-130623452D01*
X138013647Y-130622796D01*
X138013649Y-130622796D01*
X138090377Y-130612967D01*
X138250494Y-130592455D01*
X138255443Y-130590970D01*
X138255449Y-130590969D01*
X138479200Y-130523840D01*
X138479199Y-130523840D01*
X138484150Y-130522355D01*
X138703219Y-130415034D01*
X138707424Y-130412034D01*
X138707430Y-130412031D01*
X138897614Y-130276374D01*
X138897616Y-130276372D01*
X138901818Y-130273375D01*
X139074614Y-130101181D01*
X139216966Y-129903077D01*
X139325050Y-129684384D01*
X139357827Y-129576505D01*
X139394462Y-129455927D01*
X139394463Y-129455921D01*
X139395966Y-129450975D01*
X139427807Y-129209117D01*
X139429584Y-129136400D01*
X139409596Y-128893276D01*
X139350167Y-128656680D01*
X139252894Y-128432968D01*
X139120390Y-128228148D01*
X139019816Y-128117618D01*
X138959690Y-128051541D01*
X138959688Y-128051540D01*
X138956212Y-128047719D01*
X138952161Y-128044520D01*
X138952157Y-128044516D01*
X138912943Y-128013547D01*
X138871880Y-127955630D01*
X138868648Y-127884707D01*
X138904274Y-127823295D01*
X138967445Y-127790893D01*
X138991035Y-127788665D01*
X159352571Y-127788665D01*
X159420692Y-127808667D01*
X159441666Y-127825570D01*
X163394345Y-131778250D01*
X163428371Y-131840562D01*
X163423306Y-131911378D01*
X163380759Y-131968213D01*
X163344396Y-131987110D01*
X163174756Y-132042557D01*
X163144443Y-132058337D01*
X162984130Y-132141791D01*
X162976607Y-132145707D01*
X162972474Y-132148810D01*
X162972471Y-132148812D01*
X162802100Y-132276730D01*
X162797965Y-132279835D01*
X162794393Y-132283573D01*
X162686729Y-132396237D01*
X162643629Y-132441338D01*
X162536201Y-132598821D01*
X162481293Y-132643821D01*
X162410768Y-132651992D01*
X162347021Y-132620738D01*
X162326324Y-132596254D01*
X162245822Y-132471817D01*
X162245820Y-132471814D01*
X162243014Y-132467477D01*
X162092670Y-132302251D01*
X162088619Y-132299052D01*
X162088615Y-132299048D01*
X161921414Y-132167000D01*
X161921410Y-132166998D01*
X161917359Y-132163798D01*
X161891533Y-132149541D01*
X161824990Y-132112808D01*
X161721789Y-132055838D01*
X161716920Y-132054114D01*
X161716916Y-132054112D01*
X161516087Y-131982995D01*
X161516083Y-131982994D01*
X161511212Y-131981269D01*
X161506119Y-131980362D01*
X161506116Y-131980361D01*
X161296373Y-131943000D01*
X161296367Y-131942999D01*
X161291284Y-131942094D01*
X161217452Y-131941192D01*
X161073081Y-131939428D01*
X161073079Y-131939428D01*
X161067911Y-131939365D01*
X160847091Y-131973155D01*
X160634756Y-132042557D01*
X160604443Y-132058337D01*
X160444130Y-132141791D01*
X160436607Y-132145707D01*
X160432474Y-132148810D01*
X160432471Y-132148812D01*
X160262100Y-132276730D01*
X160257965Y-132279835D01*
X160254393Y-132283573D01*
X160146729Y-132396237D01*
X160103629Y-132441338D01*
X159996201Y-132598821D01*
X159941293Y-132643821D01*
X159870768Y-132651992D01*
X159807021Y-132620738D01*
X159786324Y-132596254D01*
X159705822Y-132471817D01*
X159705820Y-132471814D01*
X159703014Y-132467477D01*
X159552670Y-132302251D01*
X159548619Y-132299052D01*
X159548615Y-132299048D01*
X159381414Y-132167000D01*
X159381410Y-132166998D01*
X159377359Y-132163798D01*
X159351533Y-132149541D01*
X159284990Y-132112808D01*
X159181789Y-132055838D01*
X159176920Y-132054114D01*
X159176916Y-132054112D01*
X158976087Y-131982995D01*
X158976083Y-131982994D01*
X158971212Y-131981269D01*
X158966119Y-131980362D01*
X158966116Y-131980361D01*
X158756373Y-131943000D01*
X158756367Y-131942999D01*
X158751284Y-131942094D01*
X158677452Y-131941192D01*
X158533081Y-131939428D01*
X158533079Y-131939428D01*
X158527911Y-131939365D01*
X158307091Y-131973155D01*
X158094756Y-132042557D01*
X158064443Y-132058337D01*
X157904130Y-132141791D01*
X157896607Y-132145707D01*
X157892474Y-132148810D01*
X157892471Y-132148812D01*
X157722100Y-132276730D01*
X157717965Y-132279835D01*
X157714393Y-132283573D01*
X157606729Y-132396237D01*
X157563629Y-132441338D01*
X157456201Y-132598821D01*
X157401293Y-132643821D01*
X157330768Y-132651992D01*
X157267021Y-132620738D01*
X157246324Y-132596254D01*
X157165822Y-132471817D01*
X157165820Y-132471814D01*
X157163014Y-132467477D01*
X157012670Y-132302251D01*
X157008619Y-132299052D01*
X157008615Y-132299048D01*
X156841414Y-132167000D01*
X156841410Y-132166998D01*
X156837359Y-132163798D01*
X156811533Y-132149541D01*
X156744990Y-132112808D01*
X156641789Y-132055838D01*
X156636920Y-132054114D01*
X156636916Y-132054112D01*
X156436087Y-131982995D01*
X156436083Y-131982994D01*
X156431212Y-131981269D01*
X156426119Y-131980362D01*
X156426116Y-131980361D01*
X156216373Y-131943000D01*
X156216367Y-131942999D01*
X156211284Y-131942094D01*
X156137452Y-131941192D01*
X155993081Y-131939428D01*
X155993079Y-131939428D01*
X155987911Y-131939365D01*
X155767091Y-131973155D01*
X155554756Y-132042557D01*
X155524443Y-132058337D01*
X155364130Y-132141791D01*
X155356607Y-132145707D01*
X155352474Y-132148810D01*
X155352471Y-132148812D01*
X155182100Y-132276730D01*
X155177965Y-132279835D01*
X155174393Y-132283573D01*
X155066729Y-132396237D01*
X155023629Y-132441338D01*
X154916201Y-132598821D01*
X154861293Y-132643821D01*
X154790768Y-132651992D01*
X154727021Y-132620738D01*
X154706324Y-132596254D01*
X154625822Y-132471817D01*
X154625820Y-132471814D01*
X154623014Y-132467477D01*
X154472670Y-132302251D01*
X154468619Y-132299052D01*
X154468615Y-132299048D01*
X154301414Y-132167000D01*
X154301410Y-132166998D01*
X154297359Y-132163798D01*
X154271533Y-132149541D01*
X154204990Y-132112808D01*
X154101789Y-132055838D01*
X154096920Y-132054114D01*
X154096916Y-132054112D01*
X153896087Y-131982995D01*
X153896083Y-131982994D01*
X153891212Y-131981269D01*
X153886119Y-131980362D01*
X153886116Y-131980361D01*
X153676373Y-131943000D01*
X153676367Y-131942999D01*
X153671284Y-131942094D01*
X153597452Y-131941192D01*
X153453081Y-131939428D01*
X153453079Y-131939428D01*
X153447911Y-131939365D01*
X153227091Y-131973155D01*
X153014756Y-132042557D01*
X152984443Y-132058337D01*
X152824130Y-132141791D01*
X152816607Y-132145707D01*
X152812474Y-132148810D01*
X152812471Y-132148812D01*
X152642100Y-132276730D01*
X152637965Y-132279835D01*
X152634393Y-132283573D01*
X152526729Y-132396237D01*
X152483629Y-132441338D01*
X152376201Y-132598821D01*
X152321293Y-132643821D01*
X152250768Y-132651992D01*
X152187021Y-132620738D01*
X152166324Y-132596254D01*
X152085822Y-132471817D01*
X152085820Y-132471814D01*
X152083014Y-132467477D01*
X151932670Y-132302251D01*
X151928619Y-132299052D01*
X151928615Y-132299048D01*
X151761414Y-132167000D01*
X151761410Y-132166998D01*
X151757359Y-132163798D01*
X151731533Y-132149541D01*
X151664990Y-132112808D01*
X151561789Y-132055838D01*
X151556920Y-132054114D01*
X151556916Y-132054112D01*
X151356087Y-131982995D01*
X151356083Y-131982994D01*
X151351212Y-131981269D01*
X151346119Y-131980362D01*
X151346116Y-131980361D01*
X151136373Y-131943000D01*
X151136367Y-131942999D01*
X151131284Y-131942094D01*
X151057452Y-131941192D01*
X150913081Y-131939428D01*
X150913079Y-131939428D01*
X150907911Y-131939365D01*
X150687091Y-131973155D01*
X150474756Y-132042557D01*
X150444443Y-132058337D01*
X150284130Y-132141791D01*
X150276607Y-132145707D01*
X150272474Y-132148810D01*
X150272471Y-132148812D01*
X150102100Y-132276730D01*
X150097965Y-132279835D01*
X150094393Y-132283573D01*
X149986729Y-132396237D01*
X149943629Y-132441338D01*
X149836201Y-132598821D01*
X149781293Y-132643821D01*
X149710768Y-132651992D01*
X149647021Y-132620738D01*
X149626324Y-132596254D01*
X149545822Y-132471817D01*
X149545820Y-132471814D01*
X149543014Y-132467477D01*
X149392670Y-132302251D01*
X149388619Y-132299052D01*
X149388615Y-132299048D01*
X149221414Y-132167000D01*
X149221410Y-132166998D01*
X149217359Y-132163798D01*
X149191533Y-132149541D01*
X149124990Y-132112808D01*
X149021789Y-132055838D01*
X149016920Y-132054114D01*
X149016916Y-132054112D01*
X148816087Y-131982995D01*
X148816083Y-131982994D01*
X148811212Y-131981269D01*
X148806119Y-131980362D01*
X148806116Y-131980361D01*
X148596373Y-131943000D01*
X148596367Y-131942999D01*
X148591284Y-131942094D01*
X148517452Y-131941192D01*
X148373081Y-131939428D01*
X148373079Y-131939428D01*
X148367911Y-131939365D01*
X148147091Y-131973155D01*
X147934756Y-132042557D01*
X147904443Y-132058337D01*
X147744130Y-132141791D01*
X147736607Y-132145707D01*
X147732474Y-132148810D01*
X147732471Y-132148812D01*
X147562100Y-132276730D01*
X147557965Y-132279835D01*
X147554393Y-132283573D01*
X147446729Y-132396237D01*
X147403629Y-132441338D01*
X147296201Y-132598821D01*
X147241293Y-132643821D01*
X147170768Y-132651992D01*
X147107021Y-132620738D01*
X147086324Y-132596254D01*
X147005822Y-132471817D01*
X147005820Y-132471814D01*
X147003014Y-132467477D01*
X146852670Y-132302251D01*
X146848619Y-132299052D01*
X146848615Y-132299048D01*
X146681414Y-132167000D01*
X146681410Y-132166998D01*
X146677359Y-132163798D01*
X146651533Y-132149541D01*
X146584990Y-132112808D01*
X146481789Y-132055838D01*
X146476920Y-132054114D01*
X146476916Y-132054112D01*
X146276087Y-131982995D01*
X146276083Y-131982994D01*
X146271212Y-131981269D01*
X146266119Y-131980362D01*
X146266116Y-131980361D01*
X146056373Y-131943000D01*
X146056367Y-131942999D01*
X146051284Y-131942094D01*
X145977452Y-131941192D01*
X145833081Y-131939428D01*
X145833079Y-131939428D01*
X145827911Y-131939365D01*
X145607091Y-131973155D01*
X145394756Y-132042557D01*
X145364443Y-132058337D01*
X145204130Y-132141791D01*
X145196607Y-132145707D01*
X145192474Y-132148810D01*
X145192471Y-132148812D01*
X145022100Y-132276730D01*
X145017965Y-132279835D01*
X145014393Y-132283573D01*
X144906729Y-132396237D01*
X144863629Y-132441338D01*
X144756201Y-132598821D01*
X144701293Y-132643821D01*
X144630768Y-132651992D01*
X144567021Y-132620738D01*
X144546324Y-132596254D01*
X144465822Y-132471817D01*
X144465820Y-132471814D01*
X144463014Y-132467477D01*
X144312670Y-132302251D01*
X144308619Y-132299052D01*
X144308615Y-132299048D01*
X144141414Y-132167000D01*
X144141410Y-132166998D01*
X144137359Y-132163798D01*
X144111533Y-132149541D01*
X144044990Y-132112808D01*
X143941789Y-132055838D01*
X143936920Y-132054114D01*
X143936916Y-132054112D01*
X143736087Y-131982995D01*
X143736083Y-131982994D01*
X143731212Y-131981269D01*
X143726119Y-131980362D01*
X143726116Y-131980361D01*
X143516373Y-131943000D01*
X143516367Y-131942999D01*
X143511284Y-131942094D01*
X143437452Y-131941192D01*
X143293081Y-131939428D01*
X143293079Y-131939428D01*
X143287911Y-131939365D01*
X143067091Y-131973155D01*
X142854756Y-132042557D01*
X142824443Y-132058337D01*
X142664130Y-132141791D01*
X142656607Y-132145707D01*
X142652474Y-132148810D01*
X142652471Y-132148812D01*
X142482100Y-132276730D01*
X142477965Y-132279835D01*
X142474393Y-132283573D01*
X142366729Y-132396237D01*
X142323629Y-132441338D01*
X142216201Y-132598821D01*
X142161293Y-132643821D01*
X142090768Y-132651992D01*
X142027021Y-132620738D01*
X142006324Y-132596254D01*
X141925822Y-132471817D01*
X141925820Y-132471814D01*
X141923014Y-132467477D01*
X141772670Y-132302251D01*
X141768619Y-132299052D01*
X141768615Y-132299048D01*
X141601414Y-132167000D01*
X141601410Y-132166998D01*
X141597359Y-132163798D01*
X141571533Y-132149541D01*
X141504990Y-132112808D01*
X141401789Y-132055838D01*
X141396920Y-132054114D01*
X141396916Y-132054112D01*
X141196087Y-131982995D01*
X141196083Y-131982994D01*
X141191212Y-131981269D01*
X141186119Y-131980362D01*
X141186116Y-131980361D01*
X140976373Y-131943000D01*
X140976367Y-131942999D01*
X140971284Y-131942094D01*
X140897452Y-131941192D01*
X140753081Y-131939428D01*
X140753079Y-131939428D01*
X140747911Y-131939365D01*
X140527091Y-131973155D01*
X140314756Y-132042557D01*
X140284443Y-132058337D01*
X140124130Y-132141791D01*
X140116607Y-132145707D01*
X140112474Y-132148810D01*
X140112471Y-132148812D01*
X139942100Y-132276730D01*
X139937965Y-132279835D01*
X139934393Y-132283573D01*
X139826729Y-132396237D01*
X139783629Y-132441338D01*
X139676201Y-132598821D01*
X139621293Y-132643821D01*
X139550768Y-132651992D01*
X139487021Y-132620738D01*
X139466324Y-132596254D01*
X139385822Y-132471817D01*
X139385820Y-132471814D01*
X139383014Y-132467477D01*
X139232670Y-132302251D01*
X139228619Y-132299052D01*
X139228615Y-132299048D01*
X139061414Y-132167000D01*
X139061410Y-132166998D01*
X139057359Y-132163798D01*
X139031533Y-132149541D01*
X138964990Y-132112808D01*
X138861789Y-132055838D01*
X138856920Y-132054114D01*
X138856916Y-132054112D01*
X138656087Y-131982995D01*
X138656083Y-131982994D01*
X138651212Y-131981269D01*
X138646119Y-131980362D01*
X138646116Y-131980361D01*
X138436373Y-131943000D01*
X138436367Y-131942999D01*
X138431284Y-131942094D01*
X138357452Y-131941192D01*
X138213081Y-131939428D01*
X138213079Y-131939428D01*
X138207911Y-131939365D01*
X137987091Y-131973155D01*
X137774756Y-132042557D01*
X137744443Y-132058337D01*
X137584130Y-132141791D01*
X137576607Y-132145707D01*
X137572474Y-132148810D01*
X137572471Y-132148812D01*
X137402100Y-132276730D01*
X137397965Y-132279835D01*
X137394393Y-132283573D01*
X137286729Y-132396237D01*
X137243629Y-132441338D01*
X137136201Y-132598821D01*
X137081293Y-132643821D01*
X137010768Y-132651992D01*
X136947021Y-132620738D01*
X136926324Y-132596254D01*
X136845822Y-132471817D01*
X136845820Y-132471814D01*
X136843014Y-132467477D01*
X136692670Y-132302251D01*
X136688619Y-132299052D01*
X136688615Y-132299048D01*
X136521414Y-132167000D01*
X136521410Y-132166998D01*
X136517359Y-132163798D01*
X136491533Y-132149541D01*
X136424990Y-132112808D01*
X136321789Y-132055838D01*
X136316920Y-132054114D01*
X136316916Y-132054112D01*
X136116087Y-131982995D01*
X136116083Y-131982994D01*
X136111212Y-131981269D01*
X136106119Y-131980362D01*
X136106116Y-131980361D01*
X135896373Y-131943000D01*
X135896367Y-131942999D01*
X135891284Y-131942094D01*
X135817452Y-131941192D01*
X135673081Y-131939428D01*
X135673079Y-131939428D01*
X135667911Y-131939365D01*
X135447091Y-131973155D01*
X135234756Y-132042557D01*
X135204443Y-132058337D01*
X135044130Y-132141791D01*
X135036607Y-132145707D01*
X135032474Y-132148810D01*
X135032471Y-132148812D01*
X134862100Y-132276730D01*
X134857965Y-132279835D01*
X134801537Y-132338884D01*
X134777283Y-132364264D01*
X134715759Y-132399694D01*
X134644846Y-132396237D01*
X134587060Y-132354991D01*
X134568207Y-132321443D01*
X134526767Y-132210903D01*
X134523615Y-132202495D01*
X134436261Y-132085939D01*
X134319705Y-131998585D01*
X134183316Y-131947455D01*
X134121134Y-131940700D01*
X132482500Y-131940700D01*
X132414379Y-131920698D01*
X132367886Y-131867042D01*
X132356500Y-131814700D01*
X132356500Y-119345365D01*
X132376502Y-119277244D01*
X132430158Y-119230751D01*
X132500432Y-119220647D01*
X132546071Y-119236577D01*
X132629761Y-119285482D01*
X132639042Y-119289929D01*
X132838001Y-119365903D01*
X132847899Y-119368779D01*
X133056595Y-119411238D01*
X133066823Y-119412457D01*
X133279650Y-119420262D01*
X133289936Y-119419795D01*
X133501185Y-119392734D01*
X133511262Y-119390592D01*
X133715255Y-119329391D01*
X133724842Y-119325633D01*
X133916098Y-119231938D01*
X133924944Y-119226665D01*
X133972247Y-119192923D01*
X133980648Y-119182223D01*
X133973660Y-119169070D01*
X132952885Y-118148295D01*
X132918859Y-118085983D01*
X132923924Y-118015168D01*
X132952885Y-117970105D01*
X133976389Y-116946601D01*
X133983410Y-116933744D01*
X133976611Y-116924413D01*
X133972554Y-116921718D01*
X133786117Y-116818799D01*
X133776705Y-116814569D01*
X133575959Y-116743480D01*
X133565989Y-116740846D01*
X133356327Y-116703501D01*
X133346073Y-116702531D01*
X133133116Y-116699928D01*
X133122832Y-116700648D01*
X132912321Y-116732861D01*
X132902293Y-116735250D01*
X132699868Y-116801412D01*
X132690359Y-116805409D01*
X132540680Y-116883327D01*
X132471021Y-116897040D01*
X132405006Y-116870915D01*
X132363594Y-116813247D01*
X132356500Y-116771564D01*
X132356500Y-87332576D01*
X149466075Y-87332576D01*
X149468835Y-87347303D01*
X149481014Y-87350600D01*
X150883285Y-87350600D01*
X150898524Y-87346125D01*
X150899729Y-87344735D01*
X150901400Y-87337052D01*
X150901400Y-87332485D01*
X151409400Y-87332485D01*
X151413875Y-87347724D01*
X151415265Y-87348929D01*
X151422948Y-87350600D01*
X152831071Y-87350600D01*
X152844602Y-87346627D01*
X152846034Y-87336668D01*
X152794379Y-87108386D01*
X152791655Y-87099475D01*
X152703033Y-86871583D01*
X152699019Y-86863167D01*
X152577686Y-86650881D01*
X152572470Y-86643148D01*
X152421092Y-86451125D01*
X152414799Y-86444257D01*
X152236694Y-86276712D01*
X152229460Y-86270854D01*
X152028541Y-86131472D01*
X152020515Y-86126744D01*
X151801210Y-86018595D01*
X151792577Y-86015107D01*
X151559688Y-85940558D01*
X151550638Y-85938385D01*
X151427280Y-85918296D01*
X151413686Y-85919993D01*
X151409400Y-85934100D01*
X151409400Y-87332485D01*
X150901400Y-87332485D01*
X150901400Y-85933459D01*
X150897382Y-85919775D01*
X150883690Y-85917754D01*
X150803921Y-85928610D01*
X150794803Y-85930548D01*
X150560068Y-85998967D01*
X150551315Y-86002239D01*
X150329269Y-86104604D01*
X150321114Y-86109124D01*
X150116633Y-86243187D01*
X150109228Y-86248870D01*
X149926813Y-86411682D01*
X149920335Y-86418390D01*
X149763984Y-86606381D01*
X149758563Y-86613981D01*
X149631722Y-86823009D01*
X149627484Y-86831326D01*
X149532929Y-87056814D01*
X149529972Y-87065652D01*
X149469782Y-87302648D01*
X149468164Y-87311828D01*
X149466075Y-87332576D01*
X132356500Y-87332576D01*
X132356500Y-81280000D01*
X153626502Y-81280000D01*
X153646457Y-81508087D01*
X153705716Y-81729243D01*
X153708039Y-81734224D01*
X153708039Y-81734225D01*
X153800151Y-81931762D01*
X153800154Y-81931767D01*
X153802477Y-81936749D01*
X153933802Y-82124300D01*
X154095700Y-82286198D01*
X154100208Y-82289355D01*
X154100211Y-82289357D01*
X154178389Y-82344098D01*
X154283251Y-82417523D01*
X154288233Y-82419846D01*
X154288238Y-82419849D01*
X154485775Y-82511961D01*
X154490757Y-82514284D01*
X154496065Y-82515706D01*
X154496067Y-82515707D01*
X154706598Y-82572119D01*
X154706600Y-82572119D01*
X154711913Y-82573543D01*
X154940000Y-82593498D01*
X155168087Y-82573543D01*
X155173400Y-82572119D01*
X155173402Y-82572119D01*
X155383933Y-82515707D01*
X155383935Y-82515706D01*
X155389243Y-82514284D01*
X155394225Y-82511961D01*
X155591762Y-82419849D01*
X155591767Y-82419846D01*
X155596749Y-82417523D01*
X155701611Y-82344098D01*
X155779789Y-82289357D01*
X155779792Y-82289355D01*
X155784300Y-82286198D01*
X155946198Y-82124300D01*
X156077523Y-81936749D01*
X156079846Y-81931767D01*
X156079849Y-81931762D01*
X156171961Y-81734225D01*
X156171961Y-81734224D01*
X156174284Y-81729243D01*
X156233543Y-81508087D01*
X156238692Y-81449231D01*
X156264555Y-81383113D01*
X156275118Y-81371117D01*
X159077298Y-78568936D01*
X159087441Y-78559834D01*
X159112137Y-78539978D01*
X159116944Y-78536113D01*
X159149211Y-78497659D01*
X159152391Y-78494012D01*
X159154034Y-78492200D01*
X159156228Y-78490006D01*
X159183561Y-78456732D01*
X159184267Y-78455881D01*
X159240114Y-78389325D01*
X159244073Y-78384607D01*
X159246641Y-78379937D01*
X159250022Y-78375820D01*
X159293896Y-78293995D01*
X159294525Y-78292836D01*
X159336381Y-78216700D01*
X159336384Y-78216692D01*
X159339352Y-78211294D01*
X159340964Y-78206212D01*
X159343481Y-78201518D01*
X159370681Y-78112550D01*
X159371027Y-78111439D01*
X159397292Y-78028644D01*
X159399154Y-78022775D01*
X159399748Y-78017479D01*
X159401306Y-78012383D01*
X159410709Y-77919824D01*
X159410830Y-77918688D01*
X159416419Y-77868854D01*
X159416419Y-77865327D01*
X159416474Y-77864342D01*
X159416921Y-77858662D01*
X159421293Y-77815619D01*
X159416978Y-77769972D01*
X159416419Y-77758114D01*
X159416419Y-75692557D01*
X159425553Y-75645459D01*
X159473361Y-75526832D01*
X159473362Y-75526829D01*
X159475605Y-75521263D01*
X159516147Y-75313663D01*
X159516419Y-75308101D01*
X159516419Y-74602154D01*
X159501371Y-74444434D01*
X159441827Y-74241466D01*
X159439083Y-74236138D01*
X159347723Y-74058751D01*
X159347721Y-74058748D01*
X159344977Y-74053420D01*
X159214315Y-73887080D01*
X159209784Y-73883148D01*
X159209781Y-73883145D01*
X159059086Y-73752379D01*
X159054556Y-73748448D01*
X159049370Y-73745448D01*
X159049366Y-73745445D01*
X158876661Y-73645533D01*
X158871465Y-73642527D01*
X158671648Y-73573139D01*
X158665713Y-73572278D01*
X158665711Y-73572278D01*
X158468255Y-73543648D01*
X158468252Y-73543648D01*
X158462315Y-73542787D01*
X158251020Y-73552567D01*
X158119842Y-73584181D01*
X158051218Y-73600719D01*
X158051216Y-73600720D01*
X158045385Y-73602125D01*
X158039927Y-73604607D01*
X158039923Y-73604608D01*
X157924878Y-73656916D01*
X157852832Y-73689674D01*
X157680308Y-73812054D01*
X157676170Y-73816377D01*
X157676165Y-73816381D01*
X157588755Y-73907691D01*
X157527199Y-73943067D01*
X157456290Y-73939548D01*
X157398540Y-73898251D01*
X157390593Y-73886863D01*
X157359856Y-73837193D01*
X157350820Y-73825792D01*
X157236090Y-73711261D01*
X157224679Y-73702249D01*
X157086676Y-73617184D01*
X157073495Y-73611037D01*
X156919209Y-73559862D01*
X156905833Y-73556995D01*
X156811481Y-73547328D01*
X156805064Y-73547000D01*
X156680034Y-73547000D01*
X156664795Y-73551475D01*
X156663590Y-73552865D01*
X156661919Y-73560548D01*
X156661919Y-76294884D01*
X156666394Y-76310123D01*
X156667784Y-76311328D01*
X156675467Y-76312999D01*
X156805014Y-76312999D01*
X156811533Y-76312662D01*
X156907125Y-76302743D01*
X156920519Y-76299851D01*
X157074703Y-76248412D01*
X157087877Y-76242240D01*
X157207115Y-76168453D01*
X157275567Y-76149615D01*
X157343337Y-76170776D01*
X157388908Y-76225217D01*
X157399419Y-76275597D01*
X157399419Y-77342156D01*
X157379417Y-77410277D01*
X157362514Y-77431251D01*
X154848884Y-79944882D01*
X154786572Y-79978907D01*
X154770773Y-79981308D01*
X154711913Y-79986457D01*
X154564141Y-80026053D01*
X154496067Y-80044293D01*
X154496065Y-80044294D01*
X154490757Y-80045716D01*
X154485776Y-80048039D01*
X154485775Y-80048039D01*
X154288238Y-80140151D01*
X154288233Y-80140154D01*
X154283251Y-80142477D01*
X154178389Y-80215902D01*
X154100211Y-80270643D01*
X154100208Y-80270645D01*
X154095700Y-80273802D01*
X153933802Y-80435700D01*
X153802477Y-80623251D01*
X153800154Y-80628233D01*
X153800151Y-80628238D01*
X153708039Y-80825775D01*
X153705716Y-80830757D01*
X153646457Y-81051913D01*
X153626502Y-81280000D01*
X132356500Y-81280000D01*
X132356500Y-76717711D01*
X134234526Y-76717711D01*
X134254391Y-76970114D01*
X134313495Y-77216302D01*
X134315388Y-77220873D01*
X134315389Y-77220875D01*
X134402530Y-77431251D01*
X134410384Y-77450213D01*
X134542672Y-77666087D01*
X134707102Y-77858609D01*
X134899624Y-78023039D01*
X135115498Y-78155327D01*
X135120068Y-78157220D01*
X135120072Y-78157222D01*
X135344836Y-78250322D01*
X135349409Y-78252216D01*
X135434032Y-78272532D01*
X135590784Y-78310165D01*
X135590790Y-78310166D01*
X135595597Y-78311320D01*
X135695416Y-78319176D01*
X135782345Y-78326018D01*
X135782352Y-78326018D01*
X135784801Y-78326211D01*
X135911199Y-78326211D01*
X135913648Y-78326018D01*
X135913655Y-78326018D01*
X136000584Y-78319176D01*
X136100403Y-78311320D01*
X136105210Y-78310166D01*
X136105216Y-78310165D01*
X136261968Y-78272532D01*
X136346591Y-78252216D01*
X136351164Y-78250322D01*
X136575928Y-78157222D01*
X136575932Y-78157220D01*
X136580502Y-78155327D01*
X136796376Y-78023039D01*
X136988898Y-77858609D01*
X137153328Y-77666087D01*
X137285616Y-77450213D01*
X137293471Y-77431251D01*
X137380611Y-77220875D01*
X137380612Y-77220873D01*
X137382505Y-77216302D01*
X137441609Y-76970114D01*
X137461474Y-76717711D01*
X137441609Y-76465308D01*
X137382505Y-76219120D01*
X137380611Y-76214547D01*
X137287511Y-75989783D01*
X137287509Y-75989779D01*
X137285616Y-75985209D01*
X137153328Y-75769335D01*
X137010491Y-75602095D01*
X155299920Y-75602095D01*
X155300257Y-75608614D01*
X155310176Y-75704206D01*
X155313068Y-75717600D01*
X155364507Y-75871784D01*
X155370680Y-75884962D01*
X155455982Y-76022807D01*
X155465018Y-76034208D01*
X155579748Y-76148739D01*
X155591159Y-76157751D01*
X155729162Y-76242816D01*
X155742343Y-76248963D01*
X155896629Y-76300138D01*
X155910005Y-76303005D01*
X156004357Y-76312672D01*
X156010773Y-76313000D01*
X156135804Y-76313000D01*
X156151043Y-76308525D01*
X156152248Y-76307135D01*
X156153919Y-76299452D01*
X156153919Y-75202115D01*
X156149444Y-75186876D01*
X156148054Y-75185671D01*
X156140371Y-75184000D01*
X155318035Y-75184000D01*
X155302796Y-75188475D01*
X155301591Y-75189865D01*
X155299920Y-75197548D01*
X155299920Y-75602095D01*
X137010491Y-75602095D01*
X136988898Y-75576813D01*
X136796376Y-75412383D01*
X136580502Y-75280095D01*
X136575932Y-75278202D01*
X136575928Y-75278200D01*
X136351164Y-75185100D01*
X136351162Y-75185099D01*
X136346591Y-75183206D01*
X136261968Y-75162890D01*
X136105216Y-75125257D01*
X136105210Y-75125256D01*
X136100403Y-75124102D01*
X136000584Y-75116246D01*
X135913655Y-75109404D01*
X135913648Y-75109404D01*
X135911199Y-75109211D01*
X135784801Y-75109211D01*
X135782352Y-75109404D01*
X135782345Y-75109404D01*
X135695416Y-75116246D01*
X135595597Y-75124102D01*
X135590790Y-75125256D01*
X135590784Y-75125257D01*
X135434032Y-75162890D01*
X135349409Y-75183206D01*
X135344838Y-75185099D01*
X135344836Y-75185100D01*
X135120072Y-75278200D01*
X135120068Y-75278202D01*
X135115498Y-75280095D01*
X134899624Y-75412383D01*
X134707102Y-75576813D01*
X134542672Y-75769335D01*
X134410384Y-75985209D01*
X134408491Y-75989779D01*
X134408489Y-75989783D01*
X134315389Y-76214547D01*
X134313495Y-76219120D01*
X134254391Y-76465308D01*
X134234526Y-76717711D01*
X132356500Y-76717711D01*
X132356500Y-74657885D01*
X155299919Y-74657885D01*
X155304394Y-74673124D01*
X155305784Y-74674329D01*
X155313467Y-74676000D01*
X156135804Y-74676000D01*
X156151043Y-74671525D01*
X156152248Y-74670135D01*
X156153919Y-74662452D01*
X156153919Y-73565116D01*
X156149444Y-73549877D01*
X156148054Y-73548672D01*
X156140371Y-73547001D01*
X156010824Y-73547001D01*
X156004305Y-73547338D01*
X155908713Y-73557257D01*
X155895319Y-73560149D01*
X155741135Y-73611588D01*
X155727957Y-73617761D01*
X155590112Y-73703063D01*
X155578711Y-73712099D01*
X155464180Y-73826829D01*
X155455168Y-73838240D01*
X155370103Y-73976243D01*
X155363956Y-73989424D01*
X155312781Y-74143710D01*
X155309914Y-74157086D01*
X155300247Y-74251438D01*
X155299919Y-74257855D01*
X155299919Y-74657885D01*
X132356500Y-74657885D01*
X132356500Y-69170519D01*
X138027455Y-69170519D01*
X138028036Y-69175539D01*
X138028036Y-69175543D01*
X138054339Y-69402865D01*
X138055356Y-69411658D01*
X138056732Y-69416522D01*
X138056733Y-69416525D01*
X138102417Y-69577968D01*
X138121451Y-69645234D01*
X138123585Y-69649810D01*
X138123587Y-69649816D01*
X138178631Y-69767858D01*
X138224040Y-69865238D01*
X138360485Y-70066009D01*
X138527273Y-70242383D01*
X138531299Y-70245461D01*
X138531300Y-70245462D01*
X138716095Y-70386749D01*
X138716099Y-70386752D01*
X138720115Y-70389822D01*
X138934050Y-70504533D01*
X139163572Y-70583564D01*
X139262919Y-70600724D01*
X139398867Y-70624206D01*
X139398873Y-70624207D01*
X139402777Y-70624881D01*
X139406738Y-70625061D01*
X139406739Y-70625061D01*
X139430447Y-70626138D01*
X139430466Y-70626138D01*
X139431866Y-70626202D01*
X145600942Y-70626202D01*
X145603450Y-70626000D01*
X145603455Y-70626000D01*
X145776865Y-70612048D01*
X145776870Y-70612047D01*
X145781906Y-70611642D01*
X145786814Y-70610436D01*
X145786817Y-70610436D01*
X146012733Y-70554946D01*
X146017647Y-70553739D01*
X146022299Y-70551764D01*
X146022303Y-70551763D01*
X146236439Y-70460867D01*
X146241097Y-70458890D01*
X146346978Y-70392213D01*
X146442229Y-70332230D01*
X146442232Y-70332228D01*
X146446508Y-70329535D01*
X146546143Y-70241696D01*
X146624799Y-70172352D01*
X146624802Y-70172349D01*
X146628596Y-70169004D01*
X146782675Y-69981424D01*
X146904782Y-69771624D01*
X146955165Y-69640371D01*
X146989961Y-69549724D01*
X146989962Y-69549720D01*
X146991774Y-69545000D01*
X146992809Y-69540047D01*
X147040381Y-69312333D01*
X147040381Y-69312329D01*
X147041415Y-69307382D01*
X147052427Y-69064885D01*
X147037176Y-68933075D01*
X147025108Y-68828773D01*
X147025107Y-68828769D01*
X147024526Y-68823746D01*
X146985458Y-68685680D01*
X146959807Y-68595033D01*
X146958431Y-68590170D01*
X146956297Y-68585594D01*
X146956295Y-68585588D01*
X146857979Y-68374748D01*
X146857977Y-68374744D01*
X146855842Y-68370166D01*
X146850441Y-68362218D01*
X146779850Y-68258348D01*
X146719397Y-68169395D01*
X146552609Y-67993021D01*
X146543656Y-67986176D01*
X146363787Y-67848655D01*
X146363783Y-67848652D01*
X146359767Y-67845582D01*
X146352744Y-67841816D01*
X146150293Y-67733263D01*
X146145832Y-67730871D01*
X145916310Y-67651840D01*
X145816963Y-67634680D01*
X145681015Y-67611198D01*
X145681009Y-67611197D01*
X145677105Y-67610523D01*
X145673144Y-67610343D01*
X145673143Y-67610343D01*
X145649435Y-67609266D01*
X145649416Y-67609266D01*
X145648016Y-67609202D01*
X139478940Y-67609202D01*
X139476432Y-67609404D01*
X139476427Y-67609404D01*
X139303017Y-67623356D01*
X139303012Y-67623357D01*
X139297976Y-67623762D01*
X139293068Y-67624968D01*
X139293065Y-67624968D01*
X139069523Y-67679875D01*
X139062235Y-67681665D01*
X139057583Y-67683640D01*
X139057579Y-67683641D01*
X138959065Y-67725458D01*
X138838785Y-67776514D01*
X138834501Y-67779212D01*
X138637653Y-67903174D01*
X138637650Y-67903176D01*
X138633374Y-67905869D01*
X138629580Y-67909214D01*
X138455083Y-68063052D01*
X138455080Y-68063055D01*
X138451286Y-68066400D01*
X138448076Y-68070308D01*
X138448075Y-68070309D01*
X138303509Y-68246308D01*
X138297207Y-68253980D01*
X138175100Y-68463780D01*
X138088108Y-68690404D01*
X138038467Y-68928022D01*
X138027455Y-69170519D01*
X132356500Y-69170519D01*
X132356500Y-62824440D01*
X132358001Y-62805052D01*
X132360310Y-62790228D01*
X132360310Y-62790219D01*
X132361691Y-62781351D01*
X132359338Y-62763355D01*
X132358899Y-62751493D01*
X138523433Y-62751493D01*
X138523662Y-62754338D01*
X138523662Y-62754341D01*
X138552615Y-63114184D01*
X138556273Y-63159649D01*
X138625969Y-63563149D01*
X138731949Y-63958672D01*
X138739291Y-63978627D01*
X138872152Y-64339731D01*
X138873340Y-64342961D01*
X138874565Y-64345541D01*
X138874568Y-64345548D01*
X139047750Y-64710267D01*
X139048979Y-64712855D01*
X139062236Y-64735271D01*
X139227473Y-65014672D01*
X139257418Y-65065307D01*
X139259080Y-65067611D01*
X139259081Y-65067613D01*
X139467651Y-65356801D01*
X139496944Y-65397417D01*
X139765584Y-65706452D01*
X140061126Y-65989867D01*
X140063344Y-65991637D01*
X140063349Y-65991642D01*
X140181937Y-66086309D01*
X140381139Y-66245330D01*
X140383520Y-66246900D01*
X140705852Y-66459438D01*
X140722989Y-66470738D01*
X140725519Y-66472094D01*
X140725518Y-66472094D01*
X141069556Y-66656566D01*
X141083860Y-66664236D01*
X141460784Y-66824231D01*
X141519448Y-66843066D01*
X141847931Y-66948530D01*
X141847935Y-66948531D01*
X141850657Y-66949405D01*
X141853447Y-66950029D01*
X141853452Y-66950030D01*
X142247477Y-67038106D01*
X142247488Y-67038108D01*
X142250271Y-67038730D01*
X142656335Y-67091468D01*
X143065509Y-67107187D01*
X143068371Y-67107037D01*
X143068372Y-67107037D01*
X143471566Y-67085907D01*
X143471573Y-67085906D01*
X143474422Y-67085757D01*
X143477245Y-67085350D01*
X143477247Y-67085350D01*
X143876889Y-67027761D01*
X143876896Y-67027760D01*
X143879711Y-67027354D01*
X144278038Y-66932459D01*
X144280736Y-66931551D01*
X144280743Y-66931549D01*
X144663414Y-66802766D01*
X144663420Y-66802764D01*
X144666126Y-66801853D01*
X145040779Y-66636611D01*
X145398914Y-66438094D01*
X145415358Y-66426919D01*
X145735198Y-66209556D01*
X145735200Y-66209554D01*
X145737583Y-66207935D01*
X145751740Y-66196306D01*
X146051779Y-65949851D01*
X146051783Y-65949848D01*
X146053998Y-65948028D01*
X146056036Y-65946019D01*
X146056043Y-65946012D01*
X146220713Y-65783625D01*
X146345555Y-65660514D01*
X146349200Y-65656201D01*
X148025500Y-65656201D01*
X148025702Y-65658709D01*
X148025702Y-65658714D01*
X148039107Y-65825317D01*
X148040060Y-65837165D01*
X148041266Y-65842073D01*
X148041266Y-65842076D01*
X148071846Y-65966577D01*
X148097963Y-66072906D01*
X148099938Y-66077558D01*
X148099939Y-66077562D01*
X148103652Y-66086309D01*
X148192812Y-66296356D01*
X148195510Y-66300640D01*
X148317931Y-66495040D01*
X148322167Y-66501767D01*
X148325512Y-66505561D01*
X148479350Y-66680058D01*
X148479353Y-66680061D01*
X148482698Y-66683855D01*
X148486606Y-66687065D01*
X148486607Y-66687066D01*
X148654666Y-66825110D01*
X148670278Y-66837934D01*
X148775178Y-66898987D01*
X148866974Y-66952414D01*
X148880078Y-66960041D01*
X148884801Y-66961854D01*
X149101978Y-67045220D01*
X149101982Y-67045221D01*
X149106702Y-67047033D01*
X149111652Y-67048067D01*
X149111655Y-67048068D01*
X149339369Y-67095640D01*
X149339373Y-67095640D01*
X149344320Y-67096674D01*
X149586817Y-67107686D01*
X149591837Y-67107105D01*
X149591841Y-67107105D01*
X149822929Y-67080367D01*
X149822933Y-67080366D01*
X149827956Y-67079785D01*
X149832820Y-67078409D01*
X149832823Y-67078408D01*
X150056669Y-67015066D01*
X150056668Y-67015066D01*
X150061532Y-67013690D01*
X150066108Y-67011556D01*
X150066114Y-67011554D01*
X150276954Y-66913238D01*
X150276958Y-66913236D01*
X150281536Y-66911101D01*
X150482307Y-66774656D01*
X150658681Y-66607868D01*
X150736901Y-66505561D01*
X150803047Y-66419046D01*
X150803050Y-66419042D01*
X150806120Y-66415026D01*
X150920831Y-66201091D01*
X150999862Y-65971569D01*
X151041179Y-65732364D01*
X151042500Y-65703275D01*
X151042500Y-59534199D01*
X151042298Y-59531686D01*
X151028346Y-59358276D01*
X151028345Y-59358271D01*
X151027940Y-59353235D01*
X151022213Y-59329916D01*
X150971244Y-59122408D01*
X150970037Y-59117494D01*
X150963665Y-59102481D01*
X150903549Y-58960859D01*
X150875188Y-58894044D01*
X150797926Y-58771354D01*
X150748528Y-58692912D01*
X150748526Y-58692909D01*
X150745833Y-58688633D01*
X150658227Y-58589263D01*
X150588650Y-58510342D01*
X150588647Y-58510339D01*
X150585302Y-58506545D01*
X150557585Y-58483778D01*
X150401628Y-58355674D01*
X150401625Y-58355672D01*
X150397722Y-58352466D01*
X150195355Y-58234685D01*
X150192290Y-58232901D01*
X150192288Y-58232900D01*
X150187922Y-58230359D01*
X150154655Y-58217589D01*
X149966022Y-58145180D01*
X149966018Y-58145179D01*
X149961298Y-58143367D01*
X149956348Y-58142333D01*
X149956345Y-58142332D01*
X149728631Y-58094760D01*
X149728627Y-58094760D01*
X149723680Y-58093726D01*
X149481183Y-58082714D01*
X149476163Y-58083295D01*
X149476159Y-58083295D01*
X149245071Y-58110033D01*
X149245067Y-58110034D01*
X149240044Y-58110615D01*
X149235180Y-58111991D01*
X149235177Y-58111992D01*
X149156123Y-58134362D01*
X149006468Y-58176710D01*
X149001892Y-58178844D01*
X149001886Y-58178846D01*
X148791046Y-58277162D01*
X148791042Y-58277164D01*
X148786464Y-58279299D01*
X148782283Y-58282140D01*
X148782282Y-58282141D01*
X148750955Y-58303431D01*
X148585693Y-58415744D01*
X148409319Y-58582532D01*
X148406241Y-58586558D01*
X148406240Y-58586559D01*
X148264953Y-58771354D01*
X148264950Y-58771358D01*
X148261880Y-58775374D01*
X148259490Y-58779832D01*
X148259489Y-58779833D01*
X148240829Y-58814633D01*
X148147169Y-58989309D01*
X148068138Y-59218831D01*
X148053763Y-59302056D01*
X148031025Y-59433699D01*
X148026821Y-59458036D01*
X148025500Y-59487125D01*
X148025500Y-65656201D01*
X146349200Y-65656201D01*
X146402889Y-65592669D01*
X146608008Y-65349944D01*
X146608013Y-65349938D01*
X146609854Y-65347759D01*
X146673376Y-65257041D01*
X146843084Y-65014672D01*
X146844719Y-65012337D01*
X147048217Y-64657008D01*
X147181679Y-64365503D01*
X147217485Y-64287297D01*
X147217488Y-64287288D01*
X147218674Y-64284699D01*
X147354685Y-63898473D01*
X147440252Y-63560317D01*
X147454430Y-63504288D01*
X147454431Y-63504284D01*
X147455133Y-63501509D01*
X147519189Y-63097076D01*
X147538585Y-62805052D01*
X147546210Y-62690252D01*
X147546210Y-62690241D01*
X147546326Y-62688501D01*
X147547316Y-62593981D01*
X147528741Y-62184928D01*
X147518877Y-62112915D01*
X147482075Y-61844255D01*
X147473169Y-61779241D01*
X147381057Y-61380261D01*
X147308458Y-61159449D01*
X147254057Y-60993986D01*
X147254054Y-60993979D01*
X147253164Y-60991271D01*
X147090542Y-60615473D01*
X146952805Y-60362846D01*
X146895899Y-60258473D01*
X146895895Y-60258466D01*
X146894529Y-60255961D01*
X146766063Y-60064061D01*
X146668332Y-59918071D01*
X146668324Y-59918060D01*
X146666740Y-59915694D01*
X146409049Y-59597472D01*
X146349969Y-59536718D01*
X146125567Y-59305961D01*
X146125563Y-59305957D01*
X146123577Y-59303915D01*
X146121419Y-59302065D01*
X146121409Y-59302056D01*
X145814849Y-59039302D01*
X145814844Y-59039298D01*
X145812675Y-59037439D01*
X145810344Y-59035782D01*
X145810337Y-59035777D01*
X145665907Y-58933136D01*
X145478900Y-58800238D01*
X145160674Y-58615026D01*
X145127474Y-58595703D01*
X145127469Y-58595700D01*
X145125001Y-58594264D01*
X144890846Y-58485076D01*
X144756487Y-58422423D01*
X144756477Y-58422419D01*
X144753891Y-58421213D01*
X144730795Y-58412898D01*
X144371314Y-58283476D01*
X144371305Y-58283473D01*
X144368624Y-58282508D01*
X144047187Y-58198780D01*
X143975140Y-58180013D01*
X143975134Y-58180012D01*
X143972371Y-58179292D01*
X143568395Y-58112414D01*
X143565552Y-58112205D01*
X143565550Y-58112205D01*
X143162865Y-58082634D01*
X143160019Y-58082425D01*
X142990043Y-58085392D01*
X142753458Y-58089521D01*
X142753453Y-58089521D01*
X142750607Y-58089571D01*
X142747774Y-58089879D01*
X142747770Y-58089879D01*
X142418896Y-58125606D01*
X142343527Y-58133794D01*
X141942130Y-58214730D01*
X141939402Y-58215543D01*
X141939391Y-58215546D01*
X141647835Y-58302463D01*
X141549721Y-58331712D01*
X141547060Y-58332776D01*
X141547058Y-58332777D01*
X141273036Y-58442378D01*
X141169529Y-58483778D01*
X141063069Y-58538022D01*
X140807227Y-58668380D01*
X140807222Y-58668383D01*
X140804684Y-58669676D01*
X140802265Y-58671199D01*
X140802262Y-58671201D01*
X140695045Y-58738719D01*
X140458189Y-58887875D01*
X140132896Y-59136580D01*
X139831483Y-59413744D01*
X139556430Y-59717085D01*
X139554706Y-59719372D01*
X139554705Y-59719374D01*
X139343773Y-59999291D01*
X139310002Y-60044106D01*
X139094227Y-60392116D01*
X139092947Y-60394672D01*
X139092942Y-60394681D01*
X138935655Y-60708778D01*
X138910881Y-60758250D01*
X138909840Y-60760906D01*
X138909837Y-60760913D01*
X138774235Y-61106928D01*
X138761473Y-61139494D01*
X138760681Y-61142221D01*
X138760677Y-61142232D01*
X138671400Y-61449526D01*
X138647233Y-61532710D01*
X138569101Y-61934662D01*
X138527721Y-62342041D01*
X138525083Y-62593981D01*
X138523433Y-62751493D01*
X132358899Y-62751493D01*
X132358472Y-62739956D01*
X132360242Y-62708456D01*
X132371772Y-62503181D01*
X132373354Y-62489143D01*
X132417788Y-62227636D01*
X132420933Y-62213861D01*
X132494363Y-61958988D01*
X132499030Y-61945651D01*
X132522906Y-61888012D01*
X132600534Y-61700605D01*
X132606664Y-61687874D01*
X132693938Y-61529966D01*
X132734978Y-61455711D01*
X132742496Y-61443749D01*
X132895980Y-61227436D01*
X132904790Y-61216389D01*
X133058018Y-61044929D01*
X133077640Y-61027147D01*
X133078223Y-61026721D01*
X133085473Y-61021425D01*
X133104877Y-60996183D01*
X133115677Y-60983879D01*
X133366029Y-60733527D01*
X136304556Y-60733527D01*
X136312284Y-60744152D01*
X136326260Y-60755230D01*
X136334644Y-60760843D01*
X136537641Y-60874295D01*
X136546812Y-60878493D01*
X136765327Y-60958026D01*
X136775066Y-60960708D01*
X137003482Y-61004281D01*
X137013518Y-61005371D01*
X137245974Y-61011865D01*
X137256043Y-61011337D01*
X137486549Y-60980580D01*
X137496409Y-60978448D01*
X137719024Y-60911238D01*
X137728428Y-60907552D01*
X137937431Y-60805614D01*
X137946122Y-60800474D01*
X138137038Y-60665797D01*
X138143199Y-60660844D01*
X138160715Y-60644850D01*
X138162801Y-60642856D01*
X139459964Y-59345693D01*
X139467578Y-59331749D01*
X139467447Y-59329916D01*
X139463196Y-59323301D01*
X138598876Y-58458981D01*
X138584932Y-58451367D01*
X138583099Y-58451498D01*
X138576484Y-58455749D01*
X136311594Y-60720639D01*
X136304556Y-60733527D01*
X133366029Y-60733527D01*
X134577035Y-59522521D01*
X135659493Y-59522521D01*
X135659669Y-59532612D01*
X135682360Y-59764051D01*
X135684146Y-59773977D01*
X135743551Y-59998812D01*
X135746900Y-60008323D01*
X135841488Y-60220771D01*
X135846314Y-60229622D01*
X135930485Y-60358249D01*
X135941218Y-60367396D01*
X135950967Y-60362846D01*
X138214042Y-58099771D01*
X138220420Y-58088091D01*
X138950472Y-58088091D01*
X138950603Y-58089924D01*
X138954854Y-58096539D01*
X139819174Y-58960859D01*
X139833118Y-58968473D01*
X139834951Y-58968342D01*
X139841566Y-58964091D01*
X141107925Y-57697732D01*
X141111343Y-57694029D01*
X141224063Y-57561583D01*
X141229960Y-57553407D01*
X141350431Y-57354486D01*
X141354943Y-57345475D01*
X141442059Y-57129857D01*
X141445075Y-57120233D01*
X141496596Y-56893460D01*
X141498034Y-56883479D01*
X141501656Y-56825910D01*
X173020894Y-56825910D01*
X173021422Y-56835979D01*
X173052179Y-57066485D01*
X173054311Y-57076345D01*
X173121521Y-57298960D01*
X173125207Y-57308364D01*
X173227145Y-57517367D01*
X173232285Y-57526058D01*
X173366962Y-57716974D01*
X173371915Y-57723135D01*
X173387909Y-57740651D01*
X173389903Y-57742737D01*
X174687066Y-59039900D01*
X174701010Y-59047514D01*
X174702843Y-59047383D01*
X174709458Y-59043132D01*
X175573778Y-58178812D01*
X175580156Y-58167132D01*
X176310208Y-58167132D01*
X176310339Y-58168965D01*
X176314590Y-58175580D01*
X178579480Y-60440470D01*
X178592368Y-60447508D01*
X178602993Y-60439780D01*
X178614071Y-60425804D01*
X178619684Y-60417420D01*
X178733136Y-60214423D01*
X178737334Y-60205252D01*
X178816867Y-59986737D01*
X178819549Y-59976998D01*
X178863122Y-59748581D01*
X178864212Y-59738545D01*
X178870705Y-59506090D01*
X178870177Y-59496020D01*
X178839421Y-59265514D01*
X178837290Y-59255657D01*
X178770079Y-59033040D01*
X178766393Y-59023636D01*
X178664455Y-58814633D01*
X178659315Y-58805942D01*
X178524638Y-58615026D01*
X178519685Y-58608865D01*
X178503691Y-58591349D01*
X178501697Y-58589263D01*
X177204534Y-57292100D01*
X177190590Y-57284486D01*
X177188757Y-57284617D01*
X177182142Y-57288868D01*
X176317822Y-58153188D01*
X176310208Y-58167132D01*
X175580156Y-58167132D01*
X175581392Y-58164868D01*
X175581261Y-58163035D01*
X175577010Y-58156420D01*
X173312120Y-55891530D01*
X173299232Y-55884492D01*
X173288607Y-55892220D01*
X173277529Y-55906196D01*
X173271916Y-55914580D01*
X173158464Y-56117577D01*
X173154266Y-56126748D01*
X173074733Y-56345263D01*
X173072051Y-56355002D01*
X173028478Y-56583418D01*
X173027388Y-56593454D01*
X173020894Y-56825910D01*
X141501656Y-56825910D01*
X141512635Y-56651397D01*
X141512459Y-56641306D01*
X141489768Y-56409867D01*
X141487982Y-56399941D01*
X141428577Y-56175106D01*
X141425228Y-56165595D01*
X141330640Y-55953147D01*
X141325814Y-55944296D01*
X141241643Y-55815669D01*
X141230910Y-55806522D01*
X141221161Y-55811072D01*
X138958086Y-58074147D01*
X138950472Y-58088091D01*
X138220420Y-58088091D01*
X138221656Y-58085827D01*
X138221525Y-58083994D01*
X138217274Y-58077379D01*
X137352954Y-57213059D01*
X137339010Y-57205445D01*
X137337177Y-57205576D01*
X137330562Y-57209827D01*
X136064203Y-58476186D01*
X136060785Y-58479889D01*
X135948070Y-58612330D01*
X135942162Y-58620521D01*
X135821702Y-58819424D01*
X135817182Y-58828450D01*
X135730069Y-59044061D01*
X135727053Y-59053685D01*
X135675532Y-59280458D01*
X135674094Y-59290439D01*
X135659493Y-59522521D01*
X134577035Y-59522521D01*
X137257387Y-56842169D01*
X137704550Y-56842169D01*
X137704681Y-56844002D01*
X137708932Y-56850617D01*
X138573252Y-57714937D01*
X138587196Y-57722551D01*
X138589029Y-57722420D01*
X138595644Y-57718169D01*
X140792659Y-55521154D01*
X173665363Y-55521154D01*
X173669913Y-55530903D01*
X175932988Y-57793978D01*
X175946932Y-57801592D01*
X175948765Y-57801461D01*
X175955380Y-57797210D01*
X176819700Y-56932890D01*
X176827314Y-56918946D01*
X176827183Y-56917113D01*
X176822932Y-56910498D01*
X175556573Y-55644139D01*
X175552870Y-55640721D01*
X175420429Y-55528006D01*
X175412238Y-55522098D01*
X175213335Y-55401638D01*
X175204309Y-55397118D01*
X174988698Y-55310005D01*
X174979074Y-55306989D01*
X174752301Y-55255468D01*
X174742320Y-55254030D01*
X174510238Y-55239429D01*
X174500147Y-55239605D01*
X174268708Y-55262296D01*
X174258782Y-55264082D01*
X174033947Y-55323487D01*
X174024436Y-55326836D01*
X173811988Y-55421424D01*
X173803137Y-55426250D01*
X173674510Y-55510421D01*
X173665363Y-55521154D01*
X140792659Y-55521154D01*
X140860534Y-55453279D01*
X140867572Y-55440391D01*
X140859844Y-55429766D01*
X140845868Y-55418688D01*
X140837484Y-55413075D01*
X140634487Y-55299623D01*
X140625316Y-55295425D01*
X140406801Y-55215892D01*
X140397062Y-55213210D01*
X140168645Y-55169637D01*
X140158609Y-55168547D01*
X139926154Y-55162054D01*
X139916084Y-55162582D01*
X139685578Y-55193338D01*
X139675721Y-55195469D01*
X139453104Y-55262680D01*
X139443700Y-55266366D01*
X139234697Y-55368304D01*
X139226006Y-55373444D01*
X139035090Y-55508121D01*
X139028929Y-55513074D01*
X139011413Y-55529068D01*
X139009327Y-55531062D01*
X137712164Y-56828225D01*
X137704550Y-56842169D01*
X137257387Y-56842169D01*
X140108691Y-53990865D01*
X140123460Y-53978217D01*
X140135581Y-53969362D01*
X140142831Y-53964066D01*
X140153891Y-53949679D01*
X140169827Y-53932520D01*
X140346652Y-53774504D01*
X140357699Y-53765694D01*
X140574029Y-53612204D01*
X140585993Y-53604687D01*
X140818142Y-53476387D01*
X140830865Y-53470260D01*
X140953399Y-53419507D01*
X141075929Y-53368756D01*
X141089265Y-53364090D01*
X141187514Y-53335786D01*
X141344150Y-53290663D01*
X141357915Y-53287521D01*
X141504375Y-53262640D01*
X141619413Y-53243097D01*
X141633453Y-53241515D01*
X141768173Y-53233951D01*
X141863129Y-53228620D01*
X141889573Y-53229923D01*
X141899073Y-53231402D01*
X141907976Y-53230238D01*
X141907977Y-53230238D01*
X141930648Y-53227274D01*
X141946982Y-53226211D01*
X172855990Y-53226211D01*
X172875378Y-53227712D01*
G37*
G04 #@! TD.AperFunction*
M02*
