M48
; DRILL file {KiCad (6.0.9)} date Mon Nov 21 10:52:17 2022
; FORMAT={-:-/ absolute / metric / decimal}
; #@! TF.CreationDate,2022-11-21T10:52:17+01:00
; #@! TF.GenerationSoftware,Kicad,Pcbnew,(6.0.9)
; #@! TF.FileFunction,Plated,1,2,PTH
FMAT,2
METRIC
; #@! TA.AperFunction,Plated,PTH,ViaDrill
T1C0.400
; #@! TA.AperFunction,Plated,PTH,ComponentDrill
T2C0.750
; #@! TA.AperFunction,Plated,PTH,ComponentDrill
T3C0.800
; #@! TA.AperFunction,Plated,PTH,ComponentDrill
T4C1.000
; #@! TA.AperFunction,Plated,PTH,ComponentDrill
T5C1.050
; #@! TA.AperFunction,Plated,PTH,ComponentDrill
T6C1.200
; #@! TA.AperFunction,Plated,PTH,ComponentDrill
T7C1.270
; #@! TA.AperFunction,Plated,PTH,ComponentDrill
T8C1.300
%
G90
G05
T1
X180.34Y-137.922
X181.051Y-71.933
T2
X156.408Y-74.93
X158.408Y-74.93
T3
X154.94Y-81.28
X159.94Y-81.28
T4
X132.283Y-118.034
X132.283Y-133.274
X134.823Y-118.034
X134.823Y-133.274
X137.363Y-118.034
X137.363Y-133.274
X139.903Y-118.034
X139.903Y-133.274
X142.443Y-118.034
X142.443Y-133.274
X144.983Y-118.034
X144.983Y-133.274
X147.523Y-118.034
X147.523Y-133.274
X150.063Y-118.034
X150.063Y-133.274
X152.603Y-118.034
X152.603Y-133.274
X155.143Y-118.034
X155.143Y-133.274
X157.683Y-118.034
X157.683Y-133.274
X160.223Y-118.034
X160.223Y-133.274
X162.763Y-118.034
X162.763Y-133.274
X165.303Y-118.034
X165.303Y-133.274
X167.843Y-118.034
X167.843Y-133.274
X170.383Y-118.034
X170.383Y-133.274
X172.923Y-118.034
X172.923Y-133.274
X175.463Y-118.034
X175.463Y-133.274
X178.003Y-118.034
X178.003Y-133.274
X179.553Y-86.106
X179.553Y-88.646
X179.553Y-91.186
X179.553Y-93.726
X179.553Y-96.266
X179.553Y-98.806
X179.553Y-101.346
X180.543Y-118.034
X180.543Y-133.274
T5
X135.441Y-123.386
X135.441Y-127.886
T6
X151.155Y-87.605
X163.855Y-87.605
T8
X137.941Y-122.136
X137.941Y-129.136
T3
X140.071Y-56.602G85X137.101Y-59.572
G05
X139.44Y-69.118G85X145.64Y-69.118
G05
X149.534Y-59.495G85X149.534Y-65.695
G05
X164.915Y-59.02G85X164.915Y-65.22
G05
X174.538Y-69.114G85X168.338Y-69.114
G05
X177.431Y-59.651G85X174.461Y-56.681
G05
T7
X152.761Y-139.71G85X151.491Y-139.71
G05
X152.761Y-144.411G85X151.491Y-144.411
G05
X152.761Y-149.11G85X151.491Y-149.11
G05
X157.861Y-139.709G85X156.591Y-139.709
G05
X157.861Y-144.411G85X156.591Y-144.411
G05
X157.861Y-149.109G85X156.591Y-149.109
G05
X162.861Y-139.709G85X161.591Y-139.709
G05
X162.861Y-144.411G85X161.591Y-144.411
G05
X162.861Y-149.109G85X161.591Y-149.109
G05
T0
M30
