G04 #@! TF.GenerationSoftware,KiCad,Pcbnew,(6.0.9)*
G04 #@! TF.CreationDate,2022-11-21T10:51:55+01:00*
G04 #@! TF.ProjectId,Dohle TankVerb,446f686c-6520-4546-916e-6b566572622e,rev?*
G04 #@! TF.SameCoordinates,Original*
G04 #@! TF.FileFunction,Soldermask,Bot*
G04 #@! TF.FilePolarity,Negative*
%FSLAX46Y46*%
G04 Gerber Fmt 4.6, Leading zero omitted, Abs format (unit mm)*
G04 Created by KiCad (PCBNEW (6.0.9)) date 2022-11-21 10:51:55*
%MOMM*%
%LPD*%
G01*
G04 APERTURE LIST*
G04 Aperture macros list*
%AMRoundRect*
0 Rectangle with rounded corners*
0 $1 Rounding radius*
0 $2 $3 $4 $5 $6 $7 $8 $9 X,Y pos of 4 corners*
0 Add a 4 corners polygon primitive as box body*
4,1,4,$2,$3,$4,$5,$6,$7,$8,$9,$2,$3,0*
0 Add four circle primitives for the rounded corners*
1,1,$1+$1,$2,$3*
1,1,$1+$1,$4,$5*
1,1,$1+$1,$6,$7*
1,1,$1+$1,$8,$9*
0 Add four rect primitives between the rounded corners*
20,1,$1+$1,$2,$3,$4,$5,0*
20,1,$1+$1,$4,$5,$6,$7,0*
20,1,$1+$1,$6,$7,$8,$9,0*
20,1,$1+$1,$8,$9,$2,$3,0*%
%AMHorizOval*
0 Thick line with rounded ends*
0 $1 width*
0 $2 $3 position (X,Y) of the first rounded end (center of the circle)*
0 $4 $5 position (X,Y) of the second rounded end (center of the circle)*
0 Add line between two ends*
20,1,$1,$2,$3,$4,$5,0*
0 Add two circle primitives to create the rounded ends*
1,1,$1,$2,$3*
1,1,$1,$4,$5*%
G04 Aperture macros list end*
%ADD10C,0.200000*%
%ADD11C,2.200000*%
%ADD12R,1.700000X1.700000*%
%ADD13O,1.700000X1.700000*%
%ADD14RoundRect,0.250000X-0.350000X-0.625000X0.350000X-0.625000X0.350000X0.625000X-0.350000X0.625000X0*%
%ADD15O,1.200000X1.750000*%
%ADD16C,1.600000*%
%ADD17R,2.400000X2.400000*%
%ADD18O,2.400000X2.400000*%
%ADD19O,4.003200X2.743200*%
%ADD20O,8.203200X2.203200*%
%ADD21HorizOval,2.203200X-1.414214X1.414214X1.414214X-1.414214X0*%
%ADD22O,2.203200X8.203200*%
%ADD23HorizOval,2.203200X-1.414214X-1.414214X1.414214X1.414214X0*%
%ADD24C,1.700000*%
%ADD25C,1.575000*%
%ADD26C,1.950000*%
G04 APERTURE END LIST*
D10*
G36*
X164650574Y-90558475D02*
G01*
X164939668Y-90565867D01*
X165227908Y-90587880D01*
X165514661Y-90624251D01*
X165799292Y-90674719D01*
X166081166Y-90739022D01*
X166359648Y-90816897D01*
X166634104Y-90908082D01*
X166903898Y-91012316D01*
X167168396Y-91129336D01*
X167426964Y-91258880D01*
X167678966Y-91400686D01*
X167923767Y-91554492D01*
X168160734Y-91720035D01*
X168389231Y-91897055D01*
X168608623Y-92085288D01*
X168818276Y-92284473D01*
X169017461Y-92494126D01*
X169205694Y-92713518D01*
X169382713Y-92942015D01*
X169548257Y-93178981D01*
X169702063Y-93423783D01*
X169843869Y-93675785D01*
X169973413Y-93934352D01*
X170090433Y-94198851D01*
X170194667Y-94468645D01*
X170285852Y-94743101D01*
X170363727Y-95021583D01*
X170428030Y-95303457D01*
X170478498Y-95588087D01*
X170514869Y-95874840D01*
X170536882Y-96163081D01*
X170544274Y-96452174D01*
X170537577Y-96726823D01*
X170517718Y-97000749D01*
X170484912Y-97273404D01*
X170439373Y-97544238D01*
X170381316Y-97812703D01*
X170310957Y-98078250D01*
X170228509Y-98340329D01*
X170134188Y-98598393D01*
X170028209Y-98851891D01*
X169910786Y-99100275D01*
X169782134Y-99342997D01*
X169642468Y-99579507D01*
X169492003Y-99809256D01*
X169330953Y-100031695D01*
X169159534Y-100246276D01*
X168977959Y-100452449D01*
X168793317Y-100642835D01*
X168600065Y-100824144D01*
X168398684Y-100996183D01*
X168189659Y-101158757D01*
X167973472Y-101311670D01*
X167750607Y-101454728D01*
X167521546Y-101587735D01*
X167286771Y-101710498D01*
X167046768Y-101822821D01*
X166802017Y-101924509D01*
X166553002Y-102015367D01*
X166300206Y-102095201D01*
X166044112Y-102163816D01*
X165785203Y-102221016D01*
X165523963Y-102266608D01*
X165260873Y-102300395D01*
X165259437Y-102257998D01*
X165258568Y-102216659D01*
X165258323Y-102176104D01*
X165258759Y-102136058D01*
X165275732Y-102142402D01*
X165292906Y-102148316D01*
X165310302Y-102153670D01*
X165319090Y-102156098D01*
X165327943Y-102158338D01*
X165336861Y-102160374D01*
X165345849Y-102162191D01*
X165354909Y-102163772D01*
X165364043Y-102165101D01*
X165373255Y-102166163D01*
X165382548Y-102166941D01*
X165391923Y-102167420D01*
X165401383Y-102167583D01*
X165417969Y-102167221D01*
X165434386Y-102166148D01*
X165450620Y-102164383D01*
X165466657Y-102161947D01*
X165482486Y-102158860D01*
X165498093Y-102155139D01*
X165513466Y-102150807D01*
X165528590Y-102145881D01*
X165543453Y-102140382D01*
X165558043Y-102134329D01*
X165572346Y-102127743D01*
X165586348Y-102120642D01*
X165600038Y-102113046D01*
X165613402Y-102104976D01*
X165626427Y-102096450D01*
X165639100Y-102087489D01*
X165660294Y-102075258D01*
X165681230Y-102062673D01*
X165722224Y-102036635D01*
X165761862Y-102009764D01*
X165799927Y-101982450D01*
X165836200Y-101955083D01*
X165870464Y-101928052D01*
X165902500Y-101901746D01*
X165932090Y-101876556D01*
X165959015Y-101852870D01*
X165983059Y-101831078D01*
X166021626Y-101794734D01*
X166054574Y-101761912D01*
X166057285Y-101758932D01*
X166059909Y-101755876D01*
X166062442Y-101752746D01*
X166064884Y-101749545D01*
X166067232Y-101746276D01*
X166069486Y-101742940D01*
X166071642Y-101739540D01*
X166073701Y-101736079D01*
X166231244Y-101455561D01*
X166403249Y-101135815D01*
X166615256Y-100723878D01*
X166850648Y-100240352D01*
X167092809Y-99705838D01*
X167325124Y-99140937D01*
X167432396Y-98853529D01*
X167530976Y-98566249D01*
X167565002Y-98461428D01*
X167594680Y-98359136D01*
X167620177Y-98259364D01*
X167641659Y-98162102D01*
X167659293Y-98067342D01*
X167673246Y-97975074D01*
X167683683Y-97885288D01*
X167690773Y-97797975D01*
X167694681Y-97713126D01*
X167695574Y-97630732D01*
X167693618Y-97550783D01*
X167688981Y-97473269D01*
X167681829Y-97398182D01*
X167672328Y-97325512D01*
X167660645Y-97255250D01*
X167646947Y-97187387D01*
X167631400Y-97121912D01*
X167614171Y-97058817D01*
X167575334Y-96939729D01*
X167531768Y-96830049D01*
X167484806Y-96729700D01*
X167435781Y-96638608D01*
X167386026Y-96556700D01*
X167336874Y-96483899D01*
X167289658Y-96420131D01*
X167288268Y-96418369D01*
X167286850Y-96416629D01*
X167285405Y-96414913D01*
X167283932Y-96413220D01*
X167282433Y-96411550D01*
X167280906Y-96409903D01*
X167279352Y-96408280D01*
X167277772Y-96406680D01*
X167202528Y-96328158D01*
X167131103Y-96246127D01*
X167063641Y-96160723D01*
X167000284Y-96072085D01*
X166941174Y-95980350D01*
X166886456Y-95885656D01*
X166836271Y-95788141D01*
X166790762Y-95687942D01*
X166750072Y-95585197D01*
X166714344Y-95480044D01*
X166683721Y-95372620D01*
X166658346Y-95263064D01*
X166638360Y-95151512D01*
X166623909Y-95038103D01*
X166615133Y-94922973D01*
X166612176Y-94806262D01*
X166612447Y-94769922D01*
X166613262Y-94733772D01*
X166614625Y-94697816D01*
X166616538Y-94662055D01*
X166619003Y-94626492D01*
X166622025Y-94591128D01*
X166625605Y-94555965D01*
X166629746Y-94521007D01*
X166629963Y-94519206D01*
X166630154Y-94517402D01*
X166630322Y-94515596D01*
X166630465Y-94513788D01*
X166630585Y-94511979D01*
X166630682Y-94510167D01*
X166630755Y-94508355D01*
X166630807Y-94506541D01*
X166649407Y-93623904D01*
X166649416Y-93623133D01*
X166649419Y-93622362D01*
X166649416Y-93621590D01*
X166649407Y-93620814D01*
X166648019Y-93558277D01*
X166643895Y-93496438D01*
X166637093Y-93435356D01*
X166627672Y-93375091D01*
X166615691Y-93315702D01*
X166601207Y-93257247D01*
X166584280Y-93199785D01*
X166564968Y-93143377D01*
X166543330Y-93088081D01*
X166519424Y-93033956D01*
X166493310Y-92981061D01*
X166465044Y-92929456D01*
X166434687Y-92879198D01*
X166402297Y-92830349D01*
X166367932Y-92782966D01*
X166331650Y-92737109D01*
X166293512Y-92692837D01*
X166253574Y-92650209D01*
X166211896Y-92609284D01*
X166168536Y-92570122D01*
X166123553Y-92532781D01*
X166077006Y-92497320D01*
X166028952Y-92463799D01*
X165979451Y-92432276D01*
X165928562Y-92402811D01*
X165876342Y-92375464D01*
X165822850Y-92350292D01*
X165768146Y-92327356D01*
X165712287Y-92306713D01*
X165655332Y-92288424D01*
X165597340Y-92272548D01*
X165538369Y-92259143D01*
X165479884Y-92241634D01*
X165422799Y-92225933D01*
X165367239Y-92211912D01*
X165313328Y-92199443D01*
X165261194Y-92188397D01*
X165210959Y-92178647D01*
X165162750Y-92170063D01*
X165116692Y-92162517D01*
X165115659Y-92162767D01*
X165114629Y-92163025D01*
X165113598Y-92163290D01*
X165112565Y-92163562D01*
X165110389Y-92162735D01*
X165108199Y-92161945D01*
X165105994Y-92161192D01*
X165103776Y-92160472D01*
X165066446Y-92153977D01*
X165044895Y-92150339D01*
X165033800Y-92148615D01*
X165022645Y-92147029D01*
X165023705Y-92147555D01*
X165000939Y-92144593D01*
X164978309Y-92142252D01*
X164955815Y-92140477D01*
X164933459Y-92139217D01*
X164911241Y-92138417D01*
X164889161Y-92138024D01*
X164867221Y-92137985D01*
X164845422Y-92138248D01*
X164844361Y-92138248D01*
X164844094Y-92137983D01*
X164843960Y-92137850D01*
X164843893Y-92137782D01*
X164843827Y-92137714D01*
X164804519Y-92139228D01*
X164765225Y-92141749D01*
X164726025Y-92145208D01*
X164687002Y-92149534D01*
X164609807Y-92160514D01*
X164534287Y-92174137D01*
X164461088Y-92189849D01*
X164390858Y-92207097D01*
X164324245Y-92225328D01*
X164261896Y-92243989D01*
X164204458Y-92262526D01*
X164152578Y-92280387D01*
X164068082Y-92311864D01*
X163994271Y-92342357D01*
X164000985Y-92339259D01*
X163983501Y-92345338D01*
X163965151Y-92350781D01*
X163946031Y-92355617D01*
X163926232Y-92359876D01*
X163884970Y-92366778D01*
X163842112Y-92371719D01*
X163798403Y-92374930D01*
X163754586Y-92376644D01*
X163711407Y-92377094D01*
X163669611Y-92376510D01*
X163629942Y-92375125D01*
X163593146Y-92373172D01*
X163531151Y-92368489D01*
X163474404Y-92362514D01*
X163471453Y-92362027D01*
X163468494Y-92361604D01*
X163465528Y-92361244D01*
X163462556Y-92360948D01*
X163459577Y-92360715D01*
X163456594Y-92360546D01*
X163453607Y-92360441D01*
X163450616Y-92360400D01*
X163385061Y-92361103D01*
X163322877Y-92363320D01*
X163263968Y-92366980D01*
X163208239Y-92372012D01*
X163155592Y-92378344D01*
X163105932Y-92385904D01*
X163059163Y-92394622D01*
X163015189Y-92404426D01*
X162973913Y-92415244D01*
X162935239Y-92427004D01*
X162899072Y-92439636D01*
X162865315Y-92453067D01*
X162833871Y-92467227D01*
X162804646Y-92482044D01*
X162777543Y-92497446D01*
X162752465Y-92513362D01*
X162740675Y-92521493D01*
X162729395Y-92529723D01*
X162718618Y-92538036D01*
X162708336Y-92546413D01*
X162698541Y-92554838D01*
X162689224Y-92563292D01*
X162680379Y-92571759D01*
X162671998Y-92580221D01*
X162664072Y-92588661D01*
X162656594Y-92597062D01*
X162649555Y-92605405D01*
X162642949Y-92613673D01*
X162636768Y-92621850D01*
X162631002Y-92629918D01*
X162625646Y-92637859D01*
X162620690Y-92645656D01*
X162616094Y-92653444D01*
X162611824Y-92661317D01*
X162607876Y-92669194D01*
X162604246Y-92676993D01*
X162600930Y-92684633D01*
X162597923Y-92692034D01*
X162595223Y-92699115D01*
X162592824Y-92705794D01*
X162590722Y-92711991D01*
X162588914Y-92717625D01*
X162586163Y-92726877D01*
X162584000Y-92735057D01*
X162582913Y-92742112D01*
X162582188Y-92749138D01*
X162581819Y-92756127D01*
X162581799Y-92763067D01*
X162582121Y-92769950D01*
X162582778Y-92776765D01*
X162583763Y-92783501D01*
X162585070Y-92790150D01*
X162586692Y-92796700D01*
X162588621Y-92803143D01*
X162590852Y-92809467D01*
X162593377Y-92815664D01*
X162596189Y-92821723D01*
X162599281Y-92827633D01*
X162602647Y-92833386D01*
X162606280Y-92838970D01*
X162610173Y-92844377D01*
X162614319Y-92849596D01*
X162618711Y-92854616D01*
X162623343Y-92859429D01*
X162628207Y-92864024D01*
X162633297Y-92868390D01*
X162638606Y-92872519D01*
X162644127Y-92876400D01*
X162649853Y-92880023D01*
X162655778Y-92883377D01*
X162661894Y-92886454D01*
X162668194Y-92889243D01*
X162674673Y-92891734D01*
X162681322Y-92893917D01*
X162688136Y-92895782D01*
X162695107Y-92897319D01*
X162810997Y-92922882D01*
X162937539Y-92954273D01*
X163012617Y-92974456D01*
X163093529Y-92997569D01*
X163176721Y-93023151D01*
X163262043Y-93051595D01*
X163347906Y-93082613D01*
X163432719Y-93115920D01*
X163514892Y-93151228D01*
X163554491Y-93169543D01*
X163592834Y-93188251D01*
X163629722Y-93207315D01*
X163664957Y-93226701D01*
X163698338Y-93246372D01*
X163729668Y-93266292D01*
X163746549Y-93287183D01*
X163776766Y-93326076D01*
X163796250Y-93352122D01*
X163818316Y-93382489D01*
X163842715Y-93417116D01*
X163869195Y-93455943D01*
X163899751Y-93502881D01*
X163929889Y-93551994D01*
X163958813Y-93602133D01*
X163985725Y-93652149D01*
X163998177Y-93676753D01*
X164009827Y-93700894D01*
X164020575Y-93724431D01*
X164030321Y-93747219D01*
X164038967Y-93769115D01*
X164046411Y-93789975D01*
X164052554Y-93809656D01*
X164057297Y-93828014D01*
X164072681Y-93891563D01*
X164088707Y-93952613D01*
X164119366Y-94068420D01*
X164132339Y-94123778D01*
X164137872Y-94150952D01*
X164142632Y-94177840D01*
X164146515Y-94204480D01*
X164149418Y-94230908D01*
X164151235Y-94257163D01*
X164151864Y-94283282D01*
X164149915Y-94349874D01*
X164144140Y-94415403D01*
X164134648Y-94479764D01*
X164121547Y-94542848D01*
X164104947Y-94604548D01*
X164084956Y-94664757D01*
X164061682Y-94723369D01*
X164035234Y-94780275D01*
X164005721Y-94835368D01*
X163973252Y-94888541D01*
X163937935Y-94939687D01*
X163899879Y-94988699D01*
X163859192Y-95035469D01*
X163815984Y-95079891D01*
X163770362Y-95121856D01*
X163722436Y-95161258D01*
X163720385Y-95162871D01*
X163718365Y-95164522D01*
X163716377Y-95166211D01*
X163714421Y-95167937D01*
X163712498Y-95169701D01*
X163710608Y-95171502D01*
X163708753Y-95173339D01*
X163706933Y-95175212D01*
X163173112Y-95734866D01*
X162788179Y-96137793D01*
X162587617Y-96346713D01*
X162471307Y-96471040D01*
X162362170Y-96602266D01*
X162259962Y-96739679D01*
X162164438Y-96882566D01*
X162075355Y-97030213D01*
X161992468Y-97181908D01*
X161915534Y-97336939D01*
X161844309Y-97494591D01*
X161778548Y-97654152D01*
X161718008Y-97814910D01*
X161662444Y-97976151D01*
X161611613Y-98137162D01*
X161565271Y-98297230D01*
X161523174Y-98455643D01*
X161450738Y-98764651D01*
X161419965Y-98913918D01*
X161392602Y-99058860D01*
X161368452Y-99198744D01*
X161347318Y-99332840D01*
X161329005Y-99460415D01*
X161313315Y-99580737D01*
X161289018Y-99796693D01*
X161272858Y-99974853D01*
X161263261Y-100109361D01*
X161257470Y-100223994D01*
X161257463Y-100225679D01*
X161257478Y-100227362D01*
X161257514Y-100229044D01*
X161257571Y-100230724D01*
X161257649Y-100232404D01*
X161257747Y-100234083D01*
X161257865Y-100235760D01*
X161258004Y-100237437D01*
X161259996Y-100278738D01*
X161260313Y-100318482D01*
X161259060Y-100356686D01*
X161256343Y-100393366D01*
X161252267Y-100428537D01*
X161246939Y-100462217D01*
X161240464Y-100494420D01*
X161232948Y-100525164D01*
X161224496Y-100554464D01*
X161215215Y-100582336D01*
X161205209Y-100608796D01*
X161194586Y-100633861D01*
X161183450Y-100657547D01*
X161171907Y-100679869D01*
X161160063Y-100700843D01*
X161148024Y-100720487D01*
X161135896Y-100738815D01*
X161123783Y-100755844D01*
X161111793Y-100771591D01*
X161100030Y-100786070D01*
X161077611Y-100811293D01*
X161057370Y-100831641D01*
X161040156Y-100847243D01*
X161026812Y-100858229D01*
X161015122Y-100866862D01*
X161012940Y-100868462D01*
X161010790Y-100870104D01*
X161008672Y-100871786D01*
X161006586Y-100873510D01*
X161004533Y-100875274D01*
X161002515Y-100877078D01*
X161000531Y-100878924D01*
X160998582Y-100880809D01*
X160893166Y-100984676D01*
X160772934Y-100882253D01*
X160655427Y-100776713D01*
X160540727Y-100668133D01*
X160428917Y-100556588D01*
X160320080Y-100442153D01*
X160214301Y-100324904D01*
X160111660Y-100204916D01*
X160012242Y-100082265D01*
X159916130Y-99957026D01*
X159823406Y-99829276D01*
X159734154Y-99699088D01*
X159648456Y-99566540D01*
X159566396Y-99431706D01*
X159488057Y-99294663D01*
X159413522Y-99155484D01*
X159342873Y-99014247D01*
X159272983Y-98864061D01*
X159207397Y-98711956D01*
X159146141Y-98558060D01*
X159089245Y-98402499D01*
X159036737Y-98245401D01*
X158988646Y-98086892D01*
X158944999Y-97927100D01*
X158905825Y-97766151D01*
X158871153Y-97604171D01*
X158841010Y-97441289D01*
X158815425Y-97277630D01*
X158794426Y-97113323D01*
X158778042Y-96948492D01*
X158766300Y-96783267D01*
X158759230Y-96617772D01*
X158756859Y-96452136D01*
X158764252Y-96163042D01*
X158786264Y-95874800D01*
X158822636Y-95588046D01*
X158873104Y-95303415D01*
X158937407Y-95021541D01*
X159015282Y-94743059D01*
X159106467Y-94468603D01*
X159210701Y-94198809D01*
X159327721Y-93934311D01*
X159457265Y-93675743D01*
X159599070Y-93423741D01*
X159752876Y-93178939D01*
X159918420Y-92941972D01*
X160095440Y-92713474D01*
X160283673Y-92494081D01*
X160482857Y-92284427D01*
X160692510Y-92085243D01*
X160911903Y-91897011D01*
X161140400Y-91719993D01*
X161377366Y-91554450D01*
X161622168Y-91400645D01*
X161874170Y-91258840D01*
X162132737Y-91129296D01*
X162397236Y-91012277D01*
X162667030Y-90908043D01*
X162941485Y-90816858D01*
X163219968Y-90738983D01*
X163501841Y-90674681D01*
X163786472Y-90624213D01*
X164073225Y-90587841D01*
X164361466Y-90565829D01*
X164650559Y-90558437D01*
X164650574Y-90558475D01*
G37*
X164650574Y-90558475D02*
X164939668Y-90565867D01*
X165227908Y-90587880D01*
X165514661Y-90624251D01*
X165799292Y-90674719D01*
X166081166Y-90739022D01*
X166359648Y-90816897D01*
X166634104Y-90908082D01*
X166903898Y-91012316D01*
X167168396Y-91129336D01*
X167426964Y-91258880D01*
X167678966Y-91400686D01*
X167923767Y-91554492D01*
X168160734Y-91720035D01*
X168389231Y-91897055D01*
X168608623Y-92085288D01*
X168818276Y-92284473D01*
X169017461Y-92494126D01*
X169205694Y-92713518D01*
X169382713Y-92942015D01*
X169548257Y-93178981D01*
X169702063Y-93423783D01*
X169843869Y-93675785D01*
X169973413Y-93934352D01*
X170090433Y-94198851D01*
X170194667Y-94468645D01*
X170285852Y-94743101D01*
X170363727Y-95021583D01*
X170428030Y-95303457D01*
X170478498Y-95588087D01*
X170514869Y-95874840D01*
X170536882Y-96163081D01*
X170544274Y-96452174D01*
X170537577Y-96726823D01*
X170517718Y-97000749D01*
X170484912Y-97273404D01*
X170439373Y-97544238D01*
X170381316Y-97812703D01*
X170310957Y-98078250D01*
X170228509Y-98340329D01*
X170134188Y-98598393D01*
X170028209Y-98851891D01*
X169910786Y-99100275D01*
X169782134Y-99342997D01*
X169642468Y-99579507D01*
X169492003Y-99809256D01*
X169330953Y-100031695D01*
X169159534Y-100246276D01*
X168977959Y-100452449D01*
X168793317Y-100642835D01*
X168600065Y-100824144D01*
X168398684Y-100996183D01*
X168189659Y-101158757D01*
X167973472Y-101311670D01*
X167750607Y-101454728D01*
X167521546Y-101587735D01*
X167286771Y-101710498D01*
X167046768Y-101822821D01*
X166802017Y-101924509D01*
X166553002Y-102015367D01*
X166300206Y-102095201D01*
X166044112Y-102163816D01*
X165785203Y-102221016D01*
X165523963Y-102266608D01*
X165260873Y-102300395D01*
X165259437Y-102257998D01*
X165258568Y-102216659D01*
X165258323Y-102176104D01*
X165258759Y-102136058D01*
X165275732Y-102142402D01*
X165292906Y-102148316D01*
X165310302Y-102153670D01*
X165319090Y-102156098D01*
X165327943Y-102158338D01*
X165336861Y-102160374D01*
X165345849Y-102162191D01*
X165354909Y-102163772D01*
X165364043Y-102165101D01*
X165373255Y-102166163D01*
X165382548Y-102166941D01*
X165391923Y-102167420D01*
X165401383Y-102167583D01*
X165417969Y-102167221D01*
X165434386Y-102166148D01*
X165450620Y-102164383D01*
X165466657Y-102161947D01*
X165482486Y-102158860D01*
X165498093Y-102155139D01*
X165513466Y-102150807D01*
X165528590Y-102145881D01*
X165543453Y-102140382D01*
X165558043Y-102134329D01*
X165572346Y-102127743D01*
X165586348Y-102120642D01*
X165600038Y-102113046D01*
X165613402Y-102104976D01*
X165626427Y-102096450D01*
X165639100Y-102087489D01*
X165660294Y-102075258D01*
X165681230Y-102062673D01*
X165722224Y-102036635D01*
X165761862Y-102009764D01*
X165799927Y-101982450D01*
X165836200Y-101955083D01*
X165870464Y-101928052D01*
X165902500Y-101901746D01*
X165932090Y-101876556D01*
X165959015Y-101852870D01*
X165983059Y-101831078D01*
X166021626Y-101794734D01*
X166054574Y-101761912D01*
X166057285Y-101758932D01*
X166059909Y-101755876D01*
X166062442Y-101752746D01*
X166064884Y-101749545D01*
X166067232Y-101746276D01*
X166069486Y-101742940D01*
X166071642Y-101739540D01*
X166073701Y-101736079D01*
X166231244Y-101455561D01*
X166403249Y-101135815D01*
X166615256Y-100723878D01*
X166850648Y-100240352D01*
X167092809Y-99705838D01*
X167325124Y-99140937D01*
X167432396Y-98853529D01*
X167530976Y-98566249D01*
X167565002Y-98461428D01*
X167594680Y-98359136D01*
X167620177Y-98259364D01*
X167641659Y-98162102D01*
X167659293Y-98067342D01*
X167673246Y-97975074D01*
X167683683Y-97885288D01*
X167690773Y-97797975D01*
X167694681Y-97713126D01*
X167695574Y-97630732D01*
X167693618Y-97550783D01*
X167688981Y-97473269D01*
X167681829Y-97398182D01*
X167672328Y-97325512D01*
X167660645Y-97255250D01*
X167646947Y-97187387D01*
X167631400Y-97121912D01*
X167614171Y-97058817D01*
X167575334Y-96939729D01*
X167531768Y-96830049D01*
X167484806Y-96729700D01*
X167435781Y-96638608D01*
X167386026Y-96556700D01*
X167336874Y-96483899D01*
X167289658Y-96420131D01*
X167288268Y-96418369D01*
X167286850Y-96416629D01*
X167285405Y-96414913D01*
X167283932Y-96413220D01*
X167282433Y-96411550D01*
X167280906Y-96409903D01*
X167279352Y-96408280D01*
X167277772Y-96406680D01*
X167202528Y-96328158D01*
X167131103Y-96246127D01*
X167063641Y-96160723D01*
X167000284Y-96072085D01*
X166941174Y-95980350D01*
X166886456Y-95885656D01*
X166836271Y-95788141D01*
X166790762Y-95687942D01*
X166750072Y-95585197D01*
X166714344Y-95480044D01*
X166683721Y-95372620D01*
X166658346Y-95263064D01*
X166638360Y-95151512D01*
X166623909Y-95038103D01*
X166615133Y-94922973D01*
X166612176Y-94806262D01*
X166612447Y-94769922D01*
X166613262Y-94733772D01*
X166614625Y-94697816D01*
X166616538Y-94662055D01*
X166619003Y-94626492D01*
X166622025Y-94591128D01*
X166625605Y-94555965D01*
X166629746Y-94521007D01*
X166629963Y-94519206D01*
X166630154Y-94517402D01*
X166630322Y-94515596D01*
X166630465Y-94513788D01*
X166630585Y-94511979D01*
X166630682Y-94510167D01*
X166630755Y-94508355D01*
X166630807Y-94506541D01*
X166649407Y-93623904D01*
X166649416Y-93623133D01*
X166649419Y-93622362D01*
X166649416Y-93621590D01*
X166649407Y-93620814D01*
X166648019Y-93558277D01*
X166643895Y-93496438D01*
X166637093Y-93435356D01*
X166627672Y-93375091D01*
X166615691Y-93315702D01*
X166601207Y-93257247D01*
X166584280Y-93199785D01*
X166564968Y-93143377D01*
X166543330Y-93088081D01*
X166519424Y-93033956D01*
X166493310Y-92981061D01*
X166465044Y-92929456D01*
X166434687Y-92879198D01*
X166402297Y-92830349D01*
X166367932Y-92782966D01*
X166331650Y-92737109D01*
X166293512Y-92692837D01*
X166253574Y-92650209D01*
X166211896Y-92609284D01*
X166168536Y-92570122D01*
X166123553Y-92532781D01*
X166077006Y-92497320D01*
X166028952Y-92463799D01*
X165979451Y-92432276D01*
X165928562Y-92402811D01*
X165876342Y-92375464D01*
X165822850Y-92350292D01*
X165768146Y-92327356D01*
X165712287Y-92306713D01*
X165655332Y-92288424D01*
X165597340Y-92272548D01*
X165538369Y-92259143D01*
X165479884Y-92241634D01*
X165422799Y-92225933D01*
X165367239Y-92211912D01*
X165313328Y-92199443D01*
X165261194Y-92188397D01*
X165210959Y-92178647D01*
X165162750Y-92170063D01*
X165116692Y-92162517D01*
X165115659Y-92162767D01*
X165114629Y-92163025D01*
X165113598Y-92163290D01*
X165112565Y-92163562D01*
X165110389Y-92162735D01*
X165108199Y-92161945D01*
X165105994Y-92161192D01*
X165103776Y-92160472D01*
X165066446Y-92153977D01*
X165044895Y-92150339D01*
X165033800Y-92148615D01*
X165022645Y-92147029D01*
X165023705Y-92147555D01*
X165000939Y-92144593D01*
X164978309Y-92142252D01*
X164955815Y-92140477D01*
X164933459Y-92139217D01*
X164911241Y-92138417D01*
X164889161Y-92138024D01*
X164867221Y-92137985D01*
X164845422Y-92138248D01*
X164844361Y-92138248D01*
X164844094Y-92137983D01*
X164843960Y-92137850D01*
X164843893Y-92137782D01*
X164843827Y-92137714D01*
X164804519Y-92139228D01*
X164765225Y-92141749D01*
X164726025Y-92145208D01*
X164687002Y-92149534D01*
X164609807Y-92160514D01*
X164534287Y-92174137D01*
X164461088Y-92189849D01*
X164390858Y-92207097D01*
X164324245Y-92225328D01*
X164261896Y-92243989D01*
X164204458Y-92262526D01*
X164152578Y-92280387D01*
X164068082Y-92311864D01*
X163994271Y-92342357D01*
X164000985Y-92339259D01*
X163983501Y-92345338D01*
X163965151Y-92350781D01*
X163946031Y-92355617D01*
X163926232Y-92359876D01*
X163884970Y-92366778D01*
X163842112Y-92371719D01*
X163798403Y-92374930D01*
X163754586Y-92376644D01*
X163711407Y-92377094D01*
X163669611Y-92376510D01*
X163629942Y-92375125D01*
X163593146Y-92373172D01*
X163531151Y-92368489D01*
X163474404Y-92362514D01*
X163471453Y-92362027D01*
X163468494Y-92361604D01*
X163465528Y-92361244D01*
X163462556Y-92360948D01*
X163459577Y-92360715D01*
X163456594Y-92360546D01*
X163453607Y-92360441D01*
X163450616Y-92360400D01*
X163385061Y-92361103D01*
X163322877Y-92363320D01*
X163263968Y-92366980D01*
X163208239Y-92372012D01*
X163155592Y-92378344D01*
X163105932Y-92385904D01*
X163059163Y-92394622D01*
X163015189Y-92404426D01*
X162973913Y-92415244D01*
X162935239Y-92427004D01*
X162899072Y-92439636D01*
X162865315Y-92453067D01*
X162833871Y-92467227D01*
X162804646Y-92482044D01*
X162777543Y-92497446D01*
X162752465Y-92513362D01*
X162740675Y-92521493D01*
X162729395Y-92529723D01*
X162718618Y-92538036D01*
X162708336Y-92546413D01*
X162698541Y-92554838D01*
X162689224Y-92563292D01*
X162680379Y-92571759D01*
X162671998Y-92580221D01*
X162664072Y-92588661D01*
X162656594Y-92597062D01*
X162649555Y-92605405D01*
X162642949Y-92613673D01*
X162636768Y-92621850D01*
X162631002Y-92629918D01*
X162625646Y-92637859D01*
X162620690Y-92645656D01*
X162616094Y-92653444D01*
X162611824Y-92661317D01*
X162607876Y-92669194D01*
X162604246Y-92676993D01*
X162600930Y-92684633D01*
X162597923Y-92692034D01*
X162595223Y-92699115D01*
X162592824Y-92705794D01*
X162590722Y-92711991D01*
X162588914Y-92717625D01*
X162586163Y-92726877D01*
X162584000Y-92735057D01*
X162582913Y-92742112D01*
X162582188Y-92749138D01*
X162581819Y-92756127D01*
X162581799Y-92763067D01*
X162582121Y-92769950D01*
X162582778Y-92776765D01*
X162583763Y-92783501D01*
X162585070Y-92790150D01*
X162586692Y-92796700D01*
X162588621Y-92803143D01*
X162590852Y-92809467D01*
X162593377Y-92815664D01*
X162596189Y-92821723D01*
X162599281Y-92827633D01*
X162602647Y-92833386D01*
X162606280Y-92838970D01*
X162610173Y-92844377D01*
X162614319Y-92849596D01*
X162618711Y-92854616D01*
X162623343Y-92859429D01*
X162628207Y-92864024D01*
X162633297Y-92868390D01*
X162638606Y-92872519D01*
X162644127Y-92876400D01*
X162649853Y-92880023D01*
X162655778Y-92883377D01*
X162661894Y-92886454D01*
X162668194Y-92889243D01*
X162674673Y-92891734D01*
X162681322Y-92893917D01*
X162688136Y-92895782D01*
X162695107Y-92897319D01*
X162810997Y-92922882D01*
X162937539Y-92954273D01*
X163012617Y-92974456D01*
X163093529Y-92997569D01*
X163176721Y-93023151D01*
X163262043Y-93051595D01*
X163347906Y-93082613D01*
X163432719Y-93115920D01*
X163514892Y-93151228D01*
X163554491Y-93169543D01*
X163592834Y-93188251D01*
X163629722Y-93207315D01*
X163664957Y-93226701D01*
X163698338Y-93246372D01*
X163729668Y-93266292D01*
X163746549Y-93287183D01*
X163776766Y-93326076D01*
X163796250Y-93352122D01*
X163818316Y-93382489D01*
X163842715Y-93417116D01*
X163869195Y-93455943D01*
X163899751Y-93502881D01*
X163929889Y-93551994D01*
X163958813Y-93602133D01*
X163985725Y-93652149D01*
X163998177Y-93676753D01*
X164009827Y-93700894D01*
X164020575Y-93724431D01*
X164030321Y-93747219D01*
X164038967Y-93769115D01*
X164046411Y-93789975D01*
X164052554Y-93809656D01*
X164057297Y-93828014D01*
X164072681Y-93891563D01*
X164088707Y-93952613D01*
X164119366Y-94068420D01*
X164132339Y-94123778D01*
X164137872Y-94150952D01*
X164142632Y-94177840D01*
X164146515Y-94204480D01*
X164149418Y-94230908D01*
X164151235Y-94257163D01*
X164151864Y-94283282D01*
X164149915Y-94349874D01*
X164144140Y-94415403D01*
X164134648Y-94479764D01*
X164121547Y-94542848D01*
X164104947Y-94604548D01*
X164084956Y-94664757D01*
X164061682Y-94723369D01*
X164035234Y-94780275D01*
X164005721Y-94835368D01*
X163973252Y-94888541D01*
X163937935Y-94939687D01*
X163899879Y-94988699D01*
X163859192Y-95035469D01*
X163815984Y-95079891D01*
X163770362Y-95121856D01*
X163722436Y-95161258D01*
X163720385Y-95162871D01*
X163718365Y-95164522D01*
X163716377Y-95166211D01*
X163714421Y-95167937D01*
X163712498Y-95169701D01*
X163710608Y-95171502D01*
X163708753Y-95173339D01*
X163706933Y-95175212D01*
X163173112Y-95734866D01*
X162788179Y-96137793D01*
X162587617Y-96346713D01*
X162471307Y-96471040D01*
X162362170Y-96602266D01*
X162259962Y-96739679D01*
X162164438Y-96882566D01*
X162075355Y-97030213D01*
X161992468Y-97181908D01*
X161915534Y-97336939D01*
X161844309Y-97494591D01*
X161778548Y-97654152D01*
X161718008Y-97814910D01*
X161662444Y-97976151D01*
X161611613Y-98137162D01*
X161565271Y-98297230D01*
X161523174Y-98455643D01*
X161450738Y-98764651D01*
X161419965Y-98913918D01*
X161392602Y-99058860D01*
X161368452Y-99198744D01*
X161347318Y-99332840D01*
X161329005Y-99460415D01*
X161313315Y-99580737D01*
X161289018Y-99796693D01*
X161272858Y-99974853D01*
X161263261Y-100109361D01*
X161257470Y-100223994D01*
X161257463Y-100225679D01*
X161257478Y-100227362D01*
X161257514Y-100229044D01*
X161257571Y-100230724D01*
X161257649Y-100232404D01*
X161257747Y-100234083D01*
X161257865Y-100235760D01*
X161258004Y-100237437D01*
X161259996Y-100278738D01*
X161260313Y-100318482D01*
X161259060Y-100356686D01*
X161256343Y-100393366D01*
X161252267Y-100428537D01*
X161246939Y-100462217D01*
X161240464Y-100494420D01*
X161232948Y-100525164D01*
X161224496Y-100554464D01*
X161215215Y-100582336D01*
X161205209Y-100608796D01*
X161194586Y-100633861D01*
X161183450Y-100657547D01*
X161171907Y-100679869D01*
X161160063Y-100700843D01*
X161148024Y-100720487D01*
X161135896Y-100738815D01*
X161123783Y-100755844D01*
X161111793Y-100771591D01*
X161100030Y-100786070D01*
X161077611Y-100811293D01*
X161057370Y-100831641D01*
X161040156Y-100847243D01*
X161026812Y-100858229D01*
X161015122Y-100866862D01*
X161012940Y-100868462D01*
X161010790Y-100870104D01*
X161008672Y-100871786D01*
X161006586Y-100873510D01*
X161004533Y-100875274D01*
X161002515Y-100877078D01*
X161000531Y-100878924D01*
X160998582Y-100880809D01*
X160893166Y-100984676D01*
X160772934Y-100882253D01*
X160655427Y-100776713D01*
X160540727Y-100668133D01*
X160428917Y-100556588D01*
X160320080Y-100442153D01*
X160214301Y-100324904D01*
X160111660Y-100204916D01*
X160012242Y-100082265D01*
X159916130Y-99957026D01*
X159823406Y-99829276D01*
X159734154Y-99699088D01*
X159648456Y-99566540D01*
X159566396Y-99431706D01*
X159488057Y-99294663D01*
X159413522Y-99155484D01*
X159342873Y-99014247D01*
X159272983Y-98864061D01*
X159207397Y-98711956D01*
X159146141Y-98558060D01*
X159089245Y-98402499D01*
X159036737Y-98245401D01*
X158988646Y-98086892D01*
X158944999Y-97927100D01*
X158905825Y-97766151D01*
X158871153Y-97604171D01*
X158841010Y-97441289D01*
X158815425Y-97277630D01*
X158794426Y-97113323D01*
X158778042Y-96948492D01*
X158766300Y-96783267D01*
X158759230Y-96617772D01*
X158756859Y-96452136D01*
X158764252Y-96163042D01*
X158786264Y-95874800D01*
X158822636Y-95588046D01*
X158873104Y-95303415D01*
X158937407Y-95021541D01*
X159015282Y-94743059D01*
X159106467Y-94468603D01*
X159210701Y-94198809D01*
X159327721Y-93934311D01*
X159457265Y-93675743D01*
X159599070Y-93423741D01*
X159752876Y-93178939D01*
X159918420Y-92941972D01*
X160095440Y-92713474D01*
X160283673Y-92494081D01*
X160482857Y-92284427D01*
X160692510Y-92085243D01*
X160911903Y-91897011D01*
X161140400Y-91719993D01*
X161377366Y-91554450D01*
X161622168Y-91400645D01*
X161874170Y-91258840D01*
X162132737Y-91129296D01*
X162397236Y-91012277D01*
X162667030Y-90908043D01*
X162941485Y-90816858D01*
X163219968Y-90738983D01*
X163501841Y-90674681D01*
X163786472Y-90624213D01*
X164073225Y-90587841D01*
X164361466Y-90565829D01*
X164650559Y-90558437D01*
X164650574Y-90558475D01*
D11*
X135509000Y-93700600D03*
D12*
X179552600Y-86106000D03*
D13*
X179552600Y-88646000D03*
X179552600Y-91186000D03*
X179552600Y-93726000D03*
X179552600Y-96266000D03*
X179552600Y-98806000D03*
X179552600Y-101346000D03*
D14*
X156407919Y-74930000D03*
D15*
X158407919Y-74930000D03*
D16*
X154940000Y-81280000D03*
X159940000Y-81280000D03*
D17*
X163855400Y-87604600D03*
D18*
X151155400Y-87604600D03*
D19*
X162225962Y-139708959D03*
X162225962Y-144410519D03*
X162225962Y-149108959D03*
X157226482Y-139708959D03*
X157226482Y-144410519D03*
X157226482Y-149108959D03*
X152125962Y-139709719D03*
X152125962Y-144411279D03*
X152125962Y-149109719D03*
D20*
X171437559Y-69113936D03*
D21*
X175945800Y-58166000D03*
D22*
X164915057Y-62119877D03*
X149534000Y-62595200D03*
D23*
X138586064Y-58086959D03*
D20*
X142539941Y-69117702D03*
D12*
X132283200Y-133273800D03*
D24*
X134823200Y-133273800D03*
X137363200Y-133273800D03*
X139903200Y-133273800D03*
X142443200Y-133273800D03*
X144983200Y-133273800D03*
X147523200Y-133273800D03*
X150063200Y-133273800D03*
X152603200Y-133273800D03*
X155143200Y-133273800D03*
X157683200Y-133273800D03*
X160223200Y-133273800D03*
X162763200Y-133273800D03*
X165303200Y-133273800D03*
X167843200Y-133273800D03*
X170383200Y-133273800D03*
X172923200Y-133273800D03*
X175463200Y-133273800D03*
X178003200Y-133273800D03*
X180543200Y-133273800D03*
X180543200Y-118033800D03*
X178003200Y-118033800D03*
X175463200Y-118033800D03*
X172923200Y-118033800D03*
X170383200Y-118033800D03*
X167843200Y-118033800D03*
X165303200Y-118033800D03*
X162763200Y-118033800D03*
X160223200Y-118033800D03*
X157683200Y-118033800D03*
X155143200Y-118033800D03*
X152603200Y-118033800D03*
X150063200Y-118033800D03*
X147523200Y-118033800D03*
X144983200Y-118033800D03*
X142443200Y-118033800D03*
X139903200Y-118033800D03*
X137363200Y-118033800D03*
X134823200Y-118033800D03*
X132283200Y-118033800D03*
D25*
X135441000Y-127886400D03*
X135441000Y-123386400D03*
D26*
X137941000Y-129136400D03*
X137941000Y-122136400D03*
M02*
