%TF.GenerationSoftware,KiCad,Pcbnew,(6.0.9)*%
%TF.CreationDate,2022-11-21T10:52:18+01:00*%
%TF.ProjectId,Dohle TankVerb,446f686c-6520-4546-916e-6b566572622e,rev?*%
%TF.SameCoordinates,Original*%
%TF.FileFunction,Drillmap*%
%TF.FilePolarity,Positive*%
%FSLAX45Y45*%
G04 Gerber Fmt 4.5, Leading zero omitted, Abs format (unit mm)*
G04 Created by KiCad (PCBNEW (6.0.9)) date 2022-11-21 10:52:18*
%MOMM*%
%LPD*%
G01*
G04 APERTURE LIST*
%ADD10C,0.200000*%
%ADD11C,0.040000*%
%ADD12C,0.075000*%
%ADD13C,0.080000*%
%ADD14C,0.100000*%
%ADD15C,0.105000*%
%ADD16C,0.120000*%
%ADD17C,0.127000*%
%ADD18C,0.130000*%
G04 APERTURE END LIST*
D10*
X18385151Y-6185636D02*
G75*
G03*
X18297280Y-5973504I-300001J-4D01*
G01*
X13085148Y-6185636D02*
X13085148Y-14579587D01*
X13797279Y-15415984D02*
G75*
G03*
X14009412Y-15503851I212131J212134D01*
G01*
X18297281Y-14791720D02*
G75*
G03*
X18385148Y-14579587I-212131J212130D01*
G01*
X17673014Y-5349242D02*
G75*
G03*
X17460884Y-5261372I-212134J-212128D01*
G01*
X14009412Y-5261373D02*
G75*
G03*
X13797280Y-5349240I-2J-299997D01*
G01*
X14009412Y-15503851D02*
X17460884Y-15503851D01*
X13085151Y-14579587D02*
G75*
G03*
X13173016Y-14791719I299999J-3D01*
G01*
X18297280Y-5973504D02*
X17673016Y-5349240D01*
X13173016Y-14791719D02*
X13797280Y-15415983D01*
X17460884Y-15503853D02*
G75*
G03*
X17673016Y-15415983I-4J300004D01*
G01*
X18385148Y-14579587D02*
X18385148Y-6185636D01*
X13173017Y-5973506D02*
G75*
G03*
X13085148Y-6185636I212133J-212134D01*
G01*
X17673016Y-15415983D02*
X18297280Y-14791719D01*
X17460884Y-5261372D02*
X14009412Y-5261372D01*
X13797280Y-5349240D02*
X13173016Y-5973504D01*
D11*
X18014000Y-13772200D02*
X18054000Y-13812200D01*
X18054000Y-13772200D02*
X18014000Y-13812200D01*
X18085120Y-7173280D02*
X18125120Y-7213280D01*
X18125120Y-7173280D02*
X18085120Y-7213280D01*
D12*
X15678292Y-7493000D02*
G75*
G03*
X15678292Y-7493000I-37500J0D01*
G01*
X15878292Y-7493000D02*
G75*
G03*
X15878292Y-7493000I-37500J0D01*
G01*
D13*
X13858606Y-5768696D02*
X13858606Y-5848696D01*
X13818606Y-5808696D02*
X13898606Y-5808696D01*
D10*
X13978815Y-5631919D02*
X13681830Y-5928904D01*
X14035383Y-5688488D02*
X13738398Y-5985473D01*
X13681830Y-5928904D02*
G75*
G03*
X13738398Y-5985473I28284J-28284D01*
G01*
X14035383Y-5688488D02*
G75*
G03*
X13978814Y-5631919I-28284J28284D01*
G01*
D13*
X14253994Y-6871770D02*
X14253994Y-6951770D01*
X14213994Y-6911770D02*
X14293994Y-6911770D01*
D10*
X13943994Y-6951770D02*
X14563994Y-6951770D01*
X13943994Y-6871770D02*
X14563994Y-6871770D01*
X14563994Y-6951770D02*
G75*
G03*
X14563994Y-6871770I0J40000D01*
G01*
X13943994Y-6871770D02*
G75*
G03*
X13943994Y-6951770I0J-40000D01*
G01*
D13*
X14953400Y-6219520D02*
X14953400Y-6299520D01*
X14913400Y-6259520D02*
X14993400Y-6259520D01*
D10*
X14913400Y-5949520D02*
X14913400Y-6569520D01*
X14993400Y-5949520D02*
X14993400Y-6569520D01*
X14913400Y-6569520D02*
G75*
G03*
X14993400Y-6569520I40000J0D01*
G01*
X14993400Y-5949520D02*
G75*
G03*
X14913400Y-5949520I-40000J0D01*
G01*
D13*
X15494000Y-8088000D02*
X15494000Y-8168000D01*
X15454000Y-8128000D02*
X15534000Y-8128000D01*
X15994000Y-8088000D02*
X15994000Y-8168000D01*
X15954000Y-8128000D02*
X16034000Y-8128000D01*
X16491506Y-6171988D02*
X16491506Y-6251988D01*
X16451506Y-6211988D02*
X16531506Y-6211988D01*
D10*
X16451506Y-5901988D02*
X16451506Y-6521988D01*
X16531506Y-5901988D02*
X16531506Y-6521988D01*
X16451506Y-6521988D02*
G75*
G03*
X16531506Y-6521988I40000J0D01*
G01*
X16531506Y-5901988D02*
G75*
G03*
X16451506Y-5901988I-40000J0D01*
G01*
D13*
X17143756Y-6871394D02*
X17143756Y-6951394D01*
X17103756Y-6911394D02*
X17183756Y-6911394D01*
D10*
X17453756Y-6871394D02*
X16833756Y-6871394D01*
X17453756Y-6951394D02*
X16833756Y-6951394D01*
X16833756Y-6871394D02*
G75*
G03*
X16833756Y-6951394I0J-40000D01*
G01*
X17453756Y-6951394D02*
G75*
G03*
X17453756Y-6871394I0J40000D01*
G01*
D13*
X17594580Y-5776600D02*
X17594580Y-5856600D01*
X17554580Y-5816600D02*
X17634580Y-5816600D01*
D10*
X17771357Y-5936808D02*
X17474372Y-5639823D01*
X17714788Y-5993377D02*
X17417803Y-5696392D01*
X17474372Y-5639823D02*
G75*
G03*
X17417803Y-5696392I-28284J-28284D01*
G01*
X17714788Y-5993377D02*
G75*
G03*
X17771357Y-5936808I28284J28284D01*
G01*
D14*
X13263676Y-11838736D02*
X13263676Y-11768024D01*
X13192964Y-11768024D01*
X13192964Y-11838736D01*
X13263676Y-11838736D01*
X13263676Y-13362736D02*
X13263676Y-13292024D01*
X13192964Y-13292024D01*
X13192964Y-13362736D01*
X13263676Y-13362736D01*
X13517676Y-11838736D02*
X13517676Y-11768024D01*
X13446964Y-11768024D01*
X13446964Y-11838736D01*
X13517676Y-11838736D01*
X13517676Y-13362736D02*
X13517676Y-13292024D01*
X13446964Y-13292024D01*
X13446964Y-13362736D01*
X13517676Y-13362736D01*
X13771676Y-11838736D02*
X13771676Y-11768024D01*
X13700964Y-11768024D01*
X13700964Y-11838736D01*
X13771676Y-11838736D01*
X13771676Y-13362736D02*
X13771676Y-13292024D01*
X13700964Y-13292024D01*
X13700964Y-13362736D01*
X13771676Y-13362736D01*
X14025676Y-11838736D02*
X14025676Y-11768024D01*
X13954964Y-11768024D01*
X13954964Y-11838736D01*
X14025676Y-11838736D01*
X14025676Y-13362736D02*
X14025676Y-13292024D01*
X13954964Y-13292024D01*
X13954964Y-13362736D01*
X14025676Y-13362736D01*
X14279676Y-11838736D02*
X14279676Y-11768024D01*
X14208964Y-11768024D01*
X14208964Y-11838736D01*
X14279676Y-11838736D01*
X14279676Y-13362736D02*
X14279676Y-13292024D01*
X14208964Y-13292024D01*
X14208964Y-13362736D01*
X14279676Y-13362736D01*
X14533676Y-11838736D02*
X14533676Y-11768024D01*
X14462964Y-11768024D01*
X14462964Y-11838736D01*
X14533676Y-11838736D01*
X14533676Y-13362736D02*
X14533676Y-13292024D01*
X14462964Y-13292024D01*
X14462964Y-13362736D01*
X14533676Y-13362736D01*
X14787676Y-11838736D02*
X14787676Y-11768024D01*
X14716964Y-11768024D01*
X14716964Y-11838736D01*
X14787676Y-11838736D01*
X14787676Y-13362736D02*
X14787676Y-13292024D01*
X14716964Y-13292024D01*
X14716964Y-13362736D01*
X14787676Y-13362736D01*
X15041676Y-11838736D02*
X15041676Y-11768024D01*
X14970964Y-11768024D01*
X14970964Y-11838736D01*
X15041676Y-11838736D01*
X15041676Y-13362736D02*
X15041676Y-13292024D01*
X14970964Y-13292024D01*
X14970964Y-13362736D01*
X15041676Y-13362736D01*
X15295676Y-11838736D02*
X15295676Y-11768024D01*
X15224964Y-11768024D01*
X15224964Y-11838736D01*
X15295676Y-11838736D01*
X15295676Y-13362736D02*
X15295676Y-13292024D01*
X15224964Y-13292024D01*
X15224964Y-13362736D01*
X15295676Y-13362736D01*
X15549676Y-11838736D02*
X15549676Y-11768024D01*
X15478964Y-11768024D01*
X15478964Y-11838736D01*
X15549676Y-11838736D01*
X15549676Y-13362736D02*
X15549676Y-13292024D01*
X15478964Y-13292024D01*
X15478964Y-13362736D01*
X15549676Y-13362736D01*
X15803676Y-11838736D02*
X15803676Y-11768024D01*
X15732964Y-11768024D01*
X15732964Y-11838736D01*
X15803676Y-11838736D01*
X15803676Y-13362736D02*
X15803676Y-13292024D01*
X15732964Y-13292024D01*
X15732964Y-13362736D01*
X15803676Y-13362736D01*
X16057676Y-11838736D02*
X16057676Y-11768024D01*
X15986964Y-11768024D01*
X15986964Y-11838736D01*
X16057676Y-11838736D01*
X16057676Y-13362736D02*
X16057676Y-13292024D01*
X15986964Y-13292024D01*
X15986964Y-13362736D01*
X16057676Y-13362736D01*
X16311676Y-11838736D02*
X16311676Y-11768024D01*
X16240964Y-11768024D01*
X16240964Y-11838736D01*
X16311676Y-11838736D01*
X16311676Y-13362736D02*
X16311676Y-13292024D01*
X16240964Y-13292024D01*
X16240964Y-13362736D01*
X16311676Y-13362736D01*
X16565676Y-11838736D02*
X16565676Y-11768024D01*
X16494964Y-11768024D01*
X16494964Y-11838736D01*
X16565676Y-11838736D01*
X16565676Y-13362736D02*
X16565676Y-13292024D01*
X16494964Y-13292024D01*
X16494964Y-13362736D01*
X16565676Y-13362736D01*
X16819676Y-11838736D02*
X16819676Y-11768024D01*
X16748964Y-11768024D01*
X16748964Y-11838736D01*
X16819676Y-11838736D01*
X16819676Y-13362736D02*
X16819676Y-13292024D01*
X16748964Y-13292024D01*
X16748964Y-13362736D01*
X16819676Y-13362736D01*
X17073676Y-11838736D02*
X17073676Y-11768024D01*
X17002964Y-11768024D01*
X17002964Y-11838736D01*
X17073676Y-11838736D01*
X17073676Y-13362736D02*
X17073676Y-13292024D01*
X17002964Y-13292024D01*
X17002964Y-13362736D01*
X17073676Y-13362736D01*
X17327676Y-11838736D02*
X17327676Y-11768024D01*
X17256964Y-11768024D01*
X17256964Y-11838736D01*
X17327676Y-11838736D01*
X17327676Y-13362736D02*
X17327676Y-13292024D01*
X17256964Y-13292024D01*
X17256964Y-13362736D01*
X17327676Y-13362736D01*
X17581676Y-11838736D02*
X17581676Y-11768024D01*
X17510964Y-11768024D01*
X17510964Y-11838736D01*
X17581676Y-11838736D01*
X17581676Y-13362736D02*
X17581676Y-13292024D01*
X17510964Y-13292024D01*
X17510964Y-13362736D01*
X17581676Y-13362736D01*
X17835676Y-11838736D02*
X17835676Y-11768024D01*
X17764964Y-11768024D01*
X17764964Y-11838736D01*
X17835676Y-11838736D01*
X17835676Y-13362736D02*
X17835676Y-13292024D01*
X17764964Y-13292024D01*
X17764964Y-13362736D01*
X17835676Y-13362736D01*
X17990616Y-8645956D02*
X17990616Y-8575244D01*
X17919904Y-8575244D01*
X17919904Y-8645956D01*
X17990616Y-8645956D01*
X17990616Y-8899956D02*
X17990616Y-8829244D01*
X17919904Y-8829244D01*
X17919904Y-8899956D01*
X17990616Y-8899956D01*
X17990616Y-9153956D02*
X17990616Y-9083244D01*
X17919904Y-9083244D01*
X17919904Y-9153956D01*
X17990616Y-9153956D01*
X17990616Y-9407956D02*
X17990616Y-9337244D01*
X17919904Y-9337244D01*
X17919904Y-9407956D01*
X17990616Y-9407956D01*
X17990616Y-9661956D02*
X17990616Y-9591244D01*
X17919904Y-9591244D01*
X17919904Y-9661956D01*
X17990616Y-9661956D01*
X17990616Y-9915956D02*
X17990616Y-9845244D01*
X17919904Y-9845244D01*
X17919904Y-9915956D01*
X17990616Y-9915956D01*
X17990616Y-10169956D02*
X17990616Y-10099244D01*
X17919904Y-10099244D01*
X17919904Y-10169956D01*
X17990616Y-10169956D01*
X18089676Y-11838736D02*
X18089676Y-11768024D01*
X18018964Y-11768024D01*
X18018964Y-11838736D01*
X18089676Y-11838736D01*
X18089676Y-13362736D02*
X18089676Y-13292024D01*
X18018964Y-13292024D01*
X18018964Y-13362736D01*
X18089676Y-13362736D01*
D15*
X13544100Y-12391140D02*
X13596600Y-12338640D01*
X13544100Y-12286140D01*
X13491600Y-12338640D01*
X13544100Y-12391140D01*
X13544100Y-12841140D02*
X13596600Y-12788640D01*
X13544100Y-12736140D01*
X13491600Y-12788640D01*
X13544100Y-12841140D01*
D16*
X15055540Y-8700460D02*
X15175540Y-8820460D01*
X15175540Y-8700460D02*
X15055540Y-8820460D01*
X15175540Y-8760460D02*
G75*
G03*
X15175540Y-8760460I-60000J0D01*
G01*
X16325540Y-8700460D02*
X16445540Y-8820460D01*
X16445540Y-8700460D02*
X16325540Y-8820460D01*
X16445540Y-8760460D02*
G75*
G03*
X16445540Y-8760460I-60000J0D01*
G01*
D17*
X15149096Y-13907472D02*
X15276096Y-14034472D01*
X15276096Y-13907472D02*
X15149096Y-14034472D01*
X15212596Y-13907472D02*
X15212596Y-14034472D01*
X15149096Y-13970972D02*
X15276096Y-13970972D01*
D10*
X15276096Y-13907472D02*
X15149096Y-13907472D01*
X15276096Y-14034472D02*
X15149096Y-14034472D01*
X15149096Y-13907472D02*
G75*
G03*
X15149096Y-14034472I0J-63500D01*
G01*
X15276096Y-14034472D02*
G75*
G03*
X15276096Y-13907472I0J63500D01*
G01*
D17*
X15149096Y-14377628D02*
X15276096Y-14504628D01*
X15276096Y-14377628D02*
X15149096Y-14504628D01*
X15212596Y-14377628D02*
X15212596Y-14504628D01*
X15149096Y-14441128D02*
X15276096Y-14441128D01*
D10*
X15276096Y-14377628D02*
X15149096Y-14377628D01*
X15276096Y-14504628D02*
X15149096Y-14504628D01*
X15149096Y-14377628D02*
G75*
G03*
X15149096Y-14504628I0J-63500D01*
G01*
X15276096Y-14504628D02*
G75*
G03*
X15276096Y-14377628I0J63500D01*
G01*
D17*
X15149096Y-14847472D02*
X15276096Y-14974472D01*
X15276096Y-14847472D02*
X15149096Y-14974472D01*
X15212596Y-14847472D02*
X15212596Y-14974472D01*
X15149096Y-14910972D02*
X15276096Y-14910972D01*
D10*
X15276096Y-14847472D02*
X15149096Y-14847472D01*
X15276096Y-14974472D02*
X15149096Y-14974472D01*
X15149096Y-14847472D02*
G75*
G03*
X15149096Y-14974472I0J-63500D01*
G01*
X15276096Y-14974472D02*
G75*
G03*
X15276096Y-14847472I0J63500D01*
G01*
D17*
X15659148Y-13907396D02*
X15786148Y-14034396D01*
X15786148Y-13907396D02*
X15659148Y-14034396D01*
X15722648Y-13907396D02*
X15722648Y-14034396D01*
X15659148Y-13970896D02*
X15786148Y-13970896D01*
D10*
X15786148Y-13907396D02*
X15659148Y-13907396D01*
X15786148Y-14034396D02*
X15659148Y-14034396D01*
X15659148Y-13907396D02*
G75*
G03*
X15659148Y-14034396I0J-63500D01*
G01*
X15786148Y-14034396D02*
G75*
G03*
X15786148Y-13907396I0J63500D01*
G01*
D17*
X15659148Y-14377552D02*
X15786148Y-14504552D01*
X15786148Y-14377552D02*
X15659148Y-14504552D01*
X15722648Y-14377552D02*
X15722648Y-14504552D01*
X15659148Y-14441052D02*
X15786148Y-14441052D01*
D10*
X15786148Y-14377552D02*
X15659148Y-14377552D01*
X15786148Y-14504552D02*
X15659148Y-14504552D01*
X15659148Y-14377552D02*
G75*
G03*
X15659148Y-14504552I0J-63500D01*
G01*
X15786148Y-14504552D02*
G75*
G03*
X15786148Y-14377552I0J63500D01*
G01*
D17*
X15659148Y-14847396D02*
X15786148Y-14974396D01*
X15786148Y-14847396D02*
X15659148Y-14974396D01*
X15722648Y-14847396D02*
X15722648Y-14974396D01*
X15659148Y-14910896D02*
X15786148Y-14910896D01*
D10*
X15786148Y-14847396D02*
X15659148Y-14847396D01*
X15786148Y-14974396D02*
X15659148Y-14974396D01*
X15659148Y-14847396D02*
G75*
G03*
X15659148Y-14974396I0J-63500D01*
G01*
X15786148Y-14974396D02*
G75*
G03*
X15786148Y-14847396I0J63500D01*
G01*
D17*
X16159096Y-13907396D02*
X16286096Y-14034396D01*
X16286096Y-13907396D02*
X16159096Y-14034396D01*
X16222596Y-13907396D02*
X16222596Y-14034396D01*
X16159096Y-13970896D02*
X16286096Y-13970896D01*
D10*
X16286096Y-13907396D02*
X16159096Y-13907396D01*
X16286096Y-14034396D02*
X16159096Y-14034396D01*
X16159096Y-13907396D02*
G75*
G03*
X16159096Y-14034396I0J-63500D01*
G01*
X16286096Y-14034396D02*
G75*
G03*
X16286096Y-13907396I0J63500D01*
G01*
D17*
X16159096Y-14377552D02*
X16286096Y-14504552D01*
X16286096Y-14377552D02*
X16159096Y-14504552D01*
X16222596Y-14377552D02*
X16222596Y-14504552D01*
X16159096Y-14441052D02*
X16286096Y-14441052D01*
D10*
X16286096Y-14377552D02*
X16159096Y-14377552D01*
X16286096Y-14504552D02*
X16159096Y-14504552D01*
X16159096Y-14377552D02*
G75*
G03*
X16159096Y-14504552I0J-63500D01*
G01*
X16286096Y-14504552D02*
G75*
G03*
X16286096Y-14377552I0J63500D01*
G01*
D17*
X16159096Y-14847396D02*
X16286096Y-14974396D01*
X16286096Y-14847396D02*
X16159096Y-14974396D01*
X16222596Y-14847396D02*
X16222596Y-14974396D01*
X16159096Y-14910896D02*
X16286096Y-14910896D01*
D10*
X16286096Y-14847396D02*
X16159096Y-14847396D01*
X16286096Y-14974396D02*
X16159096Y-14974396D01*
X16159096Y-14847396D02*
G75*
G03*
X16159096Y-14974396I0J-63500D01*
G01*
X16286096Y-14974396D02*
G75*
G03*
X16286096Y-14847396I0J63500D01*
G01*
D18*
X13729100Y-12148640D02*
X13859100Y-12278640D01*
X13859100Y-12148640D02*
X13729100Y-12278640D01*
X13840062Y-12259602D02*
X13840062Y-12167678D01*
X13748138Y-12167678D01*
X13748138Y-12259602D01*
X13840062Y-12259602D01*
X13729100Y-12848640D02*
X13859100Y-12978640D01*
X13859100Y-12848640D02*
X13729100Y-12978640D01*
X13840062Y-12959602D02*
X13840062Y-12867678D01*
X13748138Y-12867678D01*
X13748138Y-12959602D01*
X13840062Y-12959602D01*
D10*
X13332767Y-15824327D02*
X13332767Y-15624327D01*
X13380386Y-15624327D01*
X13408957Y-15633851D01*
X13428005Y-15652898D01*
X13437529Y-15671946D01*
X13447053Y-15710041D01*
X13447053Y-15738613D01*
X13437529Y-15776708D01*
X13428005Y-15795756D01*
X13408957Y-15814803D01*
X13380386Y-15824327D01*
X13332767Y-15824327D01*
X13532767Y-15824327D02*
X13532767Y-15690994D01*
X13532767Y-15729089D02*
X13542291Y-15710041D01*
X13551815Y-15700517D01*
X13570862Y-15690994D01*
X13589910Y-15690994D01*
X13656576Y-15824327D02*
X13656576Y-15690994D01*
X13656576Y-15624327D02*
X13647053Y-15633851D01*
X13656576Y-15643375D01*
X13666100Y-15633851D01*
X13656576Y-15624327D01*
X13656576Y-15643375D01*
X13780386Y-15824327D02*
X13761338Y-15814803D01*
X13751815Y-15795756D01*
X13751815Y-15624327D01*
X13885148Y-15824327D02*
X13866100Y-15814803D01*
X13856576Y-15795756D01*
X13856576Y-15624327D01*
X14113719Y-15824327D02*
X14113719Y-15624327D01*
X14180386Y-15767184D01*
X14247053Y-15624327D01*
X14247053Y-15824327D01*
X14428005Y-15824327D02*
X14428005Y-15719565D01*
X14418481Y-15700517D01*
X14399434Y-15690994D01*
X14361338Y-15690994D01*
X14342291Y-15700517D01*
X14428005Y-15814803D02*
X14408957Y-15824327D01*
X14361338Y-15824327D01*
X14342291Y-15814803D01*
X14332767Y-15795756D01*
X14332767Y-15776708D01*
X14342291Y-15757660D01*
X14361338Y-15748137D01*
X14408957Y-15748137D01*
X14428005Y-15738613D01*
X14523243Y-15690994D02*
X14523243Y-15890994D01*
X14523243Y-15700517D02*
X14542291Y-15690994D01*
X14580386Y-15690994D01*
X14599434Y-15700517D01*
X14608957Y-15710041D01*
X14618481Y-15729089D01*
X14618481Y-15786232D01*
X14608957Y-15805279D01*
X14599434Y-15814803D01*
X14580386Y-15824327D01*
X14542291Y-15824327D01*
X14523243Y-15814803D01*
X14704196Y-15805279D02*
X14713719Y-15814803D01*
X14704196Y-15824327D01*
X14694672Y-15814803D01*
X14704196Y-15805279D01*
X14704196Y-15824327D01*
X14704196Y-15700517D02*
X14713719Y-15710041D01*
X14704196Y-15719565D01*
X14694672Y-15710041D01*
X14704196Y-15700517D01*
X14704196Y-15719565D01*
D11*
X13035148Y-16133851D02*
X13075148Y-16173851D01*
X13075148Y-16133851D02*
X13035148Y-16173851D01*
D10*
X13370862Y-16044327D02*
X13389910Y-16044327D01*
X13408957Y-16053851D01*
X13418481Y-16063375D01*
X13428005Y-16082422D01*
X13437529Y-16120517D01*
X13437529Y-16168137D01*
X13428005Y-16206232D01*
X13418481Y-16225279D01*
X13408957Y-16234803D01*
X13389910Y-16244327D01*
X13370862Y-16244327D01*
X13351815Y-16234803D01*
X13342291Y-16225279D01*
X13332767Y-16206232D01*
X13323243Y-16168137D01*
X13323243Y-16120517D01*
X13332767Y-16082422D01*
X13342291Y-16063375D01*
X13351815Y-16053851D01*
X13370862Y-16044327D01*
X13523243Y-16225279D02*
X13532767Y-16234803D01*
X13523243Y-16244327D01*
X13513719Y-16234803D01*
X13523243Y-16225279D01*
X13523243Y-16244327D01*
X13704196Y-16110994D02*
X13704196Y-16244327D01*
X13656576Y-16034803D02*
X13608957Y-16177660D01*
X13732767Y-16177660D01*
X13847053Y-16044327D02*
X13866100Y-16044327D01*
X13885148Y-16053851D01*
X13894672Y-16063375D01*
X13904196Y-16082422D01*
X13913719Y-16120517D01*
X13913719Y-16168137D01*
X13904196Y-16206232D01*
X13894672Y-16225279D01*
X13885148Y-16234803D01*
X13866100Y-16244327D01*
X13847053Y-16244327D01*
X13828005Y-16234803D01*
X13818481Y-16225279D01*
X13808957Y-16206232D01*
X13799434Y-16168137D01*
X13799434Y-16120517D01*
X13808957Y-16082422D01*
X13818481Y-16063375D01*
X13828005Y-16053851D01*
X13847053Y-16044327D01*
X14037529Y-16044327D02*
X14056576Y-16044327D01*
X14075624Y-16053851D01*
X14085148Y-16063375D01*
X14094672Y-16082422D01*
X14104196Y-16120517D01*
X14104196Y-16168137D01*
X14094672Y-16206232D01*
X14085148Y-16225279D01*
X14075624Y-16234803D01*
X14056576Y-16244327D01*
X14037529Y-16244327D01*
X14018481Y-16234803D01*
X14008957Y-16225279D01*
X13999434Y-16206232D01*
X13989910Y-16168137D01*
X13989910Y-16120517D01*
X13999434Y-16082422D01*
X14008957Y-16063375D01*
X14018481Y-16053851D01*
X14037529Y-16044327D01*
X14189910Y-16244327D02*
X14189910Y-16110994D01*
X14189910Y-16130041D02*
X14199434Y-16120517D01*
X14218481Y-16110994D01*
X14247053Y-16110994D01*
X14266100Y-16120517D01*
X14275624Y-16139565D01*
X14275624Y-16244327D01*
X14275624Y-16139565D02*
X14285148Y-16120517D01*
X14304196Y-16110994D01*
X14332767Y-16110994D01*
X14351815Y-16120517D01*
X14361338Y-16139565D01*
X14361338Y-16244327D01*
X14456576Y-16244327D02*
X14456576Y-16110994D01*
X14456576Y-16130041D02*
X14466100Y-16120517D01*
X14485148Y-16110994D01*
X14513719Y-16110994D01*
X14532767Y-16120517D01*
X14542291Y-16139565D01*
X14542291Y-16244327D01*
X14542291Y-16139565D02*
X14551815Y-16120517D01*
X14570862Y-16110994D01*
X14599434Y-16110994D01*
X14618481Y-16120517D01*
X14628005Y-16139565D01*
X14628005Y-16244327D01*
X15018481Y-16034803D02*
X14847053Y-16291946D01*
X15275624Y-16044327D02*
X15294672Y-16044327D01*
X15313719Y-16053851D01*
X15323243Y-16063375D01*
X15332767Y-16082422D01*
X15342291Y-16120517D01*
X15342291Y-16168137D01*
X15332767Y-16206232D01*
X15323243Y-16225279D01*
X15313719Y-16234803D01*
X15294672Y-16244327D01*
X15275624Y-16244327D01*
X15256576Y-16234803D01*
X15247053Y-16225279D01*
X15237529Y-16206232D01*
X15228005Y-16168137D01*
X15228005Y-16120517D01*
X15237529Y-16082422D01*
X15247053Y-16063375D01*
X15256576Y-16053851D01*
X15275624Y-16044327D01*
X15428005Y-16225279D02*
X15437529Y-16234803D01*
X15428005Y-16244327D01*
X15418481Y-16234803D01*
X15428005Y-16225279D01*
X15428005Y-16244327D01*
X15561338Y-16044327D02*
X15580386Y-16044327D01*
X15599434Y-16053851D01*
X15608957Y-16063375D01*
X15618481Y-16082422D01*
X15628005Y-16120517D01*
X15628005Y-16168137D01*
X15618481Y-16206232D01*
X15608957Y-16225279D01*
X15599434Y-16234803D01*
X15580386Y-16244327D01*
X15561338Y-16244327D01*
X15542291Y-16234803D01*
X15532767Y-16225279D01*
X15523243Y-16206232D01*
X15513719Y-16168137D01*
X15513719Y-16120517D01*
X15523243Y-16082422D01*
X15532767Y-16063375D01*
X15542291Y-16053851D01*
X15561338Y-16044327D01*
X15818481Y-16244327D02*
X15704196Y-16244327D01*
X15761338Y-16244327D02*
X15761338Y-16044327D01*
X15742291Y-16072898D01*
X15723243Y-16091946D01*
X15704196Y-16101470D01*
X15999434Y-16044327D02*
X15904196Y-16044327D01*
X15894672Y-16139565D01*
X15904196Y-16130041D01*
X15923243Y-16120517D01*
X15970862Y-16120517D01*
X15989910Y-16130041D01*
X15999434Y-16139565D01*
X16008957Y-16158613D01*
X16008957Y-16206232D01*
X15999434Y-16225279D01*
X15989910Y-16234803D01*
X15970862Y-16244327D01*
X15923243Y-16244327D01*
X15904196Y-16234803D01*
X15894672Y-16225279D01*
X16075624Y-16044327D02*
X16208957Y-16044327D01*
X16123243Y-16244327D01*
X16275624Y-16044327D02*
X16275624Y-16082422D01*
X16351815Y-16044327D02*
X16351815Y-16082422D01*
X16647053Y-16320517D02*
X16637529Y-16310994D01*
X16618481Y-16282422D01*
X16608957Y-16263375D01*
X16599434Y-16234803D01*
X16589910Y-16187184D01*
X16589910Y-16149089D01*
X16599434Y-16101470D01*
X16608957Y-16072898D01*
X16618481Y-16053851D01*
X16637529Y-16025279D01*
X16647053Y-16015756D01*
X16713719Y-16063375D02*
X16723243Y-16053851D01*
X16742291Y-16044327D01*
X16789910Y-16044327D01*
X16808958Y-16053851D01*
X16818481Y-16063375D01*
X16828005Y-16082422D01*
X16828005Y-16101470D01*
X16818481Y-16130041D01*
X16704196Y-16244327D01*
X16828005Y-16244327D01*
X17066100Y-16244327D02*
X17066100Y-16044327D01*
X17151815Y-16244327D02*
X17151815Y-16139565D01*
X17142291Y-16120517D01*
X17123243Y-16110994D01*
X17094672Y-16110994D01*
X17075624Y-16120517D01*
X17066100Y-16130041D01*
X17275624Y-16244327D02*
X17256577Y-16234803D01*
X17247053Y-16225279D01*
X17237529Y-16206232D01*
X17237529Y-16149089D01*
X17247053Y-16130041D01*
X17256577Y-16120517D01*
X17275624Y-16110994D01*
X17304196Y-16110994D01*
X17323243Y-16120517D01*
X17332767Y-16130041D01*
X17342291Y-16149089D01*
X17342291Y-16206232D01*
X17332767Y-16225279D01*
X17323243Y-16234803D01*
X17304196Y-16244327D01*
X17275624Y-16244327D01*
X17456577Y-16244327D02*
X17437529Y-16234803D01*
X17428005Y-16215756D01*
X17428005Y-16044327D01*
X17608958Y-16234803D02*
X17589910Y-16244327D01*
X17551815Y-16244327D01*
X17532767Y-16234803D01*
X17523243Y-16215756D01*
X17523243Y-16139565D01*
X17532767Y-16120517D01*
X17551815Y-16110994D01*
X17589910Y-16110994D01*
X17608958Y-16120517D01*
X17618481Y-16139565D01*
X17618481Y-16158613D01*
X17523243Y-16177660D01*
X17694672Y-16234803D02*
X17713719Y-16244327D01*
X17751815Y-16244327D01*
X17770862Y-16234803D01*
X17780386Y-16215756D01*
X17780386Y-16206232D01*
X17770862Y-16187184D01*
X17751815Y-16177660D01*
X17723243Y-16177660D01*
X17704196Y-16168137D01*
X17694672Y-16149089D01*
X17694672Y-16139565D01*
X17704196Y-16120517D01*
X17723243Y-16110994D01*
X17751815Y-16110994D01*
X17770862Y-16120517D01*
X17847053Y-16320517D02*
X17856577Y-16310994D01*
X17875624Y-16282422D01*
X17885148Y-16263375D01*
X17894672Y-16234803D01*
X17904196Y-16187184D01*
X17904196Y-16149089D01*
X17894672Y-16101470D01*
X17885148Y-16072898D01*
X17875624Y-16053851D01*
X17856577Y-16025279D01*
X17847053Y-16015756D01*
D12*
X13075148Y-16417851D02*
G75*
G03*
X13075148Y-16417851I-37500J0D01*
G01*
D10*
X13370862Y-16308327D02*
X13389910Y-16308327D01*
X13408957Y-16317851D01*
X13418481Y-16327375D01*
X13428005Y-16346422D01*
X13437529Y-16384517D01*
X13437529Y-16432137D01*
X13428005Y-16470232D01*
X13418481Y-16489279D01*
X13408957Y-16498803D01*
X13389910Y-16508327D01*
X13370862Y-16508327D01*
X13351815Y-16498803D01*
X13342291Y-16489279D01*
X13332767Y-16470232D01*
X13323243Y-16432137D01*
X13323243Y-16384517D01*
X13332767Y-16346422D01*
X13342291Y-16327375D01*
X13351815Y-16317851D01*
X13370862Y-16308327D01*
X13523243Y-16489279D02*
X13532767Y-16498803D01*
X13523243Y-16508327D01*
X13513719Y-16498803D01*
X13523243Y-16489279D01*
X13523243Y-16508327D01*
X13599434Y-16308327D02*
X13732767Y-16308327D01*
X13647053Y-16508327D01*
X13904196Y-16308327D02*
X13808957Y-16308327D01*
X13799434Y-16403565D01*
X13808957Y-16394041D01*
X13828005Y-16384517D01*
X13875624Y-16384517D01*
X13894672Y-16394041D01*
X13904196Y-16403565D01*
X13913719Y-16422613D01*
X13913719Y-16470232D01*
X13904196Y-16489279D01*
X13894672Y-16498803D01*
X13875624Y-16508327D01*
X13828005Y-16508327D01*
X13808957Y-16498803D01*
X13799434Y-16489279D01*
X14037529Y-16308327D02*
X14056576Y-16308327D01*
X14075624Y-16317851D01*
X14085148Y-16327375D01*
X14094672Y-16346422D01*
X14104196Y-16384517D01*
X14104196Y-16432137D01*
X14094672Y-16470232D01*
X14085148Y-16489279D01*
X14075624Y-16498803D01*
X14056576Y-16508327D01*
X14037529Y-16508327D01*
X14018481Y-16498803D01*
X14008957Y-16489279D01*
X13999434Y-16470232D01*
X13989910Y-16432137D01*
X13989910Y-16384517D01*
X13999434Y-16346422D01*
X14008957Y-16327375D01*
X14018481Y-16317851D01*
X14037529Y-16308327D01*
X14189910Y-16508327D02*
X14189910Y-16374994D01*
X14189910Y-16394041D02*
X14199434Y-16384517D01*
X14218481Y-16374994D01*
X14247053Y-16374994D01*
X14266100Y-16384517D01*
X14275624Y-16403565D01*
X14275624Y-16508327D01*
X14275624Y-16403565D02*
X14285148Y-16384517D01*
X14304196Y-16374994D01*
X14332767Y-16374994D01*
X14351815Y-16384517D01*
X14361338Y-16403565D01*
X14361338Y-16508327D01*
X14456576Y-16508327D02*
X14456576Y-16374994D01*
X14456576Y-16394041D02*
X14466100Y-16384517D01*
X14485148Y-16374994D01*
X14513719Y-16374994D01*
X14532767Y-16384517D01*
X14542291Y-16403565D01*
X14542291Y-16508327D01*
X14542291Y-16403565D02*
X14551815Y-16384517D01*
X14570862Y-16374994D01*
X14599434Y-16374994D01*
X14618481Y-16384517D01*
X14628005Y-16403565D01*
X14628005Y-16508327D01*
X15018481Y-16298803D02*
X14847053Y-16555946D01*
X15275624Y-16308327D02*
X15294672Y-16308327D01*
X15313719Y-16317851D01*
X15323243Y-16327375D01*
X15332767Y-16346422D01*
X15342291Y-16384517D01*
X15342291Y-16432137D01*
X15332767Y-16470232D01*
X15323243Y-16489279D01*
X15313719Y-16498803D01*
X15294672Y-16508327D01*
X15275624Y-16508327D01*
X15256576Y-16498803D01*
X15247053Y-16489279D01*
X15237529Y-16470232D01*
X15228005Y-16432137D01*
X15228005Y-16384517D01*
X15237529Y-16346422D01*
X15247053Y-16327375D01*
X15256576Y-16317851D01*
X15275624Y-16308327D01*
X15428005Y-16489279D02*
X15437529Y-16498803D01*
X15428005Y-16508327D01*
X15418481Y-16498803D01*
X15428005Y-16489279D01*
X15428005Y-16508327D01*
X15561338Y-16308327D02*
X15580386Y-16308327D01*
X15599434Y-16317851D01*
X15608957Y-16327375D01*
X15618481Y-16346422D01*
X15628005Y-16384517D01*
X15628005Y-16432137D01*
X15618481Y-16470232D01*
X15608957Y-16489279D01*
X15599434Y-16498803D01*
X15580386Y-16508327D01*
X15561338Y-16508327D01*
X15542291Y-16498803D01*
X15532767Y-16489279D01*
X15523243Y-16470232D01*
X15513719Y-16432137D01*
X15513719Y-16384517D01*
X15523243Y-16346422D01*
X15532767Y-16327375D01*
X15542291Y-16317851D01*
X15561338Y-16308327D01*
X15704196Y-16327375D02*
X15713719Y-16317851D01*
X15732767Y-16308327D01*
X15780386Y-16308327D01*
X15799434Y-16317851D01*
X15808957Y-16327375D01*
X15818481Y-16346422D01*
X15818481Y-16365470D01*
X15808957Y-16394041D01*
X15694672Y-16508327D01*
X15818481Y-16508327D01*
X15913719Y-16508327D02*
X15951815Y-16508327D01*
X15970862Y-16498803D01*
X15980386Y-16489279D01*
X15999434Y-16460708D01*
X16008957Y-16422613D01*
X16008957Y-16346422D01*
X15999434Y-16327375D01*
X15989910Y-16317851D01*
X15970862Y-16308327D01*
X15932767Y-16308327D01*
X15913719Y-16317851D01*
X15904196Y-16327375D01*
X15894672Y-16346422D01*
X15894672Y-16394041D01*
X15904196Y-16413089D01*
X15913719Y-16422613D01*
X15932767Y-16432137D01*
X15970862Y-16432137D01*
X15989910Y-16422613D01*
X15999434Y-16413089D01*
X16008957Y-16394041D01*
X16189910Y-16308327D02*
X16094672Y-16308327D01*
X16085148Y-16403565D01*
X16094672Y-16394041D01*
X16113719Y-16384517D01*
X16161338Y-16384517D01*
X16180386Y-16394041D01*
X16189910Y-16403565D01*
X16199434Y-16422613D01*
X16199434Y-16470232D01*
X16189910Y-16489279D01*
X16180386Y-16498803D01*
X16161338Y-16508327D01*
X16113719Y-16508327D01*
X16094672Y-16498803D01*
X16085148Y-16489279D01*
X16275624Y-16308327D02*
X16275624Y-16346422D01*
X16351815Y-16308327D02*
X16351815Y-16346422D01*
X16647053Y-16584517D02*
X16637529Y-16574994D01*
X16618481Y-16546422D01*
X16608957Y-16527375D01*
X16599434Y-16498803D01*
X16589910Y-16451184D01*
X16589910Y-16413089D01*
X16599434Y-16365470D01*
X16608957Y-16336898D01*
X16618481Y-16317851D01*
X16637529Y-16289279D01*
X16647053Y-16279756D01*
X16713719Y-16327375D02*
X16723243Y-16317851D01*
X16742291Y-16308327D01*
X16789910Y-16308327D01*
X16808958Y-16317851D01*
X16818481Y-16327375D01*
X16828005Y-16346422D01*
X16828005Y-16365470D01*
X16818481Y-16394041D01*
X16704196Y-16508327D01*
X16828005Y-16508327D01*
X17066100Y-16508327D02*
X17066100Y-16308327D01*
X17151815Y-16508327D02*
X17151815Y-16403565D01*
X17142291Y-16384517D01*
X17123243Y-16374994D01*
X17094672Y-16374994D01*
X17075624Y-16384517D01*
X17066100Y-16394041D01*
X17275624Y-16508327D02*
X17256577Y-16498803D01*
X17247053Y-16489279D01*
X17237529Y-16470232D01*
X17237529Y-16413089D01*
X17247053Y-16394041D01*
X17256577Y-16384517D01*
X17275624Y-16374994D01*
X17304196Y-16374994D01*
X17323243Y-16384517D01*
X17332767Y-16394041D01*
X17342291Y-16413089D01*
X17342291Y-16470232D01*
X17332767Y-16489279D01*
X17323243Y-16498803D01*
X17304196Y-16508327D01*
X17275624Y-16508327D01*
X17456577Y-16508327D02*
X17437529Y-16498803D01*
X17428005Y-16479756D01*
X17428005Y-16308327D01*
X17608958Y-16498803D02*
X17589910Y-16508327D01*
X17551815Y-16508327D01*
X17532767Y-16498803D01*
X17523243Y-16479756D01*
X17523243Y-16403565D01*
X17532767Y-16384517D01*
X17551815Y-16374994D01*
X17589910Y-16374994D01*
X17608958Y-16384517D01*
X17618481Y-16403565D01*
X17618481Y-16422613D01*
X17523243Y-16441660D01*
X17694672Y-16498803D02*
X17713719Y-16508327D01*
X17751815Y-16508327D01*
X17770862Y-16498803D01*
X17780386Y-16479756D01*
X17780386Y-16470232D01*
X17770862Y-16451184D01*
X17751815Y-16441660D01*
X17723243Y-16441660D01*
X17704196Y-16432137D01*
X17694672Y-16413089D01*
X17694672Y-16403565D01*
X17704196Y-16384517D01*
X17723243Y-16374994D01*
X17751815Y-16374994D01*
X17770862Y-16384517D01*
X17847053Y-16584517D02*
X17856577Y-16574994D01*
X17875624Y-16546422D01*
X17885148Y-16527375D01*
X17894672Y-16498803D01*
X17904196Y-16451184D01*
X17904196Y-16413089D01*
X17894672Y-16365470D01*
X17885148Y-16336898D01*
X17875624Y-16317851D01*
X17856577Y-16289279D01*
X17847053Y-16279756D01*
D13*
X13035148Y-16641851D02*
X13035148Y-16721851D01*
X12995148Y-16681851D02*
X13075148Y-16681851D01*
D10*
X13370862Y-16572327D02*
X13389910Y-16572327D01*
X13408957Y-16581851D01*
X13418481Y-16591375D01*
X13428005Y-16610422D01*
X13437529Y-16648517D01*
X13437529Y-16696137D01*
X13428005Y-16734232D01*
X13418481Y-16753279D01*
X13408957Y-16762803D01*
X13389910Y-16772327D01*
X13370862Y-16772327D01*
X13351815Y-16762803D01*
X13342291Y-16753279D01*
X13332767Y-16734232D01*
X13323243Y-16696137D01*
X13323243Y-16648517D01*
X13332767Y-16610422D01*
X13342291Y-16591375D01*
X13351815Y-16581851D01*
X13370862Y-16572327D01*
X13523243Y-16753279D02*
X13532767Y-16762803D01*
X13523243Y-16772327D01*
X13513719Y-16762803D01*
X13523243Y-16753279D01*
X13523243Y-16772327D01*
X13647053Y-16658041D02*
X13628005Y-16648517D01*
X13618481Y-16638994D01*
X13608957Y-16619946D01*
X13608957Y-16610422D01*
X13618481Y-16591375D01*
X13628005Y-16581851D01*
X13647053Y-16572327D01*
X13685148Y-16572327D01*
X13704196Y-16581851D01*
X13713719Y-16591375D01*
X13723243Y-16610422D01*
X13723243Y-16619946D01*
X13713719Y-16638994D01*
X13704196Y-16648517D01*
X13685148Y-16658041D01*
X13647053Y-16658041D01*
X13628005Y-16667565D01*
X13618481Y-16677089D01*
X13608957Y-16696137D01*
X13608957Y-16734232D01*
X13618481Y-16753279D01*
X13628005Y-16762803D01*
X13647053Y-16772327D01*
X13685148Y-16772327D01*
X13704196Y-16762803D01*
X13713719Y-16753279D01*
X13723243Y-16734232D01*
X13723243Y-16696137D01*
X13713719Y-16677089D01*
X13704196Y-16667565D01*
X13685148Y-16658041D01*
X13847053Y-16572327D02*
X13866100Y-16572327D01*
X13885148Y-16581851D01*
X13894672Y-16591375D01*
X13904196Y-16610422D01*
X13913719Y-16648517D01*
X13913719Y-16696137D01*
X13904196Y-16734232D01*
X13894672Y-16753279D01*
X13885148Y-16762803D01*
X13866100Y-16772327D01*
X13847053Y-16772327D01*
X13828005Y-16762803D01*
X13818481Y-16753279D01*
X13808957Y-16734232D01*
X13799434Y-16696137D01*
X13799434Y-16648517D01*
X13808957Y-16610422D01*
X13818481Y-16591375D01*
X13828005Y-16581851D01*
X13847053Y-16572327D01*
X14037529Y-16572327D02*
X14056576Y-16572327D01*
X14075624Y-16581851D01*
X14085148Y-16591375D01*
X14094672Y-16610422D01*
X14104196Y-16648517D01*
X14104196Y-16696137D01*
X14094672Y-16734232D01*
X14085148Y-16753279D01*
X14075624Y-16762803D01*
X14056576Y-16772327D01*
X14037529Y-16772327D01*
X14018481Y-16762803D01*
X14008957Y-16753279D01*
X13999434Y-16734232D01*
X13989910Y-16696137D01*
X13989910Y-16648517D01*
X13999434Y-16610422D01*
X14008957Y-16591375D01*
X14018481Y-16581851D01*
X14037529Y-16572327D01*
X14189910Y-16772327D02*
X14189910Y-16638994D01*
X14189910Y-16658041D02*
X14199434Y-16648517D01*
X14218481Y-16638994D01*
X14247053Y-16638994D01*
X14266100Y-16648517D01*
X14275624Y-16667565D01*
X14275624Y-16772327D01*
X14275624Y-16667565D02*
X14285148Y-16648517D01*
X14304196Y-16638994D01*
X14332767Y-16638994D01*
X14351815Y-16648517D01*
X14361338Y-16667565D01*
X14361338Y-16772327D01*
X14456576Y-16772327D02*
X14456576Y-16638994D01*
X14456576Y-16658041D02*
X14466100Y-16648517D01*
X14485148Y-16638994D01*
X14513719Y-16638994D01*
X14532767Y-16648517D01*
X14542291Y-16667565D01*
X14542291Y-16772327D01*
X14542291Y-16667565D02*
X14551815Y-16648517D01*
X14570862Y-16638994D01*
X14599434Y-16638994D01*
X14618481Y-16648517D01*
X14628005Y-16667565D01*
X14628005Y-16772327D01*
X15018481Y-16562803D02*
X14847053Y-16819946D01*
X15275624Y-16572327D02*
X15294672Y-16572327D01*
X15313719Y-16581851D01*
X15323243Y-16591375D01*
X15332767Y-16610422D01*
X15342291Y-16648517D01*
X15342291Y-16696137D01*
X15332767Y-16734232D01*
X15323243Y-16753279D01*
X15313719Y-16762803D01*
X15294672Y-16772327D01*
X15275624Y-16772327D01*
X15256576Y-16762803D01*
X15247053Y-16753279D01*
X15237529Y-16734232D01*
X15228005Y-16696137D01*
X15228005Y-16648517D01*
X15237529Y-16610422D01*
X15247053Y-16591375D01*
X15256576Y-16581851D01*
X15275624Y-16572327D01*
X15428005Y-16753279D02*
X15437529Y-16762803D01*
X15428005Y-16772327D01*
X15418481Y-16762803D01*
X15428005Y-16753279D01*
X15428005Y-16772327D01*
X15561338Y-16572327D02*
X15580386Y-16572327D01*
X15599434Y-16581851D01*
X15608957Y-16591375D01*
X15618481Y-16610422D01*
X15628005Y-16648517D01*
X15628005Y-16696137D01*
X15618481Y-16734232D01*
X15608957Y-16753279D01*
X15599434Y-16762803D01*
X15580386Y-16772327D01*
X15561338Y-16772327D01*
X15542291Y-16762803D01*
X15532767Y-16753279D01*
X15523243Y-16734232D01*
X15513719Y-16696137D01*
X15513719Y-16648517D01*
X15523243Y-16610422D01*
X15532767Y-16591375D01*
X15542291Y-16581851D01*
X15561338Y-16572327D01*
X15694672Y-16572327D02*
X15818481Y-16572327D01*
X15751815Y-16648517D01*
X15780386Y-16648517D01*
X15799434Y-16658041D01*
X15808957Y-16667565D01*
X15818481Y-16686613D01*
X15818481Y-16734232D01*
X15808957Y-16753279D01*
X15799434Y-16762803D01*
X15780386Y-16772327D01*
X15723243Y-16772327D01*
X15704196Y-16762803D01*
X15694672Y-16753279D01*
X16008957Y-16772327D02*
X15894672Y-16772327D01*
X15951815Y-16772327D02*
X15951815Y-16572327D01*
X15932767Y-16600898D01*
X15913719Y-16619946D01*
X15894672Y-16629470D01*
X16189910Y-16572327D02*
X16094672Y-16572327D01*
X16085148Y-16667565D01*
X16094672Y-16658041D01*
X16113719Y-16648517D01*
X16161338Y-16648517D01*
X16180386Y-16658041D01*
X16189910Y-16667565D01*
X16199434Y-16686613D01*
X16199434Y-16734232D01*
X16189910Y-16753279D01*
X16180386Y-16762803D01*
X16161338Y-16772327D01*
X16113719Y-16772327D01*
X16094672Y-16762803D01*
X16085148Y-16753279D01*
X16275624Y-16572327D02*
X16275624Y-16610422D01*
X16351815Y-16572327D02*
X16351815Y-16610422D01*
X16647053Y-16848518D02*
X16637529Y-16838994D01*
X16618481Y-16810422D01*
X16608957Y-16791375D01*
X16599434Y-16762803D01*
X16589910Y-16715184D01*
X16589910Y-16677089D01*
X16599434Y-16629470D01*
X16608957Y-16600898D01*
X16618481Y-16581851D01*
X16637529Y-16553279D01*
X16647053Y-16543756D01*
X16713719Y-16591375D02*
X16723243Y-16581851D01*
X16742291Y-16572327D01*
X16789910Y-16572327D01*
X16808958Y-16581851D01*
X16818481Y-16591375D01*
X16828005Y-16610422D01*
X16828005Y-16629470D01*
X16818481Y-16658041D01*
X16704196Y-16772327D01*
X16828005Y-16772327D01*
X17066100Y-16772327D02*
X17066100Y-16572327D01*
X17151815Y-16772327D02*
X17151815Y-16667565D01*
X17142291Y-16648517D01*
X17123243Y-16638994D01*
X17094672Y-16638994D01*
X17075624Y-16648517D01*
X17066100Y-16658041D01*
X17275624Y-16772327D02*
X17256577Y-16762803D01*
X17247053Y-16753279D01*
X17237529Y-16734232D01*
X17237529Y-16677089D01*
X17247053Y-16658041D01*
X17256577Y-16648517D01*
X17275624Y-16638994D01*
X17304196Y-16638994D01*
X17323243Y-16648517D01*
X17332767Y-16658041D01*
X17342291Y-16677089D01*
X17342291Y-16734232D01*
X17332767Y-16753279D01*
X17323243Y-16762803D01*
X17304196Y-16772327D01*
X17275624Y-16772327D01*
X17456577Y-16772327D02*
X17437529Y-16762803D01*
X17428005Y-16743756D01*
X17428005Y-16572327D01*
X17608958Y-16762803D02*
X17589910Y-16772327D01*
X17551815Y-16772327D01*
X17532767Y-16762803D01*
X17523243Y-16743756D01*
X17523243Y-16667565D01*
X17532767Y-16648517D01*
X17551815Y-16638994D01*
X17589910Y-16638994D01*
X17608958Y-16648517D01*
X17618481Y-16667565D01*
X17618481Y-16686613D01*
X17523243Y-16705660D01*
X17694672Y-16762803D02*
X17713719Y-16772327D01*
X17751815Y-16772327D01*
X17770862Y-16762803D01*
X17780386Y-16743756D01*
X17780386Y-16734232D01*
X17770862Y-16715184D01*
X17751815Y-16705660D01*
X17723243Y-16705660D01*
X17704196Y-16696137D01*
X17694672Y-16677089D01*
X17694672Y-16667565D01*
X17704196Y-16648517D01*
X17723243Y-16638994D01*
X17751815Y-16638994D01*
X17770862Y-16648517D01*
X18018481Y-16696137D02*
X18170862Y-16696137D01*
X18094672Y-16772327D02*
X18094672Y-16619946D01*
X18504196Y-16572327D02*
X18466100Y-16572327D01*
X18447053Y-16581851D01*
X18437529Y-16591375D01*
X18418481Y-16619946D01*
X18408958Y-16658041D01*
X18408958Y-16734232D01*
X18418481Y-16753279D01*
X18428005Y-16762803D01*
X18447053Y-16772327D01*
X18485148Y-16772327D01*
X18504196Y-16762803D01*
X18513719Y-16753279D01*
X18523243Y-16734232D01*
X18523243Y-16686613D01*
X18513719Y-16667565D01*
X18504196Y-16658041D01*
X18485148Y-16648517D01*
X18447053Y-16648517D01*
X18428005Y-16658041D01*
X18418481Y-16667565D01*
X18408958Y-16686613D01*
X18751815Y-16762803D02*
X18770862Y-16772327D01*
X18808958Y-16772327D01*
X18828005Y-16762803D01*
X18837529Y-16743756D01*
X18837529Y-16734232D01*
X18828005Y-16715184D01*
X18808958Y-16705660D01*
X18780386Y-16705660D01*
X18761338Y-16696137D01*
X18751815Y-16677089D01*
X18751815Y-16667565D01*
X18761338Y-16648517D01*
X18780386Y-16638994D01*
X18808958Y-16638994D01*
X18828005Y-16648517D01*
X18951815Y-16772327D02*
X18932767Y-16762803D01*
X18923243Y-16743756D01*
X18923243Y-16572327D01*
X19056577Y-16772327D02*
X19037529Y-16762803D01*
X19028005Y-16753279D01*
X19018481Y-16734232D01*
X19018481Y-16677089D01*
X19028005Y-16658041D01*
X19037529Y-16648517D01*
X19056577Y-16638994D01*
X19085148Y-16638994D01*
X19104196Y-16648517D01*
X19113719Y-16658041D01*
X19123243Y-16677089D01*
X19123243Y-16734232D01*
X19113719Y-16753279D01*
X19104196Y-16762803D01*
X19085148Y-16772327D01*
X19056577Y-16772327D01*
X19180386Y-16638994D02*
X19256577Y-16638994D01*
X19208958Y-16572327D02*
X19208958Y-16743756D01*
X19218481Y-16762803D01*
X19237529Y-16772327D01*
X19256577Y-16772327D01*
X19313719Y-16762803D02*
X19332767Y-16772327D01*
X19370862Y-16772327D01*
X19389910Y-16762803D01*
X19399434Y-16743756D01*
X19399434Y-16734232D01*
X19389910Y-16715184D01*
X19370862Y-16705660D01*
X19342291Y-16705660D01*
X19323243Y-16696137D01*
X19313719Y-16677089D01*
X19313719Y-16667565D01*
X19323243Y-16648517D01*
X19342291Y-16638994D01*
X19370862Y-16638994D01*
X19389910Y-16648517D01*
X19466100Y-16848518D02*
X19475624Y-16838994D01*
X19494672Y-16810422D01*
X19504196Y-16791375D01*
X19513719Y-16762803D01*
X19523243Y-16715184D01*
X19523243Y-16677089D01*
X19513719Y-16629470D01*
X19504196Y-16600898D01*
X19494672Y-16581851D01*
X19475624Y-16553279D01*
X19466100Y-16543756D01*
D14*
X13060504Y-16981207D02*
X13060504Y-16910495D01*
X12989792Y-16910495D01*
X12989792Y-16981207D01*
X13060504Y-16981207D01*
D10*
X13437529Y-17036327D02*
X13323243Y-17036327D01*
X13380386Y-17036327D02*
X13380386Y-16836327D01*
X13361338Y-16864899D01*
X13342291Y-16883946D01*
X13323243Y-16893470D01*
X13523243Y-17017279D02*
X13532767Y-17026803D01*
X13523243Y-17036327D01*
X13513719Y-17026803D01*
X13523243Y-17017279D01*
X13523243Y-17036327D01*
X13656576Y-16836327D02*
X13675624Y-16836327D01*
X13694672Y-16845851D01*
X13704196Y-16855375D01*
X13713719Y-16874422D01*
X13723243Y-16912518D01*
X13723243Y-16960137D01*
X13713719Y-16998232D01*
X13704196Y-17017279D01*
X13694672Y-17026803D01*
X13675624Y-17036327D01*
X13656576Y-17036327D01*
X13637529Y-17026803D01*
X13628005Y-17017279D01*
X13618481Y-16998232D01*
X13608957Y-16960137D01*
X13608957Y-16912518D01*
X13618481Y-16874422D01*
X13628005Y-16855375D01*
X13637529Y-16845851D01*
X13656576Y-16836327D01*
X13847053Y-16836327D02*
X13866100Y-16836327D01*
X13885148Y-16845851D01*
X13894672Y-16855375D01*
X13904196Y-16874422D01*
X13913719Y-16912518D01*
X13913719Y-16960137D01*
X13904196Y-16998232D01*
X13894672Y-17017279D01*
X13885148Y-17026803D01*
X13866100Y-17036327D01*
X13847053Y-17036327D01*
X13828005Y-17026803D01*
X13818481Y-17017279D01*
X13808957Y-16998232D01*
X13799434Y-16960137D01*
X13799434Y-16912518D01*
X13808957Y-16874422D01*
X13818481Y-16855375D01*
X13828005Y-16845851D01*
X13847053Y-16836327D01*
X14037529Y-16836327D02*
X14056576Y-16836327D01*
X14075624Y-16845851D01*
X14085148Y-16855375D01*
X14094672Y-16874422D01*
X14104196Y-16912518D01*
X14104196Y-16960137D01*
X14094672Y-16998232D01*
X14085148Y-17017279D01*
X14075624Y-17026803D01*
X14056576Y-17036327D01*
X14037529Y-17036327D01*
X14018481Y-17026803D01*
X14008957Y-17017279D01*
X13999434Y-16998232D01*
X13989910Y-16960137D01*
X13989910Y-16912518D01*
X13999434Y-16874422D01*
X14008957Y-16855375D01*
X14018481Y-16845851D01*
X14037529Y-16836327D01*
X14189910Y-17036327D02*
X14189910Y-16902994D01*
X14189910Y-16922041D02*
X14199434Y-16912518D01*
X14218481Y-16902994D01*
X14247053Y-16902994D01*
X14266100Y-16912518D01*
X14275624Y-16931565D01*
X14275624Y-17036327D01*
X14275624Y-16931565D02*
X14285148Y-16912518D01*
X14304196Y-16902994D01*
X14332767Y-16902994D01*
X14351815Y-16912518D01*
X14361338Y-16931565D01*
X14361338Y-17036327D01*
X14456576Y-17036327D02*
X14456576Y-16902994D01*
X14456576Y-16922041D02*
X14466100Y-16912518D01*
X14485148Y-16902994D01*
X14513719Y-16902994D01*
X14532767Y-16912518D01*
X14542291Y-16931565D01*
X14542291Y-17036327D01*
X14542291Y-16931565D02*
X14551815Y-16912518D01*
X14570862Y-16902994D01*
X14599434Y-16902994D01*
X14618481Y-16912518D01*
X14628005Y-16931565D01*
X14628005Y-17036327D01*
X15018481Y-16826803D02*
X14847053Y-17083946D01*
X15275624Y-16836327D02*
X15294672Y-16836327D01*
X15313719Y-16845851D01*
X15323243Y-16855375D01*
X15332767Y-16874422D01*
X15342291Y-16912518D01*
X15342291Y-16960137D01*
X15332767Y-16998232D01*
X15323243Y-17017279D01*
X15313719Y-17026803D01*
X15294672Y-17036327D01*
X15275624Y-17036327D01*
X15256576Y-17026803D01*
X15247053Y-17017279D01*
X15237529Y-16998232D01*
X15228005Y-16960137D01*
X15228005Y-16912518D01*
X15237529Y-16874422D01*
X15247053Y-16855375D01*
X15256576Y-16845851D01*
X15275624Y-16836327D01*
X15428005Y-17017279D02*
X15437529Y-17026803D01*
X15428005Y-17036327D01*
X15418481Y-17026803D01*
X15428005Y-17017279D01*
X15428005Y-17036327D01*
X15561338Y-16836327D02*
X15580386Y-16836327D01*
X15599434Y-16845851D01*
X15608957Y-16855375D01*
X15618481Y-16874422D01*
X15628005Y-16912518D01*
X15628005Y-16960137D01*
X15618481Y-16998232D01*
X15608957Y-17017279D01*
X15599434Y-17026803D01*
X15580386Y-17036327D01*
X15561338Y-17036327D01*
X15542291Y-17026803D01*
X15532767Y-17017279D01*
X15523243Y-16998232D01*
X15513719Y-16960137D01*
X15513719Y-16912518D01*
X15523243Y-16874422D01*
X15532767Y-16855375D01*
X15542291Y-16845851D01*
X15561338Y-16836327D01*
X15694672Y-16836327D02*
X15818481Y-16836327D01*
X15751815Y-16912518D01*
X15780386Y-16912518D01*
X15799434Y-16922041D01*
X15808957Y-16931565D01*
X15818481Y-16950613D01*
X15818481Y-16998232D01*
X15808957Y-17017279D01*
X15799434Y-17026803D01*
X15780386Y-17036327D01*
X15723243Y-17036327D01*
X15704196Y-17026803D01*
X15694672Y-17017279D01*
X15913719Y-17036327D02*
X15951815Y-17036327D01*
X15970862Y-17026803D01*
X15980386Y-17017279D01*
X15999434Y-16988708D01*
X16008957Y-16950613D01*
X16008957Y-16874422D01*
X15999434Y-16855375D01*
X15989910Y-16845851D01*
X15970862Y-16836327D01*
X15932767Y-16836327D01*
X15913719Y-16845851D01*
X15904196Y-16855375D01*
X15894672Y-16874422D01*
X15894672Y-16922041D01*
X15904196Y-16941089D01*
X15913719Y-16950613D01*
X15932767Y-16960137D01*
X15970862Y-16960137D01*
X15989910Y-16950613D01*
X15999434Y-16941089D01*
X16008957Y-16922041D01*
X16180386Y-16902994D02*
X16180386Y-17036327D01*
X16132767Y-16826803D02*
X16085148Y-16969660D01*
X16208957Y-16969660D01*
X16275624Y-16836327D02*
X16275624Y-16874422D01*
X16351815Y-16836327D02*
X16351815Y-16874422D01*
X16647053Y-17112518D02*
X16637529Y-17102994D01*
X16618481Y-17074422D01*
X16608957Y-17055375D01*
X16599434Y-17026803D01*
X16589910Y-16979184D01*
X16589910Y-16941089D01*
X16599434Y-16893470D01*
X16608957Y-16864899D01*
X16618481Y-16845851D01*
X16637529Y-16817279D01*
X16647053Y-16807756D01*
X16808958Y-16902994D02*
X16808958Y-17036327D01*
X16761338Y-16826803D02*
X16713719Y-16969660D01*
X16837529Y-16969660D01*
X16894672Y-16836327D02*
X17028005Y-16836327D01*
X16942291Y-17036327D01*
X17256577Y-17036327D02*
X17256577Y-16836327D01*
X17342291Y-17036327D02*
X17342291Y-16931565D01*
X17332767Y-16912518D01*
X17313719Y-16902994D01*
X17285148Y-16902994D01*
X17266100Y-16912518D01*
X17256577Y-16922041D01*
X17466100Y-17036327D02*
X17447053Y-17026803D01*
X17437529Y-17017279D01*
X17428005Y-16998232D01*
X17428005Y-16941089D01*
X17437529Y-16922041D01*
X17447053Y-16912518D01*
X17466100Y-16902994D01*
X17494672Y-16902994D01*
X17513719Y-16912518D01*
X17523243Y-16922041D01*
X17532767Y-16941089D01*
X17532767Y-16998232D01*
X17523243Y-17017279D01*
X17513719Y-17026803D01*
X17494672Y-17036327D01*
X17466100Y-17036327D01*
X17647053Y-17036327D02*
X17628005Y-17026803D01*
X17618481Y-17007756D01*
X17618481Y-16836327D01*
X17799434Y-17026803D02*
X17780386Y-17036327D01*
X17742291Y-17036327D01*
X17723243Y-17026803D01*
X17713719Y-17007756D01*
X17713719Y-16931565D01*
X17723243Y-16912518D01*
X17742291Y-16902994D01*
X17780386Y-16902994D01*
X17799434Y-16912518D01*
X17808958Y-16931565D01*
X17808958Y-16950613D01*
X17713719Y-16969660D01*
X17885148Y-17026803D02*
X17904196Y-17036327D01*
X17942291Y-17036327D01*
X17961338Y-17026803D01*
X17970862Y-17007756D01*
X17970862Y-16998232D01*
X17961338Y-16979184D01*
X17942291Y-16969660D01*
X17913719Y-16969660D01*
X17894672Y-16960137D01*
X17885148Y-16941089D01*
X17885148Y-16931565D01*
X17894672Y-16912518D01*
X17913719Y-16902994D01*
X17942291Y-16902994D01*
X17961338Y-16912518D01*
X18037529Y-17112518D02*
X18047053Y-17102994D01*
X18066100Y-17074422D01*
X18075624Y-17055375D01*
X18085148Y-17026803D01*
X18094672Y-16979184D01*
X18094672Y-16941089D01*
X18085148Y-16893470D01*
X18075624Y-16864899D01*
X18066100Y-16845851D01*
X18047053Y-16817279D01*
X18037529Y-16807756D01*
D15*
X13022648Y-17262351D02*
X13075148Y-17209851D01*
X13022648Y-17157351D01*
X12970148Y-17209851D01*
X13022648Y-17262351D01*
D10*
X13437529Y-17300327D02*
X13323243Y-17300327D01*
X13380386Y-17300327D02*
X13380386Y-17100327D01*
X13361338Y-17128899D01*
X13342291Y-17147946D01*
X13323243Y-17157470D01*
X13523243Y-17281279D02*
X13532767Y-17290803D01*
X13523243Y-17300327D01*
X13513719Y-17290803D01*
X13523243Y-17281279D01*
X13523243Y-17300327D01*
X13656576Y-17100327D02*
X13675624Y-17100327D01*
X13694672Y-17109851D01*
X13704196Y-17119375D01*
X13713719Y-17138422D01*
X13723243Y-17176518D01*
X13723243Y-17224137D01*
X13713719Y-17262232D01*
X13704196Y-17281279D01*
X13694672Y-17290803D01*
X13675624Y-17300327D01*
X13656576Y-17300327D01*
X13637529Y-17290803D01*
X13628005Y-17281279D01*
X13618481Y-17262232D01*
X13608957Y-17224137D01*
X13608957Y-17176518D01*
X13618481Y-17138422D01*
X13628005Y-17119375D01*
X13637529Y-17109851D01*
X13656576Y-17100327D01*
X13904196Y-17100327D02*
X13808957Y-17100327D01*
X13799434Y-17195565D01*
X13808957Y-17186041D01*
X13828005Y-17176518D01*
X13875624Y-17176518D01*
X13894672Y-17186041D01*
X13904196Y-17195565D01*
X13913719Y-17214613D01*
X13913719Y-17262232D01*
X13904196Y-17281279D01*
X13894672Y-17290803D01*
X13875624Y-17300327D01*
X13828005Y-17300327D01*
X13808957Y-17290803D01*
X13799434Y-17281279D01*
X14037529Y-17100327D02*
X14056576Y-17100327D01*
X14075624Y-17109851D01*
X14085148Y-17119375D01*
X14094672Y-17138422D01*
X14104196Y-17176518D01*
X14104196Y-17224137D01*
X14094672Y-17262232D01*
X14085148Y-17281279D01*
X14075624Y-17290803D01*
X14056576Y-17300327D01*
X14037529Y-17300327D01*
X14018481Y-17290803D01*
X14008957Y-17281279D01*
X13999434Y-17262232D01*
X13989910Y-17224137D01*
X13989910Y-17176518D01*
X13999434Y-17138422D01*
X14008957Y-17119375D01*
X14018481Y-17109851D01*
X14037529Y-17100327D01*
X14189910Y-17300327D02*
X14189910Y-17166994D01*
X14189910Y-17186041D02*
X14199434Y-17176518D01*
X14218481Y-17166994D01*
X14247053Y-17166994D01*
X14266100Y-17176518D01*
X14275624Y-17195565D01*
X14275624Y-17300327D01*
X14275624Y-17195565D02*
X14285148Y-17176518D01*
X14304196Y-17166994D01*
X14332767Y-17166994D01*
X14351815Y-17176518D01*
X14361338Y-17195565D01*
X14361338Y-17300327D01*
X14456576Y-17300327D02*
X14456576Y-17166994D01*
X14456576Y-17186041D02*
X14466100Y-17176518D01*
X14485148Y-17166994D01*
X14513719Y-17166994D01*
X14532767Y-17176518D01*
X14542291Y-17195565D01*
X14542291Y-17300327D01*
X14542291Y-17195565D02*
X14551815Y-17176518D01*
X14570862Y-17166994D01*
X14599434Y-17166994D01*
X14618481Y-17176518D01*
X14628005Y-17195565D01*
X14628005Y-17300327D01*
X15018481Y-17090803D02*
X14847053Y-17347946D01*
X15275624Y-17100327D02*
X15294672Y-17100327D01*
X15313719Y-17109851D01*
X15323243Y-17119375D01*
X15332767Y-17138422D01*
X15342291Y-17176518D01*
X15342291Y-17224137D01*
X15332767Y-17262232D01*
X15323243Y-17281279D01*
X15313719Y-17290803D01*
X15294672Y-17300327D01*
X15275624Y-17300327D01*
X15256576Y-17290803D01*
X15247053Y-17281279D01*
X15237529Y-17262232D01*
X15228005Y-17224137D01*
X15228005Y-17176518D01*
X15237529Y-17138422D01*
X15247053Y-17119375D01*
X15256576Y-17109851D01*
X15275624Y-17100327D01*
X15428005Y-17281279D02*
X15437529Y-17290803D01*
X15428005Y-17300327D01*
X15418481Y-17290803D01*
X15428005Y-17281279D01*
X15428005Y-17300327D01*
X15561338Y-17100327D02*
X15580386Y-17100327D01*
X15599434Y-17109851D01*
X15608957Y-17119375D01*
X15618481Y-17138422D01*
X15628005Y-17176518D01*
X15628005Y-17224137D01*
X15618481Y-17262232D01*
X15608957Y-17281279D01*
X15599434Y-17290803D01*
X15580386Y-17300327D01*
X15561338Y-17300327D01*
X15542291Y-17290803D01*
X15532767Y-17281279D01*
X15523243Y-17262232D01*
X15513719Y-17224137D01*
X15513719Y-17176518D01*
X15523243Y-17138422D01*
X15532767Y-17119375D01*
X15542291Y-17109851D01*
X15561338Y-17100327D01*
X15799434Y-17166994D02*
X15799434Y-17300327D01*
X15751815Y-17090803D02*
X15704196Y-17233660D01*
X15828005Y-17233660D01*
X16008957Y-17300327D02*
X15894672Y-17300327D01*
X15951815Y-17300327D02*
X15951815Y-17100327D01*
X15932767Y-17128899D01*
X15913719Y-17147946D01*
X15894672Y-17157470D01*
X16075624Y-17100327D02*
X16199434Y-17100327D01*
X16132767Y-17176518D01*
X16161338Y-17176518D01*
X16180386Y-17186041D01*
X16189910Y-17195565D01*
X16199434Y-17214613D01*
X16199434Y-17262232D01*
X16189910Y-17281279D01*
X16180386Y-17290803D01*
X16161338Y-17300327D01*
X16104196Y-17300327D01*
X16085148Y-17290803D01*
X16075624Y-17281279D01*
X16275624Y-17100327D02*
X16275624Y-17138422D01*
X16351815Y-17100327D02*
X16351815Y-17138422D01*
X16647053Y-17376518D02*
X16637529Y-17366994D01*
X16618481Y-17338422D01*
X16608957Y-17319375D01*
X16599434Y-17290803D01*
X16589910Y-17243184D01*
X16589910Y-17205089D01*
X16599434Y-17157470D01*
X16608957Y-17128899D01*
X16618481Y-17109851D01*
X16637529Y-17081279D01*
X16647053Y-17071756D01*
X16713719Y-17119375D02*
X16723243Y-17109851D01*
X16742291Y-17100327D01*
X16789910Y-17100327D01*
X16808958Y-17109851D01*
X16818481Y-17119375D01*
X16828005Y-17138422D01*
X16828005Y-17157470D01*
X16818481Y-17186041D01*
X16704196Y-17300327D01*
X16828005Y-17300327D01*
X17066100Y-17300327D02*
X17066100Y-17100327D01*
X17151815Y-17300327D02*
X17151815Y-17195565D01*
X17142291Y-17176518D01*
X17123243Y-17166994D01*
X17094672Y-17166994D01*
X17075624Y-17176518D01*
X17066100Y-17186041D01*
X17275624Y-17300327D02*
X17256577Y-17290803D01*
X17247053Y-17281279D01*
X17237529Y-17262232D01*
X17237529Y-17205089D01*
X17247053Y-17186041D01*
X17256577Y-17176518D01*
X17275624Y-17166994D01*
X17304196Y-17166994D01*
X17323243Y-17176518D01*
X17332767Y-17186041D01*
X17342291Y-17205089D01*
X17342291Y-17262232D01*
X17332767Y-17281279D01*
X17323243Y-17290803D01*
X17304196Y-17300327D01*
X17275624Y-17300327D01*
X17456577Y-17300327D02*
X17437529Y-17290803D01*
X17428005Y-17271756D01*
X17428005Y-17100327D01*
X17608958Y-17290803D02*
X17589910Y-17300327D01*
X17551815Y-17300327D01*
X17532767Y-17290803D01*
X17523243Y-17271756D01*
X17523243Y-17195565D01*
X17532767Y-17176518D01*
X17551815Y-17166994D01*
X17589910Y-17166994D01*
X17608958Y-17176518D01*
X17618481Y-17195565D01*
X17618481Y-17214613D01*
X17523243Y-17233660D01*
X17694672Y-17290803D02*
X17713719Y-17300327D01*
X17751815Y-17300327D01*
X17770862Y-17290803D01*
X17780386Y-17271756D01*
X17780386Y-17262232D01*
X17770862Y-17243184D01*
X17751815Y-17233660D01*
X17723243Y-17233660D01*
X17704196Y-17224137D01*
X17694672Y-17205089D01*
X17694672Y-17195565D01*
X17704196Y-17176518D01*
X17723243Y-17166994D01*
X17751815Y-17166994D01*
X17770862Y-17176518D01*
X17847053Y-17376518D02*
X17856577Y-17366994D01*
X17875624Y-17338422D01*
X17885148Y-17319375D01*
X17894672Y-17290803D01*
X17904196Y-17243184D01*
X17904196Y-17205089D01*
X17894672Y-17157470D01*
X17885148Y-17128899D01*
X17875624Y-17109851D01*
X17856577Y-17081279D01*
X17847053Y-17071756D01*
D16*
X12955148Y-17413851D02*
X13075148Y-17533851D01*
X13075148Y-17413851D02*
X12955148Y-17533851D01*
X13075148Y-17473851D02*
G75*
G03*
X13075148Y-17473851I-60000J0D01*
G01*
D10*
X13437529Y-17564327D02*
X13323243Y-17564327D01*
X13380386Y-17564327D02*
X13380386Y-17364327D01*
X13361338Y-17392899D01*
X13342291Y-17411946D01*
X13323243Y-17421470D01*
X13523243Y-17545279D02*
X13532767Y-17554803D01*
X13523243Y-17564327D01*
X13513719Y-17554803D01*
X13523243Y-17545279D01*
X13523243Y-17564327D01*
X13608957Y-17383375D02*
X13618481Y-17373851D01*
X13637529Y-17364327D01*
X13685148Y-17364327D01*
X13704196Y-17373851D01*
X13713719Y-17383375D01*
X13723243Y-17402422D01*
X13723243Y-17421470D01*
X13713719Y-17450041D01*
X13599434Y-17564327D01*
X13723243Y-17564327D01*
X13847053Y-17364327D02*
X13866100Y-17364327D01*
X13885148Y-17373851D01*
X13894672Y-17383375D01*
X13904196Y-17402422D01*
X13913719Y-17440518D01*
X13913719Y-17488137D01*
X13904196Y-17526232D01*
X13894672Y-17545279D01*
X13885148Y-17554803D01*
X13866100Y-17564327D01*
X13847053Y-17564327D01*
X13828005Y-17554803D01*
X13818481Y-17545279D01*
X13808957Y-17526232D01*
X13799434Y-17488137D01*
X13799434Y-17440518D01*
X13808957Y-17402422D01*
X13818481Y-17383375D01*
X13828005Y-17373851D01*
X13847053Y-17364327D01*
X14037529Y-17364327D02*
X14056576Y-17364327D01*
X14075624Y-17373851D01*
X14085148Y-17383375D01*
X14094672Y-17402422D01*
X14104196Y-17440518D01*
X14104196Y-17488137D01*
X14094672Y-17526232D01*
X14085148Y-17545279D01*
X14075624Y-17554803D01*
X14056576Y-17564327D01*
X14037529Y-17564327D01*
X14018481Y-17554803D01*
X14008957Y-17545279D01*
X13999434Y-17526232D01*
X13989910Y-17488137D01*
X13989910Y-17440518D01*
X13999434Y-17402422D01*
X14008957Y-17383375D01*
X14018481Y-17373851D01*
X14037529Y-17364327D01*
X14189910Y-17564327D02*
X14189910Y-17430994D01*
X14189910Y-17450041D02*
X14199434Y-17440518D01*
X14218481Y-17430994D01*
X14247053Y-17430994D01*
X14266100Y-17440518D01*
X14275624Y-17459565D01*
X14275624Y-17564327D01*
X14275624Y-17459565D02*
X14285148Y-17440518D01*
X14304196Y-17430994D01*
X14332767Y-17430994D01*
X14351815Y-17440518D01*
X14361338Y-17459565D01*
X14361338Y-17564327D01*
X14456576Y-17564327D02*
X14456576Y-17430994D01*
X14456576Y-17450041D02*
X14466100Y-17440518D01*
X14485148Y-17430994D01*
X14513719Y-17430994D01*
X14532767Y-17440518D01*
X14542291Y-17459565D01*
X14542291Y-17564327D01*
X14542291Y-17459565D02*
X14551815Y-17440518D01*
X14570862Y-17430994D01*
X14599434Y-17430994D01*
X14618481Y-17440518D01*
X14628005Y-17459565D01*
X14628005Y-17564327D01*
X15018481Y-17354803D02*
X14847053Y-17611946D01*
X15275624Y-17364327D02*
X15294672Y-17364327D01*
X15313719Y-17373851D01*
X15323243Y-17383375D01*
X15332767Y-17402422D01*
X15342291Y-17440518D01*
X15342291Y-17488137D01*
X15332767Y-17526232D01*
X15323243Y-17545279D01*
X15313719Y-17554803D01*
X15294672Y-17564327D01*
X15275624Y-17564327D01*
X15256576Y-17554803D01*
X15247053Y-17545279D01*
X15237529Y-17526232D01*
X15228005Y-17488137D01*
X15228005Y-17440518D01*
X15237529Y-17402422D01*
X15247053Y-17383375D01*
X15256576Y-17373851D01*
X15275624Y-17364327D01*
X15428005Y-17545279D02*
X15437529Y-17554803D01*
X15428005Y-17564327D01*
X15418481Y-17554803D01*
X15428005Y-17545279D01*
X15428005Y-17564327D01*
X15561338Y-17364327D02*
X15580386Y-17364327D01*
X15599434Y-17373851D01*
X15608957Y-17383375D01*
X15618481Y-17402422D01*
X15628005Y-17440518D01*
X15628005Y-17488137D01*
X15618481Y-17526232D01*
X15608957Y-17545279D01*
X15599434Y-17554803D01*
X15580386Y-17564327D01*
X15561338Y-17564327D01*
X15542291Y-17554803D01*
X15532767Y-17545279D01*
X15523243Y-17526232D01*
X15513719Y-17488137D01*
X15513719Y-17440518D01*
X15523243Y-17402422D01*
X15532767Y-17383375D01*
X15542291Y-17373851D01*
X15561338Y-17364327D01*
X15799434Y-17430994D02*
X15799434Y-17564327D01*
X15751815Y-17354803D02*
X15704196Y-17497660D01*
X15828005Y-17497660D01*
X15885148Y-17364327D02*
X16018481Y-17364327D01*
X15932767Y-17564327D01*
X16085148Y-17383375D02*
X16094672Y-17373851D01*
X16113719Y-17364327D01*
X16161338Y-17364327D01*
X16180386Y-17373851D01*
X16189910Y-17383375D01*
X16199434Y-17402422D01*
X16199434Y-17421470D01*
X16189910Y-17450041D01*
X16075624Y-17564327D01*
X16199434Y-17564327D01*
X16275624Y-17364327D02*
X16275624Y-17402422D01*
X16351815Y-17364327D02*
X16351815Y-17402422D01*
X16647053Y-17640518D02*
X16637529Y-17630994D01*
X16618481Y-17602422D01*
X16608957Y-17583375D01*
X16599434Y-17554803D01*
X16589910Y-17507184D01*
X16589910Y-17469089D01*
X16599434Y-17421470D01*
X16608957Y-17392899D01*
X16618481Y-17373851D01*
X16637529Y-17345279D01*
X16647053Y-17335756D01*
X16713719Y-17383375D02*
X16723243Y-17373851D01*
X16742291Y-17364327D01*
X16789910Y-17364327D01*
X16808958Y-17373851D01*
X16818481Y-17383375D01*
X16828005Y-17402422D01*
X16828005Y-17421470D01*
X16818481Y-17450041D01*
X16704196Y-17564327D01*
X16828005Y-17564327D01*
X17066100Y-17564327D02*
X17066100Y-17364327D01*
X17151815Y-17564327D02*
X17151815Y-17459565D01*
X17142291Y-17440518D01*
X17123243Y-17430994D01*
X17094672Y-17430994D01*
X17075624Y-17440518D01*
X17066100Y-17450041D01*
X17275624Y-17564327D02*
X17256577Y-17554803D01*
X17247053Y-17545279D01*
X17237529Y-17526232D01*
X17237529Y-17469089D01*
X17247053Y-17450041D01*
X17256577Y-17440518D01*
X17275624Y-17430994D01*
X17304196Y-17430994D01*
X17323243Y-17440518D01*
X17332767Y-17450041D01*
X17342291Y-17469089D01*
X17342291Y-17526232D01*
X17332767Y-17545279D01*
X17323243Y-17554803D01*
X17304196Y-17564327D01*
X17275624Y-17564327D01*
X17456577Y-17564327D02*
X17437529Y-17554803D01*
X17428005Y-17535756D01*
X17428005Y-17364327D01*
X17608958Y-17554803D02*
X17589910Y-17564327D01*
X17551815Y-17564327D01*
X17532767Y-17554803D01*
X17523243Y-17535756D01*
X17523243Y-17459565D01*
X17532767Y-17440518D01*
X17551815Y-17430994D01*
X17589910Y-17430994D01*
X17608958Y-17440518D01*
X17618481Y-17459565D01*
X17618481Y-17478613D01*
X17523243Y-17497660D01*
X17694672Y-17554803D02*
X17713719Y-17564327D01*
X17751815Y-17564327D01*
X17770862Y-17554803D01*
X17780386Y-17535756D01*
X17780386Y-17526232D01*
X17770862Y-17507184D01*
X17751815Y-17497660D01*
X17723243Y-17497660D01*
X17704196Y-17488137D01*
X17694672Y-17469089D01*
X17694672Y-17459565D01*
X17704196Y-17440518D01*
X17723243Y-17430994D01*
X17751815Y-17430994D01*
X17770862Y-17440518D01*
X17847053Y-17640518D02*
X17856577Y-17630994D01*
X17875624Y-17602422D01*
X17885148Y-17583375D01*
X17894672Y-17554803D01*
X17904196Y-17507184D01*
X17904196Y-17469089D01*
X17894672Y-17421470D01*
X17885148Y-17392899D01*
X17875624Y-17373851D01*
X17856577Y-17345279D01*
X17847053Y-17335756D01*
D17*
X12948148Y-17674351D02*
X13075148Y-17801351D01*
X13075148Y-17674351D02*
X12948148Y-17801351D01*
X13011648Y-17674351D02*
X13011648Y-17801351D01*
X12948148Y-17737851D02*
X13075148Y-17737851D01*
D10*
X13437529Y-17828327D02*
X13323243Y-17828327D01*
X13380386Y-17828327D02*
X13380386Y-17628327D01*
X13361338Y-17656899D01*
X13342291Y-17675946D01*
X13323243Y-17685470D01*
X13523243Y-17809279D02*
X13532767Y-17818803D01*
X13523243Y-17828327D01*
X13513719Y-17818803D01*
X13523243Y-17809279D01*
X13523243Y-17828327D01*
X13608957Y-17647375D02*
X13618481Y-17637851D01*
X13637529Y-17628327D01*
X13685148Y-17628327D01*
X13704196Y-17637851D01*
X13713719Y-17647375D01*
X13723243Y-17666422D01*
X13723243Y-17685470D01*
X13713719Y-17714041D01*
X13599434Y-17828327D01*
X13723243Y-17828327D01*
X13789910Y-17628327D02*
X13923243Y-17628327D01*
X13837529Y-17828327D01*
X14037529Y-17628327D02*
X14056576Y-17628327D01*
X14075624Y-17637851D01*
X14085148Y-17647375D01*
X14094672Y-17666422D01*
X14104196Y-17704518D01*
X14104196Y-17752137D01*
X14094672Y-17790232D01*
X14085148Y-17809279D01*
X14075624Y-17818803D01*
X14056576Y-17828327D01*
X14037529Y-17828327D01*
X14018481Y-17818803D01*
X14008957Y-17809279D01*
X13999434Y-17790232D01*
X13989910Y-17752137D01*
X13989910Y-17704518D01*
X13999434Y-17666422D01*
X14008957Y-17647375D01*
X14018481Y-17637851D01*
X14037529Y-17628327D01*
X14189910Y-17828327D02*
X14189910Y-17694994D01*
X14189910Y-17714041D02*
X14199434Y-17704518D01*
X14218481Y-17694994D01*
X14247053Y-17694994D01*
X14266100Y-17704518D01*
X14275624Y-17723565D01*
X14275624Y-17828327D01*
X14275624Y-17723565D02*
X14285148Y-17704518D01*
X14304196Y-17694994D01*
X14332767Y-17694994D01*
X14351815Y-17704518D01*
X14361338Y-17723565D01*
X14361338Y-17828327D01*
X14456576Y-17828327D02*
X14456576Y-17694994D01*
X14456576Y-17714041D02*
X14466100Y-17704518D01*
X14485148Y-17694994D01*
X14513719Y-17694994D01*
X14532767Y-17704518D01*
X14542291Y-17723565D01*
X14542291Y-17828327D01*
X14542291Y-17723565D02*
X14551815Y-17704518D01*
X14570862Y-17694994D01*
X14599434Y-17694994D01*
X14618481Y-17704518D01*
X14628005Y-17723565D01*
X14628005Y-17828327D01*
X15018481Y-17618803D02*
X14847053Y-17875946D01*
X15275624Y-17628327D02*
X15294672Y-17628327D01*
X15313719Y-17637851D01*
X15323243Y-17647375D01*
X15332767Y-17666422D01*
X15342291Y-17704518D01*
X15342291Y-17752137D01*
X15332767Y-17790232D01*
X15323243Y-17809279D01*
X15313719Y-17818803D01*
X15294672Y-17828327D01*
X15275624Y-17828327D01*
X15256576Y-17818803D01*
X15247053Y-17809279D01*
X15237529Y-17790232D01*
X15228005Y-17752137D01*
X15228005Y-17704518D01*
X15237529Y-17666422D01*
X15247053Y-17647375D01*
X15256576Y-17637851D01*
X15275624Y-17628327D01*
X15428005Y-17809279D02*
X15437529Y-17818803D01*
X15428005Y-17828327D01*
X15418481Y-17818803D01*
X15428005Y-17809279D01*
X15428005Y-17828327D01*
X15561338Y-17628327D02*
X15580386Y-17628327D01*
X15599434Y-17637851D01*
X15608957Y-17647375D01*
X15618481Y-17666422D01*
X15628005Y-17704518D01*
X15628005Y-17752137D01*
X15618481Y-17790232D01*
X15608957Y-17809279D01*
X15599434Y-17818803D01*
X15580386Y-17828327D01*
X15561338Y-17828327D01*
X15542291Y-17818803D01*
X15532767Y-17809279D01*
X15523243Y-17790232D01*
X15513719Y-17752137D01*
X15513719Y-17704518D01*
X15523243Y-17666422D01*
X15532767Y-17647375D01*
X15542291Y-17637851D01*
X15561338Y-17628327D01*
X15808957Y-17628327D02*
X15713719Y-17628327D01*
X15704196Y-17723565D01*
X15713719Y-17714041D01*
X15732767Y-17704518D01*
X15780386Y-17704518D01*
X15799434Y-17714041D01*
X15808957Y-17723565D01*
X15818481Y-17742613D01*
X15818481Y-17790232D01*
X15808957Y-17809279D01*
X15799434Y-17818803D01*
X15780386Y-17828327D01*
X15732767Y-17828327D01*
X15713719Y-17818803D01*
X15704196Y-17809279D01*
X15942291Y-17628327D02*
X15961338Y-17628327D01*
X15980386Y-17637851D01*
X15989910Y-17647375D01*
X15999434Y-17666422D01*
X16008957Y-17704518D01*
X16008957Y-17752137D01*
X15999434Y-17790232D01*
X15989910Y-17809279D01*
X15980386Y-17818803D01*
X15961338Y-17828327D01*
X15942291Y-17828327D01*
X15923243Y-17818803D01*
X15913719Y-17809279D01*
X15904196Y-17790232D01*
X15894672Y-17752137D01*
X15894672Y-17704518D01*
X15904196Y-17666422D01*
X15913719Y-17647375D01*
X15923243Y-17637851D01*
X15942291Y-17628327D01*
X16132767Y-17628327D02*
X16151815Y-17628327D01*
X16170862Y-17637851D01*
X16180386Y-17647375D01*
X16189910Y-17666422D01*
X16199434Y-17704518D01*
X16199434Y-17752137D01*
X16189910Y-17790232D01*
X16180386Y-17809279D01*
X16170862Y-17818803D01*
X16151815Y-17828327D01*
X16132767Y-17828327D01*
X16113719Y-17818803D01*
X16104196Y-17809279D01*
X16094672Y-17790232D01*
X16085148Y-17752137D01*
X16085148Y-17704518D01*
X16094672Y-17666422D01*
X16104196Y-17647375D01*
X16113719Y-17637851D01*
X16132767Y-17628327D01*
X16275624Y-17628327D02*
X16275624Y-17666422D01*
X16351815Y-17628327D02*
X16351815Y-17666422D01*
X16647053Y-17904518D02*
X16637529Y-17894994D01*
X16618481Y-17866422D01*
X16608957Y-17847375D01*
X16599434Y-17818803D01*
X16589910Y-17771184D01*
X16589910Y-17733089D01*
X16599434Y-17685470D01*
X16608957Y-17656899D01*
X16618481Y-17637851D01*
X16637529Y-17609279D01*
X16647053Y-17599756D01*
X16761338Y-17628327D02*
X16780386Y-17628327D01*
X16799434Y-17637851D01*
X16808958Y-17647375D01*
X16818481Y-17666422D01*
X16828005Y-17704518D01*
X16828005Y-17752137D01*
X16818481Y-17790232D01*
X16808958Y-17809279D01*
X16799434Y-17818803D01*
X16780386Y-17828327D01*
X16761338Y-17828327D01*
X16742291Y-17818803D01*
X16732767Y-17809279D01*
X16723243Y-17790232D01*
X16713719Y-17752137D01*
X16713719Y-17704518D01*
X16723243Y-17666422D01*
X16732767Y-17647375D01*
X16742291Y-17637851D01*
X16761338Y-17628327D01*
X17066100Y-17828327D02*
X17066100Y-17628327D01*
X17151815Y-17828327D02*
X17151815Y-17723565D01*
X17142291Y-17704518D01*
X17123243Y-17694994D01*
X17094672Y-17694994D01*
X17075624Y-17704518D01*
X17066100Y-17714041D01*
X17275624Y-17828327D02*
X17256577Y-17818803D01*
X17247053Y-17809279D01*
X17237529Y-17790232D01*
X17237529Y-17733089D01*
X17247053Y-17714041D01*
X17256577Y-17704518D01*
X17275624Y-17694994D01*
X17304196Y-17694994D01*
X17323243Y-17704518D01*
X17332767Y-17714041D01*
X17342291Y-17733089D01*
X17342291Y-17790232D01*
X17332767Y-17809279D01*
X17323243Y-17818803D01*
X17304196Y-17828327D01*
X17275624Y-17828327D01*
X17456577Y-17828327D02*
X17437529Y-17818803D01*
X17428005Y-17799756D01*
X17428005Y-17628327D01*
X17608958Y-17818803D02*
X17589910Y-17828327D01*
X17551815Y-17828327D01*
X17532767Y-17818803D01*
X17523243Y-17799756D01*
X17523243Y-17723565D01*
X17532767Y-17704518D01*
X17551815Y-17694994D01*
X17589910Y-17694994D01*
X17608958Y-17704518D01*
X17618481Y-17723565D01*
X17618481Y-17742613D01*
X17523243Y-17761660D01*
X17694672Y-17818803D02*
X17713719Y-17828327D01*
X17751815Y-17828327D01*
X17770862Y-17818803D01*
X17780386Y-17799756D01*
X17780386Y-17790232D01*
X17770862Y-17771184D01*
X17751815Y-17761660D01*
X17723243Y-17761660D01*
X17704196Y-17752137D01*
X17694672Y-17733089D01*
X17694672Y-17723565D01*
X17704196Y-17704518D01*
X17723243Y-17694994D01*
X17751815Y-17694994D01*
X17770862Y-17704518D01*
X18018481Y-17752137D02*
X18170862Y-17752137D01*
X18094672Y-17828327D02*
X18094672Y-17675946D01*
X18428005Y-17828327D02*
X18466100Y-17828327D01*
X18485148Y-17818803D01*
X18494672Y-17809279D01*
X18513719Y-17780708D01*
X18523243Y-17742613D01*
X18523243Y-17666422D01*
X18513719Y-17647375D01*
X18504196Y-17637851D01*
X18485148Y-17628327D01*
X18447053Y-17628327D01*
X18428005Y-17637851D01*
X18418481Y-17647375D01*
X18408958Y-17666422D01*
X18408958Y-17714041D01*
X18418481Y-17733089D01*
X18428005Y-17742613D01*
X18447053Y-17752137D01*
X18485148Y-17752137D01*
X18504196Y-17742613D01*
X18513719Y-17733089D01*
X18523243Y-17714041D01*
X18751815Y-17818803D02*
X18770862Y-17828327D01*
X18808958Y-17828327D01*
X18828005Y-17818803D01*
X18837529Y-17799756D01*
X18837529Y-17790232D01*
X18828005Y-17771184D01*
X18808958Y-17761660D01*
X18780386Y-17761660D01*
X18761338Y-17752137D01*
X18751815Y-17733089D01*
X18751815Y-17723565D01*
X18761338Y-17704518D01*
X18780386Y-17694994D01*
X18808958Y-17694994D01*
X18828005Y-17704518D01*
X18951815Y-17828327D02*
X18932767Y-17818803D01*
X18923243Y-17799756D01*
X18923243Y-17628327D01*
X19056577Y-17828327D02*
X19037529Y-17818803D01*
X19028005Y-17809279D01*
X19018481Y-17790232D01*
X19018481Y-17733089D01*
X19028005Y-17714041D01*
X19037529Y-17704518D01*
X19056577Y-17694994D01*
X19085148Y-17694994D01*
X19104196Y-17704518D01*
X19113719Y-17714041D01*
X19123243Y-17733089D01*
X19123243Y-17790232D01*
X19113719Y-17809279D01*
X19104196Y-17818803D01*
X19085148Y-17828327D01*
X19056577Y-17828327D01*
X19180386Y-17694994D02*
X19256577Y-17694994D01*
X19208958Y-17628327D02*
X19208958Y-17799756D01*
X19218481Y-17818803D01*
X19237529Y-17828327D01*
X19256577Y-17828327D01*
X19313719Y-17818803D02*
X19332767Y-17828327D01*
X19370862Y-17828327D01*
X19389910Y-17818803D01*
X19399434Y-17799756D01*
X19399434Y-17790232D01*
X19389910Y-17771184D01*
X19370862Y-17761660D01*
X19342291Y-17761660D01*
X19323243Y-17752137D01*
X19313719Y-17733089D01*
X19313719Y-17723565D01*
X19323243Y-17704518D01*
X19342291Y-17694994D01*
X19370862Y-17694994D01*
X19389910Y-17704518D01*
X19466100Y-17904518D02*
X19475624Y-17894994D01*
X19494672Y-17866422D01*
X19504196Y-17847375D01*
X19513719Y-17818803D01*
X19523243Y-17771184D01*
X19523243Y-17733089D01*
X19513719Y-17685470D01*
X19504196Y-17656899D01*
X19494672Y-17637851D01*
X19475624Y-17609279D01*
X19466100Y-17599756D01*
D18*
X12945148Y-17936851D02*
X13075148Y-18066851D01*
X13075148Y-17936851D02*
X12945148Y-18066851D01*
X13056110Y-18047813D02*
X13056110Y-17955889D01*
X12964186Y-17955889D01*
X12964186Y-18047813D01*
X13056110Y-18047813D01*
D10*
X13437529Y-18092327D02*
X13323243Y-18092327D01*
X13380386Y-18092327D02*
X13380386Y-17892327D01*
X13361338Y-17920899D01*
X13342291Y-17939946D01*
X13323243Y-17949470D01*
X13523243Y-18073279D02*
X13532767Y-18082803D01*
X13523243Y-18092327D01*
X13513719Y-18082803D01*
X13523243Y-18073279D01*
X13523243Y-18092327D01*
X13599434Y-17892327D02*
X13723243Y-17892327D01*
X13656576Y-17968518D01*
X13685148Y-17968518D01*
X13704196Y-17978041D01*
X13713719Y-17987565D01*
X13723243Y-18006613D01*
X13723243Y-18054232D01*
X13713719Y-18073279D01*
X13704196Y-18082803D01*
X13685148Y-18092327D01*
X13628005Y-18092327D01*
X13608957Y-18082803D01*
X13599434Y-18073279D01*
X13847053Y-17892327D02*
X13866100Y-17892327D01*
X13885148Y-17901851D01*
X13894672Y-17911375D01*
X13904196Y-17930422D01*
X13913719Y-17968518D01*
X13913719Y-18016137D01*
X13904196Y-18054232D01*
X13894672Y-18073279D01*
X13885148Y-18082803D01*
X13866100Y-18092327D01*
X13847053Y-18092327D01*
X13828005Y-18082803D01*
X13818481Y-18073279D01*
X13808957Y-18054232D01*
X13799434Y-18016137D01*
X13799434Y-17968518D01*
X13808957Y-17930422D01*
X13818481Y-17911375D01*
X13828005Y-17901851D01*
X13847053Y-17892327D01*
X14037529Y-17892327D02*
X14056576Y-17892327D01*
X14075624Y-17901851D01*
X14085148Y-17911375D01*
X14094672Y-17930422D01*
X14104196Y-17968518D01*
X14104196Y-18016137D01*
X14094672Y-18054232D01*
X14085148Y-18073279D01*
X14075624Y-18082803D01*
X14056576Y-18092327D01*
X14037529Y-18092327D01*
X14018481Y-18082803D01*
X14008957Y-18073279D01*
X13999434Y-18054232D01*
X13989910Y-18016137D01*
X13989910Y-17968518D01*
X13999434Y-17930422D01*
X14008957Y-17911375D01*
X14018481Y-17901851D01*
X14037529Y-17892327D01*
X14189910Y-18092327D02*
X14189910Y-17958994D01*
X14189910Y-17978041D02*
X14199434Y-17968518D01*
X14218481Y-17958994D01*
X14247053Y-17958994D01*
X14266100Y-17968518D01*
X14275624Y-17987565D01*
X14275624Y-18092327D01*
X14275624Y-17987565D02*
X14285148Y-17968518D01*
X14304196Y-17958994D01*
X14332767Y-17958994D01*
X14351815Y-17968518D01*
X14361338Y-17987565D01*
X14361338Y-18092327D01*
X14456576Y-18092327D02*
X14456576Y-17958994D01*
X14456576Y-17978041D02*
X14466100Y-17968518D01*
X14485148Y-17958994D01*
X14513719Y-17958994D01*
X14532767Y-17968518D01*
X14542291Y-17987565D01*
X14542291Y-18092327D01*
X14542291Y-17987565D02*
X14551815Y-17968518D01*
X14570862Y-17958994D01*
X14599434Y-17958994D01*
X14618481Y-17968518D01*
X14628005Y-17987565D01*
X14628005Y-18092327D01*
X15018481Y-17882803D02*
X14847053Y-18139946D01*
X15275624Y-17892327D02*
X15294672Y-17892327D01*
X15313719Y-17901851D01*
X15323243Y-17911375D01*
X15332767Y-17930422D01*
X15342291Y-17968518D01*
X15342291Y-18016137D01*
X15332767Y-18054232D01*
X15323243Y-18073279D01*
X15313719Y-18082803D01*
X15294672Y-18092327D01*
X15275624Y-18092327D01*
X15256576Y-18082803D01*
X15247053Y-18073279D01*
X15237529Y-18054232D01*
X15228005Y-18016137D01*
X15228005Y-17968518D01*
X15237529Y-17930422D01*
X15247053Y-17911375D01*
X15256576Y-17901851D01*
X15275624Y-17892327D01*
X15428005Y-18073279D02*
X15437529Y-18082803D01*
X15428005Y-18092327D01*
X15418481Y-18082803D01*
X15428005Y-18073279D01*
X15428005Y-18092327D01*
X15561338Y-17892327D02*
X15580386Y-17892327D01*
X15599434Y-17901851D01*
X15608957Y-17911375D01*
X15618481Y-17930422D01*
X15628005Y-17968518D01*
X15628005Y-18016137D01*
X15618481Y-18054232D01*
X15608957Y-18073279D01*
X15599434Y-18082803D01*
X15580386Y-18092327D01*
X15561338Y-18092327D01*
X15542291Y-18082803D01*
X15532767Y-18073279D01*
X15523243Y-18054232D01*
X15513719Y-18016137D01*
X15513719Y-17968518D01*
X15523243Y-17930422D01*
X15532767Y-17911375D01*
X15542291Y-17901851D01*
X15561338Y-17892327D01*
X15808957Y-17892327D02*
X15713719Y-17892327D01*
X15704196Y-17987565D01*
X15713719Y-17978041D01*
X15732767Y-17968518D01*
X15780386Y-17968518D01*
X15799434Y-17978041D01*
X15808957Y-17987565D01*
X15818481Y-18006613D01*
X15818481Y-18054232D01*
X15808957Y-18073279D01*
X15799434Y-18082803D01*
X15780386Y-18092327D01*
X15732767Y-18092327D01*
X15713719Y-18082803D01*
X15704196Y-18073279D01*
X16008957Y-18092327D02*
X15894672Y-18092327D01*
X15951815Y-18092327D02*
X15951815Y-17892327D01*
X15932767Y-17920899D01*
X15913719Y-17939946D01*
X15894672Y-17949470D01*
X16085148Y-17911375D02*
X16094672Y-17901851D01*
X16113719Y-17892327D01*
X16161338Y-17892327D01*
X16180386Y-17901851D01*
X16189910Y-17911375D01*
X16199434Y-17930422D01*
X16199434Y-17949470D01*
X16189910Y-17978041D01*
X16075624Y-18092327D01*
X16199434Y-18092327D01*
X16275624Y-17892327D02*
X16275624Y-17930422D01*
X16351815Y-17892327D02*
X16351815Y-17930422D01*
X16647053Y-18168518D02*
X16637529Y-18158994D01*
X16618481Y-18130422D01*
X16608957Y-18111375D01*
X16599434Y-18082803D01*
X16589910Y-18035184D01*
X16589910Y-17997089D01*
X16599434Y-17949470D01*
X16608957Y-17920899D01*
X16618481Y-17901851D01*
X16637529Y-17873279D01*
X16647053Y-17863756D01*
X16713719Y-17911375D02*
X16723243Y-17901851D01*
X16742291Y-17892327D01*
X16789910Y-17892327D01*
X16808958Y-17901851D01*
X16818481Y-17911375D01*
X16828005Y-17930422D01*
X16828005Y-17949470D01*
X16818481Y-17978041D01*
X16704196Y-18092327D01*
X16828005Y-18092327D01*
X17066100Y-18092327D02*
X17066100Y-17892327D01*
X17151815Y-18092327D02*
X17151815Y-17987565D01*
X17142291Y-17968518D01*
X17123243Y-17958994D01*
X17094672Y-17958994D01*
X17075624Y-17968518D01*
X17066100Y-17978041D01*
X17275624Y-18092327D02*
X17256577Y-18082803D01*
X17247053Y-18073279D01*
X17237529Y-18054232D01*
X17237529Y-17997089D01*
X17247053Y-17978041D01*
X17256577Y-17968518D01*
X17275624Y-17958994D01*
X17304196Y-17958994D01*
X17323243Y-17968518D01*
X17332767Y-17978041D01*
X17342291Y-17997089D01*
X17342291Y-18054232D01*
X17332767Y-18073279D01*
X17323243Y-18082803D01*
X17304196Y-18092327D01*
X17275624Y-18092327D01*
X17456577Y-18092327D02*
X17437529Y-18082803D01*
X17428005Y-18063756D01*
X17428005Y-17892327D01*
X17608958Y-18082803D02*
X17589910Y-18092327D01*
X17551815Y-18092327D01*
X17532767Y-18082803D01*
X17523243Y-18063756D01*
X17523243Y-17987565D01*
X17532767Y-17968518D01*
X17551815Y-17958994D01*
X17589910Y-17958994D01*
X17608958Y-17968518D01*
X17618481Y-17987565D01*
X17618481Y-18006613D01*
X17523243Y-18025660D01*
X17694672Y-18082803D02*
X17713719Y-18092327D01*
X17751815Y-18092327D01*
X17770862Y-18082803D01*
X17780386Y-18063756D01*
X17780386Y-18054232D01*
X17770862Y-18035184D01*
X17751815Y-18025660D01*
X17723243Y-18025660D01*
X17704196Y-18016137D01*
X17694672Y-17997089D01*
X17694672Y-17987565D01*
X17704196Y-17968518D01*
X17723243Y-17958994D01*
X17751815Y-17958994D01*
X17770862Y-17968518D01*
X17847053Y-18168518D02*
X17856577Y-18158994D01*
X17875624Y-18130422D01*
X17885148Y-18111375D01*
X17894672Y-18082803D01*
X17904196Y-18035184D01*
X17904196Y-17997089D01*
X17894672Y-17949470D01*
X17885148Y-17920899D01*
X17875624Y-17901851D01*
X17856577Y-17873279D01*
X17847053Y-17863756D01*
M02*
