M48
; DRILL file {KiCad (6.0.11)} date Sat Jul  8 12:30:28 2023
; FORMAT={-:-/ absolute / metric / decimal}
; #@! TF.CreationDate,2023-07-08T12:30:28+02:00
; #@! TF.GenerationSoftware,Kicad,Pcbnew,(6.0.11)
; #@! TF.FileFunction,Plated,1,2,PTH
FMAT,2
METRIC
; #@! TA.AperFunction,Plated,PTH,ViaDrill
T1C0.400
; #@! TA.AperFunction,Plated,PTH,ComponentDrill
T2C0.750
; #@! TA.AperFunction,Plated,PTH,ComponentDrill
T3C0.800
; #@! TA.AperFunction,Plated,PTH,ComponentDrill
T4C1.000
; #@! TA.AperFunction,Plated,PTH,ComponentDrill
T5C1.050
; #@! TA.AperFunction,Plated,PTH,ComponentDrill
T6C1.200
; #@! TA.AperFunction,Plated,PTH,ComponentDrill
T7C1.270
; #@! TA.AperFunction,Plated,PTH,ComponentDrill
T8C1.300
%
G90
G05
T1
X153.115Y-115.951
X159.183Y-116.053
X169.348Y-89.968
T2
X156.408Y-74.93
X158.408Y-74.93
T3
X154.94Y-81.28
X159.94Y-81.28
T4
X133.223Y-118.059
X133.223Y-133.299
X135.763Y-118.059
X135.763Y-133.299
X138.303Y-118.059
X138.303Y-133.299
X140.843Y-118.059
X140.843Y-133.299
X143.383Y-118.059
X143.383Y-133.299
X145.923Y-118.059
X145.923Y-133.299
X148.463Y-118.059
X148.463Y-133.299
X151.003Y-118.059
X151.003Y-133.299
X153.543Y-118.059
X153.543Y-133.299
X156.083Y-118.059
X156.083Y-133.299
X158.623Y-118.059
X158.623Y-133.299
X161.163Y-118.059
X161.163Y-133.299
X163.703Y-118.059
X163.703Y-133.299
X166.243Y-118.059
X166.243Y-133.299
X168.783Y-118.059
X168.783Y-133.299
X171.323Y-118.059
X171.323Y-133.299
X173.863Y-118.059
X173.863Y-133.299
X176.403Y-118.059
X176.403Y-133.299
X178.943Y-118.059
X178.943Y-133.299
X179.553Y-86.106
X179.553Y-88.646
X179.553Y-91.186
X179.553Y-93.726
X179.553Y-96.266
X179.553Y-98.806
X179.553Y-101.346
X181.483Y-118.059
X181.483Y-133.299
T5
X135.441Y-123.386
X135.441Y-127.886
T6
X151.155Y-87.605
X163.855Y-87.605
T8
X137.941Y-122.136
X137.941Y-129.136
T3
X140.071Y-56.602G85X137.101Y-59.572
G05
X140.173Y-98.08G85X142.673Y-98.08
G05
X139.44Y-69.118G85X145.64Y-69.118
G05
X149.534Y-59.495G85X149.534Y-65.695
G05
X155.146Y-95.588G85X157.646Y-95.588
G05
X155.184Y-100.558G85X157.684Y-100.558
G05
X164.915Y-59.02G85X164.915Y-65.22
G05
X174.538Y-69.114G85X168.338Y-69.114
G05
X177.431Y-59.651G85X174.461Y-56.681
G05
T7
X152.761Y-139.71G85X151.491Y-139.71
G05
X152.761Y-144.411G85X151.491Y-144.411
G05
X152.761Y-149.11G85X151.491Y-149.11
G05
X157.861Y-139.709G85X156.591Y-139.709
G05
X157.861Y-144.411G85X156.591Y-144.411
G05
X157.861Y-149.109G85X156.591Y-149.109
G05
X162.861Y-139.709G85X161.591Y-139.709
G05
X162.861Y-144.411G85X161.591Y-144.411
G05
X162.861Y-149.109G85X161.591Y-149.109
G05
T0
M30
