G04 #@! TF.GenerationSoftware,KiCad,Pcbnew,(6.0.11)*
G04 #@! TF.CreationDate,2023-07-08T12:32:02+02:00*
G04 #@! TF.ProjectId,IO Board,494f2042-6f61-4726-942e-6b696361645f,rev?*
G04 #@! TF.SameCoordinates,Original*
G04 #@! TF.FileFunction,Legend,Bot*
G04 #@! TF.FilePolarity,Positive*
%FSLAX46Y46*%
G04 Gerber Fmt 4.6, Leading zero omitted, Abs format (unit mm)*
G04 Created by KiCad (PCBNEW (6.0.11)) date 2023-07-08 12:32:02*
%MOMM*%
%LPD*%
G01*
G04 APERTURE LIST*
%ADD10C,0.150000*%
%ADD11C,0.120000*%
%ADD12R,1.800000X1.800000*%
%ADD13C,1.800000*%
%ADD14C,1.500000*%
%ADD15C,3.164000*%
%ADD16C,1.600000*%
%ADD17O,1.600000X1.600000*%
%ADD18C,2.200000*%
%ADD19R,1.700000X1.700000*%
%ADD20O,1.700000X1.700000*%
G04 APERTURE END LIST*
D10*
X238331333Y-78808780D02*
X238331333Y-79523066D01*
X238378952Y-79665923D01*
X238474190Y-79761161D01*
X238617047Y-79808780D01*
X238712285Y-79808780D01*
X237331333Y-79808780D02*
X237902761Y-79808780D01*
X237617047Y-79808780D02*
X237617047Y-78808780D01*
X237712285Y-78951638D01*
X237807523Y-79046876D01*
X237902761Y-79094495D01*
D11*
X239328000Y-82956400D02*
X239328000Y-98256400D01*
X239328000Y-82956400D02*
X236668000Y-82956400D01*
X239328000Y-80356400D02*
X237998000Y-80356400D01*
X239328000Y-81686400D02*
X239328000Y-80356400D01*
X239328000Y-98256400D02*
X236668000Y-98256400D01*
X236668000Y-82956400D02*
X236668000Y-98256400D01*
%LPC*%
D12*
X214376000Y-58216800D03*
D13*
X216916000Y-58216800D03*
D14*
X227316383Y-85723005D03*
X229816383Y-85723005D03*
X232316383Y-85723005D03*
D15*
X225066383Y-78223005D03*
X234566383Y-78223005D03*
D14*
X198954916Y-109716108D03*
X201454916Y-109716108D03*
X203954916Y-109716108D03*
D15*
X196704916Y-102216108D03*
X206204916Y-102216108D03*
D14*
X227321612Y-109725162D03*
X229821612Y-109725162D03*
X232321612Y-109725162D03*
D15*
X225071612Y-102225162D03*
X234571612Y-102225162D03*
D14*
X198948140Y-85720462D03*
X201448140Y-85720462D03*
X203948140Y-85720462D03*
D15*
X196698140Y-78220462D03*
X206198140Y-78220462D03*
D16*
X215686347Y-74727791D03*
D17*
X215686347Y-64567791D03*
D18*
X194111376Y-72269926D03*
D19*
X237998000Y-81686400D03*
D20*
X237998000Y-84226400D03*
X237998000Y-86766400D03*
X237998000Y-89306400D03*
X237998000Y-91846400D03*
X237998000Y-94386400D03*
X237998000Y-96926400D03*
M02*
