  0
SECTION
  2
HEADER
  9
$ANGBASE
  50
0.0
  9
$ANGDIR
  70
1
  9
$MEASUREMENT
  70
1
  0
ENDSEC
  0
SECTION
  2
TABLES
  0
TABLE
  2
LTYPE
  70
4
  0
LTYPE
  5
40F
  2
CONTINUOUS
  70
0
  3
Solid line
  72
65
  73
0
  40
0.0
  0
LTYPE
  5
410
  2
DASHDOT
 70
0
  3
Dash Dot ____ _ ____ _
 72
65
 73
4
 40
2.0
 49
1.25
 49
-0.25
 49
0.25
 49
-0.25
  0
LTYPE
  5
411
  2
DASHED
 70
0
  3
Dashed __ __ __ __ __
 72
65
 73
2
 40
0.75
 49
0.5
 49
-0.25
  0
LTYPE
  5
43B
  2
DOTTED
 70
0
  3
Dotted .  .  .  .
 72
65
 73
2
 40
0.2
 49
0.0
 49
-0.2
  0
ENDTAB
  0
TABLE
  2
STYLE
  70
4
  0
STYLE
  2
KICAD
  70
0
  40
0
  41
1
  42
1
  50
0
  71
0
  3
isocp.shx
  0
STYLE
  2
KICADB
  70
0
  40
0
  41
1
  42
1
  50
0
  71
0
  3
isocp.shx
  0
STYLE
  2
KICADI
  70
0
  40
0
  41
1
  42
1
  50
15
  71
0
  3
isocp.shx
  0
STYLE
  2
KICADBI
  70
0
  40
0
  41
1
  42
1
  50
15
  71
0
  3
isocp.shx
  0
ENDTAB
  0
TABLE
  2
LAYER
  70
1
  0
LAYER
  2
BLACK
  70
0
  62
7
  6
CONTINUOUS
  0
ENDTAB
  0
ENDSEC
  0
SECTION
  2
ENTITIES
0
LINE
8
BLACK
6
CONTINUOUS
10
236.524
20
-99.7335
11
236.563
21
-99.7665
0
LINE
8
BLACK
6
CONTINUOUS
10
236.563
20
-99.7665
11
236.572
21
-99.817
0
LINE
8
BLACK
6
CONTINUOUS
10
236.572
20
-99.817
11
236.546
21
-99.8615
0
LINE
8
BLACK
6
CONTINUOUS
10
236.546
20
-99.8615
11
236.498
21
-99.879
0
LINE
8
BLACK
6
CONTINUOUS
10
236.498
20
-99.879
11
235.736
21
-99.879
0
LINE
8
BLACK
6
CONTINUOUS
10
235.736
20
-99.879
11
235.71
21
-99.8745
0
LINE
8
BLACK
6
CONTINUOUS
10
235.71
20
-99.8745
11
235.671
21
-99.8415
0
LINE
8
BLACK
6
CONTINUOUS
10
235.671
20
-99.8415
11
235.662
21
-99.791
0
LINE
8
BLACK
6
CONTINUOUS
10
235.662
20
-99.791
11
235.688
21
-99.7466
0
LINE
8
BLACK
6
CONTINUOUS
10
235.688
20
-99.7466
11
235.736
21
-99.729
0
LINE
8
BLACK
6
CONTINUOUS
10
235.736
20
-99.729
11
236.498
21
-99.729
0
LINE
8
BLACK
6
CONTINUOUS
10
236.498
20
-99.729
11
236.524
21
-99.7335
0
LINE
8
BLACK
6
CONTINUOUS
10
241.905
20
-99.7335
11
241.944
21
-99.7665
0
LINE
8
BLACK
6
CONTINUOUS
10
241.944
20
-99.7665
11
241.953
21
-99.817
0
LINE
8
BLACK
6
CONTINUOUS
10
241.953
20
-99.817
11
241.927
21
-99.8615
0
LINE
8
BLACK
6
CONTINUOUS
10
241.927
20
-99.8615
11
241.879
21
-99.879
0
LINE
8
BLACK
6
CONTINUOUS
10
241.879
20
-99.879
11
241.117
21
-99.879
0
LINE
8
BLACK
6
CONTINUOUS
10
241.117
20
-99.879
11
241.091
21
-99.8745
0
LINE
8
BLACK
6
CONTINUOUS
10
241.091
20
-99.8745
11
241.052
21
-99.8415
0
LINE
8
BLACK
6
CONTINUOUS
10
241.052
20
-99.8415
11
241.043
21
-99.791
0
LINE
8
BLACK
6
CONTINUOUS
10
241.043
20
-99.791
11
241.069
21
-99.7466
0
LINE
8
BLACK
6
CONTINUOUS
10
241.069
20
-99.7466
11
241.117
21
-99.729
0
LINE
8
BLACK
6
CONTINUOUS
10
241.117
20
-99.729
11
241.879
21
-99.729
0
LINE
8
BLACK
6
CONTINUOUS
10
241.879
20
-99.729
11
241.905
21
-99.7335
0
LINE
8
BLACK
6
CONTINUOUS
10
244.238
20
-98.9716
11
244.241
21
-98.9745
0
LINE
8
BLACK
6
CONTINUOUS
10
244.241
20
-98.9745
11
244.246
21
-98.975
0
LINE
8
BLACK
6
CONTINUOUS
10
244.246
20
-98.975
11
244.341
21
-99.0227
0
LINE
8
BLACK
6
CONTINUOUS
10
244.341
20
-99.0227
11
244.359
21
-99.036
0
LINE
8
BLACK
6
CONTINUOUS
10
244.359
20
-99.036
11
244.361
21
-99.0367
0
LINE
8
BLACK
6
CONTINUOUS
10
244.361
20
-99.0367
11
244.408
21
-99.0843
0
LINE
8
BLACK
6
CONTINUOUS
10
244.408
20
-99.0843
11
244.421
21
-99.1027
0
LINE
8
BLACK
6
CONTINUOUS
10
244.421
20
-99.1027
11
244.422
21
-99.1038
0
LINE
8
BLACK
6
CONTINUOUS
10
244.422
20
-99.1038
11
244.47
21
-99.199
0
LINE
8
BLACK
6
CONTINUOUS
10
244.47
20
-99.199
11
244.477
21
-99.224
0
LINE
8
BLACK
6
CONTINUOUS
10
244.477
20
-99.224
11
244.476
21
-99.2284
0
LINE
8
BLACK
6
CONTINUOUS
10
244.476
20
-99.2284
11
244.478
21
-99.2326
0
LINE
8
BLACK
6
CONTINUOUS
10
244.478
20
-99.2326
11
244.478
21
-99.5183
0
LINE
8
BLACK
6
CONTINUOUS
10
244.478
20
-99.5183
11
244.473
21
-99.544
0
LINE
8
BLACK
6
CONTINUOUS
10
244.473
20
-99.544
11
244.47
21
-99.5474
0
LINE
8
BLACK
6
CONTINUOUS
10
244.47
20
-99.5474
11
244.47
21
-99.5518
0
LINE
8
BLACK
6
CONTINUOUS
10
244.47
20
-99.5518
11
244.422
21
-99.6471
0
LINE
8
BLACK
6
CONTINUOUS
10
244.422
20
-99.6471
11
244.409
21
-99.6651
0
LINE
8
BLACK
6
CONTINUOUS
10
244.409
20
-99.6651
11
244.408
21
-99.6666
0
LINE
8
BLACK
6
CONTINUOUS
10
244.408
20
-99.6666
11
244.361
21
-99.7142
0
LINE
8
BLACK
6
CONTINUOUS
10
244.361
20
-99.7142
11
244.342
21
-99.7271
0
LINE
8
BLACK
6
CONTINUOUS
10
244.342
20
-99.7271
11
244.341
21
-99.7282
0
LINE
8
BLACK
6
CONTINUOUS
10
244.341
20
-99.7282
11
244.246
21
-99.7759
0
LINE
8
BLACK
6
CONTINUOUS
10
244.246
20
-99.7759
11
244.221
21
-99.7833
0
LINE
8
BLACK
6
CONTINUOUS
10
244.221
20
-99.7833
11
244.216
21
-99.7822
0
LINE
8
BLACK
6
CONTINUOUS
10
244.216
20
-99.7822
11
244.212
21
-99.7838
0
LINE
8
BLACK
6
CONTINUOUS
10
244.212
20
-99.7838
11
244.069
21
-99.7838
0
LINE
8
BLACK
6
CONTINUOUS
10
244.069
20
-99.7838
11
244.044
21
-99.7793
0
LINE
8
BLACK
6
CONTINUOUS
10
244.044
20
-99.7793
11
244.04
21
-99.7764
0
LINE
8
BLACK
6
CONTINUOUS
10
244.04
20
-99.7764
11
244.036
21
-99.7759
0
LINE
8
BLACK
6
CONTINUOUS
10
244.036
20
-99.7759
11
243.941
21
-99.7282
0
LINE
8
BLACK
6
CONTINUOUS
10
243.941
20
-99.7282
11
243.923
21
-99.7149
0
LINE
8
BLACK
6
CONTINUOUS
10
243.923
20
-99.7149
11
243.921
21
-99.7142
0
LINE
8
BLACK
6
CONTINUOUS
10
243.921
20
-99.7142
11
243.874
21
-99.6666
0
LINE
8
BLACK
6
CONTINUOUS
10
243.874
20
-99.6666
11
243.861
21
-99.6482
0
LINE
8
BLACK
6
CONTINUOUS
10
243.861
20
-99.6482
11
243.859
21
-99.6471
0
LINE
8
BLACK
6
CONTINUOUS
10
243.859
20
-99.6471
11
243.812
21
-99.5518
0
LINE
8
BLACK
6
CONTINUOUS
10
243.812
20
-99.5518
11
243.804
21
-99.5269
0
LINE
8
BLACK
6
CONTINUOUS
10
243.804
20
-99.5269
11
243.805
21
-99.5225
0
LINE
8
BLACK
6
CONTINUOUS
10
243.805
20
-99.5225
11
243.804
21
-99.5183
0
LINE
8
BLACK
6
CONTINUOUS
10
243.804
20
-99.5183
11
243.804
21
-99.2326
0
LINE
8
BLACK
6
CONTINUOUS
10
243.804
20
-99.2326
11
243.808
21
-99.2069
0
LINE
8
BLACK
6
CONTINUOUS
10
243.808
20
-99.2069
11
243.811
21
-99.2035
0
LINE
8
BLACK
6
CONTINUOUS
10
243.811
20
-99.2035
11
243.812
21
-99.199
0
LINE
8
BLACK
6
CONTINUOUS
10
243.812
20
-99.199
11
243.859
21
-99.1038
0
LINE
8
BLACK
6
CONTINUOUS
10
243.859
20
-99.1038
11
243.873
21
-99.0858
0
LINE
8
BLACK
6
CONTINUOUS
10
243.873
20
-99.0858
11
243.874
21
-99.0843
0
LINE
8
BLACK
6
CONTINUOUS
10
243.874
20
-99.0843
11
243.921
21
-99.0367
0
LINE
8
BLACK
6
CONTINUOUS
10
243.921
20
-99.0367
11
243.94
21
-99.0238
0
LINE
8
BLACK
6
CONTINUOUS
10
243.94
20
-99.0238
11
243.941
21
-99.0227
0
LINE
8
BLACK
6
CONTINUOUS
10
243.941
20
-99.0227
11
244.036
21
-98.975
0
LINE
8
BLACK
6
CONTINUOUS
10
244.036
20
-98.975
11
244.061
21
-98.9676
0
LINE
8
BLACK
6
CONTINUOUS
10
244.061
20
-98.9676
11
244.065
21
-98.9686
0
LINE
8
BLACK
6
CONTINUOUS
10
244.065
20
-98.9686
11
244.069
21
-98.9671
0
LINE
8
BLACK
6
CONTINUOUS
10
244.069
20
-98.9671
11
244.212
21
-98.9671
0
LINE
8
BLACK
6
CONTINUOUS
10
244.212
20
-98.9671
11
244.238
21
-98.9716
0
LINE
8
BLACK
6
CONTINUOUS
10
244.087
20
-99.1171
11
244.019
21
-99.1514
0
LINE
8
BLACK
6
CONTINUOUS
10
244.019
20
-99.1514
11
243.988
21
-99.1818
0
LINE
8
BLACK
6
CONTINUOUS
10
243.988
20
-99.1818
11
243.954
21
-99.2503
0
LINE
8
BLACK
6
CONTINUOUS
10
243.954
20
-99.2503
11
243.954
21
-99.5006
0
LINE
8
BLACK
6
CONTINUOUS
10
243.954
20
-99.5006
11
243.988
21
-99.5691
0
LINE
8
BLACK
6
CONTINUOUS
10
243.988
20
-99.5691
11
244.019
21
-99.5995
0
LINE
8
BLACK
6
CONTINUOUS
10
244.019
20
-99.5995
11
244.087
21
-99.6338
0
LINE
8
BLACK
6
CONTINUOUS
10
244.087
20
-99.6338
11
244.195
21
-99.6338
0
LINE
8
BLACK
6
CONTINUOUS
10
244.195
20
-99.6338
11
244.263
21
-99.5995
0
LINE
8
BLACK
6
CONTINUOUS
10
244.263
20
-99.5995
11
244.294
21
-99.5691
0
LINE
8
BLACK
6
CONTINUOUS
10
244.294
20
-99.5691
11
244.328
21
-99.5006
0
LINE
8
BLACK
6
CONTINUOUS
10
244.328
20
-99.5006
11
244.328
21
-99.2503
0
LINE
8
BLACK
6
CONTINUOUS
10
244.328
20
-99.2503
11
244.294
21
-99.1818
0
LINE
8
BLACK
6
CONTINUOUS
10
244.294
20
-99.1818
11
244.263
21
-99.1514
0
LINE
8
BLACK
6
CONTINUOUS
10
244.263
20
-99.1514
11
244.195
21
-99.1171
0
LINE
8
BLACK
6
CONTINUOUS
10
244.195
20
-99.1171
11
244.087
21
-99.1171
0
LINE
8
BLACK
6
CONTINUOUS
10
232.381
20
-98.9716
11
232.384
21
-98.9745
0
LINE
8
BLACK
6
CONTINUOUS
10
232.384
20
-98.9745
11
232.389
21
-98.975
0
LINE
8
BLACK
6
CONTINUOUS
10
232.389
20
-98.975
11
232.484
21
-99.0227
0
LINE
8
BLACK
6
CONTINUOUS
10
232.484
20
-99.0227
11
232.505
21
-99.0382
0
LINE
8
BLACK
6
CONTINUOUS
10
232.505
20
-99.0382
11
232.525
21
-99.0852
0
LINE
8
BLACK
6
CONTINUOUS
10
232.525
20
-99.0852
11
232.511
21
-99.1344
0
LINE
8
BLACK
6
CONTINUOUS
10
232.511
20
-99.1344
11
232.468
21
-99.1627
0
LINE
8
BLACK
6
CONTINUOUS
10
232.468
20
-99.1627
11
232.417
21
-99.1568
0
LINE
8
BLACK
6
CONTINUOUS
10
232.417
20
-99.1568
11
232.337
21
-99.1171
0
LINE
8
BLACK
6
CONTINUOUS
10
232.337
20
-99.1171
11
232.182
21
-99.1171
0
LINE
8
BLACK
6
CONTINUOUS
10
232.182
20
-99.1171
11
232.125
21
-99.1456
0
LINE
8
BLACK
6
CONTINUOUS
10
232.125
20
-99.1456
11
232.097
21
-99.2027
0
LINE
8
BLACK
6
CONTINUOUS
10
232.097
20
-99.2027
11
232.097
21
-99.2339
0
LINE
8
BLACK
6
CONTINUOUS
10
232.097
20
-99.2339
11
232.135
21
-99.2528
0
LINE
8
BLACK
6
CONTINUOUS
10
232.135
20
-99.2528
11
232.355
21
-99.2528
0
LINE
8
BLACK
6
CONTINUOUS
10
232.355
20
-99.2528
11
232.381
21
-99.2574
0
LINE
8
BLACK
6
CONTINUOUS
10
232.381
20
-99.2574
11
232.384
21
-99.2602
0
LINE
8
BLACK
6
CONTINUOUS
10
232.384
20
-99.2602
11
232.389
21
-99.2607
0
LINE
8
BLACK
6
CONTINUOUS
10
232.389
20
-99.2607
11
232.484
21
-99.3084
0
LINE
8
BLACK
6
CONTINUOUS
10
232.484
20
-99.3084
11
232.505
21
-99.3239
0
LINE
8
BLACK
6
CONTINUOUS
10
232.505
20
-99.3239
11
232.509
21
-99.3342
0
LINE
8
BLACK
6
CONTINUOUS
10
232.509
20
-99.3342
11
232.517
21
-99.3419
0
LINE
8
BLACK
6
CONTINUOUS
10
232.517
20
-99.3419
11
232.565
21
-99.4371
0
LINE
8
BLACK
6
CONTINUOUS
10
232.565
20
-99.4371
11
232.573
21
-99.4621
0
LINE
8
BLACK
6
CONTINUOUS
10
232.573
20
-99.4621
11
232.571
21
-99.4665
0
LINE
8
BLACK
6
CONTINUOUS
10
232.571
20
-99.4665
11
232.573
21
-99.4707
0
LINE
8
BLACK
6
CONTINUOUS
10
232.573
20
-99.4707
11
232.573
21
-99.5659
0
LINE
8
BLACK
6
CONTINUOUS
10
232.573
20
-99.5659
11
232.568
21
-99.5916
0
LINE
8
BLACK
6
CONTINUOUS
10
232.568
20
-99.5916
11
232.566
21
-99.595
0
LINE
8
BLACK
6
CONTINUOUS
10
232.566
20
-99.595
11
232.565
21
-99.5995
0
LINE
8
BLACK
6
CONTINUOUS
10
232.565
20
-99.5995
11
232.517
21
-99.6947
0
LINE
8
BLACK
6
CONTINUOUS
10
232.517
20
-99.6947
11
232.502
21
-99.7156
0
LINE
8
BLACK
6
CONTINUOUS
10
232.502
20
-99.7156
11
232.492
21
-99.7201
0
LINE
8
BLACK
6
CONTINUOUS
10
232.492
20
-99.7201
11
232.484
21
-99.7282
0
LINE
8
BLACK
6
CONTINUOUS
10
232.484
20
-99.7282
11
232.389
21
-99.7759
0
LINE
8
BLACK
6
CONTINUOUS
10
232.389
20
-99.7759
11
232.364
21
-99.7833
0
LINE
8
BLACK
6
CONTINUOUS
10
232.364
20
-99.7833
11
232.359
21
-99.7822
0
LINE
8
BLACK
6
CONTINUOUS
10
232.359
20
-99.7822
11
232.355
21
-99.7838
0
LINE
8
BLACK
6
CONTINUOUS
10
232.355
20
-99.7838
11
232.117
21
-99.7838
0
LINE
8
BLACK
6
CONTINUOUS
10
232.117
20
-99.7838
11
232.091
21
-99.7793
0
LINE
8
BLACK
6
CONTINUOUS
10
232.091
20
-99.7793
11
232.088
21
-99.7764
0
LINE
8
BLACK
6
CONTINUOUS
10
232.088
20
-99.7764
11
232.084
21
-99.7759
0
LINE
8
BLACK
6
CONTINUOUS
10
232.084
20
-99.7759
11
232.065
21
-99.7667
0
LINE
8
BLACK
6
CONTINUOUS
10
232.065
20
-99.7667
11
232.059
21
-99.7737
0
LINE
8
BLACK
6
CONTINUOUS
10
232.059
20
-99.7737
11
232.009
21
-99.7826
0
LINE
8
BLACK
6
CONTINUOUS
10
232.009
20
-99.7826
11
231.964
21
-99.757
0
LINE
8
BLACK
6
CONTINUOUS
10
231.964
20
-99.757
11
231.947
21
-99.7088
0
LINE
8
BLACK
6
CONTINUOUS
10
231.947
20
-99.7088
11
231.947
21
-99.185
0
LINE
8
BLACK
6
CONTINUOUS
10
231.947
20
-99.185
11
231.951
21
-99.1593
0
LINE
8
BLACK
6
CONTINUOUS
10
231.951
20
-99.1593
11
231.954
21
-99.1559
0
LINE
8
BLACK
6
CONTINUOUS
10
231.954
20
-99.1559
11
231.955
21
-99.1514
0
LINE
8
BLACK
6
CONTINUOUS
10
231.955
20
-99.1514
11
232.002
21
-99.0562
0
LINE
8
BLACK
6
CONTINUOUS
10
232.002
20
-99.0562
11
232.018
21
-99.0353
0
LINE
8
BLACK
6
CONTINUOUS
10
232.018
20
-99.0353
11
232.028
21
-99.0308
0
LINE
8
BLACK
6
CONTINUOUS
10
232.028
20
-99.0308
11
232.036
21
-99.0227
0
LINE
8
BLACK
6
CONTINUOUS
10
232.036
20
-99.0227
11
232.131
21
-98.975
0
LINE
8
BLACK
6
CONTINUOUS
10
232.131
20
-98.975
11
232.156
21
-98.9676
0
LINE
8
BLACK
6
CONTINUOUS
10
232.156
20
-98.9676
11
232.16
21
-98.9686
0
LINE
8
BLACK
6
CONTINUOUS
10
232.16
20
-98.9686
11
232.165
21
-98.9671
0
LINE
8
BLACK
6
CONTINUOUS
10
232.165
20
-98.9671
11
232.355
21
-98.9671
0
LINE
8
BLACK
6
CONTINUOUS
10
232.355
20
-98.9671
11
232.381
21
-98.9716
0
LINE
8
BLACK
6
CONTINUOUS
10
232.097
20
-99.6148
11
232.135
21
-99.6338
0
LINE
8
BLACK
6
CONTINUOUS
10
232.135
20
-99.6338
11
232.337
21
-99.6338
0
LINE
8
BLACK
6
CONTINUOUS
10
232.337
20
-99.6338
11
232.394
21
-99.6053
0
LINE
8
BLACK
6
CONTINUOUS
10
232.394
20
-99.6053
11
232.423
21
-99.5482
0
LINE
8
BLACK
6
CONTINUOUS
10
232.423
20
-99.5482
11
232.423
21
-99.4884
0
LINE
8
BLACK
6
CONTINUOUS
10
232.423
20
-99.4884
11
232.394
21
-99.4313
0
LINE
8
BLACK
6
CONTINUOUS
10
232.394
20
-99.4313
11
232.337
21
-99.4028
0
LINE
8
BLACK
6
CONTINUOUS
10
232.337
20
-99.4028
11
232.117
21
-99.4028
0
LINE
8
BLACK
6
CONTINUOUS
10
232.117
20
-99.4028
11
232.097
21
-99.3993
0
LINE
8
BLACK
6
CONTINUOUS
10
232.097
20
-99.3993
11
232.097
21
-99.6148
0
LINE
8
BLACK
6
CONTINUOUS
10
240.714
20
-98.6383
11
240.718
21
-98.6412
0
LINE
8
BLACK
6
CONTINUOUS
10
240.718
20
-98.6412
11
240.722
21
-98.6417
0
LINE
8
BLACK
6
CONTINUOUS
10
240.722
20
-98.6417
11
240.817
21
-98.6893
0
LINE
8
BLACK
6
CONTINUOUS
10
240.817
20
-98.6893
11
240.835
21
-98.7027
0
LINE
8
BLACK
6
CONTINUOUS
10
240.835
20
-98.7027
11
240.837
21
-98.7034
0
LINE
8
BLACK
6
CONTINUOUS
10
240.837
20
-98.7034
11
240.884
21
-98.751
0
LINE
8
BLACK
6
CONTINUOUS
10
240.884
20
-98.751
11
240.897
21
-98.7694
0
LINE
8
BLACK
6
CONTINUOUS
10
240.897
20
-98.7694
11
240.898
21
-98.7705
0
LINE
8
BLACK
6
CONTINUOUS
10
240.898
20
-98.7705
11
240.946
21
-98.8657
0
LINE
8
BLACK
6
CONTINUOUS
10
240.946
20
-98.8657
11
240.95
21
-98.8781
0
LINE
8
BLACK
6
CONTINUOUS
10
240.95
20
-98.8781
11
240.952
21
-98.8811
0
LINE
8
BLACK
6
CONTINUOUS
10
240.952
20
-98.8811
11
240.999
21
-99.0715
0
LINE
8
BLACK
6
CONTINUOUS
10
240.999
20
-99.0715
11
241
21
-99.0865
0
LINE
8
BLACK
6
CONTINUOUS
10
241
20
-99.0865
11
241.002
21
-99.0897
0
LINE
8
BLACK
6
CONTINUOUS
10
241.002
20
-99.0897
11
241.002
21
-99.3278
0
LINE
8
BLACK
6
CONTINUOUS
10
241.002
20
-99.3278
11
240.999
21
-99.3426
0
LINE
8
BLACK
6
CONTINUOUS
10
240.999
20
-99.3426
11
240.999
21
-99.346
0
LINE
8
BLACK
6
CONTINUOUS
10
240.999
20
-99.346
11
240.952
21
-99.5365
0
LINE
8
BLACK
6
CONTINUOUS
10
240.952
20
-99.5365
11
240.946
21
-99.5483
0
LINE
8
BLACK
6
CONTINUOUS
10
240.946
20
-99.5483
11
240.946
21
-99.5518
0
LINE
8
BLACK
6
CONTINUOUS
10
240.946
20
-99.5518
11
240.898
21
-99.6471
0
LINE
8
BLACK
6
CONTINUOUS
10
240.898
20
-99.6471
11
240.885
21
-99.6651
0
LINE
8
BLACK
6
CONTINUOUS
10
240.885
20
-99.6651
11
240.884
21
-99.6666
0
LINE
8
BLACK
6
CONTINUOUS
10
240.884
20
-99.6666
11
240.837
21
-99.7142
0
LINE
8
BLACK
6
CONTINUOUS
10
240.837
20
-99.7142
11
240.818
21
-99.7271
0
LINE
8
BLACK
6
CONTINUOUS
10
240.818
20
-99.7271
11
240.817
21
-99.7282
0
LINE
8
BLACK
6
CONTINUOUS
10
240.817
20
-99.7282
11
240.722
21
-99.7759
0
LINE
8
BLACK
6
CONTINUOUS
10
240.722
20
-99.7759
11
240.697
21
-99.7833
0
LINE
8
BLACK
6
CONTINUOUS
10
240.697
20
-99.7833
11
240.693
21
-99.7822
0
LINE
8
BLACK
6
CONTINUOUS
10
240.693
20
-99.7822
11
240.688
21
-99.7838
0
LINE
8
BLACK
6
CONTINUOUS
10
240.688
20
-99.7838
11
240.593
21
-99.7838
0
LINE
8
BLACK
6
CONTINUOUS
10
240.593
20
-99.7838
11
240.568
21
-99.7793
0
LINE
8
BLACK
6
CONTINUOUS
10
240.568
20
-99.7793
11
240.564
21
-99.7764
0
LINE
8
BLACK
6
CONTINUOUS
10
240.564
20
-99.7764
11
240.56
21
-99.7759
0
LINE
8
BLACK
6
CONTINUOUS
10
240.56
20
-99.7759
11
240.464
21
-99.7282
0
LINE
8
BLACK
6
CONTINUOUS
10
240.464
20
-99.7282
11
240.446
21
-99.7149
0
LINE
8
BLACK
6
CONTINUOUS
10
240.446
20
-99.7149
11
240.445
21
-99.7142
0
LINE
8
BLACK
6
CONTINUOUS
10
240.445
20
-99.7142
11
240.397
21
-99.6666
0
LINE
8
BLACK
6
CONTINUOUS
10
240.397
20
-99.6666
11
240.384
21
-99.6482
0
LINE
8
BLACK
6
CONTINUOUS
10
240.384
20
-99.6482
11
240.383
21
-99.6471
0
LINE
8
BLACK
6
CONTINUOUS
10
240.383
20
-99.6471
11
240.336
21
-99.5518
0
LINE
8
BLACK
6
CONTINUOUS
10
240.336
20
-99.5518
11
240.332
21
-99.5394
0
LINE
8
BLACK
6
CONTINUOUS
10
240.332
20
-99.5394
11
240.33
21
-99.5365
0
LINE
8
BLACK
6
CONTINUOUS
10
240.33
20
-99.5365
11
240.282
21
-99.346
0
LINE
8
BLACK
6
CONTINUOUS
10
240.282
20
-99.346
11
240.281
21
-99.3311
0
LINE
8
BLACK
6
CONTINUOUS
10
240.281
20
-99.3311
11
240.28
21
-99.3278
0
LINE
8
BLACK
6
CONTINUOUS
10
240.28
20
-99.3278
11
240.28
21
-99.0897
0
LINE
8
BLACK
6
CONTINUOUS
10
240.28
20
-99.0897
11
240.283
21
-99.075
0
LINE
8
BLACK
6
CONTINUOUS
10
240.283
20
-99.075
11
240.282
21
-99.0715
0
LINE
8
BLACK
6
CONTINUOUS
10
240.282
20
-99.0715
11
240.33
21
-98.8811
0
LINE
8
BLACK
6
CONTINUOUS
10
240.33
20
-98.8811
11
240.335
21
-98.8692
0
LINE
8
BLACK
6
CONTINUOUS
10
240.335
20
-98.8692
11
240.336
21
-98.8657
0
LINE
8
BLACK
6
CONTINUOUS
10
240.336
20
-98.8657
11
240.383
21
-98.7705
0
LINE
8
BLACK
6
CONTINUOUS
10
240.383
20
-98.7705
11
240.397
21
-98.7525
0
LINE
8
BLACK
6
CONTINUOUS
10
240.397
20
-98.7525
11
240.397
21
-98.751
0
LINE
8
BLACK
6
CONTINUOUS
10
240.397
20
-98.751
11
240.445
21
-98.7034
0
LINE
8
BLACK
6
CONTINUOUS
10
240.445
20
-98.7034
11
240.463
21
-98.6905
0
LINE
8
BLACK
6
CONTINUOUS
10
240.463
20
-98.6905
11
240.464
21
-98.6893
0
LINE
8
BLACK
6
CONTINUOUS
10
240.464
20
-98.6893
11
240.56
21
-98.6417
0
LINE
8
BLACK
6
CONTINUOUS
10
240.56
20
-98.6417
11
240.585
21
-98.6343
0
LINE
8
BLACK
6
CONTINUOUS
10
240.585
20
-98.6343
11
240.589
21
-98.6353
0
LINE
8
BLACK
6
CONTINUOUS
10
240.589
20
-98.6353
11
240.593
21
-98.6338
0
LINE
8
BLACK
6
CONTINUOUS
10
240.593
20
-98.6338
11
240.688
21
-98.6338
0
LINE
8
BLACK
6
CONTINUOUS
10
240.688
20
-98.6338
11
240.714
21
-98.6383
0
LINE
8
BLACK
6
CONTINUOUS
10
240.611
20
-98.7838
11
240.542
21
-98.818
0
LINE
8
BLACK
6
CONTINUOUS
10
240.542
20
-98.818
11
240.512
21
-98.8484
0
LINE
8
BLACK
6
CONTINUOUS
10
240.512
20
-98.8484
11
240.474
21
-98.9254
0
LINE
8
BLACK
6
CONTINUOUS
10
240.474
20
-98.9254
11
240.43
21
-99.099
0
LINE
8
BLACK
6
CONTINUOUS
10
240.43
20
-99.099
11
240.43
21
-99.3186
0
LINE
8
BLACK
6
CONTINUOUS
10
240.43
20
-99.3186
11
240.474
21
-99.4921
0
LINE
8
BLACK
6
CONTINUOUS
10
240.474
20
-99.4921
11
240.512
21
-99.5691
0
LINE
8
BLACK
6
CONTINUOUS
10
240.512
20
-99.5691
11
240.542
21
-99.5995
0
LINE
8
BLACK
6
CONTINUOUS
10
240.542
20
-99.5995
11
240.611
21
-99.6338
0
LINE
8
BLACK
6
CONTINUOUS
10
240.611
20
-99.6338
11
240.671
21
-99.6338
0
LINE
8
BLACK
6
CONTINUOUS
10
240.671
20
-99.6338
11
240.739
21
-99.5995
0
LINE
8
BLACK
6
CONTINUOUS
10
240.739
20
-99.5995
11
240.77
21
-99.5691
0
LINE
8
BLACK
6
CONTINUOUS
10
240.77
20
-99.5691
11
240.808
21
-99.4921
0
LINE
8
BLACK
6
CONTINUOUS
10
240.808
20
-99.4921
11
240.852
21
-99.3186
0
LINE
8
BLACK
6
CONTINUOUS
10
240.852
20
-99.3186
11
240.852
21
-99.099
0
LINE
8
BLACK
6
CONTINUOUS
10
240.852
20
-99.099
11
240.808
21
-98.9254
0
LINE
8
BLACK
6
CONTINUOUS
10
240.808
20
-98.9254
11
240.77
21
-98.8484
0
LINE
8
BLACK
6
CONTINUOUS
10
240.77
20
-98.8484
11
240.739
21
-98.818
0
LINE
8
BLACK
6
CONTINUOUS
10
240.739
20
-98.818
11
240.671
21
-98.7838
0
LINE
8
BLACK
6
CONTINUOUS
10
240.671
20
-98.7838
11
240.611
21
-98.7838
0
LINE
8
BLACK
6
CONTINUOUS
10
238
20
-98.6383
11
238.003
21
-98.6412
0
LINE
8
BLACK
6
CONTINUOUS
10
238.003
20
-98.6412
11
238.008
21
-98.6417
0
LINE
8
BLACK
6
CONTINUOUS
10
238.008
20
-98.6417
11
238.103
21
-98.6893
0
LINE
8
BLACK
6
CONTINUOUS
10
238.103
20
-98.6893
11
238.121
21
-98.7027
0
LINE
8
BLACK
6
CONTINUOUS
10
238.121
20
-98.7027
11
238.122
21
-98.7034
0
LINE
8
BLACK
6
CONTINUOUS
10
238.122
20
-98.7034
11
238.17
21
-98.751
0
LINE
8
BLACK
6
CONTINUOUS
10
238.17
20
-98.751
11
238.183
21
-98.7694
0
LINE
8
BLACK
6
CONTINUOUS
10
238.183
20
-98.7694
11
238.184
21
-98.7705
0
LINE
8
BLACK
6
CONTINUOUS
10
238.184
20
-98.7705
11
238.232
21
-98.8657
0
LINE
8
BLACK
6
CONTINUOUS
10
238.232
20
-98.8657
11
238.235
21
-98.8781
0
LINE
8
BLACK
6
CONTINUOUS
10
238.235
20
-98.8781
11
238.237
21
-98.8811
0
LINE
8
BLACK
6
CONTINUOUS
10
238.237
20
-98.8811
11
238.285
21
-99.0715
0
LINE
8
BLACK
6
CONTINUOUS
10
238.285
20
-99.0715
11
238.286
21
-99.0865
0
LINE
8
BLACK
6
CONTINUOUS
10
238.286
20
-99.0865
11
238.287
21
-99.0897
0
LINE
8
BLACK
6
CONTINUOUS
10
238.287
20
-99.0897
11
238.287
21
-99.3278
0
LINE
8
BLACK
6
CONTINUOUS
10
238.287
20
-99.3278
11
238.285
21
-99.3426
0
LINE
8
BLACK
6
CONTINUOUS
10
238.285
20
-99.3426
11
238.285
21
-99.346
0
LINE
8
BLACK
6
CONTINUOUS
10
238.285
20
-99.346
11
238.237
21
-99.5365
0
LINE
8
BLACK
6
CONTINUOUS
10
238.237
20
-99.5365
11
238.232
21
-99.5483
0
LINE
8
BLACK
6
CONTINUOUS
10
238.232
20
-99.5483
11
238.232
21
-99.5518
0
LINE
8
BLACK
6
CONTINUOUS
10
238.232
20
-99.5518
11
238.184
21
-99.6471
0
LINE
8
BLACK
6
CONTINUOUS
10
238.184
20
-99.6471
11
238.171
21
-99.6651
0
LINE
8
BLACK
6
CONTINUOUS
10
238.171
20
-99.6651
11
238.17
21
-99.6666
0
LINE
8
BLACK
6
CONTINUOUS
10
238.17
20
-99.6666
11
238.122
21
-99.7142
0
LINE
8
BLACK
6
CONTINUOUS
10
238.122
20
-99.7142
11
238.104
21
-99.7271
0
LINE
8
BLACK
6
CONTINUOUS
10
238.104
20
-99.7271
11
238.103
21
-99.7282
0
LINE
8
BLACK
6
CONTINUOUS
10
238.103
20
-99.7282
11
238.008
21
-99.7759
0
LINE
8
BLACK
6
CONTINUOUS
10
238.008
20
-99.7759
11
237.983
21
-99.7833
0
LINE
8
BLACK
6
CONTINUOUS
10
237.983
20
-99.7833
11
237.978
21
-99.7822
0
LINE
8
BLACK
6
CONTINUOUS
10
237.978
20
-99.7822
11
237.974
21
-99.7838
0
LINE
8
BLACK
6
CONTINUOUS
10
237.974
20
-99.7838
11
237.879
21
-99.7838
0
LINE
8
BLACK
6
CONTINUOUS
10
237.879
20
-99.7838
11
237.853
21
-99.7793
0
LINE
8
BLACK
6
CONTINUOUS
10
237.853
20
-99.7793
11
237.85
21
-99.7764
0
LINE
8
BLACK
6
CONTINUOUS
10
237.85
20
-99.7764
11
237.845
21
-99.7759
0
LINE
8
BLACK
6
CONTINUOUS
10
237.845
20
-99.7759
11
237.75
21
-99.7282
0
LINE
8
BLACK
6
CONTINUOUS
10
237.75
20
-99.7282
11
237.732
21
-99.7149
0
LINE
8
BLACK
6
CONTINUOUS
10
237.732
20
-99.7149
11
237.731
21
-99.7142
0
LINE
8
BLACK
6
CONTINUOUS
10
237.731
20
-99.7142
11
237.683
21
-99.6666
0
LINE
8
BLACK
6
CONTINUOUS
10
237.683
20
-99.6666
11
237.67
21
-99.6482
0
LINE
8
BLACK
6
CONTINUOUS
10
237.67
20
-99.6482
11
237.669
21
-99.6471
0
LINE
8
BLACK
6
CONTINUOUS
10
237.669
20
-99.6471
11
237.621
21
-99.5518
0
LINE
8
BLACK
6
CONTINUOUS
10
237.621
20
-99.5518
11
237.618
21
-99.5394
0
LINE
8
BLACK
6
CONTINUOUS
10
237.618
20
-99.5394
11
237.616
21
-99.5365
0
LINE
8
BLACK
6
CONTINUOUS
10
237.616
20
-99.5365
11
237.568
21
-99.346
0
LINE
8
BLACK
6
CONTINUOUS
10
237.568
20
-99.346
11
237.567
21
-99.3311
0
LINE
8
BLACK
6
CONTINUOUS
10
237.567
20
-99.3311
11
237.566
21
-99.3278
0
LINE
8
BLACK
6
CONTINUOUS
10
237.566
20
-99.3278
11
237.566
21
-99.0897
0
LINE
8
BLACK
6
CONTINUOUS
10
237.566
20
-99.0897
11
237.568
21
-99.075
0
LINE
8
BLACK
6
CONTINUOUS
10
237.568
20
-99.075
11
237.568
21
-99.0715
0
LINE
8
BLACK
6
CONTINUOUS
10
237.568
20
-99.0715
11
237.616
21
-98.8811
0
LINE
8
BLACK
6
CONTINUOUS
10
237.616
20
-98.8811
11
237.621
21
-98.8692
0
LINE
8
BLACK
6
CONTINUOUS
10
237.621
20
-98.8692
11
237.621
21
-98.8657
0
LINE
8
BLACK
6
CONTINUOUS
10
237.621
20
-98.8657
11
237.669
21
-98.7705
0
LINE
8
BLACK
6
CONTINUOUS
10
237.669
20
-98.7705
11
237.682
21
-98.7525
0
LINE
8
BLACK
6
CONTINUOUS
10
237.682
20
-98.7525
11
237.683
21
-98.751
0
LINE
8
BLACK
6
CONTINUOUS
10
237.683
20
-98.751
11
237.731
21
-98.7034
0
LINE
8
BLACK
6
CONTINUOUS
10
237.731
20
-98.7034
11
237.749
21
-98.6905
0
LINE
8
BLACK
6
CONTINUOUS
10
237.749
20
-98.6905
11
237.75
21
-98.6893
0
LINE
8
BLACK
6
CONTINUOUS
10
237.75
20
-98.6893
11
237.845
21
-98.6417
0
LINE
8
BLACK
6
CONTINUOUS
10
237.845
20
-98.6417
11
237.87
21
-98.6343
0
LINE
8
BLACK
6
CONTINUOUS
10
237.87
20
-98.6343
11
237.875
21
-98.6353
0
LINE
8
BLACK
6
CONTINUOUS
10
237.875
20
-98.6353
11
237.879
21
-98.6338
0
LINE
8
BLACK
6
CONTINUOUS
10
237.879
20
-98.6338
11
237.974
21
-98.6338
0
LINE
8
BLACK
6
CONTINUOUS
10
237.974
20
-98.6338
11
238
21
-98.6383
0
LINE
8
BLACK
6
CONTINUOUS
10
237.897
20
-98.7838
11
237.828
21
-98.818
0
LINE
8
BLACK
6
CONTINUOUS
10
237.828
20
-98.818
11
237.798
21
-98.8484
0
LINE
8
BLACK
6
CONTINUOUS
10
237.798
20
-98.8484
11
237.759
21
-98.9254
0
LINE
8
BLACK
6
CONTINUOUS
10
237.759
20
-98.9254
11
237.716
21
-99.099
0
LINE
8
BLACK
6
CONTINUOUS
10
237.716
20
-99.099
11
237.716
21
-99.3186
0
LINE
8
BLACK
6
CONTINUOUS
10
237.716
20
-99.3186
11
237.759
21
-99.4921
0
LINE
8
BLACK
6
CONTINUOUS
10
237.759
20
-99.4921
11
237.798
21
-99.5691
0
LINE
8
BLACK
6
CONTINUOUS
10
237.798
20
-99.5691
11
237.828
21
-99.5995
0
LINE
8
BLACK
6
CONTINUOUS
10
237.828
20
-99.5995
11
237.897
21
-99.6338
0
LINE
8
BLACK
6
CONTINUOUS
10
237.897
20
-99.6338
11
237.956
21
-99.6338
0
LINE
8
BLACK
6
CONTINUOUS
10
237.956
20
-99.6338
11
238.025
21
-99.5995
0
LINE
8
BLACK
6
CONTINUOUS
10
238.025
20
-99.5995
11
238.055
21
-99.5691
0
LINE
8
BLACK
6
CONTINUOUS
10
238.055
20
-99.5691
11
238.094
21
-99.4921
0
LINE
8
BLACK
6
CONTINUOUS
10
238.094
20
-99.4921
11
238.137
21
-99.3186
0
LINE
8
BLACK
6
CONTINUOUS
10
238.137
20
-99.3186
11
238.137
21
-99.099
0
LINE
8
BLACK
6
CONTINUOUS
10
238.137
20
-99.099
11
238.094
21
-98.9254
0
LINE
8
BLACK
6
CONTINUOUS
10
238.094
20
-98.9254
11
238.055
21
-98.8484
0
LINE
8
BLACK
6
CONTINUOUS
10
238.055
20
-98.8484
11
238.025
21
-98.818
0
LINE
8
BLACK
6
CONTINUOUS
10
238.025
20
-98.818
11
237.956
21
-98.7838
0
LINE
8
BLACK
6
CONTINUOUS
10
237.956
20
-98.7838
11
237.897
21
-98.7838
0
LINE
8
BLACK
6
CONTINUOUS
10
230.952
20
-98.9716
11
230.956
21
-98.9745
0
LINE
8
BLACK
6
CONTINUOUS
10
230.956
20
-98.9745
11
230.96
21
-98.975
0
LINE
8
BLACK
6
CONTINUOUS
10
230.96
20
-98.975
11
231.055
21
-99.0227
0
LINE
8
BLACK
6
CONTINUOUS
10
231.055
20
-99.0227
11
231.076
21
-99.0382
0
LINE
8
BLACK
6
CONTINUOUS
10
231.076
20
-99.0382
11
231.081
21
-99.0485
0
LINE
8
BLACK
6
CONTINUOUS
10
231.081
20
-99.0485
11
231.089
21
-99.0562
0
LINE
8
BLACK
6
CONTINUOUS
10
231.089
20
-99.0562
11
231.137
21
-99.1514
0
LINE
8
BLACK
6
CONTINUOUS
10
231.137
20
-99.1514
11
231.144
21
-99.1764
0
LINE
8
BLACK
6
CONTINUOUS
10
231.144
20
-99.1764
11
231.143
21
-99.1808
0
LINE
8
BLACK
6
CONTINUOUS
10
231.143
20
-99.1808
11
231.144
21
-99.185
0
LINE
8
BLACK
6
CONTINUOUS
10
231.144
20
-99.185
11
231.144
21
-99.5659
0
LINE
8
BLACK
6
CONTINUOUS
10
231.144
20
-99.5659
11
231.14
21
-99.5916
0
LINE
8
BLACK
6
CONTINUOUS
10
231.14
20
-99.5916
11
231.137
21
-99.595
0
LINE
8
BLACK
6
CONTINUOUS
10
231.137
20
-99.595
11
231.137
21
-99.5995
0
LINE
8
BLACK
6
CONTINUOUS
10
231.137
20
-99.5995
11
231.089
21
-99.6947
0
LINE
8
BLACK
6
CONTINUOUS
10
231.089
20
-99.6947
11
231.073
21
-99.7156
0
LINE
8
BLACK
6
CONTINUOUS
10
231.073
20
-99.7156
11
231.063
21
-99.7201
0
LINE
8
BLACK
6
CONTINUOUS
10
231.063
20
-99.7201
11
231.055
21
-99.7282
0
LINE
8
BLACK
6
CONTINUOUS
10
231.055
20
-99.7282
11
230.96
21
-99.7759
0
LINE
8
BLACK
6
CONTINUOUS
10
230.96
20
-99.7759
11
230.935
21
-99.7833
0
LINE
8
BLACK
6
CONTINUOUS
10
230.935
20
-99.7833
11
230.931
21
-99.7822
0
LINE
8
BLACK
6
CONTINUOUS
10
230.931
20
-99.7822
11
230.927
21
-99.7838
0
LINE
8
BLACK
6
CONTINUOUS
10
230.927
20
-99.7838
11
230.736
21
-99.7838
0
LINE
8
BLACK
6
CONTINUOUS
10
230.736
20
-99.7838
11
230.71
21
-99.7793
0
LINE
8
BLACK
6
CONTINUOUS
10
230.71
20
-99.7793
11
230.707
21
-99.7764
0
LINE
8
BLACK
6
CONTINUOUS
10
230.707
20
-99.7764
11
230.703
21
-99.7759
0
LINE
8
BLACK
6
CONTINUOUS
10
230.703
20
-99.7759
11
230.607
21
-99.7282
0
LINE
8
BLACK
6
CONTINUOUS
10
230.607
20
-99.7282
11
230.586
21
-99.7127
0
LINE
8
BLACK
6
CONTINUOUS
10
230.586
20
-99.7127
11
230.566
21
-99.6657
0
LINE
8
BLACK
6
CONTINUOUS
10
230.566
20
-99.6657
11
230.581
21
-99.6165
0
LINE
8
BLACK
6
CONTINUOUS
10
230.581
20
-99.6165
11
230.623
21
-99.5882
0
LINE
8
BLACK
6
CONTINUOUS
10
230.623
20
-99.5882
11
230.674
21
-99.5941
0
LINE
8
BLACK
6
CONTINUOUS
10
230.674
20
-99.5941
11
230.754
21
-99.6338
0
LINE
8
BLACK
6
CONTINUOUS
10
230.754
20
-99.6338
11
230.909
21
-99.6338
0
LINE
8
BLACK
6
CONTINUOUS
10
230.909
20
-99.6338
11
230.966
21
-99.6053
0
LINE
8
BLACK
6
CONTINUOUS
10
230.966
20
-99.6053
11
230.994
21
-99.5482
0
LINE
8
BLACK
6
CONTINUOUS
10
230.994
20
-99.5482
11
230.994
21
-99.4369
0
LINE
8
BLACK
6
CONTINUOUS
10
230.994
20
-99.4369
11
230.579
21
-99.3538
0
LINE
8
BLACK
6
CONTINUOUS
10
230.579
20
-99.3538
11
230.554
21
-99.3443
0
LINE
8
BLACK
6
CONTINUOUS
10
230.554
20
-99.3443
11
230.547
21
-99.3346
0
LINE
8
BLACK
6
CONTINUOUS
10
230.547
20
-99.3346
11
230.536
21
-99.3284
0
LINE
8
BLACK
6
CONTINUOUS
10
230.536
20
-99.3284
11
230.531
21
-99.3152
0
LINE
8
BLACK
6
CONTINUOUS
10
230.531
20
-99.3152
11
230.522
21
-99.3042
0
LINE
8
BLACK
6
CONTINUOUS
10
230.522
20
-99.3042
11
230.522
21
-99.2919
0
LINE
8
BLACK
6
CONTINUOUS
10
230.522
20
-99.2919
11
230.518
21
-99.2802
0
LINE
8
BLACK
6
CONTINUOUS
10
230.518
20
-99.2802
11
230.518
21
-99.185
0
LINE
8
BLACK
6
CONTINUOUS
10
230.518
20
-99.185
11
230.523
21
-99.1593
0
LINE
8
BLACK
6
CONTINUOUS
10
230.523
20
-99.1593
11
230.526
21
-99.1559
0
LINE
8
BLACK
6
CONTINUOUS
10
230.526
20
-99.1559
11
230.526
21
-99.1514
0
LINE
8
BLACK
6
CONTINUOUS
10
230.526
20
-99.1514
11
230.574
21
-99.0562
0
LINE
8
BLACK
6
CONTINUOUS
10
230.574
20
-99.0562
11
230.589
21
-99.0353
0
LINE
8
BLACK
6
CONTINUOUS
10
230.589
20
-99.0353
11
230.6
21
-99.0308
0
LINE
8
BLACK
6
CONTINUOUS
10
230.6
20
-99.0308
11
230.607
21
-99.0227
0
LINE
8
BLACK
6
CONTINUOUS
10
230.607
20
-99.0227
11
230.703
21
-98.975
0
LINE
8
BLACK
6
CONTINUOUS
10
230.703
20
-98.975
11
230.728
21
-98.9676
0
LINE
8
BLACK
6
CONTINUOUS
10
230.728
20
-98.9676
11
230.732
21
-98.9686
0
LINE
8
BLACK
6
CONTINUOUS
10
230.732
20
-98.9686
11
230.736
21
-98.9671
0
LINE
8
BLACK
6
CONTINUOUS
10
230.736
20
-98.9671
11
230.927
21
-98.9671
0
LINE
8
BLACK
6
CONTINUOUS
10
230.927
20
-98.9671
11
230.952
21
-98.9716
0
LINE
8
BLACK
6
CONTINUOUS
10
230.754
20
-99.1171
11
230.697
21
-99.1456
0
LINE
8
BLACK
6
CONTINUOUS
10
230.697
20
-99.1456
11
230.668
21
-99.2027
0
LINE
8
BLACK
6
CONTINUOUS
10
230.668
20
-99.2027
11
230.668
21
-99.2187
0
LINE
8
BLACK
6
CONTINUOUS
10
230.668
20
-99.2187
11
230.994
21
-99.284
0
LINE
8
BLACK
6
CONTINUOUS
10
230.994
20
-99.284
11
230.994
21
-99.2027
0
LINE
8
BLACK
6
CONTINUOUS
10
230.994
20
-99.2027
11
230.966
21
-99.1456
0
LINE
8
BLACK
6
CONTINUOUS
10
230.966
20
-99.1456
11
230.909
21
-99.1171
0
LINE
8
BLACK
6
CONTINUOUS
10
230.909
20
-99.1171
11
230.754
21
-99.1171
0
LINE
8
BLACK
6
CONTINUOUS
10
234.571
20
-98.9716
11
234.575
21
-98.9745
0
LINE
8
BLACK
6
CONTINUOUS
10
234.575
20
-98.9745
11
234.579
21
-98.975
0
LINE
8
BLACK
6
CONTINUOUS
10
234.579
20
-98.975
11
234.674
21
-99.0227
0
LINE
8
BLACK
6
CONTINUOUS
10
234.674
20
-99.0227
11
234.695
21
-99.0382
0
LINE
8
BLACK
6
CONTINUOUS
10
234.695
20
-99.0382
11
234.7
21
-99.0485
0
LINE
8
BLACK
6
CONTINUOUS
10
234.7
20
-99.0485
11
234.708
21
-99.0562
0
LINE
8
BLACK
6
CONTINUOUS
10
234.708
20
-99.0562
11
234.756
21
-99.1514
0
LINE
8
BLACK
6
CONTINUOUS
10
234.756
20
-99.1514
11
234.763
21
-99.1764
0
LINE
8
BLACK
6
CONTINUOUS
10
234.763
20
-99.1764
11
234.762
21
-99.1808
0
LINE
8
BLACK
6
CONTINUOUS
10
234.762
20
-99.1808
11
234.763
21
-99.185
0
LINE
8
BLACK
6
CONTINUOUS
10
234.763
20
-99.185
11
234.763
21
-99.5659
0
LINE
8
BLACK
6
CONTINUOUS
10
234.763
20
-99.5659
11
234.759
21
-99.5916
0
LINE
8
BLACK
6
CONTINUOUS
10
234.759
20
-99.5916
11
234.756
21
-99.595
0
LINE
8
BLACK
6
CONTINUOUS
10
234.756
20
-99.595
11
234.756
21
-99.5995
0
LINE
8
BLACK
6
CONTINUOUS
10
234.756
20
-99.5995
11
234.708
21
-99.6947
0
LINE
8
BLACK
6
CONTINUOUS
10
234.708
20
-99.6947
11
234.692
21
-99.7156
0
LINE
8
BLACK
6
CONTINUOUS
10
234.692
20
-99.7156
11
234.682
21
-99.7201
0
LINE
8
BLACK
6
CONTINUOUS
10
234.682
20
-99.7201
11
234.674
21
-99.7282
0
LINE
8
BLACK
6
CONTINUOUS
10
234.674
20
-99.7282
11
234.579
21
-99.7759
0
LINE
8
BLACK
6
CONTINUOUS
10
234.579
20
-99.7759
11
234.554
21
-99.7833
0
LINE
8
BLACK
6
CONTINUOUS
10
234.554
20
-99.7833
11
234.55
21
-99.7822
0
LINE
8
BLACK
6
CONTINUOUS
10
234.55
20
-99.7822
11
234.546
21
-99.7838
0
LINE
8
BLACK
6
CONTINUOUS
10
234.546
20
-99.7838
11
234.355
21
-99.7838
0
LINE
8
BLACK
6
CONTINUOUS
10
234.355
20
-99.7838
11
234.329
21
-99.7793
0
LINE
8
BLACK
6
CONTINUOUS
10
234.329
20
-99.7793
11
234.326
21
-99.7764
0
LINE
8
BLACK
6
CONTINUOUS
10
234.326
20
-99.7764
11
234.322
21
-99.7759
0
LINE
8
BLACK
6
CONTINUOUS
10
234.322
20
-99.7759
11
234.226
21
-99.7282
0
LINE
8
BLACK
6
CONTINUOUS
10
234.226
20
-99.7282
11
234.205
21
-99.7127
0
LINE
8
BLACK
6
CONTINUOUS
10
234.205
20
-99.7127
11
234.185
21
-99.6657
0
LINE
8
BLACK
6
CONTINUOUS
10
234.185
20
-99.6657
11
234.2
21
-99.6165
0
LINE
8
BLACK
6
CONTINUOUS
10
234.2
20
-99.6165
11
234.242
21
-99.5882
0
LINE
8
BLACK
6
CONTINUOUS
10
234.242
20
-99.5882
11
234.293
21
-99.5941
0
LINE
8
BLACK
6
CONTINUOUS
10
234.293
20
-99.5941
11
234.373
21
-99.6338
0
LINE
8
BLACK
6
CONTINUOUS
10
234.373
20
-99.6338
11
234.528
21
-99.6338
0
LINE
8
BLACK
6
CONTINUOUS
10
234.528
20
-99.6338
11
234.585
21
-99.6053
0
LINE
8
BLACK
6
CONTINUOUS
10
234.585
20
-99.6053
11
234.613
21
-99.5482
0
LINE
8
BLACK
6
CONTINUOUS
10
234.613
20
-99.5482
11
234.613
21
-99.4369
0
LINE
8
BLACK
6
CONTINUOUS
10
234.613
20
-99.4369
11
234.198
21
-99.3538
0
LINE
8
BLACK
6
CONTINUOUS
10
234.198
20
-99.3538
11
234.173
21
-99.3443
0
LINE
8
BLACK
6
CONTINUOUS
10
234.173
20
-99.3443
11
234.166
21
-99.3346
0
LINE
8
BLACK
6
CONTINUOUS
10
234.166
20
-99.3346
11
234.155
21
-99.3284
0
LINE
8
BLACK
6
CONTINUOUS
10
234.155
20
-99.3284
11
234.15
21
-99.3152
0
LINE
8
BLACK
6
CONTINUOUS
10
234.15
20
-99.3152
11
234.141
21
-99.3042
0
LINE
8
BLACK
6
CONTINUOUS
10
234.141
20
-99.3042
11
234.142
21
-99.2919
0
LINE
8
BLACK
6
CONTINUOUS
10
234.142
20
-99.2919
11
234.137
21
-99.2802
0
LINE
8
BLACK
6
CONTINUOUS
10
234.137
20
-99.2802
11
234.137
21
-99.185
0
LINE
8
BLACK
6
CONTINUOUS
10
234.137
20
-99.185
11
234.142
21
-99.1593
0
LINE
8
BLACK
6
CONTINUOUS
10
234.142
20
-99.1593
11
234.145
21
-99.1559
0
LINE
8
BLACK
6
CONTINUOUS
10
234.145
20
-99.1559
11
234.145
21
-99.1514
0
LINE
8
BLACK
6
CONTINUOUS
10
234.145
20
-99.1514
11
234.193
21
-99.0562
0
LINE
8
BLACK
6
CONTINUOUS
10
234.193
20
-99.0562
11
234.208
21
-99.0353
0
LINE
8
BLACK
6
CONTINUOUS
10
234.208
20
-99.0353
11
234.219
21
-99.0308
0
LINE
8
BLACK
6
CONTINUOUS
10
234.219
20
-99.0308
11
234.226
21
-99.0227
0
LINE
8
BLACK
6
CONTINUOUS
10
234.226
20
-99.0227
11
234.322
21
-98.975
0
LINE
8
BLACK
6
CONTINUOUS
10
234.322
20
-98.975
11
234.347
21
-98.9676
0
LINE
8
BLACK
6
CONTINUOUS
10
234.347
20
-98.9676
11
234.351
21
-98.9686
0
LINE
8
BLACK
6
CONTINUOUS
10
234.351
20
-98.9686
11
234.355
21
-98.9671
0
LINE
8
BLACK
6
CONTINUOUS
10
234.355
20
-98.9671
11
234.546
21
-98.9671
0
LINE
8
BLACK
6
CONTINUOUS
10
234.546
20
-98.9671
11
234.571
21
-98.9716
0
LINE
8
BLACK
6
CONTINUOUS
10
234.373
20
-99.1171
11
234.316
21
-99.1456
0
LINE
8
BLACK
6
CONTINUOUS
10
234.316
20
-99.1456
11
234.287
21
-99.2027
0
LINE
8
BLACK
6
CONTINUOUS
10
234.287
20
-99.2027
11
234.287
21
-99.2187
0
LINE
8
BLACK
6
CONTINUOUS
10
234.287
20
-99.2187
11
234.613
21
-99.284
0
LINE
8
BLACK
6
CONTINUOUS
10
234.613
20
-99.284
11
234.613
21
-99.2027
0
LINE
8
BLACK
6
CONTINUOUS
10
234.613
20
-99.2027
11
234.585
21
-99.1456
0
LINE
8
BLACK
6
CONTINUOUS
10
234.585
20
-99.1456
11
234.528
21
-99.1171
0
LINE
8
BLACK
6
CONTINUOUS
10
234.528
20
-99.1171
11
234.373
21
-99.1171
0
LINE
8
BLACK
6
CONTINUOUS
10
239.705
20
-98.6371
11
239.71
21
-98.6368
0
LINE
8
BLACK
6
CONTINUOUS
10
239.71
20
-98.6368
11
239.727
21
-98.6497
0
LINE
8
BLACK
6
CONTINUOUS
10
239.727
20
-98.6497
11
239.746
21
-98.6606
0
LINE
8
BLACK
6
CONTINUOUS
10
239.746
20
-98.6606
11
239.747
21
-98.6646
0
LINE
8
BLACK
6
CONTINUOUS
10
239.747
20
-98.6646
11
239.751
21
-98.6672
0
LINE
8
BLACK
6
CONTINUOUS
10
239.751
20
-98.6672
11
239.842
21
-98.8039
0
LINE
8
BLACK
6
CONTINUOUS
10
239.842
20
-98.8039
11
239.923
21
-98.8852
0
LINE
8
BLACK
6
CONTINUOUS
10
239.923
20
-98.8852
11
240.008
21
-98.9274
0
LINE
8
BLACK
6
CONTINUOUS
10
240.008
20
-98.9274
11
240.029
21
-98.9429
0
LINE
8
BLACK
6
CONTINUOUS
10
240.029
20
-98.9429
11
240.049
21
-98.99
0
LINE
8
BLACK
6
CONTINUOUS
10
240.049
20
-98.99
11
240.034
21
-99.0392
0
LINE
8
BLACK
6
CONTINUOUS
10
240.034
20
-99.0392
11
239.992
21
-99.0674
0
LINE
8
BLACK
6
CONTINUOUS
10
239.992
20
-99.0674
11
239.941
21
-99.0616
0
LINE
8
BLACK
6
CONTINUOUS
10
239.941
20
-99.0616
11
239.845
21
-99.014
0
LINE
8
BLACK
6
CONTINUOUS
10
239.845
20
-99.014
11
239.827
21
-99.0006
0
LINE
8
BLACK
6
CONTINUOUS
10
239.827
20
-99.0006
11
239.826
21
-98.9999
0
LINE
8
BLACK
6
CONTINUOUS
10
239.826
20
-98.9999
11
239.763
21
-98.9375
0
LINE
8
BLACK
6
CONTINUOUS
10
239.763
20
-98.9375
11
239.763
21
-99.6338
0
LINE
8
BLACK
6
CONTINUOUS
10
239.763
20
-99.6338
11
239.974
21
-99.6338
0
LINE
8
BLACK
6
CONTINUOUS
10
239.974
20
-99.6338
11
240
21
-99.6383
0
LINE
8
BLACK
6
CONTINUOUS
10
240
20
-99.6383
11
240.039
21
-99.6713
0
LINE
8
BLACK
6
CONTINUOUS
10
240.039
20
-99.6713
11
240.048
21
-99.7218
0
LINE
8
BLACK
6
CONTINUOUS
10
240.048
20
-99.7218
11
240.022
21
-99.7662
0
LINE
8
BLACK
6
CONTINUOUS
10
240.022
20
-99.7662
11
239.974
21
-99.7838
0
LINE
8
BLACK
6
CONTINUOUS
10
239.974
20
-99.7838
11
239.403
21
-99.7838
0
LINE
8
BLACK
6
CONTINUOUS
10
239.403
20
-99.7838
11
239.377
21
-99.7793
0
LINE
8
BLACK
6
CONTINUOUS
10
239.377
20
-99.7793
11
239.338
21
-99.7463
0
LINE
8
BLACK
6
CONTINUOUS
10
239.338
20
-99.7463
11
239.329
21
-99.6958
0
LINE
8
BLACK
6
CONTINUOUS
10
239.329
20
-99.6958
11
239.355
21
-99.6513
0
LINE
8
BLACK
6
CONTINUOUS
10
239.355
20
-99.6513
11
239.403
21
-99.6338
0
LINE
8
BLACK
6
CONTINUOUS
10
239.403
20
-99.6338
11
239.613
21
-99.6338
0
LINE
8
BLACK
6
CONTINUOUS
10
239.613
20
-99.6338
11
239.613
21
-98.7088
0
LINE
8
BLACK
6
CONTINUOUS
10
239.613
20
-98.7088
11
239.618
21
-98.6831
0
LINE
8
BLACK
6
CONTINUOUS
10
239.618
20
-98.6831
11
239.621
21
-98.6798
0
LINE
8
BLACK
6
CONTINUOUS
10
239.621
20
-98.6798
11
239.621
21
-98.6755
0
LINE
8
BLACK
6
CONTINUOUS
10
239.621
20
-98.6755
11
239.637
21
-98.6605
0
LINE
8
BLACK
6
CONTINUOUS
10
239.637
20
-98.6605
11
239.651
21
-98.6438
0
LINE
8
BLACK
6
CONTINUOUS
10
239.651
20
-98.6438
11
239.655
21
-98.6431
0
LINE
8
BLACK
6
CONTINUOUS
10
239.655
20
-98.6431
11
239.658
21
-98.6401
0
LINE
8
BLACK
6
CONTINUOUS
10
239.658
20
-98.6401
11
239.68
21
-98.6387
0
LINE
8
BLACK
6
CONTINUOUS
10
239.68
20
-98.6387
11
239.701
21
-98.6349
0
LINE
8
BLACK
6
CONTINUOUS
10
239.701
20
-98.6349
11
239.705
21
-98.6371
0
LINE
8
BLACK
6
CONTINUOUS
10
245.092
20
-98.6377
11
245.093
21
-98.6376
0
LINE
8
BLACK
6
CONTINUOUS
10
245.093
20
-98.6376
11
245.236
21
-98.6852
0
LINE
8
BLACK
6
CONTINUOUS
10
245.236
20
-98.6852
11
245.259
21
-98.6977
0
LINE
8
BLACK
6
CONTINUOUS
10
245.259
20
-98.6977
11
245.261
21
-98.7015
0
LINE
8
BLACK
6
CONTINUOUS
10
245.261
20
-98.7015
11
245.265
21
-98.7034
0
LINE
8
BLACK
6
CONTINUOUS
10
245.265
20
-98.7034
11
245.361
21
-98.7986
0
LINE
8
BLACK
6
CONTINUOUS
10
245.361
20
-98.7986
11
245.373
21
-98.817
0
LINE
8
BLACK
6
CONTINUOUS
10
245.373
20
-98.817
11
245.375
21
-98.8181
0
LINE
8
BLACK
6
CONTINUOUS
10
245.375
20
-98.8181
11
245.422
21
-98.9133
0
LINE
8
BLACK
6
CONTINUOUS
10
245.422
20
-98.9133
11
245.426
21
-98.9257
0
LINE
8
BLACK
6
CONTINUOUS
10
245.426
20
-98.9257
11
245.428
21
-98.9287
0
LINE
8
BLACK
6
CONTINUOUS
10
245.428
20
-98.9287
11
245.476
21
-99.1192
0
LINE
8
BLACK
6
CONTINUOUS
10
245.476
20
-99.1192
11
245.477
21
-99.1341
0
LINE
8
BLACK
6
CONTINUOUS
10
245.477
20
-99.1341
11
245.478
21
-99.1374
0
LINE
8
BLACK
6
CONTINUOUS
10
245.478
20
-99.1374
11
245.478
21
-99.2802
0
LINE
8
BLACK
6
CONTINUOUS
10
245.478
20
-99.2802
11
245.475
21
-99.295
0
LINE
8
BLACK
6
CONTINUOUS
10
245.475
20
-99.295
11
245.476
21
-99.2984
0
LINE
8
BLACK
6
CONTINUOUS
10
245.476
20
-99.2984
11
245.428
21
-99.4889
0
LINE
8
BLACK
6
CONTINUOUS
10
245.428
20
-99.4889
11
245.423
21
-99.5007
0
LINE
8
BLACK
6
CONTINUOUS
10
245.423
20
-99.5007
11
245.422
21
-99.5042
0
LINE
8
BLACK
6
CONTINUOUS
10
245.422
20
-99.5042
11
245.375
21
-99.5995
0
LINE
8
BLACK
6
CONTINUOUS
10
245.375
20
-99.5995
11
245.361
21
-99.6175
0
LINE
8
BLACK
6
CONTINUOUS
10
245.361
20
-99.6175
11
245.361
21
-99.619
0
LINE
8
BLACK
6
CONTINUOUS
10
245.361
20
-99.619
11
245.265
21
-99.7142
0
LINE
8
BLACK
6
CONTINUOUS
10
245.265
20
-99.7142
11
245.244
21
-99.7291
0
LINE
8
BLACK
6
CONTINUOUS
10
245.244
20
-99.7291
11
245.24
21
-99.7295
0
LINE
8
BLACK
6
CONTINUOUS
10
245.24
20
-99.7295
11
245.236
21
-99.7323
0
LINE
8
BLACK
6
CONTINUOUS
10
245.236
20
-99.7323
11
245.093
21
-99.7799
0
LINE
8
BLACK
6
CONTINUOUS
10
245.093
20
-99.7799
11
245.071
21
-99.7832
0
LINE
8
BLACK
6
CONTINUOUS
10
245.071
20
-99.7832
11
245.069
21
-99.7838
0
LINE
8
BLACK
6
CONTINUOUS
10
245.069
20
-99.7838
11
244.974
21
-99.7838
0
LINE
8
BLACK
6
CONTINUOUS
10
244.974
20
-99.7838
11
244.952
21
-99.7799
0
LINE
8
BLACK
6
CONTINUOUS
10
244.952
20
-99.7799
11
244.95
21
-99.7799
0
LINE
8
BLACK
6
CONTINUOUS
10
244.95
20
-99.7799
11
244.808
21
-99.7323
0
LINE
8
BLACK
6
CONTINUOUS
10
244.808
20
-99.7323
11
244.785
21
-99.7199
0
LINE
8
BLACK
6
CONTINUOUS
10
244.785
20
-99.7199
11
244.782
21
-99.7161
0
LINE
8
BLACK
6
CONTINUOUS
10
244.782
20
-99.7161
11
244.778
21
-99.7142
0
LINE
8
BLACK
6
CONTINUOUS
10
244.778
20
-99.7142
11
244.731
21
-99.6666
0
LINE
8
BLACK
6
CONTINUOUS
10
244.731
20
-99.6666
11
244.716
21
-99.6452
0
LINE
8
BLACK
6
CONTINUOUS
10
244.716
20
-99.6452
11
244.711
21
-99.5941
0
LINE
8
BLACK
6
CONTINUOUS
10
244.711
20
-99.5941
11
244.741
21
-99.5521
0
LINE
8
BLACK
6
CONTINUOUS
10
244.741
20
-99.5521
11
244.79
21
-99.5388
0
LINE
8
BLACK
6
CONTINUOUS
10
244.79
20
-99.5388
11
244.837
21
-99.5605
0
LINE
8
BLACK
6
CONTINUOUS
10
244.837
20
-99.5605
11
244.872
21
-99.5956
0
LINE
8
BLACK
6
CONTINUOUS
10
244.872
20
-99.5956
11
244.986
21
-99.6338
0
LINE
8
BLACK
6
CONTINUOUS
10
244.986
20
-99.6338
11
245.057
21
-99.6338
0
LINE
8
BLACK
6
CONTINUOUS
10
245.057
20
-99.6338
11
245.172
21
-99.5956
0
LINE
8
BLACK
6
CONTINUOUS
10
245.172
20
-99.5956
11
245.246
21
-99.5215
0
LINE
8
BLACK
6
CONTINUOUS
10
245.246
20
-99.5215
11
245.284
21
-99.4445
0
LINE
8
BLACK
6
CONTINUOUS
10
245.284
20
-99.4445
11
245.328
21
-99.271
0
LINE
8
BLACK
6
CONTINUOUS
10
245.328
20
-99.271
11
245.328
21
-99.1466
0
LINE
8
BLACK
6
CONTINUOUS
10
245.328
20
-99.1466
11
245.284
21
-98.9731
0
LINE
8
BLACK
6
CONTINUOUS
10
245.284
20
-98.9731
11
245.246
21
-98.8961
0
LINE
8
BLACK
6
CONTINUOUS
10
245.246
20
-98.8961
11
245.172
21
-98.822
0
LINE
8
BLACK
6
CONTINUOUS
10
245.172
20
-98.822
11
245.057
21
-98.7838
0
LINE
8
BLACK
6
CONTINUOUS
10
245.057
20
-98.7838
11
244.986
21
-98.7838
0
LINE
8
BLACK
6
CONTINUOUS
10
244.986
20
-98.7838
11
244.872
21
-98.822
0
LINE
8
BLACK
6
CONTINUOUS
10
244.872
20
-98.822
11
244.837
21
-98.8571
0
LINE
8
BLACK
6
CONTINUOUS
10
244.837
20
-98.8571
11
244.815
21
-98.872
0
LINE
8
BLACK
6
CONTINUOUS
10
244.815
20
-98.872
11
244.764
21
-98.8765
0
LINE
8
BLACK
6
CONTINUOUS
10
244.764
20
-98.8765
11
244.722
21
-98.847
0
LINE
8
BLACK
6
CONTINUOUS
10
244.722
20
-98.847
11
244.709
21
-98.7975
0
LINE
8
BLACK
6
CONTINUOUS
10
244.709
20
-98.7975
11
244.731
21
-98.751
0
LINE
8
BLACK
6
CONTINUOUS
10
244.731
20
-98.751
11
244.778
21
-98.7034
0
LINE
8
BLACK
6
CONTINUOUS
10
244.778
20
-98.7034
11
244.8
21
-98.6884
0
LINE
8
BLACK
6
CONTINUOUS
10
244.8
20
-98.6884
11
244.804
21
-98.688
0
LINE
8
BLACK
6
CONTINUOUS
10
244.804
20
-98.688
11
244.808
21
-98.6852
0
LINE
8
BLACK
6
CONTINUOUS
10
244.808
20
-98.6852
11
244.95
21
-98.6376
0
LINE
8
BLACK
6
CONTINUOUS
10
244.95
20
-98.6376
11
244.973
21
-98.6343
0
LINE
8
BLACK
6
CONTINUOUS
10
244.973
20
-98.6343
11
244.974
21
-98.6338
0
LINE
8
BLACK
6
CONTINUOUS
10
244.974
20
-98.6338
11
245.069
21
-98.6338
0
LINE
8
BLACK
6
CONTINUOUS
10
245.069
20
-98.6338
11
245.092
21
-98.6377
0
LINE
8
BLACK
6
CONTINUOUS
10
231.603
20
-98.6606
11
231.621
21
-98.7088
0
LINE
8
BLACK
6
CONTINUOUS
10
231.621
20
-98.7088
11
231.621
21
-99.5659
0
LINE
8
BLACK
6
CONTINUOUS
10
231.621
20
-99.5659
11
231.616
21
-99.5916
0
LINE
8
BLACK
6
CONTINUOUS
10
231.616
20
-99.5916
11
231.613
21
-99.595
0
LINE
8
BLACK
6
CONTINUOUS
10
231.613
20
-99.595
11
231.613
21
-99.5995
0
LINE
8
BLACK
6
CONTINUOUS
10
231.613
20
-99.5995
11
231.565
21
-99.6947
0
LINE
8
BLACK
6
CONTINUOUS
10
231.565
20
-99.6947
11
231.55
21
-99.7156
0
LINE
8
BLACK
6
CONTINUOUS
10
231.55
20
-99.7156
11
231.539
21
-99.7201
0
LINE
8
BLACK
6
CONTINUOUS
10
231.539
20
-99.7201
11
231.532
21
-99.7282
0
LINE
8
BLACK
6
CONTINUOUS
10
231.532
20
-99.7282
11
231.436
21
-99.7759
0
LINE
8
BLACK
6
CONTINUOUS
10
231.436
20
-99.7759
11
231.411
21
-99.7833
0
LINE
8
BLACK
6
CONTINUOUS
10
231.411
20
-99.7833
11
231.361
21
-99.7714
0
LINE
8
BLACK
6
CONTINUOUS
10
231.361
20
-99.7714
11
231.331
21
-99.7302
0
LINE
8
BLACK
6
CONTINUOUS
10
231.331
20
-99.7302
11
231.334
21
-99.679
0
LINE
8
BLACK
6
CONTINUOUS
10
231.334
20
-99.679
11
231.369
21
-99.6417
0
LINE
8
BLACK
6
CONTINUOUS
10
231.369
20
-99.6417
11
231.442
21
-99.6053
0
LINE
8
BLACK
6
CONTINUOUS
10
231.442
20
-99.6053
11
231.471
21
-99.5482
0
LINE
8
BLACK
6
CONTINUOUS
10
231.471
20
-99.5482
11
231.471
21
-98.7088
0
LINE
8
BLACK
6
CONTINUOUS
10
231.471
20
-98.7088
11
231.475
21
-98.6831
0
LINE
8
BLACK
6
CONTINUOUS
10
231.475
20
-98.6831
11
231.508
21
-98.6438
0
LINE
8
BLACK
6
CONTINUOUS
10
231.508
20
-98.6438
11
231.559
21
-98.6349
0
LINE
8
BLACK
6
CONTINUOUS
10
231.559
20
-98.6349
11
231.603
21
-98.6606
0
LINE
8
BLACK
6
CONTINUOUS
10
239.125
20
-98.9921
11
239.144
21
-99.0397
0
LINE
8
BLACK
6
CONTINUOUS
10
239.144
20
-99.0397
11
239.128
21
-99.0885
0
LINE
8
BLACK
6
CONTINUOUS
10
239.128
20
-99.0885
11
238.903
21
-99.3754
0
LINE
8
BLACK
6
CONTINUOUS
10
238.903
20
-99.3754
11
239.128
21
-99.6624
0
LINE
8
BLACK
6
CONTINUOUS
10
239.128
20
-99.6624
11
239.141
21
-99.6854
0
LINE
8
BLACK
6
CONTINUOUS
10
239.141
20
-99.6854
11
239.139
21
-99.7367
0
LINE
8
BLACK
6
CONTINUOUS
10
239.139
20
-99.7367
11
239.105
21
-99.7749
0
LINE
8
BLACK
6
CONTINUOUS
10
239.105
20
-99.7749
11
239.054
21
-99.7822
0
LINE
8
BLACK
6
CONTINUOUS
10
239.054
20
-99.7822
11
239.01
21
-99.7551
0
LINE
8
BLACK
6
CONTINUOUS
10
239.01
20
-99.7551
11
238.808
21
-99.4968
0
LINE
8
BLACK
6
CONTINUOUS
10
238.808
20
-99.4968
11
238.605
21
-99.7551
0
LINE
8
BLACK
6
CONTINUOUS
10
238.605
20
-99.7551
11
238.585
21
-99.7725
0
LINE
8
BLACK
6
CONTINUOUS
10
238.585
20
-99.7725
11
238.535
21
-99.783
0
LINE
8
BLACK
6
CONTINUOUS
10
238.535
20
-99.783
11
238.49
21
-99.7588
0
LINE
8
BLACK
6
CONTINUOUS
10
238.49
20
-99.7588
11
238.471
21
-99.7112
0
LINE
8
BLACK
6
CONTINUOUS
10
238.471
20
-99.7112
11
238.487
21
-99.6624
0
LINE
8
BLACK
6
CONTINUOUS
10
238.487
20
-99.6624
11
238.712
21
-99.3754
0
LINE
8
BLACK
6
CONTINUOUS
10
238.712
20
-99.3754
11
238.487
21
-99.0885
0
LINE
8
BLACK
6
CONTINUOUS
10
238.487
20
-99.0885
11
238.474
21
-99.0655
0
LINE
8
BLACK
6
CONTINUOUS
10
238.474
20
-99.0655
11
238.476
21
-99.0142
0
LINE
8
BLACK
6
CONTINUOUS
10
238.476
20
-99.0142
11
238.51
21
-98.976
0
LINE
8
BLACK
6
CONTINUOUS
10
238.51
20
-98.976
11
238.561
21
-98.9687
0
LINE
8
BLACK
6
CONTINUOUS
10
238.561
20
-98.9687
11
238.605
21
-98.9958
0
LINE
8
BLACK
6
CONTINUOUS
10
238.605
20
-98.9958
11
238.808
21
-99.2541
0
LINE
8
BLACK
6
CONTINUOUS
10
238.808
20
-99.2541
11
239.01
21
-98.9958
0
LINE
8
BLACK
6
CONTINUOUS
10
239.01
20
-98.9958
11
239.03
21
-98.9784
0
LINE
8
BLACK
6
CONTINUOUS
10
239.03
20
-98.9784
11
239.08
21
-98.9679
0
LINE
8
BLACK
6
CONTINUOUS
10
239.08
20
-98.9679
11
239.125
21
-98.9921
0
LINE
8
BLACK
6
CONTINUOUS
10
233.238
20
-98.9716
11
233.241
21
-98.9745
0
LINE
8
BLACK
6
CONTINUOUS
10
233.241
20
-98.9745
11
233.246
21
-98.975
0
LINE
8
BLACK
6
CONTINUOUS
10
233.246
20
-98.975
11
233.341
21
-99.0227
0
LINE
8
BLACK
6
CONTINUOUS
10
233.341
20
-99.0227
11
233.356
21
-99.0334
0
LINE
8
BLACK
6
CONTINUOUS
10
233.356
20
-99.0334
11
233.361
21
-99.0308
0
LINE
8
BLACK
6
CONTINUOUS
10
233.361
20
-99.0308
11
233.369
21
-99.0227
0
LINE
8
BLACK
6
CONTINUOUS
10
233.369
20
-99.0227
11
233.464
21
-98.975
0
LINE
8
BLACK
6
CONTINUOUS
10
233.464
20
-98.975
11
233.489
21
-98.9676
0
LINE
8
BLACK
6
CONTINUOUS
10
233.489
20
-98.9676
11
233.494
21
-98.9686
0
LINE
8
BLACK
6
CONTINUOUS
10
233.494
20
-98.9686
11
233.498
21
-98.9671
0
LINE
8
BLACK
6
CONTINUOUS
10
233.498
20
-98.9671
11
233.641
21
-98.9671
0
LINE
8
BLACK
6
CONTINUOUS
10
233.641
20
-98.9671
11
233.667
21
-98.9716
0
LINE
8
BLACK
6
CONTINUOUS
10
233.667
20
-98.9716
11
233.67
21
-98.9745
0
LINE
8
BLACK
6
CONTINUOUS
10
233.67
20
-98.9745
11
233.674
21
-98.975
0
LINE
8
BLACK
6
CONTINUOUS
10
233.674
20
-98.975
11
233.726
21
-99.001
0
LINE
8
BLACK
6
CONTINUOUS
10
233.726
20
-99.001
11
233.746
21
-98.9772
0
LINE
8
BLACK
6
CONTINUOUS
10
233.746
20
-98.9772
11
233.797
21
-98.9683
0
LINE
8
BLACK
6
CONTINUOUS
10
233.797
20
-98.9683
11
233.841
21
-98.9939
0
LINE
8
BLACK
6
CONTINUOUS
10
233.841
20
-98.9939
11
233.859
21
-99.0421
0
LINE
8
BLACK
6
CONTINUOUS
10
233.859
20
-99.0421
11
233.859
21
-99.7088
0
LINE
8
BLACK
6
CONTINUOUS
10
233.859
20
-99.7088
11
233.854
21
-99.7344
0
LINE
8
BLACK
6
CONTINUOUS
10
233.854
20
-99.7344
11
233.821
21
-99.7737
0
LINE
8
BLACK
6
CONTINUOUS
10
233.821
20
-99.7737
11
233.771
21
-99.7826
0
LINE
8
BLACK
6
CONTINUOUS
10
233.771
20
-99.7826
11
233.726
21
-99.757
0
LINE
8
BLACK
6
CONTINUOUS
10
233.726
20
-99.757
11
233.709
21
-99.7088
0
LINE
8
BLACK
6
CONTINUOUS
10
233.709
20
-99.7088
11
233.709
21
-99.1684
0
LINE
8
BLACK
6
CONTINUOUS
10
233.709
20
-99.1684
11
233.692
21
-99.1514
0
LINE
8
BLACK
6
CONTINUOUS
10
233.692
20
-99.1514
11
233.623
21
-99.1171
0
LINE
8
BLACK
6
CONTINUOUS
10
233.623
20
-99.1171
11
233.516
21
-99.1171
0
LINE
8
BLACK
6
CONTINUOUS
10
233.516
20
-99.1171
11
233.459
21
-99.1456
0
LINE
8
BLACK
6
CONTINUOUS
10
233.459
20
-99.1456
11
233.43
21
-99.2027
0
LINE
8
BLACK
6
CONTINUOUS
10
233.43
20
-99.2027
11
233.43
21
-99.7088
0
LINE
8
BLACK
6
CONTINUOUS
10
233.43
20
-99.7088
11
233.426
21
-99.7344
0
LINE
8
BLACK
6
CONTINUOUS
10
233.426
20
-99.7344
11
233.393
21
-99.7737
0
LINE
8
BLACK
6
CONTINUOUS
10
233.393
20
-99.7737
11
233.342
21
-99.7826
0
LINE
8
BLACK
6
CONTINUOUS
10
233.342
20
-99.7826
11
233.298
21
-99.757
0
LINE
8
BLACK
6
CONTINUOUS
10
233.298
20
-99.757
11
233.28
21
-99.7088
0
LINE
8
BLACK
6
CONTINUOUS
10
233.28
20
-99.7088
11
233.28
21
-99.2027
0
LINE
8
BLACK
6
CONTINUOUS
10
233.28
20
-99.2027
11
233.252
21
-99.1456
0
LINE
8
BLACK
6
CONTINUOUS
10
233.252
20
-99.1456
11
233.195
21
-99.1171
0
LINE
8
BLACK
6
CONTINUOUS
10
233.195
20
-99.1171
11
233.087
21
-99.1171
0
LINE
8
BLACK
6
CONTINUOUS
10
233.087
20
-99.1171
11
233.03
21
-99.1456
0
LINE
8
BLACK
6
CONTINUOUS
10
233.03
20
-99.1456
11
233.002
21
-99.2027
0
LINE
8
BLACK
6
CONTINUOUS
10
233.002
20
-99.2027
11
233.002
21
-99.7088
0
LINE
8
BLACK
6
CONTINUOUS
10
233.002
20
-99.7088
11
232.997
21
-99.7344
0
LINE
8
BLACK
6
CONTINUOUS
10
232.997
20
-99.7344
11
232.964
21
-99.7737
0
LINE
8
BLACK
6
CONTINUOUS
10
232.964
20
-99.7737
11
232.914
21
-99.7826
0
LINE
8
BLACK
6
CONTINUOUS
10
232.914
20
-99.7826
11
232.869
21
-99.757
0
LINE
8
BLACK
6
CONTINUOUS
10
232.869
20
-99.757
11
232.852
21
-99.7088
0
LINE
8
BLACK
6
CONTINUOUS
10
232.852
20
-99.7088
11
232.852
21
-99.185
0
LINE
8
BLACK
6
CONTINUOUS
10
232.852
20
-99.185
11
232.856
21
-99.1593
0
LINE
8
BLACK
6
CONTINUOUS
10
232.856
20
-99.1593
11
232.859
21
-99.1559
0
LINE
8
BLACK
6
CONTINUOUS
10
232.859
20
-99.1559
11
232.859
21
-99.1514
0
LINE
8
BLACK
6
CONTINUOUS
10
232.859
20
-99.1514
11
232.907
21
-99.0562
0
LINE
8
BLACK
6
CONTINUOUS
10
232.907
20
-99.0562
11
232.923
21
-99.0353
0
LINE
8
BLACK
6
CONTINUOUS
10
232.923
20
-99.0353
11
232.933
21
-99.0308
0
LINE
8
BLACK
6
CONTINUOUS
10
232.933
20
-99.0308
11
232.941
21
-99.0227
0
LINE
8
BLACK
6
CONTINUOUS
10
232.941
20
-99.0227
11
233.036
21
-98.975
0
LINE
8
BLACK
6
CONTINUOUS
10
233.036
20
-98.975
11
233.061
21
-98.9676
0
LINE
8
BLACK
6
CONTINUOUS
10
233.061
20
-98.9676
11
233.065
21
-98.9686
0
LINE
8
BLACK
6
CONTINUOUS
10
233.065
20
-98.9686
11
233.069
21
-98.9671
0
LINE
8
BLACK
6
CONTINUOUS
10
233.069
20
-98.9671
11
233.212
21
-98.9671
0
LINE
8
BLACK
6
CONTINUOUS
10
233.212
20
-98.9671
11
233.238
21
-98.9716
0
LINE
8
BLACK
6
CONTINUOUS
10
242.428
20
-98.9716
11
242.432
21
-98.9745
0
LINE
8
BLACK
6
CONTINUOUS
10
242.432
20
-98.9745
11
242.436
21
-98.975
0
LINE
8
BLACK
6
CONTINUOUS
10
242.436
20
-98.975
11
242.488
21
-99.001
0
LINE
8
BLACK
6
CONTINUOUS
10
242.488
20
-99.001
11
242.508
21
-98.9772
0
LINE
8
BLACK
6
CONTINUOUS
10
242.508
20
-98.9772
11
242.559
21
-98.9683
0
LINE
8
BLACK
6
CONTINUOUS
10
242.559
20
-98.9683
11
242.603
21
-98.9939
0
LINE
8
BLACK
6
CONTINUOUS
10
242.603
20
-98.9939
11
242.621
21
-99.0421
0
LINE
8
BLACK
6
CONTINUOUS
10
242.621
20
-99.0421
11
242.621
21
-99.7088
0
LINE
8
BLACK
6
CONTINUOUS
10
242.621
20
-99.7088
11
242.616
21
-99.7344
0
LINE
8
BLACK
6
CONTINUOUS
10
242.616
20
-99.7344
11
242.583
21
-99.7737
0
LINE
8
BLACK
6
CONTINUOUS
10
242.583
20
-99.7737
11
242.533
21
-99.7826
0
LINE
8
BLACK
6
CONTINUOUS
10
242.533
20
-99.7826
11
242.488
21
-99.757
0
LINE
8
BLACK
6
CONTINUOUS
10
242.488
20
-99.757
11
242.471
21
-99.7088
0
LINE
8
BLACK
6
CONTINUOUS
10
242.471
20
-99.7088
11
242.471
21
-99.1684
0
LINE
8
BLACK
6
CONTINUOUS
10
242.471
20
-99.1684
11
242.454
21
-99.1514
0
LINE
8
BLACK
6
CONTINUOUS
10
242.454
20
-99.1514
11
242.385
21
-99.1171
0
LINE
8
BLACK
6
CONTINUOUS
10
242.385
20
-99.1171
11
242.278
21
-99.1171
0
LINE
8
BLACK
6
CONTINUOUS
10
242.278
20
-99.1171
11
242.221
21
-99.1456
0
LINE
8
BLACK
6
CONTINUOUS
10
242.221
20
-99.1456
11
242.192
21
-99.2027
0
LINE
8
BLACK
6
CONTINUOUS
10
242.192
20
-99.2027
11
242.192
21
-99.7088
0
LINE
8
BLACK
6
CONTINUOUS
10
242.192
20
-99.7088
11
242.188
21
-99.7344
0
LINE
8
BLACK
6
CONTINUOUS
10
242.188
20
-99.7344
11
242.155
21
-99.7737
0
LINE
8
BLACK
6
CONTINUOUS
10
242.155
20
-99.7737
11
242.104
21
-99.7826
0
LINE
8
BLACK
6
CONTINUOUS
10
242.104
20
-99.7826
11
242.06
21
-99.757
0
LINE
8
BLACK
6
CONTINUOUS
10
242.06
20
-99.757
11
242.042
21
-99.7088
0
LINE
8
BLACK
6
CONTINUOUS
10
242.042
20
-99.7088
11
242.042
21
-99.185
0
LINE
8
BLACK
6
CONTINUOUS
10
242.042
20
-99.185
11
242.047
21
-99.1593
0
LINE
8
BLACK
6
CONTINUOUS
10
242.047
20
-99.1593
11
242.049
21
-99.1559
0
LINE
8
BLACK
6
CONTINUOUS
10
242.049
20
-99.1559
11
242.05
21
-99.1514
0
LINE
8
BLACK
6
CONTINUOUS
10
242.05
20
-99.1514
11
242.098
21
-99.0562
0
LINE
8
BLACK
6
CONTINUOUS
10
242.098
20
-99.0562
11
242.113
21
-99.0353
0
LINE
8
BLACK
6
CONTINUOUS
10
242.113
20
-99.0353
11
242.123
21
-99.0308
0
LINE
8
BLACK
6
CONTINUOUS
10
242.123
20
-99.0308
11
242.131
21
-99.0227
0
LINE
8
BLACK
6
CONTINUOUS
10
242.131
20
-99.0227
11
242.226
21
-98.975
0
LINE
8
BLACK
6
CONTINUOUS
10
242.226
20
-98.975
11
242.251
21
-98.9676
0
LINE
8
BLACK
6
CONTINUOUS
10
242.251
20
-98.9676
11
242.256
21
-98.9686
0
LINE
8
BLACK
6
CONTINUOUS
10
242.256
20
-98.9686
11
242.26
21
-98.9671
0
LINE
8
BLACK
6
CONTINUOUS
10
242.26
20
-98.9671
11
242.403
21
-98.9671
0
LINE
8
BLACK
6
CONTINUOUS
10
242.403
20
-98.9671
11
242.428
21
-98.9716
0
LINE
8
BLACK
6
CONTINUOUS
10
235.508
20
-98.6355
11
235.511
21
-98.6349
0
LINE
8
BLACK
6
CONTINUOUS
10
235.511
20
-98.6349
11
235.514
21
-98.6366
0
LINE
8
BLACK
6
CONTINUOUS
10
235.514
20
-98.6366
11
235.524
21
-98.6383
0
LINE
8
BLACK
6
CONTINUOUS
10
235.524
20
-98.6383
11
235.539
21
-98.6508
0
LINE
8
BLACK
6
CONTINUOUS
10
235.539
20
-98.6508
11
235.555
21
-98.6606
0
LINE
8
BLACK
6
CONTINUOUS
10
235.555
20
-98.6606
11
235.558
21
-98.6669
0
LINE
8
BLACK
6
CONTINUOUS
10
235.558
20
-98.6669
11
235.563
21
-98.6713
0
LINE
8
BLACK
6
CONTINUOUS
10
235.563
20
-98.6713
11
235.566
21
-98.6905
0
LINE
8
BLACK
6
CONTINUOUS
10
235.566
20
-98.6905
11
235.573
21
-98.7088
0
LINE
8
BLACK
6
CONTINUOUS
10
235.573
20
-98.7088
11
235.573
21
-99.7088
0
LINE
8
BLACK
6
CONTINUOUS
10
235.573
20
-99.7088
11
235.568
21
-99.7344
0
LINE
8
BLACK
6
CONTINUOUS
10
235.568
20
-99.7344
11
235.535
21
-99.7737
0
LINE
8
BLACK
6
CONTINUOUS
10
235.535
20
-99.7737
11
235.485
21
-99.7826
0
LINE
8
BLACK
6
CONTINUOUS
10
235.485
20
-99.7826
11
235.441
21
-99.757
0
LINE
8
BLACK
6
CONTINUOUS
10
235.441
20
-99.757
11
235.423
21
-99.7088
0
LINE
8
BLACK
6
CONTINUOUS
10
235.423
20
-99.7088
11
235.423
21
-99.26
0
LINE
8
BLACK
6
CONTINUOUS
10
235.423
20
-99.26
11
235.165
21
-99.26
0
LINE
8
BLACK
6
CONTINUOUS
10
235.165
20
-99.26
11
235.139
21
-99.2554
0
LINE
8
BLACK
6
CONTINUOUS
10
235.139
20
-99.2554
11
235.1
21
-99.2225
0
LINE
8
BLACK
6
CONTINUOUS
10
235.1
20
-99.2225
11
235.091
21
-99.1719
0
LINE
8
BLACK
6
CONTINUOUS
10
235.091
20
-99.1719
11
235.116
21
-99.1275
0
LINE
8
BLACK
6
CONTINUOUS
10
235.116
20
-99.1275
11
235.165
21
-99.11
0
LINE
8
BLACK
6
CONTINUOUS
10
235.165
20
-99.11
11
235.423
21
-99.11
0
LINE
8
BLACK
6
CONTINUOUS
10
235.423
20
-99.11
11
235.423
21
-98.7838
0
LINE
8
BLACK
6
CONTINUOUS
10
235.423
20
-98.7838
11
235.022
21
-98.7838
0
LINE
8
BLACK
6
CONTINUOUS
10
235.022
20
-98.7838
11
234.996
21
-98.7793
0
LINE
8
BLACK
6
CONTINUOUS
10
234.996
20
-98.7793
11
234.957
21
-98.7463
0
LINE
8
BLACK
6
CONTINUOUS
10
234.957
20
-98.7463
11
234.948
21
-98.6958
0
LINE
8
BLACK
6
CONTINUOUS
10
234.948
20
-98.6958
11
234.974
21
-98.6513
0
LINE
8
BLACK
6
CONTINUOUS
10
234.974
20
-98.6513
11
235.022
21
-98.6338
0
LINE
8
BLACK
6
CONTINUOUS
10
235.022
20
-98.6338
11
235.498
21
-98.6338
0
LINE
8
BLACK
6
CONTINUOUS
10
235.498
20
-98.6338
11
235.508
21
-98.6355
0
LINE
8
BLACK
6
CONTINUOUS
10
243.333
20
-98.9716
11
243.337
21
-98.9745
0
LINE
8
BLACK
6
CONTINUOUS
10
243.337
20
-98.9745
11
243.341
21
-98.975
0
LINE
8
BLACK
6
CONTINUOUS
10
243.341
20
-98.975
11
243.393
21
-99.001
0
LINE
8
BLACK
6
CONTINUOUS
10
243.393
20
-99.001
11
243.413
21
-98.9772
0
LINE
8
BLACK
6
CONTINUOUS
10
243.413
20
-98.9772
11
243.463
21
-98.9683
0
LINE
8
BLACK
6
CONTINUOUS
10
243.463
20
-98.9683
11
243.508
21
-98.9939
0
LINE
8
BLACK
6
CONTINUOUS
10
243.508
20
-98.9939
11
243.525
21
-99.0421
0
LINE
8
BLACK
6
CONTINUOUS
10
243.525
20
-99.0421
11
243.525
21
-99.7088
0
LINE
8
BLACK
6
CONTINUOUS
10
243.525
20
-99.7088
11
243.521
21
-99.7344
0
LINE
8
BLACK
6
CONTINUOUS
10
243.521
20
-99.7344
11
243.488
21
-99.7737
0
LINE
8
BLACK
6
CONTINUOUS
10
243.488
20
-99.7737
11
243.437
21
-99.7826
0
LINE
8
BLACK
6
CONTINUOUS
10
243.437
20
-99.7826
11
243.393
21
-99.757
0
LINE
8
BLACK
6
CONTINUOUS
10
243.393
20
-99.757
11
243.375
21
-99.7088
0
LINE
8
BLACK
6
CONTINUOUS
10
243.375
20
-99.7088
11
243.375
21
-99.1684
0
LINE
8
BLACK
6
CONTINUOUS
10
243.375
20
-99.1684
11
243.358
21
-99.1514
0
LINE
8
BLACK
6
CONTINUOUS
10
243.358
20
-99.1514
11
243.29
21
-99.1171
0
LINE
8
BLACK
6
CONTINUOUS
10
243.29
20
-99.1171
11
243.182
21
-99.1171
0
LINE
8
BLACK
6
CONTINUOUS
10
243.182
20
-99.1171
11
243.125
21
-99.1456
0
LINE
8
BLACK
6
CONTINUOUS
10
243.125
20
-99.1456
11
243.097
21
-99.2027
0
LINE
8
BLACK
6
CONTINUOUS
10
243.097
20
-99.2027
11
243.097
21
-99.7088
0
LINE
8
BLACK
6
CONTINUOUS
10
243.097
20
-99.7088
11
243.092
21
-99.7344
0
LINE
8
BLACK
6
CONTINUOUS
10
243.092
20
-99.7344
11
243.059
21
-99.7737
0
LINE
8
BLACK
6
CONTINUOUS
10
243.059
20
-99.7737
11
243.009
21
-99.7826
0
LINE
8
BLACK
6
CONTINUOUS
10
243.009
20
-99.7826
11
242.964
21
-99.757
0
LINE
8
BLACK
6
CONTINUOUS
10
242.964
20
-99.757
11
242.947
21
-99.7088
0
LINE
8
BLACK
6
CONTINUOUS
10
242.947
20
-99.7088
11
242.947
21
-99.185
0
LINE
8
BLACK
6
CONTINUOUS
10
242.947
20
-99.185
11
242.951
21
-99.1593
0
LINE
8
BLACK
6
CONTINUOUS
10
242.951
20
-99.1593
11
242.954
21
-99.1559
0
LINE
8
BLACK
6
CONTINUOUS
10
242.954
20
-99.1559
11
242.955
21
-99.1514
0
LINE
8
BLACK
6
CONTINUOUS
10
242.955
20
-99.1514
11
243.002
21
-99.0562
0
LINE
8
BLACK
6
CONTINUOUS
10
243.002
20
-99.0562
11
243.018
21
-99.0353
0
LINE
8
BLACK
6
CONTINUOUS
10
243.018
20
-99.0353
11
243.028
21
-99.0308
0
LINE
8
BLACK
6
CONTINUOUS
10
243.028
20
-99.0308
11
243.036
21
-99.0227
0
LINE
8
BLACK
6
CONTINUOUS
10
243.036
20
-99.0227
11
243.131
21
-98.975
0
LINE
8
BLACK
6
CONTINUOUS
10
243.131
20
-98.975
11
243.156
21
-98.9676
0
LINE
8
BLACK
6
CONTINUOUS
10
243.156
20
-98.9676
11
243.16
21
-98.9686
0
LINE
8
BLACK
6
CONTINUOUS
10
243.16
20
-98.9686
11
243.165
21
-98.9671
0
LINE
8
BLACK
6
CONTINUOUS
10
243.165
20
-98.9671
11
243.308
21
-98.9671
0
LINE
8
BLACK
6
CONTINUOUS
10
243.308
20
-98.9671
11
243.333
21
-98.9716
0
LINE
8
BLACK
6
CONTINUOUS
10
237.333
20
-98.6383
11
237.372
21
-98.6713
0
LINE
8
BLACK
6
CONTINUOUS
10
237.372
20
-98.6713
11
237.381
21
-98.7218
0
LINE
8
BLACK
6
CONTINUOUS
10
237.381
20
-98.7218
11
237.356
21
-98.7662
0
LINE
8
BLACK
6
CONTINUOUS
10
237.356
20
-98.7662
11
237.308
21
-98.7838
0
LINE
8
BLACK
6
CONTINUOUS
10
237.308
20
-98.7838
11
236.755
21
-98.7838
0
LINE
8
BLACK
6
CONTINUOUS
10
236.755
20
-98.7838
11
237.138
21
-99.6792
0
LINE
8
BLACK
6
CONTINUOUS
10
237.138
20
-99.6792
11
237.144
21
-99.7046
0
LINE
8
BLACK
6
CONTINUOUS
10
237.144
20
-99.7046
11
237.129
21
-99.7537
0
LINE
8
BLACK
6
CONTINUOUS
10
237.129
20
-99.7537
11
237.087
21
-99.7818
0
LINE
8
BLACK
6
CONTINUOUS
10
237.087
20
-99.7818
11
237.036
21
-99.7757
0
LINE
8
BLACK
6
CONTINUOUS
10
237.036
20
-99.7757
11
237
21
-99.7383
0
LINE
8
BLACK
6
CONTINUOUS
10
237
20
-99.7383
11
236.572
21
-98.7383
0
LINE
8
BLACK
6
CONTINUOUS
10
236.572
20
-98.7383
11
236.566
21
-98.713
0
LINE
8
BLACK
6
CONTINUOUS
10
236.566
20
-98.713
11
236.569
21
-98.7045
0
LINE
8
BLACK
6
CONTINUOUS
10
236.569
20
-98.7045
11
236.567
21
-98.6958
0
LINE
8
BLACK
6
CONTINUOUS
10
236.567
20
-98.6958
11
236.576
21
-98.6806
0
LINE
8
BLACK
6
CONTINUOUS
10
236.576
20
-98.6806
11
236.581
21
-98.6639
0
LINE
8
BLACK
6
CONTINUOUS
10
236.581
20
-98.6639
11
236.588
21
-98.659
0
LINE
8
BLACK
6
CONTINUOUS
10
236.588
20
-98.659
11
236.593
21
-98.6513
0
LINE
8
BLACK
6
CONTINUOUS
10
236.593
20
-98.6513
11
236.609
21
-98.6453
0
LINE
8
BLACK
6
CONTINUOUS
10
236.609
20
-98.6453
11
236.624
21
-98.6358
0
LINE
8
BLACK
6
CONTINUOUS
10
236.624
20
-98.6358
11
236.633
21
-98.6368
0
LINE
8
BLACK
6
CONTINUOUS
10
236.633
20
-98.6368
11
236.641
21
-98.6338
0
LINE
8
BLACK
6
CONTINUOUS
10
236.641
20
-98.6338
11
237.308
21
-98.6338
0
LINE
8
BLACK
6
CONTINUOUS
10
237.308
20
-98.6338
11
237.333
21
-98.6383
0
LINE
8
BLACK
6
CONTINUOUS
10
236.693
20
-98.2318
11
236.678
21
-98.1964
0
LINE
8
BLACK
6
CONTINUOUS
10
236.678
20
-98.1964
11
236.678
21
-80.4164
0
LINE
8
BLACK
6
CONTINUOUS
10
236.678
20
-80.4164
11
236.693
21
-80.381
0
LINE
8
BLACK
6
CONTINUOUS
10
236.693
20
-80.381
11
236.728
21
-80.3664
0
LINE
8
BLACK
6
CONTINUOUS
10
236.728
20
-80.3664
11
238.633
21
-80.3664
0
LINE
8
BLACK
6
CONTINUOUS
10
238.633
20
-80.3664
11
238.668
21
-80.381
0
LINE
8
BLACK
6
CONTINUOUS
10
238.668
20
-80.381
11
239.303
21
-81.016
0
LINE
8
BLACK
6
CONTINUOUS
10
239.303
20
-81.016
11
239.318
21
-81.0514
0
LINE
8
BLACK
6
CONTINUOUS
10
239.318
20
-81.0514
11
239.318
21
-98.1964
0
LINE
8
BLACK
6
CONTINUOUS
10
239.318
20
-98.1964
11
239.303
21
-98.2318
0
LINE
8
BLACK
6
CONTINUOUS
10
239.303
20
-98.2318
11
239.268
21
-98.2464
0
LINE
8
BLACK
6
CONTINUOUS
10
239.268
20
-98.2464
11
236.728
21
-98.2464
0
LINE
8
BLACK
6
CONTINUOUS
10
236.728
20
-98.2464
11
236.693
21
-98.2318
0
LINE
8
BLACK
6
CONTINUOUS
10
236.778
20
-80.4664
11
236.778
21
-98.1464
0
LINE
8
BLACK
6
CONTINUOUS
10
236.778
20
-98.1464
11
239.218
21
-98.1464
0
LINE
8
BLACK
6
CONTINUOUS
10
239.218
20
-98.1464
11
239.218
21
-81.0721
0
LINE
8
BLACK
6
CONTINUOUS
10
239.218
20
-81.0721
11
238.612
21
-80.4664
0
LINE
8
BLACK
6
CONTINUOUS
10
238.612
20
-80.4664
11
236.778
21
-80.4664
0
LINE
8
BLACK
6
CONTINUOUS
10
237.781
20
-89.3414
11
237.809
21
-89.3842
0
LINE
8
BLACK
6
CONTINUOUS
10
237.809
20
-89.3842
11
237.803
21
-89.4352
0
LINE
8
BLACK
6
CONTINUOUS
10
237.803
20
-89.4352
11
237.756
21
-89.5304
0
LINE
8
BLACK
6
CONTINUOUS
10
237.756
20
-89.5304
11
237.742
21
-89.5484
0
LINE
8
BLACK
6
CONTINUOUS
10
237.742
20
-89.5484
11
237.742
21
-89.5499
0
LINE
8
BLACK
6
CONTINUOUS
10
237.742
20
-89.5499
11
237.679
21
-89.6124
0
LINE
8
BLACK
6
CONTINUOUS
10
237.679
20
-89.6124
11
238.375
21
-89.6124
0
LINE
8
BLACK
6
CONTINUOUS
10
238.375
20
-89.6124
11
238.375
21
-89.4016
0
LINE
8
BLACK
6
CONTINUOUS
10
238.375
20
-89.4016
11
238.38
21
-89.376
0
LINE
8
BLACK
6
CONTINUOUS
10
238.38
20
-89.376
11
238.413
21
-89.3367
0
LINE
8
BLACK
6
CONTINUOUS
10
238.413
20
-89.3367
11
238.463
21
-89.3278
0
LINE
8
BLACK
6
CONTINUOUS
10
238.463
20
-89.3278
11
238.508
21
-89.3534
0
LINE
8
BLACK
6
CONTINUOUS
10
238.508
20
-89.3534
11
238.525
21
-89.4016
0
LINE
8
BLACK
6
CONTINUOUS
10
238.525
20
-89.4016
11
238.525
21
-89.9731
0
LINE
8
BLACK
6
CONTINUOUS
10
238.525
20
-89.9731
11
238.521
21
-89.9987
0
LINE
8
BLACK
6
CONTINUOUS
10
238.521
20
-89.9987
11
238.488
21
-90.038
0
LINE
8
BLACK
6
CONTINUOUS
10
238.488
20
-90.038
11
238.437
21
-90.0469
0
LINE
8
BLACK
6
CONTINUOUS
10
238.437
20
-90.0469
11
238.393
21
-90.0213
0
LINE
8
BLACK
6
CONTINUOUS
10
238.393
20
-90.0213
11
238.375
21
-89.9731
0
LINE
8
BLACK
6
CONTINUOUS
10
238.375
20
-89.9731
11
238.375
21
-89.7624
0
LINE
8
BLACK
6
CONTINUOUS
10
238.375
20
-89.7624
11
237.45
21
-89.7624
0
LINE
8
BLACK
6
CONTINUOUS
10
237.45
20
-89.7624
11
237.425
21
-89.7578
0
LINE
8
BLACK
6
CONTINUOUS
10
237.425
20
-89.7578
11
237.421
21
-89.7551
0
LINE
8
BLACK
6
CONTINUOUS
10
237.421
20
-89.7551
11
237.417
21
-89.7546
0
LINE
8
BLACK
6
CONTINUOUS
10
237.417
20
-89.7546
11
237.402
21
-89.7388
0
LINE
8
BLACK
6
CONTINUOUS
10
237.402
20
-89.7388
11
237.385
21
-89.7249
0
LINE
8
BLACK
6
CONTINUOUS
10
237.385
20
-89.7249
11
237.385
21
-89.7206
0
LINE
8
BLACK
6
CONTINUOUS
10
237.385
20
-89.7206
11
237.382
21
-89.7175
0
LINE
8
BLACK
6
CONTINUOUS
10
237.382
20
-89.7175
11
237.38
21
-89.6958
0
LINE
8
BLACK
6
CONTINUOUS
10
237.38
20
-89.6958
11
237.377
21
-89.6743
0
LINE
8
BLACK
6
CONTINUOUS
10
237.377
20
-89.6743
11
237.379
21
-89.6706
0
LINE
8
BLACK
6
CONTINUOUS
10
237.379
20
-89.6706
11
237.378
21
-89.6663
0
LINE
8
BLACK
6
CONTINUOUS
10
237.378
20
-89.6663
11
237.391
21
-89.6488
0
LINE
8
BLACK
6
CONTINUOUS
10
237.391
20
-89.6488
11
237.402
21
-89.6299
0
LINE
8
BLACK
6
CONTINUOUS
10
237.402
20
-89.6299
11
237.406
21
-89.6284
0
LINE
8
BLACK
6
CONTINUOUS
10
237.406
20
-89.6284
11
237.409
21
-89.6249
0
LINE
8
BLACK
6
CONTINUOUS
10
237.409
20
-89.6249
11
237.545
21
-89.5338
0
LINE
8
BLACK
6
CONTINUOUS
10
237.545
20
-89.5338
11
237.627
21
-89.4524
0
LINE
8
BLACK
6
CONTINUOUS
10
237.627
20
-89.4524
11
237.669
21
-89.3681
0
LINE
8
BLACK
6
CONTINUOUS
10
237.669
20
-89.3681
11
237.685
21
-89.3472
0
LINE
8
BLACK
6
CONTINUOUS
10
237.685
20
-89.3472
11
237.732
21
-89.3268
0
LINE
8
BLACK
6
CONTINUOUS
10
237.732
20
-89.3268
11
237.781
21
-89.3414
0
LINE
8
BLACK
6
CONTINUOUS
10
238.508
20
-88.5439
11
238.525
21
-88.5921
0
LINE
8
BLACK
6
CONTINUOUS
10
238.525
20
-88.5921
11
238.525
21
-88.6874
0
LINE
8
BLACK
6
CONTINUOUS
10
238.525
20
-88.6874
11
238.521
21
-88.7094
0
LINE
8
BLACK
6
CONTINUOUS
10
238.521
20
-88.7094
11
238.522
21
-88.7111
0
LINE
8
BLACK
6
CONTINUOUS
10
238.522
20
-88.7111
11
238.474
21
-88.8539
0
LINE
8
BLACK
6
CONTINUOUS
10
238.474
20
-88.8539
11
238.462
21
-88.8768
0
LINE
8
BLACK
6
CONTINUOUS
10
238.462
20
-88.8768
11
238.458
21
-88.8792
0
LINE
8
BLACK
6
CONTINUOUS
10
238.458
20
-88.8792
11
238.456
21
-88.8832
0
LINE
8
BLACK
6
CONTINUOUS
10
238.456
20
-88.8832
11
238.361
21
-88.9785
0
LINE
8
BLACK
6
CONTINUOUS
10
238.361
20
-88.9785
11
238.339
21
-88.9934
0
LINE
8
BLACK
6
CONTINUOUS
10
238.339
20
-88.9934
11
238.335
21
-88.9938
0
LINE
8
BLACK
6
CONTINUOUS
10
238.335
20
-88.9938
11
238.331
21
-88.9966
0
LINE
8
BLACK
6
CONTINUOUS
10
238.331
20
-88.9966
11
238.188
21
-89.0442
0
LINE
8
BLACK
6
CONTINUOUS
10
238.188
20
-89.0442
11
238.166
21
-89.0475
0
LINE
8
BLACK
6
CONTINUOUS
10
238.166
20
-89.0475
11
238.165
21
-89.0481
0
LINE
8
BLACK
6
CONTINUOUS
10
238.165
20
-89.0481
11
237.45
21
-89.0481
0
LINE
8
BLACK
6
CONTINUOUS
10
237.45
20
-89.0481
11
237.425
21
-89.0435
0
LINE
8
BLACK
6
CONTINUOUS
10
237.425
20
-89.0435
11
237.385
21
-89.0106
0
LINE
8
BLACK
6
CONTINUOUS
10
237.385
20
-89.0106
11
237.377
21
-88.96
0
LINE
8
BLACK
6
CONTINUOUS
10
237.377
20
-88.96
11
237.402
21
-88.9156
0
LINE
8
BLACK
6
CONTINUOUS
10
237.402
20
-88.9156
11
237.45
21
-88.8981
0
LINE
8
BLACK
6
CONTINUOUS
10
237.45
20
-88.8981
11
238.152
21
-88.8981
0
LINE
8
BLACK
6
CONTINUOUS
10
238.152
20
-88.8981
11
238.267
21
-88.8599
0
LINE
8
BLACK
6
CONTINUOUS
10
238.267
20
-88.8599
11
238.337
21
-88.7897
0
LINE
8
BLACK
6
CONTINUOUS
10
238.337
20
-88.7897
11
238.375
21
-88.6752
0
LINE
8
BLACK
6
CONTINUOUS
10
238.375
20
-88.6752
11
238.375
21
-88.5921
0
LINE
8
BLACK
6
CONTINUOUS
10
238.375
20
-88.5921
11
238.38
21
-88.5665
0
LINE
8
BLACK
6
CONTINUOUS
10
238.38
20
-88.5665
11
238.413
21
-88.5272
0
LINE
8
BLACK
6
CONTINUOUS
10
238.413
20
-88.5272
11
238.463
21
-88.5183
0
LINE
8
BLACK
6
CONTINUOUS
10
238.463
20
-88.5183
11
238.508
21
-88.5439
  0
ENDSEC
  0
EOF
