%TF.GenerationSoftware,KiCad,Pcbnew,(6.0.11)*%
%TF.CreationDate,2023-07-08T12:32:08+02:00*%
%TF.ProjectId,IO Board,494f2042-6f61-4726-942e-6b696361645f,rev?*%
%TF.SameCoordinates,Original*%
%TF.FileFunction,Drillmap*%
%TF.FilePolarity,Positive*%
%FSLAX45Y45*%
G04 Gerber Fmt 4.5, Leading zero omitted, Abs format (unit mm)*
G04 Created by KiCad (PCBNEW (6.0.11)) date 2023-07-08 12:32:08*
%MOMM*%
%LPD*%
G01*
G04 APERTURE LIST*
%ADD10C,0.200000*%
%ADD11C,0.080000*%
%ADD12C,0.090000*%
%ADD13C,0.100000*%
%ADD14C,0.210950*%
G04 APERTURE END LIST*
D10*
X24040110Y-7011620D02*
G75*
G03*
X23840112Y-6811620I-200000J0D01*
G01*
X19287787Y-6811617D02*
G75*
G03*
X19087787Y-7011620I3J-200003D01*
G01*
X21882760Y-6611620D02*
X21882760Y-5821620D01*
X21882760Y-6611620D02*
G75*
G03*
X22082760Y-6811620I200000J0D01*
G01*
X19287787Y-11148042D02*
X23840112Y-11148042D01*
X21045139Y-6811619D02*
G75*
G03*
X21245139Y-6611620I1J199999D01*
G01*
X24040112Y-10948042D02*
X24040112Y-7011620D01*
X21045139Y-6811620D02*
X19287787Y-6811620D01*
X19087788Y-10948042D02*
G75*
G03*
X19287787Y-11148042I200002J2D01*
G01*
X19087787Y-7011620D02*
X19087787Y-10948042D01*
X23840112Y-6811620D02*
X22082760Y-6811620D01*
X21882760Y-5821620D02*
G75*
G03*
X21682760Y-5621620I-200000J0D01*
G01*
X21682760Y-5621620D02*
X21445139Y-5621620D01*
X21445139Y-5621619D02*
G75*
G03*
X21245139Y-5821620I1J-200001D01*
G01*
X21245139Y-5821620D02*
X21245139Y-6611620D01*
X23840112Y-11148042D02*
G75*
G03*
X24040112Y-10948042I-2J200002D01*
G01*
D11*
X21528635Y-6416779D02*
X21608635Y-6496779D01*
X21608635Y-6416779D02*
X21528635Y-6496779D01*
X21528635Y-7432779D02*
X21608635Y-7512779D01*
X21608635Y-7432779D02*
X21528635Y-7512779D01*
D12*
X21482600Y-5821680D02*
G75*
G03*
X21482600Y-5821680I-45000J0D01*
G01*
X21736600Y-5821680D02*
G75*
G03*
X21736600Y-5821680I-45000J0D01*
G01*
D13*
X19894814Y-8522046D02*
X19894814Y-8622046D01*
X19844814Y-8572046D02*
X19944814Y-8572046D01*
X19895492Y-10921611D02*
X19895492Y-11021611D01*
X19845492Y-10971611D02*
X19945492Y-10971611D01*
X20144814Y-8522046D02*
X20144814Y-8622046D01*
X20094814Y-8572046D02*
X20194814Y-8572046D01*
X20145492Y-10921611D02*
X20145492Y-11021611D01*
X20095492Y-10971611D02*
X20195492Y-10971611D01*
X20394814Y-8522046D02*
X20394814Y-8622046D01*
X20344814Y-8572046D02*
X20444814Y-8572046D01*
X20395492Y-10921611D02*
X20395492Y-11021611D01*
X20345492Y-10971611D02*
X20445492Y-10971611D01*
X22731638Y-8522301D02*
X22731638Y-8622301D01*
X22681638Y-8572301D02*
X22781638Y-8572301D01*
X22732161Y-10922516D02*
X22732161Y-11022516D01*
X22682161Y-10972516D02*
X22782161Y-10972516D01*
X22981638Y-8522301D02*
X22981638Y-8622301D01*
X22931638Y-8572301D02*
X23031638Y-8572301D01*
X22982161Y-10922516D02*
X22982161Y-11022516D01*
X22932161Y-10972516D02*
X23032161Y-10972516D01*
X23231638Y-8522301D02*
X23231638Y-8622301D01*
X23181638Y-8572301D02*
X23281638Y-8572301D01*
X23232161Y-10922516D02*
X23232161Y-11022516D01*
X23182161Y-10972516D02*
X23282161Y-10972516D01*
X23799800Y-8118640D02*
X23799800Y-8218640D01*
X23749800Y-8168640D02*
X23849800Y-8168640D01*
X23799800Y-8372640D02*
X23799800Y-8472640D01*
X23749800Y-8422640D02*
X23849800Y-8422640D01*
X23799800Y-8626640D02*
X23799800Y-8726640D01*
X23749800Y-8676640D02*
X23849800Y-8676640D01*
X23799800Y-8880640D02*
X23799800Y-8980640D01*
X23749800Y-8930640D02*
X23849800Y-8930640D01*
X23799800Y-9134640D02*
X23799800Y-9234640D01*
X23749800Y-9184640D02*
X23849800Y-9184640D01*
X23799800Y-9388640D02*
X23799800Y-9488640D01*
X23749800Y-9438640D02*
X23849800Y-9438640D01*
X23799800Y-9642640D02*
X23799800Y-9742640D01*
X23749800Y-9692640D02*
X23849800Y-9692640D01*
D14*
X19744397Y-7896629D02*
X19744397Y-7747463D01*
X19595231Y-7747463D01*
X19595231Y-7896629D01*
X19744397Y-7896629D01*
X19745074Y-10296194D02*
X19745074Y-10147028D01*
X19595909Y-10147028D01*
X19595909Y-10296194D01*
X19745074Y-10296194D01*
X20694397Y-7896629D02*
X20694397Y-7747463D01*
X20545231Y-7747463D01*
X20545231Y-7896629D01*
X20694397Y-7896629D01*
X20695074Y-10296194D02*
X20695074Y-10147028D01*
X20545909Y-10147028D01*
X20545909Y-10296194D01*
X20695074Y-10296194D01*
X22581221Y-7896883D02*
X22581221Y-7747718D01*
X22432055Y-7747718D01*
X22432055Y-7896883D01*
X22581221Y-7896883D01*
X22581744Y-10297099D02*
X22581744Y-10147933D01*
X22432578Y-10147933D01*
X22432578Y-10297099D01*
X22581744Y-10297099D01*
X23531221Y-7896883D02*
X23531221Y-7747718D01*
X23382055Y-7747718D01*
X23382055Y-7896883D01*
X23531221Y-7896883D01*
X23531744Y-10297099D02*
X23531744Y-10147933D01*
X23382578Y-10147933D01*
X23382578Y-10297099D01*
X23531744Y-10297099D01*
D10*
X19335406Y-11468518D02*
X19335406Y-11268518D01*
X19383025Y-11268518D01*
X19411597Y-11278042D01*
X19430644Y-11297089D01*
X19440168Y-11316137D01*
X19449692Y-11354232D01*
X19449692Y-11382804D01*
X19440168Y-11420899D01*
X19430644Y-11439946D01*
X19411597Y-11458994D01*
X19383025Y-11468518D01*
X19335406Y-11468518D01*
X19535406Y-11468518D02*
X19535406Y-11335184D01*
X19535406Y-11373280D02*
X19544930Y-11354232D01*
X19554454Y-11344708D01*
X19573501Y-11335184D01*
X19592549Y-11335184D01*
X19659216Y-11468518D02*
X19659216Y-11335184D01*
X19659216Y-11268518D02*
X19649692Y-11278042D01*
X19659216Y-11287565D01*
X19668739Y-11278042D01*
X19659216Y-11268518D01*
X19659216Y-11287565D01*
X19783025Y-11468518D02*
X19763977Y-11458994D01*
X19754454Y-11439946D01*
X19754454Y-11268518D01*
X19887787Y-11468518D02*
X19868739Y-11458994D01*
X19859216Y-11439946D01*
X19859216Y-11268518D01*
X20116358Y-11468518D02*
X20116358Y-11268518D01*
X20183025Y-11411375D01*
X20249692Y-11268518D01*
X20249692Y-11468518D01*
X20430644Y-11468518D02*
X20430644Y-11363756D01*
X20421120Y-11344708D01*
X20402073Y-11335184D01*
X20363977Y-11335184D01*
X20344930Y-11344708D01*
X20430644Y-11458994D02*
X20411597Y-11468518D01*
X20363977Y-11468518D01*
X20344930Y-11458994D01*
X20335406Y-11439946D01*
X20335406Y-11420899D01*
X20344930Y-11401851D01*
X20363977Y-11392327D01*
X20411597Y-11392327D01*
X20430644Y-11382804D01*
X20525882Y-11335184D02*
X20525882Y-11535184D01*
X20525882Y-11344708D02*
X20544930Y-11335184D01*
X20583025Y-11335184D01*
X20602073Y-11344708D01*
X20611597Y-11354232D01*
X20621120Y-11373280D01*
X20621120Y-11430423D01*
X20611597Y-11449470D01*
X20602073Y-11458994D01*
X20583025Y-11468518D01*
X20544930Y-11468518D01*
X20525882Y-11458994D01*
X20706835Y-11449470D02*
X20716358Y-11458994D01*
X20706835Y-11468518D01*
X20697311Y-11458994D01*
X20706835Y-11449470D01*
X20706835Y-11468518D01*
X20706835Y-11344708D02*
X20716358Y-11354232D01*
X20706835Y-11363756D01*
X20697311Y-11354232D01*
X20706835Y-11344708D01*
X20706835Y-11363756D01*
D11*
X18997787Y-11758042D02*
X19077787Y-11838042D01*
X19077787Y-11758042D02*
X18997787Y-11838042D01*
D10*
X19373501Y-11688518D02*
X19392549Y-11688518D01*
X19411597Y-11698042D01*
X19421120Y-11707565D01*
X19430644Y-11726613D01*
X19440168Y-11764708D01*
X19440168Y-11812327D01*
X19430644Y-11850423D01*
X19421120Y-11869470D01*
X19411597Y-11878994D01*
X19392549Y-11888518D01*
X19373501Y-11888518D01*
X19354454Y-11878994D01*
X19344930Y-11869470D01*
X19335406Y-11850423D01*
X19325882Y-11812327D01*
X19325882Y-11764708D01*
X19335406Y-11726613D01*
X19344930Y-11707565D01*
X19354454Y-11698042D01*
X19373501Y-11688518D01*
X19525882Y-11869470D02*
X19535406Y-11878994D01*
X19525882Y-11888518D01*
X19516358Y-11878994D01*
X19525882Y-11869470D01*
X19525882Y-11888518D01*
X19649692Y-11774232D02*
X19630644Y-11764708D01*
X19621120Y-11755184D01*
X19611597Y-11736137D01*
X19611597Y-11726613D01*
X19621120Y-11707565D01*
X19630644Y-11698042D01*
X19649692Y-11688518D01*
X19687787Y-11688518D01*
X19706835Y-11698042D01*
X19716358Y-11707565D01*
X19725882Y-11726613D01*
X19725882Y-11736137D01*
X19716358Y-11755184D01*
X19706835Y-11764708D01*
X19687787Y-11774232D01*
X19649692Y-11774232D01*
X19630644Y-11783756D01*
X19621120Y-11793280D01*
X19611597Y-11812327D01*
X19611597Y-11850423D01*
X19621120Y-11869470D01*
X19630644Y-11878994D01*
X19649692Y-11888518D01*
X19687787Y-11888518D01*
X19706835Y-11878994D01*
X19716358Y-11869470D01*
X19725882Y-11850423D01*
X19725882Y-11812327D01*
X19716358Y-11793280D01*
X19706835Y-11783756D01*
X19687787Y-11774232D01*
X19849692Y-11688518D02*
X19868739Y-11688518D01*
X19887787Y-11698042D01*
X19897311Y-11707565D01*
X19906835Y-11726613D01*
X19916358Y-11764708D01*
X19916358Y-11812327D01*
X19906835Y-11850423D01*
X19897311Y-11869470D01*
X19887787Y-11878994D01*
X19868739Y-11888518D01*
X19849692Y-11888518D01*
X19830644Y-11878994D01*
X19821120Y-11869470D01*
X19811597Y-11850423D01*
X19802073Y-11812327D01*
X19802073Y-11764708D01*
X19811597Y-11726613D01*
X19821120Y-11707565D01*
X19830644Y-11698042D01*
X19849692Y-11688518D01*
X20040168Y-11688518D02*
X20059216Y-11688518D01*
X20078263Y-11698042D01*
X20087787Y-11707565D01*
X20097311Y-11726613D01*
X20106835Y-11764708D01*
X20106835Y-11812327D01*
X20097311Y-11850423D01*
X20087787Y-11869470D01*
X20078263Y-11878994D01*
X20059216Y-11888518D01*
X20040168Y-11888518D01*
X20021120Y-11878994D01*
X20011597Y-11869470D01*
X20002073Y-11850423D01*
X19992549Y-11812327D01*
X19992549Y-11764708D01*
X20002073Y-11726613D01*
X20011597Y-11707565D01*
X20021120Y-11698042D01*
X20040168Y-11688518D01*
X20192549Y-11888518D02*
X20192549Y-11755184D01*
X20192549Y-11774232D02*
X20202073Y-11764708D01*
X20221120Y-11755184D01*
X20249692Y-11755184D01*
X20268739Y-11764708D01*
X20278263Y-11783756D01*
X20278263Y-11888518D01*
X20278263Y-11783756D02*
X20287787Y-11764708D01*
X20306835Y-11755184D01*
X20335406Y-11755184D01*
X20354454Y-11764708D01*
X20363977Y-11783756D01*
X20363977Y-11888518D01*
X20459216Y-11888518D02*
X20459216Y-11755184D01*
X20459216Y-11774232D02*
X20468739Y-11764708D01*
X20487787Y-11755184D01*
X20516358Y-11755184D01*
X20535406Y-11764708D01*
X20544930Y-11783756D01*
X20544930Y-11888518D01*
X20544930Y-11783756D02*
X20554454Y-11764708D01*
X20573501Y-11755184D01*
X20602073Y-11755184D01*
X20621120Y-11764708D01*
X20630644Y-11783756D01*
X20630644Y-11888518D01*
X21021120Y-11678994D02*
X20849692Y-11936137D01*
X21278263Y-11688518D02*
X21297311Y-11688518D01*
X21316358Y-11698042D01*
X21325882Y-11707565D01*
X21335406Y-11726613D01*
X21344930Y-11764708D01*
X21344930Y-11812327D01*
X21335406Y-11850423D01*
X21325882Y-11869470D01*
X21316358Y-11878994D01*
X21297311Y-11888518D01*
X21278263Y-11888518D01*
X21259216Y-11878994D01*
X21249692Y-11869470D01*
X21240168Y-11850423D01*
X21230644Y-11812327D01*
X21230644Y-11764708D01*
X21240168Y-11726613D01*
X21249692Y-11707565D01*
X21259216Y-11698042D01*
X21278263Y-11688518D01*
X21430644Y-11869470D02*
X21440168Y-11878994D01*
X21430644Y-11888518D01*
X21421120Y-11878994D01*
X21430644Y-11869470D01*
X21430644Y-11888518D01*
X21563977Y-11688518D02*
X21583025Y-11688518D01*
X21602073Y-11698042D01*
X21611597Y-11707565D01*
X21621120Y-11726613D01*
X21630644Y-11764708D01*
X21630644Y-11812327D01*
X21621120Y-11850423D01*
X21611597Y-11869470D01*
X21602073Y-11878994D01*
X21583025Y-11888518D01*
X21563977Y-11888518D01*
X21544930Y-11878994D01*
X21535406Y-11869470D01*
X21525882Y-11850423D01*
X21516358Y-11812327D01*
X21516358Y-11764708D01*
X21525882Y-11726613D01*
X21535406Y-11707565D01*
X21544930Y-11698042D01*
X21563977Y-11688518D01*
X21697311Y-11688518D02*
X21821120Y-11688518D01*
X21754454Y-11764708D01*
X21783025Y-11764708D01*
X21802073Y-11774232D01*
X21811597Y-11783756D01*
X21821120Y-11802804D01*
X21821120Y-11850423D01*
X21811597Y-11869470D01*
X21802073Y-11878994D01*
X21783025Y-11888518D01*
X21725882Y-11888518D01*
X21706835Y-11878994D01*
X21697311Y-11869470D01*
X22011597Y-11888518D02*
X21897311Y-11888518D01*
X21954454Y-11888518D02*
X21954454Y-11688518D01*
X21935406Y-11717089D01*
X21916358Y-11736137D01*
X21897311Y-11745661D01*
X22192549Y-11688518D02*
X22097311Y-11688518D01*
X22087787Y-11783756D01*
X22097311Y-11774232D01*
X22116358Y-11764708D01*
X22163977Y-11764708D01*
X22183025Y-11774232D01*
X22192549Y-11783756D01*
X22202073Y-11802804D01*
X22202073Y-11850423D01*
X22192549Y-11869470D01*
X22183025Y-11878994D01*
X22163977Y-11888518D01*
X22116358Y-11888518D01*
X22097311Y-11878994D01*
X22087787Y-11869470D01*
X22278263Y-11688518D02*
X22278263Y-11726613D01*
X22354454Y-11688518D02*
X22354454Y-11726613D01*
X22649692Y-11964708D02*
X22640168Y-11955184D01*
X22621120Y-11926613D01*
X22611596Y-11907565D01*
X22602073Y-11878994D01*
X22592549Y-11831375D01*
X22592549Y-11793280D01*
X22602073Y-11745661D01*
X22611596Y-11717089D01*
X22621120Y-11698042D01*
X22640168Y-11669470D01*
X22649692Y-11659946D01*
X22716358Y-11707565D02*
X22725882Y-11698042D01*
X22744930Y-11688518D01*
X22792549Y-11688518D01*
X22811596Y-11698042D01*
X22821120Y-11707565D01*
X22830644Y-11726613D01*
X22830644Y-11745661D01*
X22821120Y-11774232D01*
X22706835Y-11888518D01*
X22830644Y-11888518D01*
X23068739Y-11888518D02*
X23068739Y-11688518D01*
X23154454Y-11888518D02*
X23154454Y-11783756D01*
X23144930Y-11764708D01*
X23125882Y-11755184D01*
X23097311Y-11755184D01*
X23078263Y-11764708D01*
X23068739Y-11774232D01*
X23278263Y-11888518D02*
X23259215Y-11878994D01*
X23249692Y-11869470D01*
X23240168Y-11850423D01*
X23240168Y-11793280D01*
X23249692Y-11774232D01*
X23259215Y-11764708D01*
X23278263Y-11755184D01*
X23306835Y-11755184D01*
X23325882Y-11764708D01*
X23335406Y-11774232D01*
X23344930Y-11793280D01*
X23344930Y-11850423D01*
X23335406Y-11869470D01*
X23325882Y-11878994D01*
X23306835Y-11888518D01*
X23278263Y-11888518D01*
X23459215Y-11888518D02*
X23440168Y-11878994D01*
X23430644Y-11859946D01*
X23430644Y-11688518D01*
X23611596Y-11878994D02*
X23592549Y-11888518D01*
X23554454Y-11888518D01*
X23535406Y-11878994D01*
X23525882Y-11859946D01*
X23525882Y-11783756D01*
X23535406Y-11764708D01*
X23554454Y-11755184D01*
X23592549Y-11755184D01*
X23611596Y-11764708D01*
X23621120Y-11783756D01*
X23621120Y-11802804D01*
X23525882Y-11821851D01*
X23697311Y-11878994D02*
X23716358Y-11888518D01*
X23754454Y-11888518D01*
X23773501Y-11878994D01*
X23783025Y-11859946D01*
X23783025Y-11850423D01*
X23773501Y-11831375D01*
X23754454Y-11821851D01*
X23725882Y-11821851D01*
X23706835Y-11812327D01*
X23697311Y-11793280D01*
X23697311Y-11783756D01*
X23706835Y-11764708D01*
X23725882Y-11755184D01*
X23754454Y-11755184D01*
X23773501Y-11764708D01*
X23849692Y-11964708D02*
X23859215Y-11955184D01*
X23878263Y-11926613D01*
X23887787Y-11907565D01*
X23897311Y-11878994D01*
X23906835Y-11831375D01*
X23906835Y-11793280D01*
X23897311Y-11745661D01*
X23887787Y-11717089D01*
X23878263Y-11698042D01*
X23859215Y-11669470D01*
X23849692Y-11659946D01*
D12*
X19077787Y-12062042D02*
G75*
G03*
X19077787Y-12062042I-45000J0D01*
G01*
D10*
X19373501Y-11952518D02*
X19392549Y-11952518D01*
X19411597Y-11962042D01*
X19421120Y-11971565D01*
X19430644Y-11990613D01*
X19440168Y-12028708D01*
X19440168Y-12076327D01*
X19430644Y-12114423D01*
X19421120Y-12133470D01*
X19411597Y-12142994D01*
X19392549Y-12152518D01*
X19373501Y-12152518D01*
X19354454Y-12142994D01*
X19344930Y-12133470D01*
X19335406Y-12114423D01*
X19325882Y-12076327D01*
X19325882Y-12028708D01*
X19335406Y-11990613D01*
X19344930Y-11971565D01*
X19354454Y-11962042D01*
X19373501Y-11952518D01*
X19525882Y-12133470D02*
X19535406Y-12142994D01*
X19525882Y-12152518D01*
X19516358Y-12142994D01*
X19525882Y-12133470D01*
X19525882Y-12152518D01*
X19630644Y-12152518D02*
X19668739Y-12152518D01*
X19687787Y-12142994D01*
X19697311Y-12133470D01*
X19716358Y-12104899D01*
X19725882Y-12066804D01*
X19725882Y-11990613D01*
X19716358Y-11971565D01*
X19706835Y-11962042D01*
X19687787Y-11952518D01*
X19649692Y-11952518D01*
X19630644Y-11962042D01*
X19621120Y-11971565D01*
X19611597Y-11990613D01*
X19611597Y-12038232D01*
X19621120Y-12057280D01*
X19630644Y-12066804D01*
X19649692Y-12076327D01*
X19687787Y-12076327D01*
X19706835Y-12066804D01*
X19716358Y-12057280D01*
X19725882Y-12038232D01*
X19849692Y-11952518D02*
X19868739Y-11952518D01*
X19887787Y-11962042D01*
X19897311Y-11971565D01*
X19906835Y-11990613D01*
X19916358Y-12028708D01*
X19916358Y-12076327D01*
X19906835Y-12114423D01*
X19897311Y-12133470D01*
X19887787Y-12142994D01*
X19868739Y-12152518D01*
X19849692Y-12152518D01*
X19830644Y-12142994D01*
X19821120Y-12133470D01*
X19811597Y-12114423D01*
X19802073Y-12076327D01*
X19802073Y-12028708D01*
X19811597Y-11990613D01*
X19821120Y-11971565D01*
X19830644Y-11962042D01*
X19849692Y-11952518D01*
X20040168Y-11952518D02*
X20059216Y-11952518D01*
X20078263Y-11962042D01*
X20087787Y-11971565D01*
X20097311Y-11990613D01*
X20106835Y-12028708D01*
X20106835Y-12076327D01*
X20097311Y-12114423D01*
X20087787Y-12133470D01*
X20078263Y-12142994D01*
X20059216Y-12152518D01*
X20040168Y-12152518D01*
X20021120Y-12142994D01*
X20011597Y-12133470D01*
X20002073Y-12114423D01*
X19992549Y-12076327D01*
X19992549Y-12028708D01*
X20002073Y-11990613D01*
X20011597Y-11971565D01*
X20021120Y-11962042D01*
X20040168Y-11952518D01*
X20192549Y-12152518D02*
X20192549Y-12019184D01*
X20192549Y-12038232D02*
X20202073Y-12028708D01*
X20221120Y-12019184D01*
X20249692Y-12019184D01*
X20268739Y-12028708D01*
X20278263Y-12047756D01*
X20278263Y-12152518D01*
X20278263Y-12047756D02*
X20287787Y-12028708D01*
X20306835Y-12019184D01*
X20335406Y-12019184D01*
X20354454Y-12028708D01*
X20363977Y-12047756D01*
X20363977Y-12152518D01*
X20459216Y-12152518D02*
X20459216Y-12019184D01*
X20459216Y-12038232D02*
X20468739Y-12028708D01*
X20487787Y-12019184D01*
X20516358Y-12019184D01*
X20535406Y-12028708D01*
X20544930Y-12047756D01*
X20544930Y-12152518D01*
X20544930Y-12047756D02*
X20554454Y-12028708D01*
X20573501Y-12019184D01*
X20602073Y-12019184D01*
X20621120Y-12028708D01*
X20630644Y-12047756D01*
X20630644Y-12152518D01*
X21021120Y-11942994D02*
X20849692Y-12200137D01*
X21278263Y-11952518D02*
X21297311Y-11952518D01*
X21316358Y-11962042D01*
X21325882Y-11971565D01*
X21335406Y-11990613D01*
X21344930Y-12028708D01*
X21344930Y-12076327D01*
X21335406Y-12114423D01*
X21325882Y-12133470D01*
X21316358Y-12142994D01*
X21297311Y-12152518D01*
X21278263Y-12152518D01*
X21259216Y-12142994D01*
X21249692Y-12133470D01*
X21240168Y-12114423D01*
X21230644Y-12076327D01*
X21230644Y-12028708D01*
X21240168Y-11990613D01*
X21249692Y-11971565D01*
X21259216Y-11962042D01*
X21278263Y-11952518D01*
X21430644Y-12133470D02*
X21440168Y-12142994D01*
X21430644Y-12152518D01*
X21421120Y-12142994D01*
X21430644Y-12133470D01*
X21430644Y-12152518D01*
X21563977Y-11952518D02*
X21583025Y-11952518D01*
X21602073Y-11962042D01*
X21611597Y-11971565D01*
X21621120Y-11990613D01*
X21630644Y-12028708D01*
X21630644Y-12076327D01*
X21621120Y-12114423D01*
X21611597Y-12133470D01*
X21602073Y-12142994D01*
X21583025Y-12152518D01*
X21563977Y-12152518D01*
X21544930Y-12142994D01*
X21535406Y-12133470D01*
X21525882Y-12114423D01*
X21516358Y-12076327D01*
X21516358Y-12028708D01*
X21525882Y-11990613D01*
X21535406Y-11971565D01*
X21544930Y-11962042D01*
X21563977Y-11952518D01*
X21697311Y-11952518D02*
X21821120Y-11952518D01*
X21754454Y-12028708D01*
X21783025Y-12028708D01*
X21802073Y-12038232D01*
X21811597Y-12047756D01*
X21821120Y-12066804D01*
X21821120Y-12114423D01*
X21811597Y-12133470D01*
X21802073Y-12142994D01*
X21783025Y-12152518D01*
X21725882Y-12152518D01*
X21706835Y-12142994D01*
X21697311Y-12133470D01*
X22002073Y-11952518D02*
X21906835Y-11952518D01*
X21897311Y-12047756D01*
X21906835Y-12038232D01*
X21925882Y-12028708D01*
X21973501Y-12028708D01*
X21992549Y-12038232D01*
X22002073Y-12047756D01*
X22011597Y-12066804D01*
X22011597Y-12114423D01*
X22002073Y-12133470D01*
X21992549Y-12142994D01*
X21973501Y-12152518D01*
X21925882Y-12152518D01*
X21906835Y-12142994D01*
X21897311Y-12133470D01*
X22183025Y-12019184D02*
X22183025Y-12152518D01*
X22135406Y-11942994D02*
X22087787Y-12085851D01*
X22211597Y-12085851D01*
X22278263Y-11952518D02*
X22278263Y-11990613D01*
X22354454Y-11952518D02*
X22354454Y-11990613D01*
X22649692Y-12228708D02*
X22640168Y-12219184D01*
X22621120Y-12190613D01*
X22611596Y-12171565D01*
X22602073Y-12142994D01*
X22592549Y-12095375D01*
X22592549Y-12057280D01*
X22602073Y-12009661D01*
X22611596Y-11981089D01*
X22621120Y-11962042D01*
X22640168Y-11933470D01*
X22649692Y-11923946D01*
X22716358Y-11971565D02*
X22725882Y-11962042D01*
X22744930Y-11952518D01*
X22792549Y-11952518D01*
X22811596Y-11962042D01*
X22821120Y-11971565D01*
X22830644Y-11990613D01*
X22830644Y-12009661D01*
X22821120Y-12038232D01*
X22706835Y-12152518D01*
X22830644Y-12152518D01*
X23068739Y-12152518D02*
X23068739Y-11952518D01*
X23154454Y-12152518D02*
X23154454Y-12047756D01*
X23144930Y-12028708D01*
X23125882Y-12019184D01*
X23097311Y-12019184D01*
X23078263Y-12028708D01*
X23068739Y-12038232D01*
X23278263Y-12152518D02*
X23259215Y-12142994D01*
X23249692Y-12133470D01*
X23240168Y-12114423D01*
X23240168Y-12057280D01*
X23249692Y-12038232D01*
X23259215Y-12028708D01*
X23278263Y-12019184D01*
X23306835Y-12019184D01*
X23325882Y-12028708D01*
X23335406Y-12038232D01*
X23344930Y-12057280D01*
X23344930Y-12114423D01*
X23335406Y-12133470D01*
X23325882Y-12142994D01*
X23306835Y-12152518D01*
X23278263Y-12152518D01*
X23459215Y-12152518D02*
X23440168Y-12142994D01*
X23430644Y-12123946D01*
X23430644Y-11952518D01*
X23611596Y-12142994D02*
X23592549Y-12152518D01*
X23554454Y-12152518D01*
X23535406Y-12142994D01*
X23525882Y-12123946D01*
X23525882Y-12047756D01*
X23535406Y-12028708D01*
X23554454Y-12019184D01*
X23592549Y-12019184D01*
X23611596Y-12028708D01*
X23621120Y-12047756D01*
X23621120Y-12066804D01*
X23525882Y-12085851D01*
X23697311Y-12142994D02*
X23716358Y-12152518D01*
X23754454Y-12152518D01*
X23773501Y-12142994D01*
X23783025Y-12123946D01*
X23783025Y-12114423D01*
X23773501Y-12095375D01*
X23754454Y-12085851D01*
X23725882Y-12085851D01*
X23706835Y-12076327D01*
X23697311Y-12057280D01*
X23697311Y-12047756D01*
X23706835Y-12028708D01*
X23725882Y-12019184D01*
X23754454Y-12019184D01*
X23773501Y-12028708D01*
X23849692Y-12228708D02*
X23859215Y-12219184D01*
X23878263Y-12190613D01*
X23887787Y-12171565D01*
X23897311Y-12142994D01*
X23906835Y-12095375D01*
X23906835Y-12057280D01*
X23897311Y-12009661D01*
X23887787Y-11981089D01*
X23878263Y-11962042D01*
X23859215Y-11933470D01*
X23849692Y-11923946D01*
D13*
X19027787Y-12276042D02*
X19027787Y-12376042D01*
X18977787Y-12326042D02*
X19077787Y-12326042D01*
D10*
X19440168Y-12416518D02*
X19325882Y-12416518D01*
X19383025Y-12416518D02*
X19383025Y-12216518D01*
X19363977Y-12245089D01*
X19344930Y-12264137D01*
X19325882Y-12273661D01*
X19525882Y-12397470D02*
X19535406Y-12406994D01*
X19525882Y-12416518D01*
X19516358Y-12406994D01*
X19525882Y-12397470D01*
X19525882Y-12416518D01*
X19659216Y-12216518D02*
X19678263Y-12216518D01*
X19697311Y-12226042D01*
X19706835Y-12235565D01*
X19716358Y-12254613D01*
X19725882Y-12292708D01*
X19725882Y-12340327D01*
X19716358Y-12378423D01*
X19706835Y-12397470D01*
X19697311Y-12406994D01*
X19678263Y-12416518D01*
X19659216Y-12416518D01*
X19640168Y-12406994D01*
X19630644Y-12397470D01*
X19621120Y-12378423D01*
X19611597Y-12340327D01*
X19611597Y-12292708D01*
X19621120Y-12254613D01*
X19630644Y-12235565D01*
X19640168Y-12226042D01*
X19659216Y-12216518D01*
X19849692Y-12216518D02*
X19868739Y-12216518D01*
X19887787Y-12226042D01*
X19897311Y-12235565D01*
X19906835Y-12254613D01*
X19916358Y-12292708D01*
X19916358Y-12340327D01*
X19906835Y-12378423D01*
X19897311Y-12397470D01*
X19887787Y-12406994D01*
X19868739Y-12416518D01*
X19849692Y-12416518D01*
X19830644Y-12406994D01*
X19821120Y-12397470D01*
X19811597Y-12378423D01*
X19802073Y-12340327D01*
X19802073Y-12292708D01*
X19811597Y-12254613D01*
X19821120Y-12235565D01*
X19830644Y-12226042D01*
X19849692Y-12216518D01*
X20040168Y-12216518D02*
X20059216Y-12216518D01*
X20078263Y-12226042D01*
X20087787Y-12235565D01*
X20097311Y-12254613D01*
X20106835Y-12292708D01*
X20106835Y-12340327D01*
X20097311Y-12378423D01*
X20087787Y-12397470D01*
X20078263Y-12406994D01*
X20059216Y-12416518D01*
X20040168Y-12416518D01*
X20021120Y-12406994D01*
X20011597Y-12397470D01*
X20002073Y-12378423D01*
X19992549Y-12340327D01*
X19992549Y-12292708D01*
X20002073Y-12254613D01*
X20011597Y-12235565D01*
X20021120Y-12226042D01*
X20040168Y-12216518D01*
X20192549Y-12416518D02*
X20192549Y-12283184D01*
X20192549Y-12302232D02*
X20202073Y-12292708D01*
X20221120Y-12283184D01*
X20249692Y-12283184D01*
X20268739Y-12292708D01*
X20278263Y-12311756D01*
X20278263Y-12416518D01*
X20278263Y-12311756D02*
X20287787Y-12292708D01*
X20306835Y-12283184D01*
X20335406Y-12283184D01*
X20354454Y-12292708D01*
X20363977Y-12311756D01*
X20363977Y-12416518D01*
X20459216Y-12416518D02*
X20459216Y-12283184D01*
X20459216Y-12302232D02*
X20468739Y-12292708D01*
X20487787Y-12283184D01*
X20516358Y-12283184D01*
X20535406Y-12292708D01*
X20544930Y-12311756D01*
X20544930Y-12416518D01*
X20544930Y-12311756D02*
X20554454Y-12292708D01*
X20573501Y-12283184D01*
X20602073Y-12283184D01*
X20621120Y-12292708D01*
X20630644Y-12311756D01*
X20630644Y-12416518D01*
X21021120Y-12206994D02*
X20849692Y-12464137D01*
X21278263Y-12216518D02*
X21297311Y-12216518D01*
X21316358Y-12226042D01*
X21325882Y-12235565D01*
X21335406Y-12254613D01*
X21344930Y-12292708D01*
X21344930Y-12340327D01*
X21335406Y-12378423D01*
X21325882Y-12397470D01*
X21316358Y-12406994D01*
X21297311Y-12416518D01*
X21278263Y-12416518D01*
X21259216Y-12406994D01*
X21249692Y-12397470D01*
X21240168Y-12378423D01*
X21230644Y-12340327D01*
X21230644Y-12292708D01*
X21240168Y-12254613D01*
X21249692Y-12235565D01*
X21259216Y-12226042D01*
X21278263Y-12216518D01*
X21430644Y-12397470D02*
X21440168Y-12406994D01*
X21430644Y-12416518D01*
X21421120Y-12406994D01*
X21430644Y-12397470D01*
X21430644Y-12416518D01*
X21563977Y-12216518D02*
X21583025Y-12216518D01*
X21602073Y-12226042D01*
X21611597Y-12235565D01*
X21621120Y-12254613D01*
X21630644Y-12292708D01*
X21630644Y-12340327D01*
X21621120Y-12378423D01*
X21611597Y-12397470D01*
X21602073Y-12406994D01*
X21583025Y-12416518D01*
X21563977Y-12416518D01*
X21544930Y-12406994D01*
X21535406Y-12397470D01*
X21525882Y-12378423D01*
X21516358Y-12340327D01*
X21516358Y-12292708D01*
X21525882Y-12254613D01*
X21535406Y-12235565D01*
X21544930Y-12226042D01*
X21563977Y-12216518D01*
X21697311Y-12216518D02*
X21821120Y-12216518D01*
X21754454Y-12292708D01*
X21783025Y-12292708D01*
X21802073Y-12302232D01*
X21811597Y-12311756D01*
X21821120Y-12330804D01*
X21821120Y-12378423D01*
X21811597Y-12397470D01*
X21802073Y-12406994D01*
X21783025Y-12416518D01*
X21725882Y-12416518D01*
X21706835Y-12406994D01*
X21697311Y-12397470D01*
X21916358Y-12416518D02*
X21954454Y-12416518D01*
X21973501Y-12406994D01*
X21983025Y-12397470D01*
X22002073Y-12368899D01*
X22011597Y-12330804D01*
X22011597Y-12254613D01*
X22002073Y-12235565D01*
X21992549Y-12226042D01*
X21973501Y-12216518D01*
X21935406Y-12216518D01*
X21916358Y-12226042D01*
X21906835Y-12235565D01*
X21897311Y-12254613D01*
X21897311Y-12302232D01*
X21906835Y-12321280D01*
X21916358Y-12330804D01*
X21935406Y-12340327D01*
X21973501Y-12340327D01*
X21992549Y-12330804D01*
X22002073Y-12321280D01*
X22011597Y-12302232D01*
X22183025Y-12283184D02*
X22183025Y-12416518D01*
X22135406Y-12206994D02*
X22087787Y-12349851D01*
X22211597Y-12349851D01*
X22278263Y-12216518D02*
X22278263Y-12254613D01*
X22354454Y-12216518D02*
X22354454Y-12254613D01*
X22649692Y-12492708D02*
X22640168Y-12483184D01*
X22621120Y-12454613D01*
X22611596Y-12435565D01*
X22602073Y-12406994D01*
X22592549Y-12359375D01*
X22592549Y-12321280D01*
X22602073Y-12273661D01*
X22611596Y-12245089D01*
X22621120Y-12226042D01*
X22640168Y-12197470D01*
X22649692Y-12187946D01*
X22830644Y-12416518D02*
X22716358Y-12416518D01*
X22773501Y-12416518D02*
X22773501Y-12216518D01*
X22754454Y-12245089D01*
X22735406Y-12264137D01*
X22716358Y-12273661D01*
X22925882Y-12416518D02*
X22963977Y-12416518D01*
X22983025Y-12406994D01*
X22992549Y-12397470D01*
X23011596Y-12368899D01*
X23021120Y-12330804D01*
X23021120Y-12254613D01*
X23011596Y-12235565D01*
X23002073Y-12226042D01*
X22983025Y-12216518D01*
X22944930Y-12216518D01*
X22925882Y-12226042D01*
X22916358Y-12235565D01*
X22906835Y-12254613D01*
X22906835Y-12302232D01*
X22916358Y-12321280D01*
X22925882Y-12330804D01*
X22944930Y-12340327D01*
X22983025Y-12340327D01*
X23002073Y-12330804D01*
X23011596Y-12321280D01*
X23021120Y-12302232D01*
X23259215Y-12416518D02*
X23259215Y-12216518D01*
X23344930Y-12416518D02*
X23344930Y-12311756D01*
X23335406Y-12292708D01*
X23316358Y-12283184D01*
X23287787Y-12283184D01*
X23268739Y-12292708D01*
X23259215Y-12302232D01*
X23468739Y-12416518D02*
X23449692Y-12406994D01*
X23440168Y-12397470D01*
X23430644Y-12378423D01*
X23430644Y-12321280D01*
X23440168Y-12302232D01*
X23449692Y-12292708D01*
X23468739Y-12283184D01*
X23497311Y-12283184D01*
X23516358Y-12292708D01*
X23525882Y-12302232D01*
X23535406Y-12321280D01*
X23535406Y-12378423D01*
X23525882Y-12397470D01*
X23516358Y-12406994D01*
X23497311Y-12416518D01*
X23468739Y-12416518D01*
X23649692Y-12416518D02*
X23630644Y-12406994D01*
X23621120Y-12387946D01*
X23621120Y-12216518D01*
X23802073Y-12406994D02*
X23783025Y-12416518D01*
X23744930Y-12416518D01*
X23725882Y-12406994D01*
X23716358Y-12387946D01*
X23716358Y-12311756D01*
X23725882Y-12292708D01*
X23744930Y-12283184D01*
X23783025Y-12283184D01*
X23802073Y-12292708D01*
X23811596Y-12311756D01*
X23811596Y-12330804D01*
X23716358Y-12349851D01*
X23887787Y-12406994D02*
X23906835Y-12416518D01*
X23944930Y-12416518D01*
X23963977Y-12406994D01*
X23973501Y-12387946D01*
X23973501Y-12378423D01*
X23963977Y-12359375D01*
X23944930Y-12349851D01*
X23916358Y-12349851D01*
X23897311Y-12340327D01*
X23887787Y-12321280D01*
X23887787Y-12311756D01*
X23897311Y-12292708D01*
X23916358Y-12283184D01*
X23944930Y-12283184D01*
X23963977Y-12292708D01*
X24040168Y-12492708D02*
X24049692Y-12483184D01*
X24068739Y-12454613D01*
X24078263Y-12435565D01*
X24087787Y-12406994D01*
X24097311Y-12359375D01*
X24097311Y-12321280D01*
X24087787Y-12273661D01*
X24078263Y-12245089D01*
X24068739Y-12226042D01*
X24049692Y-12197470D01*
X24040168Y-12187946D01*
X19048498Y-12660753D02*
X19048498Y-12519330D01*
X18907076Y-12519330D01*
X18907076Y-12660753D01*
X19048498Y-12660753D01*
X19325882Y-12499565D02*
X19335406Y-12490042D01*
X19354454Y-12480518D01*
X19402073Y-12480518D01*
X19421120Y-12490042D01*
X19430644Y-12499565D01*
X19440168Y-12518613D01*
X19440168Y-12537661D01*
X19430644Y-12566232D01*
X19316358Y-12680518D01*
X19440168Y-12680518D01*
X19525882Y-12661470D02*
X19535406Y-12670994D01*
X19525882Y-12680518D01*
X19516358Y-12670994D01*
X19525882Y-12661470D01*
X19525882Y-12680518D01*
X19725882Y-12680518D02*
X19611597Y-12680518D01*
X19668739Y-12680518D02*
X19668739Y-12480518D01*
X19649692Y-12509089D01*
X19630644Y-12528137D01*
X19611597Y-12537661D01*
X19916358Y-12680518D02*
X19802073Y-12680518D01*
X19859216Y-12680518D02*
X19859216Y-12480518D01*
X19840168Y-12509089D01*
X19821120Y-12528137D01*
X19802073Y-12537661D01*
X20040168Y-12480518D02*
X20059216Y-12480518D01*
X20078263Y-12490042D01*
X20087787Y-12499565D01*
X20097311Y-12518613D01*
X20106835Y-12556708D01*
X20106835Y-12604327D01*
X20097311Y-12642423D01*
X20087787Y-12661470D01*
X20078263Y-12670994D01*
X20059216Y-12680518D01*
X20040168Y-12680518D01*
X20021120Y-12670994D01*
X20011597Y-12661470D01*
X20002073Y-12642423D01*
X19992549Y-12604327D01*
X19992549Y-12556708D01*
X20002073Y-12518613D01*
X20011597Y-12499565D01*
X20021120Y-12490042D01*
X20040168Y-12480518D01*
X20192549Y-12680518D02*
X20192549Y-12547184D01*
X20192549Y-12566232D02*
X20202073Y-12556708D01*
X20221120Y-12547184D01*
X20249692Y-12547184D01*
X20268739Y-12556708D01*
X20278263Y-12575756D01*
X20278263Y-12680518D01*
X20278263Y-12575756D02*
X20287787Y-12556708D01*
X20306835Y-12547184D01*
X20335406Y-12547184D01*
X20354454Y-12556708D01*
X20363977Y-12575756D01*
X20363977Y-12680518D01*
X20459216Y-12680518D02*
X20459216Y-12547184D01*
X20459216Y-12566232D02*
X20468739Y-12556708D01*
X20487787Y-12547184D01*
X20516358Y-12547184D01*
X20535406Y-12556708D01*
X20544930Y-12575756D01*
X20544930Y-12680518D01*
X20544930Y-12575756D02*
X20554454Y-12556708D01*
X20573501Y-12547184D01*
X20602073Y-12547184D01*
X20621120Y-12556708D01*
X20630644Y-12575756D01*
X20630644Y-12680518D01*
X21021120Y-12470994D02*
X20849692Y-12728137D01*
X21278263Y-12480518D02*
X21297311Y-12480518D01*
X21316358Y-12490042D01*
X21325882Y-12499565D01*
X21335406Y-12518613D01*
X21344930Y-12556708D01*
X21344930Y-12604327D01*
X21335406Y-12642423D01*
X21325882Y-12661470D01*
X21316358Y-12670994D01*
X21297311Y-12680518D01*
X21278263Y-12680518D01*
X21259216Y-12670994D01*
X21249692Y-12661470D01*
X21240168Y-12642423D01*
X21230644Y-12604327D01*
X21230644Y-12556708D01*
X21240168Y-12518613D01*
X21249692Y-12499565D01*
X21259216Y-12490042D01*
X21278263Y-12480518D01*
X21430644Y-12661470D02*
X21440168Y-12670994D01*
X21430644Y-12680518D01*
X21421120Y-12670994D01*
X21430644Y-12661470D01*
X21430644Y-12680518D01*
X21563977Y-12480518D02*
X21583025Y-12480518D01*
X21602073Y-12490042D01*
X21611597Y-12499565D01*
X21621120Y-12518613D01*
X21630644Y-12556708D01*
X21630644Y-12604327D01*
X21621120Y-12642423D01*
X21611597Y-12661470D01*
X21602073Y-12670994D01*
X21583025Y-12680518D01*
X21563977Y-12680518D01*
X21544930Y-12670994D01*
X21535406Y-12661470D01*
X21525882Y-12642423D01*
X21516358Y-12604327D01*
X21516358Y-12556708D01*
X21525882Y-12518613D01*
X21535406Y-12499565D01*
X21544930Y-12490042D01*
X21563977Y-12480518D01*
X21744930Y-12566232D02*
X21725882Y-12556708D01*
X21716358Y-12547184D01*
X21706835Y-12528137D01*
X21706835Y-12518613D01*
X21716358Y-12499565D01*
X21725882Y-12490042D01*
X21744930Y-12480518D01*
X21783025Y-12480518D01*
X21802073Y-12490042D01*
X21811597Y-12499565D01*
X21821120Y-12518613D01*
X21821120Y-12528137D01*
X21811597Y-12547184D01*
X21802073Y-12556708D01*
X21783025Y-12566232D01*
X21744930Y-12566232D01*
X21725882Y-12575756D01*
X21716358Y-12585280D01*
X21706835Y-12604327D01*
X21706835Y-12642423D01*
X21716358Y-12661470D01*
X21725882Y-12670994D01*
X21744930Y-12680518D01*
X21783025Y-12680518D01*
X21802073Y-12670994D01*
X21811597Y-12661470D01*
X21821120Y-12642423D01*
X21821120Y-12604327D01*
X21811597Y-12585280D01*
X21802073Y-12575756D01*
X21783025Y-12566232D01*
X21887787Y-12480518D02*
X22011597Y-12480518D01*
X21944930Y-12556708D01*
X21973501Y-12556708D01*
X21992549Y-12566232D01*
X22002073Y-12575756D01*
X22011597Y-12594804D01*
X22011597Y-12642423D01*
X22002073Y-12661470D01*
X21992549Y-12670994D01*
X21973501Y-12680518D01*
X21916358Y-12680518D01*
X21897311Y-12670994D01*
X21887787Y-12661470D01*
X22202073Y-12680518D02*
X22087787Y-12680518D01*
X22144930Y-12680518D02*
X22144930Y-12480518D01*
X22125882Y-12509089D01*
X22106835Y-12528137D01*
X22087787Y-12537661D01*
X22278263Y-12480518D02*
X22278263Y-12518613D01*
X22354454Y-12480518D02*
X22354454Y-12518613D01*
X22649692Y-12756708D02*
X22640168Y-12747184D01*
X22621120Y-12718613D01*
X22611596Y-12699565D01*
X22602073Y-12670994D01*
X22592549Y-12623375D01*
X22592549Y-12585280D01*
X22602073Y-12537661D01*
X22611596Y-12509089D01*
X22621120Y-12490042D01*
X22640168Y-12461470D01*
X22649692Y-12451946D01*
X22754454Y-12566232D02*
X22735406Y-12556708D01*
X22725882Y-12547184D01*
X22716358Y-12528137D01*
X22716358Y-12518613D01*
X22725882Y-12499565D01*
X22735406Y-12490042D01*
X22754454Y-12480518D01*
X22792549Y-12480518D01*
X22811596Y-12490042D01*
X22821120Y-12499565D01*
X22830644Y-12518613D01*
X22830644Y-12528137D01*
X22821120Y-12547184D01*
X22811596Y-12556708D01*
X22792549Y-12566232D01*
X22754454Y-12566232D01*
X22735406Y-12575756D01*
X22725882Y-12585280D01*
X22716358Y-12604327D01*
X22716358Y-12642423D01*
X22725882Y-12661470D01*
X22735406Y-12670994D01*
X22754454Y-12680518D01*
X22792549Y-12680518D01*
X22811596Y-12670994D01*
X22821120Y-12661470D01*
X22830644Y-12642423D01*
X22830644Y-12604327D01*
X22821120Y-12585280D01*
X22811596Y-12575756D01*
X22792549Y-12566232D01*
X23068739Y-12680518D02*
X23068739Y-12480518D01*
X23154454Y-12680518D02*
X23154454Y-12575756D01*
X23144930Y-12556708D01*
X23125882Y-12547184D01*
X23097311Y-12547184D01*
X23078263Y-12556708D01*
X23068739Y-12566232D01*
X23278263Y-12680518D02*
X23259215Y-12670994D01*
X23249692Y-12661470D01*
X23240168Y-12642423D01*
X23240168Y-12585280D01*
X23249692Y-12566232D01*
X23259215Y-12556708D01*
X23278263Y-12547184D01*
X23306835Y-12547184D01*
X23325882Y-12556708D01*
X23335406Y-12566232D01*
X23344930Y-12585280D01*
X23344930Y-12642423D01*
X23335406Y-12661470D01*
X23325882Y-12670994D01*
X23306835Y-12680518D01*
X23278263Y-12680518D01*
X23459215Y-12680518D02*
X23440168Y-12670994D01*
X23430644Y-12651946D01*
X23430644Y-12480518D01*
X23611596Y-12670994D02*
X23592549Y-12680518D01*
X23554454Y-12680518D01*
X23535406Y-12670994D01*
X23525882Y-12651946D01*
X23525882Y-12575756D01*
X23535406Y-12556708D01*
X23554454Y-12547184D01*
X23592549Y-12547184D01*
X23611596Y-12556708D01*
X23621120Y-12575756D01*
X23621120Y-12594804D01*
X23525882Y-12613851D01*
X23697311Y-12670994D02*
X23716358Y-12680518D01*
X23754454Y-12680518D01*
X23773501Y-12670994D01*
X23783025Y-12651946D01*
X23783025Y-12642423D01*
X23773501Y-12623375D01*
X23754454Y-12613851D01*
X23725882Y-12613851D01*
X23706835Y-12604327D01*
X23697311Y-12585280D01*
X23697311Y-12575756D01*
X23706835Y-12556708D01*
X23725882Y-12547184D01*
X23754454Y-12547184D01*
X23773501Y-12556708D01*
X23849692Y-12756708D02*
X23859215Y-12747184D01*
X23878263Y-12718613D01*
X23887787Y-12699565D01*
X23897311Y-12670994D01*
X23906835Y-12623375D01*
X23906835Y-12585280D01*
X23897311Y-12537661D01*
X23887787Y-12509089D01*
X23878263Y-12490042D01*
X23859215Y-12461470D01*
X23849692Y-12451946D01*
M02*
