  0
SECTION
  2
HEADER
  9
$ANGBASE
  50
0.0
  9
$ANGDIR
  70
1
  9
$MEASUREMENT
  70
1
  0
ENDSEC
  0
SECTION
  2
TABLES
  0
TABLE
  2
LTYPE
  70
4
  0
LTYPE
  5
40F
  2
CONTINUOUS
  70
0
  3
Solid line
  72
65
  73
0
  40
0.0
  0
LTYPE
  5
410
  2
DASHDOT
 70
0
  3
Dash Dot ____ _ ____ _
 72
65
 73
4
 40
2.0
 49
1.25
 49
-0.25
 49
0.25
 49
-0.25
  0
LTYPE
  5
411
  2
DASHED
 70
0
  3
Dashed __ __ __ __ __
 72
65
 73
2
 40
0.75
 49
0.5
 49
-0.25
  0
LTYPE
  5
43B
  2
DOTTED
 70
0
  3
Dotted .  .  .  .
 72
65
 73
2
 40
0.2
 49
0.0
 49
-0.2
  0
ENDTAB
  0
TABLE
  2
STYLE
  70
4
  0
STYLE
  2
KICAD
  70
0
  40
0
  41
1
  42
1
  50
0
  71
0
  3
isocp.shx
  0
STYLE
  2
KICADB
  70
0
  40
0
  41
1
  42
1
  50
0
  71
0
  3
isocp.shx
  0
STYLE
  2
KICADI
  70
0
  40
0
  41
1
  42
1
  50
15
  71
0
  3
isocp.shx
  0
STYLE
  2
KICADBI
  70
0
  40
0
  41
1
  42
1
  50
15
  71
0
  3
isocp.shx
  0
ENDTAB
  0
TABLE
  2
LAYER
  70
1
  0
LAYER
  2
BLACK
  70
0
  62
7
  6
CONTINUOUS
  0
ENDTAB
  0
ENDSEC
  0
SECTION
  2
ENTITIES
0
LINE
8
BLACK
6
CONTINUOUS
10
227.493
20
-108.995
11
227.65
21
-109.051
0
LINE
8
BLACK
6
CONTINUOUS
10
227.65
20
-109.051
11
227.792
21
-109.141
0
LINE
8
BLACK
6
CONTINUOUS
10
227.792
20
-109.141
11
227.909
21
-109.259
0
LINE
8
BLACK
6
CONTINUOUS
10
227.909
20
-109.259
11
227.998
21
-109.401
0
LINE
8
BLACK
6
CONTINUOUS
10
227.998
20
-109.401
11
228.053
21
-109.559
0
LINE
8
BLACK
6
CONTINUOUS
10
228.053
20
-109.559
11
228.072
21
-109.725
0
LINE
8
BLACK
6
CONTINUOUS
10
228.072
20
-109.725
11
228.071
21
-109.746
0
LINE
8
BLACK
6
CONTINUOUS
10
228.071
20
-109.746
11
228.048
21
-109.912
0
LINE
8
BLACK
6
CONTINUOUS
10
228.048
20
-109.912
11
227.989
21
-110.068
0
LINE
8
BLACK
6
CONTINUOUS
10
227.989
20
-110.068
11
227.896
21
-110.207
0
LINE
8
BLACK
6
CONTINUOUS
10
227.896
20
-110.207
11
227.775
21
-110.323
0
LINE
8
BLACK
6
CONTINUOUS
10
227.775
20
-110.323
11
227.631
21
-110.408
0
LINE
8
BLACK
6
CONTINUOUS
10
227.631
20
-110.408
11
227.472
21
-110.46
0
LINE
8
BLACK
6
CONTINUOUS
10
227.472
20
-110.46
11
227.306
21
-110.475
0
LINE
8
BLACK
6
CONTINUOUS
10
227.306
20
-110.475
11
227.14
21
-110.453
0
LINE
8
BLACK
6
CONTINUOUS
10
227.14
20
-110.453
11
226.983
21
-110.395
0
LINE
8
BLACK
6
CONTINUOUS
10
226.983
20
-110.395
11
226.844
21
-110.303
0
LINE
8
BLACK
6
CONTINUOUS
10
226.844
20
-110.303
11
226.727
21
-110.183
0
LINE
8
BLACK
6
CONTINUOUS
10
226.727
20
-110.183
11
226.641
21
-110.04
0
LINE
8
BLACK
6
CONTINUOUS
10
226.641
20
-110.04
11
226.588
21
-109.881
0
LINE
8
BLACK
6
CONTINUOUS
10
226.588
20
-109.881
11
226.572
21
-109.715
0
LINE
8
BLACK
6
CONTINUOUS
10
226.572
20
-109.715
11
226.593
21
-109.549
0
LINE
8
BLACK
6
CONTINUOUS
10
226.593
20
-109.549
11
226.65
21
-109.392
0
LINE
8
BLACK
6
CONTINUOUS
10
226.65
20
-109.392
11
226.74
21
-109.251
0
LINE
8
BLACK
6
CONTINUOUS
10
226.74
20
-109.251
11
226.86
21
-109.134
0
LINE
8
BLACK
6
CONTINUOUS
10
226.86
20
-109.134
11
227.002
21
-109.047
0
LINE
8
BLACK
6
CONTINUOUS
10
227.002
20
-109.047
11
227.161
21
-108.993
0
LINE
8
BLACK
6
CONTINUOUS
10
227.161
20
-108.993
11
227.327
21
-108.975
0
LINE
8
BLACK
6
CONTINUOUS
10
227.327
20
-108.975
11
227.493
21
-108.995
0
LINE
8
BLACK
6
CONTINUOUS
10
229.993
20
-108.995
11
230.15
21
-109.051
0
LINE
8
BLACK
6
CONTINUOUS
10
230.15
20
-109.051
11
230.292
21
-109.141
0
LINE
8
BLACK
6
CONTINUOUS
10
230.292
20
-109.141
11
230.409
21
-109.259
0
LINE
8
BLACK
6
CONTINUOUS
10
230.409
20
-109.259
11
230.498
21
-109.401
0
LINE
8
BLACK
6
CONTINUOUS
10
230.498
20
-109.401
11
230.553
21
-109.559
0
LINE
8
BLACK
6
CONTINUOUS
10
230.553
20
-109.559
11
230.572
21
-109.725
0
LINE
8
BLACK
6
CONTINUOUS
10
230.572
20
-109.725
11
230.571
21
-109.746
0
LINE
8
BLACK
6
CONTINUOUS
10
230.571
20
-109.746
11
230.548
21
-109.912
0
LINE
8
BLACK
6
CONTINUOUS
10
230.548
20
-109.912
11
230.489
21
-110.068
0
LINE
8
BLACK
6
CONTINUOUS
10
230.489
20
-110.068
11
230.396
21
-110.207
0
LINE
8
BLACK
6
CONTINUOUS
10
230.396
20
-110.207
11
230.275
21
-110.323
0
LINE
8
BLACK
6
CONTINUOUS
10
230.275
20
-110.323
11
230.131
21
-110.408
0
LINE
8
BLACK
6
CONTINUOUS
10
230.131
20
-110.408
11
229.972
21
-110.46
0
LINE
8
BLACK
6
CONTINUOUS
10
229.972
20
-110.46
11
229.806
21
-110.475
0
LINE
8
BLACK
6
CONTINUOUS
10
229.806
20
-110.475
11
229.64
21
-110.453
0
LINE
8
BLACK
6
CONTINUOUS
10
229.64
20
-110.453
11
229.483
21
-110.395
0
LINE
8
BLACK
6
CONTINUOUS
10
229.483
20
-110.395
11
229.344
21
-110.303
0
LINE
8
BLACK
6
CONTINUOUS
10
229.344
20
-110.303
11
229.227
21
-110.183
0
LINE
8
BLACK
6
CONTINUOUS
10
229.227
20
-110.183
11
229.141
21
-110.04
0
LINE
8
BLACK
6
CONTINUOUS
10
229.141
20
-110.04
11
229.088
21
-109.881
0
LINE
8
BLACK
6
CONTINUOUS
10
229.088
20
-109.881
11
229.072
21
-109.715
0
LINE
8
BLACK
6
CONTINUOUS
10
229.072
20
-109.715
11
229.093
21
-109.549
0
LINE
8
BLACK
6
CONTINUOUS
10
229.093
20
-109.549
11
229.15
21
-109.392
0
LINE
8
BLACK
6
CONTINUOUS
10
229.15
20
-109.392
11
229.24
21
-109.251
0
LINE
8
BLACK
6
CONTINUOUS
10
229.24
20
-109.251
11
229.36
21
-109.134
0
LINE
8
BLACK
6
CONTINUOUS
10
229.36
20
-109.134
11
229.502
21
-109.047
0
LINE
8
BLACK
6
CONTINUOUS
10
229.502
20
-109.047
11
229.661
21
-108.993
0
LINE
8
BLACK
6
CONTINUOUS
10
229.661
20
-108.993
11
229.827
21
-108.975
0
LINE
8
BLACK
6
CONTINUOUS
10
229.827
20
-108.975
11
229.993
21
-108.995
0
LINE
8
BLACK
6
CONTINUOUS
10
232.493
20
-108.995
11
232.65
21
-109.051
0
LINE
8
BLACK
6
CONTINUOUS
10
232.65
20
-109.051
11
232.792
21
-109.141
0
LINE
8
BLACK
6
CONTINUOUS
10
232.792
20
-109.141
11
232.909
21
-109.259
0
LINE
8
BLACK
6
CONTINUOUS
10
232.909
20
-109.259
11
232.998
21
-109.401
0
LINE
8
BLACK
6
CONTINUOUS
10
232.998
20
-109.401
11
233.053
21
-109.559
0
LINE
8
BLACK
6
CONTINUOUS
10
233.053
20
-109.559
11
233.072
21
-109.725
0
LINE
8
BLACK
6
CONTINUOUS
10
233.072
20
-109.725
11
233.071
21
-109.746
0
LINE
8
BLACK
6
CONTINUOUS
10
233.071
20
-109.746
11
233.048
21
-109.912
0
LINE
8
BLACK
6
CONTINUOUS
10
233.048
20
-109.912
11
232.989
21
-110.068
0
LINE
8
BLACK
6
CONTINUOUS
10
232.989
20
-110.068
11
232.896
21
-110.207
0
LINE
8
BLACK
6
CONTINUOUS
10
232.896
20
-110.207
11
232.775
21
-110.323
0
LINE
8
BLACK
6
CONTINUOUS
10
232.775
20
-110.323
11
232.631
21
-110.408
0
LINE
8
BLACK
6
CONTINUOUS
10
232.631
20
-110.408
11
232.472
21
-110.46
0
LINE
8
BLACK
6
CONTINUOUS
10
232.472
20
-110.46
11
232.306
21
-110.475
0
LINE
8
BLACK
6
CONTINUOUS
10
232.306
20
-110.475
11
232.14
21
-110.453
0
LINE
8
BLACK
6
CONTINUOUS
10
232.14
20
-110.453
11
231.983
21
-110.395
0
LINE
8
BLACK
6
CONTINUOUS
10
231.983
20
-110.395
11
231.844
21
-110.303
0
LINE
8
BLACK
6
CONTINUOUS
10
231.844
20
-110.303
11
231.727
21
-110.183
0
LINE
8
BLACK
6
CONTINUOUS
10
231.727
20
-110.183
11
231.641
21
-110.04
0
LINE
8
BLACK
6
CONTINUOUS
10
231.641
20
-110.04
11
231.588
21
-109.881
0
LINE
8
BLACK
6
CONTINUOUS
10
231.588
20
-109.881
11
231.572
21
-109.715
0
LINE
8
BLACK
6
CONTINUOUS
10
231.572
20
-109.715
11
231.593
21
-109.549
0
LINE
8
BLACK
6
CONTINUOUS
10
231.593
20
-109.549
11
231.65
21
-109.392
0
LINE
8
BLACK
6
CONTINUOUS
10
231.65
20
-109.392
11
231.74
21
-109.251
0
LINE
8
BLACK
6
CONTINUOUS
10
231.74
20
-109.251
11
231.86
21
-109.134
0
LINE
8
BLACK
6
CONTINUOUS
10
231.86
20
-109.134
11
232.002
21
-109.047
0
LINE
8
BLACK
6
CONTINUOUS
10
232.002
20
-109.047
11
232.161
21
-108.993
0
LINE
8
BLACK
6
CONTINUOUS
10
232.161
20
-108.993
11
232.327
21
-108.975
0
LINE
8
BLACK
6
CONTINUOUS
10
232.327
20
-108.975
11
232.493
21
-108.995
0
LINE
8
BLACK
6
CONTINUOUS
10
199.126
20
-108.986
11
199.284
21
-109.042
0
LINE
8
BLACK
6
CONTINUOUS
10
199.284
20
-109.042
11
199.425
21
-109.132
0
LINE
8
BLACK
6
CONTINUOUS
10
199.425
20
-109.132
11
199.543
21
-109.25
0
LINE
8
BLACK
6
CONTINUOUS
10
199.543
20
-109.25
11
199.631
21
-109.392
0
LINE
8
BLACK
6
CONTINUOUS
10
199.631
20
-109.392
11
199.686
21
-109.55
0
LINE
8
BLACK
6
CONTINUOUS
10
199.686
20
-109.55
11
199.705
21
-109.716
0
LINE
8
BLACK
6
CONTINUOUS
10
199.705
20
-109.716
11
199.705
21
-109.737
0
LINE
8
BLACK
6
CONTINUOUS
10
199.705
20
-109.737
11
199.681
21
-109.903
0
LINE
8
BLACK
6
CONTINUOUS
10
199.681
20
-109.903
11
199.622
21
-110.059
0
LINE
8
BLACK
6
CONTINUOUS
10
199.622
20
-110.059
11
199.529
21
-110.198
0
LINE
8
BLACK
6
CONTINUOUS
10
199.529
20
-110.198
11
199.408
21
-110.314
0
LINE
8
BLACK
6
CONTINUOUS
10
199.408
20
-110.314
11
199.265
21
-110.399
0
LINE
8
BLACK
6
CONTINUOUS
10
199.265
20
-110.399
11
199.106
21
-110.451
0
LINE
8
BLACK
6
CONTINUOUS
10
199.106
20
-110.451
11
198.939
21
-110.466
0
LINE
8
BLACK
6
CONTINUOUS
10
198.939
20
-110.466
11
198.773
21
-110.444
0
LINE
8
BLACK
6
CONTINUOUS
10
198.773
20
-110.444
11
198.617
21
-110.386
0
LINE
8
BLACK
6
CONTINUOUS
10
198.617
20
-110.386
11
198.477
21
-110.294
0
LINE
8
BLACK
6
CONTINUOUS
10
198.477
20
-110.294
11
198.361
21
-110.174
0
LINE
8
BLACK
6
CONTINUOUS
10
198.361
20
-110.174
11
198.274
21
-110.031
0
LINE
8
BLACK
6
CONTINUOUS
10
198.274
20
-110.031
11
198.221
21
-109.872
0
LINE
8
BLACK
6
CONTINUOUS
10
198.221
20
-109.872
11
198.205
21
-109.706
0
LINE
8
BLACK
6
CONTINUOUS
10
198.205
20
-109.706
11
198.226
21
-109.54
0
LINE
8
BLACK
6
CONTINUOUS
10
198.226
20
-109.54
11
198.283
21
-109.383
0
LINE
8
BLACK
6
CONTINUOUS
10
198.283
20
-109.383
11
198.374
21
-109.242
0
LINE
8
BLACK
6
CONTINUOUS
10
198.374
20
-109.242
11
198.493
21
-109.125
0
LINE
8
BLACK
6
CONTINUOUS
10
198.493
20
-109.125
11
198.636
21
-109.037
0
LINE
8
BLACK
6
CONTINUOUS
10
198.636
20
-109.037
11
198.794
21
-108.984
0
LINE
8
BLACK
6
CONTINUOUS
10
198.794
20
-108.984
11
198.96
21
-108.966
0
LINE
8
BLACK
6
CONTINUOUS
10
198.96
20
-108.966
11
199.126
21
-108.986
0
LINE
8
BLACK
6
CONTINUOUS
10
201.626
20
-108.986
11
201.784
21
-109.042
0
LINE
8
BLACK
6
CONTINUOUS
10
201.784
20
-109.042
11
201.925
21
-109.132
0
LINE
8
BLACK
6
CONTINUOUS
10
201.925
20
-109.132
11
202.043
21
-109.25
0
LINE
8
BLACK
6
CONTINUOUS
10
202.043
20
-109.25
11
202.131
21
-109.392
0
LINE
8
BLACK
6
CONTINUOUS
10
202.131
20
-109.392
11
202.186
21
-109.55
0
LINE
8
BLACK
6
CONTINUOUS
10
202.186
20
-109.55
11
202.205
21
-109.716
0
LINE
8
BLACK
6
CONTINUOUS
10
202.205
20
-109.716
11
202.205
21
-109.737
0
LINE
8
BLACK
6
CONTINUOUS
10
202.205
20
-109.737
11
202.181
21
-109.903
0
LINE
8
BLACK
6
CONTINUOUS
10
202.181
20
-109.903
11
202.122
21
-110.059
0
LINE
8
BLACK
6
CONTINUOUS
10
202.122
20
-110.059
11
202.029
21
-110.198
0
LINE
8
BLACK
6
CONTINUOUS
10
202.029
20
-110.198
11
201.908
21
-110.314
0
LINE
8
BLACK
6
CONTINUOUS
10
201.908
20
-110.314
11
201.765
21
-110.399
0
LINE
8
BLACK
6
CONTINUOUS
10
201.765
20
-110.399
11
201.606
21
-110.451
0
LINE
8
BLACK
6
CONTINUOUS
10
201.606
20
-110.451
11
201.439
21
-110.466
0
LINE
8
BLACK
6
CONTINUOUS
10
201.439
20
-110.466
11
201.273
21
-110.444
0
LINE
8
BLACK
6
CONTINUOUS
10
201.273
20
-110.444
11
201.117
21
-110.386
0
LINE
8
BLACK
6
CONTINUOUS
10
201.117
20
-110.386
11
200.977
21
-110.294
0
LINE
8
BLACK
6
CONTINUOUS
10
200.977
20
-110.294
11
200.861
21
-110.174
0
LINE
8
BLACK
6
CONTINUOUS
10
200.861
20
-110.174
11
200.774
21
-110.031
0
LINE
8
BLACK
6
CONTINUOUS
10
200.774
20
-110.031
11
200.721
21
-109.872
0
LINE
8
BLACK
6
CONTINUOUS
10
200.721
20
-109.872
11
200.705
21
-109.706
0
LINE
8
BLACK
6
CONTINUOUS
10
200.705
20
-109.706
11
200.726
21
-109.54
0
LINE
8
BLACK
6
CONTINUOUS
10
200.726
20
-109.54
11
200.783
21
-109.383
0
LINE
8
BLACK
6
CONTINUOUS
10
200.783
20
-109.383
11
200.874
21
-109.242
0
LINE
8
BLACK
6
CONTINUOUS
10
200.874
20
-109.242
11
200.993
21
-109.125
0
LINE
8
BLACK
6
CONTINUOUS
10
200.993
20
-109.125
11
201.136
21
-109.037
0
LINE
8
BLACK
6
CONTINUOUS
10
201.136
20
-109.037
11
201.294
21
-108.984
0
LINE
8
BLACK
6
CONTINUOUS
10
201.294
20
-108.984
11
201.46
21
-108.966
0
LINE
8
BLACK
6
CONTINUOUS
10
201.46
20
-108.966
11
201.626
21
-108.986
0
LINE
8
BLACK
6
CONTINUOUS
10
204.126
20
-108.986
11
204.284
21
-109.042
0
LINE
8
BLACK
6
CONTINUOUS
10
204.284
20
-109.042
11
204.425
21
-109.132
0
LINE
8
BLACK
6
CONTINUOUS
10
204.425
20
-109.132
11
204.543
21
-109.25
0
LINE
8
BLACK
6
CONTINUOUS
10
204.543
20
-109.25
11
204.631
21
-109.392
0
LINE
8
BLACK
6
CONTINUOUS
10
204.631
20
-109.392
11
204.686
21
-109.55
0
LINE
8
BLACK
6
CONTINUOUS
10
204.686
20
-109.55
11
204.705
21
-109.716
0
LINE
8
BLACK
6
CONTINUOUS
10
204.705
20
-109.716
11
204.705
21
-109.737
0
LINE
8
BLACK
6
CONTINUOUS
10
204.705
20
-109.737
11
204.681
21
-109.903
0
LINE
8
BLACK
6
CONTINUOUS
10
204.681
20
-109.903
11
204.622
21
-110.059
0
LINE
8
BLACK
6
CONTINUOUS
10
204.622
20
-110.059
11
204.529
21
-110.198
0
LINE
8
BLACK
6
CONTINUOUS
10
204.529
20
-110.198
11
204.408
21
-110.314
0
LINE
8
BLACK
6
CONTINUOUS
10
204.408
20
-110.314
11
204.265
21
-110.399
0
LINE
8
BLACK
6
CONTINUOUS
10
204.265
20
-110.399
11
204.106
21
-110.451
0
LINE
8
BLACK
6
CONTINUOUS
10
204.106
20
-110.451
11
203.939
21
-110.466
0
LINE
8
BLACK
6
CONTINUOUS
10
203.939
20
-110.466
11
203.773
21
-110.444
0
LINE
8
BLACK
6
CONTINUOUS
10
203.773
20
-110.444
11
203.617
21
-110.386
0
LINE
8
BLACK
6
CONTINUOUS
10
203.617
20
-110.386
11
203.477
21
-110.294
0
LINE
8
BLACK
6
CONTINUOUS
10
203.477
20
-110.294
11
203.361
21
-110.174
0
LINE
8
BLACK
6
CONTINUOUS
10
203.361
20
-110.174
11
203.274
21
-110.031
0
LINE
8
BLACK
6
CONTINUOUS
10
203.274
20
-110.031
11
203.221
21
-109.872
0
LINE
8
BLACK
6
CONTINUOUS
10
203.221
20
-109.872
11
203.205
21
-109.706
0
LINE
8
BLACK
6
CONTINUOUS
10
203.205
20
-109.706
11
203.226
21
-109.54
0
LINE
8
BLACK
6
CONTINUOUS
10
203.226
20
-109.54
11
203.283
21
-109.383
0
LINE
8
BLACK
6
CONTINUOUS
10
203.283
20
-109.383
11
203.374
21
-109.242
0
LINE
8
BLACK
6
CONTINUOUS
10
203.374
20
-109.242
11
203.493
21
-109.125
0
LINE
8
BLACK
6
CONTINUOUS
10
203.493
20
-109.125
11
203.636
21
-109.037
0
LINE
8
BLACK
6
CONTINUOUS
10
203.636
20
-109.037
11
203.794
21
-108.984
0
LINE
8
BLACK
6
CONTINUOUS
10
203.794
20
-108.984
11
203.96
21
-108.966
0
LINE
8
BLACK
6
CONTINUOUS
10
203.96
20
-108.966
11
204.126
21
-108.986
0
LINE
8
BLACK
6
CONTINUOUS
10
225.319
20
-100.663
11
225.56
21
-100.721
0
LINE
8
BLACK
6
CONTINUOUS
10
225.56
20
-100.721
11
225.79
21
-100.816
0
LINE
8
BLACK
6
CONTINUOUS
10
225.79
20
-100.816
11
226.001
21
-100.945
0
LINE
8
BLACK
6
CONTINUOUS
10
226.001
20
-100.945
11
226.19
21
-101.107
0
LINE
8
BLACK
6
CONTINUOUS
10
226.19
20
-101.107
11
226.351
21
-101.295
0
LINE
8
BLACK
6
CONTINUOUS
10
226.351
20
-101.295
11
226.481
21
-101.507
0
LINE
8
BLACK
6
CONTINUOUS
10
226.481
20
-101.507
11
226.576
21
-101.736
0
LINE
8
BLACK
6
CONTINUOUS
10
226.576
20
-101.736
11
226.634
21
-101.978
0
LINE
8
BLACK
6
CONTINUOUS
10
226.634
20
-101.978
11
226.654
21
-102.225
0
LINE
8
BLACK
6
CONTINUOUS
10
226.654
20
-102.225
11
226.634
21
-102.473
0
LINE
8
BLACK
6
CONTINUOUS
10
226.634
20
-102.473
11
226.576
21
-102.714
0
LINE
8
BLACK
6
CONTINUOUS
10
226.576
20
-102.714
11
226.481
21
-102.943
0
LINE
8
BLACK
6
CONTINUOUS
10
226.481
20
-102.943
11
226.351
21
-103.155
0
LINE
8
BLACK
6
CONTINUOUS
10
226.351
20
-103.155
11
226.19
21
-103.344
0
LINE
8
BLACK
6
CONTINUOUS
10
226.19
20
-103.344
11
226.001
21
-103.505
0
LINE
8
BLACK
6
CONTINUOUS
10
226.001
20
-103.505
11
225.79
21
-103.635
0
LINE
8
BLACK
6
CONTINUOUS
10
225.79
20
-103.635
11
225.56
21
-103.73
0
LINE
8
BLACK
6
CONTINUOUS
10
225.56
20
-103.73
11
225.319
21
-103.788
0
LINE
8
BLACK
6
CONTINUOUS
10
225.319
20
-103.788
11
225.072
21
-103.807
0
LINE
8
BLACK
6
CONTINUOUS
10
225.072
20
-103.807
11
224.824
21
-103.788
0
LINE
8
BLACK
6
CONTINUOUS
10
224.824
20
-103.788
11
224.583
21
-103.73
0
LINE
8
BLACK
6
CONTINUOUS
10
224.583
20
-103.73
11
224.353
21
-103.635
0
LINE
8
BLACK
6
CONTINUOUS
10
224.353
20
-103.635
11
224.142
21
-103.505
0
LINE
8
BLACK
6
CONTINUOUS
10
224.142
20
-103.505
11
223.953
21
-103.344
0
LINE
8
BLACK
6
CONTINUOUS
10
223.953
20
-103.344
11
223.792
21
-103.155
0
LINE
8
BLACK
6
CONTINUOUS
10
223.792
20
-103.155
11
223.662
21
-102.943
0
LINE
8
BLACK
6
CONTINUOUS
10
223.662
20
-102.943
11
223.567
21
-102.714
0
LINE
8
BLACK
6
CONTINUOUS
10
223.567
20
-102.714
11
223.509
21
-102.473
0
LINE
8
BLACK
6
CONTINUOUS
10
223.509
20
-102.473
11
223.49
21
-102.225
0
LINE
8
BLACK
6
CONTINUOUS
10
223.49
20
-102.225
11
223.509
21
-101.978
0
LINE
8
BLACK
6
CONTINUOUS
10
223.509
20
-101.978
11
223.567
21
-101.736
0
LINE
8
BLACK
6
CONTINUOUS
10
223.567
20
-101.736
11
223.662
21
-101.507
0
LINE
8
BLACK
6
CONTINUOUS
10
223.662
20
-101.507
11
223.792
21
-101.295
0
LINE
8
BLACK
6
CONTINUOUS
10
223.792
20
-101.295
11
223.953
21
-101.107
0
LINE
8
BLACK
6
CONTINUOUS
10
223.953
20
-101.107
11
224.142
21
-100.945
0
LINE
8
BLACK
6
CONTINUOUS
10
224.142
20
-100.945
11
224.353
21
-100.816
0
LINE
8
BLACK
6
CONTINUOUS
10
224.353
20
-100.816
11
224.583
21
-100.721
0
LINE
8
BLACK
6
CONTINUOUS
10
224.583
20
-100.721
11
224.824
21
-100.663
0
LINE
8
BLACK
6
CONTINUOUS
10
224.824
20
-100.663
11
225.072
21
-100.643
0
LINE
8
BLACK
6
CONTINUOUS
10
225.072
20
-100.643
11
225.319
21
-100.663
0
LINE
8
BLACK
6
CONTINUOUS
10
234.819
20
-100.663
11
235.06
21
-100.721
0
LINE
8
BLACK
6
CONTINUOUS
10
235.06
20
-100.721
11
235.29
21
-100.816
0
LINE
8
BLACK
6
CONTINUOUS
10
235.29
20
-100.816
11
235.501
21
-100.945
0
LINE
8
BLACK
6
CONTINUOUS
10
235.501
20
-100.945
11
235.69
21
-101.107
0
LINE
8
BLACK
6
CONTINUOUS
10
235.69
20
-101.107
11
235.851
21
-101.295
0
LINE
8
BLACK
6
CONTINUOUS
10
235.851
20
-101.295
11
235.981
21
-101.507
0
LINE
8
BLACK
6
CONTINUOUS
10
235.981
20
-101.507
11
236.076
21
-101.736
0
LINE
8
BLACK
6
CONTINUOUS
10
236.076
20
-101.736
11
236.134
21
-101.978
0
LINE
8
BLACK
6
CONTINUOUS
10
236.134
20
-101.978
11
236.154
21
-102.225
0
LINE
8
BLACK
6
CONTINUOUS
10
236.154
20
-102.225
11
236.134
21
-102.473
0
LINE
8
BLACK
6
CONTINUOUS
10
236.134
20
-102.473
11
236.076
21
-102.714
0
LINE
8
BLACK
6
CONTINUOUS
10
236.076
20
-102.714
11
235.981
21
-102.943
0
LINE
8
BLACK
6
CONTINUOUS
10
235.981
20
-102.943
11
235.851
21
-103.155
0
LINE
8
BLACK
6
CONTINUOUS
10
235.851
20
-103.155
11
235.69
21
-103.344
0
LINE
8
BLACK
6
CONTINUOUS
10
235.69
20
-103.344
11
235.501
21
-103.505
0
LINE
8
BLACK
6
CONTINUOUS
10
235.501
20
-103.505
11
235.29
21
-103.635
0
LINE
8
BLACK
6
CONTINUOUS
10
235.29
20
-103.635
11
235.06
21
-103.73
0
LINE
8
BLACK
6
CONTINUOUS
10
235.06
20
-103.73
11
234.819
21
-103.788
0
LINE
8
BLACK
6
CONTINUOUS
10
234.819
20
-103.788
11
234.572
21
-103.807
0
LINE
8
BLACK
6
CONTINUOUS
10
234.572
20
-103.807
11
234.324
21
-103.788
0
LINE
8
BLACK
6
CONTINUOUS
10
234.324
20
-103.788
11
234.083
21
-103.73
0
LINE
8
BLACK
6
CONTINUOUS
10
234.083
20
-103.73
11
233.853
21
-103.635
0
LINE
8
BLACK
6
CONTINUOUS
10
233.853
20
-103.635
11
233.642
21
-103.505
0
LINE
8
BLACK
6
CONTINUOUS
10
233.642
20
-103.505
11
233.453
21
-103.344
0
LINE
8
BLACK
6
CONTINUOUS
10
233.453
20
-103.344
11
233.292
21
-103.155
0
LINE
8
BLACK
6
CONTINUOUS
10
233.292
20
-103.155
11
233.162
21
-102.943
0
LINE
8
BLACK
6
CONTINUOUS
10
233.162
20
-102.943
11
233.067
21
-102.714
0
LINE
8
BLACK
6
CONTINUOUS
10
233.067
20
-102.714
11
233.009
21
-102.473
0
LINE
8
BLACK
6
CONTINUOUS
10
233.009
20
-102.473
11
232.99
21
-102.225
0
LINE
8
BLACK
6
CONTINUOUS
10
232.99
20
-102.225
11
233.009
21
-101.978
0
LINE
8
BLACK
6
CONTINUOUS
10
233.009
20
-101.978
11
233.067
21
-101.736
0
LINE
8
BLACK
6
CONTINUOUS
10
233.067
20
-101.736
11
233.162
21
-101.507
0
LINE
8
BLACK
6
CONTINUOUS
10
233.162
20
-101.507
11
233.292
21
-101.295
0
LINE
8
BLACK
6
CONTINUOUS
10
233.292
20
-101.295
11
233.453
21
-101.107
0
LINE
8
BLACK
6
CONTINUOUS
10
233.453
20
-101.107
11
233.642
21
-100.945
0
LINE
8
BLACK
6
CONTINUOUS
10
233.642
20
-100.945
11
233.853
21
-100.816
0
LINE
8
BLACK
6
CONTINUOUS
10
233.853
20
-100.816
11
234.083
21
-100.721
0
LINE
8
BLACK
6
CONTINUOUS
10
234.083
20
-100.721
11
234.324
21
-100.663
0
LINE
8
BLACK
6
CONTINUOUS
10
234.324
20
-100.663
11
234.572
21
-100.643
0
LINE
8
BLACK
6
CONTINUOUS
10
234.572
20
-100.643
11
234.819
21
-100.663
0
LINE
8
BLACK
6
CONTINUOUS
10
196.952
20
-100.654
11
197.194
21
-100.712
0
LINE
8
BLACK
6
CONTINUOUS
10
197.194
20
-100.712
11
197.423
21
-100.807
0
LINE
8
BLACK
6
CONTINUOUS
10
197.423
20
-100.807
11
197.635
21
-100.936
0
LINE
8
BLACK
6
CONTINUOUS
10
197.635
20
-100.936
11
197.824
21
-101.097
0
LINE
8
BLACK
6
CONTINUOUS
10
197.824
20
-101.097
11
197.985
21
-101.286
0
LINE
8
BLACK
6
CONTINUOUS
10
197.985
20
-101.286
11
198.114
21
-101.498
0
LINE
8
BLACK
6
CONTINUOUS
10
198.114
20
-101.498
11
198.209
21
-101.727
0
LINE
8
BLACK
6
CONTINUOUS
10
198.209
20
-101.727
11
198.267
21
-101.969
0
LINE
8
BLACK
6
CONTINUOUS
10
198.267
20
-101.969
11
198.287
21
-102.216
0
LINE
8
BLACK
6
CONTINUOUS
10
198.287
20
-102.216
11
198.267
21
-102.464
0
LINE
8
BLACK
6
CONTINUOUS
10
198.267
20
-102.464
11
198.209
21
-102.705
0
LINE
8
BLACK
6
CONTINUOUS
10
198.209
20
-102.705
11
198.114
21
-102.934
0
LINE
8
BLACK
6
CONTINUOUS
10
198.114
20
-102.934
11
197.985
21
-103.146
0
LINE
8
BLACK
6
CONTINUOUS
10
197.985
20
-103.146
11
197.824
21
-103.335
0
LINE
8
BLACK
6
CONTINUOUS
10
197.824
20
-103.335
11
197.635
21
-103.496
0
LINE
8
BLACK
6
CONTINUOUS
10
197.635
20
-103.496
11
197.423
21
-103.626
0
LINE
8
BLACK
6
CONTINUOUS
10
197.423
20
-103.626
11
197.194
21
-103.721
0
LINE
8
BLACK
6
CONTINUOUS
10
197.194
20
-103.721
11
196.952
21
-103.779
0
LINE
8
BLACK
6
CONTINUOUS
10
196.952
20
-103.779
11
196.705
21
-103.798
0
LINE
8
BLACK
6
CONTINUOUS
10
196.705
20
-103.798
11
196.457
21
-103.779
0
LINE
8
BLACK
6
CONTINUOUS
10
196.457
20
-103.779
11
196.216
21
-103.721
0
LINE
8
BLACK
6
CONTINUOUS
10
196.216
20
-103.721
11
195.987
21
-103.626
0
LINE
8
BLACK
6
CONTINUOUS
10
195.987
20
-103.626
11
195.775
21
-103.496
0
LINE
8
BLACK
6
CONTINUOUS
10
195.775
20
-103.496
11
195.586
21
-103.335
0
LINE
8
BLACK
6
CONTINUOUS
10
195.586
20
-103.335
11
195.425
21
-103.146
0
LINE
8
BLACK
6
CONTINUOUS
10
195.425
20
-103.146
11
195.295
21
-102.934
0
LINE
8
BLACK
6
CONTINUOUS
10
195.295
20
-102.934
11
195.2
21
-102.705
0
LINE
8
BLACK
6
CONTINUOUS
10
195.2
20
-102.705
11
195.142
21
-102.464
0
LINE
8
BLACK
6
CONTINUOUS
10
195.142
20
-102.464
11
195.123
21
-102.216
0
LINE
8
BLACK
6
CONTINUOUS
10
195.123
20
-102.216
11
195.142
21
-101.969
0
LINE
8
BLACK
6
CONTINUOUS
10
195.142
20
-101.969
11
195.2
21
-101.727
0
LINE
8
BLACK
6
CONTINUOUS
10
195.2
20
-101.727
11
195.295
21
-101.498
0
LINE
8
BLACK
6
CONTINUOUS
10
195.295
20
-101.498
11
195.425
21
-101.286
0
LINE
8
BLACK
6
CONTINUOUS
10
195.425
20
-101.286
11
195.586
21
-101.097
0
LINE
8
BLACK
6
CONTINUOUS
10
195.586
20
-101.097
11
195.775
21
-100.936
0
LINE
8
BLACK
6
CONTINUOUS
10
195.775
20
-100.936
11
195.987
21
-100.807
0
LINE
8
BLACK
6
CONTINUOUS
10
195.987
20
-100.807
11
196.216
21
-100.712
0
LINE
8
BLACK
6
CONTINUOUS
10
196.216
20
-100.712
11
196.457
21
-100.654
0
LINE
8
BLACK
6
CONTINUOUS
10
196.457
20
-100.654
11
196.705
21
-100.634
0
LINE
8
BLACK
6
CONTINUOUS
10
196.705
20
-100.634
11
196.952
21
-100.654
0
LINE
8
BLACK
6
CONTINUOUS
10
206.452
20
-100.654
11
206.694
21
-100.712
0
LINE
8
BLACK
6
CONTINUOUS
10
206.694
20
-100.712
11
206.923
21
-100.807
0
LINE
8
BLACK
6
CONTINUOUS
10
206.923
20
-100.807
11
207.135
21
-100.936
0
LINE
8
BLACK
6
CONTINUOUS
10
207.135
20
-100.936
11
207.324
21
-101.097
0
LINE
8
BLACK
6
CONTINUOUS
10
207.324
20
-101.097
11
207.485
21
-101.286
0
LINE
8
BLACK
6
CONTINUOUS
10
207.485
20
-101.286
11
207.614
21
-101.498
0
LINE
8
BLACK
6
CONTINUOUS
10
207.614
20
-101.498
11
207.709
21
-101.727
0
LINE
8
BLACK
6
CONTINUOUS
10
207.709
20
-101.727
11
207.767
21
-101.969
0
LINE
8
BLACK
6
CONTINUOUS
10
207.767
20
-101.969
11
207.787
21
-102.216
0
LINE
8
BLACK
6
CONTINUOUS
10
207.787
20
-102.216
11
207.767
21
-102.464
0
LINE
8
BLACK
6
CONTINUOUS
10
207.767
20
-102.464
11
207.709
21
-102.705
0
LINE
8
BLACK
6
CONTINUOUS
10
207.709
20
-102.705
11
207.614
21
-102.934
0
LINE
8
BLACK
6
CONTINUOUS
10
207.614
20
-102.934
11
207.485
21
-103.146
0
LINE
8
BLACK
6
CONTINUOUS
10
207.485
20
-103.146
11
207.324
21
-103.335
0
LINE
8
BLACK
6
CONTINUOUS
10
207.324
20
-103.335
11
207.135
21
-103.496
0
LINE
8
BLACK
6
CONTINUOUS
10
207.135
20
-103.496
11
206.923
21
-103.626
0
LINE
8
BLACK
6
CONTINUOUS
10
206.923
20
-103.626
11
206.694
21
-103.721
0
LINE
8
BLACK
6
CONTINUOUS
10
206.694
20
-103.721
11
206.452
21
-103.779
0
LINE
8
BLACK
6
CONTINUOUS
10
206.452
20
-103.779
11
206.205
21
-103.798
0
LINE
8
BLACK
6
CONTINUOUS
10
206.205
20
-103.798
11
205.957
21
-103.779
0
LINE
8
BLACK
6
CONTINUOUS
10
205.957
20
-103.779
11
205.716
21
-103.721
0
LINE
8
BLACK
6
CONTINUOUS
10
205.716
20
-103.721
11
205.487
21
-103.626
0
LINE
8
BLACK
6
CONTINUOUS
10
205.487
20
-103.626
11
205.275
21
-103.496
0
LINE
8
BLACK
6
CONTINUOUS
10
205.275
20
-103.496
11
205.086
21
-103.335
0
LINE
8
BLACK
6
CONTINUOUS
10
205.086
20
-103.335
11
204.925
21
-103.146
0
LINE
8
BLACK
6
CONTINUOUS
10
204.925
20
-103.146
11
204.795
21
-102.934
0
LINE
8
BLACK
6
CONTINUOUS
10
204.795
20
-102.934
11
204.7
21
-102.705
0
LINE
8
BLACK
6
CONTINUOUS
10
204.7
20
-102.705
11
204.642
21
-102.464
0
LINE
8
BLACK
6
CONTINUOUS
10
204.642
20
-102.464
11
204.623
21
-102.216
0
LINE
8
BLACK
6
CONTINUOUS
10
204.623
20
-102.216
11
204.642
21
-101.969
0
LINE
8
BLACK
6
CONTINUOUS
10
204.642
20
-101.969
11
204.7
21
-101.727
0
LINE
8
BLACK
6
CONTINUOUS
10
204.7
20
-101.727
11
204.795
21
-101.498
0
LINE
8
BLACK
6
CONTINUOUS
10
204.795
20
-101.498
11
204.925
21
-101.286
0
LINE
8
BLACK
6
CONTINUOUS
10
204.925
20
-101.286
11
205.086
21
-101.097
0
LINE
8
BLACK
6
CONTINUOUS
10
205.086
20
-101.097
11
205.275
21
-100.936
0
LINE
8
BLACK
6
CONTINUOUS
10
205.275
20
-100.936
11
205.487
21
-100.807
0
LINE
8
BLACK
6
CONTINUOUS
10
205.487
20
-100.807
11
205.716
21
-100.712
0
LINE
8
BLACK
6
CONTINUOUS
10
205.716
20
-100.712
11
205.957
21
-100.654
0
LINE
8
BLACK
6
CONTINUOUS
10
205.957
20
-100.654
11
206.205
21
-100.634
0
LINE
8
BLACK
6
CONTINUOUS
10
206.205
20
-100.634
11
206.452
21
-100.654
0
LINE
8
BLACK
6
CONTINUOUS
10
238.261
20
-96.118
11
238.423
21
-96.1903
0
LINE
8
BLACK
6
CONTINUOUS
10
238.423
20
-96.1903
11
238.567
21
-96.2947
0
LINE
8
BLACK
6
CONTINUOUS
10
238.567
20
-96.2947
11
238.686
21
-96.4268
0
LINE
8
BLACK
6
CONTINUOUS
10
238.686
20
-96.4268
11
238.775
21
-96.5807
0
LINE
8
BLACK
6
CONTINUOUS
10
238.775
20
-96.5807
11
238.829
21
-96.7497
0
LINE
8
BLACK
6
CONTINUOUS
10
238.829
20
-96.7497
11
238.848
21
-96.9264
0
LINE
8
BLACK
6
CONTINUOUS
10
238.848
20
-96.9264
11
238.829
21
-97.1031
0
LINE
8
BLACK
6
CONTINUOUS
10
238.829
20
-97.1031
11
238.775
21
-97.2721
0
LINE
8
BLACK
6
CONTINUOUS
10
238.775
20
-97.2721
11
238.686
21
-97.426
0
LINE
8
BLACK
6
CONTINUOUS
10
238.686
20
-97.426
11
238.567
21
-97.5581
0
LINE
8
BLACK
6
CONTINUOUS
10
238.567
20
-97.5581
11
238.423
21
-97.6625
0
LINE
8
BLACK
6
CONTINUOUS
10
238.423
20
-97.6625
11
238.261
21
-97.7348
0
LINE
8
BLACK
6
CONTINUOUS
10
238.261
20
-97.7348
11
238.087
21
-97.7717
0
LINE
8
BLACK
6
CONTINUOUS
10
238.087
20
-97.7717
11
237.909
21
-97.7717
0
LINE
8
BLACK
6
CONTINUOUS
10
237.909
20
-97.7717
11
237.735
21
-97.7348
0
LINE
8
BLACK
6
CONTINUOUS
10
237.735
20
-97.7348
11
237.573
21
-97.6625
0
LINE
8
BLACK
6
CONTINUOUS
10
237.573
20
-97.6625
11
237.429
21
-97.5581
0
LINE
8
BLACK
6
CONTINUOUS
10
237.429
20
-97.5581
11
237.31
21
-97.426
0
LINE
8
BLACK
6
CONTINUOUS
10
237.31
20
-97.426
11
237.221
21
-97.2721
0
LINE
8
BLACK
6
CONTINUOUS
10
237.221
20
-97.2721
11
237.167
21
-97.1031
0
LINE
8
BLACK
6
CONTINUOUS
10
237.167
20
-97.1031
11
237.148
21
-96.9264
0
LINE
8
BLACK
6
CONTINUOUS
10
237.148
20
-96.9264
11
237.167
21
-96.7497
0
LINE
8
BLACK
6
CONTINUOUS
10
237.167
20
-96.7497
11
237.221
21
-96.5807
0
LINE
8
BLACK
6
CONTINUOUS
10
237.221
20
-96.5807
11
237.31
21
-96.4268
0
LINE
8
BLACK
6
CONTINUOUS
10
237.31
20
-96.4268
11
237.429
21
-96.2947
0
LINE
8
BLACK
6
CONTINUOUS
10
237.429
20
-96.2947
11
237.573
21
-96.1903
0
LINE
8
BLACK
6
CONTINUOUS
10
237.573
20
-96.1903
11
237.735
21
-96.118
0
LINE
8
BLACK
6
CONTINUOUS
10
237.735
20
-96.118
11
237.909
21
-96.0811
0
LINE
8
BLACK
6
CONTINUOUS
10
237.909
20
-96.0811
11
238.087
21
-96.0811
0
LINE
8
BLACK
6
CONTINUOUS
10
238.087
20
-96.0811
11
238.261
21
-96.118
0
LINE
8
BLACK
6
CONTINUOUS
10
238.261
20
-93.578
11
238.423
21
-93.6503
0
LINE
8
BLACK
6
CONTINUOUS
10
238.423
20
-93.6503
11
238.567
21
-93.7547
0
LINE
8
BLACK
6
CONTINUOUS
10
238.567
20
-93.7547
11
238.686
21
-93.8868
0
LINE
8
BLACK
6
CONTINUOUS
10
238.686
20
-93.8868
11
238.775
21
-94.0407
0
LINE
8
BLACK
6
CONTINUOUS
10
238.775
20
-94.0407
11
238.829
21
-94.2097
0
LINE
8
BLACK
6
CONTINUOUS
10
238.829
20
-94.2097
11
238.848
21
-94.3864
0
LINE
8
BLACK
6
CONTINUOUS
10
238.848
20
-94.3864
11
238.829
21
-94.5631
0
LINE
8
BLACK
6
CONTINUOUS
10
238.829
20
-94.5631
11
238.775
21
-94.7321
0
LINE
8
BLACK
6
CONTINUOUS
10
238.775
20
-94.7321
11
238.686
21
-94.886
0
LINE
8
BLACK
6
CONTINUOUS
10
238.686
20
-94.886
11
238.567
21
-95.0181
0
LINE
8
BLACK
6
CONTINUOUS
10
238.567
20
-95.0181
11
238.423
21
-95.1225
0
LINE
8
BLACK
6
CONTINUOUS
10
238.423
20
-95.1225
11
238.261
21
-95.1948
0
LINE
8
BLACK
6
CONTINUOUS
10
238.261
20
-95.1948
11
238.087
21
-95.2317
0
LINE
8
BLACK
6
CONTINUOUS
10
238.087
20
-95.2317
11
237.909
21
-95.2317
0
LINE
8
BLACK
6
CONTINUOUS
10
237.909
20
-95.2317
11
237.735
21
-95.1948
0
LINE
8
BLACK
6
CONTINUOUS
10
237.735
20
-95.1948
11
237.573
21
-95.1225
0
LINE
8
BLACK
6
CONTINUOUS
10
237.573
20
-95.1225
11
237.429
21
-95.0181
0
LINE
8
BLACK
6
CONTINUOUS
10
237.429
20
-95.0181
11
237.31
21
-94.886
0
LINE
8
BLACK
6
CONTINUOUS
10
237.31
20
-94.886
11
237.221
21
-94.7321
0
LINE
8
BLACK
6
CONTINUOUS
10
237.221
20
-94.7321
11
237.167
21
-94.5631
0
LINE
8
BLACK
6
CONTINUOUS
10
237.167
20
-94.5631
11
237.148
21
-94.3864
0
LINE
8
BLACK
6
CONTINUOUS
10
237.148
20
-94.3864
11
237.167
21
-94.2097
0
LINE
8
BLACK
6
CONTINUOUS
10
237.167
20
-94.2097
11
237.221
21
-94.0407
0
LINE
8
BLACK
6
CONTINUOUS
10
237.221
20
-94.0407
11
237.31
21
-93.8868
0
LINE
8
BLACK
6
CONTINUOUS
10
237.31
20
-93.8868
11
237.429
21
-93.7547
0
LINE
8
BLACK
6
CONTINUOUS
10
237.429
20
-93.7547
11
237.573
21
-93.6503
0
LINE
8
BLACK
6
CONTINUOUS
10
237.573
20
-93.6503
11
237.735
21
-93.578
0
LINE
8
BLACK
6
CONTINUOUS
10
237.735
20
-93.578
11
237.909
21
-93.5411
0
LINE
8
BLACK
6
CONTINUOUS
10
237.909
20
-93.5411
11
238.087
21
-93.5411
0
LINE
8
BLACK
6
CONTINUOUS
10
238.087
20
-93.5411
11
238.261
21
-93.578
0
LINE
8
BLACK
6
CONTINUOUS
10
238.261
20
-91.038
11
238.423
21
-91.1103
0
LINE
8
BLACK
6
CONTINUOUS
10
238.423
20
-91.1103
11
238.567
21
-91.2147
0
LINE
8
BLACK
6
CONTINUOUS
10
238.567
20
-91.2147
11
238.686
21
-91.3468
0
LINE
8
BLACK
6
CONTINUOUS
10
238.686
20
-91.3468
11
238.775
21
-91.5007
0
LINE
8
BLACK
6
CONTINUOUS
10
238.775
20
-91.5007
11
238.829
21
-91.6697
0
LINE
8
BLACK
6
CONTINUOUS
10
238.829
20
-91.6697
11
238.848
21
-91.8464
0
LINE
8
BLACK
6
CONTINUOUS
10
238.848
20
-91.8464
11
238.829
21
-92.0231
0
LINE
8
BLACK
6
CONTINUOUS
10
238.829
20
-92.0231
11
238.775
21
-92.1921
0
LINE
8
BLACK
6
CONTINUOUS
10
238.775
20
-92.1921
11
238.686
21
-92.346
0
LINE
8
BLACK
6
CONTINUOUS
10
238.686
20
-92.346
11
238.567
21
-92.4781
0
LINE
8
BLACK
6
CONTINUOUS
10
238.567
20
-92.4781
11
238.423
21
-92.5825
0
LINE
8
BLACK
6
CONTINUOUS
10
238.423
20
-92.5825
11
238.261
21
-92.6548
0
LINE
8
BLACK
6
CONTINUOUS
10
238.261
20
-92.6548
11
238.087
21
-92.6917
0
LINE
8
BLACK
6
CONTINUOUS
10
238.087
20
-92.6917
11
237.909
21
-92.6917
0
LINE
8
BLACK
6
CONTINUOUS
10
237.909
20
-92.6917
11
237.735
21
-92.6548
0
LINE
8
BLACK
6
CONTINUOUS
10
237.735
20
-92.6548
11
237.573
21
-92.5825
0
LINE
8
BLACK
6
CONTINUOUS
10
237.573
20
-92.5825
11
237.429
21
-92.4781
0
LINE
8
BLACK
6
CONTINUOUS
10
237.429
20
-92.4781
11
237.31
21
-92.346
0
LINE
8
BLACK
6
CONTINUOUS
10
237.31
20
-92.346
11
237.221
21
-92.1921
0
LINE
8
BLACK
6
CONTINUOUS
10
237.221
20
-92.1921
11
237.167
21
-92.0231
0
LINE
8
BLACK
6
CONTINUOUS
10
237.167
20
-92.0231
11
237.148
21
-91.8464
0
LINE
8
BLACK
6
CONTINUOUS
10
237.148
20
-91.8464
11
237.167
21
-91.6697
0
LINE
8
BLACK
6
CONTINUOUS
10
237.167
20
-91.6697
11
237.221
21
-91.5007
0
LINE
8
BLACK
6
CONTINUOUS
10
237.221
20
-91.5007
11
237.31
21
-91.3468
0
LINE
8
BLACK
6
CONTINUOUS
10
237.31
20
-91.3468
11
237.429
21
-91.2147
0
LINE
8
BLACK
6
CONTINUOUS
10
237.429
20
-91.2147
11
237.573
21
-91.1103
0
LINE
8
BLACK
6
CONTINUOUS
10
237.573
20
-91.1103
11
237.735
21
-91.038
0
LINE
8
BLACK
6
CONTINUOUS
10
237.735
20
-91.038
11
237.909
21
-91.0011
0
LINE
8
BLACK
6
CONTINUOUS
10
237.909
20
-91.0011
11
238.087
21
-91.0011
0
LINE
8
BLACK
6
CONTINUOUS
10
238.087
20
-91.0011
11
238.261
21
-91.038
0
LINE
8
BLACK
6
CONTINUOUS
10
194.037
20
-88.2041
11
194.235
21
-88.2433
0
LINE
8
BLACK
6
CONTINUOUS
10
194.235
20
-88.2433
11
194.422
21
-88.3179
0
LINE
8
BLACK
6
CONTINUOUS
10
194.422
20
-88.3179
11
194.592
21
-88.4253
0
LINE
8
BLACK
6
CONTINUOUS
10
194.592
20
-88.4253
11
194.74
21
-88.562
0
LINE
8
BLACK
6
CONTINUOUS
10
194.74
20
-88.562
11
194.86
21
-88.7233
0
LINE
8
BLACK
6
CONTINUOUS
10
194.86
20
-88.7233
11
194.949
21
-88.9038
0
LINE
8
BLACK
6
CONTINUOUS
10
194.949
20
-88.9038
11
195.004
21
-89.0976
0
LINE
8
BLACK
6
CONTINUOUS
10
195.004
20
-89.0976
11
195.022
21
-89.298
0
LINE
8
BLACK
6
CONTINUOUS
10
195.022
20
-89.298
11
195.021
21
-89.3556
0
LINE
8
BLACK
6
CONTINUOUS
10
195.021
20
-89.3556
11
194.992
21
-89.5548
0
LINE
8
BLACK
6
CONTINUOUS
10
194.992
20
-89.5548
11
194.927
21
-89.7454
0
LINE
8
BLACK
6
CONTINUOUS
10
194.927
20
-89.7454
11
194.829
21
-89.9211
0
LINE
8
BLACK
6
CONTINUOUS
10
194.829
20
-89.9211
11
194.7
21
-90.0758
0
LINE
8
BLACK
6
CONTINUOUS
10
194.7
20
-90.0758
11
194.545
21
-90.2046
0
LINE
8
BLACK
6
CONTINUOUS
10
194.545
20
-90.2046
11
194.37
21
-90.3029
0
LINE
8
BLACK
6
CONTINUOUS
10
194.37
20
-90.3029
11
194.179
21
-90.3676
0
LINE
8
BLACK
6
CONTINUOUS
10
194.179
20
-90.3676
11
193.98
21
-90.3965
0
LINE
8
BLACK
6
CONTINUOUS
10
193.98
20
-90.3965
11
193.779
21
-90.3886
0
LINE
8
BLACK
6
CONTINUOUS
10
193.779
20
-90.3886
11
193.582
21
-90.3442
0
LINE
8
BLACK
6
CONTINUOUS
10
193.582
20
-90.3442
11
193.397
21
-90.2647
0
LINE
8
BLACK
6
CONTINUOUS
10
193.397
20
-90.2647
11
193.23
21
-90.1529
0
LINE
8
BLACK
6
CONTINUOUS
10
193.23
20
-90.1529
11
193.086
21
-90.0124
0
LINE
8
BLACK
6
CONTINUOUS
10
193.086
20
-90.0124
11
192.97
21
-89.848
0
LINE
8
BLACK
6
CONTINUOUS
10
192.97
20
-89.848
11
192.885
21
-89.6652
0
LINE
8
BLACK
6
CONTINUOUS
10
192.885
20
-89.6652
11
192.836
21
-89.4701
0
LINE
8
BLACK
6
CONTINUOUS
10
192.836
20
-89.4701
11
192.823
21
-89.2692
0
LINE
8
BLACK
6
CONTINUOUS
10
192.823
20
-89.2692
11
192.846
21
-89.0693
0
LINE
8
BLACK
6
CONTINUOUS
10
192.846
20
-89.0693
11
192.906
21
-88.8771
0
LINE
8
BLACK
6
CONTINUOUS
10
192.906
20
-88.8771
11
193
21
-88.6989
0
LINE
8
BLACK
6
CONTINUOUS
10
193
20
-88.6989
11
193.124
21
-88.5408
0
LINE
8
BLACK
6
CONTINUOUS
10
193.124
20
-88.5408
11
193.276
21
-88.4081
0
LINE
8
BLACK
6
CONTINUOUS
10
193.276
20
-88.4081
11
193.449
21
-88.3052
0
LINE
8
BLACK
6
CONTINUOUS
10
193.449
20
-88.3052
11
193.638
21
-88.2355
0
LINE
8
BLACK
6
CONTINUOUS
10
193.638
20
-88.2355
11
193.836
21
-88.2014
0
LINE
8
BLACK
6
CONTINUOUS
10
193.836
20
-88.2014
11
194.037
21
-88.2041
0
LINE
8
BLACK
6
CONTINUOUS
10
238.261
20
-88.498
11
238.423
21
-88.5703
0
LINE
8
BLACK
6
CONTINUOUS
10
238.423
20
-88.5703
11
238.567
21
-88.6747
0
LINE
8
BLACK
6
CONTINUOUS
10
238.567
20
-88.6747
11
238.686
21
-88.8068
0
LINE
8
BLACK
6
CONTINUOUS
10
238.686
20
-88.8068
11
238.775
21
-88.9607
0
LINE
8
BLACK
6
CONTINUOUS
10
238.775
20
-88.9607
11
238.829
21
-89.1297
0
LINE
8
BLACK
6
CONTINUOUS
10
238.829
20
-89.1297
11
238.848
21
-89.3064
0
LINE
8
BLACK
6
CONTINUOUS
10
238.848
20
-89.3064
11
238.829
21
-89.4831
0
LINE
8
BLACK
6
CONTINUOUS
10
238.829
20
-89.4831
11
238.775
21
-89.6521
0
LINE
8
BLACK
6
CONTINUOUS
10
238.775
20
-89.6521
11
238.686
21
-89.806
0
LINE
8
BLACK
6
CONTINUOUS
10
238.686
20
-89.806
11
238.567
21
-89.9381
0
LINE
8
BLACK
6
CONTINUOUS
10
238.567
20
-89.9381
11
238.423
21
-90.0425
0
LINE
8
BLACK
6
CONTINUOUS
10
238.423
20
-90.0425
11
238.261
21
-90.1148
0
LINE
8
BLACK
6
CONTINUOUS
10
238.261
20
-90.1148
11
238.087
21
-90.1517
0
LINE
8
BLACK
6
CONTINUOUS
10
238.087
20
-90.1517
11
237.909
21
-90.1517
0
LINE
8
BLACK
6
CONTINUOUS
10
237.909
20
-90.1517
11
237.735
21
-90.1148
0
LINE
8
BLACK
6
CONTINUOUS
10
237.735
20
-90.1148
11
237.573
21
-90.0425
0
LINE
8
BLACK
6
CONTINUOUS
10
237.573
20
-90.0425
11
237.429
21
-89.9381
0
LINE
8
BLACK
6
CONTINUOUS
10
237.429
20
-89.9381
11
237.31
21
-89.806
0
LINE
8
BLACK
6
CONTINUOUS
10
237.31
20
-89.806
11
237.221
21
-89.6521
0
LINE
8
BLACK
6
CONTINUOUS
10
237.221
20
-89.6521
11
237.167
21
-89.4831
0
LINE
8
BLACK
6
CONTINUOUS
10
237.167
20
-89.4831
11
237.148
21
-89.3064
0
LINE
8
BLACK
6
CONTINUOUS
10
237.148
20
-89.3064
11
237.167
21
-89.1297
0
LINE
8
BLACK
6
CONTINUOUS
10
237.167
20
-89.1297
11
237.221
21
-88.9607
0
LINE
8
BLACK
6
CONTINUOUS
10
237.221
20
-88.9607
11
237.31
21
-88.8068
0
LINE
8
BLACK
6
CONTINUOUS
10
237.31
20
-88.8068
11
237.429
21
-88.6747
0
LINE
8
BLACK
6
CONTINUOUS
10
237.429
20
-88.6747
11
237.573
21
-88.5703
0
LINE
8
BLACK
6
CONTINUOUS
10
237.573
20
-88.5703
11
237.735
21
-88.498
0
LINE
8
BLACK
6
CONTINUOUS
10
237.735
20
-88.498
11
237.909
21
-88.4611
0
LINE
8
BLACK
6
CONTINUOUS
10
237.909
20
-88.4611
11
238.087
21
-88.4611
0
LINE
8
BLACK
6
CONTINUOUS
10
238.087
20
-88.4611
11
238.261
21
-88.498
0
LINE
8
BLACK
6
CONTINUOUS
10
238.261
20
-85.958
11
238.423
21
-86.0303
0
LINE
8
BLACK
6
CONTINUOUS
10
238.423
20
-86.0303
11
238.567
21
-86.1347
0
LINE
8
BLACK
6
CONTINUOUS
10
238.567
20
-86.1347
11
238.686
21
-86.2668
0
LINE
8
BLACK
6
CONTINUOUS
10
238.686
20
-86.2668
11
238.775
21
-86.4207
0
LINE
8
BLACK
6
CONTINUOUS
10
238.775
20
-86.4207
11
238.829
21
-86.5897
0
LINE
8
BLACK
6
CONTINUOUS
10
238.829
20
-86.5897
11
238.848
21
-86.7664
0
LINE
8
BLACK
6
CONTINUOUS
10
238.848
20
-86.7664
11
238.829
21
-86.9431
0
LINE
8
BLACK
6
CONTINUOUS
10
238.829
20
-86.9431
11
238.775
21
-87.1121
0
LINE
8
BLACK
6
CONTINUOUS
10
238.775
20
-87.1121
11
238.686
21
-87.266
0
LINE
8
BLACK
6
CONTINUOUS
10
238.686
20
-87.266
11
238.567
21
-87.3981
0
LINE
8
BLACK
6
CONTINUOUS
10
238.567
20
-87.3981
11
238.423
21
-87.5025
0
LINE
8
BLACK
6
CONTINUOUS
10
238.423
20
-87.5025
11
238.261
21
-87.5748
0
LINE
8
BLACK
6
CONTINUOUS
10
238.261
20
-87.5748
11
238.087
21
-87.6117
0
LINE
8
BLACK
6
CONTINUOUS
10
238.087
20
-87.6117
11
237.909
21
-87.6117
0
LINE
8
BLACK
6
CONTINUOUS
10
237.909
20
-87.6117
11
237.735
21
-87.5748
0
LINE
8
BLACK
6
CONTINUOUS
10
237.735
20
-87.5748
11
237.573
21
-87.5025
0
LINE
8
BLACK
6
CONTINUOUS
10
237.573
20
-87.5025
11
237.429
21
-87.3981
0
LINE
8
BLACK
6
CONTINUOUS
10
237.429
20
-87.3981
11
237.31
21
-87.266
0
LINE
8
BLACK
6
CONTINUOUS
10
237.31
20
-87.266
11
237.221
21
-87.1121
0
LINE
8
BLACK
6
CONTINUOUS
10
237.221
20
-87.1121
11
237.167
21
-86.9431
0
LINE
8
BLACK
6
CONTINUOUS
10
237.167
20
-86.9431
11
237.148
21
-86.7664
0
LINE
8
BLACK
6
CONTINUOUS
10
237.148
20
-86.7664
11
237.167
21
-86.5897
0
LINE
8
BLACK
6
CONTINUOUS
10
237.167
20
-86.5897
11
237.221
21
-86.4207
0
LINE
8
BLACK
6
CONTINUOUS
10
237.221
20
-86.4207
11
237.31
21
-86.2668
0
LINE
8
BLACK
6
CONTINUOUS
10
237.31
20
-86.2668
11
237.429
21
-86.1347
0
LINE
8
BLACK
6
CONTINUOUS
10
237.429
20
-86.1347
11
237.573
21
-86.0303
0
LINE
8
BLACK
6
CONTINUOUS
10
237.573
20
-86.0303
11
237.735
21
-85.958
0
LINE
8
BLACK
6
CONTINUOUS
10
237.735
20
-85.958
11
237.909
21
-85.9211
0
LINE
8
BLACK
6
CONTINUOUS
10
237.909
20
-85.9211
11
238.087
21
-85.9211
0
LINE
8
BLACK
6
CONTINUOUS
10
238.087
20
-85.9211
11
238.261
21
-85.958
0
LINE
8
BLACK
6
CONTINUOUS
10
227.488
20
-84.9928
11
227.645
21
-85.0489
0
LINE
8
BLACK
6
CONTINUOUS
10
227.645
20
-85.0489
11
227.786
21
-85.1385
0
LINE
8
BLACK
6
CONTINUOUS
10
227.786
20
-85.1385
11
227.904
21
-85.2571
0
LINE
8
BLACK
6
CONTINUOUS
10
227.904
20
-85.2571
11
227.993
21
-85.3989
0
LINE
8
BLACK
6
CONTINUOUS
10
227.993
20
-85.3989
11
228.048
21
-85.5568
0
LINE
8
BLACK
6
CONTINUOUS
10
228.048
20
-85.5568
11
228.066
21
-85.723
0
LINE
8
BLACK
6
CONTINUOUS
10
228.066
20
-85.723
11
228.066
21
-85.7439
0
LINE
8
BLACK
6
CONTINUOUS
10
228.066
20
-85.7439
11
228.043
21
-85.9095
0
LINE
8
BLACK
6
CONTINUOUS
10
228.043
20
-85.9095
11
227.983
21
-86.0658
0
LINE
8
BLACK
6
CONTINUOUS
10
227.983
20
-86.0658
11
227.891
21
-86.2051
0
LINE
8
BLACK
6
CONTINUOUS
10
227.891
20
-86.2051
11
227.77
21
-86.3204
0
LINE
8
BLACK
6
CONTINUOUS
10
227.77
20
-86.3204
11
227.626
21
-86.406
0
LINE
8
BLACK
6
CONTINUOUS
10
227.626
20
-86.406
11
227.467
21
-86.4577
0
LINE
8
BLACK
6
CONTINUOUS
10
227.467
20
-86.4577
11
227.301
21
-86.4728
0
LINE
8
BLACK
6
CONTINUOUS
10
227.301
20
-86.4728
11
227.135
21
-86.4507
0
LINE
8
BLACK
6
CONTINUOUS
10
227.135
20
-86.4507
11
226.978
21
-86.3924
0
LINE
8
BLACK
6
CONTINUOUS
10
226.978
20
-86.3924
11
226.838
21
-86.3009
0
LINE
8
BLACK
6
CONTINUOUS
10
226.838
20
-86.3009
11
226.722
21
-86.1806
0
LINE
8
BLACK
6
CONTINUOUS
10
226.722
20
-86.1806
11
226.636
21
-86.0376
0
LINE
8
BLACK
6
CONTINUOUS
10
226.636
20
-86.0376
11
226.583
21
-85.8789
0
LINE
8
BLACK
6
CONTINUOUS
10
226.583
20
-85.8789
11
226.566
21
-85.7125
0
LINE
8
BLACK
6
CONTINUOUS
10
226.566
20
-85.7125
11
226.587
21
-85.5466
0
LINE
8
BLACK
6
CONTINUOUS
10
226.587
20
-85.5466
11
226.645
21
-85.3895
0
LINE
8
BLACK
6
CONTINUOUS
10
226.645
20
-85.3895
11
226.735
21
-85.249
0
LINE
8
BLACK
6
CONTINUOUS
10
226.735
20
-85.249
11
226.855
21
-85.132
0
LINE
8
BLACK
6
CONTINUOUS
10
226.855
20
-85.132
11
226.997
21
-85.0444
0
LINE
8
BLACK
6
CONTINUOUS
10
226.997
20
-85.0444
11
227.155
21
-84.9905
0
LINE
8
BLACK
6
CONTINUOUS
10
227.155
20
-84.9905
11
227.322
21
-84.973
0
LINE
8
BLACK
6
CONTINUOUS
10
227.322
20
-84.973
11
227.488
21
-84.9928
0
LINE
8
BLACK
6
CONTINUOUS
10
229.988
20
-84.9928
11
230.145
21
-85.0489
0
LINE
8
BLACK
6
CONTINUOUS
10
230.145
20
-85.0489
11
230.286
21
-85.1385
0
LINE
8
BLACK
6
CONTINUOUS
10
230.286
20
-85.1385
11
230.404
21
-85.2571
0
LINE
8
BLACK
6
CONTINUOUS
10
230.404
20
-85.2571
11
230.493
21
-85.3989
0
LINE
8
BLACK
6
CONTINUOUS
10
230.493
20
-85.3989
11
230.548
21
-85.5568
0
LINE
8
BLACK
6
CONTINUOUS
10
230.548
20
-85.5568
11
230.566
21
-85.723
0
LINE
8
BLACK
6
CONTINUOUS
10
230.566
20
-85.723
11
230.566
21
-85.7439
0
LINE
8
BLACK
6
CONTINUOUS
10
230.566
20
-85.7439
11
230.543
21
-85.9095
0
LINE
8
BLACK
6
CONTINUOUS
10
230.543
20
-85.9095
11
230.483
21
-86.0658
0
LINE
8
BLACK
6
CONTINUOUS
10
230.483
20
-86.0658
11
230.391
21
-86.2051
0
LINE
8
BLACK
6
CONTINUOUS
10
230.391
20
-86.2051
11
230.27
21
-86.3204
0
LINE
8
BLACK
6
CONTINUOUS
10
230.27
20
-86.3204
11
230.126
21
-86.406
0
LINE
8
BLACK
6
CONTINUOUS
10
230.126
20
-86.406
11
229.967
21
-86.4577
0
LINE
8
BLACK
6
CONTINUOUS
10
229.967
20
-86.4577
11
229.801
21
-86.4728
0
LINE
8
BLACK
6
CONTINUOUS
10
229.801
20
-86.4728
11
229.635
21
-86.4507
0
LINE
8
BLACK
6
CONTINUOUS
10
229.635
20
-86.4507
11
229.478
21
-86.3924
0
LINE
8
BLACK
6
CONTINUOUS
10
229.478
20
-86.3924
11
229.338
21
-86.3009
0
LINE
8
BLACK
6
CONTINUOUS
10
229.338
20
-86.3009
11
229.222
21
-86.1806
0
LINE
8
BLACK
6
CONTINUOUS
10
229.222
20
-86.1806
11
229.136
21
-86.0376
0
LINE
8
BLACK
6
CONTINUOUS
10
229.136
20
-86.0376
11
229.083
21
-85.8789
0
LINE
8
BLACK
6
CONTINUOUS
10
229.083
20
-85.8789
11
229.066
21
-85.7125
0
LINE
8
BLACK
6
CONTINUOUS
10
229.066
20
-85.7125
11
229.087
21
-85.5466
0
LINE
8
BLACK
6
CONTINUOUS
10
229.087
20
-85.5466
11
229.145
21
-85.3895
0
LINE
8
BLACK
6
CONTINUOUS
10
229.145
20
-85.3895
11
229.235
21
-85.249
0
LINE
8
BLACK
6
CONTINUOUS
10
229.235
20
-85.249
11
229.355
21
-85.132
0
LINE
8
BLACK
6
CONTINUOUS
10
229.355
20
-85.132
11
229.497
21
-85.0444
0
LINE
8
BLACK
6
CONTINUOUS
10
229.497
20
-85.0444
11
229.655
21
-84.9905
0
LINE
8
BLACK
6
CONTINUOUS
10
229.655
20
-84.9905
11
229.822
21
-84.973
0
LINE
8
BLACK
6
CONTINUOUS
10
229.822
20
-84.973
11
229.988
21
-84.9928
0
LINE
8
BLACK
6
CONTINUOUS
10
232.488
20
-84.9928
11
232.645
21
-85.0489
0
LINE
8
BLACK
6
CONTINUOUS
10
232.645
20
-85.0489
11
232.786
21
-85.1385
0
LINE
8
BLACK
6
CONTINUOUS
10
232.786
20
-85.1385
11
232.904
21
-85.2571
0
LINE
8
BLACK
6
CONTINUOUS
10
232.904
20
-85.2571
11
232.993
21
-85.3989
0
LINE
8
BLACK
6
CONTINUOUS
10
232.993
20
-85.3989
11
233.048
21
-85.5568
0
LINE
8
BLACK
6
CONTINUOUS
10
233.048
20
-85.5568
11
233.066
21
-85.723
0
LINE
8
BLACK
6
CONTINUOUS
10
233.066
20
-85.723
11
233.066
21
-85.7439
0
LINE
8
BLACK
6
CONTINUOUS
10
233.066
20
-85.7439
11
233.043
21
-85.9095
0
LINE
8
BLACK
6
CONTINUOUS
10
233.043
20
-85.9095
11
232.983
21
-86.0658
0
LINE
8
BLACK
6
CONTINUOUS
10
232.983
20
-86.0658
11
232.891
21
-86.2051
0
LINE
8
BLACK
6
CONTINUOUS
10
232.891
20
-86.2051
11
232.77
21
-86.3204
0
LINE
8
BLACK
6
CONTINUOUS
10
232.77
20
-86.3204
11
232.626
21
-86.406
0
LINE
8
BLACK
6
CONTINUOUS
10
232.626
20
-86.406
11
232.467
21
-86.4577
0
LINE
8
BLACK
6
CONTINUOUS
10
232.467
20
-86.4577
11
232.301
21
-86.4728
0
LINE
8
BLACK
6
CONTINUOUS
10
232.301
20
-86.4728
11
232.135
21
-86.4507
0
LINE
8
BLACK
6
CONTINUOUS
10
232.135
20
-86.4507
11
231.978
21
-86.3924
0
LINE
8
BLACK
6
CONTINUOUS
10
231.978
20
-86.3924
11
231.838
21
-86.3009
0
LINE
8
BLACK
6
CONTINUOUS
10
231.838
20
-86.3009
11
231.722
21
-86.1806
0
LINE
8
BLACK
6
CONTINUOUS
10
231.722
20
-86.1806
11
231.636
21
-86.0376
0
LINE
8
BLACK
6
CONTINUOUS
10
231.636
20
-86.0376
11
231.583
21
-85.8789
0
LINE
8
BLACK
6
CONTINUOUS
10
231.583
20
-85.8789
11
231.566
21
-85.7125
0
LINE
8
BLACK
6
CONTINUOUS
10
231.566
20
-85.7125
11
231.587
21
-85.5466
0
LINE
8
BLACK
6
CONTINUOUS
10
231.587
20
-85.5466
11
231.645
21
-85.3895
0
LINE
8
BLACK
6
CONTINUOUS
10
231.645
20
-85.3895
11
231.735
21
-85.249
0
LINE
8
BLACK
6
CONTINUOUS
10
231.735
20
-85.249
11
231.855
21
-85.132
0
LINE
8
BLACK
6
CONTINUOUS
10
231.855
20
-85.132
11
231.997
21
-85.0444
0
LINE
8
BLACK
6
CONTINUOUS
10
231.997
20
-85.0444
11
232.155
21
-84.9905
0
LINE
8
BLACK
6
CONTINUOUS
10
232.155
20
-84.9905
11
232.322
21
-84.973
0
LINE
8
BLACK
6
CONTINUOUS
10
232.322
20
-84.973
11
232.488
21
-84.9928
0
LINE
8
BLACK
6
CONTINUOUS
10
199.119
20
-84.9903
11
199.277
21
-85.0464
0
LINE
8
BLACK
6
CONTINUOUS
10
199.277
20
-85.0464
11
199.418
21
-85.136
0
LINE
8
BLACK
6
CONTINUOUS
10
199.418
20
-85.136
11
199.536
21
-85.2546
0
LINE
8
BLACK
6
CONTINUOUS
10
199.536
20
-85.2546
11
199.625
21
-85.3964
0
LINE
8
BLACK
6
CONTINUOUS
10
199.625
20
-85.3964
11
199.68
21
-85.5543
0
LINE
8
BLACK
6
CONTINUOUS
10
199.68
20
-85.5543
11
199.698
21
-85.7205
0
LINE
8
BLACK
6
CONTINUOUS
10
199.698
20
-85.7205
11
199.698
21
-85.7414
0
LINE
8
BLACK
6
CONTINUOUS
10
199.698
20
-85.7414
11
199.675
21
-85.907
0
LINE
8
BLACK
6
CONTINUOUS
10
199.675
20
-85.907
11
199.615
21
-86.0633
0
LINE
8
BLACK
6
CONTINUOUS
10
199.615
20
-86.0633
11
199.523
21
-86.2026
0
LINE
8
BLACK
6
CONTINUOUS
10
199.523
20
-86.2026
11
199.402
21
-86.3179
0
LINE
8
BLACK
6
CONTINUOUS
10
199.402
20
-86.3179
11
199.258
21
-86.4035
0
LINE
8
BLACK
6
CONTINUOUS
10
199.258
20
-86.4035
11
199.099
21
-86.4551
0
LINE
8
BLACK
6
CONTINUOUS
10
199.099
20
-86.4551
11
198.932
21
-86.4703
0
LINE
8
BLACK
6
CONTINUOUS
10
198.932
20
-86.4703
11
198.767
21
-86.4482
0
LINE
8
BLACK
6
CONTINUOUS
10
198.767
20
-86.4482
11
198.61
21
-86.3899
0
LINE
8
BLACK
6
CONTINUOUS
10
198.61
20
-86.3899
11
198.47
21
-86.2983
0
LINE
8
BLACK
6
CONTINUOUS
10
198.47
20
-86.2983
11
198.354
21
-86.1781
0
LINE
8
BLACK
6
CONTINUOUS
10
198.354
20
-86.1781
11
198.267
21
-86.0351
0
LINE
8
BLACK
6
CONTINUOUS
10
198.267
20
-86.0351
11
198.215
21
-85.8764
0
LINE
8
BLACK
6
CONTINUOUS
10
198.215
20
-85.8764
11
198.198
21
-85.71
0
LINE
8
BLACK
6
CONTINUOUS
10
198.198
20
-85.71
11
198.219
21
-85.5441
0
LINE
8
BLACK
6
CONTINUOUS
10
198.219
20
-85.5441
11
198.276
21
-85.387
0
LINE
8
BLACK
6
CONTINUOUS
10
198.276
20
-85.387
11
198.367
21
-85.2464
0
LINE
8
BLACK
6
CONTINUOUS
10
198.367
20
-85.2464
11
198.486
21
-85.1295
0
LINE
8
BLACK
6
CONTINUOUS
10
198.486
20
-85.1295
11
198.629
21
-85.0418
0
LINE
8
BLACK
6
CONTINUOUS
10
198.629
20
-85.0418
11
198.787
21
-84.988
0
LINE
8
BLACK
6
CONTINUOUS
10
198.787
20
-84.988
11
198.953
21
-84.9705
0
LINE
8
BLACK
6
CONTINUOUS
10
198.953
20
-84.9705
11
199.119
21
-84.9903
0
LINE
8
BLACK
6
CONTINUOUS
10
201.619
20
-84.9903
11
201.777
21
-85.0464
0
LINE
8
BLACK
6
CONTINUOUS
10
201.777
20
-85.0464
11
201.918
21
-85.136
0
LINE
8
BLACK
6
CONTINUOUS
10
201.918
20
-85.136
11
202.036
21
-85.2546
0
LINE
8
BLACK
6
CONTINUOUS
10
202.036
20
-85.2546
11
202.125
21
-85.3964
0
LINE
8
BLACK
6
CONTINUOUS
10
202.125
20
-85.3964
11
202.18
21
-85.5543
0
LINE
8
BLACK
6
CONTINUOUS
10
202.18
20
-85.5543
11
202.198
21
-85.7205
0
LINE
8
BLACK
6
CONTINUOUS
10
202.198
20
-85.7205
11
202.198
21
-85.7414
0
LINE
8
BLACK
6
CONTINUOUS
10
202.198
20
-85.7414
11
202.175
21
-85.907
0
LINE
8
BLACK
6
CONTINUOUS
10
202.175
20
-85.907
11
202.115
21
-86.0633
0
LINE
8
BLACK
6
CONTINUOUS
10
202.115
20
-86.0633
11
202.023
21
-86.2026
0
LINE
8
BLACK
6
CONTINUOUS
10
202.023
20
-86.2026
11
201.902
21
-86.3179
0
LINE
8
BLACK
6
CONTINUOUS
10
201.902
20
-86.3179
11
201.758
21
-86.4035
0
LINE
8
BLACK
6
CONTINUOUS
10
201.758
20
-86.4035
11
201.599
21
-86.4551
0
LINE
8
BLACK
6
CONTINUOUS
10
201.599
20
-86.4551
11
201.432
21
-86.4703
0
LINE
8
BLACK
6
CONTINUOUS
10
201.432
20
-86.4703
11
201.267
21
-86.4482
0
LINE
8
BLACK
6
CONTINUOUS
10
201.267
20
-86.4482
11
201.11
21
-86.3899
0
LINE
8
BLACK
6
CONTINUOUS
10
201.11
20
-86.3899
11
200.97
21
-86.2983
0
LINE
8
BLACK
6
CONTINUOUS
10
200.97
20
-86.2983
11
200.854
21
-86.1781
0
LINE
8
BLACK
6
CONTINUOUS
10
200.854
20
-86.1781
11
200.767
21
-86.0351
0
LINE
8
BLACK
6
CONTINUOUS
10
200.767
20
-86.0351
11
200.715
21
-85.8764
0
LINE
8
BLACK
6
CONTINUOUS
10
200.715
20
-85.8764
11
200.698
21
-85.71
0
LINE
8
BLACK
6
CONTINUOUS
10
200.698
20
-85.71
11
200.719
21
-85.5441
0
LINE
8
BLACK
6
CONTINUOUS
10
200.719
20
-85.5441
11
200.776
21
-85.387
0
LINE
8
BLACK
6
CONTINUOUS
10
200.776
20
-85.387
11
200.867
21
-85.2464
0
LINE
8
BLACK
6
CONTINUOUS
10
200.867
20
-85.2464
11
200.986
21
-85.1295
0
LINE
8
BLACK
6
CONTINUOUS
10
200.986
20
-85.1295
11
201.129
21
-85.0418
0
LINE
8
BLACK
6
CONTINUOUS
10
201.129
20
-85.0418
11
201.287
21
-84.988
0
LINE
8
BLACK
6
CONTINUOUS
10
201.287
20
-84.988
11
201.453
21
-84.9705
0
LINE
8
BLACK
6
CONTINUOUS
10
201.453
20
-84.9705
11
201.619
21
-84.9903
0
LINE
8
BLACK
6
CONTINUOUS
10
204.119
20
-84.9903
11
204.277
21
-85.0464
0
LINE
8
BLACK
6
CONTINUOUS
10
204.277
20
-85.0464
11
204.418
21
-85.136
0
LINE
8
BLACK
6
CONTINUOUS
10
204.418
20
-85.136
11
204.536
21
-85.2546
0
LINE
8
BLACK
6
CONTINUOUS
10
204.536
20
-85.2546
11
204.625
21
-85.3964
0
LINE
8
BLACK
6
CONTINUOUS
10
204.625
20
-85.3964
11
204.68
21
-85.5543
0
LINE
8
BLACK
6
CONTINUOUS
10
204.68
20
-85.5543
11
204.698
21
-85.7205
0
LINE
8
BLACK
6
CONTINUOUS
10
204.698
20
-85.7205
11
204.698
21
-85.7414
0
LINE
8
BLACK
6
CONTINUOUS
10
204.698
20
-85.7414
11
204.675
21
-85.907
0
LINE
8
BLACK
6
CONTINUOUS
10
204.675
20
-85.907
11
204.615
21
-86.0633
0
LINE
8
BLACK
6
CONTINUOUS
10
204.615
20
-86.0633
11
204.523
21
-86.2026
0
LINE
8
BLACK
6
CONTINUOUS
10
204.523
20
-86.2026
11
204.402
21
-86.3179
0
LINE
8
BLACK
6
CONTINUOUS
10
204.402
20
-86.3179
11
204.258
21
-86.4035
0
LINE
8
BLACK
6
CONTINUOUS
10
204.258
20
-86.4035
11
204.099
21
-86.4551
0
LINE
8
BLACK
6
CONTINUOUS
10
204.099
20
-86.4551
11
203.932
21
-86.4703
0
LINE
8
BLACK
6
CONTINUOUS
10
203.932
20
-86.4703
11
203.767
21
-86.4482
0
LINE
8
BLACK
6
CONTINUOUS
10
203.767
20
-86.4482
11
203.61
21
-86.3899
0
LINE
8
BLACK
6
CONTINUOUS
10
203.61
20
-86.3899
11
203.47
21
-86.2983
0
LINE
8
BLACK
6
CONTINUOUS
10
203.47
20
-86.2983
11
203.354
21
-86.1781
0
LINE
8
BLACK
6
CONTINUOUS
10
203.354
20
-86.1781
11
203.267
21
-86.0351
0
LINE
8
BLACK
6
CONTINUOUS
10
203.267
20
-86.0351
11
203.215
21
-85.8764
0
LINE
8
BLACK
6
CONTINUOUS
10
203.215
20
-85.8764
11
203.198
21
-85.71
0
LINE
8
BLACK
6
CONTINUOUS
10
203.198
20
-85.71
11
203.219
21
-85.5441
0
LINE
8
BLACK
6
CONTINUOUS
10
203.219
20
-85.5441
11
203.276
21
-85.387
0
LINE
8
BLACK
6
CONTINUOUS
10
203.276
20
-85.387
11
203.367
21
-85.2464
0
LINE
8
BLACK
6
CONTINUOUS
10
203.367
20
-85.2464
11
203.486
21
-85.1295
0
LINE
8
BLACK
6
CONTINUOUS
10
203.486
20
-85.1295
11
203.629
21
-85.0418
0
LINE
8
BLACK
6
CONTINUOUS
10
203.629
20
-85.0418
11
203.787
21
-84.988
0
LINE
8
BLACK
6
CONTINUOUS
10
203.787
20
-84.988
11
203.953
21
-84.9705
0
LINE
8
BLACK
6
CONTINUOUS
10
203.953
20
-84.9705
11
204.119
21
-84.9903
0
LINE
8
BLACK
6
CONTINUOUS
10
238.261
20
-83.418
11
238.423
21
-83.4903
0
LINE
8
BLACK
6
CONTINUOUS
10
238.423
20
-83.4903
11
238.567
21
-83.5947
0
LINE
8
BLACK
6
CONTINUOUS
10
238.567
20
-83.5947
11
238.686
21
-83.7268
0
LINE
8
BLACK
6
CONTINUOUS
10
238.686
20
-83.7268
11
238.775
21
-83.8807
0
LINE
8
BLACK
6
CONTINUOUS
10
238.775
20
-83.8807
11
238.829
21
-84.0497
0
LINE
8
BLACK
6
CONTINUOUS
10
238.829
20
-84.0497
11
238.848
21
-84.2264
0
LINE
8
BLACK
6
CONTINUOUS
10
238.848
20
-84.2264
11
238.829
21
-84.4031
0
LINE
8
BLACK
6
CONTINUOUS
10
238.829
20
-84.4031
11
238.775
21
-84.5721
0
LINE
8
BLACK
6
CONTINUOUS
10
238.775
20
-84.5721
11
238.686
21
-84.726
0
LINE
8
BLACK
6
CONTINUOUS
10
238.686
20
-84.726
11
238.567
21
-84.8581
0
LINE
8
BLACK
6
CONTINUOUS
10
238.567
20
-84.8581
11
238.423
21
-84.9625
0
LINE
8
BLACK
6
CONTINUOUS
10
238.423
20
-84.9625
11
238.261
21
-85.0348
0
LINE
8
BLACK
6
CONTINUOUS
10
238.261
20
-85.0348
11
238.087
21
-85.0717
0
LINE
8
BLACK
6
CONTINUOUS
10
238.087
20
-85.0717
11
237.909
21
-85.0717
0
LINE
8
BLACK
6
CONTINUOUS
10
237.909
20
-85.0717
11
237.735
21
-85.0348
0
LINE
8
BLACK
6
CONTINUOUS
10
237.735
20
-85.0348
11
237.573
21
-84.9625
0
LINE
8
BLACK
6
CONTINUOUS
10
237.573
20
-84.9625
11
237.429
21
-84.8581
0
LINE
8
BLACK
6
CONTINUOUS
10
237.429
20
-84.8581
11
237.31
21
-84.726
0
LINE
8
BLACK
6
CONTINUOUS
10
237.31
20
-84.726
11
237.221
21
-84.5721
0
LINE
8
BLACK
6
CONTINUOUS
10
237.221
20
-84.5721
11
237.167
21
-84.4031
0
LINE
8
BLACK
6
CONTINUOUS
10
237.167
20
-84.4031
11
237.148
21
-84.2264
0
LINE
8
BLACK
6
CONTINUOUS
10
237.148
20
-84.2264
11
237.167
21
-84.0497
0
LINE
8
BLACK
6
CONTINUOUS
10
237.167
20
-84.0497
11
237.221
21
-83.8807
0
LINE
8
BLACK
6
CONTINUOUS
10
237.221
20
-83.8807
11
237.31
21
-83.7268
0
LINE
8
BLACK
6
CONTINUOUS
10
237.31
20
-83.7268
11
237.429
21
-83.5947
0
LINE
8
BLACK
6
CONTINUOUS
10
237.429
20
-83.5947
11
237.573
21
-83.4903
0
LINE
8
BLACK
6
CONTINUOUS
10
237.573
20
-83.4903
11
237.735
21
-83.418
0
LINE
8
BLACK
6
CONTINUOUS
10
237.735
20
-83.418
11
237.909
21
-83.3811
0
LINE
8
BLACK
6
CONTINUOUS
10
237.909
20
-83.3811
11
238.087
21
-83.3811
0
LINE
8
BLACK
6
CONTINUOUS
10
238.087
20
-83.3811
11
238.261
21
-83.418
0
LINE
8
BLACK
6
CONTINUOUS
10
238.848
20
-82.5364
11
237.148
21
-82.5364
0
LINE
8
BLACK
6
CONTINUOUS
10
237.148
20
-82.5364
11
237.148
21
-80.8364
0
LINE
8
BLACK
6
CONTINUOUS
10
237.148
20
-80.8364
11
238.848
21
-80.8364
0
LINE
8
BLACK
6
CONTINUOUS
10
238.848
20
-80.8364
11
238.848
21
-82.5364
0
LINE
8
BLACK
6
CONTINUOUS
10
225.314
20
-76.6605
11
225.555
21
-76.7184
0
LINE
8
BLACK
6
CONTINUOUS
10
225.555
20
-76.7184
11
225.785
21
-76.8134
0
LINE
8
BLACK
6
CONTINUOUS
10
225.785
20
-76.8134
11
225.996
21
-76.9431
0
LINE
8
BLACK
6
CONTINUOUS
10
225.996
20
-76.9431
11
226.185
21
-77.1044
0
LINE
8
BLACK
6
CONTINUOUS
10
226.185
20
-77.1044
11
226.346
21
-77.2931
0
LINE
8
BLACK
6
CONTINUOUS
10
226.346
20
-77.2931
11
226.476
21
-77.5048
0
LINE
8
BLACK
6
CONTINUOUS
10
226.476
20
-77.5048
11
226.571
21
-77.7341
0
LINE
8
BLACK
6
CONTINUOUS
10
226.571
20
-77.7341
11
226.629
21
-77.9755
0
LINE
8
BLACK
6
CONTINUOUS
10
226.629
20
-77.9755
11
226.648
21
-78.223
0
LINE
8
BLACK
6
CONTINUOUS
10
226.648
20
-78.223
11
226.629
21
-78.4705
0
LINE
8
BLACK
6
CONTINUOUS
10
226.629
20
-78.4705
11
226.571
21
-78.7119
0
LINE
8
BLACK
6
CONTINUOUS
10
226.571
20
-78.7119
11
226.476
21
-78.9412
0
LINE
8
BLACK
6
CONTINUOUS
10
226.476
20
-78.9412
11
226.346
21
-79.1529
0
LINE
8
BLACK
6
CONTINUOUS
10
226.346
20
-79.1529
11
226.185
21
-79.3416
0
LINE
8
BLACK
6
CONTINUOUS
10
226.185
20
-79.3416
11
225.996
21
-79.5029
0
LINE
8
BLACK
6
CONTINUOUS
10
225.996
20
-79.5029
11
225.785
21
-79.6326
0
LINE
8
BLACK
6
CONTINUOUS
10
225.785
20
-79.6326
11
225.555
21
-79.7276
0
LINE
8
BLACK
6
CONTINUOUS
10
225.555
20
-79.7276
11
225.314
21
-79.7855
0
LINE
8
BLACK
6
CONTINUOUS
10
225.314
20
-79.7855
11
225.066
21
-79.805
0
LINE
8
BLACK
6
CONTINUOUS
10
225.066
20
-79.805
11
224.819
21
-79.7855
0
LINE
8
BLACK
6
CONTINUOUS
10
224.819
20
-79.7855
11
224.578
21
-79.7276
0
LINE
8
BLACK
6
CONTINUOUS
10
224.578
20
-79.7276
11
224.348
21
-79.6326
0
LINE
8
BLACK
6
CONTINUOUS
10
224.348
20
-79.6326
11
224.137
21
-79.5029
0
LINE
8
BLACK
6
CONTINUOUS
10
224.137
20
-79.5029
11
223.948
21
-79.3416
0
LINE
8
BLACK
6
CONTINUOUS
10
223.948
20
-79.3416
11
223.787
21
-79.1529
0
LINE
8
BLACK
6
CONTINUOUS
10
223.787
20
-79.1529
11
223.657
21
-78.9412
0
LINE
8
BLACK
6
CONTINUOUS
10
223.657
20
-78.9412
11
223.562
21
-78.7119
0
LINE
8
BLACK
6
CONTINUOUS
10
223.562
20
-78.7119
11
223.504
21
-78.4705
0
LINE
8
BLACK
6
CONTINUOUS
10
223.504
20
-78.4705
11
223.484
21
-78.223
0
LINE
8
BLACK
6
CONTINUOUS
10
223.484
20
-78.223
11
223.504
21
-77.9755
0
LINE
8
BLACK
6
CONTINUOUS
10
223.504
20
-77.9755
11
223.562
21
-77.7341
0
LINE
8
BLACK
6
CONTINUOUS
10
223.562
20
-77.7341
11
223.657
21
-77.5048
0
LINE
8
BLACK
6
CONTINUOUS
10
223.657
20
-77.5048
11
223.787
21
-77.2931
0
LINE
8
BLACK
6
CONTINUOUS
10
223.787
20
-77.2931
11
223.948
21
-77.1044
0
LINE
8
BLACK
6
CONTINUOUS
10
223.948
20
-77.1044
11
224.137
21
-76.9431
0
LINE
8
BLACK
6
CONTINUOUS
10
224.137
20
-76.9431
11
224.348
21
-76.8134
0
LINE
8
BLACK
6
CONTINUOUS
10
224.348
20
-76.8134
11
224.578
21
-76.7184
0
LINE
8
BLACK
6
CONTINUOUS
10
224.578
20
-76.7184
11
224.819
21
-76.6605
0
LINE
8
BLACK
6
CONTINUOUS
10
224.819
20
-76.6605
11
225.066
21
-76.641
0
LINE
8
BLACK
6
CONTINUOUS
10
225.066
20
-76.641
11
225.314
21
-76.6605
0
LINE
8
BLACK
6
CONTINUOUS
10
234.814
20
-76.6605
11
235.055
21
-76.7184
0
LINE
8
BLACK
6
CONTINUOUS
10
235.055
20
-76.7184
11
235.285
21
-76.8134
0
LINE
8
BLACK
6
CONTINUOUS
10
235.285
20
-76.8134
11
235.496
21
-76.9431
0
LINE
8
BLACK
6
CONTINUOUS
10
235.496
20
-76.9431
11
235.685
21
-77.1044
0
LINE
8
BLACK
6
CONTINUOUS
10
235.685
20
-77.1044
11
235.846
21
-77.2931
0
LINE
8
BLACK
6
CONTINUOUS
10
235.846
20
-77.2931
11
235.976
21
-77.5048
0
LINE
8
BLACK
6
CONTINUOUS
10
235.976
20
-77.5048
11
236.071
21
-77.7341
0
LINE
8
BLACK
6
CONTINUOUS
10
236.071
20
-77.7341
11
236.129
21
-77.9755
0
LINE
8
BLACK
6
CONTINUOUS
10
236.129
20
-77.9755
11
236.148
21
-78.223
0
LINE
8
BLACK
6
CONTINUOUS
10
236.148
20
-78.223
11
236.129
21
-78.4705
0
LINE
8
BLACK
6
CONTINUOUS
10
236.129
20
-78.4705
11
236.071
21
-78.7119
0
LINE
8
BLACK
6
CONTINUOUS
10
236.071
20
-78.7119
11
235.976
21
-78.9412
0
LINE
8
BLACK
6
CONTINUOUS
10
235.976
20
-78.9412
11
235.846
21
-79.1529
0
LINE
8
BLACK
6
CONTINUOUS
10
235.846
20
-79.1529
11
235.685
21
-79.3416
0
LINE
8
BLACK
6
CONTINUOUS
10
235.685
20
-79.3416
11
235.496
21
-79.5029
0
LINE
8
BLACK
6
CONTINUOUS
10
235.496
20
-79.5029
11
235.285
21
-79.6326
0
LINE
8
BLACK
6
CONTINUOUS
10
235.285
20
-79.6326
11
235.055
21
-79.7276
0
LINE
8
BLACK
6
CONTINUOUS
10
235.055
20
-79.7276
11
234.814
21
-79.7855
0
LINE
8
BLACK
6
CONTINUOUS
10
234.814
20
-79.7855
11
234.566
21
-79.805
0
LINE
8
BLACK
6
CONTINUOUS
10
234.566
20
-79.805
11
234.319
21
-79.7855
0
LINE
8
BLACK
6
CONTINUOUS
10
234.319
20
-79.7855
11
234.078
21
-79.7276
0
LINE
8
BLACK
6
CONTINUOUS
10
234.078
20
-79.7276
11
233.848
21
-79.6326
0
LINE
8
BLACK
6
CONTINUOUS
10
233.848
20
-79.6326
11
233.637
21
-79.5029
0
LINE
8
BLACK
6
CONTINUOUS
10
233.637
20
-79.5029
11
233.448
21
-79.3416
0
LINE
8
BLACK
6
CONTINUOUS
10
233.448
20
-79.3416
11
233.287
21
-79.1529
0
LINE
8
BLACK
6
CONTINUOUS
10
233.287
20
-79.1529
11
233.157
21
-78.9412
0
LINE
8
BLACK
6
CONTINUOUS
10
233.157
20
-78.9412
11
233.062
21
-78.7119
0
LINE
8
BLACK
6
CONTINUOUS
10
233.062
20
-78.7119
11
233.004
21
-78.4705
0
LINE
8
BLACK
6
CONTINUOUS
10
233.004
20
-78.4705
11
232.984
21
-78.223
0
LINE
8
BLACK
6
CONTINUOUS
10
232.984
20
-78.223
11
233.004
21
-77.9755
0
LINE
8
BLACK
6
CONTINUOUS
10
233.004
20
-77.9755
11
233.062
21
-77.7341
0
LINE
8
BLACK
6
CONTINUOUS
10
233.062
20
-77.7341
11
233.157
21
-77.5048
0
LINE
8
BLACK
6
CONTINUOUS
10
233.157
20
-77.5048
11
233.287
21
-77.2931
0
LINE
8
BLACK
6
CONTINUOUS
10
233.287
20
-77.2931
11
233.448
21
-77.1044
0
LINE
8
BLACK
6
CONTINUOUS
10
233.448
20
-77.1044
11
233.637
21
-76.9431
0
LINE
8
BLACK
6
CONTINUOUS
10
233.637
20
-76.9431
11
233.848
21
-76.8134
0
LINE
8
BLACK
6
CONTINUOUS
10
233.848
20
-76.8134
11
234.078
21
-76.7184
0
LINE
8
BLACK
6
CONTINUOUS
10
234.078
20
-76.7184
11
234.319
21
-76.6605
0
LINE
8
BLACK
6
CONTINUOUS
10
234.319
20
-76.6605
11
234.566
21
-76.641
0
LINE
8
BLACK
6
CONTINUOUS
10
234.566
20
-76.641
11
234.814
21
-76.6605
0
LINE
8
BLACK
6
CONTINUOUS
10
196.946
20
-76.6579
11
197.187
21
-76.7159
0
LINE
8
BLACK
6
CONTINUOUS
10
197.187
20
-76.7159
11
197.416
21
-76.8109
0
LINE
8
BLACK
6
CONTINUOUS
10
197.416
20
-76.8109
11
197.628
21
-76.9406
0
LINE
8
BLACK
6
CONTINUOUS
10
197.628
20
-76.9406
11
197.817
21
-77.1018
0
LINE
8
BLACK
6
CONTINUOUS
10
197.817
20
-77.1018
11
197.978
21
-77.2906
0
LINE
8
BLACK
6
CONTINUOUS
10
197.978
20
-77.2906
11
198.108
21
-77.5022
0
LINE
8
BLACK
6
CONTINUOUS
10
198.108
20
-77.5022
11
198.203
21
-77.7316
0
LINE
8
BLACK
6
CONTINUOUS
10
198.203
20
-77.7316
11
198.261
21
-77.973
0
LINE
8
BLACK
6
CONTINUOUS
10
198.261
20
-77.973
11
198.28
21
-78.2205
0
LINE
8
BLACK
6
CONTINUOUS
10
198.28
20
-78.2205
11
198.261
21
-78.4679
0
LINE
8
BLACK
6
CONTINUOUS
10
198.261
20
-78.4679
11
198.203
21
-78.7093
0
LINE
8
BLACK
6
CONTINUOUS
10
198.203
20
-78.7093
11
198.108
21
-78.9387
0
LINE
8
BLACK
6
CONTINUOUS
10
198.108
20
-78.9387
11
197.978
21
-79.1503
0
LINE
8
BLACK
6
CONTINUOUS
10
197.978
20
-79.1503
11
197.817
21
-79.3391
0
LINE
8
BLACK
6
CONTINUOUS
10
197.817
20
-79.3391
11
197.628
21
-79.5003
0
LINE
8
BLACK
6
CONTINUOUS
10
197.628
20
-79.5003
11
197.416
21
-79.63
0
LINE
8
BLACK
6
CONTINUOUS
10
197.416
20
-79.63
11
197.187
21
-79.725
0
LINE
8
BLACK
6
CONTINUOUS
10
197.187
20
-79.725
11
196.946
21
-79.783
0
LINE
8
BLACK
6
CONTINUOUS
10
196.946
20
-79.783
11
196.698
21
-79.8025
0
LINE
8
BLACK
6
CONTINUOUS
10
196.698
20
-79.8025
11
196.451
21
-79.783
0
LINE
8
BLACK
6
CONTINUOUS
10
196.451
20
-79.783
11
196.209
21
-79.725
0
LINE
8
BLACK
6
CONTINUOUS
10
196.209
20
-79.725
11
195.98
21
-79.63
0
LINE
8
BLACK
6
CONTINUOUS
10
195.98
20
-79.63
11
195.768
21
-79.5003
0
LINE
8
BLACK
6
CONTINUOUS
10
195.768
20
-79.5003
11
195.579
21
-79.3391
0
LINE
8
BLACK
6
CONTINUOUS
10
195.579
20
-79.3391
11
195.418
21
-79.1503
0
LINE
8
BLACK
6
CONTINUOUS
10
195.418
20
-79.1503
11
195.289
21
-78.9387
0
LINE
8
BLACK
6
CONTINUOUS
10
195.289
20
-78.9387
11
195.194
21
-78.7093
0
LINE
8
BLACK
6
CONTINUOUS
10
195.194
20
-78.7093
11
195.136
21
-78.4679
0
LINE
8
BLACK
6
CONTINUOUS
10
195.136
20
-78.4679
11
195.116
21
-78.2205
0
LINE
8
BLACK
6
CONTINUOUS
10
195.116
20
-78.2205
11
195.136
21
-77.973
0
LINE
8
BLACK
6
CONTINUOUS
10
195.136
20
-77.973
11
195.194
21
-77.7316
0
LINE
8
BLACK
6
CONTINUOUS
10
195.194
20
-77.7316
11
195.289
21
-77.5022
0
LINE
8
BLACK
6
CONTINUOUS
10
195.289
20
-77.5022
11
195.418
21
-77.2906
0
LINE
8
BLACK
6
CONTINUOUS
10
195.418
20
-77.2906
11
195.579
21
-77.1018
0
LINE
8
BLACK
6
CONTINUOUS
10
195.579
20
-77.1018
11
195.768
21
-76.9406
0
LINE
8
BLACK
6
CONTINUOUS
10
195.768
20
-76.9406
11
195.98
21
-76.8109
0
LINE
8
BLACK
6
CONTINUOUS
10
195.98
20
-76.8109
11
196.209
21
-76.7159
0
LINE
8
BLACK
6
CONTINUOUS
10
196.209
20
-76.7159
11
196.451
21
-76.6579
0
LINE
8
BLACK
6
CONTINUOUS
10
196.451
20
-76.6579
11
196.698
21
-76.6385
0
LINE
8
BLACK
6
CONTINUOUS
10
196.698
20
-76.6385
11
196.946
21
-76.6579
0
LINE
8
BLACK
6
CONTINUOUS
10
206.446
20
-76.6579
11
206.687
21
-76.7159
0
LINE
8
BLACK
6
CONTINUOUS
10
206.687
20
-76.7159
11
206.916
21
-76.8109
0
LINE
8
BLACK
6
CONTINUOUS
10
206.916
20
-76.8109
11
207.128
21
-76.9406
0
LINE
8
BLACK
6
CONTINUOUS
10
207.128
20
-76.9406
11
207.317
21
-77.1018
0
LINE
8
BLACK
6
CONTINUOUS
10
207.317
20
-77.1018
11
207.478
21
-77.2906
0
LINE
8
BLACK
6
CONTINUOUS
10
207.478
20
-77.2906
11
207.608
21
-77.5022
0
LINE
8
BLACK
6
CONTINUOUS
10
207.608
20
-77.5022
11
207.703
21
-77.7316
0
LINE
8
BLACK
6
CONTINUOUS
10
207.703
20
-77.7316
11
207.761
21
-77.973
0
LINE
8
BLACK
6
CONTINUOUS
10
207.761
20
-77.973
11
207.78
21
-78.2205
0
LINE
8
BLACK
6
CONTINUOUS
10
207.78
20
-78.2205
11
207.761
21
-78.4679
0
LINE
8
BLACK
6
CONTINUOUS
10
207.761
20
-78.4679
11
207.703
21
-78.7093
0
LINE
8
BLACK
6
CONTINUOUS
10
207.703
20
-78.7093
11
207.608
21
-78.9387
0
LINE
8
BLACK
6
CONTINUOUS
10
207.608
20
-78.9387
11
207.478
21
-79.1503
0
LINE
8
BLACK
6
CONTINUOUS
10
207.478
20
-79.1503
11
207.317
21
-79.3391
0
LINE
8
BLACK
6
CONTINUOUS
10
207.317
20
-79.3391
11
207.128
21
-79.5003
0
LINE
8
BLACK
6
CONTINUOUS
10
207.128
20
-79.5003
11
206.916
21
-79.63
0
LINE
8
BLACK
6
CONTINUOUS
10
206.916
20
-79.63
11
206.687
21
-79.725
0
LINE
8
BLACK
6
CONTINUOUS
10
206.687
20
-79.725
11
206.446
21
-79.783
0
LINE
8
BLACK
6
CONTINUOUS
10
206.446
20
-79.783
11
206.198
21
-79.8025
0
LINE
8
BLACK
6
CONTINUOUS
10
206.198
20
-79.8025
11
205.951
21
-79.783
0
LINE
8
BLACK
6
CONTINUOUS
10
205.951
20
-79.783
11
205.709
21
-79.725
0
LINE
8
BLACK
6
CONTINUOUS
10
205.709
20
-79.725
11
205.48
21
-79.63
0
LINE
8
BLACK
6
CONTINUOUS
10
205.48
20
-79.63
11
205.268
21
-79.5003
0
LINE
8
BLACK
6
CONTINUOUS
10
205.268
20
-79.5003
11
205.079
21
-79.3391
0
LINE
8
BLACK
6
CONTINUOUS
10
205.079
20
-79.3391
11
204.918
21
-79.1503
0
LINE
8
BLACK
6
CONTINUOUS
10
204.918
20
-79.1503
11
204.789
21
-78.9387
0
LINE
8
BLACK
6
CONTINUOUS
10
204.789
20
-78.9387
11
204.694
21
-78.7093
0
LINE
8
BLACK
6
CONTINUOUS
10
204.694
20
-78.7093
11
204.636
21
-78.4679
0
LINE
8
BLACK
6
CONTINUOUS
10
204.636
20
-78.4679
11
204.616
21
-78.2205
0
LINE
8
BLACK
6
CONTINUOUS
10
204.616
20
-78.2205
11
204.636
21
-77.973
0
LINE
8
BLACK
6
CONTINUOUS
10
204.636
20
-77.973
11
204.694
21
-77.7316
0
LINE
8
BLACK
6
CONTINUOUS
10
204.694
20
-77.7316
11
204.789
21
-77.5022
0
LINE
8
BLACK
6
CONTINUOUS
10
204.789
20
-77.5022
11
204.918
21
-77.2906
0
LINE
8
BLACK
6
CONTINUOUS
10
204.918
20
-77.2906
11
205.079
21
-77.1018
0
LINE
8
BLACK
6
CONTINUOUS
10
205.079
20
-77.1018
11
205.268
21
-76.9406
0
LINE
8
BLACK
6
CONTINUOUS
10
205.268
20
-76.9406
11
205.48
21
-76.8109
0
LINE
8
BLACK
6
CONTINUOUS
10
205.48
20
-76.8109
11
205.709
21
-76.7159
0
LINE
8
BLACK
6
CONTINUOUS
10
205.709
20
-76.7159
11
205.951
21
-76.6579
0
LINE
8
BLACK
6
CONTINUOUS
10
205.951
20
-76.6579
11
206.198
21
-76.6385
0
LINE
8
BLACK
6
CONTINUOUS
10
206.198
20
-76.6385
11
206.446
21
-76.6579
0
LINE
8
BLACK
6
CONTINUOUS
10
215.869
20
-73.9489
11
216.037
21
-74.0088
0
LINE
8
BLACK
6
CONTINUOUS
10
216.037
20
-74.0088
11
216.188
21
-74.1043
0
LINE
8
BLACK
6
CONTINUOUS
10
216.188
20
-74.1043
11
216.313
21
-74.2309
0
LINE
8
BLACK
6
CONTINUOUS
10
216.313
20
-74.2309
11
216.408
21
-74.3821
0
LINE
8
BLACK
6
CONTINUOUS
10
216.408
20
-74.3821
11
216.466
21
-74.5506
0
LINE
8
BLACK
6
CONTINUOUS
10
216.466
20
-74.5506
11
216.486
21
-74.7278
0
LINE
8
BLACK
6
CONTINUOUS
10
216.486
20
-74.7278
11
216.486
21
-74.7501
0
LINE
8
BLACK
6
CONTINUOUS
10
216.486
20
-74.7501
11
216.461
21
-74.9267
0
LINE
8
BLACK
6
CONTINUOUS
10
216.461
20
-74.9267
11
216.398
21
-75.0935
0
LINE
8
BLACK
6
CONTINUOUS
10
216.398
20
-75.0935
11
216.299
21
-75.242
0
LINE
8
BLACK
6
CONTINUOUS
10
216.299
20
-75.242
11
216.17
21
-75.365
0
LINE
8
BLACK
6
CONTINUOUS
10
216.17
20
-75.365
11
216.017
21
-75.4563
0
LINE
8
BLACK
6
CONTINUOUS
10
216.017
20
-75.4563
11
215.847
21
-75.5115
0
LINE
8
BLACK
6
CONTINUOUS
10
215.847
20
-75.5115
11
215.67
21
-75.5276
0
LINE
8
BLACK
6
CONTINUOUS
10
215.67
20
-75.5276
11
215.493
21
-75.504
0
LINE
8
BLACK
6
CONTINUOUS
10
215.493
20
-75.504
11
215.326
21
-75.4419
0
LINE
8
BLACK
6
CONTINUOUS
10
215.326
20
-75.4419
11
215.176
21
-75.3442
0
LINE
8
BLACK
6
CONTINUOUS
10
215.176
20
-75.3442
11
215.053
21
-75.2159
0
LINE
8
BLACK
6
CONTINUOUS
10
215.053
20
-75.2159
11
214.96
21
-75.0634
0
LINE
8
BLACK
6
CONTINUOUS
10
214.96
20
-75.0634
11
214.904
21
-74.8941
0
LINE
8
BLACK
6
CONTINUOUS
10
214.904
20
-74.8941
11
214.886
21
-74.7166
0
LINE
8
BLACK
6
CONTINUOUS
10
214.886
20
-74.7166
11
214.909
21
-74.5397
0
LINE
8
BLACK
6
CONTINUOUS
10
214.909
20
-74.5397
11
214.97
21
-74.3721
0
LINE
8
BLACK
6
CONTINUOUS
10
214.97
20
-74.3721
11
215.066
21
-74.2222
0
LINE
8
BLACK
6
CONTINUOUS
10
215.066
20
-74.2222
11
215.194
21
-74.0974
0
LINE
8
BLACK
6
CONTINUOUS
10
215.194
20
-74.0974
11
215.346
21
-74.0039
0
LINE
8
BLACK
6
CONTINUOUS
10
215.346
20
-74.0039
11
215.515
21
-73.9465
0
LINE
8
BLACK
6
CONTINUOUS
10
215.515
20
-73.9465
11
215.692
21
-73.9278
0
LINE
8
BLACK
6
CONTINUOUS
10
215.692
20
-73.9278
11
215.869
21
-73.9489
0
LINE
8
BLACK
6
CONTINUOUS
10
215.869
20
-63.7889
11
216.037
21
-63.8488
0
LINE
8
BLACK
6
CONTINUOUS
10
216.037
20
-63.8488
11
216.188
21
-63.9443
0
LINE
8
BLACK
6
CONTINUOUS
10
216.188
20
-63.9443
11
216.313
21
-64.0709
0
LINE
8
BLACK
6
CONTINUOUS
10
216.313
20
-64.0709
11
216.408
21
-64.2221
0
LINE
8
BLACK
6
CONTINUOUS
10
216.408
20
-64.2221
11
216.466
21
-64.3906
0
LINE
8
BLACK
6
CONTINUOUS
10
216.466
20
-64.3906
11
216.486
21
-64.5678
0
LINE
8
BLACK
6
CONTINUOUS
10
216.486
20
-64.5678
11
216.486
21
-64.5901
0
LINE
8
BLACK
6
CONTINUOUS
10
216.486
20
-64.5901
11
216.461
21
-64.7667
0
LINE
8
BLACK
6
CONTINUOUS
10
216.461
20
-64.7667
11
216.398
21
-64.9335
0
LINE
8
BLACK
6
CONTINUOUS
10
216.398
20
-64.9335
11
216.299
21
-65.082
0
LINE
8
BLACK
6
CONTINUOUS
10
216.299
20
-65.082
11
216.17
21
-65.205
0
LINE
8
BLACK
6
CONTINUOUS
10
216.17
20
-65.205
11
216.017
21
-65.2963
0
LINE
8
BLACK
6
CONTINUOUS
10
216.017
20
-65.2963
11
215.847
21
-65.3515
0
LINE
8
BLACK
6
CONTINUOUS
10
215.847
20
-65.3515
11
215.67
21
-65.3676
0
LINE
8
BLACK
6
CONTINUOUS
10
215.67
20
-65.3676
11
215.493
21
-65.344
0
LINE
8
BLACK
6
CONTINUOUS
10
215.493
20
-65.344
11
215.326
21
-65.2819
0
LINE
8
BLACK
6
CONTINUOUS
10
215.326
20
-65.2819
11
215.176
21
-65.1842
0
LINE
8
BLACK
6
CONTINUOUS
10
215.176
20
-65.1842
11
215.053
21
-65.0559
0
LINE
8
BLACK
6
CONTINUOUS
10
215.053
20
-65.0559
11
214.96
21
-64.9034
0
LINE
8
BLACK
6
CONTINUOUS
10
214.96
20
-64.9034
11
214.904
21
-64.7341
0
LINE
8
BLACK
6
CONTINUOUS
10
214.904
20
-64.7341
11
214.886
21
-64.5566
0
LINE
8
BLACK
6
CONTINUOUS
10
214.886
20
-64.5566
11
214.909
21
-64.3797
0
LINE
8
BLACK
6
CONTINUOUS
10
214.909
20
-64.3797
11
214.97
21
-64.2121
0
LINE
8
BLACK
6
CONTINUOUS
10
214.97
20
-64.2121
11
215.066
21
-64.0622
0
LINE
8
BLACK
6
CONTINUOUS
10
215.066
20
-64.0622
11
215.194
21
-63.9374
0
LINE
8
BLACK
6
CONTINUOUS
10
215.194
20
-63.9374
11
215.346
21
-63.8439
0
LINE
8
BLACK
6
CONTINUOUS
10
215.346
20
-63.8439
11
215.515
21
-63.7865
0
LINE
8
BLACK
6
CONTINUOUS
10
215.515
20
-63.7865
11
215.692
21
-63.7678
0
LINE
8
BLACK
6
CONTINUOUS
10
215.692
20
-63.7678
11
215.869
21
-63.7889
0
LINE
8
BLACK
6
CONTINUOUS
10
215.276
20
-59.1168
11
213.476
21
-59.1168
0
LINE
8
BLACK
6
CONTINUOUS
10
213.476
20
-59.1168
11
213.476
21
-57.3168
0
LINE
8
BLACK
6
CONTINUOUS
10
213.476
20
-57.3168
11
215.276
21
-57.3168
0
LINE
8
BLACK
6
CONTINUOUS
10
215.276
20
-57.3168
11
215.276
21
-59.1168
0
LINE
8
BLACK
6
CONTINUOUS
10
217.194
20
-57.3608
11
217.366
21
-57.4374
0
LINE
8
BLACK
6
CONTINUOUS
10
217.366
20
-57.4374
11
217.518
21
-57.548
0
LINE
8
BLACK
6
CONTINUOUS
10
217.518
20
-57.548
11
217.644
21
-57.6878
0
LINE
8
BLACK
6
CONTINUOUS
10
217.644
20
-57.6878
11
217.738
21
-57.8507
0
LINE
8
BLACK
6
CONTINUOUS
10
217.738
20
-57.8507
11
217.796
21
-58.0297
0
LINE
8
BLACK
6
CONTINUOUS
10
217.796
20
-58.0297
11
217.816
21
-58.2168
0
LINE
8
BLACK
6
CONTINUOUS
10
217.816
20
-58.2168
11
217.796
21
-58.4039
0
LINE
8
BLACK
6
CONTINUOUS
10
217.796
20
-58.4039
11
217.738
21
-58.5829
0
LINE
8
BLACK
6
CONTINUOUS
10
217.738
20
-58.5829
11
217.644
21
-58.7458
0
LINE
8
BLACK
6
CONTINUOUS
10
217.644
20
-58.7458
11
217.518
21
-58.8856
0
LINE
8
BLACK
6
CONTINUOUS
10
217.518
20
-58.8856
11
217.366
21
-58.9962
0
LINE
8
BLACK
6
CONTINUOUS
10
217.366
20
-58.9962
11
217.194
21
-59.0728
0
LINE
8
BLACK
6
CONTINUOUS
10
217.194
20
-59.0728
11
217.01
21
-59.1119
0
LINE
8
BLACK
6
CONTINUOUS
10
217.01
20
-59.1119
11
216.822
21
-59.1119
0
LINE
8
BLACK
6
CONTINUOUS
10
216.822
20
-59.1119
11
216.638
21
-59.0728
0
LINE
8
BLACK
6
CONTINUOUS
10
216.638
20
-59.0728
11
216.466
21
-58.9962
0
LINE
8
BLACK
6
CONTINUOUS
10
216.466
20
-58.9962
11
216.314
21
-58.8856
0
LINE
8
BLACK
6
CONTINUOUS
10
216.314
20
-58.8856
11
216.188
21
-58.7458
0
LINE
8
BLACK
6
CONTINUOUS
10
216.188
20
-58.7458
11
216.094
21
-58.5829
0
LINE
8
BLACK
6
CONTINUOUS
10
216.094
20
-58.5829
11
216.036
21
-58.4039
0
LINE
8
BLACK
6
CONTINUOUS
10
216.036
20
-58.4039
11
216.016
21
-58.2168
0
LINE
8
BLACK
6
CONTINUOUS
10
216.016
20
-58.2168
11
216.036
21
-58.0297
0
LINE
8
BLACK
6
CONTINUOUS
10
216.036
20
-58.0297
11
216.094
21
-57.8507
0
LINE
8
BLACK
6
CONTINUOUS
10
216.094
20
-57.8507
11
216.188
21
-57.6878
0
LINE
8
BLACK
6
CONTINUOUS
10
216.188
20
-57.6878
11
216.314
21
-57.548
0
LINE
8
BLACK
6
CONTINUOUS
10
216.314
20
-57.548
11
216.466
21
-57.4374
0
LINE
8
BLACK
6
CONTINUOUS
10
216.466
20
-57.4374
11
216.638
21
-57.3608
0
LINE
8
BLACK
6
CONTINUOUS
10
216.638
20
-57.3608
11
216.822
21
-57.3217
0
LINE
8
BLACK
6
CONTINUOUS
10
216.822
20
-57.3217
11
217.01
21
-57.3217
0
LINE
8
BLACK
6
CONTINUOUS
10
217.01
20
-57.3217
11
217.194
21
-57.3608
  0
ENDSEC
  0
EOF
