M48
; DRILL file {KiCad (6.0.9)} date Mon Nov 21 10:54:17 2022
; FORMAT={-:-/ absolute / metric / decimal}
; #@! TF.CreationDate,2022-11-21T10:54:17+01:00
; #@! TF.GenerationSoftware,Kicad,Pcbnew,(6.0.9)
; #@! TF.FileFunction,Plated,1,2,PTH
FMAT,2
METRIC
; #@! TA.AperFunction,Plated,PTH,ComponentDrill
T1C0.800
; #@! TA.AperFunction,Plated,PTH,ComponentDrill
T2C0.900
; #@! TA.AperFunction,Plated,PTH,ComponentDrill
T3C1.000
; #@! TA.AperFunction,Plated,PTH,ComponentDrill
T4C2.109
%
G90
G05
T1
X215.686Y-64.568
X215.686Y-74.728
T2
X214.376Y-58.217
X216.916Y-58.217
T3
X198.948Y-85.72
X198.955Y-109.716
X201.448Y-85.72
X201.455Y-109.716
X203.948Y-85.72
X203.955Y-109.716
X227.316Y-85.723
X227.322Y-109.725
X229.816Y-85.723
X229.822Y-109.725
X232.316Y-85.723
X232.322Y-109.725
X237.998Y-81.686
X237.998Y-84.226
X237.998Y-86.766
X237.998Y-89.306
X237.998Y-91.846
X237.998Y-94.386
X237.998Y-96.926
T4
X196.698Y-78.22
X196.705Y-102.216
X206.198Y-78.22
X206.205Y-102.216
X225.066Y-78.223
X225.072Y-102.225
X234.566Y-78.223
X234.572Y-102.225
T0
M30
