  0
SECTION
  2
HEADER
  9
$ANGBASE
  50
0.0
  9
$ANGDIR
  70
1
  9
$MEASUREMENT
  70
1
  0
ENDSEC
  0
SECTION
  2
TABLES
  0
TABLE
  2
LTYPE
  70
4
  0
LTYPE
  5
40F
  2
CONTINUOUS
  70
0
  3
Solid line
  72
65
  73
0
  40
0.0
  0
LTYPE
  5
410
  2
DASHDOT
 70
0
  3
Dash Dot ____ _ ____ _
 72
65
 73
4
 40
2.0
 49
1.25
 49
-0.25
 49
0.25
 49
-0.25
  0
LTYPE
  5
411
  2
DASHED
 70
0
  3
Dashed __ __ __ __ __
 72
65
 73
2
 40
0.75
 49
0.5
 49
-0.25
  0
LTYPE
  5
43B
  2
DOTTED
 70
0
  3
Dotted .  .  .  .
 72
65
 73
2
 40
0.2
 49
0.0
 49
-0.2
  0
ENDTAB
  0
TABLE
  2
STYLE
  70
4
  0
STYLE
  2
KICAD
  70
0
  40
0
  41
1
  42
1
  50
0
  71
0
  3
isocp.shx
  0
STYLE
  2
KICADB
  70
0
  40
0
  41
1
  42
1
  50
0
  71
0
  3
isocp.shx
  0
STYLE
  2
KICADI
  70
0
  40
0
  41
1
  42
1
  50
15
  71
0
  3
isocp.shx
  0
STYLE
  2
KICADBI
  70
0
  40
0
  41
1
  42
1
  50
15
  71
0
  3
isocp.shx
  0
ENDTAB
  0
TABLE
  2
LAYER
  70
1
  0
LAYER
  2
BLACK
  70
0
  62
7
  6
CONTINUOUS
  0
ENDTAB
  0
ENDSEC
  0
SECTION
  2
ENTITIES
0
LINE
8
BLACK
6
CONTINUOUS
10
235.187
20
-97.2801
11
235.203
21
-97.2801
0
LINE
8
BLACK
6
CONTINUOUS
10
235.203
20
-97.2801
11
235.215
21
-97.2894
0
LINE
8
BLACK
6
CONTINUOUS
10
235.215
20
-97.2894
11
235.23
21
-97.2943
0
LINE
8
BLACK
6
CONTINUOUS
10
235.23
20
-97.2943
11
235.24
21
-97.3071
0
LINE
8
BLACK
6
CONTINUOUS
10
235.24
20
-97.3071
11
235.253
21
-97.3164
0
LINE
8
BLACK
6
CONTINUOUS
10
235.253
20
-97.3164
11
235.257
21
-97.3314
0
LINE
8
BLACK
6
CONTINUOUS
10
235.257
20
-97.3314
11
235.267
21
-97.3443
0
LINE
8
BLACK
6
CONTINUOUS
10
235.267
20
-97.3443
11
235.267
21
-97.3601
0
LINE
8
BLACK
6
CONTINUOUS
10
235.267
20
-97.3601
11
235.272
21
-97.3752
0
LINE
8
BLACK
6
CONTINUOUS
10
235.272
20
-97.3752
11
235.272
21
-108.725
0
LINE
8
BLACK
6
CONTINUOUS
10
235.272
20
-108.725
11
235.267
21
-108.74
0
LINE
8
BLACK
6
CONTINUOUS
10
235.267
20
-108.74
11
235.267
21
-108.756
0
LINE
8
BLACK
6
CONTINUOUS
10
235.267
20
-108.756
11
235.257
21
-108.769
0
LINE
8
BLACK
6
CONTINUOUS
10
235.257
20
-108.769
11
235.253
21
-108.784
0
LINE
8
BLACK
6
CONTINUOUS
10
235.253
20
-108.784
11
235.24
21
-108.793
0
LINE
8
BLACK
6
CONTINUOUS
10
235.24
20
-108.793
11
235.23
21
-108.806
0
LINE
8
BLACK
6
CONTINUOUS
10
235.23
20
-108.806
11
235.215
21
-108.811
0
LINE
8
BLACK
6
CONTINUOUS
10
235.215
20
-108.811
11
235.203
21
-108.82
0
LINE
8
BLACK
6
CONTINUOUS
10
235.203
20
-108.82
11
235.187
21
-108.82
0
LINE
8
BLACK
6
CONTINUOUS
10
235.187
20
-108.82
11
235.172
21
-108.825
0
LINE
8
BLACK
6
CONTINUOUS
10
235.172
20
-108.825
11
224.472
21
-108.825
0
LINE
8
BLACK
6
CONTINUOUS
10
224.472
20
-108.825
11
224.457
21
-108.82
0
LINE
8
BLACK
6
CONTINUOUS
10
224.457
20
-108.82
11
224.441
21
-108.82
0
LINE
8
BLACK
6
CONTINUOUS
10
224.441
20
-108.82
11
224.428
21
-108.811
0
LINE
8
BLACK
6
CONTINUOUS
10
224.428
20
-108.811
11
224.413
21
-108.806
0
LINE
8
BLACK
6
CONTINUOUS
10
224.413
20
-108.806
11
224.404
21
-108.793
0
LINE
8
BLACK
6
CONTINUOUS
10
224.404
20
-108.793
11
224.391
21
-108.784
0
LINE
8
BLACK
6
CONTINUOUS
10
224.391
20
-108.784
11
224.386
21
-108.769
0
LINE
8
BLACK
6
CONTINUOUS
10
224.386
20
-108.769
11
224.377
21
-108.756
0
LINE
8
BLACK
6
CONTINUOUS
10
224.377
20
-108.756
11
224.377
21
-108.74
0
LINE
8
BLACK
6
CONTINUOUS
10
224.377
20
-108.74
11
224.372
21
-108.725
0
LINE
8
BLACK
6
CONTINUOUS
10
224.372
20
-108.725
11
224.372
21
-97.3752
0
LINE
8
BLACK
6
CONTINUOUS
10
224.372
20
-97.3752
11
224.377
21
-97.3601
0
LINE
8
BLACK
6
CONTINUOUS
10
224.377
20
-97.3601
11
224.377
21
-97.3443
0
LINE
8
BLACK
6
CONTINUOUS
10
224.377
20
-97.3443
11
224.386
21
-97.3314
0
LINE
8
BLACK
6
CONTINUOUS
10
224.386
20
-97.3314
11
224.391
21
-97.3164
0
LINE
8
BLACK
6
CONTINUOUS
10
224.391
20
-97.3164
11
224.404
21
-97.3071
0
LINE
8
BLACK
6
CONTINUOUS
10
224.404
20
-97.3071
11
224.413
21
-97.2943
0
LINE
8
BLACK
6
CONTINUOUS
10
224.413
20
-97.2943
11
224.428
21
-97.2894
0
LINE
8
BLACK
6
CONTINUOUS
10
224.428
20
-97.2894
11
224.441
21
-97.2801
0
LINE
8
BLACK
6
CONTINUOUS
10
224.441
20
-97.2801
11
224.457
21
-97.2801
0
LINE
8
BLACK
6
CONTINUOUS
10
224.457
20
-97.2801
11
224.472
21
-97.2752
0
LINE
8
BLACK
6
CONTINUOUS
10
224.472
20
-97.2752
11
235.172
21
-97.2752
0
LINE
8
BLACK
6
CONTINUOUS
10
235.172
20
-97.2752
11
235.187
21
-97.2801
0
LINE
8
BLACK
6
CONTINUOUS
10
224.572
20
-97.4752
11
224.572
21
-108.625
0
LINE
8
BLACK
6
CONTINUOUS
10
224.572
20
-108.625
11
235.072
21
-108.625
0
LINE
8
BLACK
6
CONTINUOUS
10
235.072
20
-108.625
11
235.072
21
-97.4752
0
LINE
8
BLACK
6
CONTINUOUS
10
235.072
20
-97.4752
11
224.572
21
-97.4752
0
LINE
8
BLACK
6
CONTINUOUS
10
229.508
20
-103.406
11
229.549
21
-103.465
0
LINE
8
BLACK
6
CONTINUOUS
10
229.549
20
-103.465
11
229.852
21
-104.373
0
LINE
8
BLACK
6
CONTINUOUS
10
229.852
20
-104.373
11
230.155
21
-103.465
0
LINE
8
BLACK
6
CONTINUOUS
10
230.155
20
-103.465
11
230.171
21
-103.432
0
LINE
8
BLACK
6
CONTINUOUS
10
230.171
20
-103.432
11
230.227
21
-103.387
0
LINE
8
BLACK
6
CONTINUOUS
10
230.227
20
-103.387
11
230.298
21
-103.38
0
LINE
8
BLACK
6
CONTINUOUS
10
230.298
20
-103.38
11
230.362
21
-103.412
0
LINE
8
BLACK
6
CONTINUOUS
10
230.362
20
-103.412
11
230.398
21
-103.473
0
LINE
8
BLACK
6
CONTINUOUS
10
230.398
20
-103.473
11
230.396
21
-103.545
0
LINE
8
BLACK
6
CONTINUOUS
10
230.396
20
-103.545
11
229.972
21
-104.815
0
LINE
8
BLACK
6
CONTINUOUS
10
229.972
20
-104.815
11
229.962
21
-104.835
0
LINE
8
BLACK
6
CONTINUOUS
10
229.962
20
-104.835
11
229.961
21
-104.84
0
LINE
8
BLACK
6
CONTINUOUS
10
229.961
20
-104.84
11
229.959
21
-104.842
0
LINE
8
BLACK
6
CONTINUOUS
10
229.959
20
-104.842
11
229.956
21
-104.847
0
LINE
8
BLACK
6
CONTINUOUS
10
229.956
20
-104.847
11
229.932
21
-104.867
0
LINE
8
BLACK
6
CONTINUOUS
10
229.932
20
-104.867
11
229.909
21
-104.888
0
LINE
8
BLACK
6
CONTINUOUS
10
229.909
20
-104.888
11
229.904
21
-104.889
0
LINE
8
BLACK
6
CONTINUOUS
10
229.904
20
-104.889
11
229.9
21
-104.892
0
LINE
8
BLACK
6
CONTINUOUS
10
229.9
20
-104.892
11
229.869
21
-104.895
0
LINE
8
BLACK
6
CONTINUOUS
10
229.869
20
-104.895
11
229.838
21
-104.901
0
LINE
8
BLACK
6
CONTINUOUS
10
229.838
20
-104.901
11
229.834
21
-104.899
0
LINE
8
BLACK
6
CONTINUOUS
10
229.834
20
-104.899
11
229.829
21
-104.9
0
LINE
8
BLACK
6
CONTINUOUS
10
229.829
20
-104.9
11
229.801
21
-104.886
0
LINE
8
BLACK
6
CONTINUOUS
10
229.801
20
-104.886
11
229.772
21
-104.874
0
LINE
8
BLACK
6
CONTINUOUS
10
229.772
20
-104.874
11
229.769
21
-104.87
0
LINE
8
BLACK
6
CONTINUOUS
10
229.769
20
-104.87
11
229.765
21
-104.868
0
LINE
8
BLACK
6
CONTINUOUS
10
229.765
20
-104.868
11
229.749
21
-104.841
0
LINE
8
BLACK
6
CONTINUOUS
10
229.749
20
-104.841
11
229.731
21
-104.815
0
LINE
8
BLACK
6
CONTINUOUS
10
229.731
20
-104.815
11
229.308
21
-103.545
0
LINE
8
BLACK
6
CONTINUOUS
10
229.308
20
-103.545
11
229.302
21
-103.509
0
LINE
8
BLACK
6
CONTINUOUS
10
229.302
20
-103.509
11
229.319
21
-103.44
0
LINE
8
BLACK
6
CONTINUOUS
10
229.319
20
-103.44
11
229.372
21
-103.391
0
LINE
8
BLACK
6
CONTINUOUS
10
229.372
20
-103.391
11
229.442
21
-103.378
0
LINE
8
BLACK
6
CONTINUOUS
10
229.442
20
-103.378
11
229.508
21
-103.406
0
LINE
8
BLACK
6
CONTINUOUS
10
228.86
20
-103.383
11
228.869
21
-103.389
0
LINE
8
BLACK
6
CONTINUOUS
10
228.869
20
-103.389
11
228.881
21
-103.391
0
LINE
8
BLACK
6
CONTINUOUS
10
228.881
20
-103.391
11
229.002
21
-103.452
0
LINE
8
BLACK
6
CONTINUOUS
10
229.002
20
-103.452
11
229.031
21
-103.472
0
LINE
8
BLACK
6
CONTINUOUS
10
229.031
20
-103.472
11
229.033
21
-103.474
0
LINE
8
BLACK
6
CONTINUOUS
10
229.033
20
-103.474
11
229.035
21
-103.475
0
LINE
8
BLACK
6
CONTINUOUS
10
229.035
20
-103.475
11
229.095
21
-103.536
0
LINE
8
BLACK
6
CONTINUOUS
10
229.095
20
-103.536
11
229.117
21
-103.565
0
LINE
8
BLACK
6
CONTINUOUS
10
229.117
20
-103.565
11
229.117
21
-103.567
0
LINE
8
BLACK
6
CONTINUOUS
10
229.117
20
-103.567
11
229.119
21
-103.569
0
LINE
8
BLACK
6
CONTINUOUS
10
229.119
20
-103.569
11
229.179
21
-103.69
0
LINE
8
BLACK
6
CONTINUOUS
10
229.179
20
-103.69
11
229.191
21
-103.724
0
LINE
8
BLACK
6
CONTINUOUS
10
229.191
20
-103.724
11
229.189
21
-103.736
0
LINE
8
BLACK
6
CONTINUOUS
10
229.189
20
-103.736
11
229.193
21
-103.747
0
LINE
8
BLACK
6
CONTINUOUS
10
229.193
20
-103.747
11
229.193
21
-103.928
0
LINE
8
BLACK
6
CONTINUOUS
10
229.193
20
-103.928
11
229.187
21
-103.964
0
LINE
8
BLACK
6
CONTINUOUS
10
229.187
20
-103.964
11
229.181
21
-103.974
0
LINE
8
BLACK
6
CONTINUOUS
10
229.181
20
-103.974
11
229.179
21
-103.985
0
LINE
8
BLACK
6
CONTINUOUS
10
229.179
20
-103.985
11
229.119
21
-104.106
0
LINE
8
BLACK
6
CONTINUOUS
10
229.119
20
-104.106
11
229.098
21
-104.136
0
LINE
8
BLACK
6
CONTINUOUS
10
229.098
20
-104.136
11
229.096
21
-104.137
0
LINE
8
BLACK
6
CONTINUOUS
10
229.096
20
-104.137
11
229.095
21
-104.139
0
LINE
8
BLACK
6
CONTINUOUS
10
229.095
20
-104.139
11
229.035
21
-104.199
0
LINE
8
BLACK
6
CONTINUOUS
10
229.035
20
-104.199
11
229.005
21
-104.221
0
LINE
8
BLACK
6
CONTINUOUS
10
229.005
20
-104.221
11
229.003
21
-104.222
0
LINE
8
BLACK
6
CONTINUOUS
10
229.003
20
-104.222
11
229.002
21
-104.223
0
LINE
8
BLACK
6
CONTINUOUS
10
229.002
20
-104.223
11
228.881
21
-104.284
0
LINE
8
BLACK
6
CONTINUOUS
10
228.881
20
-104.284
11
228.878
21
-104.285
0
LINE
8
BLACK
6
CONTINUOUS
10
228.878
20
-104.285
11
229.17
21
-104.702
0
LINE
8
BLACK
6
CONTINUOUS
10
229.17
20
-104.702
11
229.186
21
-104.734
0
LINE
8
BLACK
6
CONTINUOUS
10
229.186
20
-104.734
11
229.189
21
-104.806
0
LINE
8
BLACK
6
CONTINUOUS
10
229.189
20
-104.806
11
229.152
21
-104.867
0
LINE
8
BLACK
6
CONTINUOUS
10
229.152
20
-104.867
11
229.089
21
-104.9
0
LINE
8
BLACK
6
CONTINUOUS
10
229.089
20
-104.9
11
229.017
21
-104.892
0
LINE
8
BLACK
6
CONTINUOUS
10
229.017
20
-104.892
11
228.962
21
-104.848
0
LINE
8
BLACK
6
CONTINUOUS
10
228.962
20
-104.848
11
228.576
21
-104.297
0
LINE
8
BLACK
6
CONTINUOUS
10
228.576
20
-104.297
11
228.467
21
-104.297
0
LINE
8
BLACK
6
CONTINUOUS
10
228.467
20
-104.297
11
228.467
21
-104.775
0
LINE
8
BLACK
6
CONTINUOUS
10
228.467
20
-104.775
11
228.462
21
-104.811
0
LINE
8
BLACK
6
CONTINUOUS
10
228.462
20
-104.811
11
228.423
21
-104.871
0
LINE
8
BLACK
6
CONTINUOUS
10
228.423
20
-104.871
11
228.358
21
-104.9
0
LINE
8
BLACK
6
CONTINUOUS
10
228.358
20
-104.9
11
228.287
21
-104.89
0
LINE
8
BLACK
6
CONTINUOUS
10
228.287
20
-104.89
11
228.233
21
-104.843
0
LINE
8
BLACK
6
CONTINUOUS
10
228.233
20
-104.843
11
228.213
21
-104.775
0
LINE
8
BLACK
6
CONTINUOUS
10
228.213
20
-104.775
11
228.213
21
-103.505
0
LINE
8
BLACK
6
CONTINUOUS
10
228.213
20
-103.505
11
228.218
21
-103.469
0
LINE
8
BLACK
6
CONTINUOUS
10
228.218
20
-103.469
11
228.223
21
-103.461
0
LINE
8
BLACK
6
CONTINUOUS
10
228.223
20
-103.461
11
228.224
21
-103.452
0
LINE
8
BLACK
6
CONTINUOUS
10
228.224
20
-103.452
11
228.242
21
-103.431
0
LINE
8
BLACK
6
CONTINUOUS
10
228.242
20
-103.431
11
228.257
21
-103.409
0
LINE
8
BLACK
6
CONTINUOUS
10
228.257
20
-103.409
11
228.265
21
-103.405
0
LINE
8
BLACK
6
CONTINUOUS
10
228.265
20
-103.405
11
228.271
21
-103.398
0
LINE
8
BLACK
6
CONTINUOUS
10
228.271
20
-103.398
11
228.297
21
-103.39
0
LINE
8
BLACK
6
CONTINUOUS
10
228.297
20
-103.39
11
228.322
21
-103.379
0
LINE
8
BLACK
6
CONTINUOUS
10
228.322
20
-103.379
11
228.331
21
-103.38
0
LINE
8
BLACK
6
CONTINUOUS
10
228.331
20
-103.38
11
228.34
21
-103.378
0
LINE
8
BLACK
6
CONTINUOUS
10
228.34
20
-103.378
11
228.824
21
-103.378
0
LINE
8
BLACK
6
CONTINUOUS
10
228.824
20
-103.378
11
228.86
21
-103.383
0
LINE
8
BLACK
6
CONTINUOUS
10
228.467
20
-103.632
11
228.467
21
-104.043
0
LINE
8
BLACK
6
CONTINUOUS
10
228.467
20
-104.043
11
228.794
21
-104.043
0
LINE
8
BLACK
6
CONTINUOUS
10
228.794
20
-104.043
11
228.869
21
-104.005
0
LINE
8
BLACK
6
CONTINUOUS
10
228.869
20
-104.005
11
228.901
21
-103.974
0
LINE
8
BLACK
6
CONTINUOUS
10
228.901
20
-103.974
11
228.939
21
-103.898
0
LINE
8
BLACK
6
CONTINUOUS
10
228.939
20
-103.898
11
228.939
21
-103.777
0
LINE
8
BLACK
6
CONTINUOUS
10
228.939
20
-103.777
11
228.901
21
-103.701
0
LINE
8
BLACK
6
CONTINUOUS
10
228.901
20
-103.701
11
228.869
21
-103.67
0
LINE
8
BLACK
6
CONTINUOUS
10
228.869
20
-103.67
11
228.794
21
-103.632
0
LINE
8
BLACK
6
CONTINUOUS
10
228.794
20
-103.632
11
228.467
21
-103.632
0
LINE
8
BLACK
6
CONTINUOUS
10
231.027
20
-103.351
11
231.064
21
-103.413
0
LINE
8
BLACK
6
CONTINUOUS
10
231.064
20
-103.413
11
231.061
21
-103.484
0
LINE
8
BLACK
6
CONTINUOUS
10
231.061
20
-103.484
11
230.814
21
-104.224
0
LINE
8
BLACK
6
CONTINUOUS
10
230.814
20
-104.224
11
231.116
21
-104.224
0
LINE
8
BLACK
6
CONTINUOUS
10
231.116
20
-104.224
11
231.116
21
-103.928
0
LINE
8
BLACK
6
CONTINUOUS
10
231.116
20
-103.928
11
231.121
21
-103.892
0
LINE
8
BLACK
6
CONTINUOUS
10
231.121
20
-103.892
11
231.16
21
-103.832
0
LINE
8
BLACK
6
CONTINUOUS
10
231.16
20
-103.832
11
231.225
21
-103.802
0
LINE
8
BLACK
6
CONTINUOUS
10
231.225
20
-103.802
11
231.296
21
-103.813
0
LINE
8
BLACK
6
CONTINUOUS
10
231.296
20
-103.813
11
231.35
21
-103.859
0
LINE
8
BLACK
6
CONTINUOUS
10
231.35
20
-103.859
11
231.37
21
-103.928
0
LINE
8
BLACK
6
CONTINUOUS
10
231.37
20
-103.928
11
231.37
21
-104.224
0
LINE
8
BLACK
6
CONTINUOUS
10
231.37
20
-104.224
11
231.424
21
-104.224
0
LINE
8
BLACK
6
CONTINUOUS
10
231.424
20
-104.224
11
231.46
21
-104.23
0
LINE
8
BLACK
6
CONTINUOUS
10
231.46
20
-104.23
11
231.52
21
-104.268
0
LINE
8
BLACK
6
CONTINUOUS
10
231.52
20
-104.268
11
231.55
21
-104.333
0
LINE
8
BLACK
6
CONTINUOUS
10
231.55
20
-104.333
11
231.54
21
-104.404
0
LINE
8
BLACK
6
CONTINUOUS
10
231.54
20
-104.404
11
231.493
21
-104.458
0
LINE
8
BLACK
6
CONTINUOUS
10
231.493
20
-104.458
11
231.424
21
-104.478
0
LINE
8
BLACK
6
CONTINUOUS
10
231.424
20
-104.478
11
231.37
21
-104.478
0
LINE
8
BLACK
6
CONTINUOUS
10
231.37
20
-104.478
11
231.37
21
-104.775
0
LINE
8
BLACK
6
CONTINUOUS
10
231.37
20
-104.775
11
231.365
21
-104.811
0
LINE
8
BLACK
6
CONTINUOUS
10
231.365
20
-104.811
11
231.326
21
-104.871
0
LINE
8
BLACK
6
CONTINUOUS
10
231.326
20
-104.871
11
231.261
21
-104.9
0
LINE
8
BLACK
6
CONTINUOUS
10
231.261
20
-104.9
11
231.19
21
-104.89
0
LINE
8
BLACK
6
CONTINUOUS
10
231.19
20
-104.89
11
231.136
21
-104.843
0
LINE
8
BLACK
6
CONTINUOUS
10
231.136
20
-104.843
11
231.116
21
-104.775
0
LINE
8
BLACK
6
CONTINUOUS
10
231.116
20
-104.775
11
231.116
21
-104.478
0
LINE
8
BLACK
6
CONTINUOUS
10
231.116
20
-104.478
11
230.638
21
-104.478
0
LINE
8
BLACK
6
CONTINUOUS
10
230.638
20
-104.478
11
230.62
21
-104.476
0
LINE
8
BLACK
6
CONTINUOUS
10
230.62
20
-104.476
11
230.615
21
-104.476
0
LINE
8
BLACK
6
CONTINUOUS
10
230.615
20
-104.476
11
230.612
21
-104.475
0
LINE
8
BLACK
6
CONTINUOUS
10
230.612
20
-104.475
11
230.602
21
-104.473
0
LINE
8
BLACK
6
CONTINUOUS
10
230.602
20
-104.473
11
230.577
21
-104.457
0
LINE
8
BLACK
6
CONTINUOUS
10
230.577
20
-104.457
11
230.551
21
-104.444
0
LINE
8
BLACK
6
CONTINUOUS
10
230.551
20
-104.444
11
230.548
21
-104.438
0
LINE
8
BLACK
6
CONTINUOUS
10
230.548
20
-104.438
11
230.542
21
-104.434
0
LINE
8
BLACK
6
CONTINUOUS
10
230.542
20
-104.434
11
230.53
21
-104.408
0
LINE
8
BLACK
6
CONTINUOUS
10
230.53
20
-104.408
11
230.515
21
-104.383
0
LINE
8
BLACK
6
CONTINUOUS
10
230.515
20
-104.383
11
230.515
21
-104.376
0
LINE
8
BLACK
6
CONTINUOUS
10
230.515
20
-104.376
11
230.512
21
-104.369
0
LINE
8
BLACK
6
CONTINUOUS
10
230.512
20
-104.369
11
230.516
21
-104.34
0
LINE
8
BLACK
6
CONTINUOUS
10
230.516
20
-104.34
11
230.518
21
-104.311
0
LINE
8
BLACK
6
CONTINUOUS
10
230.518
20
-104.311
11
230.82
21
-103.404
0
LINE
8
BLACK
6
CONTINUOUS
10
230.82
20
-103.404
11
230.836
21
-103.371
0
LINE
8
BLACK
6
CONTINUOUS
10
230.836
20
-103.371
11
230.892
21
-103.327
0
LINE
8
BLACK
6
CONTINUOUS
10
230.892
20
-103.327
11
230.963
21
-103.319
0
LINE
8
BLACK
6
CONTINUOUS
10
230.963
20
-103.319
11
231.027
21
-103.351
0
LINE
8
BLACK
6
CONTINUOUS
10
206.82
20
-97.271
11
206.836
21
-97.271
0
LINE
8
BLACK
6
CONTINUOUS
10
206.836
20
-97.271
11
206.849
21
-97.2803
0
LINE
8
BLACK
6
CONTINUOUS
10
206.849
20
-97.2803
11
206.864
21
-97.2852
0
LINE
8
BLACK
6
CONTINUOUS
10
206.864
20
-97.2852
11
206.873
21
-97.298
0
LINE
8
BLACK
6
CONTINUOUS
10
206.873
20
-97.298
11
206.886
21
-97.3073
0
LINE
8
BLACK
6
CONTINUOUS
10
206.886
20
-97.3073
11
206.891
21
-97.3224
0
LINE
8
BLACK
6
CONTINUOUS
10
206.891
20
-97.3224
11
206.9
21
-97.3352
0
LINE
8
BLACK
6
CONTINUOUS
10
206.9
20
-97.3352
11
206.9
21
-97.351
0
LINE
8
BLACK
6
CONTINUOUS
10
206.9
20
-97.351
11
206.905
21
-97.3661
0
LINE
8
BLACK
6
CONTINUOUS
10
206.905
20
-97.3661
11
206.905
21
-108.716
0
LINE
8
BLACK
6
CONTINUOUS
10
206.905
20
-108.716
11
206.9
21
-108.731
0
LINE
8
BLACK
6
CONTINUOUS
10
206.9
20
-108.731
11
206.9
21
-108.747
0
LINE
8
BLACK
6
CONTINUOUS
10
206.9
20
-108.747
11
206.891
21
-108.76
0
LINE
8
BLACK
6
CONTINUOUS
10
206.891
20
-108.76
11
206.886
21
-108.775
0
LINE
8
BLACK
6
CONTINUOUS
10
206.886
20
-108.775
11
206.873
21
-108.784
0
LINE
8
BLACK
6
CONTINUOUS
10
206.873
20
-108.784
11
206.864
21
-108.797
0
LINE
8
BLACK
6
CONTINUOUS
10
206.864
20
-108.797
11
206.849
21
-108.802
0
LINE
8
BLACK
6
CONTINUOUS
10
206.849
20
-108.802
11
206.836
21
-108.811
0
LINE
8
BLACK
6
CONTINUOUS
10
206.836
20
-108.811
11
206.82
21
-108.811
0
LINE
8
BLACK
6
CONTINUOUS
10
206.82
20
-108.811
11
206.805
21
-108.816
0
LINE
8
BLACK
6
CONTINUOUS
10
206.805
20
-108.816
11
196.105
21
-108.816
0
LINE
8
BLACK
6
CONTINUOUS
10
196.105
20
-108.816
11
196.09
21
-108.811
0
LINE
8
BLACK
6
CONTINUOUS
10
196.09
20
-108.811
11
196.074
21
-108.811
0
LINE
8
BLACK
6
CONTINUOUS
10
196.074
20
-108.811
11
196.061
21
-108.802
0
LINE
8
BLACK
6
CONTINUOUS
10
196.061
20
-108.802
11
196.046
21
-108.797
0
LINE
8
BLACK
6
CONTINUOUS
10
196.046
20
-108.797
11
196.037
21
-108.784
0
LINE
8
BLACK
6
CONTINUOUS
10
196.037
20
-108.784
11
196.024
21
-108.775
0
LINE
8
BLACK
6
CONTINUOUS
10
196.024
20
-108.775
11
196.019
21
-108.76
0
LINE
8
BLACK
6
CONTINUOUS
10
196.019
20
-108.76
11
196.01
21
-108.747
0
LINE
8
BLACK
6
CONTINUOUS
10
196.01
20
-108.747
11
196.01
21
-108.731
0
LINE
8
BLACK
6
CONTINUOUS
10
196.01
20
-108.731
11
196.005
21
-108.716
0
LINE
8
BLACK
6
CONTINUOUS
10
196.005
20
-108.716
11
196.005
21
-97.3661
0
LINE
8
BLACK
6
CONTINUOUS
10
196.005
20
-97.3661
11
196.01
21
-97.351
0
LINE
8
BLACK
6
CONTINUOUS
10
196.01
20
-97.351
11
196.01
21
-97.3352
0
LINE
8
BLACK
6
CONTINUOUS
10
196.01
20
-97.3352
11
196.019
21
-97.3224
0
LINE
8
BLACK
6
CONTINUOUS
10
196.019
20
-97.3224
11
196.024
21
-97.3073
0
LINE
8
BLACK
6
CONTINUOUS
10
196.024
20
-97.3073
11
196.037
21
-97.298
0
LINE
8
BLACK
6
CONTINUOUS
10
196.037
20
-97.298
11
196.046
21
-97.2852
0
LINE
8
BLACK
6
CONTINUOUS
10
196.046
20
-97.2852
11
196.061
21
-97.2803
0
LINE
8
BLACK
6
CONTINUOUS
10
196.061
20
-97.2803
11
196.074
21
-97.271
0
LINE
8
BLACK
6
CONTINUOUS
10
196.074
20
-97.271
11
196.09
21
-97.271
0
LINE
8
BLACK
6
CONTINUOUS
10
196.09
20
-97.271
11
196.105
21
-97.2661
0
LINE
8
BLACK
6
CONTINUOUS
10
196.105
20
-97.2661
11
206.805
21
-97.2661
0
LINE
8
BLACK
6
CONTINUOUS
10
206.805
20
-97.2661
11
206.82
21
-97.271
0
LINE
8
BLACK
6
CONTINUOUS
10
196.205
20
-97.4661
11
196.205
21
-108.616
0
LINE
8
BLACK
6
CONTINUOUS
10
196.205
20
-108.616
11
206.705
21
-108.616
0
LINE
8
BLACK
6
CONTINUOUS
10
206.705
20
-108.616
11
206.705
21
-97.4661
0
LINE
8
BLACK
6
CONTINUOUS
10
206.705
20
-97.4661
11
196.205
21
-97.4661
0
LINE
8
BLACK
6
CONTINUOUS
10
202.998
20
-103.369
11
202.998
21
-103.369
0
LINE
8
BLACK
6
CONTINUOUS
10
202.998
20
-103.369
11
202.999
21
-103.369
0
LINE
8
BLACK
6
CONTINUOUS
10
202.999
20
-103.369
11
203.033
21
-103.374
0
LINE
8
BLACK
6
CONTINUOUS
10
203.033
20
-103.374
11
203.049
21
-103.384
0
LINE
8
BLACK
6
CONTINUOUS
10
203.049
20
-103.384
11
203.066
21
-103.389
0
LINE
8
BLACK
6
CONTINUOUS
10
203.066
20
-103.389
11
203.078
21
-103.403
0
LINE
8
BLACK
6
CONTINUOUS
10
203.078
20
-103.403
11
203.093
21
-103.413
0
LINE
8
BLACK
6
CONTINUOUS
10
203.093
20
-103.413
11
203.101
21
-103.429
0
LINE
8
BLACK
6
CONTINUOUS
10
203.101
20
-103.429
11
203.113
21
-103.444
0
LINE
8
BLACK
6
CONTINUOUS
10
203.113
20
-103.444
11
203.115
21
-103.461
0
LINE
8
BLACK
6
CONTINUOUS
10
203.115
20
-103.461
11
203.123
21
-103.478
0
LINE
8
BLACK
6
CONTINUOUS
10
203.123
20
-103.478
11
203.12
21
-103.496
0
LINE
8
BLACK
6
CONTINUOUS
10
203.12
20
-103.496
11
203.123
21
-103.514
0
LINE
8
BLACK
6
CONTINUOUS
10
203.123
20
-103.514
11
203.115
21
-103.531
0
LINE
8
BLACK
6
CONTINUOUS
10
203.115
20
-103.531
11
203.113
21
-103.548
0
LINE
8
BLACK
6
CONTINUOUS
10
203.113
20
-103.548
11
203.1
21
-103.562
0
LINE
8
BLACK
6
CONTINUOUS
10
203.1
20
-103.562
11
203.093
21
-103.579
0
LINE
8
BLACK
6
CONTINUOUS
10
203.093
20
-103.579
11
202.833
21
-103.876
0
LINE
8
BLACK
6
CONTINUOUS
10
202.833
20
-103.876
11
202.933
21
-103.926
0
LINE
8
BLACK
6
CONTINUOUS
10
202.933
20
-103.926
11
202.963
21
-103.947
0
LINE
8
BLACK
6
CONTINUOUS
10
202.963
20
-103.947
11
202.964
21
-103.949
0
LINE
8
BLACK
6
CONTINUOUS
10
202.964
20
-103.949
11
202.966
21
-103.95
0
LINE
8
BLACK
6
CONTINUOUS
10
202.966
20
-103.95
11
203.026
21
-104.011
0
LINE
8
BLACK
6
CONTINUOUS
10
203.026
20
-104.011
11
203.048
21
-104.04
0
LINE
8
BLACK
6
CONTINUOUS
10
203.048
20
-104.04
11
203.049
21
-104.042
0
LINE
8
BLACK
6
CONTINUOUS
10
203.049
20
-104.042
11
203.05
21
-104.044
0
LINE
8
BLACK
6
CONTINUOUS
10
203.05
20
-104.044
11
203.111
21
-104.165
0
LINE
8
BLACK
6
CONTINUOUS
10
203.111
20
-104.165
11
203.122
21
-104.199
0
LINE
8
BLACK
6
CONTINUOUS
10
203.122
20
-104.199
11
203.121
21
-104.21
0
LINE
8
BLACK
6
CONTINUOUS
10
203.121
20
-104.21
11
203.124
21
-104.221
0
LINE
8
BLACK
6
CONTINUOUS
10
203.124
20
-104.221
11
203.124
21
-104.524
0
LINE
8
BLACK
6
CONTINUOUS
10
203.124
20
-104.524
11
203.119
21
-104.56
0
LINE
8
BLACK
6
CONTINUOUS
10
203.119
20
-104.56
11
203.113
21
-104.569
0
LINE
8
BLACK
6
CONTINUOUS
10
203.113
20
-104.569
11
203.111
21
-104.581
0
LINE
8
BLACK
6
CONTINUOUS
10
203.111
20
-104.581
11
203.05
21
-104.701
0
LINE
8
BLACK
6
CONTINUOUS
10
203.05
20
-104.701
11
203.029
21
-104.731
0
LINE
8
BLACK
6
CONTINUOUS
10
203.029
20
-104.731
11
203.027
21
-104.733
0
LINE
8
BLACK
6
CONTINUOUS
10
203.027
20
-104.733
11
203.026
21
-104.734
0
LINE
8
BLACK
6
CONTINUOUS
10
203.026
20
-104.734
11
202.966
21
-104.795
0
LINE
8
BLACK
6
CONTINUOUS
10
202.966
20
-104.795
11
202.937
21
-104.817
0
LINE
8
BLACK
6
CONTINUOUS
10
202.937
20
-104.817
11
202.935
21
-104.817
0
LINE
8
BLACK
6
CONTINUOUS
10
202.935
20
-104.817
11
202.933
21
-104.819
0
LINE
8
BLACK
6
CONTINUOUS
10
202.933
20
-104.819
11
202.812
21
-104.879
0
LINE
8
BLACK
6
CONTINUOUS
10
202.812
20
-104.879
11
202.777
21
-104.891
0
LINE
8
BLACK
6
CONTINUOUS
10
202.777
20
-104.891
11
202.766
21
-104.889
0
LINE
8
BLACK
6
CONTINUOUS
10
202.766
20
-104.889
11
202.755
21
-104.893
0
LINE
8
BLACK
6
CONTINUOUS
10
202.755
20
-104.893
11
202.392
21
-104.893
0
LINE
8
BLACK
6
CONTINUOUS
10
202.392
20
-104.893
11
202.356
21
-104.887
0
LINE
8
BLACK
6
CONTINUOUS
10
202.356
20
-104.887
11
202.347
21
-104.881
0
LINE
8
BLACK
6
CONTINUOUS
10
202.347
20
-104.881
11
202.335
21
-104.879
0
LINE
8
BLACK
6
CONTINUOUS
10
202.335
20
-104.879
11
202.215
21
-104.819
0
LINE
8
BLACK
6
CONTINUOUS
10
202.215
20
-104.819
11
202.185
21
-104.798
0
LINE
8
BLACK
6
CONTINUOUS
10
202.185
20
-104.798
11
202.183
21
-104.796
0
LINE
8
BLACK
6
CONTINUOUS
10
202.183
20
-104.796
11
202.182
21
-104.795
0
LINE
8
BLACK
6
CONTINUOUS
10
202.182
20
-104.795
11
202.121
21
-104.734
0
LINE
8
BLACK
6
CONTINUOUS
10
202.121
20
-104.734
11
202.099
21
-104.705
0
LINE
8
BLACK
6
CONTINUOUS
10
202.099
20
-104.705
11
202.084
21
-104.635
0
LINE
8
BLACK
6
CONTINUOUS
10
202.084
20
-104.635
11
202.109
21
-104.568
0
LINE
8
BLACK
6
CONTINUOUS
10
202.109
20
-104.568
11
202.167
21
-104.526
0
LINE
8
BLACK
6
CONTINUOUS
10
202.167
20
-104.526
11
202.238
21
-104.521
0
LINE
8
BLACK
6
CONTINUOUS
10
202.238
20
-104.521
11
202.301
21
-104.555
0
LINE
8
BLACK
6
CONTINUOUS
10
202.301
20
-104.555
11
202.347
21
-104.601
0
LINE
8
BLACK
6
CONTINUOUS
10
202.347
20
-104.601
11
202.422
21
-104.639
0
LINE
8
BLACK
6
CONTINUOUS
10
202.422
20
-104.639
11
202.725
21
-104.639
0
LINE
8
BLACK
6
CONTINUOUS
10
202.725
20
-104.639
11
202.801
21
-104.601
0
LINE
8
BLACK
6
CONTINUOUS
10
202.801
20
-104.601
11
202.832
21
-104.569
0
LINE
8
BLACK
6
CONTINUOUS
10
202.832
20
-104.569
11
202.87
21
-104.494
0
LINE
8
BLACK
6
CONTINUOUS
10
202.87
20
-104.494
11
202.87
21
-104.251
0
LINE
8
BLACK
6
CONTINUOUS
10
202.87
20
-104.251
11
202.832
21
-104.176
0
LINE
8
BLACK
6
CONTINUOUS
10
202.832
20
-104.176
11
202.801
21
-104.144
0
LINE
8
BLACK
6
CONTINUOUS
10
202.801
20
-104.144
11
202.725
21
-104.106
0
LINE
8
BLACK
6
CONTINUOUS
10
202.725
20
-104.106
11
202.574
21
-104.106
0
LINE
8
BLACK
6
CONTINUOUS
10
202.574
20
-104.106
11
202.573
21
-104.106
0
LINE
8
BLACK
6
CONTINUOUS
10
202.573
20
-104.106
11
202.573
21
-104.106
0
LINE
8
BLACK
6
CONTINUOUS
10
202.573
20
-104.106
11
202.572
21
-104.106
0
LINE
8
BLACK
6
CONTINUOUS
10
202.572
20
-104.106
11
202.538
21
-104.101
0
LINE
8
BLACK
6
CONTINUOUS
10
202.538
20
-104.101
11
202.522
21
-104.091
0
LINE
8
BLACK
6
CONTINUOUS
10
202.522
20
-104.091
11
202.504
21
-104.086
0
LINE
8
BLACK
6
CONTINUOUS
10
202.504
20
-104.086
11
202.493
21
-104.072
0
LINE
8
BLACK
6
CONTINUOUS
10
202.493
20
-104.072
11
202.478
21
-104.062
0
LINE
8
BLACK
6
CONTINUOUS
10
202.478
20
-104.062
11
202.47
21
-104.046
0
LINE
8
BLACK
6
CONTINUOUS
10
202.47
20
-104.046
11
202.458
21
-104.032
0
LINE
8
BLACK
6
CONTINUOUS
10
202.458
20
-104.032
11
202.455
21
-104.014
0
LINE
8
BLACK
6
CONTINUOUS
10
202.455
20
-104.014
11
202.448
21
-103.997
0
LINE
8
BLACK
6
CONTINUOUS
10
202.448
20
-103.997
11
202.451
21
-103.979
0
LINE
8
BLACK
6
CONTINUOUS
10
202.451
20
-103.979
11
202.448
21
-103.961
0
LINE
8
BLACK
6
CONTINUOUS
10
202.448
20
-103.961
11
202.456
21
-103.944
0
LINE
8
BLACK
6
CONTINUOUS
10
202.456
20
-103.944
11
202.458
21
-103.927
0
LINE
8
BLACK
6
CONTINUOUS
10
202.458
20
-103.927
11
202.47
21
-103.913
0
LINE
8
BLACK
6
CONTINUOUS
10
202.47
20
-103.913
11
202.478
21
-103.896
0
LINE
8
BLACK
6
CONTINUOUS
10
202.478
20
-103.896
11
202.717
21
-103.623
0
LINE
8
BLACK
6
CONTINUOUS
10
202.717
20
-103.623
11
202.211
21
-103.623
0
LINE
8
BLACK
6
CONTINUOUS
10
202.211
20
-103.623
11
202.175
21
-103.617
0
LINE
8
BLACK
6
CONTINUOUS
10
202.175
20
-103.617
11
202.115
21
-103.579
0
LINE
8
BLACK
6
CONTINUOUS
10
202.115
20
-103.579
11
202.085
21
-103.514
0
LINE
8
BLACK
6
CONTINUOUS
10
202.085
20
-103.514
11
202.095
21
-103.443
0
LINE
8
BLACK
6
CONTINUOUS
10
202.095
20
-103.443
11
202.142
21
-103.389
0
LINE
8
BLACK
6
CONTINUOUS
10
202.142
20
-103.389
11
202.211
21
-103.369
0
LINE
8
BLACK
6
CONTINUOUS
10
202.211
20
-103.369
11
202.997
21
-103.369
0
LINE
8
BLACK
6
CONTINUOUS
10
202.997
20
-103.369
11
202.998
21
-103.369
0
LINE
8
BLACK
6
CONTINUOUS
10
201.142
20
-103.397
11
201.182
21
-103.455
0
LINE
8
BLACK
6
CONTINUOUS
10
201.182
20
-103.455
11
201.485
21
-104.364
0
LINE
8
BLACK
6
CONTINUOUS
10
201.485
20
-104.364
11
201.788
21
-103.455
0
LINE
8
BLACK
6
CONTINUOUS
10
201.788
20
-103.455
11
201.804
21
-103.423
0
LINE
8
BLACK
6
CONTINUOUS
10
201.804
20
-103.423
11
201.86
21
-103.378
0
LINE
8
BLACK
6
CONTINUOUS
10
201.86
20
-103.378
11
201.931
21
-103.371
0
LINE
8
BLACK
6
CONTINUOUS
10
201.931
20
-103.371
11
201.995
21
-103.403
0
LINE
8
BLACK
6
CONTINUOUS
10
201.995
20
-103.403
11
202.032
21
-103.464
0
LINE
8
BLACK
6
CONTINUOUS
10
202.032
20
-103.464
11
202.029
21
-103.536
0
LINE
8
BLACK
6
CONTINUOUS
10
202.029
20
-103.536
11
201.606
21
-104.806
0
LINE
8
BLACK
6
CONTINUOUS
10
201.606
20
-104.806
11
201.595
21
-104.826
0
LINE
8
BLACK
6
CONTINUOUS
10
201.595
20
-104.826
11
201.594
21
-104.831
0
LINE
8
BLACK
6
CONTINUOUS
10
201.594
20
-104.831
11
201.592
21
-104.833
0
LINE
8
BLACK
6
CONTINUOUS
10
201.592
20
-104.833
11
201.589
21
-104.838
0
LINE
8
BLACK
6
CONTINUOUS
10
201.589
20
-104.838
11
201.565
21
-104.858
0
LINE
8
BLACK
6
CONTINUOUS
10
201.565
20
-104.858
11
201.542
21
-104.879
0
LINE
8
BLACK
6
CONTINUOUS
10
201.542
20
-104.879
11
201.537
21
-104.88
0
LINE
8
BLACK
6
CONTINUOUS
10
201.537
20
-104.88
11
201.533
21
-104.883
0
LINE
8
BLACK
6
CONTINUOUS
10
201.533
20
-104.883
11
201.502
21
-104.886
0
LINE
8
BLACK
6
CONTINUOUS
10
201.502
20
-104.886
11
201.472
21
-104.892
0
LINE
8
BLACK
6
CONTINUOUS
10
201.472
20
-104.892
11
201.467
21
-104.89
0
LINE
8
BLACK
6
CONTINUOUS
10
201.467
20
-104.89
11
201.462
21
-104.891
0
LINE
8
BLACK
6
CONTINUOUS
10
201.462
20
-104.891
11
201.434
21
-104.877
0
LINE
8
BLACK
6
CONTINUOUS
10
201.434
20
-104.877
11
201.405
21
-104.865
0
LINE
8
BLACK
6
CONTINUOUS
10
201.405
20
-104.865
11
201.403
21
-104.861
0
LINE
8
BLACK
6
CONTINUOUS
10
201.403
20
-104.861
11
201.398
21
-104.858
0
LINE
8
BLACK
6
CONTINUOUS
10
201.398
20
-104.858
11
201.383
21
-104.832
0
LINE
8
BLACK
6
CONTINUOUS
10
201.383
20
-104.832
11
201.365
21
-104.806
0
LINE
8
BLACK
6
CONTINUOUS
10
201.365
20
-104.806
11
200.941
21
-103.536
0
LINE
8
BLACK
6
CONTINUOUS
10
200.941
20
-103.536
11
200.935
21
-103.5
0
LINE
8
BLACK
6
CONTINUOUS
10
200.935
20
-103.5
11
200.953
21
-103.431
0
LINE
8
BLACK
6
CONTINUOUS
10
200.953
20
-103.431
11
201.005
21
-103.382
0
LINE
8
BLACK
6
CONTINUOUS
10
201.005
20
-103.382
11
201.075
21
-103.369
0
LINE
8
BLACK
6
CONTINUOUS
10
201.075
20
-103.369
11
201.142
21
-103.397
0
LINE
8
BLACK
6
CONTINUOUS
10
200.493
20
-103.374
11
200.503
21
-103.38
0
LINE
8
BLACK
6
CONTINUOUS
10
200.503
20
-103.38
11
200.514
21
-103.382
0
LINE
8
BLACK
6
CONTINUOUS
10
200.514
20
-103.382
11
200.635
21
-103.443
0
LINE
8
BLACK
6
CONTINUOUS
10
200.635
20
-103.443
11
200.665
21
-103.463
0
LINE
8
BLACK
6
CONTINUOUS
10
200.665
20
-103.463
11
200.666
21
-103.465
0
LINE
8
BLACK
6
CONTINUOUS
10
200.666
20
-103.465
11
200.668
21
-103.466
0
LINE
8
BLACK
6
CONTINUOUS
10
200.668
20
-103.466
11
200.728
21
-103.527
0
LINE
8
BLACK
6
CONTINUOUS
10
200.728
20
-103.527
11
200.75
21
-103.556
0
LINE
8
BLACK
6
CONTINUOUS
10
200.75
20
-103.556
11
200.751
21
-103.558
0
LINE
8
BLACK
6
CONTINUOUS
10
200.751
20
-103.558
11
200.752
21
-103.56
0
LINE
8
BLACK
6
CONTINUOUS
10
200.752
20
-103.56
11
200.813
21
-103.681
0
LINE
8
BLACK
6
CONTINUOUS
10
200.813
20
-103.681
11
200.824
21
-103.715
0
LINE
8
BLACK
6
CONTINUOUS
10
200.824
20
-103.715
11
200.823
21
-103.727
0
LINE
8
BLACK
6
CONTINUOUS
10
200.823
20
-103.727
11
200.826
21
-103.738
0
LINE
8
BLACK
6
CONTINUOUS
10
200.826
20
-103.738
11
200.826
21
-103.919
0
LINE
8
BLACK
6
CONTINUOUS
10
200.826
20
-103.919
11
200.821
21
-103.955
0
LINE
8
BLACK
6
CONTINUOUS
10
200.821
20
-103.955
11
200.815
21
-103.965
0
LINE
8
BLACK
6
CONTINUOUS
10
200.815
20
-103.965
11
200.813
21
-103.976
0
LINE
8
BLACK
6
CONTINUOUS
10
200.813
20
-103.976
11
200.752
21
-104.097
0
LINE
8
BLACK
6
CONTINUOUS
10
200.752
20
-104.097
11
200.731
21
-104.127
0
LINE
8
BLACK
6
CONTINUOUS
10
200.731
20
-104.127
11
200.729
21
-104.128
0
LINE
8
BLACK
6
CONTINUOUS
10
200.729
20
-104.128
11
200.728
21
-104.13
0
LINE
8
BLACK
6
CONTINUOUS
10
200.728
20
-104.13
11
200.668
21
-104.19
0
LINE
8
BLACK
6
CONTINUOUS
10
200.668
20
-104.19
11
200.639
21
-104.212
0
LINE
8
BLACK
6
CONTINUOUS
10
200.639
20
-104.212
11
200.636
21
-104.212
0
LINE
8
BLACK
6
CONTINUOUS
10
200.636
20
-104.212
11
200.635
21
-104.214
0
LINE
8
BLACK
6
CONTINUOUS
10
200.635
20
-104.214
11
200.514
21
-104.274
0
LINE
8
BLACK
6
CONTINUOUS
10
200.514
20
-104.274
11
200.511
21
-104.275
0
LINE
8
BLACK
6
CONTINUOUS
10
200.511
20
-104.275
11
200.803
21
-104.693
0
LINE
8
BLACK
6
CONTINUOUS
10
200.803
20
-104.693
11
200.819
21
-104.725
0
LINE
8
BLACK
6
CONTINUOUS
10
200.819
20
-104.725
11
200.822
21
-104.797
0
LINE
8
BLACK
6
CONTINUOUS
10
200.822
20
-104.797
11
200.786
21
-104.858
0
LINE
8
BLACK
6
CONTINUOUS
10
200.786
20
-104.858
11
200.722
21
-104.891
0
LINE
8
BLACK
6
CONTINUOUS
10
200.722
20
-104.891
11
200.651
21
-104.883
0
LINE
8
BLACK
6
CONTINUOUS
10
200.651
20
-104.883
11
200.595
21
-104.838
0
LINE
8
BLACK
6
CONTINUOUS
10
200.595
20
-104.838
11
200.21
21
-104.288
0
LINE
8
BLACK
6
CONTINUOUS
10
200.21
20
-104.288
11
200.1
21
-104.288
0
LINE
8
BLACK
6
CONTINUOUS
10
200.1
20
-104.288
11
200.1
21
-104.766
0
LINE
8
BLACK
6
CONTINUOUS
10
200.1
20
-104.766
11
200.095
21
-104.802
0
LINE
8
BLACK
6
CONTINUOUS
10
200.095
20
-104.802
11
200.056
21
-104.862
0
LINE
8
BLACK
6
CONTINUOUS
10
200.056
20
-104.862
11
199.991
21
-104.891
0
LINE
8
BLACK
6
CONTINUOUS
10
199.991
20
-104.891
11
199.92
21
-104.881
0
LINE
8
BLACK
6
CONTINUOUS
10
199.92
20
-104.881
11
199.866
21
-104.834
0
LINE
8
BLACK
6
CONTINUOUS
10
199.866
20
-104.834
11
199.846
21
-104.766
0
LINE
8
BLACK
6
CONTINUOUS
10
199.846
20
-104.766
11
199.846
21
-103.496
0
LINE
8
BLACK
6
CONTINUOUS
10
199.846
20
-103.496
11
199.851
21
-103.46
0
LINE
8
BLACK
6
CONTINUOUS
10
199.851
20
-103.46
11
199.856
21
-103.452
0
LINE
8
BLACK
6
CONTINUOUS
10
199.856
20
-103.452
11
199.858
21
-103.443
0
LINE
8
BLACK
6
CONTINUOUS
10
199.858
20
-103.443
11
199.876
21
-103.422
0
LINE
8
BLACK
6
CONTINUOUS
10
199.876
20
-103.422
11
199.89
21
-103.399
0
LINE
8
BLACK
6
CONTINUOUS
10
199.89
20
-103.399
11
199.899
21
-103.396
0
LINE
8
BLACK
6
CONTINUOUS
10
199.899
20
-103.396
11
199.905
21
-103.389
0
LINE
8
BLACK
6
CONTINUOUS
10
199.905
20
-103.389
11
199.931
21
-103.381
0
LINE
8
BLACK
6
CONTINUOUS
10
199.931
20
-103.381
11
199.955
21
-103.37
0
LINE
8
BLACK
6
CONTINUOUS
10
199.955
20
-103.37
11
199.964
21
-103.371
0
LINE
8
BLACK
6
CONTINUOUS
10
199.964
20
-103.371
11
199.973
21
-103.369
0
LINE
8
BLACK
6
CONTINUOUS
10
199.973
20
-103.369
11
200.457
21
-103.369
0
LINE
8
BLACK
6
CONTINUOUS
10
200.457
20
-103.369
11
200.493
21
-103.374
0
LINE
8
BLACK
6
CONTINUOUS
10
200.1
20
-103.623
11
200.1
21
-104.034
0
LINE
8
BLACK
6
CONTINUOUS
10
200.1
20
-104.034
11
200.427
21
-104.034
0
LINE
8
BLACK
6
CONTINUOUS
10
200.427
20
-104.034
11
200.503
21
-103.996
0
LINE
8
BLACK
6
CONTINUOUS
10
200.503
20
-103.996
11
200.534
21
-103.965
0
LINE
8
BLACK
6
CONTINUOUS
10
200.534
20
-103.965
11
200.572
21
-103.889
0
LINE
8
BLACK
6
CONTINUOUS
10
200.572
20
-103.889
11
200.572
21
-103.768
0
LINE
8
BLACK
6
CONTINUOUS
10
200.572
20
-103.768
11
200.534
21
-103.692
0
LINE
8
BLACK
6
CONTINUOUS
10
200.534
20
-103.692
11
200.503
21
-103.66
0
LINE
8
BLACK
6
CONTINUOUS
10
200.503
20
-103.66
11
200.427
21
-103.623
0
LINE
8
BLACK
6
CONTINUOUS
10
200.427
20
-103.623
11
200.1
21
-103.623
0
LINE
8
BLACK
6
CONTINUOUS
10
195.567
20
-92.2133
11
195.571
21
-92.2161
0
LINE
8
BLACK
6
CONTINUOUS
10
195.571
20
-92.2161
11
195.575
21
-92.2167
0
LINE
8
BLACK
6
CONTINUOUS
10
195.575
20
-92.2167
11
195.67
21
-92.2643
0
LINE
8
BLACK
6
CONTINUOUS
10
195.67
20
-92.2643
11
195.691
21
-92.2798
0
LINE
8
BLACK
6
CONTINUOUS
10
195.691
20
-92.2798
11
195.696
21
-92.2901
0
LINE
8
BLACK
6
CONTINUOUS
10
195.696
20
-92.2901
11
195.704
21
-92.2978
0
LINE
8
BLACK
6
CONTINUOUS
10
195.704
20
-92.2978
11
195.751
21
-92.3931
0
LINE
8
BLACK
6
CONTINUOUS
10
195.751
20
-92.3931
11
195.759
21
-92.418
0
LINE
8
BLACK
6
CONTINUOUS
10
195.759
20
-92.418
11
195.758
21
-92.4224
0
LINE
8
BLACK
6
CONTINUOUS
10
195.758
20
-92.4224
11
195.759
21
-92.4266
0
LINE
8
BLACK
6
CONTINUOUS
10
195.759
20
-92.4266
11
195.759
21
-92.9504
0
LINE
8
BLACK
6
CONTINUOUS
10
195.759
20
-92.9504
11
195.755
21
-92.9761
0
LINE
8
BLACK
6
CONTINUOUS
10
195.755
20
-92.9761
11
195.722
21
-93.0154
0
LINE
8
BLACK
6
CONTINUOUS
10
195.722
20
-93.0154
11
195.671
21
-93.0243
0
LINE
8
BLACK
6
CONTINUOUS
10
195.671
20
-93.0243
11
195.642
21
-93.0076
0
LINE
8
BLACK
6
CONTINUOUS
10
195.642
20
-93.0076
11
195.623
21
-93.0175
0
LINE
8
BLACK
6
CONTINUOUS
10
195.623
20
-93.0175
11
195.598
21
-93.0249
0
LINE
8
BLACK
6
CONTINUOUS
10
195.598
20
-93.0249
11
195.593
21
-93.0239
0
LINE
8
BLACK
6
CONTINUOUS
10
195.593
20
-93.0239
11
195.589
21
-93.0254
0
LINE
8
BLACK
6
CONTINUOUS
10
195.589
20
-93.0254
11
195.351
21
-93.0254
0
LINE
8
BLACK
6
CONTINUOUS
10
195.351
20
-93.0254
11
195.325
21
-93.0209
0
LINE
8
BLACK
6
CONTINUOUS
10
195.325
20
-93.0209
11
195.322
21
-93.018
0
LINE
8
BLACK
6
CONTINUOUS
10
195.322
20
-93.018
11
195.317
21
-93.0175
0
LINE
8
BLACK
6
CONTINUOUS
10
195.317
20
-93.0175
11
195.222
21
-92.9699
0
LINE
8
BLACK
6
CONTINUOUS
10
195.222
20
-92.9699
11
195.201
21
-92.9544
0
LINE
8
BLACK
6
CONTINUOUS
10
195.201
20
-92.9544
11
195.197
21
-92.944
0
LINE
8
BLACK
6
CONTINUOUS
10
195.197
20
-92.944
11
195.189
21
-92.9363
0
LINE
8
BLACK
6
CONTINUOUS
10
195.189
20
-92.9363
11
195.141
21
-92.8411
0
LINE
8
BLACK
6
CONTINUOUS
10
195.141
20
-92.8411
11
195.134
21
-92.8161
0
LINE
8
BLACK
6
CONTINUOUS
10
195.134
20
-92.8161
11
195.135
21
-92.8118
0
LINE
8
BLACK
6
CONTINUOUS
10
195.135
20
-92.8118
11
195.133
21
-92.8075
0
LINE
8
BLACK
6
CONTINUOUS
10
195.133
20
-92.8075
11
195.133
21
-92.7123
0
LINE
8
BLACK
6
CONTINUOUS
10
195.133
20
-92.7123
11
195.138
21
-92.6867
0
LINE
8
BLACK
6
CONTINUOUS
10
195.138
20
-92.6867
11
195.14
21
-92.6832
0
LINE
8
BLACK
6
CONTINUOUS
10
195.14
20
-92.6832
11
195.141
21
-92.6788
0
LINE
8
BLACK
6
CONTINUOUS
10
195.141
20
-92.6788
11
195.189
21
-92.5835
0
LINE
8
BLACK
6
CONTINUOUS
10
195.189
20
-92.5835
11
195.204
21
-92.5626
0
LINE
8
BLACK
6
CONTINUOUS
10
195.204
20
-92.5626
11
195.214
21
-92.5581
0
LINE
8
BLACK
6
CONTINUOUS
10
195.214
20
-92.5581
11
195.222
21
-92.55
0
LINE
8
BLACK
6
CONTINUOUS
10
195.222
20
-92.55
11
195.317
21
-92.5024
0
LINE
8
BLACK
6
CONTINUOUS
10
195.317
20
-92.5024
11
195.342
21
-92.4949
0
LINE
8
BLACK
6
CONTINUOUS
10
195.342
20
-92.4949
11
195.347
21
-92.496
0
LINE
8
BLACK
6
CONTINUOUS
10
195.347
20
-92.496
11
195.351
21
-92.4945
0
LINE
8
BLACK
6
CONTINUOUS
10
195.351
20
-92.4945
11
195.571
21
-92.4945
0
LINE
8
BLACK
6
CONTINUOUS
10
195.571
20
-92.4945
11
195.609
21
-92.4755
0
LINE
8
BLACK
6
CONTINUOUS
10
195.609
20
-92.4755
11
195.609
21
-92.4443
0
LINE
8
BLACK
6
CONTINUOUS
10
195.609
20
-92.4443
11
195.581
21
-92.3873
0
LINE
8
BLACK
6
CONTINUOUS
10
195.581
20
-92.3873
11
195.524
21
-92.3587
0
LINE
8
BLACK
6
CONTINUOUS
10
195.524
20
-92.3587
11
195.369
21
-92.3587
0
LINE
8
BLACK
6
CONTINUOUS
10
195.369
20
-92.3587
11
195.289
21
-92.3984
0
LINE
8
BLACK
6
CONTINUOUS
10
195.289
20
-92.3984
11
195.264
21
-92.4059
0
LINE
8
BLACK
6
CONTINUOUS
10
195.264
20
-92.4059
11
195.214
21
-92.3939
0
LINE
8
BLACK
6
CONTINUOUS
10
195.214
20
-92.3939
11
195.184
21
-92.3527
0
LINE
8
BLACK
6
CONTINUOUS
10
195.184
20
-92.3527
11
195.187
21
-92.3015
0
LINE
8
BLACK
6
CONTINUOUS
10
195.187
20
-92.3015
11
195.222
21
-92.2643
0
LINE
8
BLACK
6
CONTINUOUS
10
195.222
20
-92.2643
11
195.317
21
-92.2167
0
LINE
8
BLACK
6
CONTINUOUS
10
195.317
20
-92.2167
11
195.342
21
-92.2092
0
LINE
8
BLACK
6
CONTINUOUS
10
195.342
20
-92.2092
11
195.347
21
-92.2103
0
LINE
8
BLACK
6
CONTINUOUS
10
195.347
20
-92.2103
11
195.351
21
-92.2087
0
LINE
8
BLACK
6
CONTINUOUS
10
195.351
20
-92.2087
11
195.541
21
-92.2087
0
LINE
8
BLACK
6
CONTINUOUS
10
195.541
20
-92.2087
11
195.567
21
-92.2133
0
LINE
8
BLACK
6
CONTINUOUS
10
195.598
20
-92.644
11
195.593
21
-92.6429
0
LINE
8
BLACK
6
CONTINUOUS
10
195.593
20
-92.6429
11
195.589
21
-92.6445
0
LINE
8
BLACK
6
CONTINUOUS
10
195.589
20
-92.6445
11
195.369
21
-92.6445
0
LINE
8
BLACK
6
CONTINUOUS
10
195.369
20
-92.6445
11
195.312
21
-92.673
0
LINE
8
BLACK
6
CONTINUOUS
10
195.312
20
-92.673
11
195.283
21
-92.73
0
LINE
8
BLACK
6
CONTINUOUS
10
195.283
20
-92.73
11
195.283
21
-92.7898
0
LINE
8
BLACK
6
CONTINUOUS
10
195.283
20
-92.7898
11
195.312
21
-92.8469
0
LINE
8
BLACK
6
CONTINUOUS
10
195.312
20
-92.8469
11
195.369
21
-92.8754
0
LINE
8
BLACK
6
CONTINUOUS
10
195.369
20
-92.8754
11
195.571
21
-92.8754
0
LINE
8
BLACK
6
CONTINUOUS
10
195.571
20
-92.8754
11
195.609
21
-92.8564
0
LINE
8
BLACK
6
CONTINUOUS
10
195.609
20
-92.8564
11
195.609
21
-92.6405
0
LINE
8
BLACK
6
CONTINUOUS
10
195.609
20
-92.6405
11
195.598
21
-92.644
0
LINE
8
BLACK
6
CONTINUOUS
10
194.138
20
-92.2133
11
194.142
21
-92.2161
0
LINE
8
BLACK
6
CONTINUOUS
10
194.142
20
-92.2161
11
194.146
21
-92.2167
0
LINE
8
BLACK
6
CONTINUOUS
10
194.146
20
-92.2167
11
194.242
21
-92.2643
0
LINE
8
BLACK
6
CONTINUOUS
10
194.242
20
-92.2643
11
194.263
21
-92.2798
0
LINE
8
BLACK
6
CONTINUOUS
10
194.263
20
-92.2798
11
194.283
21
-92.3269
0
LINE
8
BLACK
6
CONTINUOUS
10
194.283
20
-92.3269
11
194.268
21
-92.376
0
LINE
8
BLACK
6
CONTINUOUS
10
194.268
20
-92.376
11
194.226
21
-92.4043
0
LINE
8
BLACK
6
CONTINUOUS
10
194.226
20
-92.4043
11
194.175
21
-92.3984
0
LINE
8
BLACK
6
CONTINUOUS
10
194.175
20
-92.3984
11
194.095
21
-92.3587
0
LINE
8
BLACK
6
CONTINUOUS
10
194.095
20
-92.3587
11
193.988
21
-92.3587
0
LINE
8
BLACK
6
CONTINUOUS
10
193.988
20
-92.3587
11
193.931
21
-92.3873
0
LINE
8
BLACK
6
CONTINUOUS
10
193.931
20
-92.3873
11
193.902
21
-92.4443
0
LINE
8
BLACK
6
CONTINUOUS
10
193.902
20
-92.4443
11
193.902
21
-92.4565
0
LINE
8
BLACK
6
CONTINUOUS
10
193.902
20
-92.4565
11
193.931
21
-92.5136
0
LINE
8
BLACK
6
CONTINUOUS
10
193.931
20
-92.5136
11
193.988
21
-92.5421
0
LINE
8
BLACK
6
CONTINUOUS
10
193.988
20
-92.5421
11
194.113
21
-92.5421
0
LINE
8
BLACK
6
CONTINUOUS
10
194.113
20
-92.5421
11
194.138
21
-92.5466
0
LINE
8
BLACK
6
CONTINUOUS
10
194.138
20
-92.5466
11
194.142
21
-92.5495
0
LINE
8
BLACK
6
CONTINUOUS
10
194.142
20
-92.5495
11
194.146
21
-92.55
0
LINE
8
BLACK
6
CONTINUOUS
10
194.146
20
-92.55
11
194.242
21
-92.5976
0
LINE
8
BLACK
6
CONTINUOUS
10
194.242
20
-92.5976
11
194.263
21
-92.6131
0
LINE
8
BLACK
6
CONTINUOUS
10
194.263
20
-92.6131
11
194.267
21
-92.6234
0
LINE
8
BLACK
6
CONTINUOUS
10
194.267
20
-92.6234
11
194.275
21
-92.6311
0
LINE
8
BLACK
6
CONTINUOUS
10
194.275
20
-92.6311
11
194.323
21
-92.7264
0
LINE
8
BLACK
6
CONTINUOUS
10
194.323
20
-92.7264
11
194.33
21
-92.7514
0
LINE
8
BLACK
6
CONTINUOUS
10
194.33
20
-92.7514
11
194.329
21
-92.7557
0
LINE
8
BLACK
6
CONTINUOUS
10
194.329
20
-92.7557
11
194.331
21
-92.7599
0
LINE
8
BLACK
6
CONTINUOUS
10
194.331
20
-92.7599
11
194.331
21
-92.8075
0
LINE
8
BLACK
6
CONTINUOUS
10
194.331
20
-92.8075
11
194.326
21
-92.8332
0
LINE
8
BLACK
6
CONTINUOUS
10
194.326
20
-92.8332
11
194.323
21
-92.8366
0
LINE
8
BLACK
6
CONTINUOUS
10
194.323
20
-92.8366
11
194.323
21
-92.8411
0
LINE
8
BLACK
6
CONTINUOUS
10
194.323
20
-92.8411
11
194.275
21
-92.9363
0
LINE
8
BLACK
6
CONTINUOUS
10
194.275
20
-92.9363
11
194.26
21
-92.9572
0
LINE
8
BLACK
6
CONTINUOUS
10
194.26
20
-92.9572
11
194.249
21
-92.9617
0
LINE
8
BLACK
6
CONTINUOUS
10
194.249
20
-92.9617
11
194.242
21
-92.9699
0
LINE
8
BLACK
6
CONTINUOUS
10
194.242
20
-92.9699
11
194.146
21
-93.0175
0
LINE
8
BLACK
6
CONTINUOUS
10
194.146
20
-93.0175
11
194.121
21
-93.0249
0
LINE
8
BLACK
6
CONTINUOUS
10
194.121
20
-93.0249
11
194.117
21
-93.0239
0
LINE
8
BLACK
6
CONTINUOUS
10
194.117
20
-93.0239
11
194.113
21
-93.0254
0
LINE
8
BLACK
6
CONTINUOUS
10
194.113
20
-93.0254
11
193.922
21
-93.0254
0
LINE
8
BLACK
6
CONTINUOUS
10
193.922
20
-93.0254
11
193.897
21
-93.0209
0
LINE
8
BLACK
6
CONTINUOUS
10
193.897
20
-93.0209
11
193.893
21
-93.018
0
LINE
8
BLACK
6
CONTINUOUS
10
193.893
20
-93.018
11
193.889
21
-93.0175
0
LINE
8
BLACK
6
CONTINUOUS
10
193.889
20
-93.0175
11
193.794
21
-92.9699
0
LINE
8
BLACK
6
CONTINUOUS
10
193.794
20
-92.9699
11
193.773
21
-92.9544
0
LINE
8
BLACK
6
CONTINUOUS
10
193.773
20
-92.9544
11
193.752
21
-92.9073
0
LINE
8
BLACK
6
CONTINUOUS
10
193.752
20
-92.9073
11
193.767
21
-92.8581
0
LINE
8
BLACK
6
CONTINUOUS
10
193.767
20
-92.8581
11
193.81
21
-92.8298
0
LINE
8
BLACK
6
CONTINUOUS
10
193.81
20
-92.8298
11
193.861
21
-92.8357
0
LINE
8
BLACK
6
CONTINUOUS
10
193.861
20
-92.8357
11
193.94
21
-92.8754
0
LINE
8
BLACK
6
CONTINUOUS
10
193.94
20
-92.8754
11
194.095
21
-92.8754
0
LINE
8
BLACK
6
CONTINUOUS
10
194.095
20
-92.8754
11
194.152
21
-92.8469
0
LINE
8
BLACK
6
CONTINUOUS
10
194.152
20
-92.8469
11
194.181
21
-92.7898
0
LINE
8
BLACK
6
CONTINUOUS
10
194.181
20
-92.7898
11
194.181
21
-92.7776
0
LINE
8
BLACK
6
CONTINUOUS
10
194.181
20
-92.7776
11
194.152
21
-92.7206
0
LINE
8
BLACK
6
CONTINUOUS
10
194.152
20
-92.7206
11
194.095
21
-92.6921
0
LINE
8
BLACK
6
CONTINUOUS
10
194.095
20
-92.6921
11
193.97
21
-92.6921
0
LINE
8
BLACK
6
CONTINUOUS
10
193.97
20
-92.6921
11
193.944
21
-92.6875
0
LINE
8
BLACK
6
CONTINUOUS
10
193.944
20
-92.6875
11
193.941
21
-92.6847
0
LINE
8
BLACK
6
CONTINUOUS
10
193.941
20
-92.6847
11
193.936
21
-92.6842
0
LINE
8
BLACK
6
CONTINUOUS
10
193.936
20
-92.6842
11
193.841
21
-92.6365
0
LINE
8
BLACK
6
CONTINUOUS
10
193.841
20
-92.6365
11
193.82
21
-92.621
0
LINE
8
BLACK
6
CONTINUOUS
10
193.82
20
-92.621
11
193.816
21
-92.6107
0
LINE
8
BLACK
6
CONTINUOUS
10
193.816
20
-92.6107
11
193.808
21
-92.603
0
LINE
8
BLACK
6
CONTINUOUS
10
193.808
20
-92.603
11
193.76
21
-92.5078
0
LINE
8
BLACK
6
CONTINUOUS
10
193.76
20
-92.5078
11
193.753
21
-92.4828
0
LINE
8
BLACK
6
CONTINUOUS
10
193.753
20
-92.4828
11
193.754
21
-92.4784
0
LINE
8
BLACK
6
CONTINUOUS
10
193.754
20
-92.4784
11
193.752
21
-92.4742
0
LINE
8
BLACK
6
CONTINUOUS
10
193.752
20
-92.4742
11
193.752
21
-92.4266
0
LINE
8
BLACK
6
CONTINUOUS
10
193.752
20
-92.4266
11
193.757
21
-92.4009
0
LINE
8
BLACK
6
CONTINUOUS
10
193.757
20
-92.4009
11
193.76
21
-92.3975
0
LINE
8
BLACK
6
CONTINUOUS
10
193.76
20
-92.3975
11
193.76
21
-92.3931
0
LINE
8
BLACK
6
CONTINUOUS
10
193.76
20
-92.3931
11
193.808
21
-92.2978
0
LINE
8
BLACK
6
CONTINUOUS
10
193.808
20
-92.2978
11
193.823
21
-92.2769
0
LINE
8
BLACK
6
CONTINUOUS
10
193.823
20
-92.2769
11
193.833
21
-92.2724
0
LINE
8
BLACK
6
CONTINUOUS
10
193.833
20
-92.2724
11
193.841
21
-92.2643
0
LINE
8
BLACK
6
CONTINUOUS
10
193.841
20
-92.2643
11
193.936
21
-92.2167
0
LINE
8
BLACK
6
CONTINUOUS
10
193.936
20
-92.2167
11
193.961
21
-92.2092
0
LINE
8
BLACK
6
CONTINUOUS
10
193.961
20
-92.2092
11
193.966
21
-92.2103
0
LINE
8
BLACK
6
CONTINUOUS
10
193.966
20
-92.2103
11
193.97
21
-92.2087
0
LINE
8
BLACK
6
CONTINUOUS
10
193.97
20
-92.2087
11
194.113
21
-92.2087
0
LINE
8
BLACK
6
CONTINUOUS
10
194.113
20
-92.2087
11
194.138
21
-92.2133
0
LINE
8
BLACK
6
CONTINUOUS
10
192.407
20
-91.8773
11
192.412
21
-91.8765
0
LINE
8
BLACK
6
CONTINUOUS
10
192.412
20
-91.8765
11
192.43
21
-91.8874
0
LINE
8
BLACK
6
CONTINUOUS
10
192.43
20
-91.8874
11
192.45
21
-91.8962
0
LINE
8
BLACK
6
CONTINUOUS
10
192.45
20
-91.8962
11
192.452
21
-91.9
0
LINE
8
BLACK
6
CONTINUOUS
10
192.452
20
-91.9
11
192.456
21
-91.9022
0
LINE
8
BLACK
6
CONTINUOUS
10
192.456
20
-91.9022
11
192.463
21
-91.9226
0
LINE
8
BLACK
6
CONTINUOUS
10
192.463
20
-91.9226
11
192.473
21
-91.9422
0
LINE
8
BLACK
6
CONTINUOUS
10
192.473
20
-91.9422
11
192.472
21
-91.9464
0
LINE
8
BLACK
6
CONTINUOUS
10
192.472
20
-91.9464
11
192.474
21
-91.9504
0
LINE
8
BLACK
6
CONTINUOUS
10
192.474
20
-91.9504
11
192.474
21
-92.8754
0
LINE
8
BLACK
6
CONTINUOUS
10
192.474
20
-92.8754
11
192.684
21
-92.8754
0
LINE
8
BLACK
6
CONTINUOUS
10
192.684
20
-92.8754
11
192.71
21
-92.8799
0
LINE
8
BLACK
6
CONTINUOUS
10
192.71
20
-92.8799
11
192.749
21
-92.9129
0
LINE
8
BLACK
6
CONTINUOUS
10
192.749
20
-92.9129
11
192.758
21
-92.9634
0
LINE
8
BLACK
6
CONTINUOUS
10
192.758
20
-92.9634
11
192.732
21
-93.0079
0
LINE
8
BLACK
6
CONTINUOUS
10
192.732
20
-93.0079
11
192.684
21
-93.0254
0
LINE
8
BLACK
6
CONTINUOUS
10
192.684
20
-93.0254
11
192.113
21
-93.0254
0
LINE
8
BLACK
6
CONTINUOUS
10
192.113
20
-93.0254
11
192.087
21
-93.0209
0
LINE
8
BLACK
6
CONTINUOUS
10
192.087
20
-93.0209
11
192.048
21
-92.9879
0
LINE
8
BLACK
6
CONTINUOUS
10
192.048
20
-92.9879
11
192.039
21
-92.9374
0
LINE
8
BLACK
6
CONTINUOUS
10
192.039
20
-92.9374
11
192.065
21
-92.893
0
LINE
8
BLACK
6
CONTINUOUS
10
192.065
20
-92.893
11
192.113
21
-92.8754
0
LINE
8
BLACK
6
CONTINUOUS
10
192.113
20
-92.8754
11
192.324
21
-92.8754
0
LINE
8
BLACK
6
CONTINUOUS
10
192.324
20
-92.8754
11
192.324
21
-92.1791
0
LINE
8
BLACK
6
CONTINUOUS
10
192.324
20
-92.1791
11
192.261
21
-92.2415
0
LINE
8
BLACK
6
CONTINUOUS
10
192.261
20
-92.2415
11
192.243
21
-92.2544
0
LINE
8
BLACK
6
CONTINUOUS
10
192.243
20
-92.2544
11
192.242
21
-92.2556
0
LINE
8
BLACK
6
CONTINUOUS
10
192.242
20
-92.2556
11
192.146
21
-92.3032
0
LINE
8
BLACK
6
CONTINUOUS
10
192.146
20
-92.3032
11
192.121
21
-92.3106
0
LINE
8
BLACK
6
CONTINUOUS
10
192.121
20
-92.3106
11
192.072
21
-92.2987
0
LINE
8
BLACK
6
CONTINUOUS
10
192.072
20
-92.2987
11
192.041
21
-92.2575
0
LINE
8
BLACK
6
CONTINUOUS
10
192.041
20
-92.2575
11
192.044
21
-92.2063
0
LINE
8
BLACK
6
CONTINUOUS
10
192.044
20
-92.2063
11
192.079
21
-92.169
0
LINE
8
BLACK
6
CONTINUOUS
10
192.079
20
-92.169
11
192.164
21
-92.1269
0
LINE
8
BLACK
6
CONTINUOUS
10
192.164
20
-92.1269
11
192.245
21
-92.0455
0
LINE
8
BLACK
6
CONTINUOUS
10
192.245
20
-92.0455
11
192.336
21
-91.9088
0
LINE
8
BLACK
6
CONTINUOUS
10
192.336
20
-91.9088
11
192.354
21
-91.89
0
LINE
8
BLACK
6
CONTINUOUS
10
192.354
20
-91.89
11
192.358
21
-91.8888
0
LINE
8
BLACK
6
CONTINUOUS
10
192.358
20
-91.8888
11
192.361
21
-91.8855
0
LINE
8
BLACK
6
CONTINUOUS
10
192.361
20
-91.8855
11
192.382
21
-91.8817
0
LINE
8
BLACK
6
CONTINUOUS
10
192.382
20
-91.8817
11
192.403
21
-91.8756
0
LINE
8
BLACK
6
CONTINUOUS
10
192.403
20
-91.8756
11
192.407
21
-91.8773
0
LINE
8
BLACK
6
CONTINUOUS
10
191.455
20
-91.8773
11
191.459
21
-91.8765
0
LINE
8
BLACK
6
CONTINUOUS
10
191.459
20
-91.8765
11
191.478
21
-91.8874
0
LINE
8
BLACK
6
CONTINUOUS
10
191.478
20
-91.8874
11
191.498
21
-91.8962
0
LINE
8
BLACK
6
CONTINUOUS
10
191.498
20
-91.8962
11
191.5
21
-91.9
0
LINE
8
BLACK
6
CONTINUOUS
10
191.5
20
-91.9
11
191.504
21
-91.9022
0
LINE
8
BLACK
6
CONTINUOUS
10
191.504
20
-91.9022
11
191.511
21
-91.9226
0
LINE
8
BLACK
6
CONTINUOUS
10
191.511
20
-91.9226
11
191.521
21
-91.9422
0
LINE
8
BLACK
6
CONTINUOUS
10
191.521
20
-91.9422
11
191.52
21
-91.9464
0
LINE
8
BLACK
6
CONTINUOUS
10
191.52
20
-91.9464
11
191.521
21
-91.9504
0
LINE
8
BLACK
6
CONTINUOUS
10
191.521
20
-91.9504
11
191.521
21
-92.8754
0
LINE
8
BLACK
6
CONTINUOUS
10
191.521
20
-92.8754
11
191.732
21
-92.8754
0
LINE
8
BLACK
6
CONTINUOUS
10
191.732
20
-92.8754
11
191.758
21
-92.8799
0
LINE
8
BLACK
6
CONTINUOUS
10
191.758
20
-92.8799
11
191.797
21
-92.9129
0
LINE
8
BLACK
6
CONTINUOUS
10
191.797
20
-92.9129
11
191.806
21
-92.9634
0
LINE
8
BLACK
6
CONTINUOUS
10
191.806
20
-92.9634
11
191.78
21
-93.0079
0
LINE
8
BLACK
6
CONTINUOUS
10
191.78
20
-93.0079
11
191.732
21
-93.0254
0
LINE
8
BLACK
6
CONTINUOUS
10
191.732
20
-93.0254
11
191.16
21
-93.0254
0
LINE
8
BLACK
6
CONTINUOUS
10
191.16
20
-93.0254
11
191.135
21
-93.0209
0
LINE
8
BLACK
6
CONTINUOUS
10
191.135
20
-93.0209
11
191.096
21
-92.9879
0
LINE
8
BLACK
6
CONTINUOUS
10
191.096
20
-92.9879
11
191.087
21
-92.9374
0
LINE
8
BLACK
6
CONTINUOUS
10
191.087
20
-92.9374
11
191.112
21
-92.893
0
LINE
8
BLACK
6
CONTINUOUS
10
191.112
20
-92.893
11
191.16
21
-92.8754
0
LINE
8
BLACK
6
CONTINUOUS
10
191.16
20
-92.8754
11
191.371
21
-92.8754
0
LINE
8
BLACK
6
CONTINUOUS
10
191.371
20
-92.8754
11
191.371
21
-92.1791
0
LINE
8
BLACK
6
CONTINUOUS
10
191.371
20
-92.1791
11
191.309
21
-92.2415
0
LINE
8
BLACK
6
CONTINUOUS
10
191.309
20
-92.2415
11
191.29
21
-92.2544
0
LINE
8
BLACK
6
CONTINUOUS
10
191.29
20
-92.2544
11
191.289
21
-92.2556
0
LINE
8
BLACK
6
CONTINUOUS
10
191.289
20
-92.2556
11
191.194
21
-92.3032
0
LINE
8
BLACK
6
CONTINUOUS
10
191.194
20
-92.3032
11
191.169
21
-92.3106
0
LINE
8
BLACK
6
CONTINUOUS
10
191.169
20
-92.3106
11
191.119
21
-92.2987
0
LINE
8
BLACK
6
CONTINUOUS
10
191.119
20
-92.2987
11
191.089
21
-92.2575
0
LINE
8
BLACK
6
CONTINUOUS
10
191.089
20
-92.2575
11
191.092
21
-92.2063
0
LINE
8
BLACK
6
CONTINUOUS
10
191.092
20
-92.2063
11
191.127
21
-92.169
0
LINE
8
BLACK
6
CONTINUOUS
10
191.127
20
-92.169
11
191.211
21
-92.1269
0
LINE
8
BLACK
6
CONTINUOUS
10
191.211
20
-92.1269
11
191.293
21
-92.0455
0
LINE
8
BLACK
6
CONTINUOUS
10
191.293
20
-92.0455
11
191.384
21
-91.9088
0
LINE
8
BLACK
6
CONTINUOUS
10
191.384
20
-91.9088
11
191.402
21
-91.89
0
LINE
8
BLACK
6
CONTINUOUS
10
191.402
20
-91.89
11
191.406
21
-91.8888
0
LINE
8
BLACK
6
CONTINUOUS
10
191.406
20
-91.8888
11
191.409
21
-91.8855
0
LINE
8
BLACK
6
CONTINUOUS
10
191.409
20
-91.8855
11
191.43
21
-91.8817
0
LINE
8
BLACK
6
CONTINUOUS
10
191.43
20
-91.8817
11
191.451
21
-91.8756
0
LINE
8
BLACK
6
CONTINUOUS
10
191.451
20
-91.8756
11
191.455
21
-91.8773
0
LINE
8
BLACK
6
CONTINUOUS
10
194.742
20
-91.9022
11
194.759
21
-91.9504
0
LINE
8
BLACK
6
CONTINUOUS
10
194.759
20
-91.9504
11
194.759
21
-92.2087
0
LINE
8
BLACK
6
CONTINUOUS
10
194.759
20
-92.2087
11
194.922
21
-92.2087
0
LINE
8
BLACK
6
CONTINUOUS
10
194.922
20
-92.2087
11
194.948
21
-92.2133
0
LINE
8
BLACK
6
CONTINUOUS
10
194.948
20
-92.2133
11
194.987
21
-92.2462
0
LINE
8
BLACK
6
CONTINUOUS
10
194.987
20
-92.2462
11
194.996
21
-92.2968
0
LINE
8
BLACK
6
CONTINUOUS
10
194.996
20
-92.2968
11
194.971
21
-92.3412
0
LINE
8
BLACK
6
CONTINUOUS
10
194.971
20
-92.3412
11
194.922
21
-92.3587
0
LINE
8
BLACK
6
CONTINUOUS
10
194.922
20
-92.3587
11
194.759
21
-92.3587
0
LINE
8
BLACK
6
CONTINUOUS
10
194.759
20
-92.3587
11
194.759
21
-92.7898
0
LINE
8
BLACK
6
CONTINUOUS
10
194.759
20
-92.7898
11
194.788
21
-92.8469
0
LINE
8
BLACK
6
CONTINUOUS
10
194.788
20
-92.8469
11
194.845
21
-92.8754
0
LINE
8
BLACK
6
CONTINUOUS
10
194.845
20
-92.8754
11
194.922
21
-92.8754
0
LINE
8
BLACK
6
CONTINUOUS
10
194.922
20
-92.8754
11
194.948
21
-92.8799
0
LINE
8
BLACK
6
CONTINUOUS
10
194.948
20
-92.8799
11
194.987
21
-92.9129
0
LINE
8
BLACK
6
CONTINUOUS
10
194.987
20
-92.9129
11
194.996
21
-92.9634
0
LINE
8
BLACK
6
CONTINUOUS
10
194.996
20
-92.9634
11
194.971
21
-93.0079
0
LINE
8
BLACK
6
CONTINUOUS
10
194.971
20
-93.0079
11
194.922
21
-93.0254
0
LINE
8
BLACK
6
CONTINUOUS
10
194.922
20
-93.0254
11
194.827
21
-93.0254
0
LINE
8
BLACK
6
CONTINUOUS
10
194.827
20
-93.0254
11
194.801
21
-93.0209
0
LINE
8
BLACK
6
CONTINUOUS
10
194.801
20
-93.0209
11
194.798
21
-93.018
0
LINE
8
BLACK
6
CONTINUOUS
10
194.798
20
-93.018
11
194.794
21
-93.0175
0
LINE
8
BLACK
6
CONTINUOUS
10
194.794
20
-93.0175
11
194.698
21
-92.9699
0
LINE
8
BLACK
6
CONTINUOUS
10
194.698
20
-92.9699
11
194.677
21
-92.9544
0
LINE
8
BLACK
6
CONTINUOUS
10
194.677
20
-92.9544
11
194.673
21
-92.944
0
LINE
8
BLACK
6
CONTINUOUS
10
194.673
20
-92.944
11
194.665
21
-92.9363
0
LINE
8
BLACK
6
CONTINUOUS
10
194.665
20
-92.9363
11
194.617
21
-92.8411
0
LINE
8
BLACK
6
CONTINUOUS
10
194.617
20
-92.8411
11
194.61
21
-92.8161
0
LINE
8
BLACK
6
CONTINUOUS
10
194.61
20
-92.8161
11
194.611
21
-92.8118
0
LINE
8
BLACK
6
CONTINUOUS
10
194.611
20
-92.8118
11
194.609
21
-92.8075
0
LINE
8
BLACK
6
CONTINUOUS
10
194.609
20
-92.8075
11
194.609
21
-92.3587
0
LINE
8
BLACK
6
CONTINUOUS
10
194.609
20
-92.3587
11
194.541
21
-92.3587
0
LINE
8
BLACK
6
CONTINUOUS
10
194.541
20
-92.3587
11
194.516
21
-92.3542
0
LINE
8
BLACK
6
CONTINUOUS
10
194.516
20
-92.3542
11
194.476
21
-92.3212
0
LINE
8
BLACK
6
CONTINUOUS
10
194.476
20
-92.3212
11
194.468
21
-92.2707
0
LINE
8
BLACK
6
CONTINUOUS
10
194.468
20
-92.2707
11
194.493
21
-92.2263
0
LINE
8
BLACK
6
CONTINUOUS
10
194.493
20
-92.2263
11
194.541
21
-92.2087
0
LINE
8
BLACK
6
CONTINUOUS
10
194.541
20
-92.2087
11
194.609
21
-92.2087
0
LINE
8
BLACK
6
CONTINUOUS
10
194.609
20
-92.2087
11
194.609
21
-91.9504
0
LINE
8
BLACK
6
CONTINUOUS
10
194.609
20
-91.9504
11
194.614
21
-91.9248
0
LINE
8
BLACK
6
CONTINUOUS
10
194.614
20
-91.9248
11
194.647
21
-91.8855
0
LINE
8
BLACK
6
CONTINUOUS
10
194.647
20
-91.8855
11
194.697
21
-91.8765
0
LINE
8
BLACK
6
CONTINUOUS
10
194.697
20
-91.8765
11
194.742
21
-91.9022
0
LINE
8
BLACK
6
CONTINUOUS
10
197.551
20
-91.9022
11
197.569
21
-91.9504
0
LINE
8
BLACK
6
CONTINUOUS
10
197.569
20
-91.9504
11
197.569
21
-92.9504
0
LINE
8
BLACK
6
CONTINUOUS
10
197.569
20
-92.9504
11
197.564
21
-92.9761
0
LINE
8
BLACK
6
CONTINUOUS
10
197.564
20
-92.9761
11
197.531
21
-93.0154
0
LINE
8
BLACK
6
CONTINUOUS
10
197.531
20
-93.0154
11
197.481
21
-93.0243
0
LINE
8
BLACK
6
CONTINUOUS
10
197.481
20
-93.0243
11
197.452
21
-93.0076
0
LINE
8
BLACK
6
CONTINUOUS
10
197.452
20
-93.0076
11
197.432
21
-93.0175
0
LINE
8
BLACK
6
CONTINUOUS
10
197.432
20
-93.0175
11
197.407
21
-93.0249
0
LINE
8
BLACK
6
CONTINUOUS
10
197.407
20
-93.0249
11
197.403
21
-93.0239
0
LINE
8
BLACK
6
CONTINUOUS
10
197.403
20
-93.0239
11
197.399
21
-93.0254
0
LINE
8
BLACK
6
CONTINUOUS
10
197.399
20
-93.0254
11
197.208
21
-93.0254
0
LINE
8
BLACK
6
CONTINUOUS
10
197.208
20
-93.0254
11
197.182
21
-93.0209
0
LINE
8
BLACK
6
CONTINUOUS
10
197.182
20
-93.0209
11
197.179
21
-93.018
0
LINE
8
BLACK
6
CONTINUOUS
10
197.179
20
-93.018
11
197.175
21
-93.0175
0
LINE
8
BLACK
6
CONTINUOUS
10
197.175
20
-93.0175
11
197.079
21
-92.9699
0
LINE
8
BLACK
6
CONTINUOUS
10
197.079
20
-92.9699
11
197.061
21
-92.9565
0
LINE
8
BLACK
6
CONTINUOUS
10
197.061
20
-92.9565
11
197.06
21
-92.9558
0
LINE
8
BLACK
6
CONTINUOUS
10
197.06
20
-92.9558
11
197.012
21
-92.9082
0
LINE
8
BLACK
6
CONTINUOUS
10
197.012
20
-92.9082
11
196.999
21
-92.8898
0
LINE
8
BLACK
6
CONTINUOUS
10
196.999
20
-92.8898
11
196.998
21
-92.8887
0
LINE
8
BLACK
6
CONTINUOUS
10
196.998
20
-92.8887
11
196.951
21
-92.7935
0
LINE
8
BLACK
6
CONTINUOUS
10
196.951
20
-92.7935
11
196.943
21
-92.7685
0
LINE
8
BLACK
6
CONTINUOUS
10
196.943
20
-92.7685
11
196.944
21
-92.7641
0
LINE
8
BLACK
6
CONTINUOUS
10
196.944
20
-92.7641
11
196.943
21
-92.7599
0
LINE
8
BLACK
6
CONTINUOUS
10
196.943
20
-92.7599
11
196.943
21
-92.4742
0
LINE
8
BLACK
6
CONTINUOUS
10
196.943
20
-92.4742
11
196.947
21
-92.4486
0
LINE
8
BLACK
6
CONTINUOUS
10
196.947
20
-92.4486
11
196.95
21
-92.4451
0
LINE
8
BLACK
6
CONTINUOUS
10
196.95
20
-92.4451
11
196.951
21
-92.4407
0
LINE
8
BLACK
6
CONTINUOUS
10
196.951
20
-92.4407
11
196.998
21
-92.3454
0
LINE
8
BLACK
6
CONTINUOUS
10
196.998
20
-92.3454
11
197.012
21
-92.3274
0
LINE
8
BLACK
6
CONTINUOUS
10
197.012
20
-92.3274
11
197.012
21
-92.3259
0
LINE
8
BLACK
6
CONTINUOUS
10
197.012
20
-92.3259
11
197.06
21
-92.2783
0
LINE
8
BLACK
6
CONTINUOUS
10
197.06
20
-92.2783
11
197.078
21
-92.2655
0
LINE
8
BLACK
6
CONTINUOUS
10
197.078
20
-92.2655
11
197.079
21
-92.2643
0
LINE
8
BLACK
6
CONTINUOUS
10
197.079
20
-92.2643
11
197.175
21
-92.2167
0
LINE
8
BLACK
6
CONTINUOUS
10
197.175
20
-92.2167
11
197.2
21
-92.2092
0
LINE
8
BLACK
6
CONTINUOUS
10
197.2
20
-92.2092
11
197.204
21
-92.2103
0
LINE
8
BLACK
6
CONTINUOUS
10
197.204
20
-92.2103
11
197.208
21
-92.2087
0
LINE
8
BLACK
6
CONTINUOUS
10
197.208
20
-92.2087
11
197.399
21
-92.2087
0
LINE
8
BLACK
6
CONTINUOUS
10
197.399
20
-92.2087
11
197.419
21
-92.2123
0
LINE
8
BLACK
6
CONTINUOUS
10
197.419
20
-92.2123
11
197.419
21
-91.9504
0
LINE
8
BLACK
6
CONTINUOUS
10
197.419
20
-91.9504
11
197.423
21
-91.9248
0
LINE
8
BLACK
6
CONTINUOUS
10
197.423
20
-91.9248
11
197.456
21
-91.8855
0
LINE
8
BLACK
6
CONTINUOUS
10
197.456
20
-91.8855
11
197.507
21
-91.8765
0
LINE
8
BLACK
6
CONTINUOUS
10
197.507
20
-91.8765
11
197.551
21
-91.9022
0
LINE
8
BLACK
6
CONTINUOUS
10
197.226
20
-92.3587
11
197.157
21
-92.393
0
LINE
8
BLACK
6
CONTINUOUS
10
197.157
20
-92.393
11
197.127
21
-92.4234
0
LINE
8
BLACK
6
CONTINUOUS
10
197.127
20
-92.4234
11
197.093
21
-92.4919
0
LINE
8
BLACK
6
CONTINUOUS
10
197.093
20
-92.4919
11
197.093
21
-92.7422
0
LINE
8
BLACK
6
CONTINUOUS
10
197.093
20
-92.7422
11
197.127
21
-92.8107
0
LINE
8
BLACK
6
CONTINUOUS
10
197.127
20
-92.8107
11
197.157
21
-92.8411
0
LINE
8
BLACK
6
CONTINUOUS
10
197.157
20
-92.8411
11
197.226
21
-92.8754
0
LINE
8
BLACK
6
CONTINUOUS
10
197.226
20
-92.8754
11
197.381
21
-92.8754
0
LINE
8
BLACK
6
CONTINUOUS
10
197.381
20
-92.8754
11
197.419
21
-92.8564
0
LINE
8
BLACK
6
CONTINUOUS
10
197.419
20
-92.8564
11
197.419
21
-92.3777
0
LINE
8
BLACK
6
CONTINUOUS
10
197.419
20
-92.3777
11
197.381
21
-92.3587
0
LINE
8
BLACK
6
CONTINUOUS
10
197.381
20
-92.3587
11
197.226
21
-92.3587
0
LINE
8
BLACK
6
CONTINUOUS
10
189.805
20
-91.8799
11
189.809
21
-91.8828
0
LINE
8
BLACK
6
CONTINUOUS
10
189.809
20
-91.8828
11
189.813
21
-91.8833
0
LINE
8
BLACK
6
CONTINUOUS
10
189.813
20
-91.8833
11
189.908
21
-91.9309
0
LINE
8
BLACK
6
CONTINUOUS
10
189.908
20
-91.9309
11
189.926
21
-91.9443
0
LINE
8
BLACK
6
CONTINUOUS
10
189.926
20
-91.9443
11
189.928
21
-91.945
0
LINE
8
BLACK
6
CONTINUOUS
10
189.928
20
-91.945
11
189.975
21
-91.9926
0
LINE
8
BLACK
6
CONTINUOUS
10
189.975
20
-91.9926
11
189.988
21
-92.011
0
LINE
8
BLACK
6
CONTINUOUS
10
189.988
20
-92.011
11
189.989
21
-92.0121
0
LINE
8
BLACK
6
CONTINUOUS
10
189.989
20
-92.0121
11
190.037
21
-92.1073
0
LINE
8
BLACK
6
CONTINUOUS
10
190.037
20
-92.1073
11
190.044
21
-92.1323
0
LINE
8
BLACK
6
CONTINUOUS
10
190.044
20
-92.1323
11
190.043
21
-92.1367
0
LINE
8
BLACK
6
CONTINUOUS
10
190.043
20
-92.1367
11
190.045
21
-92.1409
0
LINE
8
BLACK
6
CONTINUOUS
10
190.045
20
-92.1409
11
190.045
21
-92.2361
0
LINE
8
BLACK
6
CONTINUOUS
10
190.045
20
-92.2361
11
190.041
21
-92.2582
0
LINE
8
BLACK
6
CONTINUOUS
10
190.041
20
-92.2582
11
190.041
21
-92.2598
0
LINE
8
BLACK
6
CONTINUOUS
10
190.041
20
-92.2598
11
189.994
21
-92.4027
0
LINE
8
BLACK
6
CONTINUOUS
10
189.994
20
-92.4027
11
189.981
21
-92.4256
0
LINE
8
BLACK
6
CONTINUOUS
10
189.981
20
-92.4256
11
189.977
21
-92.4279
0
LINE
8
BLACK
6
CONTINUOUS
10
189.977
20
-92.4279
11
189.975
21
-92.432
0
LINE
8
BLACK
6
CONTINUOUS
10
189.975
20
-92.432
11
189.532
21
-92.8754
0
LINE
8
BLACK
6
CONTINUOUS
10
189.532
20
-92.8754
11
189.97
21
-92.8754
0
LINE
8
BLACK
6
CONTINUOUS
10
189.97
20
-92.8754
11
189.996
21
-92.8799
0
LINE
8
BLACK
6
CONTINUOUS
10
189.996
20
-92.8799
11
190.035
21
-92.9129
0
LINE
8
BLACK
6
CONTINUOUS
10
190.035
20
-92.9129
11
190.044
21
-92.9634
0
LINE
8
BLACK
6
CONTINUOUS
10
190.044
20
-92.9634
11
190.018
21
-93.0079
0
LINE
8
BLACK
6
CONTINUOUS
10
190.018
20
-93.0079
11
189.97
21
-93.0254
0
LINE
8
BLACK
6
CONTINUOUS
10
189.97
20
-93.0254
11
189.351
21
-93.0254
0
LINE
8
BLACK
6
CONTINUOUS
10
189.351
20
-93.0254
11
189.335
21
-93.0226
0
LINE
8
BLACK
6
CONTINUOUS
10
189.335
20
-93.0226
11
189.332
21
-93.0228
0
LINE
8
BLACK
6
CONTINUOUS
10
189.332
20
-93.0228
11
189.33
21
-93.0217
0
LINE
8
BLACK
6
CONTINUOUS
10
189.33
20
-93.0217
11
189.325
21
-93.0209
0
LINE
8
BLACK
6
CONTINUOUS
10
189.325
20
-93.0209
11
189.308
21
-93.0064
0
LINE
8
BLACK
6
CONTINUOUS
10
189.308
20
-93.0064
11
189.29
21
-92.9934
0
LINE
8
BLACK
6
CONTINUOUS
10
189.29
20
-92.9934
11
189.289
21
-92.9901
0
LINE
8
BLACK
6
CONTINUOUS
10
189.289
20
-92.9901
11
189.286
21
-92.9879
0
LINE
8
BLACK
6
CONTINUOUS
10
189.286
20
-92.9879
11
189.282
21
-92.9657
0
LINE
8
BLACK
6
CONTINUOUS
10
189.282
20
-92.9657
11
189.276
21
-92.9439
0
LINE
8
BLACK
6
CONTINUOUS
10
189.276
20
-92.9439
11
189.278
21
-92.9408
0
LINE
8
BLACK
6
CONTINUOUS
10
189.278
20
-92.9408
11
189.277
21
-92.9374
0
LINE
8
BLACK
6
CONTINUOUS
10
189.277
20
-92.9374
11
189.288
21
-92.9178
0
LINE
8
BLACK
6
CONTINUOUS
10
189.288
20
-92.9178
11
189.298
21
-92.8974
0
LINE
8
BLACK
6
CONTINUOUS
10
189.298
20
-92.8974
11
189.857
21
-92.3385
0
LINE
8
BLACK
6
CONTINUOUS
10
189.857
20
-92.3385
11
189.895
21
-92.224
0
LINE
8
BLACK
6
CONTINUOUS
10
189.895
20
-92.224
11
189.895
21
-92.1586
0
LINE
8
BLACK
6
CONTINUOUS
10
189.895
20
-92.1586
11
189.861
21
-92.0901
0
LINE
8
BLACK
6
CONTINUOUS
10
189.861
20
-92.0901
11
189.83
21
-92.0597
0
LINE
8
BLACK
6
CONTINUOUS
10
189.83
20
-92.0597
11
189.762
21
-92.0254
0
LINE
8
BLACK
6
CONTINUOUS
10
189.762
20
-92.0254
11
189.559
21
-92.0254
0
LINE
8
BLACK
6
CONTINUOUS
10
189.559
20
-92.0254
11
189.491
21
-92.0597
0
LINE
8
BLACK
6
CONTINUOUS
10
189.491
20
-92.0597
11
189.452
21
-92.0987
0
LINE
8
BLACK
6
CONTINUOUS
10
189.452
20
-92.0987
11
189.43
21
-92.1136
0
LINE
8
BLACK
6
CONTINUOUS
10
189.43
20
-92.1136
11
189.379
21
-92.1181
0
LINE
8
BLACK
6
CONTINUOUS
10
189.379
20
-92.1181
11
189.337
21
-92.0887
0
LINE
8
BLACK
6
CONTINUOUS
10
189.337
20
-92.0887
11
189.324
21
-92.0391
0
LINE
8
BLACK
6
CONTINUOUS
10
189.324
20
-92.0391
11
189.346
21
-91.9926
0
LINE
8
BLACK
6
CONTINUOUS
10
189.346
20
-91.9926
11
189.393
21
-91.945
0
LINE
8
BLACK
6
CONTINUOUS
10
189.393
20
-91.945
11
189.412
21
-91.9321
0
LINE
8
BLACK
6
CONTINUOUS
10
189.412
20
-91.9321
11
189.413
21
-91.9309
0
LINE
8
BLACK
6
CONTINUOUS
10
189.413
20
-91.9309
11
189.508
21
-91.8833
0
LINE
8
BLACK
6
CONTINUOUS
10
189.508
20
-91.8833
11
189.533
21
-91.8759
0
LINE
8
BLACK
6
CONTINUOUS
10
189.533
20
-91.8759
11
189.537
21
-91.8769
0
LINE
8
BLACK
6
CONTINUOUS
10
189.537
20
-91.8769
11
189.541
21
-91.8754
0
LINE
8
BLACK
6
CONTINUOUS
10
189.541
20
-91.8754
11
189.78
21
-91.8754
0
LINE
8
BLACK
6
CONTINUOUS
10
189.78
20
-91.8754
11
189.805
21
-91.8799
0
LINE
8
BLACK
6
CONTINUOUS
10
198.281
20
-92.2133
11
198.285
21
-92.2161
0
LINE
8
BLACK
6
CONTINUOUS
10
198.285
20
-92.2161
11
198.289
21
-92.2167
0
LINE
8
BLACK
6
CONTINUOUS
10
198.289
20
-92.2167
11
198.384
21
-92.2643
0
LINE
8
BLACK
6
CONTINUOUS
10
198.384
20
-92.2643
11
198.402
21
-92.2776
0
LINE
8
BLACK
6
CONTINUOUS
10
198.402
20
-92.2776
11
198.404
21
-92.2783
0
LINE
8
BLACK
6
CONTINUOUS
10
198.404
20
-92.2783
11
198.452
21
-92.3259
0
LINE
8
BLACK
6
CONTINUOUS
10
198.452
20
-92.3259
11
198.464
21
-92.3443
0
LINE
8
BLACK
6
CONTINUOUS
10
198.464
20
-92.3443
11
198.466
21
-92.3454
0
LINE
8
BLACK
6
CONTINUOUS
10
198.466
20
-92.3454
11
198.513
21
-92.4407
0
LINE
8
BLACK
6
CONTINUOUS
10
198.513
20
-92.4407
11
198.521
21
-92.4656
0
LINE
8
BLACK
6
CONTINUOUS
10
198.521
20
-92.4656
11
198.52
21
-92.47
0
LINE
8
BLACK
6
CONTINUOUS
10
198.52
20
-92.47
11
198.521
21
-92.4742
0
LINE
8
BLACK
6
CONTINUOUS
10
198.521
20
-92.4742
11
198.521
21
-92.7599
0
LINE
8
BLACK
6
CONTINUOUS
10
198.521
20
-92.7599
11
198.517
21
-92.7856
0
LINE
8
BLACK
6
CONTINUOUS
10
198.517
20
-92.7856
11
198.514
21
-92.789
0
LINE
8
BLACK
6
CONTINUOUS
10
198.514
20
-92.789
11
198.513
21
-92.7935
0
LINE
8
BLACK
6
CONTINUOUS
10
198.513
20
-92.7935
11
198.466
21
-92.8887
0
LINE
8
BLACK
6
CONTINUOUS
10
198.466
20
-92.8887
11
198.452
21
-92.9067
0
LINE
8
BLACK
6
CONTINUOUS
10
198.452
20
-92.9067
11
198.452
21
-92.9082
0
LINE
8
BLACK
6
CONTINUOUS
10
198.452
20
-92.9082
11
198.404
21
-92.9558
0
LINE
8
BLACK
6
CONTINUOUS
10
198.404
20
-92.9558
11
198.386
21
-92.9687
0
LINE
8
BLACK
6
CONTINUOUS
10
198.386
20
-92.9687
11
198.384
21
-92.9699
0
LINE
8
BLACK
6
CONTINUOUS
10
198.384
20
-92.9699
11
198.289
21
-93.0175
0
LINE
8
BLACK
6
CONTINUOUS
10
198.289
20
-93.0175
11
198.264
21
-93.0249
0
LINE
8
BLACK
6
CONTINUOUS
10
198.264
20
-93.0249
11
198.26
21
-93.0239
0
LINE
8
BLACK
6
CONTINUOUS
10
198.26
20
-93.0239
11
198.256
21
-93.0254
0
LINE
8
BLACK
6
CONTINUOUS
10
198.256
20
-93.0254
11
198.113
21
-93.0254
0
LINE
8
BLACK
6
CONTINUOUS
10
198.113
20
-93.0254
11
198.087
21
-93.0209
0
LINE
8
BLACK
6
CONTINUOUS
10
198.087
20
-93.0209
11
198.084
21
-93.018
0
LINE
8
BLACK
6
CONTINUOUS
10
198.084
20
-93.018
11
198.079
21
-93.0175
0
LINE
8
BLACK
6
CONTINUOUS
10
198.079
20
-93.0175
11
197.984
21
-92.9699
0
LINE
8
BLACK
6
CONTINUOUS
10
197.984
20
-92.9699
11
197.966
21
-92.9565
0
LINE
8
BLACK
6
CONTINUOUS
10
197.966
20
-92.9565
11
197.965
21
-92.9558
0
LINE
8
BLACK
6
CONTINUOUS
10
197.965
20
-92.9558
11
197.917
21
-92.9082
0
LINE
8
BLACK
6
CONTINUOUS
10
197.917
20
-92.9082
11
197.904
21
-92.8898
0
LINE
8
BLACK
6
CONTINUOUS
10
197.904
20
-92.8898
11
197.903
21
-92.8887
0
LINE
8
BLACK
6
CONTINUOUS
10
197.903
20
-92.8887
11
197.855
21
-92.7935
0
LINE
8
BLACK
6
CONTINUOUS
10
197.855
20
-92.7935
11
197.848
21
-92.7685
0
LINE
8
BLACK
6
CONTINUOUS
10
197.848
20
-92.7685
11
197.849
21
-92.7641
0
LINE
8
BLACK
6
CONTINUOUS
10
197.849
20
-92.7641
11
197.847
21
-92.7599
0
LINE
8
BLACK
6
CONTINUOUS
10
197.847
20
-92.7599
11
197.847
21
-92.4742
0
LINE
8
BLACK
6
CONTINUOUS
10
197.847
20
-92.4742
11
197.852
21
-92.4486
0
LINE
8
BLACK
6
CONTINUOUS
10
197.852
20
-92.4486
11
197.855
21
-92.4451
0
LINE
8
BLACK
6
CONTINUOUS
10
197.855
20
-92.4451
11
197.855
21
-92.4407
0
LINE
8
BLACK
6
CONTINUOUS
10
197.855
20
-92.4407
11
197.903
21
-92.3454
0
LINE
8
BLACK
6
CONTINUOUS
10
197.903
20
-92.3454
11
197.916
21
-92.3274
0
LINE
8
BLACK
6
CONTINUOUS
10
197.916
20
-92.3274
11
197.917
21
-92.3259
0
LINE
8
BLACK
6
CONTINUOUS
10
197.917
20
-92.3259
11
197.965
21
-92.2783
0
LINE
8
BLACK
6
CONTINUOUS
10
197.965
20
-92.2783
11
197.983
21
-92.2655
0
LINE
8
BLACK
6
CONTINUOUS
10
197.983
20
-92.2655
11
197.984
21
-92.2643
0
LINE
8
BLACK
6
CONTINUOUS
10
197.984
20
-92.2643
11
198.079
21
-92.2167
0
LINE
8
BLACK
6
CONTINUOUS
10
198.079
20
-92.2167
11
198.104
21
-92.2092
0
LINE
8
BLACK
6
CONTINUOUS
10
198.104
20
-92.2092
11
198.109
21
-92.2103
0
LINE
8
BLACK
6
CONTINUOUS
10
198.109
20
-92.2103
11
198.113
21
-92.2087
0
LINE
8
BLACK
6
CONTINUOUS
10
198.113
20
-92.2087
11
198.256
21
-92.2087
0
LINE
8
BLACK
6
CONTINUOUS
10
198.256
20
-92.2087
11
198.281
21
-92.2133
0
LINE
8
BLACK
6
CONTINUOUS
10
198.131
20
-92.3587
11
198.062
21
-92.393
0
LINE
8
BLACK
6
CONTINUOUS
10
198.062
20
-92.393
11
198.032
21
-92.4234
0
LINE
8
BLACK
6
CONTINUOUS
10
198.032
20
-92.4234
11
197.997
21
-92.4919
0
LINE
8
BLACK
6
CONTINUOUS
10
197.997
20
-92.4919
11
197.997
21
-92.7422
0
LINE
8
BLACK
6
CONTINUOUS
10
197.997
20
-92.7422
11
198.032
21
-92.8107
0
LINE
8
BLACK
6
CONTINUOUS
10
198.032
20
-92.8107
11
198.062
21
-92.8411
0
LINE
8
BLACK
6
CONTINUOUS
10
198.062
20
-92.8411
11
198.131
21
-92.8754
0
LINE
8
BLACK
6
CONTINUOUS
10
198.131
20
-92.8754
11
198.238
21
-92.8754
0
LINE
8
BLACK
6
CONTINUOUS
10
198.238
20
-92.8754
11
198.307
21
-92.8411
0
LINE
8
BLACK
6
CONTINUOUS
10
198.307
20
-92.8411
11
198.337
21
-92.8107
0
LINE
8
BLACK
6
CONTINUOUS
10
198.337
20
-92.8107
11
198.371
21
-92.7422
0
LINE
8
BLACK
6
CONTINUOUS
10
198.371
20
-92.7422
11
198.371
21
-92.4919
0
LINE
8
BLACK
6
CONTINUOUS
10
198.371
20
-92.4919
11
198.337
21
-92.4234
0
LINE
8
BLACK
6
CONTINUOUS
10
198.337
20
-92.4234
11
198.307
21
-92.393
0
LINE
8
BLACK
6
CONTINUOUS
10
198.307
20
-92.393
11
198.238
21
-92.3587
0
LINE
8
BLACK
6
CONTINUOUS
10
198.238
20
-92.3587
11
198.131
21
-92.3587
0
LINE
8
BLACK
6
CONTINUOUS
10
190.883
20
-92.2337
11
190.902
21
-92.2813
0
LINE
8
BLACK
6
CONTINUOUS
10
190.902
20
-92.2813
11
190.886
21
-92.3301
0
LINE
8
BLACK
6
CONTINUOUS
10
190.886
20
-92.3301
11
190.661
21
-92.6171
0
LINE
8
BLACK
6
CONTINUOUS
10
190.661
20
-92.6171
11
190.886
21
-92.9041
0
LINE
8
BLACK
6
CONTINUOUS
10
190.886
20
-92.9041
11
190.898
21
-92.927
0
LINE
8
BLACK
6
CONTINUOUS
10
190.898
20
-92.927
11
190.897
21
-92.9783
0
LINE
8
BLACK
6
CONTINUOUS
10
190.897
20
-92.9783
11
190.863
21
-93.0165
0
LINE
8
BLACK
6
CONTINUOUS
10
190.863
20
-93.0165
11
190.812
21
-93.0238
0
LINE
8
BLACK
6
CONTINUOUS
10
190.812
20
-93.0238
11
190.768
21
-92.9967
0
LINE
8
BLACK
6
CONTINUOUS
10
190.768
20
-92.9967
11
190.565
21
-92.7385
0
LINE
8
BLACK
6
CONTINUOUS
10
190.565
20
-92.7385
11
190.362
21
-92.9967
0
LINE
8
BLACK
6
CONTINUOUS
10
190.362
20
-92.9967
11
190.343
21
-93.0141
0
LINE
8
BLACK
6
CONTINUOUS
10
190.343
20
-93.0141
11
190.293
21
-93.0246
0
LINE
8
BLACK
6
CONTINUOUS
10
190.293
20
-93.0246
11
190.247
21
-93.0004
0
LINE
8
BLACK
6
CONTINUOUS
10
190.247
20
-93.0004
11
190.228
21
-92.9528
0
LINE
8
BLACK
6
CONTINUOUS
10
190.228
20
-92.9528
11
190.244
21
-92.9041
0
LINE
8
BLACK
6
CONTINUOUS
10
190.244
20
-92.9041
11
190.47
21
-92.6171
0
LINE
8
BLACK
6
CONTINUOUS
10
190.47
20
-92.6171
11
190.244
21
-92.3301
0
LINE
8
BLACK
6
CONTINUOUS
10
190.244
20
-92.3301
11
190.232
21
-92.3071
0
LINE
8
BLACK
6
CONTINUOUS
10
190.232
20
-92.3071
11
190.234
21
-92.2558
0
LINE
8
BLACK
6
CONTINUOUS
10
190.234
20
-92.2558
11
190.268
21
-92.2176
0
LINE
8
BLACK
6
CONTINUOUS
10
190.268
20
-92.2176
11
190.319
21
-92.2103
0
LINE
8
BLACK
6
CONTINUOUS
10
190.319
20
-92.2103
11
190.362
21
-92.2374
0
LINE
8
BLACK
6
CONTINUOUS
10
190.362
20
-92.2374
11
190.565
21
-92.4957
0
LINE
8
BLACK
6
CONTINUOUS
10
190.565
20
-92.4957
11
190.768
21
-92.2374
0
LINE
8
BLACK
6
CONTINUOUS
10
190.768
20
-92.2374
11
190.788
21
-92.22
0
LINE
8
BLACK
6
CONTINUOUS
10
190.788
20
-92.22
11
190.838
21
-92.2095
0
LINE
8
BLACK
6
CONTINUOUS
10
190.838
20
-92.2095
11
190.883
21
-92.2337
0
LINE
8
BLACK
6
CONTINUOUS
10
188.973
20
-91.8783
11
188.983
21
-91.8765
0
LINE
8
BLACK
6
CONTINUOUS
10
188.983
20
-91.8765
11
188.997
21
-91.8847
0
LINE
8
BLACK
6
CONTINUOUS
10
188.997
20
-91.8847
11
189.013
21
-91.889
0
LINE
8
BLACK
6
CONTINUOUS
10
189.013
20
-91.889
11
189.019
21
-91.8972
0
LINE
8
BLACK
6
CONTINUOUS
10
189.019
20
-91.8972
11
189.027
21
-91.9022
0
LINE
8
BLACK
6
CONTINUOUS
10
189.027
20
-91.9022
11
189.033
21
-91.9176
0
LINE
8
BLACK
6
CONTINUOUS
10
189.033
20
-91.9176
11
189.042
21
-91.931
0
LINE
8
BLACK
6
CONTINUOUS
10
189.042
20
-91.931
11
189.042
21
-91.941
0
LINE
8
BLACK
6
CONTINUOUS
10
189.042
20
-91.941
11
189.045
21
-91.9504
0
LINE
8
BLACK
6
CONTINUOUS
10
189.045
20
-91.9504
11
189.045
21
-92.9504
0
LINE
8
BLACK
6
CONTINUOUS
10
189.045
20
-92.9504
11
189.04
21
-92.9761
0
LINE
8
BLACK
6
CONTINUOUS
10
189.04
20
-92.9761
11
189.007
21
-93.0154
0
LINE
8
BLACK
6
CONTINUOUS
10
189.007
20
-93.0154
11
188.957
21
-93.0243
0
LINE
8
BLACK
6
CONTINUOUS
10
188.957
20
-93.0243
11
188.913
21
-92.9986
0
LINE
8
BLACK
6
CONTINUOUS
10
188.913
20
-92.9986
11
188.895
21
-92.9504
0
LINE
8
BLACK
6
CONTINUOUS
10
188.895
20
-92.9504
11
188.895
21
-92.2885
0
LINE
8
BLACK
6
CONTINUOUS
10
188.895
20
-92.2885
11
188.705
21
-92.6964
0
LINE
8
BLACK
6
CONTINUOUS
10
188.705
20
-92.6964
11
188.699
21
-92.7045
0
LINE
8
BLACK
6
CONTINUOUS
10
188.699
20
-92.7045
11
188.698
21
-92.7077
0
LINE
8
BLACK
6
CONTINUOUS
10
188.698
20
-92.7077
11
188.695
21
-92.7096
0
LINE
8
BLACK
6
CONTINUOUS
10
188.695
20
-92.7096
11
188.69
21
-92.7177
0
LINE
8
BLACK
6
CONTINUOUS
10
188.69
20
-92.7177
11
188.672
21
-92.726
0
LINE
8
BLACK
6
CONTINUOUS
10
188.672
20
-92.726
11
188.656
21
-92.7371
0
LINE
8
BLACK
6
CONTINUOUS
10
188.656
20
-92.7371
11
188.649
21
-92.7365
0
LINE
8
BLACK
6
CONTINUOUS
10
188.649
20
-92.7365
11
188.643
21
-92.7394
0
LINE
8
BLACK
6
CONTINUOUS
10
188.643
20
-92.7394
11
188.624
21
-92.7344
0
LINE
8
BLACK
6
CONTINUOUS
10
188.624
20
-92.7344
11
188.605
21
-92.7327
0
LINE
8
BLACK
6
CONTINUOUS
10
188.605
20
-92.7327
11
188.6
21
-92.7279
0
LINE
8
BLACK
6
CONTINUOUS
10
188.6
20
-92.7279
11
188.594
21
-92.7261
0
LINE
8
BLACK
6
CONTINUOUS
10
188.594
20
-92.7261
11
188.582
21
-92.7102
0
LINE
8
BLACK
6
CONTINUOUS
10
188.582
20
-92.7102
11
188.569
21
-92.6964
0
LINE
8
BLACK
6
CONTINUOUS
10
188.569
20
-92.6964
11
188.378
21
-92.2885
0
LINE
8
BLACK
6
CONTINUOUS
10
188.378
20
-92.2885
11
188.378
21
-92.9504
0
LINE
8
BLACK
6
CONTINUOUS
10
188.378
20
-92.9504
11
188.374
21
-92.9761
0
LINE
8
BLACK
6
CONTINUOUS
10
188.374
20
-92.9761
11
188.341
21
-93.0154
0
LINE
8
BLACK
6
CONTINUOUS
10
188.341
20
-93.0154
11
188.29
21
-93.0243
0
LINE
8
BLACK
6
CONTINUOUS
10
188.29
20
-93.0243
11
188.246
21
-92.9986
0
LINE
8
BLACK
6
CONTINUOUS
10
188.246
20
-92.9986
11
188.228
21
-92.9504
0
LINE
8
BLACK
6
CONTINUOUS
10
188.228
20
-92.9504
11
188.228
21
-91.9504
0
LINE
8
BLACK
6
CONTINUOUS
10
188.228
20
-91.9504
11
188.233
21
-91.9248
0
LINE
8
BLACK
6
CONTINUOUS
10
188.233
20
-91.9248
11
188.239
21
-91.9171
0
LINE
8
BLACK
6
CONTINUOUS
10
188.239
20
-91.9171
11
188.242
21
-91.9074
0
LINE
8
BLACK
6
CONTINUOUS
10
188.242
20
-91.9074
11
188.255
21
-91.898
0
LINE
8
BLACK
6
CONTINUOUS
10
188.255
20
-91.898
11
188.266
21
-91.8855
0
LINE
8
BLACK
6
CONTINUOUS
10
188.266
20
-91.8855
11
188.276
21
-91.8837
0
LINE
8
BLACK
6
CONTINUOUS
10
188.276
20
-91.8837
11
188.284
21
-91.878
0
LINE
8
BLACK
6
CONTINUOUS
10
188.284
20
-91.878
11
188.3
21
-91.8794
0
LINE
8
BLACK
6
CONTINUOUS
10
188.3
20
-91.8794
11
188.316
21
-91.8765
0
LINE
8
BLACK
6
CONTINUOUS
10
188.316
20
-91.8765
11
188.325
21
-91.8816
0
LINE
8
BLACK
6
CONTINUOUS
10
188.325
20
-91.8816
11
188.335
21
-91.8824
0
LINE
8
BLACK
6
CONTINUOUS
10
188.335
20
-91.8824
11
188.347
21
-91.894
0
LINE
8
BLACK
6
CONTINUOUS
10
188.347
20
-91.894
11
188.361
21
-91.9022
0
LINE
8
BLACK
6
CONTINUOUS
10
188.361
20
-91.9022
11
188.364
21
-91.9116
0
LINE
8
BLACK
6
CONTINUOUS
10
188.364
20
-91.9116
11
188.371
21
-91.9187
0
LINE
8
BLACK
6
CONTINUOUS
10
188.371
20
-91.9187
11
188.637
21
-92.4873
0
LINE
8
BLACK
6
CONTINUOUS
10
188.637
20
-92.4873
11
188.902
21
-91.9187
0
LINE
8
BLACK
6
CONTINUOUS
10
188.902
20
-91.9187
11
188.917
21
-91.8974
0
LINE
8
BLACK
6
CONTINUOUS
10
188.917
20
-91.8974
11
188.926
21
-91.8931
0
LINE
8
BLACK
6
CONTINUOUS
10
188.926
20
-91.8931
11
188.932
21
-91.8855
0
LINE
8
BLACK
6
CONTINUOUS
10
188.932
20
-91.8855
11
188.949
21
-91.8826
0
LINE
8
BLACK
6
CONTINUOUS
10
188.949
20
-91.8826
11
188.963
21
-91.8757
0
LINE
8
BLACK
6
CONTINUOUS
10
188.963
20
-91.8757
11
188.973
21
-91.8783
0
LINE
8
BLACK
6
CONTINUOUS
10
199.71
20
-91.8799
11
199.749
21
-91.9129
0
LINE
8
BLACK
6
CONTINUOUS
10
199.749
20
-91.9129
11
199.758
21
-91.9634
0
LINE
8
BLACK
6
CONTINUOUS
10
199.758
20
-91.9634
11
199.732
21
-92.0079
0
LINE
8
BLACK
6
CONTINUOUS
10
199.732
20
-92.0079
11
199.684
21
-92.0254
0
LINE
8
BLACK
6
CONTINUOUS
10
199.684
20
-92.0254
11
199.607
21
-92.0254
0
LINE
8
BLACK
6
CONTINUOUS
10
199.607
20
-92.0254
11
199.55
21
-92.0539
0
LINE
8
BLACK
6
CONTINUOUS
10
199.55
20
-92.0539
11
199.521
21
-92.111
0
LINE
8
BLACK
6
CONTINUOUS
10
199.521
20
-92.111
11
199.521
21
-92.2087
0
LINE
8
BLACK
6
CONTINUOUS
10
199.521
20
-92.2087
11
199.684
21
-92.2087
0
LINE
8
BLACK
6
CONTINUOUS
10
199.684
20
-92.2087
11
199.71
21
-92.2133
0
LINE
8
BLACK
6
CONTINUOUS
10
199.71
20
-92.2133
11
199.749
21
-92.2462
0
LINE
8
BLACK
6
CONTINUOUS
10
199.749
20
-92.2462
11
199.758
21
-92.2968
0
LINE
8
BLACK
6
CONTINUOUS
10
199.758
20
-92.2968
11
199.732
21
-92.3412
0
LINE
8
BLACK
6
CONTINUOUS
10
199.732
20
-92.3412
11
199.684
21
-92.3587
0
LINE
8
BLACK
6
CONTINUOUS
10
199.684
20
-92.3587
11
199.521
21
-92.3587
0
LINE
8
BLACK
6
CONTINUOUS
10
199.521
20
-92.3587
11
199.521
21
-92.9504
0
LINE
8
BLACK
6
CONTINUOUS
10
199.521
20
-92.9504
11
199.517
21
-92.9761
0
LINE
8
BLACK
6
CONTINUOUS
10
199.517
20
-92.9761
11
199.484
21
-93.0154
0
LINE
8
BLACK
6
CONTINUOUS
10
199.484
20
-93.0154
11
199.433
21
-93.0243
0
LINE
8
BLACK
6
CONTINUOUS
10
199.433
20
-93.0243
11
199.389
21
-92.9986
0
LINE
8
BLACK
6
CONTINUOUS
10
199.389
20
-92.9986
11
199.371
21
-92.9504
0
LINE
8
BLACK
6
CONTINUOUS
10
199.371
20
-92.9504
11
199.371
21
-92.3587
0
LINE
8
BLACK
6
CONTINUOUS
10
199.371
20
-92.3587
11
199.303
21
-92.3587
0
LINE
8
BLACK
6
CONTINUOUS
10
199.303
20
-92.3587
11
199.278
21
-92.3542
0
LINE
8
BLACK
6
CONTINUOUS
10
199.278
20
-92.3542
11
199.238
21
-92.3212
0
LINE
8
BLACK
6
CONTINUOUS
10
199.238
20
-92.3212
11
199.229
21
-92.2707
0
LINE
8
BLACK
6
CONTINUOUS
10
199.229
20
-92.2707
11
199.255
21
-92.2263
0
LINE
8
BLACK
6
CONTINUOUS
10
199.255
20
-92.2263
11
199.303
21
-92.2087
0
LINE
8
BLACK
6
CONTINUOUS
10
199.303
20
-92.2087
11
199.371
21
-92.2087
0
LINE
8
BLACK
6
CONTINUOUS
10
199.371
20
-92.2087
11
199.371
21
-92.0933
0
LINE
8
BLACK
6
CONTINUOUS
10
199.371
20
-92.0933
11
199.376
21
-92.0676
0
LINE
8
BLACK
6
CONTINUOUS
10
199.376
20
-92.0676
11
199.379
21
-92.0642
0
LINE
8
BLACK
6
CONTINUOUS
10
199.379
20
-92.0642
11
199.379
21
-92.0597
0
LINE
8
BLACK
6
CONTINUOUS
10
199.379
20
-92.0597
11
199.427
21
-91.9645
0
LINE
8
BLACK
6
CONTINUOUS
10
199.427
20
-91.9645
11
199.442
21
-91.9436
0
LINE
8
BLACK
6
CONTINUOUS
10
199.442
20
-91.9436
11
199.453
21
-91.9391
0
LINE
8
BLACK
6
CONTINUOUS
10
199.453
20
-91.9391
11
199.46
21
-91.9309
0
LINE
8
BLACK
6
CONTINUOUS
10
199.46
20
-91.9309
11
199.555
21
-91.8833
0
LINE
8
BLACK
6
CONTINUOUS
10
199.555
20
-91.8833
11
199.58
21
-91.8759
0
LINE
8
BLACK
6
CONTINUOUS
10
199.58
20
-91.8759
11
199.585
21
-91.8769
0
LINE
8
BLACK
6
CONTINUOUS
10
199.585
20
-91.8769
11
199.589
21
-91.8754
0
LINE
8
BLACK
6
CONTINUOUS
10
199.589
20
-91.8754
11
199.684
21
-91.8754
0
LINE
8
BLACK
6
CONTINUOUS
10
199.684
20
-91.8754
11
199.71
21
-91.8799
0
LINE
8
BLACK
6
CONTINUOUS
10
196.472
20
-92.2133
11
196.475
21
-92.2161
0
LINE
8
BLACK
6
CONTINUOUS
10
196.475
20
-92.2161
11
196.48
21
-92.2167
0
LINE
8
BLACK
6
CONTINUOUS
10
196.48
20
-92.2167
11
196.575
21
-92.2643
0
LINE
8
BLACK
6
CONTINUOUS
10
196.575
20
-92.2643
11
196.596
21
-92.2798
0
LINE
8
BLACK
6
CONTINUOUS
10
196.596
20
-92.2798
11
196.6
21
-92.2901
0
LINE
8
BLACK
6
CONTINUOUS
10
196.6
20
-92.2901
11
196.608
21
-92.2978
0
LINE
8
BLACK
6
CONTINUOUS
10
196.608
20
-92.2978
11
196.656
21
-92.3931
0
LINE
8
BLACK
6
CONTINUOUS
10
196.656
20
-92.3931
11
196.664
21
-92.418
0
LINE
8
BLACK
6
CONTINUOUS
10
196.664
20
-92.418
11
196.663
21
-92.4224
0
LINE
8
BLACK
6
CONTINUOUS
10
196.663
20
-92.4224
11
196.664
21
-92.4266
0
LINE
8
BLACK
6
CONTINUOUS
10
196.664
20
-92.4266
11
196.664
21
-92.9504
0
LINE
8
BLACK
6
CONTINUOUS
10
196.664
20
-92.9504
11
196.66
21
-92.9761
0
LINE
8
BLACK
6
CONTINUOUS
10
196.66
20
-92.9761
11
196.627
21
-93.0154
0
LINE
8
BLACK
6
CONTINUOUS
10
196.627
20
-93.0154
11
196.576
21
-93.0243
0
LINE
8
BLACK
6
CONTINUOUS
10
196.576
20
-93.0243
11
196.532
21
-92.9986
0
LINE
8
BLACK
6
CONTINUOUS
10
196.532
20
-92.9986
11
196.514
21
-92.9504
0
LINE
8
BLACK
6
CONTINUOUS
10
196.514
20
-92.9504
11
196.514
21
-92.4443
0
LINE
8
BLACK
6
CONTINUOUS
10
196.514
20
-92.4443
11
196.486
21
-92.3873
0
LINE
8
BLACK
6
CONTINUOUS
10
196.486
20
-92.3873
11
196.428
21
-92.3587
0
LINE
8
BLACK
6
CONTINUOUS
10
196.428
20
-92.3587
11
196.321
21
-92.3587
0
LINE
8
BLACK
6
CONTINUOUS
10
196.321
20
-92.3587
11
196.253
21
-92.393
0
LINE
8
BLACK
6
CONTINUOUS
10
196.253
20
-92.393
11
196.235
21
-92.41
0
LINE
8
BLACK
6
CONTINUOUS
10
196.235
20
-92.41
11
196.235
21
-92.9504
0
LINE
8
BLACK
6
CONTINUOUS
10
196.235
20
-92.9504
11
196.231
21
-92.9761
0
LINE
8
BLACK
6
CONTINUOUS
10
196.231
20
-92.9761
11
196.198
21
-93.0154
0
LINE
8
BLACK
6
CONTINUOUS
10
196.198
20
-93.0154
11
196.147
21
-93.0243
0
LINE
8
BLACK
6
CONTINUOUS
10
196.147
20
-93.0243
11
196.103
21
-92.9986
0
LINE
8
BLACK
6
CONTINUOUS
10
196.103
20
-92.9986
11
196.085
21
-92.9504
0
LINE
8
BLACK
6
CONTINUOUS
10
196.085
20
-92.9504
11
196.085
21
-92.2837
0
LINE
8
BLACK
6
CONTINUOUS
10
196.085
20
-92.2837
11
196.09
21
-92.2581
0
LINE
8
BLACK
6
CONTINUOUS
10
196.09
20
-92.2581
11
196.123
21
-92.2188
0
LINE
8
BLACK
6
CONTINUOUS
10
196.123
20
-92.2188
11
196.173
21
-92.2099
0
LINE
8
BLACK
6
CONTINUOUS
10
196.173
20
-92.2099
11
196.218
21
-92.2355
0
LINE
8
BLACK
6
CONTINUOUS
10
196.218
20
-92.2355
11
196.22
21
-92.2415
0
LINE
8
BLACK
6
CONTINUOUS
10
196.22
20
-92.2415
11
196.27
21
-92.2167
0
LINE
8
BLACK
6
CONTINUOUS
10
196.27
20
-92.2167
11
196.295
21
-92.2092
0
LINE
8
BLACK
6
CONTINUOUS
10
196.295
20
-92.2092
11
196.299
21
-92.2103
0
LINE
8
BLACK
6
CONTINUOUS
10
196.299
20
-92.2103
11
196.303
21
-92.2087
0
LINE
8
BLACK
6
CONTINUOUS
10
196.303
20
-92.2087
11
196.446
21
-92.2087
0
LINE
8
BLACK
6
CONTINUOUS
10
196.446
20
-92.2087
11
196.472
21
-92.2133
0
LINE
8
BLACK
6
CONTINUOUS
10
199.138
20
-91.8799
11
199.178
21
-91.9129
0
LINE
8
BLACK
6
CONTINUOUS
10
199.178
20
-91.9129
11
199.187
21
-91.9634
0
LINE
8
BLACK
6
CONTINUOUS
10
199.187
20
-91.9634
11
199.161
21
-92.0079
0
LINE
8
BLACK
6
CONTINUOUS
10
199.161
20
-92.0079
11
199.113
21
-92.0254
0
LINE
8
BLACK
6
CONTINUOUS
10
199.113
20
-92.0254
11
199.035
21
-92.0254
0
LINE
8
BLACK
6
CONTINUOUS
10
199.035
20
-92.0254
11
198.978
21
-92.0539
0
LINE
8
BLACK
6
CONTINUOUS
10
198.978
20
-92.0539
11
198.95
21
-92.111
0
LINE
8
BLACK
6
CONTINUOUS
10
198.95
20
-92.111
11
198.95
21
-92.2087
0
LINE
8
BLACK
6
CONTINUOUS
10
198.95
20
-92.2087
11
199.113
21
-92.2087
0
LINE
8
BLACK
6
CONTINUOUS
10
199.113
20
-92.2087
11
199.138
21
-92.2133
0
LINE
8
BLACK
6
CONTINUOUS
10
199.138
20
-92.2133
11
199.178
21
-92.2462
0
LINE
8
BLACK
6
CONTINUOUS
10
199.178
20
-92.2462
11
199.187
21
-92.2968
0
LINE
8
BLACK
6
CONTINUOUS
10
199.187
20
-92.2968
11
199.161
21
-92.3412
0
LINE
8
BLACK
6
CONTINUOUS
10
199.161
20
-92.3412
11
199.113
21
-92.3587
0
LINE
8
BLACK
6
CONTINUOUS
10
199.113
20
-92.3587
11
198.95
21
-92.3587
0
LINE
8
BLACK
6
CONTINUOUS
10
198.95
20
-92.3587
11
198.95
21
-92.9504
0
LINE
8
BLACK
6
CONTINUOUS
10
198.95
20
-92.9504
11
198.945
21
-92.9761
0
LINE
8
BLACK
6
CONTINUOUS
10
198.945
20
-92.9761
11
198.912
21
-93.0154
0
LINE
8
BLACK
6
CONTINUOUS
10
198.912
20
-93.0154
11
198.862
21
-93.0243
0
LINE
8
BLACK
6
CONTINUOUS
10
198.862
20
-93.0243
11
198.817
21
-92.9986
0
LINE
8
BLACK
6
CONTINUOUS
10
198.817
20
-92.9986
11
198.8
21
-92.9504
0
LINE
8
BLACK
6
CONTINUOUS
10
198.8
20
-92.9504
11
198.8
21
-92.3587
0
LINE
8
BLACK
6
CONTINUOUS
10
198.8
20
-92.3587
11
198.732
21
-92.3587
0
LINE
8
BLACK
6
CONTINUOUS
10
198.732
20
-92.3587
11
198.706
21
-92.3542
0
LINE
8
BLACK
6
CONTINUOUS
10
198.706
20
-92.3542
11
198.667
21
-92.3212
0
LINE
8
BLACK
6
CONTINUOUS
10
198.667
20
-92.3212
11
198.658
21
-92.2707
0
LINE
8
BLACK
6
CONTINUOUS
10
198.658
20
-92.2707
11
198.684
21
-92.2263
0
LINE
8
BLACK
6
CONTINUOUS
10
198.684
20
-92.2263
11
198.732
21
-92.2087
0
LINE
8
BLACK
6
CONTINUOUS
10
198.732
20
-92.2087
11
198.8
21
-92.2087
0
LINE
8
BLACK
6
CONTINUOUS
10
198.8
20
-92.2087
11
198.8
21
-92.0933
0
LINE
8
BLACK
6
CONTINUOUS
10
198.8
20
-92.0933
11
198.804
21
-92.0676
0
LINE
8
BLACK
6
CONTINUOUS
10
198.804
20
-92.0676
11
198.807
21
-92.0642
0
LINE
8
BLACK
6
CONTINUOUS
10
198.807
20
-92.0642
11
198.808
21
-92.0597
0
LINE
8
BLACK
6
CONTINUOUS
10
198.808
20
-92.0597
11
198.855
21
-91.9645
0
LINE
8
BLACK
6
CONTINUOUS
10
198.855
20
-91.9645
11
198.871
21
-91.9436
0
LINE
8
BLACK
6
CONTINUOUS
10
198.871
20
-91.9436
11
198.881
21
-91.9391
0
LINE
8
BLACK
6
CONTINUOUS
10
198.881
20
-91.9391
11
198.889
21
-91.9309
0
LINE
8
BLACK
6
CONTINUOUS
10
198.889
20
-91.9309
11
198.984
21
-91.8833
0
LINE
8
BLACK
6
CONTINUOUS
10
198.984
20
-91.8833
11
199.009
21
-91.8759
0
LINE
8
BLACK
6
CONTINUOUS
10
199.009
20
-91.8759
11
199.013
21
-91.8769
0
LINE
8
BLACK
6
CONTINUOUS
10
199.013
20
-91.8769
11
199.018
21
-91.8754
0
LINE
8
BLACK
6
CONTINUOUS
10
199.018
20
-91.8754
11
199.113
21
-91.8754
0
LINE
8
BLACK
6
CONTINUOUS
10
199.113
20
-91.8754
11
199.138
21
-91.8799
0
LINE
8
BLACK
6
CONTINUOUS
10
194.755
20
-88.6773
11
194.759
21
-88.6765
0
LINE
8
BLACK
6
CONTINUOUS
10
194.759
20
-88.6765
11
194.778
21
-88.6874
0
LINE
8
BLACK
6
CONTINUOUS
10
194.778
20
-88.6874
11
194.798
21
-88.6962
0
LINE
8
BLACK
6
CONTINUOUS
10
194.798
20
-88.6962
11
194.8
21
-88.7
0
LINE
8
BLACK
6
CONTINUOUS
10
194.8
20
-88.7
11
194.804
21
-88.7022
0
LINE
8
BLACK
6
CONTINUOUS
10
194.804
20
-88.7022
11
194.811
21
-88.7226
0
LINE
8
BLACK
6
CONTINUOUS
10
194.811
20
-88.7226
11
194.821
21
-88.7422
0
LINE
8
BLACK
6
CONTINUOUS
10
194.821
20
-88.7422
11
194.82
21
-88.7464
0
LINE
8
BLACK
6
CONTINUOUS
10
194.82
20
-88.7464
11
194.821
21
-88.7504
0
LINE
8
BLACK
6
CONTINUOUS
10
194.821
20
-88.7504
11
194.821
21
-89.6754
0
LINE
8
BLACK
6
CONTINUOUS
10
194.821
20
-89.6754
11
195.032
21
-89.6754
0
LINE
8
BLACK
6
CONTINUOUS
10
195.032
20
-89.6754
11
195.058
21
-89.6799
0
LINE
8
BLACK
6
CONTINUOUS
10
195.058
20
-89.6799
11
195.097
21
-89.7129
0
LINE
8
BLACK
6
CONTINUOUS
10
195.097
20
-89.7129
11
195.106
21
-89.7634
0
LINE
8
BLACK
6
CONTINUOUS
10
195.106
20
-89.7634
11
195.08
21
-89.8079
0
LINE
8
BLACK
6
CONTINUOUS
10
195.08
20
-89.8079
11
195.032
21
-89.8254
0
LINE
8
BLACK
6
CONTINUOUS
10
195.032
20
-89.8254
11
194.46
21
-89.8254
0
LINE
8
BLACK
6
CONTINUOUS
10
194.46
20
-89.8254
11
194.435
21
-89.8209
0
LINE
8
BLACK
6
CONTINUOUS
10
194.435
20
-89.8209
11
194.396
21
-89.7879
0
LINE
8
BLACK
6
CONTINUOUS
10
194.396
20
-89.7879
11
194.387
21
-89.7374
0
LINE
8
BLACK
6
CONTINUOUS
10
194.387
20
-89.7374
11
194.412
21
-89.693
0
LINE
8
BLACK
6
CONTINUOUS
10
194.412
20
-89.693
11
194.46
21
-89.6754
0
LINE
8
BLACK
6
CONTINUOUS
10
194.46
20
-89.6754
11
194.671
21
-89.6754
0
LINE
8
BLACK
6
CONTINUOUS
10
194.671
20
-89.6754
11
194.671
21
-88.9791
0
LINE
8
BLACK
6
CONTINUOUS
10
194.671
20
-88.9791
11
194.609
21
-89.0415
0
LINE
8
BLACK
6
CONTINUOUS
10
194.609
20
-89.0415
11
194.59
21
-89.0544
0
LINE
8
BLACK
6
CONTINUOUS
10
194.59
20
-89.0544
11
194.589
21
-89.0556
0
LINE
8
BLACK
6
CONTINUOUS
10
194.589
20
-89.0556
11
194.494
21
-89.1032
0
LINE
8
BLACK
6
CONTINUOUS
10
194.494
20
-89.1032
11
194.469
21
-89.1106
0
LINE
8
BLACK
6
CONTINUOUS
10
194.469
20
-89.1106
11
194.419
21
-89.0987
0
LINE
8
BLACK
6
CONTINUOUS
10
194.419
20
-89.0987
11
194.389
21
-89.0575
0
LINE
8
BLACK
6
CONTINUOUS
10
194.389
20
-89.0575
11
194.392
21
-89.0063
0
LINE
8
BLACK
6
CONTINUOUS
10
194.392
20
-89.0063
11
194.427
21
-88.969
0
LINE
8
BLACK
6
CONTINUOUS
10
194.427
20
-88.969
11
194.511
21
-88.9269
0
LINE
8
BLACK
6
CONTINUOUS
10
194.511
20
-88.9269
11
194.593
21
-88.8455
0
LINE
8
BLACK
6
CONTINUOUS
10
194.593
20
-88.8455
11
194.684
21
-88.7088
0
LINE
8
BLACK
6
CONTINUOUS
10
194.684
20
-88.7088
11
194.702
21
-88.69
0
LINE
8
BLACK
6
CONTINUOUS
10
194.702
20
-88.69
11
194.706
21
-88.6888
0
LINE
8
BLACK
6
CONTINUOUS
10
194.706
20
-88.6888
11
194.709
21
-88.6855
0
LINE
8
BLACK
6
CONTINUOUS
10
194.709
20
-88.6855
11
194.73
21
-88.6817
0
LINE
8
BLACK
6
CONTINUOUS
10
194.73
20
-88.6817
11
194.751
21
-88.6756
0
LINE
8
BLACK
6
CONTINUOUS
10
194.751
20
-88.6756
11
194.755
21
-88.6773
0
LINE
8
BLACK
6
CONTINUOUS
10
194.089
20
-88.7022
11
194.107
21
-88.7504
0
LINE
8
BLACK
6
CONTINUOUS
10
194.107
20
-88.7504
11
194.107
21
-89.7504
0
LINE
8
BLACK
6
CONTINUOUS
10
194.107
20
-89.7504
11
194.102
21
-89.7761
0
LINE
8
BLACK
6
CONTINUOUS
10
194.102
20
-89.7761
11
194.069
21
-89.8154
0
LINE
8
BLACK
6
CONTINUOUS
10
194.069
20
-89.8154
11
194.019
21
-89.8243
0
LINE
8
BLACK
6
CONTINUOUS
10
194.019
20
-89.8243
11
193.974
21
-89.7986
0
LINE
8
BLACK
6
CONTINUOUS
10
193.974
20
-89.7986
11
193.957
21
-89.7504
0
LINE
8
BLACK
6
CONTINUOUS
10
193.957
20
-89.7504
11
193.957
21
-89.3016
0
LINE
8
BLACK
6
CONTINUOUS
10
193.957
20
-89.3016
11
193.535
21
-89.3016
0
LINE
8
BLACK
6
CONTINUOUS
10
193.535
20
-89.3016
11
193.535
21
-89.7504
0
LINE
8
BLACK
6
CONTINUOUS
10
193.535
20
-89.7504
11
193.531
21
-89.7761
0
LINE
8
BLACK
6
CONTINUOUS
10
193.531
20
-89.7761
11
193.498
21
-89.8154
0
LINE
8
BLACK
6
CONTINUOUS
10
193.498
20
-89.8154
11
193.447
21
-89.8243
0
LINE
8
BLACK
6
CONTINUOUS
10
193.447
20
-89.8243
11
193.403
21
-89.7986
0
LINE
8
BLACK
6
CONTINUOUS
10
193.403
20
-89.7986
11
193.385
21
-89.7504
0
LINE
8
BLACK
6
CONTINUOUS
10
193.385
20
-89.7504
11
193.385
21
-88.7504
0
LINE
8
BLACK
6
CONTINUOUS
10
193.385
20
-88.7504
11
193.39
21
-88.7248
0
LINE
8
BLACK
6
CONTINUOUS
10
193.39
20
-88.7248
11
193.423
21
-88.6855
0
LINE
8
BLACK
6
CONTINUOUS
10
193.423
20
-88.6855
11
193.473
21
-88.6765
0
LINE
8
BLACK
6
CONTINUOUS
10
193.473
20
-88.6765
11
193.518
21
-88.7022
0
LINE
8
BLACK
6
CONTINUOUS
10
193.518
20
-88.7022
11
193.535
21
-88.7504
0
LINE
8
BLACK
6
CONTINUOUS
10
193.535
20
-88.7504
11
193.535
21
-89.1516
0
LINE
8
BLACK
6
CONTINUOUS
10
193.535
20
-89.1516
11
193.957
21
-89.1516
0
LINE
8
BLACK
6
CONTINUOUS
10
193.957
20
-89.1516
11
193.957
21
-88.7504
0
LINE
8
BLACK
6
CONTINUOUS
10
193.957
20
-88.7504
11
193.961
21
-88.7248
0
LINE
8
BLACK
6
CONTINUOUS
10
193.961
20
-88.7248
11
193.994
21
-88.6855
0
LINE
8
BLACK
6
CONTINUOUS
10
193.994
20
-88.6855
11
194.045
21
-88.6765
0
LINE
8
BLACK
6
CONTINUOUS
10
194.045
20
-88.6765
11
194.089
21
-88.7022
0
LINE
8
BLACK
6
CONTINUOUS
10
235.181
20
-73.2779
11
235.197
21
-73.2779
0
LINE
8
BLACK
6
CONTINUOUS
10
235.197
20
-73.2779
11
235.21
21
-73.2872
0
LINE
8
BLACK
6
CONTINUOUS
10
235.21
20
-73.2872
11
235.225
21
-73.2921
0
LINE
8
BLACK
6
CONTINUOUS
10
235.225
20
-73.2921
11
235.234
21
-73.3049
0
LINE
8
BLACK
6
CONTINUOUS
10
235.234
20
-73.3049
11
235.247
21
-73.3142
0
LINE
8
BLACK
6
CONTINUOUS
10
235.247
20
-73.3142
11
235.252
21
-73.3293
0
LINE
8
BLACK
6
CONTINUOUS
10
235.252
20
-73.3293
11
235.261
21
-73.3421
0
LINE
8
BLACK
6
CONTINUOUS
10
235.261
20
-73.3421
11
235.261
21
-73.3579
0
LINE
8
BLACK
6
CONTINUOUS
10
235.261
20
-73.3579
11
235.266
21
-73.373
0
LINE
8
BLACK
6
CONTINUOUS
10
235.266
20
-73.373
11
235.266
21
-84.723
0
LINE
8
BLACK
6
CONTINUOUS
10
235.266
20
-84.723
11
235.261
21
-84.7381
0
LINE
8
BLACK
6
CONTINUOUS
10
235.261
20
-84.7381
11
235.261
21
-84.7539
0
LINE
8
BLACK
6
CONTINUOUS
10
235.261
20
-84.7539
11
235.252
21
-84.7667
0
LINE
8
BLACK
6
CONTINUOUS
10
235.252
20
-84.7667
11
235.247
21
-84.7818
0
LINE
8
BLACK
6
CONTINUOUS
10
235.247
20
-84.7818
11
235.234
21
-84.7911
0
LINE
8
BLACK
6
CONTINUOUS
10
235.234
20
-84.7911
11
235.225
21
-84.8039
0
LINE
8
BLACK
6
CONTINUOUS
10
235.225
20
-84.8039
11
235.21
21
-84.8088
0
LINE
8
BLACK
6
CONTINUOUS
10
235.21
20
-84.8088
11
235.197
21
-84.8181
0
LINE
8
BLACK
6
CONTINUOUS
10
235.197
20
-84.8181
11
235.181
21
-84.8181
0
LINE
8
BLACK
6
CONTINUOUS
10
235.181
20
-84.8181
11
235.166
21
-84.823
0
LINE
8
BLACK
6
CONTINUOUS
10
235.166
20
-84.823
11
224.466
21
-84.823
0
LINE
8
BLACK
6
CONTINUOUS
10
224.466
20
-84.823
11
224.451
21
-84.8181
0
LINE
8
BLACK
6
CONTINUOUS
10
224.451
20
-84.8181
11
224.435
21
-84.8181
0
LINE
8
BLACK
6
CONTINUOUS
10
224.435
20
-84.8181
11
224.423
21
-84.8088
0
LINE
8
BLACK
6
CONTINUOUS
10
224.423
20
-84.8088
11
224.408
21
-84.8039
0
LINE
8
BLACK
6
CONTINUOUS
10
224.408
20
-84.8039
11
224.398
21
-84.7911
0
LINE
8
BLACK
6
CONTINUOUS
10
224.398
20
-84.7911
11
224.385
21
-84.7818
0
LINE
8
BLACK
6
CONTINUOUS
10
224.385
20
-84.7818
11
224.381
21
-84.7667
0
LINE
8
BLACK
6
CONTINUOUS
10
224.381
20
-84.7667
11
224.371
21
-84.7539
0
LINE
8
BLACK
6
CONTINUOUS
10
224.371
20
-84.7539
11
224.371
21
-84.7381
0
LINE
8
BLACK
6
CONTINUOUS
10
224.371
20
-84.7381
11
224.366
21
-84.723
0
LINE
8
BLACK
6
CONTINUOUS
10
224.366
20
-84.723
11
224.366
21
-73.373
0
LINE
8
BLACK
6
CONTINUOUS
10
224.366
20
-73.373
11
224.371
21
-73.3579
0
LINE
8
BLACK
6
CONTINUOUS
10
224.371
20
-73.3579
11
224.371
21
-73.3421
0
LINE
8
BLACK
6
CONTINUOUS
10
224.371
20
-73.3421
11
224.381
21
-73.3293
0
LINE
8
BLACK
6
CONTINUOUS
10
224.381
20
-73.3293
11
224.385
21
-73.3142
0
LINE
8
BLACK
6
CONTINUOUS
10
224.385
20
-73.3142
11
224.398
21
-73.3049
0
LINE
8
BLACK
6
CONTINUOUS
10
224.398
20
-73.3049
11
224.408
21
-73.2921
0
LINE
8
BLACK
6
CONTINUOUS
10
224.408
20
-73.2921
11
224.423
21
-73.2872
0
LINE
8
BLACK
6
CONTINUOUS
10
224.423
20
-73.2872
11
224.435
21
-73.2779
0
LINE
8
BLACK
6
CONTINUOUS
10
224.435
20
-73.2779
11
224.451
21
-73.2779
0
LINE
8
BLACK
6
CONTINUOUS
10
224.451
20
-73.2779
11
224.466
21
-73.273
0
LINE
8
BLACK
6
CONTINUOUS
10
224.466
20
-73.273
11
235.166
21
-73.273
0
LINE
8
BLACK
6
CONTINUOUS
10
235.166
20
-73.273
11
235.181
21
-73.2779
0
LINE
8
BLACK
6
CONTINUOUS
10
224.566
20
-73.473
11
224.566
21
-84.623
0
LINE
8
BLACK
6
CONTINUOUS
10
224.566
20
-84.623
11
235.066
21
-84.623
0
LINE
8
BLACK
6
CONTINUOUS
10
235.066
20
-84.623
11
235.066
21
-73.473
0
LINE
8
BLACK
6
CONTINUOUS
10
235.066
20
-73.473
11
224.566
21
-73.473
0
LINE
8
BLACK
6
CONTINUOUS
10
231.153
20
-79.3808
11
231.162
21
-79.3869
0
LINE
8
BLACK
6
CONTINUOUS
10
231.162
20
-79.3869
11
231.173
21
-79.3889
0
LINE
8
BLACK
6
CONTINUOUS
10
231.173
20
-79.3889
11
231.294
21
-79.4494
0
LINE
8
BLACK
6
CONTINUOUS
10
231.294
20
-79.4494
11
231.324
21
-79.4702
0
LINE
8
BLACK
6
CONTINUOUS
10
231.324
20
-79.4702
11
231.325
21
-79.4721
0
LINE
8
BLACK
6
CONTINUOUS
10
231.325
20
-79.4721
11
231.327
21
-79.4732
0
LINE
8
BLACK
6
CONTINUOUS
10
231.327
20
-79.4732
11
231.388
21
-79.5337
0
LINE
8
BLACK
6
CONTINUOUS
10
231.388
20
-79.5337
11
231.41
21
-79.5629
0
LINE
8
BLACK
6
CONTINUOUS
10
231.41
20
-79.5629
11
231.41
21
-79.5651
0
LINE
8
BLACK
6
CONTINUOUS
10
231.41
20
-79.5651
11
231.412
21
-79.5667
0
LINE
8
BLACK
6
CONTINUOUS
10
231.412
20
-79.5667
11
231.472
21
-79.6876
0
LINE
8
BLACK
6
CONTINUOUS
10
231.472
20
-79.6876
11
231.484
21
-79.7222
0
LINE
8
BLACK
6
CONTINUOUS
10
231.484
20
-79.7222
11
231.482
21
-79.7335
0
LINE
8
BLACK
6
CONTINUOUS
10
231.482
20
-79.7335
11
231.486
21
-79.7444
0
LINE
8
BLACK
6
CONTINUOUS
10
231.486
20
-79.7444
11
231.486
21
-79.8654
0
LINE
8
BLACK
6
CONTINUOUS
10
231.486
20
-79.8654
11
231.48
21
-79.9015
0
LINE
8
BLACK
6
CONTINUOUS
10
231.48
20
-79.9015
11
231.479
21
-79.9033
0
LINE
8
BLACK
6
CONTINUOUS
10
231.479
20
-79.9033
11
231.479
21
-79.9055
0
LINE
8
BLACK
6
CONTINUOUS
10
231.479
20
-79.9055
11
231.419
21
-80.087
0
LINE
8
BLACK
6
CONTINUOUS
10
231.419
20
-80.087
11
231.402
21
-80.1195
0
LINE
8
BLACK
6
CONTINUOUS
10
231.402
20
-80.1195
11
231.393
21
-80.1266
0
LINE
8
BLACK
6
CONTINUOUS
10
231.393
20
-80.1266
11
231.388
21
-80.1366
0
LINE
8
BLACK
6
CONTINUOUS
10
231.388
20
-80.1366
11
230.879
21
-80.6455
0
LINE
8
BLACK
6
CONTINUOUS
10
230.879
20
-80.6455
11
231.359
21
-80.6455
0
LINE
8
BLACK
6
CONTINUOUS
10
231.359
20
-80.6455
11
231.395
21
-80.6508
0
LINE
8
BLACK
6
CONTINUOUS
10
231.395
20
-80.6508
11
231.455
21
-80.6895
0
LINE
8
BLACK
6
CONTINUOUS
10
231.455
20
-80.6895
11
231.484
21
-80.7546
0
LINE
8
BLACK
6
CONTINUOUS
10
231.484
20
-80.7546
11
231.474
21
-80.8254
0
LINE
8
BLACK
6
CONTINUOUS
10
231.474
20
-80.8254
11
231.427
21
-80.8794
0
LINE
8
BLACK
6
CONTINUOUS
10
231.427
20
-80.8794
11
231.359
21
-80.8995
0
LINE
8
BLACK
6
CONTINUOUS
10
231.359
20
-80.8995
11
230.572
21
-80.8995
0
LINE
8
BLACK
6
CONTINUOUS
10
230.572
20
-80.8995
11
230.566
21
-80.8986
0
LINE
8
BLACK
6
CONTINUOUS
10
230.566
20
-80.8986
11
230.563
21
-80.8992
0
LINE
8
BLACK
6
CONTINUOUS
10
230.563
20
-80.8992
11
230.559
21
-80.8975
0
LINE
8
BLACK
6
CONTINUOUS
10
230.559
20
-80.8975
11
230.536
21
-80.8943
0
LINE
8
BLACK
6
CONTINUOUS
10
230.536
20
-80.8943
11
230.517
21
-80.882
0
LINE
8
BLACK
6
CONTINUOUS
10
230.517
20
-80.882
11
230.496
21
-80.8741
0
LINE
8
BLACK
6
CONTINUOUS
10
230.496
20
-80.8741
11
230.488
21
-80.863
0
LINE
8
BLACK
6
CONTINUOUS
10
230.488
20
-80.863
11
230.476
21
-80.8555
0
LINE
8
BLACK
6
CONTINUOUS
10
230.476
20
-80.8555
11
230.467
21
-80.8349
0
LINE
8
BLACK
6
CONTINUOUS
10
230.467
20
-80.8349
11
230.453
21
-80.8168
0
LINE
8
BLACK
6
CONTINUOUS
10
230.453
20
-80.8168
11
230.452
21
-80.803
0
LINE
8
BLACK
6
CONTINUOUS
10
230.452
20
-80.803
11
230.447
21
-80.7904
0
LINE
8
BLACK
6
CONTINUOUS
10
230.447
20
-80.7904
11
230.45
21
-80.768
0
LINE
8
BLACK
6
CONTINUOUS
10
230.45
20
-80.768
11
230.448
21
-80.7455
0
LINE
8
BLACK
6
CONTINUOUS
10
230.448
20
-80.7455
11
230.455
21
-80.7333
0
LINE
8
BLACK
6
CONTINUOUS
10
230.455
20
-80.7333
11
230.457
21
-80.7197
0
LINE
8
BLACK
6
CONTINUOUS
10
230.457
20
-80.7197
11
230.472
21
-80.7026
0
LINE
8
BLACK
6
CONTINUOUS
10
230.472
20
-80.7026
11
230.483
21
-80.6827
0
LINE
8
BLACK
6
CONTINUOUS
10
230.483
20
-80.6827
11
231.187
21
-79.9782
0
LINE
8
BLACK
6
CONTINUOUS
10
231.187
20
-79.9782
11
231.232
21
-79.8448
0
LINE
8
BLACK
6
CONTINUOUS
10
231.232
20
-79.8448
11
231.232
21
-79.7744
0
LINE
8
BLACK
6
CONTINUOUS
10
231.232
20
-79.7744
11
231.194
21
-79.6987
0
LINE
8
BLACK
6
CONTINUOUS
10
231.194
20
-79.6987
11
231.162
21
-79.6674
0
LINE
8
BLACK
6
CONTINUOUS
10
231.162
20
-79.6674
11
231.087
21
-79.6295
0
LINE
8
BLACK
6
CONTINUOUS
10
231.087
20
-79.6295
11
230.844
21
-79.6295
0
LINE
8
BLACK
6
CONTINUOUS
10
230.844
20
-79.6295
11
230.769
21
-79.6674
0
LINE
8
BLACK
6
CONTINUOUS
10
230.769
20
-79.6674
11
230.723
21
-79.7133
0
LINE
8
BLACK
6
CONTINUOUS
10
230.723
20
-79.7133
11
230.693
21
-79.7351
0
LINE
8
BLACK
6
CONTINUOUS
10
230.693
20
-79.7351
11
230.624
21
-79.7501
0
LINE
8
BLACK
6
CONTINUOUS
10
230.624
20
-79.7501
11
230.557
21
-79.725
0
LINE
8
BLACK
6
CONTINUOUS
10
230.557
20
-79.725
11
230.514
21
-79.6677
0
LINE
8
BLACK
6
CONTINUOUS
10
230.514
20
-79.6677
11
230.509
21
-79.5964
0
LINE
8
BLACK
6
CONTINUOUS
10
230.509
20
-79.5964
11
230.543
21
-79.5337
0
LINE
8
BLACK
6
CONTINUOUS
10
230.543
20
-79.5337
11
230.603
21
-79.4732
0
LINE
8
BLACK
6
CONTINUOUS
10
230.603
20
-79.4732
11
230.633
21
-79.4514
0
LINE
8
BLACK
6
CONTINUOUS
10
230.633
20
-79.4514
11
230.635
21
-79.4509
0
LINE
8
BLACK
6
CONTINUOUS
10
230.635
20
-79.4509
11
230.636
21
-79.4494
0
LINE
8
BLACK
6
CONTINUOUS
10
230.636
20
-79.4494
11
230.757
21
-79.3889
0
LINE
8
BLACK
6
CONTINUOUS
10
230.757
20
-79.3889
11
230.792
21
-79.3775
0
LINE
8
BLACK
6
CONTINUOUS
10
230.792
20
-79.3775
11
230.803
21
-79.3787
0
LINE
8
BLACK
6
CONTINUOUS
10
230.803
20
-79.3787
11
230.814
21
-79.3755
0
LINE
8
BLACK
6
CONTINUOUS
10
230.814
20
-79.3755
11
231.117
21
-79.3755
0
LINE
8
BLACK
6
CONTINUOUS
10
231.117
20
-79.3755
11
231.153
21
-79.3808
0
LINE
8
BLACK
6
CONTINUOUS
10
229.503
20
-79.4036
11
229.544
21
-79.4624
0
LINE
8
BLACK
6
CONTINUOUS
10
229.544
20
-79.4624
11
229.847
21
-80.3709
0
LINE
8
BLACK
6
CONTINUOUS
10
229.847
20
-80.3709
11
230.149
21
-79.4624
0
LINE
8
BLACK
6
CONTINUOUS
10
230.149
20
-79.4624
11
230.166
21
-79.4298
0
LINE
8
BLACK
6
CONTINUOUS
10
230.166
20
-79.4298
11
230.222
21
-79.3851
0
LINE
8
BLACK
6
CONTINUOUS
10
230.222
20
-79.3851
11
230.293
21
-79.3776
0
LINE
8
BLACK
6
CONTINUOUS
10
230.293
20
-79.3776
11
230.357
21
-79.4097
0
LINE
8
BLACK
6
CONTINUOUS
10
230.357
20
-79.4097
11
230.393
21
-79.4712
0
LINE
8
BLACK
6
CONTINUOUS
10
230.393
20
-79.4712
11
230.39
21
-79.5427
0
LINE
8
BLACK
6
CONTINUOUS
10
230.39
20
-79.5427
11
229.967
21
-80.8127
0
LINE
8
BLACK
6
CONTINUOUS
10
229.967
20
-80.8127
11
229.957
21
-80.833
0
LINE
8
BLACK
6
CONTINUOUS
10
229.957
20
-80.833
11
229.956
21
-80.8375
0
LINE
8
BLACK
6
CONTINUOUS
10
229.956
20
-80.8375
11
229.954
21
-80.8394
0
LINE
8
BLACK
6
CONTINUOUS
10
229.954
20
-80.8394
11
229.951
21
-80.8453
0
LINE
8
BLACK
6
CONTINUOUS
10
229.951
20
-80.8453
11
229.926
21
-80.8648
0
LINE
8
BLACK
6
CONTINUOUS
10
229.926
20
-80.8648
11
229.903
21
-80.8862
0
LINE
8
BLACK
6
CONTINUOUS
10
229.903
20
-80.8862
11
229.899
21
-80.887
0
LINE
8
BLACK
6
CONTINUOUS
10
229.899
20
-80.887
11
229.895
21
-80.89
0
LINE
8
BLACK
6
CONTINUOUS
10
229.895
20
-80.89
11
229.864
21
-80.8933
0
LINE
8
BLACK
6
CONTINUOUS
10
229.864
20
-80.8933
11
229.833
21
-80.8988
0
LINE
8
BLACK
6
CONTINUOUS
10
229.833
20
-80.8988
11
229.829
21
-80.897
0
LINE
8
BLACK
6
CONTINUOUS
10
229.829
20
-80.897
11
229.824
21
-80.8975
0
LINE
8
BLACK
6
CONTINUOUS
10
229.824
20
-80.8975
11
229.796
21
-80.8834
0
LINE
8
BLACK
6
CONTINUOUS
10
229.796
20
-80.8834
11
229.767
21
-80.8714
0
LINE
8
BLACK
6
CONTINUOUS
10
229.767
20
-80.8714
11
229.764
21
-80.8675
0
LINE
8
BLACK
6
CONTINUOUS
10
229.764
20
-80.8675
11
229.76
21
-80.8654
0
LINE
8
BLACK
6
CONTINUOUS
10
229.76
20
-80.8654
11
229.744
21
-80.8384
0
LINE
8
BLACK
6
CONTINUOUS
10
229.744
20
-80.8384
11
229.726
21
-80.8127
0
LINE
8
BLACK
6
CONTINUOUS
10
229.726
20
-80.8127
11
229.303
21
-79.5427
0
LINE
8
BLACK
6
CONTINUOUS
10
229.303
20
-79.5427
11
229.296
21
-79.5068
0
LINE
8
BLACK
6
CONTINUOUS
10
229.296
20
-79.5068
11
229.314
21
-79.4376
0
LINE
8
BLACK
6
CONTINUOUS
10
229.314
20
-79.4376
11
229.367
21
-79.3889
0
LINE
8
BLACK
6
CONTINUOUS
10
229.367
20
-79.3889
11
229.437
21
-79.3763
0
LINE
8
BLACK
6
CONTINUOUS
10
229.437
20
-79.3763
11
229.503
21
-79.4036
0
LINE
8
BLACK
6
CONTINUOUS
10
228.855
20
-79.3808
11
228.864
21
-79.3869
0
LINE
8
BLACK
6
CONTINUOUS
10
228.864
20
-79.3869
11
228.875
21
-79.3889
0
LINE
8
BLACK
6
CONTINUOUS
10
228.875
20
-79.3889
11
228.996
21
-79.4494
0
LINE
8
BLACK
6
CONTINUOUS
10
228.996
20
-79.4494
11
229.026
21
-79.4702
0
LINE
8
BLACK
6
CONTINUOUS
10
229.026
20
-79.4702
11
229.027
21
-79.4721
0
LINE
8
BLACK
6
CONTINUOUS
10
229.027
20
-79.4721
11
229.029
21
-79.4732
0
LINE
8
BLACK
6
CONTINUOUS
10
229.029
20
-79.4732
11
229.09
21
-79.5337
0
LINE
8
BLACK
6
CONTINUOUS
10
229.09
20
-79.5337
11
229.112
21
-79.5629
0
LINE
8
BLACK
6
CONTINUOUS
10
229.112
20
-79.5629
11
229.112
21
-79.5651
0
LINE
8
BLACK
6
CONTINUOUS
10
229.112
20
-79.5651
11
229.114
21
-79.5667
0
LINE
8
BLACK
6
CONTINUOUS
10
229.114
20
-79.5667
11
229.174
21
-79.6876
0
LINE
8
BLACK
6
CONTINUOUS
10
229.174
20
-79.6876
11
229.185
21
-79.7222
0
LINE
8
BLACK
6
CONTINUOUS
10
229.185
20
-79.7222
11
229.184
21
-79.7335
0
LINE
8
BLACK
6
CONTINUOUS
10
229.184
20
-79.7335
11
229.187
21
-79.7444
0
LINE
8
BLACK
6
CONTINUOUS
10
229.187
20
-79.7444
11
229.187
21
-79.9259
0
LINE
8
BLACK
6
CONTINUOUS
10
229.187
20
-79.9259
11
229.182
21
-79.9619
0
LINE
8
BLACK
6
CONTINUOUS
10
229.182
20
-79.9619
11
229.176
21
-79.9715
0
LINE
8
BLACK
6
CONTINUOUS
10
229.176
20
-79.9715
11
229.174
21
-79.9827
0
LINE
8
BLACK
6
CONTINUOUS
10
229.174
20
-79.9827
11
229.114
21
-80.1036
0
LINE
8
BLACK
6
CONTINUOUS
10
229.114
20
-80.1036
11
229.093
21
-80.1335
0
LINE
8
BLACK
6
CONTINUOUS
10
229.093
20
-80.1335
11
229.091
21
-80.1347
0
LINE
8
BLACK
6
CONTINUOUS
10
229.091
20
-80.1347
11
229.09
21
-80.1366
0
LINE
8
BLACK
6
CONTINUOUS
10
229.09
20
-80.1366
11
229.029
21
-80.1971
0
LINE
8
BLACK
6
CONTINUOUS
10
229.029
20
-80.1971
11
229
21
-80.2189
0
LINE
8
BLACK
6
CONTINUOUS
10
229
20
-80.2189
11
228.998
21
-80.2194
0
LINE
8
BLACK
6
CONTINUOUS
10
228.998
20
-80.2194
11
228.996
21
-80.2209
0
LINE
8
BLACK
6
CONTINUOUS
10
228.996
20
-80.2209
11
228.875
21
-80.2814
0
LINE
8
BLACK
6
CONTINUOUS
10
228.875
20
-80.2814
11
228.872
21
-80.2823
0
LINE
8
BLACK
6
CONTINUOUS
10
228.872
20
-80.2823
11
229.164
21
-80.6997
0
LINE
8
BLACK
6
CONTINUOUS
10
229.164
20
-80.6997
11
229.181
21
-80.7322
0
LINE
8
BLACK
6
CONTINUOUS
10
229.181
20
-80.7322
11
229.184
21
-80.8037
0
LINE
8
BLACK
6
CONTINUOUS
10
229.184
20
-80.8037
11
229.147
21
-80.8653
0
LINE
8
BLACK
6
CONTINUOUS
10
229.147
20
-80.8653
11
229.083
21
-80.8974
0
LINE
8
BLACK
6
CONTINUOUS
10
229.083
20
-80.8974
11
229.012
21
-80.89
0
LINE
8
BLACK
6
CONTINUOUS
10
229.012
20
-80.89
11
228.956
21
-80.8454
0
LINE
8
BLACK
6
CONTINUOUS
10
228.956
20
-80.8454
11
228.571
21
-80.2948
0
LINE
8
BLACK
6
CONTINUOUS
10
228.571
20
-80.2948
11
228.462
21
-80.2948
0
LINE
8
BLACK
6
CONTINUOUS
10
228.462
20
-80.2948
11
228.462
21
-80.7725
0
LINE
8
BLACK
6
CONTINUOUS
10
228.462
20
-80.7725
11
228.456
21
-80.8086
0
LINE
8
BLACK
6
CONTINUOUS
10
228.456
20
-80.8086
11
228.418
21
-80.8687
0
LINE
8
BLACK
6
CONTINUOUS
10
228.418
20
-80.8687
11
228.353
21
-80.8983
0
LINE
8
BLACK
6
CONTINUOUS
10
228.353
20
-80.8983
11
228.282
21
-80.888
0
LINE
8
BLACK
6
CONTINUOUS
10
228.282
20
-80.888
11
228.228
21
-80.8411
0
LINE
8
BLACK
6
CONTINUOUS
10
228.228
20
-80.8411
11
228.208
21
-80.7725
0
LINE
8
BLACK
6
CONTINUOUS
10
228.208
20
-80.7725
11
228.208
21
-79.5025
0
LINE
8
BLACK
6
CONTINUOUS
10
228.208
20
-79.5025
11
228.213
21
-79.4665
0
LINE
8
BLACK
6
CONTINUOUS
10
228.213
20
-79.4665
11
228.218
21
-79.4587
0
LINE
8
BLACK
6
CONTINUOUS
10
228.218
20
-79.4587
11
228.219
21
-79.4497
0
LINE
8
BLACK
6
CONTINUOUS
10
228.219
20
-79.4497
11
228.237
21
-79.4292
0
LINE
8
BLACK
6
CONTINUOUS
10
228.237
20
-79.4292
11
228.252
21
-79.4064
0
LINE
8
BLACK
6
CONTINUOUS
10
228.252
20
-79.4064
11
228.26
21
-79.4026
0
LINE
8
BLACK
6
CONTINUOUS
10
228.26
20
-79.4026
11
228.266
21
-79.3957
0
LINE
8
BLACK
6
CONTINUOUS
10
228.266
20
-79.3957
11
228.292
21
-79.388
0
LINE
8
BLACK
6
CONTINUOUS
10
228.292
20
-79.388
11
228.317
21
-79.3768
0
LINE
8
BLACK
6
CONTINUOUS
10
228.317
20
-79.3768
11
228.326
21
-79.3781
0
LINE
8
BLACK
6
CONTINUOUS
10
228.326
20
-79.3781
11
228.335
21
-79.3755
0
LINE
8
BLACK
6
CONTINUOUS
10
228.335
20
-79.3755
11
228.819
21
-79.3755
0
LINE
8
BLACK
6
CONTINUOUS
10
228.819
20
-79.3755
11
228.855
21
-79.3808
0
LINE
8
BLACK
6
CONTINUOUS
10
228.462
20
-79.6295
11
228.462
21
-80.0408
0
LINE
8
BLACK
6
CONTINUOUS
10
228.462
20
-80.0408
11
228.789
21
-80.0408
0
LINE
8
BLACK
6
CONTINUOUS
10
228.789
20
-80.0408
11
228.864
21
-80.0029
0
LINE
8
BLACK
6
CONTINUOUS
10
228.864
20
-80.0029
11
228.896
21
-79.9716
0
LINE
8
BLACK
6
CONTINUOUS
10
228.896
20
-79.9716
11
228.933
21
-79.8959
0
LINE
8
BLACK
6
CONTINUOUS
10
228.933
20
-79.8959
11
228.933
21
-79.7744
0
LINE
8
BLACK
6
CONTINUOUS
10
228.933
20
-79.7744
11
228.896
21
-79.6987
0
LINE
8
BLACK
6
CONTINUOUS
10
228.896
20
-79.6987
11
228.864
21
-79.6674
0
LINE
8
BLACK
6
CONTINUOUS
10
228.864
20
-79.6674
11
228.789
21
-79.6295
0
LINE
8
BLACK
6
CONTINUOUS
10
228.789
20
-79.6295
11
228.462
21
-79.6295
0
LINE
8
BLACK
6
CONTINUOUS
10
206.813
20
-73.2754
11
206.829
21
-73.2754
0
LINE
8
BLACK
6
CONTINUOUS
10
206.829
20
-73.2754
11
206.842
21
-73.2847
0
LINE
8
BLACK
6
CONTINUOUS
10
206.842
20
-73.2847
11
206.857
21
-73.2896
0
LINE
8
BLACK
6
CONTINUOUS
10
206.857
20
-73.2896
11
206.866
21
-73.3024
0
LINE
8
BLACK
6
CONTINUOUS
10
206.866
20
-73.3024
11
206.879
21
-73.3117
0
LINE
8
BLACK
6
CONTINUOUS
10
206.879
20
-73.3117
11
206.884
21
-73.3267
0
LINE
8
BLACK
6
CONTINUOUS
10
206.884
20
-73.3267
11
206.893
21
-73.3396
0
LINE
8
BLACK
6
CONTINUOUS
10
206.893
20
-73.3396
11
206.893
21
-73.3554
0
LINE
8
BLACK
6
CONTINUOUS
10
206.893
20
-73.3554
11
206.898
21
-73.3705
0
LINE
8
BLACK
6
CONTINUOUS
10
206.898
20
-73.3705
11
206.898
21
-84.7205
0
LINE
8
BLACK
6
CONTINUOUS
10
206.898
20
-84.7205
11
206.893
21
-84.7355
0
LINE
8
BLACK
6
CONTINUOUS
10
206.893
20
-84.7355
11
206.893
21
-84.7514
0
LINE
8
BLACK
6
CONTINUOUS
10
206.893
20
-84.7514
11
206.884
21
-84.7642
0
LINE
8
BLACK
6
CONTINUOUS
10
206.884
20
-84.7642
11
206.879
21
-84.7792
0
LINE
8
BLACK
6
CONTINUOUS
10
206.879
20
-84.7792
11
206.866
21
-84.7886
0
LINE
8
BLACK
6
CONTINUOUS
10
206.866
20
-84.7886
11
206.857
21
-84.8014
0
LINE
8
BLACK
6
CONTINUOUS
10
206.857
20
-84.8014
11
206.842
21
-84.8063
0
LINE
8
BLACK
6
CONTINUOUS
10
206.842
20
-84.8063
11
206.829
21
-84.8156
0
LINE
8
BLACK
6
CONTINUOUS
10
206.829
20
-84.8156
11
206.813
21
-84.8156
0
LINE
8
BLACK
6
CONTINUOUS
10
206.813
20
-84.8156
11
206.798
21
-84.8205
0
LINE
8
BLACK
6
CONTINUOUS
10
206.798
20
-84.8205
11
196.098
21
-84.8205
0
LINE
8
BLACK
6
CONTINUOUS
10
196.098
20
-84.8205
11
196.083
21
-84.8156
0
LINE
8
BLACK
6
CONTINUOUS
10
196.083
20
-84.8156
11
196.067
21
-84.8156
0
LINE
8
BLACK
6
CONTINUOUS
10
196.067
20
-84.8156
11
196.054
21
-84.8063
0
LINE
8
BLACK
6
CONTINUOUS
10
196.054
20
-84.8063
11
196.039
21
-84.8014
0
LINE
8
BLACK
6
CONTINUOUS
10
196.039
20
-84.8014
11
196.03
21
-84.7886
0
LINE
8
BLACK
6
CONTINUOUS
10
196.03
20
-84.7886
11
196.017
21
-84.7792
0
LINE
8
BLACK
6
CONTINUOUS
10
196.017
20
-84.7792
11
196.012
21
-84.7642
0
LINE
8
BLACK
6
CONTINUOUS
10
196.012
20
-84.7642
11
196.003
21
-84.7514
0
LINE
8
BLACK
6
CONTINUOUS
10
196.003
20
-84.7514
11
196.003
21
-84.7355
0
LINE
8
BLACK
6
CONTINUOUS
10
196.003
20
-84.7355
11
195.998
21
-84.7205
0
LINE
8
BLACK
6
CONTINUOUS
10
195.998
20
-84.7205
11
195.998
21
-73.3705
0
LINE
8
BLACK
6
CONTINUOUS
10
195.998
20
-73.3705
11
196.003
21
-73.3554
0
LINE
8
BLACK
6
CONTINUOUS
10
196.003
20
-73.3554
11
196.003
21
-73.3396
0
LINE
8
BLACK
6
CONTINUOUS
10
196.003
20
-73.3396
11
196.012
21
-73.3267
0
LINE
8
BLACK
6
CONTINUOUS
10
196.012
20
-73.3267
11
196.017
21
-73.3117
0
LINE
8
BLACK
6
CONTINUOUS
10
196.017
20
-73.3117
11
196.03
21
-73.3024
0
LINE
8
BLACK
6
CONTINUOUS
10
196.03
20
-73.3024
11
196.039
21
-73.2896
0
LINE
8
BLACK
6
CONTINUOUS
10
196.039
20
-73.2896
11
196.054
21
-73.2847
0
LINE
8
BLACK
6
CONTINUOUS
10
196.054
20
-73.2847
11
196.067
21
-73.2754
0
LINE
8
BLACK
6
CONTINUOUS
10
196.067
20
-73.2754
11
196.083
21
-73.2754
0
LINE
8
BLACK
6
CONTINUOUS
10
196.083
20
-73.2754
11
196.098
21
-73.2705
0
LINE
8
BLACK
6
CONTINUOUS
10
196.098
20
-73.2705
11
206.798
21
-73.2705
0
LINE
8
BLACK
6
CONTINUOUS
10
206.798
20
-73.2705
11
206.813
21
-73.2754
0
LINE
8
BLACK
6
CONTINUOUS
10
196.198
20
-73.4705
11
196.198
21
-84.6205
0
LINE
8
BLACK
6
CONTINUOUS
10
196.198
20
-84.6205
11
206.698
21
-84.6205
0
LINE
8
BLACK
6
CONTINUOUS
10
206.698
20
-84.6205
11
206.698
21
-73.4705
0
LINE
8
BLACK
6
CONTINUOUS
10
206.698
20
-73.4705
11
196.198
21
-73.4705
0
LINE
8
BLACK
6
CONTINUOUS
10
202.646
20
-79.3795
11
202.68
21
-79.3845
0
LINE
8
BLACK
6
CONTINUOUS
10
202.68
20
-79.3845
11
202.681
21
-79.3853
0
LINE
8
BLACK
6
CONTINUOUS
10
202.681
20
-79.3853
11
202.682
21
-79.3854
0
LINE
8
BLACK
6
CONTINUOUS
10
202.682
20
-79.3854
11
202.708
21
-79.4086
0
LINE
8
BLACK
6
CONTINUOUS
10
202.708
20
-79.4086
11
202.734
21
-79.4314
0
LINE
8
BLACK
6
CONTINUOUS
10
202.734
20
-79.4314
11
202.735
21
-79.4325
0
LINE
8
BLACK
6
CONTINUOUS
10
202.735
20
-79.4325
11
202.735
21
-79.4332
0
LINE
8
BLACK
6
CONTINUOUS
10
202.735
20
-79.4332
11
202.745
21
-79.4667
0
LINE
8
BLACK
6
CONTINUOUS
10
202.745
20
-79.4667
11
202.754
21
-79.5
0
LINE
8
BLACK
6
CONTINUOUS
10
202.754
20
-79.5
11
202.754
21
-80.643
0
LINE
8
BLACK
6
CONTINUOUS
10
202.754
20
-80.643
11
202.99
21
-80.643
0
LINE
8
BLACK
6
CONTINUOUS
10
202.99
20
-80.643
11
203.026
21
-80.6482
0
LINE
8
BLACK
6
CONTINUOUS
10
203.026
20
-80.6482
11
203.086
21
-80.687
0
LINE
8
BLACK
6
CONTINUOUS
10
203.086
20
-80.687
11
203.116
21
-80.7521
0
LINE
8
BLACK
6
CONTINUOUS
10
203.116
20
-80.7521
11
203.106
21
-80.8229
0
LINE
8
BLACK
6
CONTINUOUS
10
203.106
20
-80.8229
11
203.059
21
-80.8769
0
LINE
8
BLACK
6
CONTINUOUS
10
203.059
20
-80.8769
11
202.99
21
-80.897
0
LINE
8
BLACK
6
CONTINUOUS
10
202.99
20
-80.897
11
202.265
21
-80.897
0
LINE
8
BLACK
6
CONTINUOUS
10
202.265
20
-80.897
11
202.228
21
-80.8918
0
LINE
8
BLACK
6
CONTINUOUS
10
202.228
20
-80.8918
11
202.168
21
-80.853
0
LINE
8
BLACK
6
CONTINUOUS
10
202.168
20
-80.853
11
202.139
21
-80.7879
0
LINE
8
BLACK
6
CONTINUOUS
10
202.139
20
-80.7879
11
202.149
21
-80.7171
0
LINE
8
BLACK
6
CONTINUOUS
10
202.149
20
-80.7171
11
202.196
21
-80.6631
0
LINE
8
BLACK
6
CONTINUOUS
10
202.196
20
-80.6631
11
202.265
21
-80.643
0
LINE
8
BLACK
6
CONTINUOUS
10
202.265
20
-80.643
11
202.5
21
-80.643
0
LINE
8
BLACK
6
CONTINUOUS
10
202.5
20
-80.643
11
202.5
21
-79.8671
0
LINE
8
BLACK
6
CONTINUOUS
10
202.5
20
-79.8671
11
202.475
21
-79.8922
0
LINE
8
BLACK
6
CONTINUOUS
10
202.475
20
-79.8922
11
202.446
21
-79.914
0
LINE
8
BLACK
6
CONTINUOUS
10
202.446
20
-79.914
11
202.444
21
-79.9144
0
LINE
8
BLACK
6
CONTINUOUS
10
202.444
20
-79.9144
11
202.442
21
-79.916
0
LINE
8
BLACK
6
CONTINUOUS
10
202.442
20
-79.916
11
202.321
21
-79.9764
0
LINE
8
BLACK
6
CONTINUOUS
10
202.321
20
-79.9764
11
202.287
21
-79.9879
0
LINE
8
BLACK
6
CONTINUOUS
10
202.287
20
-79.9879
11
202.216
21
-79.9801
0
LINE
8
BLACK
6
CONTINUOUS
10
202.216
20
-79.9801
11
202.16
21
-79.9351
0
LINE
8
BLACK
6
CONTINUOUS
10
202.16
20
-79.9351
11
202.138
21
-79.8672
0
LINE
8
BLACK
6
CONTINUOUS
10
202.138
20
-79.8672
11
202.155
21
-79.7979
0
LINE
8
BLACK
6
CONTINUOUS
10
202.155
20
-79.7979
11
202.208
21
-79.7492
0
LINE
8
BLACK
6
CONTINUOUS
10
202.208
20
-79.7492
11
202.31
21
-79.698
0
LINE
8
BLACK
6
CONTINUOUS
10
202.31
20
-79.698
11
202.408
21
-79.6005
0
LINE
8
BLACK
6
CONTINUOUS
10
202.408
20
-79.6005
11
202.522
21
-79.4295
0
LINE
8
BLACK
6
CONTINUOUS
10
202.522
20
-79.4295
11
202.543
21
-79.4054
0
LINE
8
BLACK
6
CONTINUOUS
10
202.543
20
-79.4054
11
202.544
21
-79.4038
0
LINE
8
BLACK
6
CONTINUOUS
10
202.544
20
-79.4038
11
202.545
21
-79.4035
0
LINE
8
BLACK
6
CONTINUOUS
10
202.545
20
-79.4035
11
202.546
21
-79.4024
0
LINE
8
BLACK
6
CONTINUOUS
10
202.546
20
-79.4024
11
202.578
21
-79.3886
0
LINE
8
BLACK
6
CONTINUOUS
10
202.578
20
-79.3886
11
202.61
21
-79.3743
0
LINE
8
BLACK
6
CONTINUOUS
10
202.61
20
-79.3743
11
202.611
21
-79.3744
0
LINE
8
BLACK
6
CONTINUOUS
10
202.611
20
-79.3744
11
202.612
21
-79.374
0
LINE
8
BLACK
6
CONTINUOUS
10
202.612
20
-79.374
11
202.646
21
-79.3795
0
LINE
8
BLACK
6
CONTINUOUS
10
201.135
20
-79.4011
11
201.176
21
-79.4598
0
LINE
8
BLACK
6
CONTINUOUS
10
201.176
20
-79.4598
11
201.478
21
-80.3684
0
LINE
8
BLACK
6
CONTINUOUS
10
201.478
20
-80.3684
11
201.781
21
-79.4598
0
LINE
8
BLACK
6
CONTINUOUS
10
201.781
20
-79.4598
11
201.798
21
-79.4273
0
LINE
8
BLACK
6
CONTINUOUS
10
201.798
20
-79.4273
11
201.853
21
-79.3825
0
LINE
8
BLACK
6
CONTINUOUS
10
201.853
20
-79.3825
11
201.924
21
-79.375
0
LINE
8
BLACK
6
CONTINUOUS
10
201.924
20
-79.375
11
201.988
21
-79.4072
0
LINE
8
BLACK
6
CONTINUOUS
10
201.988
20
-79.4072
11
202.025
21
-79.4687
0
LINE
8
BLACK
6
CONTINUOUS
10
202.025
20
-79.4687
11
202.022
21
-79.5401
0
LINE
8
BLACK
6
CONTINUOUS
10
202.022
20
-79.5401
11
201.599
21
-80.8101
0
LINE
8
BLACK
6
CONTINUOUS
10
201.599
20
-80.8101
11
201.589
21
-80.8304
0
LINE
8
BLACK
6
CONTINUOUS
10
201.589
20
-80.8304
11
201.588
21
-80.8349
0
LINE
8
BLACK
6
CONTINUOUS
10
201.588
20
-80.8349
11
201.585
21
-80.8369
0
LINE
8
BLACK
6
CONTINUOUS
10
201.585
20
-80.8369
11
201.582
21
-80.8427
0
LINE
8
BLACK
6
CONTINUOUS
10
201.582
20
-80.8427
11
201.558
21
-80.8623
0
LINE
8
BLACK
6
CONTINUOUS
10
201.558
20
-80.8623
11
201.535
21
-80.8836
0
LINE
8
BLACK
6
CONTINUOUS
10
201.535
20
-80.8836
11
201.53
21
-80.8845
0
LINE
8
BLACK
6
CONTINUOUS
10
201.53
20
-80.8845
11
201.527
21
-80.8874
0
LINE
8
BLACK
6
CONTINUOUS
10
201.527
20
-80.8874
11
201.496
21
-80.8907
0
LINE
8
BLACK
6
CONTINUOUS
10
201.496
20
-80.8907
11
201.465
21
-80.8963
0
LINE
8
BLACK
6
CONTINUOUS
10
201.465
20
-80.8963
11
201.46
21
-80.8944
0
LINE
8
BLACK
6
CONTINUOUS
10
201.46
20
-80.8944
11
201.456
21
-80.8949
0
LINE
8
BLACK
6
CONTINUOUS
10
201.456
20
-80.8949
11
201.428
21
-80.8809
0
LINE
8
BLACK
6
CONTINUOUS
10
201.428
20
-80.8809
11
201.399
21
-80.8689
0
LINE
8
BLACK
6
CONTINUOUS
10
201.399
20
-80.8689
11
201.396
21
-80.865
0
LINE
8
BLACK
6
CONTINUOUS
10
201.396
20
-80.865
11
201.392
21
-80.8628
0
LINE
8
BLACK
6
CONTINUOUS
10
201.392
20
-80.8628
11
201.376
21
-80.8359
0
LINE
8
BLACK
6
CONTINUOUS
10
201.376
20
-80.8359
11
201.358
21
-80.8101
0
LINE
8
BLACK
6
CONTINUOUS
10
201.358
20
-80.8101
11
200.935
21
-79.5401
0
LINE
8
BLACK
6
CONTINUOUS
10
200.935
20
-79.5401
11
200.928
21
-79.5043
0
LINE
8
BLACK
6
CONTINUOUS
10
200.928
20
-79.5043
11
200.946
21
-79.435
0
LINE
8
BLACK
6
CONTINUOUS
10
200.946
20
-79.435
11
200.998
21
-79.3864
0
LINE
8
BLACK
6
CONTINUOUS
10
200.998
20
-79.3864
11
201.069
21
-79.3737
0
LINE
8
BLACK
6
CONTINUOUS
10
201.069
20
-79.3737
11
201.135
21
-79.4011
0
LINE
8
BLACK
6
CONTINUOUS
10
200.486
20
-79.3782
11
200.496
21
-79.3844
0
LINE
8
BLACK
6
CONTINUOUS
10
200.496
20
-79.3844
11
200.507
21
-79.3864
0
LINE
8
BLACK
6
CONTINUOUS
10
200.507
20
-79.3864
11
200.628
21
-79.4469
0
LINE
8
BLACK
6
CONTINUOUS
10
200.628
20
-79.4469
11
200.658
21
-79.4677
0
LINE
8
BLACK
6
CONTINUOUS
10
200.658
20
-79.4677
11
200.659
21
-79.4696
0
LINE
8
BLACK
6
CONTINUOUS
10
200.659
20
-79.4696
11
200.661
21
-79.4707
0
LINE
8
BLACK
6
CONTINUOUS
10
200.661
20
-79.4707
11
200.722
21
-79.5311
0
LINE
8
BLACK
6
CONTINUOUS
10
200.722
20
-79.5311
11
200.743
21
-79.5603
0
LINE
8
BLACK
6
CONTINUOUS
10
200.743
20
-79.5603
11
200.744
21
-79.5625
0
LINE
8
BLACK
6
CONTINUOUS
10
200.744
20
-79.5625
11
200.745
21
-79.5641
0
LINE
8
BLACK
6
CONTINUOUS
10
200.745
20
-79.5641
11
200.806
21
-79.6851
0
LINE
8
BLACK
6
CONTINUOUS
10
200.806
20
-79.6851
11
200.817
21
-79.7197
0
LINE
8
BLACK
6
CONTINUOUS
10
200.817
20
-79.7197
11
200.816
21
-79.731
0
LINE
8
BLACK
6
CONTINUOUS
10
200.816
20
-79.731
11
200.819
21
-79.7419
0
LINE
8
BLACK
6
CONTINUOUS
10
200.819
20
-79.7419
11
200.819
21
-79.9233
0
LINE
8
BLACK
6
CONTINUOUS
10
200.819
20
-79.9233
11
200.814
21
-79.9594
0
LINE
8
BLACK
6
CONTINUOUS
10
200.814
20
-79.9594
11
200.808
21
-79.9689
0
LINE
8
BLACK
6
CONTINUOUS
10
200.808
20
-79.9689
11
200.806
21
-79.9801
0
LINE
8
BLACK
6
CONTINUOUS
10
200.806
20
-79.9801
11
200.745
21
-80.1011
0
LINE
8
BLACK
6
CONTINUOUS
10
200.745
20
-80.1011
11
200.724
21
-80.131
0
LINE
8
BLACK
6
CONTINUOUS
10
200.724
20
-80.131
11
200.723
21
-80.1321
0
LINE
8
BLACK
6
CONTINUOUS
10
200.723
20
-80.1321
11
200.722
21
-80.1341
0
LINE
8
BLACK
6
CONTINUOUS
10
200.722
20
-80.1341
11
200.661
21
-80.1945
0
LINE
8
BLACK
6
CONTINUOUS
10
200.661
20
-80.1945
11
200.632
21
-80.2164
0
LINE
8
BLACK
6
CONTINUOUS
10
200.632
20
-80.2164
11
200.63
21
-80.2168
0
LINE
8
BLACK
6
CONTINUOUS
10
200.63
20
-80.2168
11
200.628
21
-80.2183
0
LINE
8
BLACK
6
CONTINUOUS
10
200.628
20
-80.2183
11
200.507
21
-80.2788
0
LINE
8
BLACK
6
CONTINUOUS
10
200.507
20
-80.2788
11
200.504
21
-80.2798
0
LINE
8
BLACK
6
CONTINUOUS
10
200.504
20
-80.2798
11
200.796
21
-80.6972
0
LINE
8
BLACK
6
CONTINUOUS
10
200.796
20
-80.6972
11
200.813
21
-80.7297
0
LINE
8
BLACK
6
CONTINUOUS
10
200.813
20
-80.7297
11
200.815
21
-80.8012
0
LINE
8
BLACK
6
CONTINUOUS
10
200.815
20
-80.8012
11
200.779
21
-80.8627
0
LINE
8
BLACK
6
CONTINUOUS
10
200.779
20
-80.8627
11
200.715
21
-80.8949
0
LINE
8
BLACK
6
CONTINUOUS
10
200.715
20
-80.8949
11
200.644
21
-80.8875
0
LINE
8
BLACK
6
CONTINUOUS
10
200.644
20
-80.8875
11
200.588
21
-80.8428
0
LINE
8
BLACK
6
CONTINUOUS
10
200.588
20
-80.8428
11
200.203
21
-80.2922
0
LINE
8
BLACK
6
CONTINUOUS
10
200.203
20
-80.2922
11
200.093
21
-80.2922
0
LINE
8
BLACK
6
CONTINUOUS
10
200.093
20
-80.2922
11
200.093
21
-80.77
0
LINE
8
BLACK
6
CONTINUOUS
10
200.093
20
-80.77
11
200.088
21
-80.8061
0
LINE
8
BLACK
6
CONTINUOUS
10
200.088
20
-80.8061
11
200.049
21
-80.8661
0
LINE
8
BLACK
6
CONTINUOUS
10
200.049
20
-80.8661
11
199.984
21
-80.8957
0
LINE
8
BLACK
6
CONTINUOUS
10
199.984
20
-80.8957
11
199.914
21
-80.8855
0
LINE
8
BLACK
6
CONTINUOUS
10
199.914
20
-80.8855
11
199.86
21
-80.8386
0
LINE
8
BLACK
6
CONTINUOUS
10
199.86
20
-80.8386
11
199.839
21
-80.77
0
LINE
8
BLACK
6
CONTINUOUS
10
199.839
20
-80.77
11
199.839
21
-79.5
0
LINE
8
BLACK
6
CONTINUOUS
10
199.839
20
-79.5
11
199.845
21
-79.4639
0
LINE
8
BLACK
6
CONTINUOUS
10
199.845
20
-79.4639
11
199.85
21
-79.4562
0
LINE
8
BLACK
6
CONTINUOUS
10
199.85
20
-79.4562
11
199.851
21
-79.4471
0
LINE
8
BLACK
6
CONTINUOUS
10
199.851
20
-79.4471
11
199.869
21
-79.4266
0
LINE
8
BLACK
6
CONTINUOUS
10
199.869
20
-79.4266
11
199.883
21
-79.4038
0
LINE
8
BLACK
6
CONTINUOUS
10
199.883
20
-79.4038
11
199.892
21
-79.4
0
LINE
8
BLACK
6
CONTINUOUS
10
199.892
20
-79.4
11
199.898
21
-79.3931
0
LINE
8
BLACK
6
CONTINUOUS
10
199.898
20
-79.3931
11
199.924
21
-79.3855
0
LINE
8
BLACK
6
CONTINUOUS
10
199.924
20
-79.3855
11
199.949
21
-79.3743
0
LINE
8
BLACK
6
CONTINUOUS
10
199.949
20
-79.3743
11
199.958
21
-79.3756
0
LINE
8
BLACK
6
CONTINUOUS
10
199.958
20
-79.3756
11
199.966
21
-79.373
0
LINE
8
BLACK
6
CONTINUOUS
10
199.966
20
-79.373
11
200.45
21
-79.373
0
LINE
8
BLACK
6
CONTINUOUS
10
200.45
20
-79.373
11
200.486
21
-79.3782
0
LINE
8
BLACK
6
CONTINUOUS
10
200.093
20
-79.627
11
200.093
21
-80.0382
0
LINE
8
BLACK
6
CONTINUOUS
10
200.093
20
-80.0382
11
200.42
21
-80.0382
0
LINE
8
BLACK
6
CONTINUOUS
10
200.42
20
-80.0382
11
200.496
21
-80.0004
0
LINE
8
BLACK
6
CONTINUOUS
10
200.496
20
-80.0004
11
200.527
21
-79.969
0
LINE
8
BLACK
6
CONTINUOUS
10
200.527
20
-79.969
11
200.565
21
-79.8933
0
LINE
8
BLACK
6
CONTINUOUS
10
200.565
20
-79.8933
11
200.565
21
-79.7719
0
LINE
8
BLACK
6
CONTINUOUS
10
200.565
20
-79.7719
11
200.527
21
-79.6962
0
LINE
8
BLACK
6
CONTINUOUS
10
200.527
20
-79.6962
11
200.496
21
-79.6648
0
LINE
8
BLACK
6
CONTINUOUS
10
200.496
20
-79.6648
11
200.42
21
-79.627
0
LINE
8
BLACK
6
CONTINUOUS
10
200.42
20
-79.627
11
200.093
21
-79.627
0
LINE
8
BLACK
6
CONTINUOUS
10
216.986
20
-66.4978
11
216.986
21
-72.7978
0
LINE
8
BLACK
6
CONTINUOUS
10
216.986
20
-72.7978
11
216.972
21
-72.8331
0
LINE
8
BLACK
6
CONTINUOUS
10
216.972
20
-72.8331
11
216.936
21
-72.8478
0
LINE
8
BLACK
6
CONTINUOUS
10
216.936
20
-72.8478
11
215.736
21
-72.8478
0
LINE
8
BLACK
6
CONTINUOUS
10
215.736
20
-72.8478
11
215.736
21
-74.7278
0
LINE
8
BLACK
6
CONTINUOUS
10
215.736
20
-74.7278
11
215.722
21
-74.7631
0
LINE
8
BLACK
6
CONTINUOUS
10
215.722
20
-74.7631
11
215.686
21
-74.7778
0
LINE
8
BLACK
6
CONTINUOUS
10
215.686
20
-74.7778
11
215.651
21
-74.7631
0
LINE
8
BLACK
6
CONTINUOUS
10
215.651
20
-74.7631
11
215.636
21
-74.7278
0
LINE
8
BLACK
6
CONTINUOUS
10
215.636
20
-74.7278
11
215.636
21
-72.8478
0
LINE
8
BLACK
6
CONTINUOUS
10
215.636
20
-72.8478
11
214.436
21
-72.8478
0
LINE
8
BLACK
6
CONTINUOUS
10
214.436
20
-72.8478
11
214.401
21
-72.8331
0
LINE
8
BLACK
6
CONTINUOUS
10
214.401
20
-72.8331
11
214.386
21
-72.7978
0
LINE
8
BLACK
6
CONTINUOUS
10
214.386
20
-72.7978
11
214.386
21
-66.4978
0
LINE
8
BLACK
6
CONTINUOUS
10
214.386
20
-66.4978
11
214.401
21
-66.4624
0
LINE
8
BLACK
6
CONTINUOUS
10
214.401
20
-66.4624
11
214.436
21
-66.4478
0
LINE
8
BLACK
6
CONTINUOUS
10
214.436
20
-66.4478
11
215.636
21
-66.4478
0
LINE
8
BLACK
6
CONTINUOUS
10
215.636
20
-66.4478
11
215.636
21
-64.5678
0
LINE
8
BLACK
6
CONTINUOUS
10
215.636
20
-64.5678
11
215.651
21
-64.5324
0
LINE
8
BLACK
6
CONTINUOUS
10
215.651
20
-64.5324
11
215.686
21
-64.5178
0
LINE
8
BLACK
6
CONTINUOUS
10
215.686
20
-64.5178
11
215.722
21
-64.5324
0
LINE
8
BLACK
6
CONTINUOUS
10
215.722
20
-64.5324
11
215.736
21
-64.5678
0
LINE
8
BLACK
6
CONTINUOUS
10
215.736
20
-64.5678
11
215.736
21
-66.4478
0
LINE
8
BLACK
6
CONTINUOUS
10
215.736
20
-66.4478
11
216.936
21
-66.4478
0
LINE
8
BLACK
6
CONTINUOUS
10
216.936
20
-66.4478
11
216.972
21
-66.4624
0
LINE
8
BLACK
6
CONTINUOUS
10
216.972
20
-66.4624
11
216.986
21
-66.4978
0
LINE
8
BLACK
6
CONTINUOUS
10
214.486
20
-72.7478
11
216.886
21
-72.7478
0
LINE
8
BLACK
6
CONTINUOUS
10
216.886
20
-72.7478
11
216.886
21
-66.5478
0
LINE
8
BLACK
6
CONTINUOUS
10
216.886
20
-66.5478
11
214.486
21
-66.5478
0
LINE
8
BLACK
6
CONTINUOUS
10
214.486
20
-66.5478
11
214.486
21
-72.7478
0
LINE
8
BLACK
6
CONTINUOUS
10
215.498
20
-69.744
11
215.501
21
-69.7469
0
LINE
8
BLACK
6
CONTINUOUS
10
215.501
20
-69.7469
11
215.506
21
-69.7474
0
LINE
8
BLACK
6
CONTINUOUS
10
215.506
20
-69.7474
11
215.601
21
-69.795
0
LINE
8
BLACK
6
CONTINUOUS
10
215.601
20
-69.795
11
215.619
21
-69.8084
0
LINE
8
BLACK
6
CONTINUOUS
10
215.619
20
-69.8084
11
215.62
21
-69.809
0
LINE
8
BLACK
6
CONTINUOUS
10
215.62
20
-69.809
11
215.668
21
-69.8567
0
LINE
8
BLACK
6
CONTINUOUS
10
215.668
20
-69.8567
11
215.681
21
-69.875
0
LINE
8
BLACK
6
CONTINUOUS
10
215.681
20
-69.875
11
215.682
21
-69.8762
0
LINE
8
BLACK
6
CONTINUOUS
10
215.682
20
-69.8762
11
215.73
21
-69.9714
0
LINE
8
BLACK
6
CONTINUOUS
10
215.73
20
-69.9714
11
215.737
21
-69.9964
0
LINE
8
BLACK
6
CONTINUOUS
10
215.737
20
-69.9964
11
215.736
21
-70.0007
0
LINE
8
BLACK
6
CONTINUOUS
10
215.736
20
-70.0007
11
215.737
21
-70.004
0
LINE
8
BLACK
6
CONTINUOUS
10
215.737
20
-70.004
11
216.096
21
-69.753
0
LINE
8
BLACK
6
CONTINUOUS
10
216.096
20
-69.753
11
216.119
21
-69.742
0
LINE
8
BLACK
6
CONTINUOUS
10
216.119
20
-69.742
11
216.17
21
-69.7465
0
LINE
8
BLACK
6
CONTINUOUS
10
216.17
20
-69.7465
11
216.207
21
-69.7828
0
LINE
8
BLACK
6
CONTINUOUS
10
216.207
20
-69.7828
11
216.211
21
-69.8339
0
LINE
8
BLACK
6
CONTINUOUS
10
216.211
20
-69.8339
11
216.182
21
-69.8759
0
LINE
8
BLACK
6
CONTINUOUS
10
216.182
20
-69.8759
11
215.738
21
-70.1868
0
LINE
8
BLACK
6
CONTINUOUS
10
215.738
20
-70.1868
11
215.738
21
-70.3109
0
LINE
8
BLACK
6
CONTINUOUS
10
215.738
20
-70.3109
11
216.139
21
-70.3109
0
LINE
8
BLACK
6
CONTINUOUS
10
216.139
20
-70.3109
11
216.164
21
-70.3154
0
LINE
8
BLACK
6
CONTINUOUS
10
216.164
20
-70.3154
11
216.204
21
-70.3484
0
LINE
8
BLACK
6
CONTINUOUS
10
216.204
20
-70.3484
11
216.213
21
-70.3989
0
LINE
8
BLACK
6
CONTINUOUS
10
216.213
20
-70.3989
11
216.187
21
-70.4433
0
LINE
8
BLACK
6
CONTINUOUS
10
216.187
20
-70.4433
11
216.139
21
-70.4609
0
LINE
8
BLACK
6
CONTINUOUS
10
216.139
20
-70.4609
11
215.139
21
-70.4609
0
LINE
8
BLACK
6
CONTINUOUS
10
215.139
20
-70.4609
11
215.129
21
-70.4592
0
LINE
8
BLACK
6
CONTINUOUS
10
215.129
20
-70.4592
11
215.126
21
-70.4597
0
LINE
8
BLACK
6
CONTINUOUS
10
215.126
20
-70.4597
11
215.123
21
-70.4581
0
LINE
8
BLACK
6
CONTINUOUS
10
215.123
20
-70.4581
11
215.113
21
-70.4564
0
LINE
8
BLACK
6
CONTINUOUS
10
215.113
20
-70.4564
11
215.098
21
-70.4438
0
LINE
8
BLACK
6
CONTINUOUS
10
215.098
20
-70.4438
11
215.081
21
-70.4341
0
LINE
8
BLACK
6
CONTINUOUS
10
215.081
20
-70.4341
11
215.079
21
-70.4277
0
LINE
8
BLACK
6
CONTINUOUS
10
215.079
20
-70.4277
11
215.074
21
-70.4234
0
LINE
8
BLACK
6
CONTINUOUS
10
215.074
20
-70.4234
11
215.07
21
-70.4042
0
LINE
8
BLACK
6
CONTINUOUS
10
215.07
20
-70.4042
11
215.064
21
-70.3859
0
LINE
8
BLACK
6
CONTINUOUS
10
215.064
20
-70.3859
11
215.064
21
-70.0049
0
LINE
8
BLACK
6
CONTINUOUS
10
215.064
20
-70.0049
11
215.068
21
-69.9793
0
LINE
8
BLACK
6
CONTINUOUS
10
215.068
20
-69.9793
11
215.071
21
-69.9758
0
LINE
8
BLACK
6
CONTINUOUS
10
215.071
20
-69.9758
11
215.072
21
-69.9714
0
LINE
8
BLACK
6
CONTINUOUS
10
215.072
20
-69.9714
11
215.119
21
-69.8762
0
LINE
8
BLACK
6
CONTINUOUS
10
215.119
20
-69.8762
11
215.133
21
-69.8581
0
LINE
8
BLACK
6
CONTINUOUS
10
215.133
20
-69.8581
11
215.133
21
-69.8567
0
LINE
8
BLACK
6
CONTINUOUS
10
215.133
20
-69.8567
11
215.181
21
-69.809
0
LINE
8
BLACK
6
CONTINUOUS
10
215.181
20
-69.809
11
215.199
21
-69.7962
0
LINE
8
BLACK
6
CONTINUOUS
10
215.199
20
-69.7962
11
215.2
21
-69.795
0
LINE
8
BLACK
6
CONTINUOUS
10
215.2
20
-69.795
11
215.296
21
-69.7474
0
LINE
8
BLACK
6
CONTINUOUS
10
215.296
20
-69.7474
11
215.321
21
-69.7399
0
LINE
8
BLACK
6
CONTINUOUS
10
215.321
20
-69.7399
11
215.325
21
-69.741
0
LINE
8
BLACK
6
CONTINUOUS
10
215.325
20
-69.741
11
215.329
21
-69.7395
0
LINE
8
BLACK
6
CONTINUOUS
10
215.329
20
-69.7395
11
215.472
21
-69.7395
0
LINE
8
BLACK
6
CONTINUOUS
10
215.472
20
-69.7395
11
215.498
21
-69.744
0
LINE
8
BLACK
6
CONTINUOUS
10
215.347
20
-69.8895
11
215.278
21
-69.9237
0
LINE
8
BLACK
6
CONTINUOUS
10
215.278
20
-69.9237
11
215.248
21
-69.9541
0
LINE
8
BLACK
6
CONTINUOUS
10
215.248
20
-69.9541
11
215.214
21
-70.0226
0
LINE
8
BLACK
6
CONTINUOUS
10
215.214
20
-70.0226
11
215.214
21
-70.3109
0
LINE
8
BLACK
6
CONTINUOUS
10
215.214
20
-70.3109
11
215.588
21
-70.3109
0
LINE
8
BLACK
6
CONTINUOUS
10
215.588
20
-70.3109
11
215.588
21
-70.0226
0
LINE
8
BLACK
6
CONTINUOUS
10
215.588
20
-70.0226
11
215.553
21
-69.9541
0
LINE
8
BLACK
6
CONTINUOUS
10
215.553
20
-69.9541
11
215.523
21
-69.9237
0
LINE
8
BLACK
6
CONTINUOUS
10
215.523
20
-69.9237
11
215.454
21
-69.8895
0
LINE
8
BLACK
6
CONTINUOUS
10
215.454
20
-69.8895
11
215.347
21
-69.8895
0
LINE
8
BLACK
6
CONTINUOUS
10
216.196
20
-68.8139
11
216.214
21
-68.8621
0
LINE
8
BLACK
6
CONTINUOUS
10
216.214
20
-68.8621
11
216.214
21
-69.4335
0
LINE
8
BLACK
6
CONTINUOUS
10
216.214
20
-69.4335
11
216.209
21
-69.4592
0
LINE
8
BLACK
6
CONTINUOUS
10
216.209
20
-69.4592
11
216.176
21
-69.4985
0
LINE
8
BLACK
6
CONTINUOUS
10
216.176
20
-69.4985
11
216.126
21
-69.5074
0
LINE
8
BLACK
6
CONTINUOUS
10
216.126
20
-69.5074
11
216.081
21
-69.4817
0
LINE
8
BLACK
6
CONTINUOUS
10
216.081
20
-69.4817
11
216.064
21
-69.4335
0
LINE
8
BLACK
6
CONTINUOUS
10
216.064
20
-69.4335
11
216.064
21
-69.2228
0
LINE
8
BLACK
6
CONTINUOUS
10
216.064
20
-69.2228
11
215.367
21
-69.2228
0
LINE
8
BLACK
6
CONTINUOUS
10
215.367
20
-69.2228
11
215.43
21
-69.2852
0
LINE
8
BLACK
6
CONTINUOUS
10
215.43
20
-69.2852
11
215.443
21
-69.3036
0
LINE
8
BLACK
6
CONTINUOUS
10
215.443
20
-69.3036
11
215.444
21
-69.3047
0
LINE
8
BLACK
6
CONTINUOUS
10
215.444
20
-69.3047
11
215.492
21
-69.4
0
LINE
8
BLACK
6
CONTINUOUS
10
215.492
20
-69.4
11
215.499
21
-69.4249
0
LINE
8
BLACK
6
CONTINUOUS
10
215.499
20
-69.4249
11
215.487
21
-69.4748
0
LINE
8
BLACK
6
CONTINUOUS
10
215.487
20
-69.4748
11
215.446
21
-69.5054
0
LINE
8
BLACK
6
CONTINUOUS
10
215.446
20
-69.5054
11
215.395
21
-69.5023
0
LINE
8
BLACK
6
CONTINUOUS
10
215.395
20
-69.5023
11
215.357
21
-69.467
0
LINE
8
BLACK
6
CONTINUOUS
10
215.357
20
-69.467
11
215.315
21
-69.3827
0
LINE
8
BLACK
6
CONTINUOUS
10
215.315
20
-69.3827
11
215.234
21
-69.3013
0
LINE
8
BLACK
6
CONTINUOUS
10
215.234
20
-69.3013
11
215.097
21
-69.2102
0
LINE
8
BLACK
6
CONTINUOUS
10
215.097
20
-69.2102
11
215.078
21
-69.1922
0
LINE
8
BLACK
6
CONTINUOUS
10
215.078
20
-69.1922
11
215.077
21
-69.1881
0
LINE
8
BLACK
6
CONTINUOUS
10
215.077
20
-69.1881
11
215.074
21
-69.1853
0
LINE
8
BLACK
6
CONTINUOUS
10
215.074
20
-69.1853
11
215.07
21
-69.1639
0
LINE
8
BLACK
6
CONTINUOUS
10
215.07
20
-69.1639
11
215.064
21
-69.143
0
LINE
8
BLACK
6
CONTINUOUS
10
215.064
20
-69.143
11
215.066
21
-69.139
0
LINE
8
BLACK
6
CONTINUOUS
10
215.066
20
-69.139
11
215.065
21
-69.1348
0
LINE
8
BLACK
6
CONTINUOUS
10
215.065
20
-69.1348
11
215.076
21
-69.1159
0
LINE
8
BLACK
6
CONTINUOUS
10
215.076
20
-69.1159
11
215.084
21
-69.096
0
LINE
8
BLACK
6
CONTINUOUS
10
215.084
20
-69.096
11
215.088
21
-69.0941
0
LINE
8
BLACK
6
CONTINUOUS
10
215.088
20
-69.0941
11
215.091
21
-69.0903
0
LINE
8
BLACK
6
CONTINUOUS
10
215.091
20
-69.0903
11
215.111
21
-69.0829
0
LINE
8
BLACK
6
CONTINUOUS
10
215.111
20
-69.0829
11
215.13
21
-69.0732
0
LINE
8
BLACK
6
CONTINUOUS
10
215.13
20
-69.0732
11
215.135
21
-69.0743
0
LINE
8
BLACK
6
CONTINUOUS
10
215.135
20
-69.0743
11
215.139
21
-69.0728
0
LINE
8
BLACK
6
CONTINUOUS
10
215.139
20
-69.0728
11
216.064
21
-69.0728
0
LINE
8
BLACK
6
CONTINUOUS
10
216.064
20
-69.0728
11
216.064
21
-68.8621
0
LINE
8
BLACK
6
CONTINUOUS
10
216.064
20
-68.8621
11
216.068
21
-68.8364
0
LINE
8
BLACK
6
CONTINUOUS
10
216.068
20
-68.8364
11
216.101
21
-68.7971
0
LINE
8
BLACK
6
CONTINUOUS
10
216.101
20
-68.7971
11
216.152
21
-68.7882
0
LINE
8
BLACK
6
CONTINUOUS
10
216.152
20
-68.7882
11
216.196
21
-68.8139
0
LINE
8
BLACK
6
CONTINUOUS
10
218.566
20
-69.7186
11
218.584
21
-69.7668
0
LINE
8
BLACK
6
CONTINUOUS
10
218.584
20
-69.7668
11
218.584
21
-70.3383
0
LINE
8
BLACK
6
CONTINUOUS
10
218.584
20
-70.3383
11
218.579
21
-70.3639
0
LINE
8
BLACK
6
CONTINUOUS
10
218.579
20
-70.3639
11
218.546
21
-70.4032
0
LINE
8
BLACK
6
CONTINUOUS
10
218.546
20
-70.4032
11
218.496
21
-70.4121
0
LINE
8
BLACK
6
CONTINUOUS
10
218.496
20
-70.4121
11
218.451
21
-70.3865
0
LINE
8
BLACK
6
CONTINUOUS
10
218.451
20
-70.3865
11
218.434
21
-70.3383
0
LINE
8
BLACK
6
CONTINUOUS
10
218.434
20
-70.3383
11
218.434
21
-70.1276
0
LINE
8
BLACK
6
CONTINUOUS
10
218.434
20
-70.1276
11
217.737
21
-70.1276
0
LINE
8
BLACK
6
CONTINUOUS
10
217.737
20
-70.1276
11
217.8
21
-70.19
0
LINE
8
BLACK
6
CONTINUOUS
10
217.8
20
-70.19
11
217.813
21
-70.2084
0
LINE
8
BLACK
6
CONTINUOUS
10
217.813
20
-70.2084
11
217.814
21
-70.2095
0
LINE
8
BLACK
6
CONTINUOUS
10
217.814
20
-70.2095
11
217.862
21
-70.3047
0
LINE
8
BLACK
6
CONTINUOUS
10
217.862
20
-70.3047
11
217.869
21
-70.3297
0
LINE
8
BLACK
6
CONTINUOUS
10
217.869
20
-70.3297
11
217.857
21
-70.3796
0
LINE
8
BLACK
6
CONTINUOUS
10
217.857
20
-70.3796
11
217.816
21
-70.4102
0
LINE
8
BLACK
6
CONTINUOUS
10
217.816
20
-70.4102
11
217.765
21
-70.4071
0
LINE
8
BLACK
6
CONTINUOUS
10
217.765
20
-70.4071
11
217.727
21
-70.3718
0
LINE
8
BLACK
6
CONTINUOUS
10
217.727
20
-70.3718
11
217.685
21
-70.2875
0
LINE
8
BLACK
6
CONTINUOUS
10
217.685
20
-70.2875
11
217.604
21
-70.2061
0
LINE
8
BLACK
6
CONTINUOUS
10
217.604
20
-70.2061
11
217.467
21
-70.115
0
LINE
8
BLACK
6
CONTINUOUS
10
217.467
20
-70.115
11
217.448
21
-70.097
0
LINE
8
BLACK
6
CONTINUOUS
10
217.448
20
-70.097
11
217.447
21
-70.0928
0
LINE
8
BLACK
6
CONTINUOUS
10
217.447
20
-70.0928
11
217.444
21
-70.0901
0
LINE
8
BLACK
6
CONTINUOUS
10
217.444
20
-70.0901
11
217.44
21
-70.0686
0
LINE
8
BLACK
6
CONTINUOUS
10
217.44
20
-70.0686
11
217.434
21
-70.0477
0
LINE
8
BLACK
6
CONTINUOUS
10
217.434
20
-70.0477
11
217.436
21
-70.0438
0
LINE
8
BLACK
6
CONTINUOUS
10
217.436
20
-70.0438
11
217.435
21
-70.0395
0
LINE
8
BLACK
6
CONTINUOUS
10
217.435
20
-70.0395
11
217.446
21
-70.0207
0
LINE
8
BLACK
6
CONTINUOUS
10
217.446
20
-70.0207
11
217.454
21
-70.0007
0
LINE
8
BLACK
6
CONTINUOUS
10
217.454
20
-70.0007
11
217.458
21
-69.9988
0
LINE
8
BLACK
6
CONTINUOUS
10
217.458
20
-69.9988
11
217.461
21
-69.9951
0
LINE
8
BLACK
6
CONTINUOUS
10
217.461
20
-69.9951
11
217.481
21
-69.9877
0
LINE
8
BLACK
6
CONTINUOUS
10
217.481
20
-69.9877
11
217.5
21
-69.978
0
LINE
8
BLACK
6
CONTINUOUS
10
217.5
20
-69.978
11
217.505
21
-69.979
0
LINE
8
BLACK
6
CONTINUOUS
10
217.505
20
-69.979
11
217.509
21
-69.9776
0
LINE
8
BLACK
6
CONTINUOUS
10
217.509
20
-69.9776
11
218.434
21
-69.9776
0
LINE
8
BLACK
6
CONTINUOUS
10
218.434
20
-69.9776
11
218.434
21
-69.7668
0
LINE
8
BLACK
6
CONTINUOUS
10
218.434
20
-69.7668
11
218.438
21
-69.7412
0
LINE
8
BLACK
6
CONTINUOUS
10
218.438
20
-69.7412
11
218.471
21
-69.7019
0
LINE
8
BLACK
6
CONTINUOUS
10
218.471
20
-69.7019
11
218.522
21
-69.693
0
LINE
8
BLACK
6
CONTINUOUS
10
218.522
20
-69.693
11
218.566
21
-69.7186
0
LINE
8
BLACK
6
CONTINUOUS
10
217.895
20
-68.9043
11
218.135
21
-69.144
0
LINE
8
BLACK
6
CONTINUOUS
10
218.135
20
-69.144
11
218.464
21
-68.8973
0
LINE
8
BLACK
6
CONTINUOUS
10
218.464
20
-68.8973
11
218.487
21
-68.8855
0
LINE
8
BLACK
6
CONTINUOUS
10
218.487
20
-68.8855
11
218.538
21
-68.8883
0
LINE
8
BLACK
6
CONTINUOUS
10
218.538
20
-68.8883
11
218.576
21
-68.9234
0
LINE
8
BLACK
6
CONTINUOUS
10
218.576
20
-68.9234
11
218.582
21
-68.9744
0
LINE
8
BLACK
6
CONTINUOUS
10
218.582
20
-68.9744
11
218.554
21
-69.0173
0
LINE
8
BLACK
6
CONTINUOUS
10
218.554
20
-69.0173
11
218.242
21
-69.2511
0
LINE
8
BLACK
6
CONTINUOUS
10
218.242
20
-69.2511
11
218.254
21
-69.2633
0
LINE
8
BLACK
6
CONTINUOUS
10
218.254
20
-69.2633
11
218.509
21
-69.2633
0
LINE
8
BLACK
6
CONTINUOUS
10
218.509
20
-69.2633
11
218.534
21
-69.2678
0
LINE
8
BLACK
6
CONTINUOUS
10
218.534
20
-69.2678
11
218.574
21
-69.3008
0
LINE
8
BLACK
6
CONTINUOUS
10
218.574
20
-69.3008
11
218.583
21
-69.3513
0
LINE
8
BLACK
6
CONTINUOUS
10
218.583
20
-69.3513
11
218.557
21
-69.3957
0
LINE
8
BLACK
6
CONTINUOUS
10
218.557
20
-69.3957
11
218.509
21
-69.4133
0
LINE
8
BLACK
6
CONTINUOUS
10
218.509
20
-69.4133
11
217.509
21
-69.4133
0
LINE
8
BLACK
6
CONTINUOUS
10
217.509
20
-69.4133
11
217.483
21
-69.4087
0
LINE
8
BLACK
6
CONTINUOUS
10
217.483
20
-69.4087
11
217.444
21
-69.3758
0
LINE
8
BLACK
6
CONTINUOUS
10
217.444
20
-69.3758
11
217.435
21
-69.3252
0
LINE
8
BLACK
6
CONTINUOUS
10
217.435
20
-69.3252
11
217.461
21
-69.2808
0
LINE
8
BLACK
6
CONTINUOUS
10
217.461
20
-69.2808
11
217.509
21
-69.2633
0
LINE
8
BLACK
6
CONTINUOUS
10
217.509
20
-69.2633
11
218.042
21
-69.2633
0
LINE
8
BLACK
6
CONTINUOUS
10
218.042
20
-69.2633
11
217.789
21
-69.0103
0
LINE
8
BLACK
6
CONTINUOUS
10
217.789
20
-69.0103
11
217.774
21
-68.989
0
LINE
8
BLACK
6
CONTINUOUS
10
217.774
20
-68.989
11
217.77
21
-68.9379
0
LINE
8
BLACK
6
CONTINUOUS
10
217.77
20
-68.9379
11
217.799
21
-68.8959
0
LINE
8
BLACK
6
CONTINUOUS
10
217.799
20
-68.8959
11
217.849
21
-68.8826
0
LINE
8
BLACK
6
CONTINUOUS
10
217.849
20
-68.8826
11
217.895
21
-68.9043
0
LINE
8
BLACK
6
CONTINUOUS
10
216.501
20
-60.5581
11
216.503
21
-60.558
0
LINE
8
BLACK
6
CONTINUOUS
10
216.503
20
-60.558
11
216.646
21
-60.6056
0
LINE
8
BLACK
6
CONTINUOUS
10
216.646
20
-60.6056
11
216.669
21
-60.6181
0
LINE
8
BLACK
6
CONTINUOUS
10
216.669
20
-60.6181
11
216.671
21
-60.6219
0
LINE
8
BLACK
6
CONTINUOUS
10
216.671
20
-60.6219
11
216.675
21
-60.6238
0
LINE
8
BLACK
6
CONTINUOUS
10
216.675
20
-60.6238
11
216.77
21
-60.719
0
LINE
8
BLACK
6
CONTINUOUS
10
216.77
20
-60.719
11
216.783
21
-60.7374
0
LINE
8
BLACK
6
CONTINUOUS
10
216.783
20
-60.7374
11
216.785
21
-60.7385
0
LINE
8
BLACK
6
CONTINUOUS
10
216.785
20
-60.7385
11
216.832
21
-60.8337
0
LINE
8
BLACK
6
CONTINUOUS
10
216.832
20
-60.8337
11
216.836
21
-60.8461
0
LINE
8
BLACK
6
CONTINUOUS
10
216.836
20
-60.8461
11
216.838
21
-60.8491
0
LINE
8
BLACK
6
CONTINUOUS
10
216.838
20
-60.8491
11
216.885
21
-61.0396
0
LINE
8
BLACK
6
CONTINUOUS
10
216.885
20
-61.0396
11
216.886
21
-61.0545
0
LINE
8
BLACK
6
CONTINUOUS
10
216.886
20
-61.0545
11
216.888
21
-61.0578
0
LINE
8
BLACK
6
CONTINUOUS
10
216.888
20
-61.0578
11
216.888
21
-61.2006
0
LINE
8
BLACK
6
CONTINUOUS
10
216.888
20
-61.2006
11
216.885
21
-61.2154
0
LINE
8
BLACK
6
CONTINUOUS
10
216.885
20
-61.2154
11
216.885
21
-61.2188
0
LINE
8
BLACK
6
CONTINUOUS
10
216.885
20
-61.2188
11
216.838
21
-61.4093
0
LINE
8
BLACK
6
CONTINUOUS
10
216.838
20
-61.4093
11
216.833
21
-61.4211
0
LINE
8
BLACK
6
CONTINUOUS
10
216.833
20
-61.4211
11
216.832
21
-61.4246
0
LINE
8
BLACK
6
CONTINUOUS
10
216.832
20
-61.4246
11
216.785
21
-61.5199
0
LINE
8
BLACK
6
CONTINUOUS
10
216.785
20
-61.5199
11
216.771
21
-61.5379
0
LINE
8
BLACK
6
CONTINUOUS
10
216.771
20
-61.5379
11
216.77
21
-61.5394
0
LINE
8
BLACK
6
CONTINUOUS
10
216.77
20
-61.5394
11
216.675
21
-61.6346
0
LINE
8
BLACK
6
CONTINUOUS
10
216.675
20
-61.6346
11
216.654
21
-61.6495
0
LINE
8
BLACK
6
CONTINUOUS
10
216.654
20
-61.6495
11
216.649
21
-61.6499
0
LINE
8
BLACK
6
CONTINUOUS
10
216.649
20
-61.6499
11
216.646
21
-61.6527
0
LINE
8
BLACK
6
CONTINUOUS
10
216.646
20
-61.6527
11
216.503
21
-61.7003
0
LINE
8
BLACK
6
CONTINUOUS
10
216.503
20
-61.7003
11
216.481
21
-61.7036
0
LINE
8
BLACK
6
CONTINUOUS
10
216.481
20
-61.7036
11
216.479
21
-61.7042
0
LINE
8
BLACK
6
CONTINUOUS
10
216.479
20
-61.7042
11
216.241
21
-61.7042
0
LINE
8
BLACK
6
CONTINUOUS
10
216.241
20
-61.7042
11
216.231
21
-61.7025
0
LINE
8
BLACK
6
CONTINUOUS
10
216.231
20
-61.7025
11
216.228
21
-61.703
0
LINE
8
BLACK
6
CONTINUOUS
10
216.228
20
-61.703
11
216.225
21
-61.7014
0
LINE
8
BLACK
6
CONTINUOUS
10
216.225
20
-61.7014
11
216.216
21
-61.6997
0
LINE
8
BLACK
6
CONTINUOUS
10
216.216
20
-61.6997
11
216.201
21
-61.6871
0
LINE
8
BLACK
6
CONTINUOUS
10
216.201
20
-61.6871
11
216.184
21
-61.6774
0
LINE
8
BLACK
6
CONTINUOUS
10
216.184
20
-61.6774
11
216.181
21
-61.671
0
LINE
8
BLACK
6
CONTINUOUS
10
216.181
20
-61.671
11
216.176
21
-61.6667
0
LINE
8
BLACK
6
CONTINUOUS
10
216.176
20
-61.6667
11
216.173
21
-61.6475
0
LINE
8
BLACK
6
CONTINUOUS
10
216.173
20
-61.6475
11
216.166
21
-61.6292
0
LINE
8
BLACK
6
CONTINUOUS
10
216.166
20
-61.6292
11
216.166
21
-60.6292
0
LINE
8
BLACK
6
CONTINUOUS
10
216.166
20
-60.6292
11
216.168
21
-60.6194
0
LINE
8
BLACK
6
CONTINUOUS
10
216.168
20
-60.6194
11
216.167
21
-60.6162
0
LINE
8
BLACK
6
CONTINUOUS
10
216.167
20
-60.6162
11
216.169
21
-60.6133
0
LINE
8
BLACK
6
CONTINUOUS
10
216.169
20
-60.6133
11
216.171
21
-60.6035
0
LINE
8
BLACK
6
CONTINUOUS
10
216.171
20
-60.6035
11
216.183
21
-60.5886
0
LINE
8
BLACK
6
CONTINUOUS
10
216.183
20
-60.5886
11
216.193
21
-60.5717
0
LINE
8
BLACK
6
CONTINUOUS
10
216.193
20
-60.5717
11
216.199
21
-60.5694
0
LINE
8
BLACK
6
CONTINUOUS
10
216.199
20
-60.5694
11
216.204
21
-60.5642
0
LINE
8
BLACK
6
CONTINUOUS
10
216.204
20
-60.5642
11
216.223
21
-60.5608
0
LINE
8
BLACK
6
CONTINUOUS
10
216.223
20
-60.5608
11
216.241
21
-60.5542
0
LINE
8
BLACK
6
CONTINUOUS
10
216.241
20
-60.5542
11
216.479
21
-60.5542
0
LINE
8
BLACK
6
CONTINUOUS
10
216.479
20
-60.5542
11
216.501
21
-60.5581
0
LINE
8
BLACK
6
CONTINUOUS
10
216.316
20
-60.7042
11
216.316
21
-61.5542
0
LINE
8
BLACK
6
CONTINUOUS
10
216.316
20
-61.5542
11
216.467
21
-61.5542
0
LINE
8
BLACK
6
CONTINUOUS
10
216.467
20
-61.5542
11
216.582
21
-61.516
0
LINE
8
BLACK
6
CONTINUOUS
10
216.582
20
-61.516
11
216.656
21
-61.4419
0
LINE
8
BLACK
6
CONTINUOUS
10
216.656
20
-61.4419
11
216.694
21
-61.3649
0
LINE
8
BLACK
6
CONTINUOUS
10
216.694
20
-61.3649
11
216.738
21
-61.1914
0
LINE
8
BLACK
6
CONTINUOUS
10
216.738
20
-61.1914
11
216.738
21
-61.067
0
LINE
8
BLACK
6
CONTINUOUS
10
216.738
20
-61.067
11
216.694
21
-60.8935
0
LINE
8
BLACK
6
CONTINUOUS
10
216.694
20
-60.8935
11
216.656
21
-60.8165
0
LINE
8
BLACK
6
CONTINUOUS
10
216.656
20
-60.8165
11
216.582
21
-60.7424
0
LINE
8
BLACK
6
CONTINUOUS
10
216.582
20
-60.7424
11
216.467
21
-60.7042
0
LINE
8
BLACK
6
CONTINUOUS
10
216.467
20
-60.7042
11
216.316
21
-60.7042
0
LINE
8
BLACK
6
CONTINUOUS
10
214.584
20
-60.581
11
214.602
21
-60.6292
0
LINE
8
BLACK
6
CONTINUOUS
10
214.602
20
-60.6292
11
214.602
21
-61.5542
0
LINE
8
BLACK
6
CONTINUOUS
10
214.602
20
-61.5542
11
215.003
21
-61.5542
0
LINE
8
BLACK
6
CONTINUOUS
10
215.003
20
-61.5542
11
215.029
21
-61.5587
0
LINE
8
BLACK
6
CONTINUOUS
10
215.029
20
-61.5587
11
215.068
21
-61.5917
0
LINE
8
BLACK
6
CONTINUOUS
10
215.068
20
-61.5917
11
215.077
21
-61.6422
0
LINE
8
BLACK
6
CONTINUOUS
10
215.077
20
-61.6422
11
215.051
21
-61.6866
0
LINE
8
BLACK
6
CONTINUOUS
10
215.051
20
-61.6866
11
215.003
21
-61.7042
0
LINE
8
BLACK
6
CONTINUOUS
10
215.003
20
-61.7042
11
214.527
21
-61.7042
0
LINE
8
BLACK
6
CONTINUOUS
10
214.527
20
-61.7042
11
214.517
21
-61.7025
0
LINE
8
BLACK
6
CONTINUOUS
10
214.517
20
-61.7025
11
214.514
21
-61.703
0
LINE
8
BLACK
6
CONTINUOUS
10
214.514
20
-61.703
11
214.511
21
-61.7014
0
LINE
8
BLACK
6
CONTINUOUS
10
214.511
20
-61.7014
11
214.501
21
-61.6997
0
LINE
8
BLACK
6
CONTINUOUS
10
214.501
20
-61.6997
11
214.486
21
-61.6871
0
LINE
8
BLACK
6
CONTINUOUS
10
214.486
20
-61.6871
11
214.469
21
-61.6774
0
LINE
8
BLACK
6
CONTINUOUS
10
214.469
20
-61.6774
11
214.467
21
-61.671
0
LINE
8
BLACK
6
CONTINUOUS
10
214.467
20
-61.671
11
214.462
21
-61.6667
0
LINE
8
BLACK
6
CONTINUOUS
10
214.462
20
-61.6667
11
214.459
21
-61.6475
0
LINE
8
BLACK
6
CONTINUOUS
10
214.459
20
-61.6475
11
214.452
21
-61.6292
0
LINE
8
BLACK
6
CONTINUOUS
10
214.452
20
-61.6292
11
214.452
21
-60.6292
0
LINE
8
BLACK
6
CONTINUOUS
10
214.452
20
-60.6292
11
214.456
21
-60.6035
0
LINE
8
BLACK
6
CONTINUOUS
10
214.456
20
-60.6035
11
214.489
21
-60.5642
0
LINE
8
BLACK
6
CONTINUOUS
10
214.489
20
-60.5642
11
214.54
21
-60.5553
0
LINE
8
BLACK
6
CONTINUOUS
10
214.54
20
-60.5553
11
214.584
21
-60.581
0
LINE
8
BLACK
6
CONTINUOUS
10
215.838
20
-60.5587
11
215.878
21
-60.5917
0
LINE
8
BLACK
6
CONTINUOUS
10
215.878
20
-60.5917
11
215.887
21
-60.6422
0
LINE
8
BLACK
6
CONTINUOUS
10
215.887
20
-60.6422
11
215.861
21
-60.6866
0
LINE
8
BLACK
6
CONTINUOUS
10
215.861
20
-60.6866
11
215.813
21
-60.7042
0
LINE
8
BLACK
6
CONTINUOUS
10
215.813
20
-60.7042
11
215.411
21
-60.7042
0
LINE
8
BLACK
6
CONTINUOUS
10
215.411
20
-60.7042
11
215.411
21
-61.0304
0
LINE
8
BLACK
6
CONTINUOUS
10
215.411
20
-61.0304
11
215.67
21
-61.0304
0
LINE
8
BLACK
6
CONTINUOUS
10
215.67
20
-61.0304
11
215.695
21
-61.0349
0
LINE
8
BLACK
6
CONTINUOUS
10
215.695
20
-61.0349
11
215.735
21
-61.0679
0
LINE
8
BLACK
6
CONTINUOUS
10
215.735
20
-61.0679
11
215.744
21
-61.1184
0
LINE
8
BLACK
6
CONTINUOUS
10
215.744
20
-61.1184
11
215.718
21
-61.1628
0
LINE
8
BLACK
6
CONTINUOUS
10
215.718
20
-61.1628
11
215.67
21
-61.1804
0
LINE
8
BLACK
6
CONTINUOUS
10
215.67
20
-61.1804
11
215.411
21
-61.1804
0
LINE
8
BLACK
6
CONTINUOUS
10
215.411
20
-61.1804
11
215.411
21
-61.5542
0
LINE
8
BLACK
6
CONTINUOUS
10
215.411
20
-61.5542
11
215.813
21
-61.5542
0
LINE
8
BLACK
6
CONTINUOUS
10
215.813
20
-61.5542
11
215.838
21
-61.5587
0
LINE
8
BLACK
6
CONTINUOUS
10
215.838
20
-61.5587
11
215.878
21
-61.5917
0
LINE
8
BLACK
6
CONTINUOUS
10
215.878
20
-61.5917
11
215.887
21
-61.6422
0
LINE
8
BLACK
6
CONTINUOUS
10
215.887
20
-61.6422
11
215.861
21
-61.6866
0
LINE
8
BLACK
6
CONTINUOUS
10
215.861
20
-61.6866
11
215.813
21
-61.7042
0
LINE
8
BLACK
6
CONTINUOUS
10
215.813
20
-61.7042
11
215.336
21
-61.7042
0
LINE
8
BLACK
6
CONTINUOUS
10
215.336
20
-61.7042
11
215.327
21
-61.7025
0
LINE
8
BLACK
6
CONTINUOUS
10
215.327
20
-61.7025
11
215.323
21
-61.703
0
LINE
8
BLACK
6
CONTINUOUS
10
215.323
20
-61.703
11
215.321
21
-61.7014
0
LINE
8
BLACK
6
CONTINUOUS
10
215.321
20
-61.7014
11
215.311
21
-61.6997
0
LINE
8
BLACK
6
CONTINUOUS
10
215.311
20
-61.6997
11
215.296
21
-61.6871
0
LINE
8
BLACK
6
CONTINUOUS
10
215.296
20
-61.6871
11
215.279
21
-61.6774
0
LINE
8
BLACK
6
CONTINUOUS
10
215.279
20
-61.6774
11
215.277
21
-61.671
0
LINE
8
BLACK
6
CONTINUOUS
10
215.277
20
-61.671
11
215.272
21
-61.6667
0
LINE
8
BLACK
6
CONTINUOUS
10
215.272
20
-61.6667
11
215.268
21
-61.6475
0
LINE
8
BLACK
6
CONTINUOUS
10
215.268
20
-61.6475
11
215.261
21
-61.6292
0
LINE
8
BLACK
6
CONTINUOUS
10
215.261
20
-61.6292
11
215.261
21
-60.6292
0
LINE
8
BLACK
6
CONTINUOUS
10
215.261
20
-60.6292
11
215.263
21
-60.6194
0
LINE
8
BLACK
6
CONTINUOUS
10
215.263
20
-60.6194
11
215.263
21
-60.6162
0
LINE
8
BLACK
6
CONTINUOUS
10
215.263
20
-60.6162
11
215.264
21
-60.6133
0
LINE
8
BLACK
6
CONTINUOUS
10
215.264
20
-60.6133
11
215.266
21
-60.6035
0
LINE
8
BLACK
6
CONTINUOUS
10
215.266
20
-60.6035
11
215.279
21
-60.5886
0
LINE
8
BLACK
6
CONTINUOUS
10
215.279
20
-60.5886
11
215.288
21
-60.5717
0
LINE
8
BLACK
6
CONTINUOUS
10
215.288
20
-60.5717
11
215.295
21
-60.5694
0
LINE
8
BLACK
6
CONTINUOUS
10
215.295
20
-60.5694
11
215.299
21
-60.5642
0
LINE
8
BLACK
6
CONTINUOUS
10
215.299
20
-60.5642
11
215.318
21
-60.5608
0
LINE
8
BLACK
6
CONTINUOUS
10
215.318
20
-60.5608
11
215.336
21
-60.5542
0
LINE
8
BLACK
6
CONTINUOUS
10
215.336
20
-60.5542
11
215.813
21
-60.5542
0
LINE
8
BLACK
6
CONTINUOUS
10
215.813
20
-60.5542
11
215.838
21
-60.5587
0
LINE
8
BLACK
6
CONTINUOUS
10
216.019
20
-56.3029
11
216.279
21
-56.3724
0
LINE
8
BLACK
6
CONTINUOUS
10
216.279
20
-56.3724
11
216.526
21
-56.4768
0
LINE
8
BLACK
6
CONTINUOUS
10
216.526
20
-56.4768
11
216.757
21
-56.6143
0
LINE
8
BLACK
6
CONTINUOUS
10
216.757
20
-56.6143
11
216.967
21
-56.7821
0
LINE
8
BLACK
6
CONTINUOUS
10
216.967
20
-56.7821
11
217.151
21
-56.9772
0
LINE
8
BLACK
6
CONTINUOUS
10
217.151
20
-56.9772
11
217.307
21
-57.1957
0
LINE
8
BLACK
6
CONTINUOUS
10
217.307
20
-57.1957
11
217.432
21
-57.4337
0
LINE
8
BLACK
6
CONTINUOUS
10
217.432
20
-57.4337
11
217.523
21
-57.6865
0
LINE
8
BLACK
6
CONTINUOUS
10
217.523
20
-57.6865
11
217.578
21
-57.9493
0
LINE
8
BLACK
6
CONTINUOUS
10
217.578
20
-57.9493
11
217.596
21
-58.2173
0
LINE
8
BLACK
6
CONTINUOUS
10
217.596
20
-58.2173
11
217.577
21
-58.4852
0
LINE
8
BLACK
6
CONTINUOUS
10
217.577
20
-58.4852
11
217.522
21
-58.748
0
LINE
8
BLACK
6
CONTINUOUS
10
217.522
20
-58.748
11
217.431
21
-59.0008
0
LINE
8
BLACK
6
CONTINUOUS
10
217.431
20
-59.0008
11
217.307
21
-59.2386
0
LINE
8
BLACK
6
CONTINUOUS
10
217.307
20
-59.2386
11
217.151
21
-59.4571
0
LINE
8
BLACK
6
CONTINUOUS
10
217.151
20
-59.4571
11
216.966
21
-59.6521
0
LINE
8
BLACK
6
CONTINUOUS
10
216.966
20
-59.6521
11
216.756
21
-59.8199
0
LINE
8
BLACK
6
CONTINUOUS
10
216.756
20
-59.8199
11
216.525
21
-59.9572
0
LINE
8
BLACK
6
CONTINUOUS
10
216.525
20
-59.9572
11
216.278
21
-60.0615
0
LINE
8
BLACK
6
CONTINUOUS
10
216.278
20
-60.0615
11
216.019
21
-60.1309
0
LINE
8
BLACK
6
CONTINUOUS
10
216.019
20
-60.1309
11
215.752
21
-60.1639
0
LINE
8
BLACK
6
CONTINUOUS
10
215.752
20
-60.1639
11
215.483
21
-60.16
0
LINE
8
BLACK
6
CONTINUOUS
10
215.483
20
-60.16
11
215.218
21
-60.1193
0
LINE
8
BLACK
6
CONTINUOUS
10
215.218
20
-60.1193
11
214.961
21
-60.0424
0
LINE
8
BLACK
6
CONTINUOUS
10
214.961
20
-60.0424
11
214.716
21
-59.9309
0
LINE
8
BLACK
6
CONTINUOUS
10
214.716
20
-59.9309
11
214.49
21
-59.787
0
LINE
8
BLACK
6
CONTINUOUS
10
214.49
20
-59.787
11
214.285
21
-59.6132
0
LINE
8
BLACK
6
CONTINUOUS
10
214.285
20
-59.6132
11
214.111
21
-59.4184
0
LINE
8
BLACK
6
CONTINUOUS
10
214.111
20
-59.4184
11
214.111
21
-59.4183
0
LINE
8
BLACK
6
CONTINUOUS
10
214.111
20
-59.4183
11
214.111
21
-59.4181
0
LINE
8
BLACK
6
CONTINUOUS
10
214.111
20
-59.4181
11
214.106
21
-59.4129
0
LINE
8
BLACK
6
CONTINUOUS
10
214.106
20
-59.4129
11
214.101
21
-59.3954
0
LINE
8
BLACK
6
CONTINUOUS
10
214.101
20
-59.3954
11
214.096
21
-59.383
0
LINE
8
BLACK
6
CONTINUOUS
10
214.096
20
-59.383
11
214.096
21
-59.3766
0
LINE
8
BLACK
6
CONTINUOUS
10
214.096
20
-59.3766
11
214.096
21
-59.376
0
LINE
8
BLACK
6
CONTINUOUS
10
214.096
20
-59.376
11
214.096
21
-59.3758
0
LINE
8
BLACK
6
CONTINUOUS
10
214.096
20
-59.3758
11
214.096
21
-57.0506
0
LINE
8
BLACK
6
CONTINUOUS
10
214.096
20
-57.0506
11
214.102
21
-57.0356
0
LINE
8
BLACK
6
CONTINUOUS
10
214.102
20
-57.0356
11
214.107
21
-57.0199
0
LINE
8
BLACK
6
CONTINUOUS
10
214.107
20
-57.0199
11
214.107
21
-57.0199
0
LINE
8
BLACK
6
CONTINUOUS
10
214.107
20
-57.0199
11
214.111
21
-57.0154
0
LINE
8
BLACK
6
CONTINUOUS
10
214.111
20
-57.0154
11
214.111
21
-57.0153
0
LINE
8
BLACK
6
CONTINUOUS
10
214.111
20
-57.0153
11
214.111
21
-57.0152
0
LINE
8
BLACK
6
CONTINUOUS
10
214.111
20
-57.0152
11
214.286
21
-56.8198
0
LINE
8
BLACK
6
CONTINUOUS
10
214.286
20
-56.8198
11
214.49
21
-56.6461
0
LINE
8
BLACK
6
CONTINUOUS
10
214.49
20
-56.6461
11
214.717
21
-56.5022
0
LINE
8
BLACK
6
CONTINUOUS
10
214.717
20
-56.5022
11
214.962
21
-56.3909
0
LINE
8
BLACK
6
CONTINUOUS
10
214.962
20
-56.3909
11
215.219
21
-56.3141
0
LINE
8
BLACK
6
CONTINUOUS
10
215.219
20
-56.3141
11
215.484
21
-56.2735
0
LINE
8
BLACK
6
CONTINUOUS
10
215.484
20
-56.2735
11
215.753
21
-56.2697
0
LINE
8
BLACK
6
CONTINUOUS
10
215.753
20
-56.2697
11
216.019
21
-56.3029
0
LINE
8
BLACK
6
CONTINUOUS
10
215.276
20
-56.3995
11
215.022
21
-56.47
0
LINE
8
BLACK
6
CONTINUOUS
10
215.022
20
-56.47
11
214.782
21
-56.5757
0
LINE
8
BLACK
6
CONTINUOUS
10
214.782
20
-56.5757
11
214.559
21
-56.7142
0
LINE
8
BLACK
6
CONTINUOUS
10
214.559
20
-56.7142
11
214.357
21
-56.8829
0
LINE
8
BLACK
6
CONTINUOUS
10
214.357
20
-56.8829
11
214.196
21
-57.0625
0
LINE
8
BLACK
6
CONTINUOUS
10
214.196
20
-57.0625
11
214.196
21
-57.6795
0
LINE
8
BLACK
6
CONTINUOUS
10
214.196
20
-57.6795
11
214.265
21
-57.5131
0
LINE
8
BLACK
6
CONTINUOUS
10
214.265
20
-57.5131
11
214.392
21
-57.3057
0
LINE
8
BLACK
6
CONTINUOUS
10
214.392
20
-57.3057
11
214.55
21
-57.1208
0
LINE
8
BLACK
6
CONTINUOUS
10
214.55
20
-57.1208
11
214.735
21
-56.9628
0
LINE
8
BLACK
6
CONTINUOUS
10
214.735
20
-56.9628
11
214.942
21
-56.8357
0
LINE
8
BLACK
6
CONTINUOUS
10
214.942
20
-56.8357
11
215.167
21
-56.7427
0
LINE
8
BLACK
6
CONTINUOUS
10
215.167
20
-56.7427
11
215.404
21
-56.6859
0
LINE
8
BLACK
6
CONTINUOUS
10
215.404
20
-56.6859
11
215.646
21
-56.6668
0
LINE
8
BLACK
6
CONTINUOUS
10
215.646
20
-56.6668
11
215.888
21
-56.6859
0
LINE
8
BLACK
6
CONTINUOUS
10
215.888
20
-56.6859
11
216.125
21
-56.7427
0
LINE
8
BLACK
6
CONTINUOUS
10
216.125
20
-56.7427
11
216.35
21
-56.8357
0
LINE
8
BLACK
6
CONTINUOUS
10
216.35
20
-56.8357
11
216.557
21
-56.9628
0
LINE
8
BLACK
6
CONTINUOUS
10
216.557
20
-56.9628
11
216.742
21
-57.1208
0
LINE
8
BLACK
6
CONTINUOUS
10
216.742
20
-57.1208
11
216.9
21
-57.3057
0
LINE
8
BLACK
6
CONTINUOUS
10
216.9
20
-57.3057
11
217.027
21
-57.5131
0
LINE
8
BLACK
6
CONTINUOUS
10
217.027
20
-57.5131
11
217.12
21
-57.7378
0
LINE
8
BLACK
6
CONTINUOUS
10
217.12
20
-57.7378
11
217.177
21
-57.9743
0
LINE
8
BLACK
6
CONTINUOUS
10
217.177
20
-57.9743
11
217.196
21
-58.2168
0
LINE
8
BLACK
6
CONTINUOUS
10
217.196
20
-58.2168
11
217.177
21
-58.4593
0
LINE
8
BLACK
6
CONTINUOUS
10
217.177
20
-58.4593
11
217.12
21
-58.6958
0
LINE
8
BLACK
6
CONTINUOUS
10
217.12
20
-58.6958
11
217.027
21
-58.9205
0
LINE
8
BLACK
6
CONTINUOUS
10
217.027
20
-58.9205
11
216.9
21
-59.1279
0
LINE
8
BLACK
6
CONTINUOUS
10
216.9
20
-59.1279
11
216.742
21
-59.3128
0
LINE
8
BLACK
6
CONTINUOUS
10
216.742
20
-59.3128
11
216.557
21
-59.4708
0
LINE
8
BLACK
6
CONTINUOUS
10
216.557
20
-59.4708
11
216.35
21
-59.5979
0
LINE
8
BLACK
6
CONTINUOUS
10
216.35
20
-59.5979
11
216.125
21
-59.6909
0
LINE
8
BLACK
6
CONTINUOUS
10
216.125
20
-59.6909
11
215.888
21
-59.7477
0
LINE
8
BLACK
6
CONTINUOUS
10
215.888
20
-59.7477
11
215.646
21
-59.7668
0
LINE
8
BLACK
6
CONTINUOUS
10
215.646
20
-59.7668
11
215.404
21
-59.7477
0
LINE
8
BLACK
6
CONTINUOUS
10
215.404
20
-59.7477
11
215.167
21
-59.6909
0
LINE
8
BLACK
6
CONTINUOUS
10
215.167
20
-59.6909
11
214.942
21
-59.5979
0
LINE
8
BLACK
6
CONTINUOUS
10
214.942
20
-59.5979
11
214.735
21
-59.4708
0
LINE
8
BLACK
6
CONTINUOUS
10
214.735
20
-59.4708
11
214.55
21
-59.3128
0
LINE
8
BLACK
6
CONTINUOUS
10
214.55
20
-59.3128
11
214.392
21
-59.1279
0
LINE
8
BLACK
6
CONTINUOUS
10
214.392
20
-59.1279
11
214.265
21
-58.9205
0
LINE
8
BLACK
6
CONTINUOUS
10
214.265
20
-58.9205
11
214.196
21
-58.754
0
LINE
8
BLACK
6
CONTINUOUS
10
214.196
20
-58.754
11
214.196
21
-59.371
0
LINE
8
BLACK
6
CONTINUOUS
10
214.196
20
-59.371
11
214.357
21
-59.5501
0
LINE
8
BLACK
6
CONTINUOUS
10
214.357
20
-59.5501
11
214.558
21
-59.7189
0
LINE
8
BLACK
6
CONTINUOUS
10
214.558
20
-59.7189
11
214.781
21
-59.8575
0
LINE
8
BLACK
6
CONTINUOUS
10
214.781
20
-59.8575
11
215.022
21
-59.9633
0
LINE
8
BLACK
6
CONTINUOUS
10
215.022
20
-59.9633
11
215.275
21
-60.034
0
LINE
8
BLACK
6
CONTINUOUS
10
215.275
20
-60.034
11
215.535
21
-60.0682
0
LINE
8
BLACK
6
CONTINUOUS
10
215.535
20
-60.0682
11
215.798
21
-60.0653
0
LINE
8
BLACK
6
CONTINUOUS
10
215.798
20
-60.0653
11
216.058
21
-60.0253
0
LINE
8
BLACK
6
CONTINUOUS
10
216.058
20
-60.0253
11
216.309
21
-59.949
0
LINE
8
BLACK
6
CONTINUOUS
10
216.309
20
-59.949
11
216.547
21
-59.838
0
LINE
8
BLACK
6
CONTINUOUS
10
216.547
20
-59.838
11
216.767
21
-59.6944
0
LINE
8
BLACK
6
CONTINUOUS
10
216.767
20
-59.6944
11
216.965
21
-59.5212
0
LINE
8
BLACK
6
CONTINUOUS
10
216.965
20
-59.5212
11
217.136
21
-59.3218
0
LINE
8
BLACK
6
CONTINUOUS
10
217.136
20
-59.3218
11
217.277
21
-59.1002
0
LINE
8
BLACK
6
CONTINUOUS
10
217.277
20
-59.1002
11
217.385
21
-58.8609
0
LINE
8
BLACK
6
CONTINUOUS
10
217.385
20
-58.8609
11
217.459
21
-58.6087
0
LINE
8
BLACK
6
CONTINUOUS
10
217.459
20
-58.6087
11
217.496
21
-58.3486
0
LINE
8
BLACK
6
CONTINUOUS
10
217.496
20
-58.3486
11
217.496
21
-58.0859
0
LINE
8
BLACK
6
CONTINUOUS
10
217.496
20
-58.0859
11
217.459
21
-57.8258
0
LINE
8
BLACK
6
CONTINUOUS
10
217.459
20
-57.8258
11
217.386
21
-57.5735
0
LINE
8
BLACK
6
CONTINUOUS
10
217.386
20
-57.5735
11
217.277
21
-57.3342
0
LINE
8
BLACK
6
CONTINUOUS
10
217.277
20
-57.3342
11
217.136
21
-57.1125
0
LINE
8
BLACK
6
CONTINUOUS
10
217.136
20
-57.1125
11
216.965
21
-56.9131
0
LINE
8
BLACK
6
CONTINUOUS
10
216.965
20
-56.9131
11
216.768
21
-56.7398
0
LINE
8
BLACK
6
CONTINUOUS
10
216.768
20
-56.7398
11
216.548
21
-56.5961
0
LINE
8
BLACK
6
CONTINUOUS
10
216.548
20
-56.5961
11
216.31
21
-56.4849
0
LINE
8
BLACK
6
CONTINUOUS
10
216.31
20
-56.4849
11
216.058
21
-56.4085
0
LINE
8
BLACK
6
CONTINUOUS
10
216.058
20
-56.4085
11
215.799
21
-56.3684
0
LINE
8
BLACK
6
CONTINUOUS
10
215.799
20
-56.3684
11
215.536
21
-56.3653
0
LINE
8
BLACK
6
CONTINUOUS
10
215.536
20
-56.3653
11
215.276
21
-56.3995
0
LINE
8
BLACK
6
CONTINUOUS
10
215.309
20
-56.8014
11
215.082
21
-56.8755
0
LINE
8
BLACK
6
CONTINUOUS
10
215.082
20
-56.8755
11
214.871
21
-56.9856
0
LINE
8
BLACK
6
CONTINUOUS
10
214.871
20
-56.9856
11
214.68
21
-57.1288
0
LINE
8
BLACK
6
CONTINUOUS
10
214.68
20
-57.1288
11
214.515
21
-57.3012
0
LINE
8
BLACK
6
CONTINUOUS
10
214.515
20
-57.3012
11
214.381
21
-57.4981
0
LINE
8
BLACK
6
CONTINUOUS
10
214.381
20
-57.4981
11
214.281
21
-57.7144
0
LINE
8
BLACK
6
CONTINUOUS
10
214.281
20
-57.7144
11
214.217
21
-57.9442
0
LINE
8
BLACK
6
CONTINUOUS
10
214.217
20
-57.9442
11
214.196
21
-58.1388
0
LINE
8
BLACK
6
CONTINUOUS
10
214.196
20
-58.1388
11
214.196
21
-58.2599
0
LINE
8
BLACK
6
CONTINUOUS
10
214.196
20
-58.2599
11
214.205
21
-58.4193
0
LINE
8
BLACK
6
CONTINUOUS
10
214.205
20
-58.4193
11
214.258
21
-58.6519
0
LINE
8
BLACK
6
CONTINUOUS
10
214.258
20
-58.6519
11
214.347
21
-58.8728
0
LINE
8
BLACK
6
CONTINUOUS
10
214.347
20
-58.8728
11
214.472
21
-59.0761
0
LINE
8
BLACK
6
CONTINUOUS
10
214.472
20
-59.0761
11
214.628
21
-59.2563
0
LINE
8
BLACK
6
CONTINUOUS
10
214.628
20
-59.2563
11
214.811
21
-59.4086
0
LINE
8
BLACK
6
CONTINUOUS
10
214.811
20
-59.4086
11
215.017
21
-59.5289
0
LINE
8
BLACK
6
CONTINUOUS
10
215.017
20
-59.5289
11
215.24
21
-59.614
0
LINE
8
BLACK
6
CONTINUOUS
10
215.24
20
-59.614
11
215.474
21
-59.6615
0
LINE
8
BLACK
6
CONTINUOUS
10
215.474
20
-59.6615
11
215.712
21
-59.6703
0
LINE
8
BLACK
6
CONTINUOUS
10
215.712
20
-59.6703
11
215.949
21
-59.64
0
LINE
8
BLACK
6
CONTINUOUS
10
215.949
20
-59.64
11
216.177
21
-59.5715
0
LINE
8
BLACK
6
CONTINUOUS
10
216.177
20
-59.5715
11
216.391
21
-59.4666
0
LINE
8
BLACK
6
CONTINUOUS
10
216.391
20
-59.4666
11
216.585
21
-59.3281
0
LINE
8
BLACK
6
CONTINUOUS
10
216.585
20
-59.3281
11
216.754
21
-59.1598
0
LINE
8
BLACK
6
CONTINUOUS
10
216.754
20
-59.1598
11
216.893
21
-58.9662
0
LINE
8
BLACK
6
CONTINUOUS
10
216.893
20
-58.9662
11
216.999
21
-58.7524
0
LINE
8
BLACK
6
CONTINUOUS
10
216.999
20
-58.7524
11
217.068
21
-58.5243
0
LINE
8
BLACK
6
CONTINUOUS
10
217.068
20
-58.5243
11
217.099
21
-58.2879
0
LINE
8
BLACK
6
CONTINUOUS
10
217.099
20
-58.2879
11
217.101
21
-58.2168
0
LINE
8
BLACK
6
CONTINUOUS
10
217.101
20
-58.2168
11
217.081
21
-57.9792
0
LINE
8
BLACK
6
CONTINUOUS
10
217.081
20
-57.9792
11
217.023
21
-57.7479
0
LINE
8
BLACK
6
CONTINUOUS
10
217.023
20
-57.7479
11
216.928
21
-57.5293
0
LINE
8
BLACK
6
CONTINUOUS
10
216.928
20
-57.5293
11
216.799
21
-57.3291
0
LINE
8
BLACK
6
CONTINUOUS
10
216.799
20
-57.3291
11
216.638
21
-57.1527
0
LINE
8
BLACK
6
CONTINUOUS
10
216.638
20
-57.1527
11
216.451
21
-57.0049
0
LINE
8
BLACK
6
CONTINUOUS
10
216.451
20
-57.0049
11
216.242
21
-56.8897
0
LINE
8
BLACK
6
CONTINUOUS
10
216.242
20
-56.8897
11
216.018
21
-56.8101
0
LINE
8
BLACK
6
CONTINUOUS
10
216.018
20
-56.8101
11
215.783
21
-56.7683
0
LINE
8
BLACK
6
CONTINUOUS
10
215.783
20
-56.7683
11
215.545
21
-56.7654
0
LINE
8
BLACK
6
CONTINUOUS
10
215.545
20
-56.7654
11
215.309
21
-56.8014
  0
ENDSEC
  0
EOF
