%TF.GenerationSoftware,KiCad,Pcbnew,(6.0.11)*%
%TF.CreationDate,2023-07-08T12:32:08+02:00*%
%TF.ProjectId,IO Board,494f2042-6f61-4726-942e-6b696361645f,rev?*%
%TF.SameCoordinates,Original*%
%TF.FileFunction,Drillmap*%
%TF.FilePolarity,Positive*%
%FSLAX45Y45*%
G04 Gerber Fmt 4.5, Leading zero omitted, Abs format (unit mm)*
G04 Created by KiCad (PCBNEW (6.0.11)) date 2023-07-08 12:32:08*
%MOMM*%
%LPD*%
G01*
G04 APERTURE LIST*
%ADD10C,0.200000*%
%ADD11C,0.220000*%
G04 APERTURE END LIST*
D10*
X24040110Y-7011620D02*
G75*
G03*
X23840112Y-6811620I-200000J0D01*
G01*
X19287787Y-6811617D02*
G75*
G03*
X19087787Y-7011620I3J-200003D01*
G01*
X21882760Y-6611620D02*
X21882760Y-5821620D01*
X21882760Y-6611620D02*
G75*
G03*
X22082760Y-6811620I200000J0D01*
G01*
X19287787Y-11148042D02*
X23840112Y-11148042D01*
X21045139Y-6811619D02*
G75*
G03*
X21245139Y-6611620I1J199999D01*
G01*
X24040112Y-10948042D02*
X24040112Y-7011620D01*
X21045139Y-6811620D02*
X19287787Y-6811620D01*
X19087788Y-10948042D02*
G75*
G03*
X19287787Y-11148042I200002J2D01*
G01*
X19087787Y-7011620D02*
X19087787Y-10948042D01*
X23840112Y-6811620D02*
X22082760Y-6811620D01*
X21882760Y-5821620D02*
G75*
G03*
X21682760Y-5621620I-200000J0D01*
G01*
X21682760Y-5621620D02*
X21445139Y-5621620D01*
X21445139Y-5621619D02*
G75*
G03*
X21245139Y-5821620I1J-200001D01*
G01*
X21245139Y-5821620D02*
X21245139Y-6611620D01*
X23840112Y-11148042D02*
G75*
G03*
X24040112Y-10948042I-2J200002D01*
G01*
D11*
X19301138Y-7116993D02*
X19521138Y-7336993D01*
X19521138Y-7116993D02*
X19301138Y-7336993D01*
D10*
X19335406Y-11468518D02*
X19335406Y-11268518D01*
X19383025Y-11268518D01*
X19411597Y-11278042D01*
X19430644Y-11297089D01*
X19440168Y-11316137D01*
X19449692Y-11354232D01*
X19449692Y-11382804D01*
X19440168Y-11420899D01*
X19430644Y-11439946D01*
X19411597Y-11458994D01*
X19383025Y-11468518D01*
X19335406Y-11468518D01*
X19535406Y-11468518D02*
X19535406Y-11335184D01*
X19535406Y-11373280D02*
X19544930Y-11354232D01*
X19554454Y-11344708D01*
X19573501Y-11335184D01*
X19592549Y-11335184D01*
X19659216Y-11468518D02*
X19659216Y-11335184D01*
X19659216Y-11268518D02*
X19649692Y-11278042D01*
X19659216Y-11287565D01*
X19668739Y-11278042D01*
X19659216Y-11268518D01*
X19659216Y-11287565D01*
X19783025Y-11468518D02*
X19763977Y-11458994D01*
X19754454Y-11439946D01*
X19754454Y-11268518D01*
X19887787Y-11468518D02*
X19868739Y-11458994D01*
X19859216Y-11439946D01*
X19859216Y-11268518D01*
X20116358Y-11468518D02*
X20116358Y-11268518D01*
X20183025Y-11411375D01*
X20249692Y-11268518D01*
X20249692Y-11468518D01*
X20430644Y-11468518D02*
X20430644Y-11363756D01*
X20421120Y-11344708D01*
X20402073Y-11335184D01*
X20363977Y-11335184D01*
X20344930Y-11344708D01*
X20430644Y-11458994D02*
X20411597Y-11468518D01*
X20363977Y-11468518D01*
X20344930Y-11458994D01*
X20335406Y-11439946D01*
X20335406Y-11420899D01*
X20344930Y-11401851D01*
X20363977Y-11392327D01*
X20411597Y-11392327D01*
X20430644Y-11382804D01*
X20525882Y-11335184D02*
X20525882Y-11535184D01*
X20525882Y-11344708D02*
X20544930Y-11335184D01*
X20583025Y-11335184D01*
X20602073Y-11344708D01*
X20611597Y-11354232D01*
X20621120Y-11373280D01*
X20621120Y-11430423D01*
X20611597Y-11449470D01*
X20602073Y-11458994D01*
X20583025Y-11468518D01*
X20544930Y-11468518D01*
X20525882Y-11458994D01*
X20706835Y-11449470D02*
X20716358Y-11458994D01*
X20706835Y-11468518D01*
X20697311Y-11458994D01*
X20706835Y-11449470D01*
X20706835Y-11468518D01*
X20706835Y-11344708D02*
X20716358Y-11354232D01*
X20706835Y-11363756D01*
X20697311Y-11354232D01*
X20706835Y-11344708D01*
X20706835Y-11363756D01*
X18877787Y-11698042D02*
X19077787Y-11898042D01*
X19077787Y-11698042D02*
X18877787Y-11898042D01*
X19325882Y-11707565D02*
X19335406Y-11698042D01*
X19354454Y-11688518D01*
X19402073Y-11688518D01*
X19421120Y-11698042D01*
X19430644Y-11707565D01*
X19440168Y-11726613D01*
X19440168Y-11745661D01*
X19430644Y-11774232D01*
X19316358Y-11888518D01*
X19440168Y-11888518D01*
X19525882Y-11869470D02*
X19535406Y-11878994D01*
X19525882Y-11888518D01*
X19516358Y-11878994D01*
X19525882Y-11869470D01*
X19525882Y-11888518D01*
X19611597Y-11707565D02*
X19621120Y-11698042D01*
X19640168Y-11688518D01*
X19687787Y-11688518D01*
X19706835Y-11698042D01*
X19716358Y-11707565D01*
X19725882Y-11726613D01*
X19725882Y-11745661D01*
X19716358Y-11774232D01*
X19602073Y-11888518D01*
X19725882Y-11888518D01*
X19849692Y-11688518D02*
X19868739Y-11688518D01*
X19887787Y-11698042D01*
X19897311Y-11707565D01*
X19906835Y-11726613D01*
X19916358Y-11764708D01*
X19916358Y-11812327D01*
X19906835Y-11850423D01*
X19897311Y-11869470D01*
X19887787Y-11878994D01*
X19868739Y-11888518D01*
X19849692Y-11888518D01*
X19830644Y-11878994D01*
X19821120Y-11869470D01*
X19811597Y-11850423D01*
X19802073Y-11812327D01*
X19802073Y-11764708D01*
X19811597Y-11726613D01*
X19821120Y-11707565D01*
X19830644Y-11698042D01*
X19849692Y-11688518D01*
X20040168Y-11688518D02*
X20059216Y-11688518D01*
X20078263Y-11698042D01*
X20087787Y-11707565D01*
X20097311Y-11726613D01*
X20106835Y-11764708D01*
X20106835Y-11812327D01*
X20097311Y-11850423D01*
X20087787Y-11869470D01*
X20078263Y-11878994D01*
X20059216Y-11888518D01*
X20040168Y-11888518D01*
X20021120Y-11878994D01*
X20011597Y-11869470D01*
X20002073Y-11850423D01*
X19992549Y-11812327D01*
X19992549Y-11764708D01*
X20002073Y-11726613D01*
X20011597Y-11707565D01*
X20021120Y-11698042D01*
X20040168Y-11688518D01*
X20192549Y-11888518D02*
X20192549Y-11755184D01*
X20192549Y-11774232D02*
X20202073Y-11764708D01*
X20221120Y-11755184D01*
X20249692Y-11755184D01*
X20268739Y-11764708D01*
X20278263Y-11783756D01*
X20278263Y-11888518D01*
X20278263Y-11783756D02*
X20287787Y-11764708D01*
X20306835Y-11755184D01*
X20335406Y-11755184D01*
X20354454Y-11764708D01*
X20363977Y-11783756D01*
X20363977Y-11888518D01*
X20459216Y-11888518D02*
X20459216Y-11755184D01*
X20459216Y-11774232D02*
X20468739Y-11764708D01*
X20487787Y-11755184D01*
X20516358Y-11755184D01*
X20535406Y-11764708D01*
X20544930Y-11783756D01*
X20544930Y-11888518D01*
X20544930Y-11783756D02*
X20554454Y-11764708D01*
X20573501Y-11755184D01*
X20602073Y-11755184D01*
X20621120Y-11764708D01*
X20630644Y-11783756D01*
X20630644Y-11888518D01*
X21021120Y-11678994D02*
X20849692Y-11936137D01*
X21278263Y-11688518D02*
X21297311Y-11688518D01*
X21316358Y-11698042D01*
X21325882Y-11707565D01*
X21335406Y-11726613D01*
X21344930Y-11764708D01*
X21344930Y-11812327D01*
X21335406Y-11850423D01*
X21325882Y-11869470D01*
X21316358Y-11878994D01*
X21297311Y-11888518D01*
X21278263Y-11888518D01*
X21259216Y-11878994D01*
X21249692Y-11869470D01*
X21240168Y-11850423D01*
X21230644Y-11812327D01*
X21230644Y-11764708D01*
X21240168Y-11726613D01*
X21249692Y-11707565D01*
X21259216Y-11698042D01*
X21278263Y-11688518D01*
X21430644Y-11869470D02*
X21440168Y-11878994D01*
X21430644Y-11888518D01*
X21421120Y-11878994D01*
X21430644Y-11869470D01*
X21430644Y-11888518D01*
X21563977Y-11688518D02*
X21583025Y-11688518D01*
X21602073Y-11698042D01*
X21611597Y-11707565D01*
X21621120Y-11726613D01*
X21630644Y-11764708D01*
X21630644Y-11812327D01*
X21621120Y-11850423D01*
X21611597Y-11869470D01*
X21602073Y-11878994D01*
X21583025Y-11888518D01*
X21563977Y-11888518D01*
X21544930Y-11878994D01*
X21535406Y-11869470D01*
X21525882Y-11850423D01*
X21516358Y-11812327D01*
X21516358Y-11764708D01*
X21525882Y-11726613D01*
X21535406Y-11707565D01*
X21544930Y-11698042D01*
X21563977Y-11688518D01*
X21744930Y-11774232D02*
X21725882Y-11764708D01*
X21716358Y-11755184D01*
X21706835Y-11736137D01*
X21706835Y-11726613D01*
X21716358Y-11707565D01*
X21725882Y-11698042D01*
X21744930Y-11688518D01*
X21783025Y-11688518D01*
X21802073Y-11698042D01*
X21811597Y-11707565D01*
X21821120Y-11726613D01*
X21821120Y-11736137D01*
X21811597Y-11755184D01*
X21802073Y-11764708D01*
X21783025Y-11774232D01*
X21744930Y-11774232D01*
X21725882Y-11783756D01*
X21716358Y-11793280D01*
X21706835Y-11812327D01*
X21706835Y-11850423D01*
X21716358Y-11869470D01*
X21725882Y-11878994D01*
X21744930Y-11888518D01*
X21783025Y-11888518D01*
X21802073Y-11878994D01*
X21811597Y-11869470D01*
X21821120Y-11850423D01*
X21821120Y-11812327D01*
X21811597Y-11793280D01*
X21802073Y-11783756D01*
X21783025Y-11774232D01*
X21992549Y-11688518D02*
X21954454Y-11688518D01*
X21935406Y-11698042D01*
X21925882Y-11707565D01*
X21906835Y-11736137D01*
X21897311Y-11774232D01*
X21897311Y-11850423D01*
X21906835Y-11869470D01*
X21916358Y-11878994D01*
X21935406Y-11888518D01*
X21973501Y-11888518D01*
X21992549Y-11878994D01*
X22002073Y-11869470D01*
X22011597Y-11850423D01*
X22011597Y-11802804D01*
X22002073Y-11783756D01*
X21992549Y-11774232D01*
X21973501Y-11764708D01*
X21935406Y-11764708D01*
X21916358Y-11774232D01*
X21906835Y-11783756D01*
X21897311Y-11802804D01*
X22183025Y-11688518D02*
X22144930Y-11688518D01*
X22125882Y-11698042D01*
X22116358Y-11707565D01*
X22097311Y-11736137D01*
X22087787Y-11774232D01*
X22087787Y-11850423D01*
X22097311Y-11869470D01*
X22106835Y-11878994D01*
X22125882Y-11888518D01*
X22163977Y-11888518D01*
X22183025Y-11878994D01*
X22192549Y-11869470D01*
X22202073Y-11850423D01*
X22202073Y-11802804D01*
X22192549Y-11783756D01*
X22183025Y-11774232D01*
X22163977Y-11764708D01*
X22125882Y-11764708D01*
X22106835Y-11774232D01*
X22097311Y-11783756D01*
X22087787Y-11802804D01*
X22278263Y-11688518D02*
X22278263Y-11726613D01*
X22354454Y-11688518D02*
X22354454Y-11726613D01*
X22649692Y-11964708D02*
X22640168Y-11955184D01*
X22621120Y-11926613D01*
X22611596Y-11907565D01*
X22602073Y-11878994D01*
X22592549Y-11831375D01*
X22592549Y-11793280D01*
X22602073Y-11745661D01*
X22611596Y-11717089D01*
X22621120Y-11698042D01*
X22640168Y-11669470D01*
X22649692Y-11659946D01*
X22830644Y-11888518D02*
X22716358Y-11888518D01*
X22773501Y-11888518D02*
X22773501Y-11688518D01*
X22754454Y-11717089D01*
X22735406Y-11736137D01*
X22716358Y-11745661D01*
X23068739Y-11888518D02*
X23068739Y-11688518D01*
X23154454Y-11888518D02*
X23154454Y-11783756D01*
X23144930Y-11764708D01*
X23125882Y-11755184D01*
X23097311Y-11755184D01*
X23078263Y-11764708D01*
X23068739Y-11774232D01*
X23278263Y-11888518D02*
X23259215Y-11878994D01*
X23249692Y-11869470D01*
X23240168Y-11850423D01*
X23240168Y-11793280D01*
X23249692Y-11774232D01*
X23259215Y-11764708D01*
X23278263Y-11755184D01*
X23306835Y-11755184D01*
X23325882Y-11764708D01*
X23335406Y-11774232D01*
X23344930Y-11793280D01*
X23344930Y-11850423D01*
X23335406Y-11869470D01*
X23325882Y-11878994D01*
X23306835Y-11888518D01*
X23278263Y-11888518D01*
X23459215Y-11888518D02*
X23440168Y-11878994D01*
X23430644Y-11859946D01*
X23430644Y-11688518D01*
X23611596Y-11878994D02*
X23592549Y-11888518D01*
X23554454Y-11888518D01*
X23535406Y-11878994D01*
X23525882Y-11859946D01*
X23525882Y-11783756D01*
X23535406Y-11764708D01*
X23554454Y-11755184D01*
X23592549Y-11755184D01*
X23611596Y-11764708D01*
X23621120Y-11783756D01*
X23621120Y-11802804D01*
X23525882Y-11821851D01*
X23687787Y-11964708D02*
X23697311Y-11955184D01*
X23716358Y-11926613D01*
X23725882Y-11907565D01*
X23735406Y-11878994D01*
X23744930Y-11831375D01*
X23744930Y-11793280D01*
X23735406Y-11745661D01*
X23725882Y-11717089D01*
X23716358Y-11698042D01*
X23697311Y-11669470D01*
X23687787Y-11659946D01*
X24049692Y-11964708D02*
X24040168Y-11955184D01*
X24021120Y-11926613D01*
X24011596Y-11907565D01*
X24002073Y-11878994D01*
X23992549Y-11831375D01*
X23992549Y-11793280D01*
X24002073Y-11745661D01*
X24011596Y-11717089D01*
X24021120Y-11698042D01*
X24040168Y-11669470D01*
X24049692Y-11659946D01*
X24125882Y-11755184D02*
X24125882Y-11888518D01*
X24125882Y-11774232D02*
X24135406Y-11764708D01*
X24154454Y-11755184D01*
X24183025Y-11755184D01*
X24202073Y-11764708D01*
X24211596Y-11783756D01*
X24211596Y-11888518D01*
X24335406Y-11888518D02*
X24316358Y-11878994D01*
X24306835Y-11869470D01*
X24297311Y-11850423D01*
X24297311Y-11793280D01*
X24306835Y-11774232D01*
X24316358Y-11764708D01*
X24335406Y-11755184D01*
X24363977Y-11755184D01*
X24383025Y-11764708D01*
X24392549Y-11774232D01*
X24402073Y-11793280D01*
X24402073Y-11850423D01*
X24392549Y-11869470D01*
X24383025Y-11878994D01*
X24363977Y-11888518D01*
X24335406Y-11888518D01*
X24459215Y-11755184D02*
X24535406Y-11755184D01*
X24487787Y-11688518D02*
X24487787Y-11859946D01*
X24497311Y-11878994D01*
X24516358Y-11888518D01*
X24535406Y-11888518D01*
X24754454Y-11755184D02*
X24754454Y-11955184D01*
X24754454Y-11764708D02*
X24773501Y-11755184D01*
X24811596Y-11755184D01*
X24830644Y-11764708D01*
X24840168Y-11774232D01*
X24849692Y-11793280D01*
X24849692Y-11850423D01*
X24840168Y-11869470D01*
X24830644Y-11878994D01*
X24811596Y-11888518D01*
X24773501Y-11888518D01*
X24754454Y-11878994D01*
X24963977Y-11888518D02*
X24944930Y-11878994D01*
X24935406Y-11859946D01*
X24935406Y-11688518D01*
X25125882Y-11888518D02*
X25125882Y-11783756D01*
X25116358Y-11764708D01*
X25097311Y-11755184D01*
X25059215Y-11755184D01*
X25040168Y-11764708D01*
X25125882Y-11878994D02*
X25106835Y-11888518D01*
X25059215Y-11888518D01*
X25040168Y-11878994D01*
X25030644Y-11859946D01*
X25030644Y-11840899D01*
X25040168Y-11821851D01*
X25059215Y-11812327D01*
X25106835Y-11812327D01*
X25125882Y-11802804D01*
X25192549Y-11755184D02*
X25268739Y-11755184D01*
X25221120Y-11688518D02*
X25221120Y-11859946D01*
X25230644Y-11878994D01*
X25249692Y-11888518D01*
X25268739Y-11888518D01*
X25411596Y-11878994D02*
X25392549Y-11888518D01*
X25354454Y-11888518D01*
X25335406Y-11878994D01*
X25325882Y-11859946D01*
X25325882Y-11783756D01*
X25335406Y-11764708D01*
X25354454Y-11755184D01*
X25392549Y-11755184D01*
X25411596Y-11764708D01*
X25421120Y-11783756D01*
X25421120Y-11802804D01*
X25325882Y-11821851D01*
X25592549Y-11888518D02*
X25592549Y-11688518D01*
X25592549Y-11878994D02*
X25573501Y-11888518D01*
X25535406Y-11888518D01*
X25516358Y-11878994D01*
X25506835Y-11869470D01*
X25497311Y-11850423D01*
X25497311Y-11793280D01*
X25506835Y-11774232D01*
X25516358Y-11764708D01*
X25535406Y-11755184D01*
X25573501Y-11755184D01*
X25592549Y-11764708D01*
X25668739Y-11964708D02*
X25678263Y-11955184D01*
X25697311Y-11926613D01*
X25706835Y-11907565D01*
X25716358Y-11878994D01*
X25725882Y-11831375D01*
X25725882Y-11793280D01*
X25716358Y-11745661D01*
X25706835Y-11717089D01*
X25697311Y-11698042D01*
X25678263Y-11669470D01*
X25668739Y-11659946D01*
M02*
