G04 #@! TF.GenerationSoftware,KiCad,Pcbnew,(6.0.9)*
G04 #@! TF.CreationDate,2022-11-21T10:54:09+01:00*
G04 #@! TF.ProjectId,IO Board,494f2042-6f61-4726-942e-6b696361645f,rev?*
G04 #@! TF.SameCoordinates,Original*
G04 #@! TF.FileFunction,Copper,L2,Bot*
G04 #@! TF.FilePolarity,Positive*
%FSLAX46Y46*%
G04 Gerber Fmt 4.6, Leading zero omitted, Abs format (unit mm)*
G04 Created by KiCad (PCBNEW (6.0.9)) date 2022-11-21 10:54:09*
%MOMM*%
%LPD*%
G01*
G04 APERTURE LIST*
G04 #@! TA.AperFunction,ComponentPad*
%ADD10R,1.800000X1.800000*%
G04 #@! TD*
G04 #@! TA.AperFunction,ComponentPad*
%ADD11C,1.800000*%
G04 #@! TD*
G04 #@! TA.AperFunction,ComponentPad*
%ADD12C,1.500000*%
G04 #@! TD*
G04 #@! TA.AperFunction,ComponentPad*
%ADD13C,3.164000*%
G04 #@! TD*
G04 #@! TA.AperFunction,ComponentPad*
%ADD14C,1.600000*%
G04 #@! TD*
G04 #@! TA.AperFunction,ComponentPad*
%ADD15O,1.600000X1.600000*%
G04 #@! TD*
G04 #@! TA.AperFunction,ComponentPad*
%ADD16R,1.700000X1.700000*%
G04 #@! TD*
G04 #@! TA.AperFunction,ComponentPad*
%ADD17O,1.700000X1.700000*%
G04 #@! TD*
G04 #@! TA.AperFunction,Conductor*
%ADD18C,0.500000*%
G04 #@! TD*
G04 APERTURE END LIST*
D10*
X214376000Y-58216800D03*
D11*
X216916000Y-58216800D03*
D12*
X227316383Y-85723005D03*
X229816383Y-85723005D03*
X232316383Y-85723005D03*
D13*
X225066383Y-78223005D03*
X234566383Y-78223005D03*
D12*
X198954916Y-109716108D03*
X201454916Y-109716108D03*
X203954916Y-109716108D03*
D13*
X196704916Y-102216108D03*
X206204916Y-102216108D03*
D12*
X227321612Y-109725162D03*
X229821612Y-109725162D03*
X232321612Y-109725162D03*
D13*
X225071612Y-102225162D03*
X234571612Y-102225162D03*
D12*
X198948140Y-85720462D03*
X201448140Y-85720462D03*
X203948140Y-85720462D03*
D13*
X196698140Y-78220462D03*
X206198140Y-78220462D03*
D14*
X215686347Y-74727791D03*
D15*
X215686347Y-64567791D03*
D16*
X237998000Y-81686400D03*
D17*
X237998000Y-84226400D03*
X237998000Y-86766400D03*
X237998000Y-89306400D03*
X237998000Y-91846400D03*
X237998000Y-94386400D03*
X237998000Y-96926400D03*
D18*
X239297511Y-102154689D02*
X235280200Y-106172000D01*
X239297511Y-90605911D02*
X239297511Y-102154689D01*
X237998000Y-89306400D02*
X239297511Y-90605911D01*
X204999024Y-106172000D02*
X201454916Y-109716108D01*
X235280200Y-106172000D02*
X204999024Y-106172000D01*
X237998000Y-91846400D02*
X235939778Y-91846400D01*
X235939778Y-91846400D02*
X229816383Y-85723005D01*
X201448140Y-85720462D02*
X210114078Y-94386400D01*
X210114078Y-94386400D02*
X237998000Y-94386400D01*
G04 #@! TA.AperFunction,Conductor*
G36*
X239810650Y-102818397D02*
G01*
X239867486Y-102860944D01*
X239892297Y-102927464D01*
X239892618Y-102936453D01*
X239892618Y-109431047D01*
X239891118Y-109450433D01*
X239890387Y-109455130D01*
X239887427Y-109474137D01*
X239889422Y-109489394D01*
X239890165Y-109514714D01*
X239878078Y-109683689D01*
X239878078Y-109683690D01*
X239875520Y-109701480D01*
X239869177Y-109730637D01*
X239834114Y-109891812D01*
X239829052Y-109909055D01*
X239760975Y-110091572D01*
X239753515Y-110107906D01*
X239671432Y-110258230D01*
X239660162Y-110278869D01*
X239650445Y-110293989D01*
X239563025Y-110410769D01*
X239533712Y-110449926D01*
X239521939Y-110463512D01*
X239384213Y-110601238D01*
X239370633Y-110613006D01*
X239214683Y-110729750D01*
X239199573Y-110739460D01*
X239053508Y-110819218D01*
X239028613Y-110832812D01*
X239012273Y-110840275D01*
X238829756Y-110908352D01*
X238812513Y-110913414D01*
X238726430Y-110932141D01*
X238622181Y-110954820D01*
X238604393Y-110957378D01*
X238564613Y-110960223D01*
X238442515Y-110968956D01*
X238424506Y-110968208D01*
X238416260Y-110968107D01*
X238407389Y-110966726D01*
X238398488Y-110967890D01*
X238398484Y-110967890D01*
X238375830Y-110970853D01*
X238359492Y-110971917D01*
X233134810Y-110971917D01*
X233066689Y-110951915D01*
X233020196Y-110898259D01*
X233010092Y-110827985D01*
X233039586Y-110763405D01*
X233062539Y-110742704D01*
X233129139Y-110696070D01*
X233129141Y-110696068D01*
X233133650Y-110692911D01*
X233289361Y-110537200D01*
X233298860Y-110523635D01*
X233412511Y-110361324D01*
X233412512Y-110361322D01*
X233415668Y-110356815D01*
X233417991Y-110351833D01*
X233417994Y-110351828D01*
X233486762Y-110204353D01*
X233508732Y-110157238D01*
X233565727Y-109944533D01*
X233584919Y-109725162D01*
X233565727Y-109505791D01*
X233508732Y-109293086D01*
X233418110Y-109098745D01*
X233417994Y-109098496D01*
X233417991Y-109098491D01*
X233415668Y-109093509D01*
X233412511Y-109089000D01*
X233292520Y-108917635D01*
X233292518Y-108917632D01*
X233289361Y-108913124D01*
X233133650Y-108757413D01*
X233126286Y-108752256D01*
X233015954Y-108675001D01*
X232953266Y-108631106D01*
X232753688Y-108538042D01*
X232540983Y-108481047D01*
X232321612Y-108461855D01*
X232102241Y-108481047D01*
X231889536Y-108538042D01*
X231796174Y-108581577D01*
X231694946Y-108628780D01*
X231694941Y-108628783D01*
X231689959Y-108631106D01*
X231685452Y-108634262D01*
X231685450Y-108634263D01*
X231514085Y-108754254D01*
X231514082Y-108754256D01*
X231509574Y-108757413D01*
X231353863Y-108913124D01*
X231350706Y-108917632D01*
X231350704Y-108917635D01*
X231230713Y-109089000D01*
X231227556Y-109093509D01*
X231225233Y-109098491D01*
X231225230Y-109098496D01*
X231185807Y-109183040D01*
X231138890Y-109236325D01*
X231070612Y-109255786D01*
X231002652Y-109235244D01*
X230957417Y-109183040D01*
X230917994Y-109098496D01*
X230917991Y-109098491D01*
X230915668Y-109093509D01*
X230912511Y-109089000D01*
X230792520Y-108917635D01*
X230792518Y-108917632D01*
X230789361Y-108913124D01*
X230633650Y-108757413D01*
X230626286Y-108752256D01*
X230515954Y-108675001D01*
X230453266Y-108631106D01*
X230253688Y-108538042D01*
X230040983Y-108481047D01*
X229821612Y-108461855D01*
X229602241Y-108481047D01*
X229389536Y-108538042D01*
X229296174Y-108581577D01*
X229194946Y-108628780D01*
X229194941Y-108628783D01*
X229189959Y-108631106D01*
X229185452Y-108634262D01*
X229185450Y-108634263D01*
X229014085Y-108754254D01*
X229014082Y-108754256D01*
X229009574Y-108757413D01*
X228853863Y-108913124D01*
X228850706Y-108917632D01*
X228850704Y-108917635D01*
X228730713Y-109089000D01*
X228727556Y-109093509D01*
X228725233Y-109098491D01*
X228725230Y-109098496D01*
X228685531Y-109183632D01*
X228638614Y-109236917D01*
X228570336Y-109256378D01*
X228502377Y-109235836D01*
X228457141Y-109183632D01*
X228417558Y-109098745D01*
X228412078Y-109089255D01*
X228383201Y-109048013D01*
X228372725Y-109039639D01*
X228359278Y-109046707D01*
X227693633Y-109712351D01*
X227686020Y-109726294D01*
X227686151Y-109728128D01*
X227690402Y-109734742D01*
X228360003Y-110404342D01*
X228371773Y-110410769D01*
X228383788Y-110401473D01*
X228412078Y-110361069D01*
X228417558Y-110351579D01*
X228457141Y-110266692D01*
X228504058Y-110213407D01*
X228572336Y-110193946D01*
X228640296Y-110214488D01*
X228685531Y-110266692D01*
X228725230Y-110351828D01*
X228725233Y-110351833D01*
X228727556Y-110356815D01*
X228730712Y-110361322D01*
X228730713Y-110361324D01*
X228844365Y-110523635D01*
X228853863Y-110537200D01*
X229009574Y-110692911D01*
X229014083Y-110696068D01*
X229014085Y-110696070D01*
X229080685Y-110742704D01*
X229125013Y-110798162D01*
X229132322Y-110868781D01*
X229100291Y-110932141D01*
X229039089Y-110968126D01*
X229008414Y-110971917D01*
X228112774Y-110971917D01*
X228044653Y-110951915D01*
X227998160Y-110898259D01*
X227988056Y-110827985D01*
X228007859Y-110782244D01*
X228008256Y-110778407D01*
X228000069Y-110762830D01*
X227334423Y-110097183D01*
X227320480Y-110089570D01*
X227318646Y-110089701D01*
X227312032Y-110093952D01*
X226642432Y-110763553D01*
X226634821Y-110777491D01*
X226634924Y-110778922D01*
X226656834Y-110834935D01*
X226642846Y-110904540D01*
X226593447Y-110955532D01*
X226531314Y-110971917D01*
X204755183Y-110971917D01*
X204687062Y-110951915D01*
X204640569Y-110898259D01*
X204630465Y-110827985D01*
X204659959Y-110763405D01*
X204682912Y-110742704D01*
X204762443Y-110687016D01*
X204762445Y-110687014D01*
X204766954Y-110683857D01*
X204922665Y-110528146D01*
X204967923Y-110463512D01*
X205045815Y-110352270D01*
X205045816Y-110352268D01*
X205048972Y-110347761D01*
X205051295Y-110342779D01*
X205051298Y-110342774D01*
X205120697Y-110193946D01*
X205142036Y-110148184D01*
X205199031Y-109935479D01*
X205216952Y-109730637D01*
X226059286Y-109730637D01*
X226077513Y-109938966D01*
X226079416Y-109949761D01*
X226133540Y-110151757D01*
X226137286Y-110162049D01*
X226225666Y-110351579D01*
X226231146Y-110361069D01*
X226260023Y-110402311D01*
X226270499Y-110410685D01*
X226283946Y-110403617D01*
X226949591Y-109737973D01*
X226957204Y-109724030D01*
X226957073Y-109722196D01*
X226952822Y-109715582D01*
X226283221Y-109045982D01*
X226271451Y-109039555D01*
X226259436Y-109048851D01*
X226231146Y-109089255D01*
X226225666Y-109098745D01*
X226137286Y-109288275D01*
X226133540Y-109298567D01*
X226079416Y-109500563D01*
X226077513Y-109511358D01*
X226059286Y-109719687D01*
X226059286Y-109730637D01*
X205216952Y-109730637D01*
X205218223Y-109716108D01*
X205199031Y-109496737D01*
X205142036Y-109284032D01*
X205055636Y-109098745D01*
X205051298Y-109089442D01*
X205051295Y-109089437D01*
X205048972Y-109084455D01*
X205017702Y-109039797D01*
X204925824Y-108908581D01*
X204925822Y-108908578D01*
X204922665Y-108904070D01*
X204766954Y-108748359D01*
X204660829Y-108674049D01*
X226636089Y-108674049D01*
X226643157Y-108687496D01*
X227308801Y-109353141D01*
X227322744Y-109360754D01*
X227324578Y-109360623D01*
X227331192Y-109356372D01*
X228000792Y-108686771D01*
X228007219Y-108675001D01*
X227997925Y-108662987D01*
X227957524Y-108634698D01*
X227948028Y-108629215D01*
X227758499Y-108540836D01*
X227748207Y-108537090D01*
X227546211Y-108482966D01*
X227535416Y-108481063D01*
X227327087Y-108462836D01*
X227316137Y-108462836D01*
X227107808Y-108481063D01*
X227097013Y-108482966D01*
X226895017Y-108537090D01*
X226884725Y-108540836D01*
X226695195Y-108629216D01*
X226685705Y-108634696D01*
X226644463Y-108663573D01*
X226636089Y-108674049D01*
X204660829Y-108674049D01*
X204586570Y-108622052D01*
X204386992Y-108528988D01*
X204174287Y-108471993D01*
X204121210Y-108467349D01*
X204073278Y-108463156D01*
X204007160Y-108437293D01*
X203965521Y-108379789D01*
X203961580Y-108308902D01*
X203995165Y-108248540D01*
X205276300Y-106967405D01*
X205338612Y-106933379D01*
X205365395Y-106930500D01*
X235213130Y-106930500D01*
X235232080Y-106931933D01*
X235246315Y-106934099D01*
X235246319Y-106934099D01*
X235253549Y-106935199D01*
X235260841Y-106934606D01*
X235260844Y-106934606D01*
X235306218Y-106930915D01*
X235316433Y-106930500D01*
X235324493Y-106930500D01*
X235337783Y-106928951D01*
X235352707Y-106927211D01*
X235357082Y-106926778D01*
X235422539Y-106921454D01*
X235422542Y-106921453D01*
X235429837Y-106920860D01*
X235436801Y-106918604D01*
X235442760Y-106917413D01*
X235448615Y-106916029D01*
X235455881Y-106915182D01*
X235524527Y-106890265D01*
X235528655Y-106888848D01*
X235591136Y-106868607D01*
X235591138Y-106868606D01*
X235598099Y-106866351D01*
X235604354Y-106862555D01*
X235609828Y-106860049D01*
X235615258Y-106857330D01*
X235622137Y-106854833D01*
X235683176Y-106814814D01*
X235686880Y-106812477D01*
X235749307Y-106774595D01*
X235757684Y-106767197D01*
X235757708Y-106767224D01*
X235760700Y-106764571D01*
X235763933Y-106761868D01*
X235770052Y-106757856D01*
X235823328Y-106701617D01*
X235825706Y-106699175D01*
X239677523Y-102847358D01*
X239739835Y-102813332D01*
X239810650Y-102818397D01*
G37*
G04 #@! TD.AperFunction*
G04 #@! TA.AperFunction,Conductor*
G36*
X214572121Y-57982802D02*
G01*
X214618614Y-58036458D01*
X214630000Y-58088800D01*
X214630000Y-59606684D01*
X214634475Y-59621923D01*
X214635865Y-59623128D01*
X214643548Y-59624799D01*
X215320669Y-59624799D01*
X215327490Y-59624429D01*
X215378352Y-59618905D01*
X215393604Y-59615279D01*
X215514054Y-59570124D01*
X215529649Y-59561586D01*
X215631724Y-59485085D01*
X215644285Y-59472524D01*
X215720786Y-59370449D01*
X215729324Y-59354854D01*
X215750773Y-59297640D01*
X215793415Y-59240875D01*
X215859977Y-59216176D01*
X215929325Y-59231384D01*
X215949240Y-59244926D01*
X216105349Y-59374530D01*
X216305322Y-59491384D01*
X216310147Y-59493226D01*
X216310148Y-59493227D01*
X216369640Y-59515945D01*
X216521694Y-59574009D01*
X216526760Y-59575040D01*
X216526761Y-59575040D01*
X216579846Y-59585840D01*
X216748656Y-59620185D01*
X216879324Y-59624976D01*
X216974949Y-59628483D01*
X216974953Y-59628483D01*
X216980113Y-59628672D01*
X216985233Y-59628016D01*
X216985235Y-59628016D01*
X217058270Y-59618660D01*
X217209847Y-59599242D01*
X217214795Y-59597757D01*
X217214802Y-59597756D01*
X217426747Y-59534169D01*
X217431690Y-59532686D01*
X217512236Y-59493227D01*
X217635049Y-59433062D01*
X217635052Y-59433060D01*
X217639684Y-59430791D01*
X217828243Y-59296294D01*
X217992303Y-59132805D01*
X217995317Y-59128611D01*
X217995326Y-59128600D01*
X218090779Y-58995763D01*
X218146773Y-58952115D01*
X218217477Y-58945669D01*
X218280441Y-58978472D01*
X218315675Y-59040108D01*
X218319101Y-59069289D01*
X218319101Y-66062951D01*
X218317355Y-66083856D01*
X218314025Y-66103649D01*
X218313872Y-66116201D01*
X218314561Y-66121011D01*
X218314719Y-66123438D01*
X218315298Y-66129134D01*
X218315577Y-66133742D01*
X218332839Y-66419120D01*
X218387542Y-66717622D01*
X218477826Y-67007353D01*
X218479388Y-67010823D01*
X218479390Y-67010829D01*
X218516339Y-67092925D01*
X218602375Y-67284089D01*
X218604344Y-67287346D01*
X218604346Y-67287349D01*
X218759373Y-67543795D01*
X218761725Y-67546797D01*
X218761727Y-67546800D01*
X218820205Y-67621442D01*
X218946530Y-67782684D01*
X219161118Y-67997271D01*
X219164123Y-67999626D01*
X219164125Y-67999627D01*
X219225845Y-68047981D01*
X219400007Y-68184428D01*
X219577508Y-68291731D01*
X219656452Y-68339455D01*
X219656456Y-68339457D01*
X219659713Y-68341426D01*
X219798081Y-68403701D01*
X219932973Y-68464411D01*
X219932979Y-68464413D01*
X219936449Y-68465975D01*
X219940085Y-68467108D01*
X220222523Y-68555119D01*
X220226181Y-68556259D01*
X220524682Y-68610961D01*
X220528476Y-68611190D01*
X220528480Y-68611191D01*
X220660884Y-68619200D01*
X220796760Y-68627419D01*
X220810047Y-68628934D01*
X220815049Y-68629775D01*
X220821325Y-68629851D01*
X220822741Y-68629869D01*
X220822744Y-68629869D01*
X220827601Y-68629928D01*
X220855225Y-68625972D01*
X220873087Y-68624699D01*
X229248395Y-68624700D01*
X238351747Y-68624701D01*
X238371133Y-68626201D01*
X238385965Y-68628511D01*
X238385968Y-68628511D01*
X238394837Y-68629892D01*
X238410094Y-68627897D01*
X238435414Y-68627154D01*
X238604394Y-68639242D01*
X238622177Y-68641799D01*
X238752346Y-68670116D01*
X238812510Y-68683205D01*
X238829758Y-68688270D01*
X238980659Y-68744554D01*
X239012183Y-68756312D01*
X239012255Y-68756339D01*
X239028606Y-68763806D01*
X239199567Y-68857159D01*
X239214677Y-68866869D01*
X239370622Y-68983609D01*
X239384201Y-68995376D01*
X239521933Y-69133110D01*
X239533705Y-69146696D01*
X239650433Y-69302627D01*
X239660144Y-69317736D01*
X239753502Y-69488711D01*
X239760961Y-69505043D01*
X239812155Y-69642300D01*
X239829034Y-69687554D01*
X239834099Y-69704803D01*
X239875503Y-69895136D01*
X239878061Y-69912930D01*
X239889645Y-70074885D01*
X239888915Y-70092440D01*
X239888810Y-70101046D01*
X239887427Y-70109925D01*
X239889889Y-70128753D01*
X239891554Y-70141484D01*
X239892618Y-70157822D01*
X239892618Y-89824147D01*
X239872616Y-89892268D01*
X239818960Y-89938761D01*
X239748686Y-89948865D01*
X239684106Y-89919371D01*
X239677523Y-89913242D01*
X239377609Y-89613328D01*
X239343583Y-89551016D01*
X239341782Y-89507789D01*
X239359529Y-89372990D01*
X239361156Y-89306400D01*
X239342852Y-89083761D01*
X239288431Y-88867102D01*
X239199354Y-88662240D01*
X239078014Y-88474677D01*
X238927670Y-88309451D01*
X238923619Y-88306252D01*
X238923615Y-88306248D01*
X238756414Y-88174200D01*
X238756410Y-88174198D01*
X238752359Y-88170998D01*
X238711053Y-88148196D01*
X238661084Y-88097764D01*
X238646312Y-88028321D01*
X238671428Y-87961916D01*
X238698780Y-87935309D01*
X238742603Y-87904050D01*
X238877860Y-87807573D01*
X239036096Y-87649889D01*
X239095594Y-87567089D01*
X239163435Y-87472677D01*
X239166453Y-87468477D01*
X239265430Y-87268211D01*
X239330370Y-87054469D01*
X239359529Y-86832990D01*
X239359611Y-86829640D01*
X239361074Y-86769765D01*
X239361074Y-86769761D01*
X239361156Y-86766400D01*
X239342852Y-86543761D01*
X239288431Y-86327102D01*
X239199354Y-86122240D01*
X239078014Y-85934677D01*
X238927670Y-85769451D01*
X238923619Y-85766252D01*
X238923615Y-85766248D01*
X238756414Y-85634200D01*
X238756410Y-85634198D01*
X238752359Y-85630998D01*
X238711053Y-85608196D01*
X238661084Y-85557764D01*
X238646312Y-85488321D01*
X238671428Y-85421916D01*
X238698780Y-85395309D01*
X238760921Y-85350984D01*
X238877860Y-85267573D01*
X239036096Y-85109889D01*
X239051244Y-85088809D01*
X239163435Y-84932677D01*
X239166453Y-84928477D01*
X239172878Y-84915478D01*
X239263136Y-84732853D01*
X239263137Y-84732851D01*
X239265430Y-84728211D01*
X239297900Y-84621340D01*
X239328865Y-84519423D01*
X239328865Y-84519421D01*
X239330370Y-84514469D01*
X239359529Y-84292990D01*
X239361156Y-84226400D01*
X239342852Y-84003761D01*
X239288431Y-83787102D01*
X239199354Y-83582240D01*
X239078014Y-83394677D01*
X239074532Y-83390850D01*
X238930798Y-83232888D01*
X238899746Y-83169042D01*
X238908141Y-83098543D01*
X238953317Y-83043775D01*
X238979761Y-83030106D01*
X239086297Y-82990167D01*
X239094705Y-82987015D01*
X239211261Y-82899661D01*
X239298615Y-82783105D01*
X239349745Y-82646716D01*
X239356500Y-82584534D01*
X239356500Y-80788266D01*
X239349745Y-80726084D01*
X239298615Y-80589695D01*
X239211261Y-80473139D01*
X239094705Y-80385785D01*
X238958316Y-80334655D01*
X238896134Y-80327900D01*
X237099866Y-80327900D01*
X237037684Y-80334655D01*
X236901295Y-80385785D01*
X236784739Y-80473139D01*
X236697385Y-80589695D01*
X236646255Y-80726084D01*
X236639500Y-80788266D01*
X236639500Y-82584534D01*
X236646255Y-82646716D01*
X236697385Y-82783105D01*
X236784739Y-82899661D01*
X236901295Y-82987015D01*
X236909704Y-82990167D01*
X236909705Y-82990168D01*
X237018451Y-83030935D01*
X237075216Y-83073576D01*
X237099916Y-83140138D01*
X237084709Y-83209487D01*
X237065316Y-83235968D01*
X236938629Y-83368538D01*
X236812743Y-83553080D01*
X236718688Y-83755705D01*
X236658989Y-83970970D01*
X236635251Y-84193095D01*
X236635548Y-84198248D01*
X236635548Y-84198251D01*
X236641011Y-84292990D01*
X236648110Y-84416115D01*
X236649247Y-84421161D01*
X236649248Y-84421167D01*
X236669119Y-84509339D01*
X236697222Y-84634039D01*
X236781266Y-84841016D01*
X236897987Y-85031488D01*
X237044250Y-85200338D01*
X237216126Y-85343032D01*
X237286595Y-85384211D01*
X237289445Y-85385876D01*
X237338169Y-85437514D01*
X237351240Y-85507297D01*
X237324509Y-85573069D01*
X237284055Y-85606427D01*
X237271607Y-85612907D01*
X237267474Y-85616010D01*
X237267471Y-85616012D01*
X237111294Y-85733273D01*
X237092965Y-85747035D01*
X237089393Y-85750773D01*
X236950848Y-85895752D01*
X236938629Y-85908538D01*
X236935715Y-85912810D01*
X236935714Y-85912811D01*
X236921017Y-85934356D01*
X236812743Y-86093080D01*
X236782830Y-86157523D01*
X236733157Y-86264535D01*
X236718688Y-86295705D01*
X236658989Y-86510970D01*
X236635251Y-86733095D01*
X236635548Y-86738248D01*
X236635548Y-86738251D01*
X236645394Y-86909005D01*
X236648110Y-86956115D01*
X236649247Y-86961161D01*
X236649248Y-86961167D01*
X236660249Y-87009980D01*
X236697222Y-87174039D01*
X236781266Y-87381016D01*
X236897987Y-87571488D01*
X237044250Y-87740338D01*
X237216126Y-87883032D01*
X237286595Y-87924211D01*
X237289445Y-87925876D01*
X237338169Y-87977514D01*
X237351240Y-88047297D01*
X237324509Y-88113069D01*
X237284055Y-88146427D01*
X237271607Y-88152907D01*
X237267474Y-88156010D01*
X237267471Y-88156012D01*
X237243247Y-88174200D01*
X237092965Y-88287035D01*
X236938629Y-88448538D01*
X236812743Y-88633080D01*
X236797003Y-88666990D01*
X236733291Y-88804246D01*
X236718688Y-88835705D01*
X236658989Y-89050970D01*
X236635251Y-89273095D01*
X236635548Y-89278248D01*
X236635548Y-89278251D01*
X236641011Y-89372990D01*
X236648110Y-89496115D01*
X236649247Y-89501161D01*
X236649248Y-89501167D01*
X236661435Y-89555241D01*
X236697222Y-89714039D01*
X236781266Y-89921016D01*
X236897987Y-90111488D01*
X237044250Y-90280338D01*
X237216126Y-90423032D01*
X237248810Y-90442131D01*
X237289445Y-90465876D01*
X237338169Y-90517514D01*
X237351240Y-90587297D01*
X237324509Y-90653069D01*
X237284055Y-90686427D01*
X237271607Y-90692907D01*
X237267474Y-90696010D01*
X237267471Y-90696012D01*
X237097100Y-90823930D01*
X237092965Y-90827035D01*
X237089393Y-90830773D01*
X237017003Y-90906525D01*
X236938629Y-90988538D01*
X236908363Y-91032907D01*
X236853455Y-91077907D01*
X236804277Y-91087900D01*
X236306149Y-91087900D01*
X236238028Y-91067898D01*
X236217054Y-91050995D01*
X232356632Y-87190573D01*
X232322606Y-87128261D01*
X232327671Y-87057446D01*
X232370218Y-87000610D01*
X232434745Y-86975957D01*
X232482677Y-86971764D01*
X232535754Y-86967120D01*
X232748459Y-86910125D01*
X232948037Y-86817061D01*
X233128421Y-86690754D01*
X233284132Y-86535043D01*
X233289072Y-86527989D01*
X233407282Y-86359167D01*
X233407283Y-86359165D01*
X233410439Y-86354658D01*
X233412762Y-86349676D01*
X233412765Y-86349671D01*
X233486386Y-86191789D01*
X233503503Y-86155081D01*
X233560498Y-85942376D01*
X233579690Y-85723005D01*
X233560498Y-85503634D01*
X233503503Y-85290929D01*
X233412881Y-85096588D01*
X233412765Y-85096339D01*
X233412762Y-85096334D01*
X233410439Y-85091352D01*
X233379169Y-85046694D01*
X233287291Y-84915478D01*
X233287289Y-84915475D01*
X233284132Y-84910967D01*
X233128421Y-84755256D01*
X233096427Y-84732853D01*
X233024938Y-84682796D01*
X232948037Y-84628949D01*
X232748459Y-84535885D01*
X232535754Y-84478890D01*
X232316383Y-84459698D01*
X232097012Y-84478890D01*
X231884307Y-84535885D01*
X231790945Y-84579420D01*
X231689717Y-84626623D01*
X231689712Y-84626626D01*
X231684730Y-84628949D01*
X231680223Y-84632105D01*
X231680221Y-84632106D01*
X231508856Y-84752097D01*
X231508853Y-84752099D01*
X231504345Y-84755256D01*
X231348634Y-84910967D01*
X231345477Y-84915475D01*
X231345475Y-84915478D01*
X231253597Y-85046694D01*
X231222327Y-85091352D01*
X231220004Y-85096334D01*
X231220001Y-85096339D01*
X231180578Y-85180883D01*
X231133661Y-85234168D01*
X231065383Y-85253629D01*
X230997423Y-85233087D01*
X230952188Y-85180883D01*
X230912765Y-85096339D01*
X230912762Y-85096334D01*
X230910439Y-85091352D01*
X230879169Y-85046694D01*
X230787291Y-84915478D01*
X230787289Y-84915475D01*
X230784132Y-84910967D01*
X230628421Y-84755256D01*
X230596427Y-84732853D01*
X230524938Y-84682796D01*
X230448037Y-84628949D01*
X230248459Y-84535885D01*
X230035754Y-84478890D01*
X229816383Y-84459698D01*
X229597012Y-84478890D01*
X229384307Y-84535885D01*
X229290945Y-84579420D01*
X229189717Y-84626623D01*
X229189712Y-84626626D01*
X229184730Y-84628949D01*
X229180223Y-84632105D01*
X229180221Y-84632106D01*
X229008856Y-84752097D01*
X229008853Y-84752099D01*
X229004345Y-84755256D01*
X228848634Y-84910967D01*
X228845477Y-84915475D01*
X228845475Y-84915478D01*
X228753597Y-85046694D01*
X228722327Y-85091352D01*
X228720004Y-85096334D01*
X228720001Y-85096339D01*
X228680302Y-85181475D01*
X228633385Y-85234760D01*
X228565107Y-85254221D01*
X228497148Y-85233679D01*
X228451912Y-85181475D01*
X228412329Y-85096588D01*
X228406849Y-85087098D01*
X228377972Y-85045856D01*
X228367496Y-85037482D01*
X228354049Y-85044550D01*
X227688404Y-85710194D01*
X227680791Y-85724137D01*
X227680922Y-85725971D01*
X227685173Y-85732585D01*
X228354774Y-86402185D01*
X228366544Y-86408612D01*
X228378559Y-86399316D01*
X228406849Y-86358912D01*
X228412329Y-86349422D01*
X228451912Y-86264535D01*
X228498829Y-86211250D01*
X228567107Y-86191789D01*
X228635067Y-86212331D01*
X228680302Y-86264535D01*
X228720001Y-86349671D01*
X228720004Y-86349676D01*
X228722327Y-86354658D01*
X228725483Y-86359165D01*
X228725484Y-86359167D01*
X228843695Y-86527989D01*
X228848634Y-86535043D01*
X229004345Y-86690754D01*
X229184729Y-86817061D01*
X229384307Y-86910125D01*
X229597012Y-86967120D01*
X229816383Y-86986312D01*
X229821858Y-86985833D01*
X229821859Y-86985833D01*
X229933144Y-86976097D01*
X230002748Y-86990086D01*
X230033220Y-87012523D01*
X235356008Y-92335311D01*
X235368394Y-92349723D01*
X235376927Y-92361318D01*
X235376932Y-92361323D01*
X235381270Y-92367218D01*
X235386848Y-92371957D01*
X235386851Y-92371960D01*
X235421546Y-92401435D01*
X235429062Y-92408365D01*
X235434757Y-92414060D01*
X235437639Y-92416340D01*
X235457029Y-92431681D01*
X235460433Y-92434472D01*
X235510481Y-92476991D01*
X235516063Y-92481733D01*
X235522579Y-92485061D01*
X235527628Y-92488428D01*
X235532757Y-92491595D01*
X235538494Y-92496134D01*
X235604653Y-92527055D01*
X235608547Y-92528958D01*
X235673586Y-92562169D01*
X235680694Y-92563908D01*
X235686337Y-92566007D01*
X235692100Y-92567924D01*
X235698728Y-92571022D01*
X235705890Y-92572512D01*
X235705891Y-92572512D01*
X235770190Y-92585886D01*
X235774474Y-92586856D01*
X235845388Y-92604208D01*
X235850990Y-92604556D01*
X235850993Y-92604556D01*
X235856542Y-92604900D01*
X235856540Y-92604936D01*
X235860533Y-92605175D01*
X235864725Y-92605549D01*
X235871893Y-92607040D01*
X235949298Y-92604946D01*
X235952706Y-92604900D01*
X236800491Y-92604900D01*
X236868612Y-92624902D01*
X236897402Y-92651995D01*
X236897987Y-92651488D01*
X237044250Y-92820338D01*
X237216126Y-92963032D01*
X237286595Y-93004211D01*
X237289445Y-93005876D01*
X237338169Y-93057514D01*
X237351240Y-93127297D01*
X237324509Y-93193069D01*
X237284055Y-93226427D01*
X237271607Y-93232907D01*
X237267474Y-93236010D01*
X237267471Y-93236012D01*
X237097100Y-93363930D01*
X237092965Y-93367035D01*
X236938629Y-93528538D01*
X236908363Y-93572907D01*
X236853455Y-93617907D01*
X236804277Y-93627900D01*
X210480449Y-93627900D01*
X210412328Y-93607898D01*
X210391354Y-93590995D01*
X203988389Y-87188030D01*
X203954363Y-87125718D01*
X203959428Y-87054903D01*
X204001975Y-86998067D01*
X204066502Y-86973414D01*
X204114434Y-86969221D01*
X204167511Y-86964577D01*
X204380216Y-86907582D01*
X204579794Y-86814518D01*
X204638850Y-86773166D01*
X226630776Y-86773166D01*
X226640070Y-86785180D01*
X226680471Y-86813469D01*
X226689967Y-86818952D01*
X226879496Y-86907331D01*
X226889788Y-86911077D01*
X227091784Y-86965201D01*
X227102579Y-86967104D01*
X227310908Y-86985331D01*
X227321858Y-86985331D01*
X227530187Y-86967104D01*
X227540982Y-86965201D01*
X227742978Y-86911077D01*
X227753270Y-86907331D01*
X227942799Y-86818952D01*
X227952295Y-86813469D01*
X227993531Y-86784595D01*
X228001906Y-86774117D01*
X227994840Y-86760673D01*
X227329194Y-86095026D01*
X227315251Y-86087413D01*
X227313417Y-86087544D01*
X227306803Y-86091795D01*
X226637203Y-86761396D01*
X226630776Y-86773166D01*
X204638850Y-86773166D01*
X204760178Y-86688211D01*
X204915889Y-86532500D01*
X204930965Y-86510970D01*
X205039039Y-86356624D01*
X205039040Y-86356622D01*
X205042196Y-86352115D01*
X205044519Y-86347133D01*
X205044522Y-86347128D01*
X205118143Y-86189246D01*
X205135260Y-86152538D01*
X205192255Y-85939833D01*
X205210746Y-85728480D01*
X226054057Y-85728480D01*
X226072284Y-85936809D01*
X226074187Y-85947604D01*
X226128311Y-86149600D01*
X226132057Y-86159892D01*
X226220437Y-86349422D01*
X226225917Y-86358912D01*
X226254794Y-86400154D01*
X226265270Y-86408528D01*
X226278717Y-86401460D01*
X226944362Y-85735816D01*
X226951975Y-85721873D01*
X226951844Y-85720039D01*
X226947593Y-85713425D01*
X226277992Y-85043825D01*
X226266222Y-85037398D01*
X226254207Y-85046694D01*
X226225917Y-85087098D01*
X226220437Y-85096588D01*
X226132057Y-85286118D01*
X226128311Y-85296410D01*
X226074187Y-85498406D01*
X226072284Y-85509201D01*
X226054057Y-85717530D01*
X226054057Y-85728480D01*
X205210746Y-85728480D01*
X205211447Y-85720462D01*
X205192255Y-85501091D01*
X205135260Y-85288386D01*
X205050069Y-85105692D01*
X205044522Y-85093796D01*
X205044519Y-85093791D01*
X205042196Y-85088809D01*
X205012120Y-85045856D01*
X204919048Y-84912935D01*
X204919046Y-84912932D01*
X204915889Y-84908424D01*
X204760178Y-84752713D01*
X204644754Y-84671892D01*
X226630860Y-84671892D01*
X226637928Y-84685339D01*
X227303572Y-85350984D01*
X227317515Y-85358597D01*
X227319349Y-85358466D01*
X227325963Y-85354215D01*
X227995563Y-84684614D01*
X228001990Y-84672844D01*
X227992696Y-84660830D01*
X227952295Y-84632541D01*
X227942799Y-84627058D01*
X227753270Y-84538679D01*
X227742978Y-84534933D01*
X227540982Y-84480809D01*
X227530187Y-84478906D01*
X227321858Y-84460679D01*
X227310908Y-84460679D01*
X227102579Y-84478906D01*
X227091784Y-84480809D01*
X226889788Y-84534933D01*
X226879496Y-84538679D01*
X226689966Y-84627059D01*
X226680476Y-84632539D01*
X226639234Y-84661416D01*
X226630860Y-84671892D01*
X204644754Y-84671892D01*
X204579794Y-84626406D01*
X204380216Y-84533342D01*
X204167511Y-84476347D01*
X203948140Y-84457155D01*
X203728769Y-84476347D01*
X203516064Y-84533342D01*
X203422702Y-84576877D01*
X203321474Y-84624080D01*
X203321469Y-84624083D01*
X203316487Y-84626406D01*
X203311980Y-84629562D01*
X203311978Y-84629563D01*
X203140613Y-84749554D01*
X203140610Y-84749556D01*
X203136102Y-84752713D01*
X202980391Y-84908424D01*
X202977234Y-84912932D01*
X202977232Y-84912935D01*
X202884160Y-85045856D01*
X202854084Y-85088809D01*
X202851761Y-85093791D01*
X202851758Y-85093796D01*
X202812335Y-85178340D01*
X202765418Y-85231625D01*
X202697140Y-85251086D01*
X202629180Y-85230544D01*
X202583945Y-85178340D01*
X202544522Y-85093796D01*
X202544519Y-85093791D01*
X202542196Y-85088809D01*
X202512120Y-85045856D01*
X202419048Y-84912935D01*
X202419046Y-84912932D01*
X202415889Y-84908424D01*
X202260178Y-84752713D01*
X202079794Y-84626406D01*
X201880216Y-84533342D01*
X201667511Y-84476347D01*
X201448140Y-84457155D01*
X201228769Y-84476347D01*
X201016064Y-84533342D01*
X200922702Y-84576877D01*
X200821474Y-84624080D01*
X200821469Y-84624083D01*
X200816487Y-84626406D01*
X200811980Y-84629562D01*
X200811978Y-84629563D01*
X200640613Y-84749554D01*
X200640610Y-84749556D01*
X200636102Y-84752713D01*
X200480391Y-84908424D01*
X200477234Y-84912932D01*
X200477232Y-84912935D01*
X200384160Y-85045856D01*
X200354084Y-85088809D01*
X200351761Y-85093791D01*
X200351758Y-85093796D01*
X200312059Y-85178932D01*
X200265142Y-85232217D01*
X200196864Y-85251678D01*
X200128905Y-85231136D01*
X200083669Y-85178932D01*
X200044086Y-85094045D01*
X200038606Y-85084555D01*
X200009729Y-85043313D01*
X199999253Y-85034939D01*
X199985806Y-85042007D01*
X199320161Y-85707651D01*
X199312548Y-85721594D01*
X199312679Y-85723428D01*
X199316930Y-85730042D01*
X199986531Y-86399642D01*
X199998301Y-86406069D01*
X200010316Y-86396773D01*
X200038606Y-86356369D01*
X200044086Y-86346879D01*
X200083669Y-86261992D01*
X200130586Y-86208707D01*
X200198864Y-86189246D01*
X200266824Y-86209788D01*
X200312059Y-86261992D01*
X200351758Y-86347128D01*
X200351761Y-86347133D01*
X200354084Y-86352115D01*
X200357240Y-86356622D01*
X200357241Y-86356624D01*
X200465316Y-86510970D01*
X200480391Y-86532500D01*
X200636102Y-86688211D01*
X200816486Y-86814518D01*
X201016064Y-86907582D01*
X201228769Y-86964577D01*
X201448140Y-86983769D01*
X201453615Y-86983290D01*
X201453616Y-86983290D01*
X201564901Y-86973554D01*
X201634505Y-86987543D01*
X201664977Y-87009980D01*
X209530308Y-94875311D01*
X209542694Y-94889723D01*
X209551227Y-94901318D01*
X209551232Y-94901323D01*
X209555570Y-94907218D01*
X209561148Y-94911957D01*
X209561151Y-94911960D01*
X209595846Y-94941435D01*
X209603362Y-94948365D01*
X209609057Y-94954060D01*
X209611939Y-94956340D01*
X209631329Y-94971681D01*
X209634733Y-94974472D01*
X209684781Y-95016991D01*
X209690363Y-95021733D01*
X209696879Y-95025061D01*
X209701928Y-95028428D01*
X209707057Y-95031595D01*
X209712794Y-95036134D01*
X209778953Y-95067055D01*
X209782847Y-95068958D01*
X209847886Y-95102169D01*
X209854994Y-95103908D01*
X209860637Y-95106007D01*
X209866400Y-95107924D01*
X209873028Y-95111022D01*
X209880190Y-95112512D01*
X209880191Y-95112512D01*
X209944490Y-95125886D01*
X209948774Y-95126856D01*
X210019688Y-95144208D01*
X210025290Y-95144556D01*
X210025293Y-95144556D01*
X210030842Y-95144900D01*
X210030840Y-95144936D01*
X210034833Y-95145175D01*
X210039025Y-95145549D01*
X210046193Y-95147040D01*
X210123598Y-95144946D01*
X210127006Y-95144900D01*
X236800491Y-95144900D01*
X236868612Y-95164902D01*
X236897402Y-95191995D01*
X236897987Y-95191488D01*
X237044250Y-95360338D01*
X237216126Y-95503032D01*
X237289955Y-95546174D01*
X237338679Y-95597812D01*
X237351750Y-95667595D01*
X237325019Y-95733367D01*
X237284562Y-95766727D01*
X237276457Y-95770946D01*
X237267738Y-95776436D01*
X237097433Y-95904305D01*
X237089726Y-95911148D01*
X236942590Y-96065117D01*
X236936104Y-96073127D01*
X236816098Y-96249049D01*
X236811000Y-96258023D01*
X236721338Y-96451183D01*
X236717775Y-96460870D01*
X236662389Y-96660583D01*
X236663912Y-96669007D01*
X236676292Y-96672400D01*
X238126000Y-96672400D01*
X238194121Y-96692402D01*
X238240614Y-96746058D01*
X238252000Y-96798400D01*
X238252000Y-98244917D01*
X238256064Y-98258759D01*
X238269478Y-98260793D01*
X238276184Y-98259934D01*
X238286262Y-98257792D01*
X238376803Y-98230628D01*
X238447799Y-98230211D01*
X238507749Y-98268244D01*
X238537621Y-98332650D01*
X238539011Y-98351314D01*
X238539011Y-101788318D01*
X238519009Y-101856439D01*
X238502106Y-101877413D01*
X235002924Y-105376595D01*
X234940612Y-105410621D01*
X234913829Y-105413500D01*
X205066094Y-105413500D01*
X205047144Y-105412067D01*
X205032909Y-105409901D01*
X205032905Y-105409901D01*
X205025675Y-105408801D01*
X205018383Y-105409394D01*
X205018380Y-105409394D01*
X204973006Y-105413085D01*
X204962791Y-105413500D01*
X204954731Y-105413500D01*
X204951097Y-105413924D01*
X204951091Y-105413924D01*
X204938066Y-105415443D01*
X204926504Y-105416791D01*
X204922156Y-105417221D01*
X204900083Y-105419016D01*
X204856686Y-105422546D01*
X204856683Y-105422547D01*
X204849388Y-105423140D01*
X204842424Y-105425396D01*
X204836485Y-105426583D01*
X204830614Y-105427970D01*
X204823343Y-105428818D01*
X204816467Y-105431314D01*
X204816458Y-105431316D01*
X204754726Y-105453725D01*
X204750622Y-105455135D01*
X204681125Y-105477648D01*
X204674870Y-105481444D01*
X204669411Y-105483943D01*
X204663963Y-105486671D01*
X204657087Y-105489167D01*
X204596034Y-105529195D01*
X204592361Y-105531513D01*
X204529917Y-105569405D01*
X204521541Y-105576802D01*
X204521517Y-105576775D01*
X204518523Y-105579430D01*
X204515292Y-105582132D01*
X204509172Y-105586144D01*
X204504140Y-105591456D01*
X204455896Y-105642383D01*
X204453518Y-105644825D01*
X201671753Y-108426590D01*
X201609441Y-108460616D01*
X201571677Y-108463016D01*
X201460392Y-108453280D01*
X201460391Y-108453280D01*
X201454916Y-108452801D01*
X201235545Y-108471993D01*
X201022840Y-108528988D01*
X200929478Y-108572523D01*
X200828250Y-108619726D01*
X200828245Y-108619729D01*
X200823263Y-108622052D01*
X200818756Y-108625208D01*
X200818754Y-108625209D01*
X200647389Y-108745200D01*
X200647386Y-108745202D01*
X200642878Y-108748359D01*
X200487167Y-108904070D01*
X200484010Y-108908578D01*
X200484008Y-108908581D01*
X200392130Y-109039797D01*
X200360860Y-109084455D01*
X200358537Y-109089437D01*
X200358534Y-109089442D01*
X200318835Y-109174578D01*
X200271918Y-109227863D01*
X200203640Y-109247324D01*
X200135681Y-109226782D01*
X200090445Y-109174578D01*
X200050862Y-109089691D01*
X200045382Y-109080201D01*
X200016505Y-109038959D01*
X200006029Y-109030585D01*
X199992582Y-109037653D01*
X199326937Y-109703297D01*
X199319324Y-109717240D01*
X199319455Y-109719074D01*
X199323706Y-109725688D01*
X199993307Y-110395288D01*
X200005077Y-110401715D01*
X200017092Y-110392419D01*
X200045382Y-110352015D01*
X200050862Y-110342525D01*
X200090445Y-110257638D01*
X200137362Y-110204353D01*
X200205640Y-110184892D01*
X200273600Y-110205434D01*
X200318835Y-110257638D01*
X200358534Y-110342774D01*
X200358537Y-110342779D01*
X200360860Y-110347761D01*
X200364016Y-110352268D01*
X200364017Y-110352270D01*
X200441910Y-110463512D01*
X200487167Y-110528146D01*
X200642878Y-110683857D01*
X200647387Y-110687014D01*
X200647389Y-110687016D01*
X200726920Y-110742704D01*
X200771248Y-110798161D01*
X200778557Y-110868781D01*
X200746526Y-110932141D01*
X200685325Y-110968126D01*
X200654649Y-110971917D01*
X199738841Y-110971917D01*
X199670720Y-110951915D01*
X199624227Y-110898259D01*
X199614123Y-110827985D01*
X199640419Y-110767247D01*
X199640440Y-110767221D01*
X199633373Y-110753776D01*
X198967727Y-110088129D01*
X198953784Y-110080516D01*
X198951950Y-110080647D01*
X198945336Y-110084898D01*
X198275736Y-110754499D01*
X198269309Y-110766269D01*
X198271280Y-110768816D01*
X198297143Y-110834934D01*
X198283155Y-110904539D01*
X198233756Y-110955532D01*
X198171623Y-110971917D01*
X192927243Y-110971917D01*
X192907855Y-110970416D01*
X192893029Y-110968107D01*
X192893022Y-110968107D01*
X192884154Y-110966726D01*
X192875250Y-110967890D01*
X192875249Y-110967890D01*
X192868900Y-110968720D01*
X192843577Y-110969463D01*
X192674601Y-110957376D01*
X192656810Y-110954817D01*
X192466478Y-110913411D01*
X192449235Y-110908348D01*
X192266730Y-110840274D01*
X192250380Y-110832807D01*
X192241550Y-110827985D01*
X192079429Y-110739459D01*
X192064306Y-110729741D01*
X192019328Y-110696070D01*
X191908370Y-110613007D01*
X191894785Y-110601235D01*
X191757056Y-110463504D01*
X191745284Y-110449918D01*
X191628558Y-110293991D01*
X191618839Y-110278867D01*
X191525487Y-110107906D01*
X191518021Y-110091559D01*
X191449951Y-109909057D01*
X191444887Y-109891810D01*
X191411420Y-109737973D01*
X191407854Y-109721583D01*
X197692590Y-109721583D01*
X197710817Y-109929912D01*
X197712720Y-109940707D01*
X197766844Y-110142703D01*
X197770590Y-110152995D01*
X197858970Y-110342525D01*
X197864450Y-110352015D01*
X197893327Y-110393257D01*
X197903803Y-110401631D01*
X197917250Y-110394563D01*
X198582895Y-109728919D01*
X198590508Y-109714976D01*
X198590377Y-109713142D01*
X198586126Y-109706528D01*
X197916525Y-109036928D01*
X197904755Y-109030501D01*
X197892740Y-109039797D01*
X197864450Y-109080201D01*
X197858970Y-109089691D01*
X197770590Y-109279221D01*
X197766844Y-109289513D01*
X197712720Y-109491509D01*
X197710817Y-109502304D01*
X197692590Y-109710633D01*
X197692590Y-109721583D01*
X191407854Y-109721583D01*
X191403481Y-109701479D01*
X191400923Y-109683689D01*
X191393010Y-109573059D01*
X191389340Y-109521749D01*
X191390076Y-109504056D01*
X191390179Y-109495563D01*
X191391561Y-109486689D01*
X191387434Y-109455130D01*
X191386370Y-109438792D01*
X191386370Y-108664995D01*
X198269393Y-108664995D01*
X198276461Y-108678442D01*
X198942105Y-109344087D01*
X198956048Y-109351700D01*
X198957882Y-109351569D01*
X198964496Y-109347318D01*
X199634096Y-108677717D01*
X199640523Y-108665947D01*
X199631229Y-108653933D01*
X199590828Y-108625644D01*
X199581332Y-108620161D01*
X199391803Y-108531782D01*
X199381511Y-108528036D01*
X199179515Y-108473912D01*
X199168720Y-108472009D01*
X198960391Y-108453782D01*
X198949441Y-108453782D01*
X198741112Y-108472009D01*
X198730317Y-108473912D01*
X198528321Y-108528036D01*
X198518029Y-108531782D01*
X198328499Y-108620162D01*
X198319009Y-108625642D01*
X198277767Y-108654519D01*
X198269393Y-108664995D01*
X191386370Y-108664995D01*
X191386370Y-102194166D01*
X194609646Y-102194166D01*
X194626054Y-102478729D01*
X194626879Y-102482934D01*
X194626880Y-102482942D01*
X194639777Y-102548676D01*
X194680930Y-102758434D01*
X194682317Y-102762484D01*
X194682318Y-102762489D01*
X194771869Y-103024046D01*
X194773258Y-103028102D01*
X194901330Y-103282746D01*
X195062776Y-103517652D01*
X195065663Y-103520825D01*
X195065664Y-103520826D01*
X195134610Y-103596597D01*
X195254610Y-103728474D01*
X195257899Y-103731224D01*
X195469988Y-103908558D01*
X195469993Y-103908562D01*
X195473280Y-103911310D01*
X195548051Y-103958214D01*
X195711100Y-104060495D01*
X195711104Y-104060497D01*
X195714740Y-104062778D01*
X195844631Y-104121426D01*
X195970611Y-104178309D01*
X195970615Y-104178311D01*
X195974523Y-104180075D01*
X195978643Y-104181295D01*
X195978642Y-104181295D01*
X196243709Y-104259811D01*
X196243713Y-104259812D01*
X196247822Y-104261029D01*
X196252056Y-104261677D01*
X196252061Y-104261678D01*
X196500501Y-104299694D01*
X196529579Y-104304144D01*
X196674702Y-104306424D01*
X196810289Y-104308554D01*
X196810295Y-104308554D01*
X196814580Y-104308621D01*
X197097552Y-104274378D01*
X197373259Y-104202048D01*
X197377219Y-104200408D01*
X197377224Y-104200406D01*
X197504929Y-104147508D01*
X197636598Y-104092969D01*
X197882697Y-103949160D01*
X198107002Y-103773283D01*
X198305363Y-103568590D01*
X198307896Y-103565142D01*
X198307900Y-103565137D01*
X198471570Y-103342326D01*
X198474108Y-103338871D01*
X198610116Y-103088377D01*
X198670920Y-102927464D01*
X198709351Y-102825759D01*
X198709352Y-102825755D01*
X198710869Y-102821741D01*
X198771471Y-102557136D01*
X198773545Y-102548082D01*
X198773546Y-102548078D01*
X198774503Y-102543898D01*
X198799841Y-102259990D01*
X198800301Y-102216108D01*
X198798805Y-102194166D01*
X204109646Y-102194166D01*
X204126054Y-102478729D01*
X204126879Y-102482934D01*
X204126880Y-102482942D01*
X204139777Y-102548676D01*
X204180930Y-102758434D01*
X204182317Y-102762484D01*
X204182318Y-102762489D01*
X204271869Y-103024046D01*
X204273258Y-103028102D01*
X204401330Y-103282746D01*
X204562776Y-103517652D01*
X204565663Y-103520825D01*
X204565664Y-103520826D01*
X204634610Y-103596597D01*
X204754610Y-103728474D01*
X204757899Y-103731224D01*
X204969988Y-103908558D01*
X204969993Y-103908562D01*
X204973280Y-103911310D01*
X205048051Y-103958214D01*
X205211100Y-104060495D01*
X205211104Y-104060497D01*
X205214740Y-104062778D01*
X205344631Y-104121426D01*
X205470611Y-104178309D01*
X205470615Y-104178311D01*
X205474523Y-104180075D01*
X205478643Y-104181295D01*
X205478642Y-104181295D01*
X205743709Y-104259811D01*
X205743713Y-104259812D01*
X205747822Y-104261029D01*
X205752056Y-104261677D01*
X205752061Y-104261678D01*
X206000501Y-104299694D01*
X206029579Y-104304144D01*
X206174702Y-104306424D01*
X206310289Y-104308554D01*
X206310295Y-104308554D01*
X206314580Y-104308621D01*
X206597552Y-104274378D01*
X206873259Y-104202048D01*
X206877219Y-104200408D01*
X206877224Y-104200406D01*
X207004929Y-104147508D01*
X207136598Y-104092969D01*
X207382697Y-103949160D01*
X207607002Y-103773283D01*
X207805363Y-103568590D01*
X207807896Y-103565142D01*
X207807900Y-103565137D01*
X207971570Y-103342326D01*
X207974108Y-103338871D01*
X208110116Y-103088377D01*
X208170920Y-102927464D01*
X208209351Y-102825759D01*
X208209352Y-102825755D01*
X208210869Y-102821741D01*
X208271471Y-102557136D01*
X208273545Y-102548082D01*
X208273546Y-102548078D01*
X208274503Y-102543898D01*
X208299841Y-102259990D01*
X208300301Y-102216108D01*
X208299422Y-102203220D01*
X222976342Y-102203220D01*
X222992750Y-102487783D01*
X222993575Y-102491988D01*
X222993576Y-102491996D01*
X223019819Y-102625753D01*
X223047626Y-102767488D01*
X223049013Y-102771538D01*
X223049014Y-102771543D01*
X223138565Y-103033100D01*
X223139954Y-103037156D01*
X223141881Y-103040987D01*
X223261546Y-103278915D01*
X223268026Y-103291800D01*
X223304010Y-103344157D01*
X223425431Y-103520826D01*
X223429472Y-103526706D01*
X223621306Y-103737528D01*
X223624595Y-103740278D01*
X223836684Y-103917612D01*
X223836689Y-103917616D01*
X223839976Y-103920364D01*
X223896091Y-103955565D01*
X224077796Y-104069549D01*
X224077800Y-104069551D01*
X224081436Y-104071832D01*
X224151938Y-104103665D01*
X224337307Y-104187363D01*
X224337311Y-104187365D01*
X224341219Y-104189129D01*
X224345339Y-104190349D01*
X224345338Y-104190349D01*
X224610405Y-104268865D01*
X224610409Y-104268866D01*
X224614518Y-104270083D01*
X224618752Y-104270731D01*
X224618757Y-104270732D01*
X224837107Y-104304144D01*
X224896275Y-104313198D01*
X225041398Y-104315478D01*
X225176985Y-104317608D01*
X225176991Y-104317608D01*
X225181276Y-104317675D01*
X225464248Y-104283432D01*
X225739955Y-104211102D01*
X225743915Y-104209462D01*
X225743920Y-104209460D01*
X225871625Y-104156562D01*
X226003294Y-104102023D01*
X226249393Y-103958214D01*
X226473698Y-103782337D01*
X226672059Y-103577644D01*
X226674592Y-103574196D01*
X226674596Y-103574191D01*
X226838266Y-103351380D01*
X226840804Y-103347925D01*
X226976812Y-103097431D01*
X227066173Y-102860944D01*
X227076047Y-102834813D01*
X227076048Y-102834809D01*
X227077565Y-102830795D01*
X227116749Y-102659709D01*
X227140241Y-102557136D01*
X227140242Y-102557132D01*
X227141199Y-102552952D01*
X227147448Y-102482942D01*
X227166317Y-102271510D01*
X227166317Y-102271508D01*
X227166537Y-102269044D01*
X227166997Y-102225162D01*
X227165501Y-102203220D01*
X232476342Y-102203220D01*
X232492750Y-102487783D01*
X232493575Y-102491988D01*
X232493576Y-102491996D01*
X232519819Y-102625753D01*
X232547626Y-102767488D01*
X232549013Y-102771538D01*
X232549014Y-102771543D01*
X232638565Y-103033100D01*
X232639954Y-103037156D01*
X232641881Y-103040987D01*
X232761546Y-103278915D01*
X232768026Y-103291800D01*
X232804010Y-103344157D01*
X232925431Y-103520826D01*
X232929472Y-103526706D01*
X233121306Y-103737528D01*
X233124595Y-103740278D01*
X233336684Y-103917612D01*
X233336689Y-103917616D01*
X233339976Y-103920364D01*
X233396091Y-103955565D01*
X233577796Y-104069549D01*
X233577800Y-104069551D01*
X233581436Y-104071832D01*
X233651938Y-104103665D01*
X233837307Y-104187363D01*
X233837311Y-104187365D01*
X233841219Y-104189129D01*
X233845339Y-104190349D01*
X233845338Y-104190349D01*
X234110405Y-104268865D01*
X234110409Y-104268866D01*
X234114518Y-104270083D01*
X234118752Y-104270731D01*
X234118757Y-104270732D01*
X234337107Y-104304144D01*
X234396275Y-104313198D01*
X234541398Y-104315478D01*
X234676985Y-104317608D01*
X234676991Y-104317608D01*
X234681276Y-104317675D01*
X234964248Y-104283432D01*
X235239955Y-104211102D01*
X235243915Y-104209462D01*
X235243920Y-104209460D01*
X235371625Y-104156562D01*
X235503294Y-104102023D01*
X235749393Y-103958214D01*
X235973698Y-103782337D01*
X236172059Y-103577644D01*
X236174592Y-103574196D01*
X236174596Y-103574191D01*
X236338266Y-103351380D01*
X236340804Y-103347925D01*
X236476812Y-103097431D01*
X236566173Y-102860944D01*
X236576047Y-102834813D01*
X236576048Y-102834809D01*
X236577565Y-102830795D01*
X236616749Y-102659709D01*
X236640241Y-102557136D01*
X236640242Y-102557132D01*
X236641199Y-102552952D01*
X236647448Y-102482942D01*
X236666317Y-102271510D01*
X236666317Y-102271508D01*
X236666537Y-102269044D01*
X236666997Y-102225162D01*
X236647610Y-101940786D01*
X236643996Y-101923332D01*
X236590677Y-101665868D01*
X236589808Y-101661671D01*
X236494661Y-101392984D01*
X236363929Y-101139696D01*
X236200032Y-100906493D01*
X236194886Y-100900955D01*
X236008923Y-100700835D01*
X236008920Y-100700832D01*
X236006002Y-100697692D01*
X235785429Y-100517155D01*
X235735578Y-100486606D01*
X235546046Y-100370460D01*
X235546038Y-100370456D01*
X235542396Y-100368224D01*
X235538479Y-100366505D01*
X235538476Y-100366503D01*
X235422982Y-100315805D01*
X235281398Y-100253655D01*
X235277270Y-100252479D01*
X235277267Y-100252478D01*
X235011397Y-100176742D01*
X235011390Y-100176741D01*
X235007267Y-100175566D01*
X235003025Y-100174962D01*
X235003019Y-100174961D01*
X234729325Y-100136009D01*
X234725074Y-100135404D01*
X234575534Y-100134621D01*
X234444329Y-100133934D01*
X234444323Y-100133934D01*
X234440042Y-100133912D01*
X234435798Y-100134471D01*
X234435794Y-100134471D01*
X234311984Y-100150771D01*
X234157444Y-100171116D01*
X234153304Y-100172249D01*
X234153302Y-100172249D01*
X233909446Y-100238961D01*
X233882510Y-100246330D01*
X233620327Y-100358160D01*
X233616646Y-100360363D01*
X233379429Y-100502334D01*
X233379425Y-100502337D01*
X233375747Y-100504538D01*
X233153296Y-100682755D01*
X232957090Y-100889513D01*
X232954591Y-100892991D01*
X232954590Y-100892992D01*
X232793268Y-101117496D01*
X232793265Y-101117501D01*
X232790760Y-101120987D01*
X232657383Y-101372892D01*
X232559427Y-101640568D01*
X232498706Y-101919062D01*
X232476342Y-102203220D01*
X227165501Y-102203220D01*
X227147610Y-101940786D01*
X227143996Y-101923332D01*
X227090677Y-101665868D01*
X227089808Y-101661671D01*
X226994661Y-101392984D01*
X226863929Y-101139696D01*
X226700032Y-100906493D01*
X226694886Y-100900955D01*
X226508923Y-100700835D01*
X226508920Y-100700832D01*
X226506002Y-100697692D01*
X226285429Y-100517155D01*
X226235578Y-100486606D01*
X226046046Y-100370460D01*
X226046038Y-100370456D01*
X226042396Y-100368224D01*
X226038479Y-100366505D01*
X226038476Y-100366503D01*
X225922982Y-100315805D01*
X225781398Y-100253655D01*
X225777270Y-100252479D01*
X225777267Y-100252478D01*
X225511397Y-100176742D01*
X225511390Y-100176741D01*
X225507267Y-100175566D01*
X225503025Y-100174962D01*
X225503019Y-100174961D01*
X225229325Y-100136009D01*
X225225074Y-100135404D01*
X225075534Y-100134621D01*
X224944329Y-100133934D01*
X224944323Y-100133934D01*
X224940042Y-100133912D01*
X224935798Y-100134471D01*
X224935794Y-100134471D01*
X224811984Y-100150771D01*
X224657444Y-100171116D01*
X224653304Y-100172249D01*
X224653302Y-100172249D01*
X224409446Y-100238961D01*
X224382510Y-100246330D01*
X224120327Y-100358160D01*
X224116646Y-100360363D01*
X223879429Y-100502334D01*
X223879425Y-100502337D01*
X223875747Y-100504538D01*
X223653296Y-100682755D01*
X223457090Y-100889513D01*
X223454591Y-100892991D01*
X223454590Y-100892992D01*
X223293268Y-101117496D01*
X223293265Y-101117501D01*
X223290760Y-101120987D01*
X223157383Y-101372892D01*
X223059427Y-101640568D01*
X222998706Y-101919062D01*
X222976342Y-102203220D01*
X208299422Y-102203220D01*
X208281823Y-101945063D01*
X208281206Y-101936009D01*
X208281205Y-101936003D01*
X208280914Y-101931732D01*
X208279175Y-101923332D01*
X208223981Y-101656814D01*
X208223112Y-101652617D01*
X208127965Y-101383930D01*
X207997233Y-101130642D01*
X207833336Y-100897439D01*
X207820790Y-100883938D01*
X207642227Y-100691781D01*
X207642224Y-100691778D01*
X207639306Y-100688638D01*
X207418733Y-100508101D01*
X207368882Y-100477552D01*
X207179350Y-100361406D01*
X207179342Y-100361402D01*
X207175700Y-100359170D01*
X207171783Y-100357451D01*
X207171780Y-100357449D01*
X206939257Y-100255380D01*
X206914702Y-100244601D01*
X206910574Y-100243425D01*
X206910571Y-100243424D01*
X206644701Y-100167688D01*
X206644694Y-100167687D01*
X206640571Y-100166512D01*
X206636329Y-100165908D01*
X206636323Y-100165907D01*
X206362629Y-100126955D01*
X206358378Y-100126350D01*
X206208838Y-100125567D01*
X206077633Y-100124880D01*
X206077627Y-100124880D01*
X206073346Y-100124858D01*
X206069102Y-100125417D01*
X206069098Y-100125417D01*
X205945288Y-100141717D01*
X205790748Y-100162062D01*
X205786608Y-100163195D01*
X205786606Y-100163195D01*
X205741386Y-100175566D01*
X205515814Y-100237276D01*
X205253631Y-100349106D01*
X205249950Y-100351309D01*
X205012733Y-100493280D01*
X205012729Y-100493283D01*
X205009051Y-100495484D01*
X204786600Y-100673701D01*
X204590394Y-100880459D01*
X204587895Y-100883937D01*
X204587894Y-100883938D01*
X204426572Y-101108442D01*
X204426569Y-101108447D01*
X204424064Y-101111933D01*
X204290687Y-101363838D01*
X204192731Y-101631514D01*
X204132010Y-101910008D01*
X204109646Y-102194166D01*
X198798805Y-102194166D01*
X198781823Y-101945063D01*
X198781206Y-101936009D01*
X198781205Y-101936003D01*
X198780914Y-101931732D01*
X198779175Y-101923332D01*
X198723981Y-101656814D01*
X198723112Y-101652617D01*
X198627965Y-101383930D01*
X198497233Y-101130642D01*
X198333336Y-100897439D01*
X198320790Y-100883938D01*
X198142227Y-100691781D01*
X198142224Y-100691778D01*
X198139306Y-100688638D01*
X197918733Y-100508101D01*
X197868882Y-100477552D01*
X197679350Y-100361406D01*
X197679342Y-100361402D01*
X197675700Y-100359170D01*
X197671783Y-100357451D01*
X197671780Y-100357449D01*
X197439257Y-100255380D01*
X197414702Y-100244601D01*
X197410574Y-100243425D01*
X197410571Y-100243424D01*
X197144701Y-100167688D01*
X197144694Y-100167687D01*
X197140571Y-100166512D01*
X197136329Y-100165908D01*
X197136323Y-100165907D01*
X196862629Y-100126955D01*
X196858378Y-100126350D01*
X196708838Y-100125567D01*
X196577633Y-100124880D01*
X196577627Y-100124880D01*
X196573346Y-100124858D01*
X196569102Y-100125417D01*
X196569098Y-100125417D01*
X196445288Y-100141717D01*
X196290748Y-100162062D01*
X196286608Y-100163195D01*
X196286606Y-100163195D01*
X196241386Y-100175566D01*
X196015814Y-100237276D01*
X195753631Y-100349106D01*
X195749950Y-100351309D01*
X195512733Y-100493280D01*
X195512729Y-100493283D01*
X195509051Y-100495484D01*
X195286600Y-100673701D01*
X195090394Y-100880459D01*
X195087895Y-100883937D01*
X195087894Y-100883938D01*
X194926572Y-101108442D01*
X194926569Y-101108447D01*
X194924064Y-101111933D01*
X194790687Y-101363838D01*
X194692731Y-101631514D01*
X194632010Y-101910008D01*
X194609646Y-102194166D01*
X191386370Y-102194166D01*
X191386370Y-97194366D01*
X236666257Y-97194366D01*
X236696565Y-97328846D01*
X236699645Y-97338675D01*
X236779770Y-97536003D01*
X236784413Y-97545194D01*
X236895694Y-97726788D01*
X236901777Y-97735099D01*
X237041213Y-97896067D01*
X237048580Y-97903283D01*
X237212434Y-98039316D01*
X237220881Y-98045231D01*
X237404756Y-98152679D01*
X237414042Y-98157129D01*
X237613001Y-98233103D01*
X237622899Y-98235979D01*
X237726250Y-98257006D01*
X237740299Y-98255810D01*
X237744000Y-98245465D01*
X237744000Y-97198515D01*
X237739525Y-97183276D01*
X237738135Y-97182071D01*
X237730452Y-97180400D01*
X236681225Y-97180400D01*
X236667694Y-97184373D01*
X236666257Y-97194366D01*
X191386370Y-97194366D01*
X191386370Y-89298025D01*
X192308896Y-89298025D01*
X192328761Y-89550428D01*
X192329915Y-89555235D01*
X192329916Y-89555241D01*
X192343862Y-89613328D01*
X192387865Y-89796616D01*
X192389758Y-89801187D01*
X192389759Y-89801189D01*
X192450929Y-89948865D01*
X192484754Y-90030527D01*
X192617042Y-90246401D01*
X192781472Y-90438923D01*
X192973994Y-90603353D01*
X193189868Y-90735641D01*
X193194438Y-90737534D01*
X193194442Y-90737536D01*
X193419206Y-90830636D01*
X193423779Y-90832530D01*
X193508402Y-90852846D01*
X193665154Y-90890479D01*
X193665160Y-90890480D01*
X193669967Y-90891634D01*
X193769786Y-90899490D01*
X193856715Y-90906332D01*
X193856722Y-90906332D01*
X193859171Y-90906525D01*
X193985569Y-90906525D01*
X193988018Y-90906332D01*
X193988025Y-90906332D01*
X194074954Y-90899490D01*
X194174773Y-90891634D01*
X194179580Y-90890480D01*
X194179586Y-90890479D01*
X194336338Y-90852846D01*
X194420961Y-90832530D01*
X194425534Y-90830636D01*
X194650298Y-90737536D01*
X194650302Y-90737534D01*
X194654872Y-90735641D01*
X194870746Y-90603353D01*
X195063268Y-90438923D01*
X195227698Y-90246401D01*
X195359986Y-90030527D01*
X195393812Y-89948865D01*
X195454981Y-89801189D01*
X195454982Y-89801187D01*
X195456875Y-89796616D01*
X195500878Y-89613328D01*
X195514824Y-89555241D01*
X195514825Y-89555235D01*
X195515979Y-89550428D01*
X195535844Y-89298025D01*
X195515979Y-89045622D01*
X195456875Y-88799434D01*
X195402015Y-88666990D01*
X195361881Y-88570097D01*
X195361879Y-88570093D01*
X195359986Y-88565523D01*
X195227698Y-88349649D01*
X195063268Y-88157127D01*
X194870746Y-87992697D01*
X194654872Y-87860409D01*
X194650302Y-87858516D01*
X194650298Y-87858514D01*
X194425534Y-87765414D01*
X194425532Y-87765413D01*
X194420961Y-87763520D01*
X194324400Y-87740338D01*
X194179586Y-87705571D01*
X194179580Y-87705570D01*
X194174773Y-87704416D01*
X194074954Y-87696560D01*
X193988025Y-87689718D01*
X193988018Y-87689718D01*
X193985569Y-87689525D01*
X193859171Y-87689525D01*
X193856722Y-87689718D01*
X193856715Y-87689718D01*
X193769786Y-87696560D01*
X193669967Y-87704416D01*
X193665160Y-87705570D01*
X193665154Y-87705571D01*
X193520340Y-87740338D01*
X193423779Y-87763520D01*
X193419208Y-87765413D01*
X193419206Y-87765414D01*
X193194442Y-87858514D01*
X193194438Y-87858516D01*
X193189868Y-87860409D01*
X192973994Y-87992697D01*
X192781472Y-88157127D01*
X192617042Y-88349649D01*
X192484754Y-88565523D01*
X192482861Y-88570093D01*
X192482859Y-88570097D01*
X192442725Y-88666990D01*
X192387865Y-88799434D01*
X192328761Y-89045622D01*
X192308896Y-89298025D01*
X191386370Y-89298025D01*
X191386370Y-86770623D01*
X198262533Y-86770623D01*
X198271827Y-86782637D01*
X198312228Y-86810926D01*
X198321724Y-86816409D01*
X198511253Y-86904788D01*
X198521545Y-86908534D01*
X198723541Y-86962658D01*
X198734336Y-86964561D01*
X198942665Y-86982788D01*
X198953615Y-86982788D01*
X199161944Y-86964561D01*
X199172739Y-86962658D01*
X199374735Y-86908534D01*
X199385027Y-86904788D01*
X199574556Y-86816409D01*
X199584052Y-86810926D01*
X199625288Y-86782052D01*
X199633663Y-86771574D01*
X199626597Y-86758130D01*
X198960951Y-86092483D01*
X198947008Y-86084870D01*
X198945174Y-86085001D01*
X198938560Y-86089252D01*
X198268960Y-86758853D01*
X198262533Y-86770623D01*
X191386370Y-86770623D01*
X191386370Y-85725937D01*
X197685814Y-85725937D01*
X197704041Y-85934266D01*
X197705944Y-85945061D01*
X197760068Y-86147057D01*
X197763814Y-86157349D01*
X197852194Y-86346879D01*
X197857674Y-86356369D01*
X197886551Y-86397611D01*
X197897027Y-86405985D01*
X197910474Y-86398917D01*
X198576119Y-85733273D01*
X198583732Y-85719330D01*
X198583601Y-85717496D01*
X198579350Y-85710882D01*
X197909749Y-85041282D01*
X197897979Y-85034855D01*
X197885964Y-85044151D01*
X197857674Y-85084555D01*
X197852194Y-85094045D01*
X197763814Y-85283575D01*
X197760068Y-85293867D01*
X197705944Y-85495863D01*
X197704041Y-85506658D01*
X197685814Y-85714987D01*
X197685814Y-85725937D01*
X191386370Y-85725937D01*
X191386370Y-84669349D01*
X198262617Y-84669349D01*
X198269685Y-84682796D01*
X198935329Y-85348441D01*
X198949272Y-85356054D01*
X198951106Y-85355923D01*
X198957720Y-85351672D01*
X199627320Y-84682071D01*
X199633747Y-84670301D01*
X199624453Y-84658287D01*
X199584052Y-84629998D01*
X199574556Y-84624515D01*
X199385027Y-84536136D01*
X199374735Y-84532390D01*
X199172739Y-84478266D01*
X199161944Y-84476363D01*
X198953615Y-84458136D01*
X198942665Y-84458136D01*
X198734336Y-84476363D01*
X198723541Y-84478266D01*
X198521545Y-84532390D01*
X198511253Y-84536136D01*
X198321723Y-84624516D01*
X198312233Y-84629996D01*
X198270991Y-84658873D01*
X198262617Y-84669349D01*
X191386370Y-84669349D01*
X191386370Y-78198520D01*
X194602870Y-78198520D01*
X194619278Y-78483083D01*
X194620103Y-78487288D01*
X194620104Y-78487296D01*
X194633383Y-78554979D01*
X194674154Y-78762788D01*
X194675541Y-78766838D01*
X194675542Y-78766843D01*
X194698075Y-78832656D01*
X194766482Y-79032456D01*
X194894554Y-79287100D01*
X195056000Y-79522006D01*
X195247834Y-79732828D01*
X195251123Y-79735578D01*
X195463212Y-79912912D01*
X195463217Y-79912916D01*
X195466504Y-79915664D01*
X195587234Y-79991398D01*
X195704324Y-80064849D01*
X195704328Y-80064851D01*
X195707964Y-80067132D01*
X195784098Y-80101508D01*
X195963835Y-80182663D01*
X195963839Y-80182665D01*
X195967747Y-80184429D01*
X195971867Y-80185649D01*
X195971866Y-80185649D01*
X196236933Y-80264165D01*
X196236937Y-80264166D01*
X196241046Y-80265383D01*
X196245280Y-80266031D01*
X196245285Y-80266032D01*
X196493725Y-80304048D01*
X196522803Y-80308498D01*
X196667926Y-80310778D01*
X196803513Y-80312908D01*
X196803519Y-80312908D01*
X196807804Y-80312975D01*
X197090776Y-80278732D01*
X197366483Y-80206402D01*
X197370443Y-80204762D01*
X197370448Y-80204760D01*
X197498153Y-80151862D01*
X197629822Y-80097323D01*
X197875921Y-79953514D01*
X198100226Y-79777637D01*
X198144260Y-79732198D01*
X198295604Y-79576022D01*
X198298587Y-79572944D01*
X198301120Y-79569496D01*
X198301124Y-79569491D01*
X198464794Y-79346680D01*
X198467332Y-79343225D01*
X198494506Y-79293178D01*
X198506723Y-79270676D01*
X198603340Y-79092731D01*
X198704093Y-78826095D01*
X198729857Y-78713601D01*
X198766769Y-78552436D01*
X198766770Y-78552432D01*
X198767727Y-78548252D01*
X198772941Y-78489839D01*
X198792845Y-78266810D01*
X198792845Y-78266808D01*
X198793065Y-78264344D01*
X198793525Y-78220462D01*
X198792321Y-78202800D01*
X198792029Y-78198520D01*
X204102870Y-78198520D01*
X204119278Y-78483083D01*
X204120103Y-78487288D01*
X204120104Y-78487296D01*
X204133383Y-78554979D01*
X204174154Y-78762788D01*
X204175541Y-78766838D01*
X204175542Y-78766843D01*
X204198075Y-78832656D01*
X204266482Y-79032456D01*
X204394554Y-79287100D01*
X204556000Y-79522006D01*
X204747834Y-79732828D01*
X204751123Y-79735578D01*
X204963212Y-79912912D01*
X204963217Y-79912916D01*
X204966504Y-79915664D01*
X205087234Y-79991398D01*
X205204324Y-80064849D01*
X205204328Y-80064851D01*
X205207964Y-80067132D01*
X205284098Y-80101508D01*
X205463835Y-80182663D01*
X205463839Y-80182665D01*
X205467747Y-80184429D01*
X205471867Y-80185649D01*
X205471866Y-80185649D01*
X205736933Y-80264165D01*
X205736937Y-80264166D01*
X205741046Y-80265383D01*
X205745280Y-80266031D01*
X205745285Y-80266032D01*
X205993725Y-80304048D01*
X206022803Y-80308498D01*
X206167926Y-80310778D01*
X206303513Y-80312908D01*
X206303519Y-80312908D01*
X206307804Y-80312975D01*
X206590776Y-80278732D01*
X206866483Y-80206402D01*
X206870443Y-80204762D01*
X206870448Y-80204760D01*
X206998153Y-80151862D01*
X207129822Y-80097323D01*
X207375921Y-79953514D01*
X207600226Y-79777637D01*
X207644260Y-79732198D01*
X207795604Y-79576022D01*
X207798587Y-79572944D01*
X207801120Y-79569496D01*
X207801124Y-79569491D01*
X207964794Y-79346680D01*
X207967332Y-79343225D01*
X207994506Y-79293178D01*
X208006723Y-79270676D01*
X208103340Y-79092731D01*
X208204093Y-78826095D01*
X208229857Y-78713601D01*
X208266769Y-78552436D01*
X208266770Y-78552432D01*
X208267727Y-78548252D01*
X208272941Y-78489839D01*
X208292845Y-78266810D01*
X208292845Y-78266808D01*
X208293065Y-78264344D01*
X208293525Y-78220462D01*
X208292321Y-78202800D01*
X208292203Y-78201063D01*
X222971113Y-78201063D01*
X222987521Y-78485626D01*
X222988346Y-78489831D01*
X222988347Y-78489839D01*
X223019974Y-78651041D01*
X223042397Y-78765331D01*
X223043784Y-78769381D01*
X223043785Y-78769386D01*
X223133336Y-79030943D01*
X223134725Y-79034999D01*
X223262797Y-79289643D01*
X223303745Y-79349223D01*
X223420066Y-79518471D01*
X223424243Y-79524549D01*
X223616077Y-79735371D01*
X223619366Y-79738121D01*
X223831455Y-79915455D01*
X223831460Y-79915459D01*
X223834747Y-79918207D01*
X223890862Y-79953408D01*
X224072567Y-80067392D01*
X224072571Y-80067394D01*
X224076207Y-80069675D01*
X224146709Y-80101508D01*
X224332078Y-80185206D01*
X224332082Y-80185208D01*
X224335990Y-80186972D01*
X224340110Y-80188192D01*
X224340109Y-80188192D01*
X224605176Y-80266708D01*
X224605180Y-80266709D01*
X224609289Y-80267926D01*
X224613523Y-80268574D01*
X224613528Y-80268575D01*
X224861968Y-80306591D01*
X224891046Y-80311041D01*
X225036169Y-80313321D01*
X225171756Y-80315451D01*
X225171762Y-80315451D01*
X225176047Y-80315518D01*
X225459019Y-80281275D01*
X225734726Y-80208945D01*
X225738686Y-80207305D01*
X225738691Y-80207303D01*
X225866395Y-80154406D01*
X225998065Y-80099866D01*
X226244164Y-79956057D01*
X226468469Y-79780180D01*
X226511692Y-79735578D01*
X226663847Y-79578565D01*
X226666830Y-79575487D01*
X226669363Y-79572039D01*
X226669367Y-79572034D01*
X226833037Y-79349223D01*
X226835575Y-79345768D01*
X226971583Y-79095274D01*
X227072336Y-78828638D01*
X227135970Y-78550795D01*
X227161308Y-78266887D01*
X227161768Y-78223005D01*
X227160272Y-78201063D01*
X232471113Y-78201063D01*
X232487521Y-78485626D01*
X232488346Y-78489831D01*
X232488347Y-78489839D01*
X232519974Y-78651041D01*
X232542397Y-78765331D01*
X232543784Y-78769381D01*
X232543785Y-78769386D01*
X232633336Y-79030943D01*
X232634725Y-79034999D01*
X232762797Y-79289643D01*
X232803745Y-79349223D01*
X232920066Y-79518471D01*
X232924243Y-79524549D01*
X233116077Y-79735371D01*
X233119366Y-79738121D01*
X233331455Y-79915455D01*
X233331460Y-79915459D01*
X233334747Y-79918207D01*
X233390862Y-79953408D01*
X233572567Y-80067392D01*
X233572571Y-80067394D01*
X233576207Y-80069675D01*
X233646709Y-80101508D01*
X233832078Y-80185206D01*
X233832082Y-80185208D01*
X233835990Y-80186972D01*
X233840110Y-80188192D01*
X233840109Y-80188192D01*
X234105176Y-80266708D01*
X234105180Y-80266709D01*
X234109289Y-80267926D01*
X234113523Y-80268574D01*
X234113528Y-80268575D01*
X234361968Y-80306591D01*
X234391046Y-80311041D01*
X234536169Y-80313321D01*
X234671756Y-80315451D01*
X234671762Y-80315451D01*
X234676047Y-80315518D01*
X234959019Y-80281275D01*
X235234726Y-80208945D01*
X235238686Y-80207305D01*
X235238691Y-80207303D01*
X235366395Y-80154406D01*
X235498065Y-80099866D01*
X235744164Y-79956057D01*
X235968469Y-79780180D01*
X236011692Y-79735578D01*
X236163847Y-79578565D01*
X236166830Y-79575487D01*
X236169363Y-79572039D01*
X236169367Y-79572034D01*
X236333037Y-79349223D01*
X236335575Y-79345768D01*
X236471583Y-79095274D01*
X236572336Y-78828638D01*
X236635970Y-78550795D01*
X236661308Y-78266887D01*
X236661768Y-78223005D01*
X236642381Y-77938629D01*
X236638767Y-77921175D01*
X236585448Y-77663711D01*
X236584579Y-77659514D01*
X236489432Y-77390827D01*
X236358700Y-77137539D01*
X236194803Y-76904336D01*
X236179894Y-76888292D01*
X236003694Y-76698678D01*
X236003691Y-76698675D01*
X236000773Y-76695535D01*
X235780200Y-76514998D01*
X235730349Y-76484449D01*
X235540817Y-76368303D01*
X235540809Y-76368299D01*
X235537167Y-76366067D01*
X235533250Y-76364348D01*
X235533247Y-76364346D01*
X235417753Y-76313648D01*
X235276169Y-76251498D01*
X235272041Y-76250322D01*
X235272038Y-76250321D01*
X235006168Y-76174585D01*
X235006161Y-76174584D01*
X235002038Y-76173409D01*
X234997796Y-76172805D01*
X234997790Y-76172804D01*
X234724096Y-76133852D01*
X234719845Y-76133247D01*
X234570305Y-76132464D01*
X234439100Y-76131777D01*
X234439094Y-76131777D01*
X234434813Y-76131755D01*
X234430569Y-76132314D01*
X234430565Y-76132314D01*
X234306755Y-76148614D01*
X234152215Y-76168959D01*
X234148075Y-76170092D01*
X234148073Y-76170092D01*
X233881426Y-76243039D01*
X233877281Y-76244173D01*
X233615098Y-76356003D01*
X233611417Y-76358206D01*
X233374200Y-76500177D01*
X233374196Y-76500180D01*
X233370518Y-76502381D01*
X233148067Y-76680598D01*
X233133323Y-76696135D01*
X232957225Y-76881704D01*
X232951861Y-76887356D01*
X232949362Y-76890834D01*
X232949361Y-76890835D01*
X232788039Y-77115339D01*
X232788036Y-77115344D01*
X232785531Y-77118830D01*
X232652154Y-77370735D01*
X232554198Y-77638411D01*
X232493477Y-77916905D01*
X232471113Y-78201063D01*
X227160272Y-78201063D01*
X227142381Y-77938629D01*
X227138767Y-77921175D01*
X227085448Y-77663711D01*
X227084579Y-77659514D01*
X226989432Y-77390827D01*
X226858700Y-77137539D01*
X226694803Y-76904336D01*
X226679894Y-76888292D01*
X226503694Y-76698678D01*
X226503691Y-76698675D01*
X226500773Y-76695535D01*
X226280200Y-76514998D01*
X226230349Y-76484449D01*
X226040817Y-76368303D01*
X226040809Y-76368299D01*
X226037167Y-76366067D01*
X226033250Y-76364348D01*
X226033247Y-76364346D01*
X225917753Y-76313648D01*
X225776169Y-76251498D01*
X225772041Y-76250322D01*
X225772038Y-76250321D01*
X225506168Y-76174585D01*
X225506161Y-76174584D01*
X225502038Y-76173409D01*
X225497796Y-76172805D01*
X225497790Y-76172804D01*
X225224096Y-76133852D01*
X225219845Y-76133247D01*
X225070305Y-76132464D01*
X224939100Y-76131777D01*
X224939094Y-76131777D01*
X224934813Y-76131755D01*
X224930569Y-76132314D01*
X224930565Y-76132314D01*
X224806755Y-76148614D01*
X224652215Y-76168959D01*
X224648075Y-76170092D01*
X224648073Y-76170092D01*
X224381426Y-76243039D01*
X224377281Y-76244173D01*
X224115098Y-76356003D01*
X224111417Y-76358206D01*
X223874200Y-76500177D01*
X223874196Y-76500180D01*
X223870518Y-76502381D01*
X223648067Y-76680598D01*
X223633323Y-76696135D01*
X223457225Y-76881704D01*
X223451861Y-76887356D01*
X223449362Y-76890834D01*
X223449361Y-76890835D01*
X223288039Y-77115339D01*
X223288036Y-77115344D01*
X223285531Y-77118830D01*
X223152154Y-77370735D01*
X223054198Y-77638411D01*
X222993477Y-77916905D01*
X222971113Y-78201063D01*
X208292203Y-78201063D01*
X208274430Y-77940363D01*
X208274429Y-77940357D01*
X208274138Y-77936086D01*
X208270524Y-77918632D01*
X208217205Y-77661168D01*
X208216336Y-77656971D01*
X208121189Y-77388284D01*
X207990457Y-77134996D01*
X207826560Y-76901793D01*
X207814014Y-76888292D01*
X207635451Y-76696135D01*
X207635448Y-76696132D01*
X207632530Y-76692992D01*
X207411957Y-76512455D01*
X207362106Y-76481906D01*
X207172574Y-76365760D01*
X207172566Y-76365756D01*
X207168924Y-76363524D01*
X207165007Y-76361805D01*
X207165004Y-76361803D01*
X207049510Y-76311105D01*
X206907926Y-76248955D01*
X206903798Y-76247779D01*
X206903795Y-76247778D01*
X206637925Y-76172042D01*
X206637918Y-76172041D01*
X206633795Y-76170866D01*
X206629553Y-76170262D01*
X206629547Y-76170261D01*
X206355853Y-76131309D01*
X206351602Y-76130704D01*
X206202062Y-76129921D01*
X206070857Y-76129234D01*
X206070851Y-76129234D01*
X206066570Y-76129212D01*
X206062326Y-76129771D01*
X206062322Y-76129771D01*
X205938512Y-76146071D01*
X205783972Y-76166416D01*
X205779832Y-76167549D01*
X205779830Y-76167549D01*
X205758410Y-76173409D01*
X205509038Y-76241630D01*
X205246855Y-76353460D01*
X205243174Y-76355663D01*
X205005957Y-76497634D01*
X205005953Y-76497637D01*
X205002275Y-76499838D01*
X204779824Y-76678055D01*
X204583618Y-76884813D01*
X204581119Y-76888291D01*
X204581118Y-76888292D01*
X204419796Y-77112796D01*
X204419793Y-77112801D01*
X204417288Y-77116287D01*
X204283911Y-77368192D01*
X204185955Y-77635868D01*
X204125234Y-77914362D01*
X204102870Y-78198520D01*
X198792029Y-78198520D01*
X198774430Y-77940363D01*
X198774429Y-77940357D01*
X198774138Y-77936086D01*
X198770524Y-77918632D01*
X198717205Y-77661168D01*
X198716336Y-77656971D01*
X198621189Y-77388284D01*
X198490457Y-77134996D01*
X198326560Y-76901793D01*
X198314014Y-76888292D01*
X198135451Y-76696135D01*
X198135448Y-76696132D01*
X198132530Y-76692992D01*
X197911957Y-76512455D01*
X197862106Y-76481906D01*
X197672574Y-76365760D01*
X197672566Y-76365756D01*
X197668924Y-76363524D01*
X197665007Y-76361805D01*
X197665004Y-76361803D01*
X197549510Y-76311105D01*
X197407926Y-76248955D01*
X197403798Y-76247779D01*
X197403795Y-76247778D01*
X197137925Y-76172042D01*
X197137918Y-76172041D01*
X197133795Y-76170866D01*
X197129553Y-76170262D01*
X197129547Y-76170261D01*
X196855853Y-76131309D01*
X196851602Y-76130704D01*
X196702062Y-76129921D01*
X196570857Y-76129234D01*
X196570851Y-76129234D01*
X196566570Y-76129212D01*
X196562326Y-76129771D01*
X196562322Y-76129771D01*
X196438512Y-76146071D01*
X196283972Y-76166416D01*
X196279832Y-76167549D01*
X196279830Y-76167549D01*
X196258410Y-76173409D01*
X196009038Y-76241630D01*
X195746855Y-76353460D01*
X195743174Y-76355663D01*
X195505957Y-76497634D01*
X195505953Y-76497637D01*
X195502275Y-76499838D01*
X195279824Y-76678055D01*
X195083618Y-76884813D01*
X195081119Y-76888291D01*
X195081118Y-76888292D01*
X194919796Y-77112796D01*
X194919793Y-77112801D01*
X194917288Y-77116287D01*
X194783911Y-77368192D01*
X194685955Y-77635868D01*
X194625234Y-77914362D01*
X194602870Y-78198520D01*
X191386370Y-78198520D01*
X191386370Y-74727791D01*
X214372849Y-74727791D01*
X214392804Y-74955878D01*
X214452063Y-75177034D01*
X214454386Y-75182015D01*
X214454386Y-75182016D01*
X214546498Y-75379553D01*
X214546501Y-75379558D01*
X214548824Y-75384540D01*
X214680149Y-75572091D01*
X214842047Y-75733989D01*
X214846555Y-75737146D01*
X214846558Y-75737148D01*
X214924736Y-75791889D01*
X215029598Y-75865314D01*
X215034580Y-75867637D01*
X215034585Y-75867640D01*
X215232122Y-75959752D01*
X215237104Y-75962075D01*
X215242412Y-75963497D01*
X215242414Y-75963498D01*
X215452945Y-76019910D01*
X215452947Y-76019910D01*
X215458260Y-76021334D01*
X215686347Y-76041289D01*
X215914434Y-76021334D01*
X215919747Y-76019910D01*
X215919749Y-76019910D01*
X216130280Y-75963498D01*
X216130282Y-75963497D01*
X216135590Y-75962075D01*
X216140572Y-75959752D01*
X216338109Y-75867640D01*
X216338114Y-75867637D01*
X216343096Y-75865314D01*
X216447958Y-75791889D01*
X216526136Y-75737148D01*
X216526139Y-75737146D01*
X216530647Y-75733989D01*
X216692545Y-75572091D01*
X216823870Y-75384540D01*
X216826193Y-75379558D01*
X216826196Y-75379553D01*
X216918308Y-75182016D01*
X216918308Y-75182015D01*
X216920631Y-75177034D01*
X216979890Y-74955878D01*
X216999845Y-74727791D01*
X216979890Y-74499704D01*
X216920631Y-74278548D01*
X216918308Y-74273566D01*
X216826196Y-74076029D01*
X216826193Y-74076024D01*
X216823870Y-74071042D01*
X216692545Y-73883491D01*
X216530647Y-73721593D01*
X216526139Y-73718436D01*
X216526136Y-73718434D01*
X216447958Y-73663693D01*
X216343096Y-73590268D01*
X216338114Y-73587945D01*
X216338109Y-73587942D01*
X216140572Y-73495830D01*
X216140571Y-73495830D01*
X216135590Y-73493507D01*
X216130282Y-73492085D01*
X216130280Y-73492084D01*
X215919749Y-73435672D01*
X215919747Y-73435672D01*
X215914434Y-73434248D01*
X215686347Y-73414293D01*
X215458260Y-73434248D01*
X215452947Y-73435672D01*
X215452945Y-73435672D01*
X215242414Y-73492084D01*
X215242412Y-73492085D01*
X215237104Y-73493507D01*
X215232123Y-73495830D01*
X215232122Y-73495830D01*
X215034585Y-73587942D01*
X215034580Y-73587945D01*
X215029598Y-73590268D01*
X214924736Y-73663693D01*
X214846558Y-73718434D01*
X214846555Y-73718436D01*
X214842047Y-73721593D01*
X214680149Y-73883491D01*
X214548824Y-74071042D01*
X214546501Y-74076024D01*
X214546498Y-74076029D01*
X214454386Y-74273566D01*
X214452063Y-74278548D01*
X214392804Y-74499704D01*
X214372849Y-74727791D01*
X191386370Y-74727791D01*
X191386370Y-70165568D01*
X191387870Y-70146183D01*
X191390180Y-70131350D01*
X191390180Y-70131346D01*
X191391561Y-70122477D01*
X191389566Y-70107220D01*
X191388823Y-70081896D01*
X191389325Y-70074885D01*
X191400908Y-69912927D01*
X191403466Y-69895133D01*
X191444871Y-69704796D01*
X191449936Y-69687547D01*
X191518006Y-69505043D01*
X191525474Y-69488691D01*
X191618820Y-69317736D01*
X191628540Y-69302611D01*
X191745269Y-69146679D01*
X191757041Y-69133094D01*
X191894772Y-68995360D01*
X191908358Y-68983586D01*
X192064293Y-68866853D01*
X192079416Y-68857134D01*
X192250376Y-68763780D01*
X192266729Y-68756312D01*
X192276454Y-68752685D01*
X192449227Y-68688242D01*
X192466473Y-68683178D01*
X192531059Y-68669127D01*
X192656807Y-68641771D01*
X192674597Y-68639212D01*
X192836350Y-68627641D01*
X192854986Y-68628416D01*
X192862727Y-68628510D01*
X192871602Y-68629892D01*
X192903159Y-68625765D01*
X192919498Y-68624701D01*
X200574451Y-68624700D01*
X210398136Y-68624699D01*
X210419039Y-68626445D01*
X210438833Y-68629775D01*
X210445072Y-68629851D01*
X210446525Y-68629869D01*
X210446528Y-68629869D01*
X210451385Y-68629928D01*
X210456199Y-68629239D01*
X210458479Y-68629090D01*
X210464450Y-68628483D01*
X210750507Y-68611182D01*
X210750513Y-68611181D01*
X210754304Y-68610952D01*
X211052805Y-68556251D01*
X211056438Y-68555119D01*
X211338896Y-68467103D01*
X211338902Y-68467101D01*
X211342537Y-68465968D01*
X211619274Y-68341421D01*
X211878980Y-68184424D01*
X211881970Y-68182082D01*
X211881978Y-68182076D01*
X212114862Y-67999624D01*
X212114864Y-67999622D01*
X212117869Y-67997268D01*
X212332457Y-67782681D01*
X212472812Y-67603533D01*
X212517272Y-67546785D01*
X212517274Y-67546782D01*
X212519615Y-67543794D01*
X212624116Y-67370929D01*
X212674642Y-67287349D01*
X212674644Y-67287345D01*
X212676613Y-67284088D01*
X212801162Y-67007352D01*
X212891447Y-66717621D01*
X212946150Y-66419120D01*
X212962608Y-66147042D01*
X212964123Y-66133755D01*
X212964964Y-66128753D01*
X212965117Y-66116201D01*
X212961161Y-66088577D01*
X212959888Y-66070715D01*
X212959888Y-64567791D01*
X214372849Y-64567791D01*
X214392804Y-64795878D01*
X214452063Y-65017034D01*
X214454386Y-65022015D01*
X214454386Y-65022016D01*
X214546498Y-65219553D01*
X214546501Y-65219558D01*
X214548824Y-65224540D01*
X214680149Y-65412091D01*
X214842047Y-65573989D01*
X214846555Y-65577146D01*
X214846558Y-65577148D01*
X214924736Y-65631889D01*
X215029598Y-65705314D01*
X215034580Y-65707637D01*
X215034585Y-65707640D01*
X215232122Y-65799752D01*
X215237104Y-65802075D01*
X215242412Y-65803497D01*
X215242414Y-65803498D01*
X215452945Y-65859910D01*
X215452947Y-65859910D01*
X215458260Y-65861334D01*
X215686347Y-65881289D01*
X215914434Y-65861334D01*
X215919747Y-65859910D01*
X215919749Y-65859910D01*
X216130280Y-65803498D01*
X216130282Y-65803497D01*
X216135590Y-65802075D01*
X216140572Y-65799752D01*
X216338109Y-65707640D01*
X216338114Y-65707637D01*
X216343096Y-65705314D01*
X216447958Y-65631889D01*
X216526136Y-65577148D01*
X216526139Y-65577146D01*
X216530647Y-65573989D01*
X216692545Y-65412091D01*
X216823870Y-65224540D01*
X216826193Y-65219558D01*
X216826196Y-65219553D01*
X216918308Y-65022016D01*
X216918308Y-65022015D01*
X216920631Y-65017034D01*
X216979890Y-64795878D01*
X216999845Y-64567791D01*
X216979890Y-64339704D01*
X216920631Y-64118548D01*
X216918308Y-64113566D01*
X216826196Y-63916029D01*
X216826193Y-63916024D01*
X216823870Y-63911042D01*
X216692545Y-63723491D01*
X216530647Y-63561593D01*
X216526139Y-63558436D01*
X216526136Y-63558434D01*
X216447958Y-63503693D01*
X216343096Y-63430268D01*
X216338114Y-63427945D01*
X216338109Y-63427942D01*
X216140572Y-63335830D01*
X216140571Y-63335830D01*
X216135590Y-63333507D01*
X216130282Y-63332085D01*
X216130280Y-63332084D01*
X215919749Y-63275672D01*
X215919747Y-63275672D01*
X215914434Y-63274248D01*
X215686347Y-63254293D01*
X215458260Y-63274248D01*
X215452947Y-63275672D01*
X215452945Y-63275672D01*
X215242414Y-63332084D01*
X215242412Y-63332085D01*
X215237104Y-63333507D01*
X215232123Y-63335830D01*
X215232122Y-63335830D01*
X215034585Y-63427942D01*
X215034580Y-63427945D01*
X215029598Y-63430268D01*
X214924736Y-63503693D01*
X214846558Y-63558434D01*
X214846555Y-63558436D01*
X214842047Y-63561593D01*
X214680149Y-63723491D01*
X214548824Y-63911042D01*
X214546501Y-63916024D01*
X214546498Y-63916029D01*
X214454386Y-64113566D01*
X214452063Y-64118548D01*
X214392804Y-64339704D01*
X214372849Y-64567791D01*
X212959888Y-64567791D01*
X212959888Y-59616771D01*
X212979890Y-59548650D01*
X213033546Y-59502157D01*
X213103820Y-59492053D01*
X213161453Y-59515945D01*
X213222352Y-59561586D01*
X213237946Y-59570124D01*
X213358394Y-59615278D01*
X213373649Y-59618905D01*
X213424514Y-59624431D01*
X213431328Y-59624800D01*
X214103885Y-59624800D01*
X214119124Y-59620325D01*
X214120329Y-59618935D01*
X214122000Y-59611252D01*
X214122000Y-58088800D01*
X214142002Y-58020679D01*
X214195658Y-57974186D01*
X214248000Y-57962800D01*
X214504000Y-57962800D01*
X214572121Y-57982802D01*
G37*
G04 #@! TD.AperFunction*
M02*
