  0
SECTION
  2
HEADER
  9
$ANGBASE
  50
0.0
  9
$ANGDIR
  70
1
  9
$MEASUREMENT
  70
1
  0
ENDSEC
  0
SECTION
  2
TABLES
  0
TABLE
  2
LTYPE
  70
4
  0
LTYPE
  5
40F
  2
CONTINUOUS
  70
0
  3
Solid line
  72
65
  73
0
  40
0.0
  0
LTYPE
  5
410
  2
DASHDOT
 70
0
  3
Dash Dot ____ _ ____ _
 72
65
 73
4
 40
2.0
 49
1.25
 49
-0.25
 49
0.25
 49
-0.25
  0
LTYPE
  5
411
  2
DASHED
 70
0
  3
Dashed __ __ __ __ __
 72
65
 73
2
 40
0.75
 49
0.5
 49
-0.25
  0
LTYPE
  5
43B
  2
DOTTED
 70
0
  3
Dotted .  .  .  .
 72
65
 73
2
 40
0.2
 49
0.0
 49
-0.2
  0
ENDTAB
  0
TABLE
  2
STYLE
  70
4
  0
STYLE
  2
KICAD
  70
0
  40
0
  41
1
  42
1
  50
0
  71
0
  3
isocp.shx
  0
STYLE
  2
KICADB
  70
0
  40
0
  41
1
  42
1
  50
0
  71
0
  3
isocp.shx
  0
STYLE
  2
KICADI
  70
0
  40
0
  41
1
  42
1
  50
15
  71
0
  3
isocp.shx
  0
STYLE
  2
KICADBI
  70
0
  40
0
  41
1
  42
1
  50
15
  71
0
  3
isocp.shx
  0
ENDTAB
  0
TABLE
  2
LAYER
  70
1
  0
LAYER
  2
BLACK
  70
0
  62
7
  6
CONTINUOUS
  0
ENDTAB
  0
ENDSEC
  0
SECTION
  2
ENTITIES
0
LINE
8
BLACK
6
CONTINUOUS
10
148.184
20
-152.952
11
148.166
21
-152.91
0
LINE
8
BLACK
6
CONTINUOUS
10
148.166
20
-152.91
11
148.166
21
-135.91
0
LINE
8
BLACK
6
CONTINUOUS
10
148.166
20
-135.91
11
148.184
21
-135.867
0
LINE
8
BLACK
6
CONTINUOUS
10
148.184
20
-135.867
11
148.226
21
-135.85
0
LINE
8
BLACK
6
CONTINUOUS
10
148.226
20
-135.85
11
166.226
21
-135.85
0
LINE
8
BLACK
6
CONTINUOUS
10
166.226
20
-135.85
11
166.268
21
-135.867
0
LINE
8
BLACK
6
CONTINUOUS
10
166.268
20
-135.867
11
166.286
21
-135.91
0
LINE
8
BLACK
6
CONTINUOUS
10
166.286
20
-135.91
11
166.286
21
-152.91
0
LINE
8
BLACK
6
CONTINUOUS
10
166.286
20
-152.91
11
166.268
21
-152.952
0
LINE
8
BLACK
6
CONTINUOUS
10
166.268
20
-152.952
11
166.226
21
-152.97
0
LINE
8
BLACK
6
CONTINUOUS
10
166.226
20
-152.97
11
148.226
21
-152.97
0
LINE
8
BLACK
6
CONTINUOUS
10
148.226
20
-152.97
11
148.184
21
-152.952
0
LINE
8
BLACK
6
CONTINUOUS
10
148.286
20
-135.97
11
148.286
21
-152.85
0
LINE
8
BLACK
6
CONTINUOUS
10
148.286
20
-152.85
11
166.166
21
-152.85
0
LINE
8
BLACK
6
CONTINUOUS
10
166.166
20
-152.85
11
166.166
21
-135.97
0
LINE
8
BLACK
6
CONTINUOUS
10
166.166
20
-135.97
11
148.286
21
-135.97
0
LINE
8
BLACK
6
CONTINUOUS
10
165.299
20
-144.616
11
165.314
21
-144.617
0
LINE
8
BLACK
6
CONTINUOUS
10
165.314
20
-144.617
11
165.372
21
-144.646
0
LINE
8
BLACK
6
CONTINUOUS
10
165.372
20
-144.646
11
165.379
21
-144.654
0
LINE
8
BLACK
6
CONTINUOUS
10
165.379
20
-144.654
11
165.389
21
-144.658
0
LINE
8
BLACK
6
CONTINUOUS
10
165.389
20
-144.658
11
165.418
21
-144.687
0
LINE
8
BLACK
6
CONTINUOUS
10
165.418
20
-144.687
11
165.422
21
-144.697
0
LINE
8
BLACK
6
CONTINUOUS
10
165.422
20
-144.697
11
165.429
21
-144.704
0
LINE
8
BLACK
6
CONTINUOUS
10
165.429
20
-144.704
11
165.459
21
-144.762
0
LINE
8
BLACK
6
CONTINUOUS
10
165.459
20
-144.762
11
165.46
21
-144.777
0
LINE
8
BLACK
6
CONTINUOUS
10
165.46
20
-144.777
11
165.465
21
-144.79
0
LINE
8
BLACK
6
CONTINUOUS
10
165.465
20
-144.79
11
165.465
21
-144.935
0
LINE
8
BLACK
6
CONTINUOUS
10
165.465
20
-144.935
11
165.461
21
-144.945
0
LINE
8
BLACK
6
CONTINUOUS
10
165.461
20
-144.945
11
165.462
21
-144.956
0
LINE
8
BLACK
6
CONTINUOUS
10
165.462
20
-144.956
11
165.433
21
-145.043
0
LINE
8
BLACK
6
CONTINUOUS
10
165.433
20
-145.043
11
165.401
21
-145.079
0
LINE
8
BLACK
6
CONTINUOUS
10
165.401
20
-145.079
11
165.353
21
-145.083
0
LINE
8
BLACK
6
CONTINUOUS
10
165.353
20
-145.083
11
165.316
21
-145.051
0
LINE
8
BLACK
6
CONTINUOUS
10
165.316
20
-145.051
11
165.312
21
-145.002
0
LINE
8
BLACK
6
CONTINUOUS
10
165.312
20
-145.002
11
165.338
21
-144.925
0
LINE
8
BLACK
6
CONTINUOUS
10
165.338
20
-144.925
11
165.338
21
-144.805
0
LINE
8
BLACK
6
CONTINUOUS
10
165.338
20
-144.805
11
165.321
21
-144.77
0
LINE
8
BLACK
6
CONTINUOUS
10
165.321
20
-144.77
11
165.306
21
-144.755
0
LINE
8
BLACK
6
CONTINUOUS
10
165.306
20
-144.755
11
165.271
21
-144.738
0
LINE
8
BLACK
6
CONTINUOUS
10
165.271
20
-144.738
11
165.243
21
-144.738
0
LINE
8
BLACK
6
CONTINUOUS
10
165.243
20
-144.738
11
165.207
21
-144.755
0
LINE
8
BLACK
6
CONTINUOUS
10
165.207
20
-144.755
11
165.193
21
-144.77
0
LINE
8
BLACK
6
CONTINUOUS
10
165.193
20
-144.77
11
165.171
21
-144.812
0
LINE
8
BLACK
6
CONTINUOUS
10
165.171
20
-144.812
11
165.144
21
-144.922
0
LINE
8
BLACK
6
CONTINUOUS
10
165.144
20
-144.922
11
165.14
21
-144.928
0
LINE
8
BLACK
6
CONTINUOUS
10
165.14
20
-144.928
11
165.139
21
-144.935
0
LINE
8
BLACK
6
CONTINUOUS
10
165.139
20
-144.935
11
165.11
21
-144.993
0
LINE
8
BLACK
6
CONTINUOUS
10
165.11
20
-144.993
11
165.102
21
-145
0
LINE
8
BLACK
6
CONTINUOUS
10
165.102
20
-145
11
165.098
21
-145.009
0
LINE
8
BLACK
6
CONTINUOUS
10
165.098
20
-145.009
11
165.069
21
-145.038
0
LINE
8
BLACK
6
CONTINUOUS
10
165.069
20
-145.038
11
165.06
21
-145.042
0
LINE
8
BLACK
6
CONTINUOUS
10
165.06
20
-145.042
11
165.053
21
-145.05
0
LINE
8
BLACK
6
CONTINUOUS
10
165.053
20
-145.05
11
164.995
21
-145.079
0
LINE
8
BLACK
6
CONTINUOUS
10
164.995
20
-145.079
11
164.98
21
-145.08
0
LINE
8
BLACK
6
CONTINUOUS
10
164.98
20
-145.08
11
164.966
21
-145.086
0
LINE
8
BLACK
6
CONTINUOUS
10
164.966
20
-145.086
11
164.908
21
-145.086
0
LINE
8
BLACK
6
CONTINUOUS
10
164.908
20
-145.086
11
164.895
21
-145.08
0
LINE
8
BLACK
6
CONTINUOUS
10
164.895
20
-145.08
11
164.88
21
-145.079
0
LINE
8
BLACK
6
CONTINUOUS
10
164.88
20
-145.079
11
164.822
21
-145.05
0
LINE
8
BLACK
6
CONTINUOUS
10
164.822
20
-145.05
11
164.815
21
-145.042
0
LINE
8
BLACK
6
CONTINUOUS
10
164.815
20
-145.042
11
164.805
21
-145.038
0
LINE
8
BLACK
6
CONTINUOUS
10
164.805
20
-145.038
11
164.776
21
-145.009
0
LINE
8
BLACK
6
CONTINUOUS
10
164.776
20
-145.009
11
164.772
21
-145
0
LINE
8
BLACK
6
CONTINUOUS
10
164.772
20
-145
11
164.764
21
-144.993
0
LINE
8
BLACK
6
CONTINUOUS
10
164.764
20
-144.993
11
164.735
21
-144.935
0
LINE
8
BLACK
6
CONTINUOUS
10
164.735
20
-144.935
11
164.734
21
-144.92
0
LINE
8
BLACK
6
CONTINUOUS
10
164.734
20
-144.92
11
164.729
21
-144.906
0
LINE
8
BLACK
6
CONTINUOUS
10
164.729
20
-144.906
11
164.729
21
-144.761
0
LINE
8
BLACK
6
CONTINUOUS
10
164.729
20
-144.761
11
164.733
21
-144.752
0
LINE
8
BLACK
6
CONTINUOUS
10
164.733
20
-144.752
11
164.732
21
-144.741
0
LINE
8
BLACK
6
CONTINUOUS
10
164.732
20
-144.741
11
164.761
21
-144.654
0
LINE
8
BLACK
6
CONTINUOUS
10
164.761
20
-144.654
11
164.793
21
-144.617
0
LINE
8
BLACK
6
CONTINUOUS
10
164.793
20
-144.617
11
164.841
21
-144.614
0
LINE
8
BLACK
6
CONTINUOUS
10
164.841
20
-144.614
11
164.878
21
-144.646
0
LINE
8
BLACK
6
CONTINUOUS
10
164.878
20
-144.646
11
164.881
21
-144.694
0
LINE
8
BLACK
6
CONTINUOUS
10
164.881
20
-144.694
11
164.856
21
-144.772
0
LINE
8
BLACK
6
CONTINUOUS
10
164.856
20
-144.772
11
164.856
21
-144.891
0
LINE
8
BLACK
6
CONTINUOUS
10
164.856
20
-144.891
11
164.873
21
-144.927
0
LINE
8
BLACK
6
CONTINUOUS
10
164.873
20
-144.927
11
164.888
21
-144.941
0
LINE
8
BLACK
6
CONTINUOUS
10
164.888
20
-144.941
11
164.923
21
-144.959
0
LINE
8
BLACK
6
CONTINUOUS
10
164.923
20
-144.959
11
164.951
21
-144.959
0
LINE
8
BLACK
6
CONTINUOUS
10
164.951
20
-144.959
11
164.987
21
-144.941
0
LINE
8
BLACK
6
CONTINUOUS
10
164.987
20
-144.941
11
165.001
21
-144.927
0
LINE
8
BLACK
6
CONTINUOUS
10
165.001
20
-144.927
11
165.023
21
-144.884
0
LINE
8
BLACK
6
CONTINUOUS
10
165.023
20
-144.884
11
165.05
21
-144.775
0
LINE
8
BLACK
6
CONTINUOUS
10
165.05
20
-144.775
11
165.054
21
-144.769
0
LINE
8
BLACK
6
CONTINUOUS
10
165.054
20
-144.769
11
165.055
21
-144.762
0
LINE
8
BLACK
6
CONTINUOUS
10
165.055
20
-144.762
11
165.084
21
-144.704
0
LINE
8
BLACK
6
CONTINUOUS
10
165.084
20
-144.704
11
165.092
21
-144.697
0
LINE
8
BLACK
6
CONTINUOUS
10
165.092
20
-144.697
11
165.096
21
-144.687
0
LINE
8
BLACK
6
CONTINUOUS
10
165.096
20
-144.687
11
165.125
21
-144.658
0
LINE
8
BLACK
6
CONTINUOUS
10
165.125
20
-144.658
11
165.134
21
-144.654
0
LINE
8
BLACK
6
CONTINUOUS
10
165.134
20
-144.654
11
165.141
21
-144.646
0
LINE
8
BLACK
6
CONTINUOUS
10
165.141
20
-144.646
11
165.199
21
-144.617
0
LINE
8
BLACK
6
CONTINUOUS
10
165.199
20
-144.617
11
165.214
21
-144.616
0
LINE
8
BLACK
6
CONTINUOUS
10
165.214
20
-144.616
11
165.228
21
-144.611
0
LINE
8
BLACK
6
CONTINUOUS
10
165.228
20
-144.611
11
165.286
21
-144.611
0
LINE
8
BLACK
6
CONTINUOUS
10
165.286
20
-144.611
11
165.299
21
-144.616
0
LINE
8
BLACK
6
CONTINUOUS
10
165.416
20
-144.032
11
165.424
21
-144.037
0
LINE
8
BLACK
6
CONTINUOUS
10
165.424
20
-144.037
11
165.434
21
-144.039
0
LINE
8
BLACK
6
CONTINUOUS
10
165.434
20
-144.039
11
165.443
21
-144.051
0
LINE
8
BLACK
6
CONTINUOUS
10
165.443
20
-144.051
11
165.456
21
-144.06
0
LINE
8
BLACK
6
CONTINUOUS
10
165.456
20
-144.06
11
165.457
21
-144.07
0
LINE
8
BLACK
6
CONTINUOUS
10
165.457
20
-144.07
11
165.463
21
-144.077
0
LINE
8
BLACK
6
CONTINUOUS
10
165.463
20
-144.077
11
165.461
21
-144.093
0
LINE
8
BLACK
6
CONTINUOUS
10
165.461
20
-144.093
11
165.464
21
-144.108
0
LINE
8
BLACK
6
CONTINUOUS
10
165.464
20
-144.108
11
165.458
21
-144.116
0
LINE
8
BLACK
6
CONTINUOUS
10
165.458
20
-144.116
11
165.457
21
-144.125
0
LINE
8
BLACK
6
CONTINUOUS
10
165.457
20
-144.125
11
165.444
21
-144.135
0
LINE
8
BLACK
6
CONTINUOUS
10
165.444
20
-144.135
11
165.435
21
-144.148
0
LINE
8
BLACK
6
CONTINUOUS
10
165.435
20
-144.148
11
165.426
21
-144.149
0
LINE
8
BLACK
6
CONTINUOUS
10
165.426
20
-144.149
11
165.418
21
-144.155
0
LINE
8
BLACK
6
CONTINUOUS
10
165.418
20
-144.155
11
165.213
21
-144.21
0
LINE
8
BLACK
6
CONTINUOUS
10
165.213
20
-144.21
11
165.418
21
-144.264
0
LINE
8
BLACK
6
CONTINUOUS
10
165.418
20
-144.264
11
165.426
21
-144.27
0
LINE
8
BLACK
6
CONTINUOUS
10
165.426
20
-144.27
11
165.435
21
-144.272
0
LINE
8
BLACK
6
CONTINUOUS
10
165.435
20
-144.272
11
165.444
21
-144.284
0
LINE
8
BLACK
6
CONTINUOUS
10
165.444
20
-144.284
11
165.457
21
-144.294
0
LINE
8
BLACK
6
CONTINUOUS
10
165.457
20
-144.294
11
165.458
21
-144.303
0
LINE
8
BLACK
6
CONTINUOUS
10
165.458
20
-144.303
11
165.464
21
-144.311
0
LINE
8
BLACK
6
CONTINUOUS
10
165.464
20
-144.311
11
165.461
21
-144.327
0
LINE
8
BLACK
6
CONTINUOUS
10
165.461
20
-144.327
11
165.463
21
-144.342
0
LINE
8
BLACK
6
CONTINUOUS
10
165.463
20
-144.342
11
165.457
21
-144.35
0
LINE
8
BLACK
6
CONTINUOUS
10
165.457
20
-144.35
11
165.456
21
-144.359
0
LINE
8
BLACK
6
CONTINUOUS
10
165.456
20
-144.359
11
165.443
21
-144.368
0
LINE
8
BLACK
6
CONTINUOUS
10
165.443
20
-144.368
11
165.434
21
-144.381
0
LINE
8
BLACK
6
CONTINUOUS
10
165.434
20
-144.381
11
165.424
21
-144.382
0
LINE
8
BLACK
6
CONTINUOUS
10
165.424
20
-144.382
11
165.416
21
-144.388
0
LINE
8
BLACK
6
CONTINUOUS
10
165.416
20
-144.388
11
164.807
21
-144.533
0
LINE
8
BLACK
6
CONTINUOUS
10
164.807
20
-144.533
11
164.759
21
-144.525
0
LINE
8
BLACK
6
CONTINUOUS
10
164.759
20
-144.525
11
164.73
21
-144.486
0
LINE
8
BLACK
6
CONTINUOUS
10
164.73
20
-144.486
11
164.738
21
-144.438
0
LINE
8
BLACK
6
CONTINUOUS
10
164.738
20
-144.438
11
164.777
21
-144.409
0
LINE
8
BLACK
6
CONTINUOUS
10
164.777
20
-144.409
11
165.142
21
-144.322
0
LINE
8
BLACK
6
CONTINUOUS
10
165.142
20
-144.322
11
164.95
21
-144.271
0
LINE
8
BLACK
6
CONTINUOUS
10
164.95
20
-144.271
11
164.943
21
-144.266
0
LINE
8
BLACK
6
CONTINUOUS
10
164.943
20
-144.266
11
164.934
21
-144.265
0
LINE
8
BLACK
6
CONTINUOUS
10
164.934
20
-144.265
11
164.924
21
-144.252
0
LINE
8
BLACK
6
CONTINUOUS
10
164.924
20
-144.252
11
164.911
21
-144.242
0
LINE
8
BLACK
6
CONTINUOUS
10
164.911
20
-144.242
11
164.91
21
-144.233
0
LINE
8
BLACK
6
CONTINUOUS
10
164.91
20
-144.233
11
164.905
21
-144.226
0
LINE
8
BLACK
6
CONTINUOUS
10
164.905
20
-144.226
11
164.907
21
-144.21
0
LINE
8
BLACK
6
CONTINUOUS
10
164.907
20
-144.21
11
164.905
21
-144.193
0
LINE
8
BLACK
6
CONTINUOUS
10
164.905
20
-144.193
11
164.91
21
-144.186
0
LINE
8
BLACK
6
CONTINUOUS
10
164.91
20
-144.186
11
164.911
21
-144.178
0
LINE
8
BLACK
6
CONTINUOUS
10
164.911
20
-144.178
11
164.924
21
-144.168
0
LINE
8
BLACK
6
CONTINUOUS
10
164.924
20
-144.168
11
164.934
21
-144.155
0
LINE
8
BLACK
6
CONTINUOUS
10
164.934
20
-144.155
11
164.943
21
-144.154
0
LINE
8
BLACK
6
CONTINUOUS
10
164.943
20
-144.154
11
164.95
21
-144.148
0
LINE
8
BLACK
6
CONTINUOUS
10
164.95
20
-144.148
11
165.142
21
-144.097
0
LINE
8
BLACK
6
CONTINUOUS
10
165.142
20
-144.097
11
164.777
21
-144.01
0
LINE
8
BLACK
6
CONTINUOUS
10
164.777
20
-144.01
11
164.738
21
-143.982
0
LINE
8
BLACK
6
CONTINUOUS
10
164.738
20
-143.982
11
164.73
21
-143.934
0
LINE
8
BLACK
6
CONTINUOUS
10
164.73
20
-143.934
11
164.759
21
-143.894
0
LINE
8
BLACK
6
CONTINUOUS
10
164.759
20
-143.894
11
164.807
21
-143.887
0
LINE
8
BLACK
6
CONTINUOUS
10
164.807
20
-143.887
11
165.416
21
-144.032
0
LINE
8
BLACK
6
CONTINUOUS
10
165.447
20
-143.352
11
165.465
21
-143.397
0
LINE
8
BLACK
6
CONTINUOUS
10
165.465
20
-143.397
11
165.465
21
-143.745
0
LINE
8
BLACK
6
CONTINUOUS
10
165.465
20
-143.745
11
165.447
21
-143.79
0
LINE
8
BLACK
6
CONTINUOUS
10
165.447
20
-143.79
11
165.402
21
-143.809
0
LINE
8
BLACK
6
CONTINUOUS
10
165.402
20
-143.809
11
165.357
21
-143.79
0
LINE
8
BLACK
6
CONTINUOUS
10
165.357
20
-143.79
11
165.338
21
-143.745
0
LINE
8
BLACK
6
CONTINUOUS
10
165.338
20
-143.745
11
165.338
21
-143.635
0
LINE
8
BLACK
6
CONTINUOUS
10
165.338
20
-143.635
11
164.974
21
-143.635
0
LINE
8
BLACK
6
CONTINUOUS
10
164.974
20
-143.635
11
164.982
21
-143.642
0
LINE
8
BLACK
6
CONTINUOUS
10
164.982
20
-143.642
11
164.986
21
-143.652
0
LINE
8
BLACK
6
CONTINUOUS
10
164.986
20
-143.652
11
164.994
21
-143.659
0
LINE
8
BLACK
6
CONTINUOUS
10
164.994
20
-143.659
11
165.023
21
-143.717
0
LINE
8
BLACK
6
CONTINUOUS
10
165.023
20
-143.717
11
165.027
21
-143.765
0
LINE
8
BLACK
6
CONTINUOUS
10
165.027
20
-143.765
11
164.995
21
-143.802
0
LINE
8
BLACK
6
CONTINUOUS
10
164.995
20
-143.802
11
164.946
21
-143.806
0
LINE
8
BLACK
6
CONTINUOUS
10
164.946
20
-143.806
11
164.91
21
-143.774
0
LINE
8
BLACK
6
CONTINUOUS
10
164.91
20
-143.774
11
164.885
21
-143.725
0
LINE
8
BLACK
6
CONTINUOUS
10
164.885
20
-143.725
11
164.839
21
-143.678
0
LINE
8
BLACK
6
CONTINUOUS
10
164.839
20
-143.678
11
164.757
21
-143.624
0
LINE
8
BLACK
6
CONTINUOUS
10
164.757
20
-143.624
11
164.753
21
-143.618
0
LINE
8
BLACK
6
CONTINUOUS
10
164.753
20
-143.618
11
164.747
21
-143.616
0
LINE
8
BLACK
6
CONTINUOUS
10
164.747
20
-143.616
11
164.74
21
-143.599
0
LINE
8
BLACK
6
CONTINUOUS
10
164.74
20
-143.599
11
164.73
21
-143.584
0
LINE
8
BLACK
6
CONTINUOUS
10
164.73
20
-143.584
11
164.731
21
-143.577
0
LINE
8
BLACK
6
CONTINUOUS
10
164.731
20
-143.577
11
164.729
21
-143.571
0
LINE
8
BLACK
6
CONTINUOUS
10
164.729
20
-143.571
11
164.736
21
-143.554
0
LINE
8
BLACK
6
CONTINUOUS
10
164.736
20
-143.554
11
164.739
21
-143.536
0
LINE
8
BLACK
6
CONTINUOUS
10
164.739
20
-143.536
11
164.745
21
-143.532
0
LINE
8
BLACK
6
CONTINUOUS
10
164.745
20
-143.532
11
164.747
21
-143.526
0
LINE
8
BLACK
6
CONTINUOUS
10
164.747
20
-143.526
11
164.764
21
-143.519
0
LINE
8
BLACK
6
CONTINUOUS
10
164.764
20
-143.519
11
164.78
21
-143.509
0
LINE
8
BLACK
6
CONTINUOUS
10
164.78
20
-143.509
11
164.786
21
-143.51
0
LINE
8
BLACK
6
CONTINUOUS
10
164.786
20
-143.51
11
164.792
21
-143.508
0
LINE
8
BLACK
6
CONTINUOUS
10
164.792
20
-143.508
11
165.338
21
-143.508
0
LINE
8
BLACK
6
CONTINUOUS
10
165.338
20
-143.508
11
165.338
21
-143.397
0
LINE
8
BLACK
6
CONTINUOUS
10
165.338
20
-143.397
11
165.357
21
-143.352
0
LINE
8
BLACK
6
CONTINUOUS
10
165.357
20
-143.352
11
165.402
21
-143.333
0
LINE
8
BLACK
6
CONTINUOUS
10
165.402
20
-143.333
11
165.447
21
-143.352
0
LINE
8
BLACK
6
CONTINUOUS
10
131.565
20
-132.537
11
131.583
21
-132.579
0
LINE
8
BLACK
6
CONTINUOUS
10
131.583
20
-132.579
11
131.583
21
-134.819
0
LINE
8
BLACK
6
CONTINUOUS
10
131.583
20
-134.819
11
133.923
21
-134.819
0
LINE
8
BLACK
6
CONTINUOUS
10
133.923
20
-134.819
11
133.965
21
-134.837
0
LINE
8
BLACK
6
CONTINUOUS
10
133.965
20
-134.837
11
133.983
21
-134.879
0
LINE
8
BLACK
6
CONTINUOUS
10
133.983
20
-134.879
11
133.965
21
-134.922
0
LINE
8
BLACK
6
CONTINUOUS
10
133.965
20
-134.922
11
133.923
21
-134.939
0
LINE
8
BLACK
6
CONTINUOUS
10
133.923
20
-134.939
11
131.523
21
-134.939
0
LINE
8
BLACK
6
CONTINUOUS
10
131.523
20
-134.939
11
131.481
21
-134.922
0
LINE
8
BLACK
6
CONTINUOUS
10
131.481
20
-134.922
11
131.463
21
-134.879
0
LINE
8
BLACK
6
CONTINUOUS
10
131.463
20
-134.879
11
131.463
21
-132.579
0
LINE
8
BLACK
6
CONTINUOUS
10
131.463
20
-132.579
11
131.481
21
-132.537
0
LINE
8
BLACK
6
CONTINUOUS
10
131.481
20
-132.537
11
131.523
21
-132.519
0
LINE
8
BLACK
6
CONTINUOUS
10
131.523
20
-132.519
11
131.565
21
-132.537
0
LINE
8
BLACK
6
CONTINUOUS
10
131.781
20
-134.622
11
131.763
21
-134.579
0
LINE
8
BLACK
6
CONTINUOUS
10
131.763
20
-134.579
11
131.763
21
-129.739
0
LINE
8
BLACK
6
CONTINUOUS
10
131.763
20
-129.739
11
130.623
21
-129.739
0
LINE
8
BLACK
6
CONTINUOUS
10
130.623
20
-129.739
11
130.581
21
-129.722
0
LINE
8
BLACK
6
CONTINUOUS
10
130.581
20
-129.722
11
130.563
21
-129.679
0
LINE
8
BLACK
6
CONTINUOUS
10
130.563
20
-129.679
11
130.563
21
-129.186
0
LINE
8
BLACK
6
CONTINUOUS
10
130.563
20
-129.186
11
129.341
21
-129.186
0
LINE
8
BLACK
6
CONTINUOUS
10
129.341
20
-129.186
11
129.306
21
-129.172
0
LINE
8
BLACK
6
CONTINUOUS
10
129.306
20
-129.172
11
129.291
21
-129.136
0
LINE
8
BLACK
6
CONTINUOUS
10
129.291
20
-129.136
11
129.291
21
-122.136
0
LINE
8
BLACK
6
CONTINUOUS
10
129.291
20
-122.136
11
129.306
21
-122.101
0
LINE
8
BLACK
6
CONTINUOUS
10
129.306
20
-122.101
11
129.341
21
-122.086
0
LINE
8
BLACK
6
CONTINUOUS
10
129.341
20
-122.086
11
130.563
21
-122.086
0
LINE
8
BLACK
6
CONTINUOUS
10
130.563
20
-122.086
11
130.563
21
-121.679
0
LINE
8
BLACK
6
CONTINUOUS
10
130.563
20
-121.679
11
130.581
21
-121.637
0
LINE
8
BLACK
6
CONTINUOUS
10
130.581
20
-121.637
11
130.623
21
-121.619
0
LINE
8
BLACK
6
CONTINUOUS
10
130.623
20
-121.619
11
131.763
21
-121.619
0
LINE
8
BLACK
6
CONTINUOUS
10
131.763
20
-121.619
11
131.763
21
-116.779
0
LINE
8
BLACK
6
CONTINUOUS
10
131.763
20
-116.779
11
131.781
21
-116.737
0
LINE
8
BLACK
6
CONTINUOUS
10
131.781
20
-116.737
11
131.823
21
-116.719
0
LINE
8
BLACK
6
CONTINUOUS
10
131.823
20
-116.719
11
182.823
21
-116.719
0
LINE
8
BLACK
6
CONTINUOUS
10
182.823
20
-116.719
11
182.865
21
-116.737
0
LINE
8
BLACK
6
CONTINUOUS
10
182.865
20
-116.737
11
182.883
21
-116.779
0
LINE
8
BLACK
6
CONTINUOUS
10
182.883
20
-116.779
11
182.883
21
-134.579
0
LINE
8
BLACK
6
CONTINUOUS
10
182.883
20
-134.579
11
182.865
21
-134.622
0
LINE
8
BLACK
6
CONTINUOUS
10
182.865
20
-134.622
11
182.823
21
-134.639
0
LINE
8
BLACK
6
CONTINUOUS
10
182.823
20
-134.639
11
131.823
21
-134.639
0
LINE
8
BLACK
6
CONTINUOUS
10
131.823
20
-134.639
11
131.781
21
-134.622
0
LINE
8
BLACK
6
CONTINUOUS
10
131.883
20
-132.159
11
131.883
21
-134.519
0
LINE
8
BLACK
6
CONTINUOUS
10
131.883
20
-134.519
11
182.763
21
-134.519
0
LINE
8
BLACK
6
CONTINUOUS
10
182.763
20
-134.519
11
182.763
21
-132.159
0
LINE
8
BLACK
6
CONTINUOUS
10
182.763
20
-132.159
11
131.883
21
-132.159
0
LINE
8
BLACK
6
CONTINUOUS
10
131.883
20
-119.359
11
131.883
21
-122.086
0
LINE
8
BLACK
6
CONTINUOUS
10
131.883
20
-122.086
11
136.391
21
-122.086
0
LINE
8
BLACK
6
CONTINUOUS
10
136.391
20
-122.086
11
136.426
21
-122.101
0
LINE
8
BLACK
6
CONTINUOUS
10
136.426
20
-122.101
11
136.441
21
-122.136
0
LINE
8
BLACK
6
CONTINUOUS
10
136.441
20
-122.136
11
136.426
21
-122.172
0
LINE
8
BLACK
6
CONTINUOUS
10
136.426
20
-122.172
11
136.391
21
-122.186
0
LINE
8
BLACK
6
CONTINUOUS
10
136.391
20
-122.186
11
131.883
21
-122.186
0
LINE
8
BLACK
6
CONTINUOUS
10
131.883
20
-122.186
11
131.883
21
-129.086
0
LINE
8
BLACK
6
CONTINUOUS
10
131.883
20
-129.086
11
136.391
21
-129.086
0
LINE
8
BLACK
6
CONTINUOUS
10
136.391
20
-129.086
11
136.426
21
-129.101
0
LINE
8
BLACK
6
CONTINUOUS
10
136.426
20
-129.101
11
136.441
21
-129.136
0
LINE
8
BLACK
6
CONTINUOUS
10
136.441
20
-129.136
11
136.426
21
-129.172
0
LINE
8
BLACK
6
CONTINUOUS
10
136.426
20
-129.172
11
136.391
21
-129.186
0
LINE
8
BLACK
6
CONTINUOUS
10
136.391
20
-129.186
11
131.883
21
-129.186
0
LINE
8
BLACK
6
CONTINUOUS
10
131.883
20
-129.186
11
131.883
21
-132.039
0
LINE
8
BLACK
6
CONTINUOUS
10
131.883
20
-132.039
11
182.763
21
-132.039
0
LINE
8
BLACK
6
CONTINUOUS
10
182.763
20
-132.039
11
182.763
21
-119.359
0
LINE
8
BLACK
6
CONTINUOUS
10
182.763
20
-119.359
11
131.883
21
-119.359
0
LINE
8
BLACK
6
CONTINUOUS
10
130.683
20
-129.186
11
130.683
21
-129.619
0
LINE
8
BLACK
6
CONTINUOUS
10
130.683
20
-129.619
11
131.763
21
-129.619
0
LINE
8
BLACK
6
CONTINUOUS
10
131.763
20
-129.619
11
131.763
21
-129.186
0
LINE
8
BLACK
6
CONTINUOUS
10
131.763
20
-129.186
11
130.683
21
-129.186
0
LINE
8
BLACK
6
CONTINUOUS
10
130.563
20
-122.186
11
129.391
21
-122.186
0
LINE
8
BLACK
6
CONTINUOUS
10
129.391
20
-122.186
11
129.391
21
-129.086
0
LINE
8
BLACK
6
CONTINUOUS
10
129.391
20
-129.086
11
130.563
21
-129.086
0
LINE
8
BLACK
6
CONTINUOUS
10
130.563
20
-129.086
11
130.563
21
-122.186
0
LINE
8
BLACK
6
CONTINUOUS
10
130.683
20
-122.186
11
130.683
21
-129.086
0
LINE
8
BLACK
6
CONTINUOUS
10
130.683
20
-129.086
11
131.763
21
-129.086
0
LINE
8
BLACK
6
CONTINUOUS
10
131.763
20
-129.086
11
131.763
21
-122.186
0
LINE
8
BLACK
6
CONTINUOUS
10
131.763
20
-122.186
11
130.683
21
-122.186
0
LINE
8
BLACK
6
CONTINUOUS
10
130.683
20
-121.739
11
130.683
21
-122.086
0
LINE
8
BLACK
6
CONTINUOUS
10
130.683
20
-122.086
11
131.763
21
-122.086
0
LINE
8
BLACK
6
CONTINUOUS
10
131.763
20
-122.086
11
131.763
21
-121.739
0
LINE
8
BLACK
6
CONTINUOUS
10
131.763
20
-121.739
11
130.683
21
-121.739
0
LINE
8
BLACK
6
CONTINUOUS
10
131.883
20
-116.839
11
131.883
21
-119.239
0
LINE
8
BLACK
6
CONTINUOUS
10
131.883
20
-119.239
11
182.763
21
-119.239
0
LINE
8
BLACK
6
CONTINUOUS
10
182.763
20
-119.239
11
182.763
21
-116.839
0
LINE
8
BLACK
6
CONTINUOUS
10
182.763
20
-116.839
11
131.883
21
-116.839
0
LINE
8
BLACK
6
CONTINUOUS
10
135.568
20
-129.852
11
135.632
21
-129.895
0
LINE
8
BLACK
6
CONTINUOUS
10
135.632
20
-129.895
11
135.676
21
-129.96
0
LINE
8
BLACK
6
CONTINUOUS
10
135.676
20
-129.96
11
135.684
21
-130.003
0
LINE
8
BLACK
6
CONTINUOUS
10
135.684
20
-130.003
11
135.686
21
-130.005
0
LINE
8
BLACK
6
CONTINUOUS
10
135.686
20
-130.005
11
135.686
21
-130.012
0
LINE
8
BLACK
6
CONTINUOUS
10
135.686
20
-130.012
11
135.691
21
-130.036
0
LINE
8
BLACK
6
CONTINUOUS
10
135.691
20
-130.036
11
135.686
21
-130.061
0
LINE
8
BLACK
6
CONTINUOUS
10
135.686
20
-130.061
11
135.686
21
-130.067
0
LINE
8
BLACK
6
CONTINUOUS
10
135.686
20
-130.067
11
135.684
21
-130.07
0
LINE
8
BLACK
6
CONTINUOUS
10
135.684
20
-130.07
11
135.676
21
-130.113
0
LINE
8
BLACK
6
CONTINUOUS
10
135.676
20
-130.113
11
135.632
21
-130.178
0
LINE
8
BLACK
6
CONTINUOUS
10
135.632
20
-130.178
11
135.568
21
-130.221
0
LINE
8
BLACK
6
CONTINUOUS
10
135.568
20
-130.221
11
135.491
21
-130.236
0
LINE
8
BLACK
6
CONTINUOUS
10
135.491
20
-130.236
11
135.414
21
-130.221
0
LINE
8
BLACK
6
CONTINUOUS
10
135.414
20
-130.221
11
135.35
21
-130.178
0
LINE
8
BLACK
6
CONTINUOUS
10
135.35
20
-130.178
11
135.306
21
-130.113
0
LINE
8
BLACK
6
CONTINUOUS
10
135.306
20
-130.113
11
135.298
21
-130.07
0
LINE
8
BLACK
6
CONTINUOUS
10
135.298
20
-130.07
11
135.296
21
-130.067
0
LINE
8
BLACK
6
CONTINUOUS
10
135.296
20
-130.067
11
135.296
21
-130.061
0
LINE
8
BLACK
6
CONTINUOUS
10
135.296
20
-130.061
11
135.291
21
-130.036
0
LINE
8
BLACK
6
CONTINUOUS
10
135.291
20
-130.036
11
135.296
21
-130.012
0
LINE
8
BLACK
6
CONTINUOUS
10
135.296
20
-130.012
11
135.296
21
-130.005
0
LINE
8
BLACK
6
CONTINUOUS
10
135.296
20
-130.005
11
135.298
21
-130.003
0
LINE
8
BLACK
6
CONTINUOUS
10
135.298
20
-130.003
11
135.306
21
-129.96
0
LINE
8
BLACK
6
CONTINUOUS
10
135.306
20
-129.96
11
135.35
21
-129.895
0
LINE
8
BLACK
6
CONTINUOUS
10
135.35
20
-129.895
11
135.414
21
-129.852
0
LINE
8
BLACK
6
CONTINUOUS
10
135.414
20
-129.852
11
135.491
21
-129.836
0
LINE
8
BLACK
6
CONTINUOUS
10
135.491
20
-129.836
11
135.568
21
-129.852
0
LINE
8
BLACK
6
CONTINUOUS
10
139.426
20
-122.101
11
139.441
21
-122.136
0
LINE
8
BLACK
6
CONTINUOUS
10
139.441
20
-122.136
11
139.441
21
-129.136
0
LINE
8
BLACK
6
CONTINUOUS
10
139.441
20
-129.136
11
139.426
21
-129.172
0
LINE
8
BLACK
6
CONTINUOUS
10
139.426
20
-129.172
11
139.391
21
-129.186
0
LINE
8
BLACK
6
CONTINUOUS
10
139.391
20
-129.186
11
139.356
21
-129.172
0
LINE
8
BLACK
6
CONTINUOUS
10
139.356
20
-129.172
11
139.341
21
-129.136
0
LINE
8
BLACK
6
CONTINUOUS
10
139.341
20
-129.136
11
139.341
21
-122.136
0
LINE
8
BLACK
6
CONTINUOUS
10
139.341
20
-122.136
11
139.356
21
-122.101
0
LINE
8
BLACK
6
CONTINUOUS
10
139.356
20
-122.101
11
139.391
21
-122.086
0
LINE
8
BLACK
6
CONTINUOUS
10
139.391
20
-122.086
11
139.426
21
-122.101
0
LINE
8
BLACK
6
CONTINUOUS
10
134.735
20
-126.494
11
134.744
21
-126.5
0
LINE
8
BLACK
6
CONTINUOUS
10
134.744
20
-126.5
11
134.755
21
-126.502
0
LINE
8
BLACK
6
CONTINUOUS
10
134.755
20
-126.502
11
134.876
21
-126.563
0
LINE
8
BLACK
6
CONTINUOUS
10
134.876
20
-126.563
11
134.906
21
-126.584
0
LINE
8
BLACK
6
CONTINUOUS
10
134.906
20
-126.584
11
134.907
21
-126.586
0
LINE
8
BLACK
6
CONTINUOUS
10
134.907
20
-126.586
11
134.909
21
-126.587
0
LINE
8
BLACK
6
CONTINUOUS
10
134.909
20
-126.587
11
134.97
21
-126.647
0
LINE
8
BLACK
6
CONTINUOUS
10
134.97
20
-126.647
11
134.992
21
-126.676
0
LINE
8
BLACK
6
CONTINUOUS
10
134.992
20
-126.676
11
134.992
21
-126.679
0
LINE
8
BLACK
6
CONTINUOUS
10
134.992
20
-126.679
11
134.994
21
-126.68
0
LINE
8
BLACK
6
CONTINUOUS
10
134.994
20
-126.68
11
135.054
21
-126.801
0
LINE
8
BLACK
6
CONTINUOUS
10
135.054
20
-126.801
11
135.066
21
-126.836
0
LINE
8
BLACK
6
CONTINUOUS
10
135.066
20
-126.836
11
135.064
21
-126.847
0
LINE
8
BLACK
6
CONTINUOUS
10
135.064
20
-126.847
11
135.068
21
-126.858
0
LINE
8
BLACK
6
CONTINUOUS
10
135.068
20
-126.858
11
135.068
21
-127.16
0
LINE
8
BLACK
6
CONTINUOUS
10
135.068
20
-127.16
11
135.062
21
-127.196
0
LINE
8
BLACK
6
CONTINUOUS
10
135.062
20
-127.196
11
135.061
21
-127.198
0
LINE
8
BLACK
6
CONTINUOUS
10
135.061
20
-127.198
11
135.061
21
-127.2
0
LINE
8
BLACK
6
CONTINUOUS
10
135.061
20
-127.2
11
135.001
21
-127.382
0
LINE
8
BLACK
6
CONTINUOUS
10
135.001
20
-127.382
11
134.984
21
-127.414
0
LINE
8
BLACK
6
CONTINUOUS
10
134.984
20
-127.414
11
134.928
21
-127.459
0
LINE
8
BLACK
6
CONTINUOUS
10
134.928
20
-127.459
11
134.857
21
-127.467
0
LINE
8
BLACK
6
CONTINUOUS
10
134.857
20
-127.467
11
134.793
21
-127.435
0
LINE
8
BLACK
6
CONTINUOUS
10
134.793
20
-127.435
11
134.757
21
-127.373
0
LINE
8
BLACK
6
CONTINUOUS
10
134.757
20
-127.373
11
134.76
21
-127.302
0
LINE
8
BLACK
6
CONTINUOUS
10
134.76
20
-127.302
11
134.814
21
-127.14
0
LINE
8
BLACK
6
CONTINUOUS
10
134.814
20
-127.14
11
134.814
21
-126.888
0
LINE
8
BLACK
6
CONTINUOUS
10
134.814
20
-126.888
11
134.776
21
-126.812
0
LINE
8
BLACK
6
CONTINUOUS
10
134.776
20
-126.812
11
134.744
21
-126.781
0
LINE
8
BLACK
6
CONTINUOUS
10
134.744
20
-126.781
11
134.669
21
-126.743
0
LINE
8
BLACK
6
CONTINUOUS
10
134.669
20
-126.743
11
134.608
21
-126.743
0
LINE
8
BLACK
6
CONTINUOUS
10
134.608
20
-126.743
11
134.532
21
-126.781
0
LINE
8
BLACK
6
CONTINUOUS
10
134.532
20
-126.781
11
134.501
21
-126.812
0
LINE
8
BLACK
6
CONTINUOUS
10
134.501
20
-126.812
11
134.456
21
-126.902
0
LINE
8
BLACK
6
CONTINUOUS
10
134.456
20
-126.902
11
134.398
21
-127.131
0
LINE
8
BLACK
6
CONTINUOUS
10
134.398
20
-127.131
11
134.39
21
-127.152
0
LINE
8
BLACK
6
CONTINUOUS
10
134.39
20
-127.152
11
134.389
21
-127.157
0
LINE
8
BLACK
6
CONTINUOUS
10
134.389
20
-127.157
11
134.328
21
-127.278
0
LINE
8
BLACK
6
CONTINUOUS
10
134.328
20
-127.278
11
134.308
21
-127.307
0
LINE
8
BLACK
6
CONTINUOUS
10
134.308
20
-127.307
11
134.306
21
-127.309
0
LINE
8
BLACK
6
CONTINUOUS
10
134.306
20
-127.309
11
134.305
21
-127.311
0
LINE
8
BLACK
6
CONTINUOUS
10
134.305
20
-127.311
11
134.244
21
-127.371
0
LINE
8
BLACK
6
CONTINUOUS
10
134.244
20
-127.371
11
134.215
21
-127.393
0
LINE
8
BLACK
6
CONTINUOUS
10
134.215
20
-127.393
11
134.213
21
-127.393
0
LINE
8
BLACK
6
CONTINUOUS
10
134.213
20
-127.393
11
134.211
21
-127.395
0
LINE
8
BLACK
6
CONTINUOUS
10
134.211
20
-127.395
11
134.09
21
-127.455
0
LINE
8
BLACK
6
CONTINUOUS
10
134.09
20
-127.455
11
134.056
21
-127.467
0
LINE
8
BLACK
6
CONTINUOUS
10
134.056
20
-127.467
11
134.044
21
-127.466
0
LINE
8
BLACK
6
CONTINUOUS
10
134.044
20
-127.466
11
134.033
21
-127.469
0
LINE
8
BLACK
6
CONTINUOUS
10
134.033
20
-127.469
11
133.912
21
-127.469
0
LINE
8
BLACK
6
CONTINUOUS
10
133.912
20
-127.469
11
133.876
21
-127.464
0
LINE
8
BLACK
6
CONTINUOUS
10
133.876
20
-127.464
11
133.867
21
-127.457
0
LINE
8
BLACK
6
CONTINUOUS
10
133.867
20
-127.457
11
133.856
21
-127.455
0
LINE
8
BLACK
6
CONTINUOUS
10
133.856
20
-127.455
11
133.735
21
-127.395
0
LINE
8
BLACK
6
CONTINUOUS
10
133.735
20
-127.395
11
133.705
21
-127.374
0
LINE
8
BLACK
6
CONTINUOUS
10
133.705
20
-127.374
11
133.704
21
-127.372
0
LINE
8
BLACK
6
CONTINUOUS
10
133.704
20
-127.372
11
133.702
21
-127.371
0
LINE
8
BLACK
6
CONTINUOUS
10
133.702
20
-127.371
11
133.641
21
-127.311
0
LINE
8
BLACK
6
CONTINUOUS
10
133.641
20
-127.311
11
133.619
21
-127.281
0
LINE
8
BLACK
6
CONTINUOUS
10
133.619
20
-127.281
11
133.619
21
-127.279
0
LINE
8
BLACK
6
CONTINUOUS
10
133.619
20
-127.279
11
133.617
21
-127.278
0
LINE
8
BLACK
6
CONTINUOUS
10
133.617
20
-127.278
11
133.557
21
-127.157
0
LINE
8
BLACK
6
CONTINUOUS
10
133.557
20
-127.157
11
133.545
21
-127.122
0
LINE
8
BLACK
6
CONTINUOUS
10
133.545
20
-127.122
11
133.547
21
-127.111
0
LINE
8
BLACK
6
CONTINUOUS
10
133.547
20
-127.111
11
133.544
21
-127.1
0
LINE
8
BLACK
6
CONTINUOUS
10
133.544
20
-127.1
11
133.544
21
-126.797
0
LINE
8
BLACK
6
CONTINUOUS
10
133.544
20
-126.797
11
133.549
21
-126.761
0
LINE
8
BLACK
6
CONTINUOUS
10
133.549
20
-126.761
11
133.55
21
-126.76
0
LINE
8
BLACK
6
CONTINUOUS
10
133.55
20
-126.76
11
133.55
21
-126.757
0
LINE
8
BLACK
6
CONTINUOUS
10
133.55
20
-126.757
11
133.611
21
-126.576
0
LINE
8
BLACK
6
CONTINUOUS
10
133.611
20
-126.576
11
133.627
21
-126.543
0
LINE
8
BLACK
6
CONTINUOUS
10
133.627
20
-126.543
11
133.683
21
-126.499
0
LINE
8
BLACK
6
CONTINUOUS
10
133.683
20
-126.499
11
133.754
21
-126.491
0
LINE
8
BLACK
6
CONTINUOUS
10
133.754
20
-126.491
11
133.818
21
-126.523
0
LINE
8
BLACK
6
CONTINUOUS
10
133.818
20
-126.523
11
133.854
21
-126.585
0
LINE
8
BLACK
6
CONTINUOUS
10
133.854
20
-126.585
11
133.851
21
-126.656
0
LINE
8
BLACK
6
CONTINUOUS
10
133.851
20
-126.656
11
133.798
21
-126.818
0
LINE
8
BLACK
6
CONTINUOUS
10
133.798
20
-126.818
11
133.798
21
-127.07
0
LINE
8
BLACK
6
CONTINUOUS
10
133.798
20
-127.07
11
133.835
21
-127.146
0
LINE
8
BLACK
6
CONTINUOUS
10
133.835
20
-127.146
11
133.867
21
-127.177
0
LINE
8
BLACK
6
CONTINUOUS
10
133.867
20
-127.177
11
133.942
21
-127.215
0
LINE
8
BLACK
6
CONTINUOUS
10
133.942
20
-127.215
11
134.003
21
-127.215
0
LINE
8
BLACK
6
CONTINUOUS
10
134.003
20
-127.215
11
134.079
21
-127.177
0
LINE
8
BLACK
6
CONTINUOUS
10
134.079
20
-127.177
11
134.11
21
-127.146
0
LINE
8
BLACK
6
CONTINUOUS
10
134.11
20
-127.146
11
134.155
21
-127.056
0
LINE
8
BLACK
6
CONTINUOUS
10
134.155
20
-127.056
11
134.213
21
-126.827
0
LINE
8
BLACK
6
CONTINUOUS
10
134.213
20
-126.827
11
134.221
21
-126.806
0
LINE
8
BLACK
6
CONTINUOUS
10
134.221
20
-126.806
11
134.222
21
-126.801
0
LINE
8
BLACK
6
CONTINUOUS
10
134.222
20
-126.801
11
134.283
21
-126.68
0
LINE
8
BLACK
6
CONTINUOUS
10
134.283
20
-126.68
11
134.303
21
-126.65
0
LINE
8
BLACK
6
CONTINUOUS
10
134.303
20
-126.65
11
134.305
21
-126.649
0
LINE
8
BLACK
6
CONTINUOUS
10
134.305
20
-126.649
11
134.306
21
-126.647
0
LINE
8
BLACK
6
CONTINUOUS
10
134.306
20
-126.647
11
134.367
21
-126.587
0
LINE
8
BLACK
6
CONTINUOUS
10
134.367
20
-126.587
11
134.396
21
-126.565
0
LINE
8
BLACK
6
CONTINUOUS
10
134.396
20
-126.565
11
134.398
21
-126.564
0
LINE
8
BLACK
6
CONTINUOUS
10
134.398
20
-126.564
11
134.4
21
-126.563
0
LINE
8
BLACK
6
CONTINUOUS
10
134.4
20
-126.563
11
134.521
21
-126.502
0
LINE
8
BLACK
6
CONTINUOUS
10
134.521
20
-126.502
11
134.555
21
-126.491
0
LINE
8
BLACK
6
CONTINUOUS
10
134.555
20
-126.491
11
134.567
21
-126.492
0
LINE
8
BLACK
6
CONTINUOUS
10
134.567
20
-126.492
11
134.578
21
-126.489
0
LINE
8
BLACK
6
CONTINUOUS
10
134.578
20
-126.489
11
134.699
21
-126.489
0
LINE
8
BLACK
6
CONTINUOUS
10
134.699
20
-126.489
11
134.735
21
-126.494
0
LINE
8
BLACK
6
CONTINUOUS
10
158.922
20
-125.766
11
158.946
21
-125.811
0
LINE
8
BLACK
6
CONTINUOUS
10
158.946
20
-125.811
11
158.936
21
-125.861
0
LINE
8
BLACK
6
CONTINUOUS
10
158.936
20
-125.861
11
158.896
21
-125.893
0
LINE
8
BLACK
6
CONTINUOUS
10
158.896
20
-125.893
11
158.661
21
-125.971
0
LINE
8
BLACK
6
CONTINUOUS
10
158.661
20
-125.971
11
158.661
21
-126.339
0
LINE
8
BLACK
6
CONTINUOUS
10
158.661
20
-126.339
11
158.896
21
-126.418
0
LINE
8
BLACK
6
CONTINUOUS
10
158.896
20
-126.418
11
158.919
21
-126.43
0
LINE
8
BLACK
6
CONTINUOUS
10
158.919
20
-126.43
11
158.946
21
-126.474
0
LINE
8
BLACK
6
CONTINUOUS
10
158.946
20
-126.474
11
158.938
21
-126.524
0
LINE
8
BLACK
6
CONTINUOUS
10
158.938
20
-126.524
11
158.9
21
-126.558
0
LINE
8
BLACK
6
CONTINUOUS
10
158.9
20
-126.558
11
158.848
21
-126.56
0
LINE
8
BLACK
6
CONTINUOUS
10
158.848
20
-126.56
11
157.848
21
-126.227
0
LINE
8
BLACK
6
CONTINUOUS
10
157.848
20
-126.227
11
157.826
21
-126.214
0
LINE
8
BLACK
6
CONTINUOUS
10
157.826
20
-126.214
11
157.824
21
-126.212
0
LINE
8
BLACK
6
CONTINUOUS
10
157.824
20
-126.212
11
157.822
21
-126.212
0
LINE
8
BLACK
6
CONTINUOUS
10
157.822
20
-126.212
11
157.811
21
-126.191
0
LINE
8
BLACK
6
CONTINUOUS
10
157.811
20
-126.191
11
157.799
21
-126.17
0
LINE
8
BLACK
6
CONTINUOUS
10
157.799
20
-126.17
11
157.799
21
-126.168
0
LINE
8
BLACK
6
CONTINUOUS
10
157.799
20
-126.168
11
157.798
21
-126.166
0
LINE
8
BLACK
6
CONTINUOUS
10
157.798
20
-126.166
11
157.803
21
-126.143
0
LINE
8
BLACK
6
CONTINUOUS
10
157.803
20
-126.143
11
157.806
21
-126.12
0
LINE
8
BLACK
6
CONTINUOUS
10
157.806
20
-126.12
11
157.808
21
-126.118
0
LINE
8
BLACK
6
CONTINUOUS
10
157.808
20
-126.118
11
157.808
21
-126.116
0
LINE
8
BLACK
6
CONTINUOUS
10
157.808
20
-126.116
11
157.827
21
-126.101
0
LINE
8
BLACK
6
CONTINUOUS
10
157.827
20
-126.101
11
157.845
21
-126.086
0
LINE
8
BLACK
6
CONTINUOUS
10
157.845
20
-126.086
11
157.847
21
-126.086
0
LINE
8
BLACK
6
CONTINUOUS
10
157.847
20
-126.086
11
157.848
21
-126.084
0
LINE
8
BLACK
6
CONTINUOUS
10
157.848
20
-126.084
11
158.848
21
-125.751
0
LINE
8
BLACK
6
CONTINUOUS
10
158.848
20
-125.751
11
158.874
21
-125.747
0
LINE
8
BLACK
6
CONTINUOUS
10
158.874
20
-125.747
11
158.922
21
-125.766
0
LINE
8
BLACK
6
CONTINUOUS
10
158.109
20
-126.155
11
158.511
21
-126.289
0
LINE
8
BLACK
6
CONTINUOUS
10
158.511
20
-126.289
11
158.511
21
-126.021
0
LINE
8
BLACK
6
CONTINUOUS
10
158.511
20
-126.021
11
158.109
21
-126.155
0
LINE
8
BLACK
6
CONTINUOUS
10
134.97
20
-125.283
11
135.004
21
-125.296
0
LINE
8
BLACK
6
CONTINUOUS
10
135.004
20
-125.296
11
135.007
21
-125.3
0
LINE
8
BLACK
6
CONTINUOUS
10
135.007
20
-125.3
11
135.012
21
-125.302
0
LINE
8
BLACK
6
CONTINUOUS
10
135.012
20
-125.302
11
135.032
21
-125.326
0
LINE
8
BLACK
6
CONTINUOUS
10
135.032
20
-125.326
11
135.053
21
-125.348
0
LINE
8
BLACK
6
CONTINUOUS
10
135.053
20
-125.348
11
135.054
21
-125.353
0
LINE
8
BLACK
6
CONTINUOUS
10
135.054
20
-125.353
11
135.057
21
-125.357
0
LINE
8
BLACK
6
CONTINUOUS
10
135.057
20
-125.357
11
135.061
21
-125.388
0
LINE
8
BLACK
6
CONTINUOUS
10
135.061
20
-125.388
11
135.067
21
-125.418
0
LINE
8
BLACK
6
CONTINUOUS
10
135.067
20
-125.418
11
135.065
21
-125.423
0
LINE
8
BLACK
6
CONTINUOUS
10
135.065
20
-125.423
11
135.066
21
-125.428
0
LINE
8
BLACK
6
CONTINUOUS
10
135.066
20
-125.428
11
135.052
21
-125.456
0
LINE
8
BLACK
6
CONTINUOUS
10
135.052
20
-125.456
11
135.041
21
-125.485
0
LINE
8
BLACK
6
CONTINUOUS
10
135.041
20
-125.485
11
135.037
21
-125.488
0
LINE
8
BLACK
6
CONTINUOUS
10
135.037
20
-125.488
11
135.034
21
-125.492
0
LINE
8
BLACK
6
CONTINUOUS
10
135.034
20
-125.492
11
135.008
21
-125.508
0
LINE
8
BLACK
6
CONTINUOUS
10
135.008
20
-125.508
11
134.983
21
-125.526
0
LINE
8
BLACK
6
CONTINUOUS
10
134.983
20
-125.526
11
134.978
21
-125.527
0
LINE
8
BLACK
6
CONTINUOUS
10
134.978
20
-125.527
11
134.973
21
-125.529
0
LINE
8
BLACK
6
CONTINUOUS
10
134.973
20
-125.529
11
134.526
21
-125.648
0
LINE
8
BLACK
6
CONTINUOUS
10
134.526
20
-125.648
11
134.973
21
-125.768
0
LINE
8
BLACK
6
CONTINUOUS
10
134.973
20
-125.768
11
135.007
21
-125.782
0
LINE
8
BLACK
6
CONTINUOUS
10
135.007
20
-125.782
11
135.01
21
-125.786
0
LINE
8
BLACK
6
CONTINUOUS
10
135.01
20
-125.786
11
135.015
21
-125.787
0
LINE
8
BLACK
6
CONTINUOUS
10
135.015
20
-125.787
11
135.034
21
-125.812
0
LINE
8
BLACK
6
CONTINUOUS
10
135.034
20
-125.812
11
135.055
21
-125.835
0
LINE
8
BLACK
6
CONTINUOUS
10
135.055
20
-125.835
11
135.056
21
-125.84
0
LINE
8
BLACK
6
CONTINUOUS
10
135.056
20
-125.84
11
135.059
21
-125.844
0
LINE
8
BLACK
6
CONTINUOUS
10
135.059
20
-125.844
11
135.061
21
-125.875
0
LINE
8
BLACK
6
CONTINUOUS
10
135.061
20
-125.875
11
135.067
21
-125.905
0
LINE
8
BLACK
6
CONTINUOUS
10
135.067
20
-125.905
11
135.065
21
-125.91
0
LINE
8
BLACK
6
CONTINUOUS
10
135.065
20
-125.91
11
135.065
21
-125.915
0
LINE
8
BLACK
6
CONTINUOUS
10
135.065
20
-125.915
11
135.051
21
-125.943
0
LINE
8
BLACK
6
CONTINUOUS
10
135.051
20
-125.943
11
135.038
21
-125.971
0
LINE
8
BLACK
6
CONTINUOUS
10
135.038
20
-125.971
11
135.034
21
-125.974
0
LINE
8
BLACK
6
CONTINUOUS
10
135.034
20
-125.974
11
135.032
21
-125.978
0
LINE
8
BLACK
6
CONTINUOUS
10
135.032
20
-125.978
11
135.005
21
-125.994
0
LINE
8
BLACK
6
CONTINUOUS
10
135.005
20
-125.994
11
134.979
21
-126.011
0
LINE
8
BLACK
6
CONTINUOUS
10
134.979
20
-126.011
11
134.974
21
-126.011
0
LINE
8
BLACK
6
CONTINUOUS
10
134.974
20
-126.011
11
134.97
21
-126.014
0
LINE
8
BLACK
6
CONTINUOUS
10
134.97
20
-126.014
11
133.7
21
-126.316
0
LINE
8
BLACK
6
CONTINUOUS
10
133.7
20
-126.316
11
133.664
21
-126.319
0
LINE
8
BLACK
6
CONTINUOUS
10
133.664
20
-126.319
11
133.596
21
-126.296
0
LINE
8
BLACK
6
CONTINUOUS
10
133.596
20
-126.296
11
133.552
21
-126.239
0
LINE
8
BLACK
6
CONTINUOUS
10
133.552
20
-126.239
11
133.546
21
-126.168
0
LINE
8
BLACK
6
CONTINUOUS
10
133.546
20
-126.168
11
133.579
21
-126.105
0
LINE
8
BLACK
6
CONTINUOUS
10
133.579
20
-126.105
11
133.641
21
-126.069
0
LINE
8
BLACK
6
CONTINUOUS
10
133.641
20
-126.069
11
134.421
21
-125.883
0
LINE
8
BLACK
6
CONTINUOUS
10
134.421
20
-125.883
11
134.001
21
-125.771
0
LINE
8
BLACK
6
CONTINUOUS
10
134.001
20
-125.771
11
133.967
21
-125.757
0
LINE
8
BLACK
6
CONTINUOUS
10
133.967
20
-125.757
11
133.965
21
-125.754
0
LINE
8
BLACK
6
CONTINUOUS
10
133.965
20
-125.754
11
133.962
21
-125.753
0
LINE
8
BLACK
6
CONTINUOUS
10
133.962
20
-125.753
11
133.941
21
-125.728
0
LINE
8
BLACK
6
CONTINUOUS
10
133.941
20
-125.728
11
133.919
21
-125.704
0
LINE
8
BLACK
6
CONTINUOUS
10
133.919
20
-125.704
11
133.919
21
-125.701
0
LINE
8
BLACK
6
CONTINUOUS
10
133.919
20
-125.701
11
133.917
21
-125.698
0
LINE
8
BLACK
6
CONTINUOUS
10
133.917
20
-125.698
11
133.913
21
-125.666
0
LINE
8
BLACK
6
CONTINUOUS
10
133.913
20
-125.666
11
133.907
21
-125.633
0
LINE
8
BLACK
6
CONTINUOUS
10
133.907
20
-125.633
11
133.909
21
-125.63
0
LINE
8
BLACK
6
CONTINUOUS
10
133.909
20
-125.63
11
133.908
21
-125.627
0
LINE
8
BLACK
6
CONTINUOUS
10
133.908
20
-125.627
11
133.923
21
-125.598
0
LINE
8
BLACK
6
CONTINUOUS
10
133.923
20
-125.598
11
133.935
21
-125.568
0
LINE
8
BLACK
6
CONTINUOUS
10
133.935
20
-125.568
11
133.938
21
-125.566
0
LINE
8
BLACK
6
CONTINUOUS
10
133.938
20
-125.566
11
133.94
21
-125.563
0
LINE
8
BLACK
6
CONTINUOUS
10
133.94
20
-125.563
11
133.968
21
-125.546
0
LINE
8
BLACK
6
CONTINUOUS
10
133.968
20
-125.546
11
133.995
21
-125.527
0
LINE
8
BLACK
6
CONTINUOUS
10
133.995
20
-125.527
11
133.998
21
-125.527
0
LINE
8
BLACK
6
CONTINUOUS
10
133.998
20
-125.527
11
134.001
21
-125.526
0
LINE
8
BLACK
6
CONTINUOUS
10
134.001
20
-125.526
11
134.421
21
-125.413
0
LINE
8
BLACK
6
CONTINUOUS
10
134.421
20
-125.413
11
133.641
21
-125.228
0
LINE
8
BLACK
6
CONTINUOUS
10
133.641
20
-125.228
11
133.607
21
-125.214
0
LINE
8
BLACK
6
CONTINUOUS
10
133.607
20
-125.214
11
133.558
21
-125.163
0
LINE
8
BLACK
6
CONTINUOUS
10
133.558
20
-125.163
11
133.544
21
-125.092
0
LINE
8
BLACK
6
CONTINUOUS
10
133.544
20
-125.092
11
133.57
21
-125.026
0
LINE
8
BLACK
6
CONTINUOUS
10
133.57
20
-125.026
11
133.629
21
-124.984
0
LINE
8
BLACK
6
CONTINUOUS
10
133.629
20
-124.984
11
133.7
21
-124.981
0
LINE
8
BLACK
6
CONTINUOUS
10
133.7
20
-124.981
11
134.97
21
-125.283
0
LINE
8
BLACK
6
CONTINUOUS
10
158.93
20
-124.917
11
158.947
21
-124.965
0
LINE
8
BLACK
6
CONTINUOUS
10
158.947
20
-124.965
11
158.947
21
-125.536
0
LINE
8
BLACK
6
CONTINUOUS
10
158.947
20
-125.536
11
158.943
21
-125.562
0
LINE
8
BLACK
6
CONTINUOUS
10
158.943
20
-125.562
11
158.91
21
-125.601
0
LINE
8
BLACK
6
CONTINUOUS
10
158.91
20
-125.601
11
158.859
21
-125.61
0
LINE
8
BLACK
6
CONTINUOUS
10
158.859
20
-125.61
11
158.815
21
-125.585
0
LINE
8
BLACK
6
CONTINUOUS
10
158.815
20
-125.585
11
158.797
21
-125.536
0
LINE
8
BLACK
6
CONTINUOUS
10
158.797
20
-125.536
11
158.797
21
-125.326
0
LINE
8
BLACK
6
CONTINUOUS
10
158.797
20
-125.326
11
158.101
21
-125.326
0
LINE
8
BLACK
6
CONTINUOUS
10
158.101
20
-125.326
11
158.163
21
-125.388
0
LINE
8
BLACK
6
CONTINUOUS
10
158.163
20
-125.388
11
158.176
21
-125.406
0
LINE
8
BLACK
6
CONTINUOUS
10
158.176
20
-125.406
11
158.177
21
-125.408
0
LINE
8
BLACK
6
CONTINUOUS
10
158.177
20
-125.408
11
158.225
21
-125.503
0
LINE
8
BLACK
6
CONTINUOUS
10
158.225
20
-125.503
11
158.232
21
-125.528
0
LINE
8
BLACK
6
CONTINUOUS
10
158.232
20
-125.528
11
158.22
21
-125.578
0
LINE
8
BLACK
6
CONTINUOUS
10
158.22
20
-125.578
11
158.179
21
-125.608
0
LINE
8
BLACK
6
CONTINUOUS
10
158.179
20
-125.608
11
158.128
21
-125.605
0
LINE
8
BLACK
6
CONTINUOUS
10
158.128
20
-125.605
11
158.091
21
-125.57
0
LINE
8
BLACK
6
CONTINUOUS
10
158.091
20
-125.57
11
158.049
21
-125.486
0
LINE
8
BLACK
6
CONTINUOUS
10
158.049
20
-125.486
11
157.967
21
-125.404
0
LINE
8
BLACK
6
CONTINUOUS
10
157.967
20
-125.404
11
157.831
21
-125.313
0
LINE
8
BLACK
6
CONTINUOUS
10
157.831
20
-125.313
11
157.812
21
-125.295
0
LINE
8
BLACK
6
CONTINUOUS
10
157.812
20
-125.295
11
157.811
21
-125.291
0
LINE
8
BLACK
6
CONTINUOUS
10
157.811
20
-125.291
11
157.807
21
-125.288
0
LINE
8
BLACK
6
CONTINUOUS
10
157.807
20
-125.288
11
157.803
21
-125.267
0
LINE
8
BLACK
6
CONTINUOUS
10
157.803
20
-125.267
11
157.797
21
-125.246
0
LINE
8
BLACK
6
CONTINUOUS
10
157.797
20
-125.246
11
157.799
21
-125.242
0
LINE
8
BLACK
6
CONTINUOUS
10
157.799
20
-125.242
11
157.798
21
-125.238
0
LINE
8
BLACK
6
CONTINUOUS
10
157.798
20
-125.238
11
157.809
21
-125.219
0
LINE
8
BLACK
6
CONTINUOUS
10
157.809
20
-125.219
11
157.818
21
-125.199
0
LINE
8
BLACK
6
CONTINUOUS
10
157.818
20
-125.199
11
157.822
21
-125.197
0
LINE
8
BLACK
6
CONTINUOUS
10
157.822
20
-125.197
11
157.824
21
-125.193
0
LINE
8
BLACK
6
CONTINUOUS
10
157.824
20
-125.193
11
157.844
21
-125.186
0
LINE
8
BLACK
6
CONTINUOUS
10
157.844
20
-125.186
11
157.864
21
-125.176
0
LINE
8
BLACK
6
CONTINUOUS
10
157.864
20
-125.176
11
157.868
21
-125.177
0
LINE
8
BLACK
6
CONTINUOUS
10
157.868
20
-125.177
11
157.872
21
-125.176
0
LINE
8
BLACK
6
CONTINUOUS
10
157.872
20
-125.176
11
158.797
21
-125.176
0
LINE
8
BLACK
6
CONTINUOUS
10
158.797
20
-125.176
11
158.797
21
-124.965
0
LINE
8
BLACK
6
CONTINUOUS
10
158.797
20
-124.965
11
158.802
21
-124.939
0
LINE
8
BLACK
6
CONTINUOUS
10
158.802
20
-124.939
11
158.835
21
-124.9
0
LINE
8
BLACK
6
CONTINUOUS
10
158.835
20
-124.9
11
158.885
21
-124.891
0
LINE
8
BLACK
6
CONTINUOUS
10
158.885
20
-124.891
11
158.93
21
-124.917
0
LINE
8
BLACK
6
CONTINUOUS
10
134.069
20
-123.833
11
134.071
21
-123.835
0
LINE
8
BLACK
6
CONTINUOUS
10
134.071
20
-123.835
11
134.074
21
-123.835
0
LINE
8
BLACK
6
CONTINUOUS
10
134.074
20
-123.835
11
134.255
21
-123.895
0
LINE
8
BLACK
6
CONTINUOUS
10
134.255
20
-123.895
11
134.288
21
-123.911
0
LINE
8
BLACK
6
CONTINUOUS
10
134.288
20
-123.911
11
134.295
21
-123.92
0
LINE
8
BLACK
6
CONTINUOUS
10
134.295
20
-123.92
11
134.305
21
-123.926
0
LINE
8
BLACK
6
CONTINUOUS
10
134.305
20
-123.926
11
134.814
21
-124.435
0
LINE
8
BLACK
6
CONTINUOUS
10
134.814
20
-124.435
11
134.814
21
-123.955
0
LINE
8
BLACK
6
CONTINUOUS
10
134.814
20
-123.955
11
134.819
21
-123.919
0
LINE
8
BLACK
6
CONTINUOUS
10
134.819
20
-123.919
11
134.858
21
-123.859
0
LINE
8
BLACK
6
CONTINUOUS
10
134.858
20
-123.859
11
134.923
21
-123.829
0
LINE
8
BLACK
6
CONTINUOUS
10
134.923
20
-123.829
11
134.993
21
-123.84
0
LINE
8
BLACK
6
CONTINUOUS
10
134.993
20
-123.84
11
135.047
21
-123.886
0
LINE
8
BLACK
6
CONTINUOUS
10
135.047
20
-123.886
11
135.068
21
-123.955
0
LINE
8
BLACK
6
CONTINUOUS
10
135.068
20
-123.955
11
135.068
21
-124.741
0
LINE
8
BLACK
6
CONTINUOUS
10
135.068
20
-124.741
11
135.067
21
-124.748
0
LINE
8
BLACK
6
CONTINUOUS
10
135.067
20
-124.748
11
135.067
21
-124.751
0
LINE
8
BLACK
6
CONTINUOUS
10
135.067
20
-124.751
11
135.066
21
-124.755
0
LINE
8
BLACK
6
CONTINUOUS
10
135.066
20
-124.755
11
135.062
21
-124.777
0
LINE
8
BLACK
6
CONTINUOUS
10
135.062
20
-124.777
11
135.05
21
-124.796
0
LINE
8
BLACK
6
CONTINUOUS
10
135.05
20
-124.796
11
135.042
21
-124.818
0
LINE
8
BLACK
6
CONTINUOUS
10
135.042
20
-124.818
11
135.031
21
-124.826
0
LINE
8
BLACK
6
CONTINUOUS
10
135.031
20
-124.826
11
135.024
21
-124.837
0
LINE
8
BLACK
6
CONTINUOUS
10
135.024
20
-124.837
11
135.003
21
-124.847
0
LINE
8
BLACK
6
CONTINUOUS
10
135.003
20
-124.847
11
134.985
21
-124.86
0
LINE
8
BLACK
6
CONTINUOUS
10
134.985
20
-124.86
11
134.971
21
-124.861
0
LINE
8
BLACK
6
CONTINUOUS
10
134.971
20
-124.861
11
134.958
21
-124.867
0
LINE
8
BLACK
6
CONTINUOUS
10
134.958
20
-124.867
11
134.936
21
-124.864
0
LINE
8
BLACK
6
CONTINUOUS
10
134.936
20
-124.864
11
134.913
21
-124.865
0
LINE
8
BLACK
6
CONTINUOUS
10
134.913
20
-124.865
11
134.901
21
-124.859
0
LINE
8
BLACK
6
CONTINUOUS
10
134.901
20
-124.859
11
134.888
21
-124.857
0
LINE
8
BLACK
6
CONTINUOUS
10
134.888
20
-124.857
11
134.871
21
-124.842
0
LINE
8
BLACK
6
CONTINUOUS
10
134.871
20
-124.842
11
134.851
21
-124.831
0
LINE
8
BLACK
6
CONTINUOUS
10
134.851
20
-124.831
11
134.146
21
-124.127
0
LINE
8
BLACK
6
CONTINUOUS
10
134.146
20
-124.127
11
134.013
21
-124.082
0
LINE
8
BLACK
6
CONTINUOUS
10
134.013
20
-124.082
11
133.942
21
-124.082
0
LINE
8
BLACK
6
CONTINUOUS
10
133.942
20
-124.082
11
133.867
21
-124.12
0
LINE
8
BLACK
6
CONTINUOUS
10
133.867
20
-124.12
11
133.835
21
-124.151
0
LINE
8
BLACK
6
CONTINUOUS
10
133.835
20
-124.151
11
133.798
21
-124.227
0
LINE
8
BLACK
6
CONTINUOUS
10
133.798
20
-124.227
11
133.798
21
-124.469
0
LINE
8
BLACK
6
CONTINUOUS
10
133.798
20
-124.469
11
133.835
21
-124.545
0
LINE
8
BLACK
6
CONTINUOUS
10
133.835
20
-124.545
11
133.881
21
-124.591
0
LINE
8
BLACK
6
CONTINUOUS
10
133.881
20
-124.591
11
133.903
21
-124.62
0
LINE
8
BLACK
6
CONTINUOUS
10
133.903
20
-124.62
11
133.918
21
-124.69
0
LINE
8
BLACK
6
CONTINUOUS
10
133.918
20
-124.69
11
133.893
21
-124.757
0
LINE
8
BLACK
6
CONTINUOUS
10
133.893
20
-124.757
11
133.836
21
-124.8
0
LINE
8
BLACK
6
CONTINUOUS
10
133.836
20
-124.8
11
133.764
21
-124.805
0
LINE
8
BLACK
6
CONTINUOUS
10
133.764
20
-124.805
11
133.702
21
-124.771
0
LINE
8
BLACK
6
CONTINUOUS
10
133.702
20
-124.771
11
133.641
21
-124.71
0
LINE
8
BLACK
6
CONTINUOUS
10
133.641
20
-124.71
11
133.619
21
-124.681
0
LINE
8
BLACK
6
CONTINUOUS
10
133.619
20
-124.681
11
133.619
21
-124.679
0
LINE
8
BLACK
6
CONTINUOUS
10
133.619
20
-124.679
11
133.617
21
-124.677
0
LINE
8
BLACK
6
CONTINUOUS
10
133.617
20
-124.677
11
133.557
21
-124.556
0
LINE
8
BLACK
6
CONTINUOUS
10
133.557
20
-124.556
11
133.545
21
-124.522
0
LINE
8
BLACK
6
CONTINUOUS
10
133.545
20
-124.522
11
133.547
21
-124.51
0
LINE
8
BLACK
6
CONTINUOUS
10
133.547
20
-124.51
11
133.544
21
-124.499
0
LINE
8
BLACK
6
CONTINUOUS
10
133.544
20
-124.499
11
133.544
21
-124.197
0
LINE
8
BLACK
6
CONTINUOUS
10
133.544
20
-124.197
11
133.549
21
-124.161
0
LINE
8
BLACK
6
CONTINUOUS
10
133.549
20
-124.161
11
133.555
21
-124.151
0
LINE
8
BLACK
6
CONTINUOUS
10
133.555
20
-124.151
11
133.557
21
-124.14
0
LINE
8
BLACK
6
CONTINUOUS
10
133.557
20
-124.14
11
133.617
21
-124.019
0
LINE
8
BLACK
6
CONTINUOUS
10
133.617
20
-124.019
11
133.638
21
-123.989
0
LINE
8
BLACK
6
CONTINUOUS
10
133.638
20
-123.989
11
133.64
21
-123.988
0
LINE
8
BLACK
6
CONTINUOUS
10
133.64
20
-123.988
11
133.641
21
-123.986
0
LINE
8
BLACK
6
CONTINUOUS
10
133.641
20
-123.986
11
133.702
21
-123.926
0
LINE
8
BLACK
6
CONTINUOUS
10
133.702
20
-123.926
11
133.731
21
-123.904
0
LINE
8
BLACK
6
CONTINUOUS
10
133.731
20
-123.904
11
133.733
21
-123.903
0
LINE
8
BLACK
6
CONTINUOUS
10
133.733
20
-123.903
11
133.735
21
-123.902
0
LINE
8
BLACK
6
CONTINUOUS
10
133.735
20
-123.902
11
133.856
21
-123.841
0
LINE
8
BLACK
6
CONTINUOUS
10
133.856
20
-123.841
11
133.89
21
-123.83
0
LINE
8
BLACK
6
CONTINUOUS
10
133.89
20
-123.83
11
133.902
21
-123.831
0
LINE
8
BLACK
6
CONTINUOUS
10
133.902
20
-123.831
11
133.912
21
-123.828
0
LINE
8
BLACK
6
CONTINUOUS
10
133.912
20
-123.828
11
134.033
21
-123.828
0
LINE
8
BLACK
6
CONTINUOUS
10
134.033
20
-123.828
11
134.069
21
-123.833
0
LINE
8
BLACK
6
CONTINUOUS
10
148.457
20
-106.224
11
148.497
21
-106.257
0
LINE
8
BLACK
6
CONTINUOUS
10
148.497
20
-106.257
11
148.506
21
-106.308
0
LINE
8
BLACK
6
CONTINUOUS
10
148.506
20
-106.308
11
148.48
21
-106.352
0
LINE
8
BLACK
6
CONTINUOUS
10
148.48
20
-106.352
11
148.432
21
-106.37
0
LINE
8
BLACK
6
CONTINUOUS
10
148.432
20
-106.37
11
148.023
21
-106.37
0
LINE
8
BLACK
6
CONTINUOUS
10
148.023
20
-106.37
11
147.999
21
-106.618
0
LINE
8
BLACK
6
CONTINUOUS
10
147.999
20
-106.618
11
148.017
21
-106.609
0
LINE
8
BLACK
6
CONTINUOUS
10
148.017
20
-106.609
11
148.042
21
-106.601
0
LINE
8
BLACK
6
CONTINUOUS
10
148.042
20
-106.601
11
148.047
21
-106.602
0
LINE
8
BLACK
6
CONTINUOUS
10
148.047
20
-106.602
11
148.051
21
-106.601
0
LINE
8
BLACK
6
CONTINUOUS
10
148.051
20
-106.601
11
148.289
21
-106.601
0
LINE
8
BLACK
6
CONTINUOUS
10
148.289
20
-106.601
11
148.315
21
-106.605
0
LINE
8
BLACK
6
CONTINUOUS
10
148.315
20
-106.605
11
148.318
21
-106.608
0
LINE
8
BLACK
6
CONTINUOUS
10
148.318
20
-106.608
11
148.322
21
-106.609
0
LINE
8
BLACK
6
CONTINUOUS
10
148.322
20
-106.609
11
148.418
21
-106.656
0
LINE
8
BLACK
6
CONTINUOUS
10
148.418
20
-106.656
11
148.436
21
-106.67
0
LINE
8
BLACK
6
CONTINUOUS
10
148.436
20
-106.67
11
148.437
21
-106.67
0
LINE
8
BLACK
6
CONTINUOUS
10
148.437
20
-106.67
11
148.485
21
-106.718
0
LINE
8
BLACK
6
CONTINUOUS
10
148.485
20
-106.718
11
148.498
21
-106.736
0
LINE
8
BLACK
6
CONTINUOUS
10
148.498
20
-106.736
11
148.499
21
-106.737
0
LINE
8
BLACK
6
CONTINUOUS
10
148.499
20
-106.737
11
148.546
21
-106.833
0
LINE
8
BLACK
6
CONTINUOUS
10
148.546
20
-106.833
11
148.554
21
-106.858
0
LINE
8
BLACK
6
CONTINUOUS
10
148.554
20
-106.858
11
148.553
21
-106.862
0
LINE
8
BLACK
6
CONTINUOUS
10
148.553
20
-106.862
11
148.554
21
-106.866
0
LINE
8
BLACK
6
CONTINUOUS
10
148.554
20
-106.866
11
148.554
21
-107.104
0
LINE
8
BLACK
6
CONTINUOUS
10
148.554
20
-107.104
11
148.55
21
-107.13
0
LINE
8
BLACK
6
CONTINUOUS
10
148.55
20
-107.13
11
148.547
21
-107.133
0
LINE
8
BLACK
6
CONTINUOUS
10
148.547
20
-107.133
11
148.546
21
-107.138
0
LINE
8
BLACK
6
CONTINUOUS
10
148.546
20
-107.138
11
148.499
21
-107.233
0
LINE
8
BLACK
6
CONTINUOUS
10
148.499
20
-107.233
11
148.485
21
-107.251
0
LINE
8
BLACK
6
CONTINUOUS
10
148.485
20
-107.251
11
148.485
21
-107.253
0
LINE
8
BLACK
6
CONTINUOUS
10
148.485
20
-107.253
11
148.437
21
-107.3
0
LINE
8
BLACK
6
CONTINUOUS
10
148.437
20
-107.3
11
148.419
21
-107.313
0
LINE
8
BLACK
6
CONTINUOUS
10
148.419
20
-107.313
11
148.418
21
-107.314
0
LINE
8
BLACK
6
CONTINUOUS
10
148.418
20
-107.314
11
148.322
21
-107.362
0
LINE
8
BLACK
6
CONTINUOUS
10
148.322
20
-107.362
11
148.297
21
-107.369
0
LINE
8
BLACK
6
CONTINUOUS
10
148.297
20
-107.369
11
148.293
21
-107.368
0
LINE
8
BLACK
6
CONTINUOUS
10
148.293
20
-107.368
11
148.289
21
-107.37
0
LINE
8
BLACK
6
CONTINUOUS
10
148.289
20
-107.37
11
148.051
21
-107.37
0
LINE
8
BLACK
6
CONTINUOUS
10
148.051
20
-107.37
11
148.025
21
-107.365
0
LINE
8
BLACK
6
CONTINUOUS
10
148.025
20
-107.365
11
148.022
21
-107.362
0
LINE
8
BLACK
6
CONTINUOUS
10
148.022
20
-107.362
11
148.017
21
-107.362
0
LINE
8
BLACK
6
CONTINUOUS
10
148.017
20
-107.362
11
147.922
21
-107.314
0
LINE
8
BLACK
6
CONTINUOUS
10
147.922
20
-107.314
11
147.904
21
-107.301
0
LINE
8
BLACK
6
CONTINUOUS
10
147.904
20
-107.301
11
147.903
21
-107.3
0
LINE
8
BLACK
6
CONTINUOUS
10
147.903
20
-107.3
11
147.855
21
-107.253
0
LINE
8
BLACK
6
CONTINUOUS
10
147.855
20
-107.253
11
147.84
21
-107.231
0
LINE
8
BLACK
6
CONTINUOUS
10
147.84
20
-107.231
11
147.836
21
-107.18
0
LINE
8
BLACK
6
CONTINUOUS
10
147.836
20
-107.18
11
147.865
21
-107.138
0
LINE
8
BLACK
6
CONTINUOUS
10
147.865
20
-107.138
11
147.914
21
-107.125
0
LINE
8
BLACK
6
CONTINUOUS
10
147.914
20
-107.125
11
147.961
21
-107.147
0
LINE
8
BLACK
6
CONTINUOUS
10
147.961
20
-107.147
11
148
21
-107.186
0
LINE
8
BLACK
6
CONTINUOUS
10
148
20
-107.186
11
148.069
21
-107.22
0
LINE
8
BLACK
6
CONTINUOUS
10
148.069
20
-107.22
11
148.271
21
-107.22
0
LINE
8
BLACK
6
CONTINUOUS
10
148.271
20
-107.22
11
148.34
21
-107.186
0
LINE
8
BLACK
6
CONTINUOUS
10
148.34
20
-107.186
11
148.37
21
-107.155
0
LINE
8
BLACK
6
CONTINUOUS
10
148.37
20
-107.155
11
148.404
21
-107.087
0
LINE
8
BLACK
6
CONTINUOUS
10
148.404
20
-107.087
11
148.404
21
-106.884
0
LINE
8
BLACK
6
CONTINUOUS
10
148.404
20
-106.884
11
148.37
21
-106.815
0
LINE
8
BLACK
6
CONTINUOUS
10
148.37
20
-106.815
11
148.34
21
-106.785
0
LINE
8
BLACK
6
CONTINUOUS
10
148.34
20
-106.785
11
148.271
21
-106.751
0
LINE
8
BLACK
6
CONTINUOUS
10
148.271
20
-106.751
11
148.069
21
-106.751
0
LINE
8
BLACK
6
CONTINUOUS
10
148.069
20
-106.751
11
148
21
-106.785
0
LINE
8
BLACK
6
CONTINUOUS
10
148
20
-106.785
11
147.961
21
-106.824
0
LINE
8
BLACK
6
CONTINUOUS
10
147.961
20
-106.824
11
147.94
21
-106.839
0
LINE
8
BLACK
6
CONTINUOUS
10
147.94
20
-106.839
11
147.939
21
-106.839
0
LINE
8
BLACK
6
CONTINUOUS
10
147.939
20
-106.839
11
147.939
21
-106.839
0
LINE
8
BLACK
6
CONTINUOUS
10
147.939
20
-106.839
11
147.914
21
-106.841
0
LINE
8
BLACK
6
CONTINUOUS
10
147.914
20
-106.841
11
147.889
21
-106.843
0
LINE
8
BLACK
6
CONTINUOUS
10
147.889
20
-106.843
11
147.888
21
-106.843
0
LINE
8
BLACK
6
CONTINUOUS
10
147.888
20
-106.843
11
147.888
21
-106.843
0
LINE
8
BLACK
6
CONTINUOUS
10
147.888
20
-106.843
11
147.867
21
-106.828
0
LINE
8
BLACK
6
CONTINUOUS
10
147.867
20
-106.828
11
147.847
21
-106.814
0
LINE
8
BLACK
6
CONTINUOUS
10
147.847
20
-106.814
11
147.846
21
-106.814
0
LINE
8
BLACK
6
CONTINUOUS
10
147.846
20
-106.814
11
147.846
21
-106.813
0
LINE
8
BLACK
6
CONTINUOUS
10
147.846
20
-106.813
11
147.84
21
-106.789
0
LINE
8
BLACK
6
CONTINUOUS
10
147.84
20
-106.789
11
147.833
21
-106.764
0
LINE
8
BLACK
6
CONTINUOUS
10
147.833
20
-106.764
11
147.833
21
-106.764
0
LINE
8
BLACK
6
CONTINUOUS
10
147.833
20
-106.764
11
147.833
21
-106.764
0
LINE
8
BLACK
6
CONTINUOUS
10
147.833
20
-106.764
11
147.881
21
-106.287
0
LINE
8
BLACK
6
CONTINUOUS
10
147.881
20
-106.287
11
147.882
21
-106.284
0
LINE
8
BLACK
6
CONTINUOUS
10
147.882
20
-106.284
11
147.882
21
-106.282
0
LINE
8
BLACK
6
CONTINUOUS
10
147.882
20
-106.282
11
147.883
21
-106.279
0
LINE
8
BLACK
6
CONTINUOUS
10
147.883
20
-106.279
11
147.888
21
-106.262
0
LINE
8
BLACK
6
CONTINUOUS
10
147.888
20
-106.262
11
147.899
21
-106.251
0
LINE
8
BLACK
6
CONTINUOUS
10
147.899
20
-106.251
11
147.907
21
-106.237
0
LINE
8
BLACK
6
CONTINUOUS
10
147.907
20
-106.237
11
147.917
21
-106.234
0
LINE
8
BLACK
6
CONTINUOUS
10
147.917
20
-106.234
11
147.925
21
-106.226
0
LINE
8
BLACK
6
CONTINUOUS
10
147.925
20
-106.226
11
147.941
21
-106.225
0
LINE
8
BLACK
6
CONTINUOUS
10
147.941
20
-106.225
11
147.956
21
-106.22
0
LINE
8
BLACK
6
CONTINUOUS
10
147.956
20
-106.22
11
148.432
21
-106.22
0
LINE
8
BLACK
6
CONTINUOUS
10
148.432
20
-106.22
11
148.457
21
-106.224
0
LINE
8
BLACK
6
CONTINUOUS
10
147.537
20
-106.247
11
147.554
21
-106.295
0
LINE
8
BLACK
6
CONTINUOUS
10
147.554
20
-106.295
11
147.554
21
-107.009
0
LINE
8
BLACK
6
CONTINUOUS
10
147.554
20
-107.009
11
147.55
21
-107.031
0
LINE
8
BLACK
6
CONTINUOUS
10
147.55
20
-107.031
11
147.551
21
-107.033
0
LINE
8
BLACK
6
CONTINUOUS
10
147.551
20
-107.033
11
147.503
21
-107.176
0
LINE
8
BLACK
6
CONTINUOUS
10
147.503
20
-107.176
11
147.491
21
-107.199
0
LINE
8
BLACK
6
CONTINUOUS
10
147.491
20
-107.199
11
147.487
21
-107.201
0
LINE
8
BLACK
6
CONTINUOUS
10
147.487
20
-107.201
11
147.485
21
-107.205
0
LINE
8
BLACK
6
CONTINUOUS
10
147.485
20
-107.205
11
147.39
21
-107.3
0
LINE
8
BLACK
6
CONTINUOUS
10
147.39
20
-107.3
11
147.368
21
-107.315
0
LINE
8
BLACK
6
CONTINUOUS
10
147.368
20
-107.315
11
147.364
21
-107.316
0
LINE
8
BLACK
6
CONTINUOUS
10
147.364
20
-107.316
11
147.36
21
-107.318
0
LINE
8
BLACK
6
CONTINUOUS
10
147.36
20
-107.318
11
147.217
21
-107.366
0
LINE
8
BLACK
6
CONTINUOUS
10
147.217
20
-107.366
11
147.195
21
-107.369
0
LINE
8
BLACK
6
CONTINUOUS
10
147.195
20
-107.369
11
147.194
21
-107.37
0
LINE
8
BLACK
6
CONTINUOUS
10
147.194
20
-107.37
11
147.098
21
-107.37
0
LINE
8
BLACK
6
CONTINUOUS
10
147.098
20
-107.37
11
147.073
21
-107.365
0
LINE
8
BLACK
6
CONTINUOUS
10
147.073
20
-107.365
11
147.033
21
-107.332
0
LINE
8
BLACK
6
CONTINUOUS
10
147.033
20
-107.332
11
147.025
21
-107.282
0
LINE
8
BLACK
6
CONTINUOUS
10
147.025
20
-107.282
11
147.05
21
-107.237
0
LINE
8
BLACK
6
CONTINUOUS
10
147.05
20
-107.237
11
147.098
21
-107.22
0
LINE
8
BLACK
6
CONTINUOUS
10
147.098
20
-107.22
11
147.181
21
-107.22
0
LINE
8
BLACK
6
CONTINUOUS
10
147.181
20
-107.22
11
147.296
21
-107.182
0
LINE
8
BLACK
6
CONTINUOUS
10
147.296
20
-107.182
11
147.366
21
-107.111
0
LINE
8
BLACK
6
CONTINUOUS
10
147.366
20
-107.111
11
147.404
21
-106.997
0
LINE
8
BLACK
6
CONTINUOUS
10
147.404
20
-106.997
11
147.404
21
-106.295
0
LINE
8
BLACK
6
CONTINUOUS
10
147.404
20
-106.295
11
147.409
21
-106.269
0
LINE
8
BLACK
6
CONTINUOUS
10
147.409
20
-106.269
11
147.442
21
-106.23
0
LINE
8
BLACK
6
CONTINUOUS
10
147.442
20
-106.23
11
147.492
21
-106.221
0
LINE
8
BLACK
6
CONTINUOUS
10
147.492
20
-106.221
11
147.537
21
-106.247
0
LINE
8
BLACK
6
CONTINUOUS
10
178.18
20
-102.718
11
178.163
21
-102.676
0
LINE
8
BLACK
6
CONTINUOUS
10
178.163
20
-102.676
11
178.163
21
-87.376
0
LINE
8
BLACK
6
CONTINUOUS
10
178.163
20
-87.376
11
178.18
21
-87.3336
0
LINE
8
BLACK
6
CONTINUOUS
10
178.18
20
-87.3336
11
178.223
21
-87.316
0
LINE
8
BLACK
6
CONTINUOUS
10
178.223
20
-87.316
11
180.883
21
-87.316
0
LINE
8
BLACK
6
CONTINUOUS
10
180.883
20
-87.316
11
180.925
21
-87.3336
0
LINE
8
BLACK
6
CONTINUOUS
10
180.925
20
-87.3336
11
180.943
21
-87.376
0
LINE
8
BLACK
6
CONTINUOUS
10
180.943
20
-87.376
11
180.943
21
-102.676
0
LINE
8
BLACK
6
CONTINUOUS
10
180.943
20
-102.676
11
180.925
21
-102.718
0
LINE
8
BLACK
6
CONTINUOUS
10
180.925
20
-102.718
11
180.883
21
-102.736
0
LINE
8
BLACK
6
CONTINUOUS
10
180.883
20
-102.736
11
178.223
21
-102.736
0
LINE
8
BLACK
6
CONTINUOUS
10
178.223
20
-102.736
11
178.18
21
-102.718
0
LINE
8
BLACK
6
CONTINUOUS
10
178.283
20
-87.436
11
178.283
21
-102.616
0
LINE
8
BLACK
6
CONTINUOUS
10
178.283
20
-102.616
11
180.823
21
-102.616
0
LINE
8
BLACK
6
CONTINUOUS
10
180.823
20
-102.616
11
180.823
21
-87.436
0
LINE
8
BLACK
6
CONTINUOUS
10
180.823
20
-87.436
11
178.283
21
-87.436
0
LINE
8
BLACK
6
CONTINUOUS
10
156.799
20
-90.0339
11
156.801
21
-90.0338
0
LINE
8
BLACK
6
CONTINUOUS
10
156.801
20
-90.0338
11
156.944
21
-90.0814
0
LINE
8
BLACK
6
CONTINUOUS
10
156.944
20
-90.0814
11
156.967
21
-90.0939
0
LINE
8
BLACK
6
CONTINUOUS
10
156.967
20
-90.0939
11
156.969
21
-90.0977
0
LINE
8
BLACK
6
CONTINUOUS
10
156.969
20
-90.0977
11
156.973
21
-90.0996
0
LINE
8
BLACK
6
CONTINUOUS
10
156.973
20
-90.0996
11
157.069
21
-90.1948
0
LINE
8
BLACK
6
CONTINUOUS
10
157.069
20
-90.1948
11
157.081
21
-90.2132
0
LINE
8
BLACK
6
CONTINUOUS
10
157.081
20
-90.2132
11
157.083
21
-90.2143
0
LINE
8
BLACK
6
CONTINUOUS
10
157.083
20
-90.2143
11
157.13
21
-90.3095
0
LINE
8
BLACK
6
CONTINUOUS
10
157.13
20
-90.3095
11
157.134
21
-90.3219
0
LINE
8
BLACK
6
CONTINUOUS
10
157.134
20
-90.3219
11
157.136
21
-90.3249
0
LINE
8
BLACK
6
CONTINUOUS
10
157.136
20
-90.3249
11
157.183
21
-90.5154
0
LINE
8
BLACK
6
CONTINUOUS
10
157.183
20
-90.5154
11
157.185
21
-90.5303
0
LINE
8
BLACK
6
CONTINUOUS
10
157.185
20
-90.5303
11
157.186
21
-90.5336
0
LINE
8
BLACK
6
CONTINUOUS
10
157.186
20
-90.5336
11
157.186
21
-90.6764
0
LINE
8
BLACK
6
CONTINUOUS
10
157.186
20
-90.6764
11
157.183
21
-90.6912
0
LINE
8
BLACK
6
CONTINUOUS
10
157.183
20
-90.6912
11
157.183
21
-90.6946
0
LINE
8
BLACK
6
CONTINUOUS
10
157.183
20
-90.6946
11
157.136
21
-90.8851
0
LINE
8
BLACK
6
CONTINUOUS
10
157.136
20
-90.8851
11
157.131
21
-90.8969
0
LINE
8
BLACK
6
CONTINUOUS
10
157.131
20
-90.8969
11
157.13
21
-90.9004
0
LINE
8
BLACK
6
CONTINUOUS
10
157.13
20
-90.9004
11
157.083
21
-90.9957
0
LINE
8
BLACK
6
CONTINUOUS
10
157.083
20
-90.9957
11
157.069
21
-91.0137
0
LINE
8
BLACK
6
CONTINUOUS
10
157.069
20
-91.0137
11
157.069
21
-91.0152
0
LINE
8
BLACK
6
CONTINUOUS
10
157.069
20
-91.0152
11
156.973
21
-91.1104
0
LINE
8
BLACK
6
CONTINUOUS
10
156.973
20
-91.1104
11
156.952
21
-91.1253
0
LINE
8
BLACK
6
CONTINUOUS
10
156.952
20
-91.1253
11
156.947
21
-91.1257
0
LINE
8
BLACK
6
CONTINUOUS
10
156.947
20
-91.1257
11
156.944
21
-91.1285
0
LINE
8
BLACK
6
CONTINUOUS
10
156.944
20
-91.1285
11
156.801
21
-91.1761
0
LINE
8
BLACK
6
CONTINUOUS
10
156.801
20
-91.1761
11
156.779
21
-91.1794
0
LINE
8
BLACK
6
CONTINUOUS
10
156.779
20
-91.1794
11
156.777
21
-91.18
0
LINE
8
BLACK
6
CONTINUOUS
10
156.777
20
-91.18
11
156.539
21
-91.18
0
LINE
8
BLACK
6
CONTINUOUS
10
156.539
20
-91.18
11
156.53
21
-91.1783
0
LINE
8
BLACK
6
CONTINUOUS
10
156.53
20
-91.1783
11
156.526
21
-91.1788
0
LINE
8
BLACK
6
CONTINUOUS
10
156.526
20
-91.1788
11
156.523
21
-91.1772
0
LINE
8
BLACK
6
CONTINUOUS
10
156.523
20
-91.1772
11
156.514
21
-91.1755
0
LINE
8
BLACK
6
CONTINUOUS
10
156.514
20
-91.1755
11
156.499
21
-91.1629
0
LINE
8
BLACK
6
CONTINUOUS
10
156.499
20
-91.1629
11
156.482
21
-91.1532
0
LINE
8
BLACK
6
CONTINUOUS
10
156.482
20
-91.1532
11
156.48
21
-91.1468
0
LINE
8
BLACK
6
CONTINUOUS
10
156.48
20
-91.1468
11
156.474
21
-91.1425
0
LINE
8
BLACK
6
CONTINUOUS
10
156.474
20
-91.1425
11
156.471
21
-91.1233
0
LINE
8
BLACK
6
CONTINUOUS
10
156.471
20
-91.1233
11
156.464
21
-91.105
0
LINE
8
BLACK
6
CONTINUOUS
10
156.464
20
-91.105
11
156.464
21
-90.105
0
LINE
8
BLACK
6
CONTINUOUS
10
156.464
20
-90.105
11
156.466
21
-90.0952
0
LINE
8
BLACK
6
CONTINUOUS
10
156.466
20
-90.0952
11
156.465
21
-90.092
0
LINE
8
BLACK
6
CONTINUOUS
10
156.465
20
-90.092
11
156.467
21
-90.0891
0
LINE
8
BLACK
6
CONTINUOUS
10
156.467
20
-90.0891
11
156.469
21
-90.0793
0
LINE
8
BLACK
6
CONTINUOUS
10
156.469
20
-90.0793
11
156.481
21
-90.0644
0
LINE
8
BLACK
6
CONTINUOUS
10
156.481
20
-90.0644
11
156.491
21
-90.0475
0
LINE
8
BLACK
6
CONTINUOUS
10
156.491
20
-90.0475
11
156.497
21
-90.0452
0
LINE
8
BLACK
6
CONTINUOUS
10
156.497
20
-90.0452
11
156.502
21
-90.04
0
LINE
8
BLACK
6
CONTINUOUS
10
156.502
20
-90.04
11
156.521
21
-90.0366
0
LINE
8
BLACK
6
CONTINUOUS
10
156.521
20
-90.0366
11
156.539
21
-90.03
0
LINE
8
BLACK
6
CONTINUOUS
10
156.539
20
-90.03
11
156.777
21
-90.03
0
LINE
8
BLACK
6
CONTINUOUS
10
156.777
20
-90.03
11
156.799
21
-90.0339
0
LINE
8
BLACK
6
CONTINUOUS
10
156.614
20
-90.18
11
156.614
21
-91.03
0
LINE
8
BLACK
6
CONTINUOUS
10
156.614
20
-91.03
11
156.765
21
-91.03
0
LINE
8
BLACK
6
CONTINUOUS
10
156.765
20
-91.03
11
156.88
21
-90.9918
0
LINE
8
BLACK
6
CONTINUOUS
10
156.88
20
-90.9918
11
156.954
21
-90.9177
0
LINE
8
BLACK
6
CONTINUOUS
10
156.954
20
-90.9177
11
156.992
21
-90.8407
0
LINE
8
BLACK
6
CONTINUOUS
10
156.992
20
-90.8407
11
157.036
21
-90.6672
0
LINE
8
BLACK
6
CONTINUOUS
10
157.036
20
-90.6672
11
157.036
21
-90.5428
0
LINE
8
BLACK
6
CONTINUOUS
10
157.036
20
-90.5428
11
156.992
21
-90.3693
0
LINE
8
BLACK
6
CONTINUOUS
10
156.992
20
-90.3693
11
156.954
21
-90.2923
0
LINE
8
BLACK
6
CONTINUOUS
10
156.954
20
-90.2923
11
156.88
21
-90.2182
0
LINE
8
BLACK
6
CONTINUOUS
10
156.88
20
-90.2182
11
156.765
21
-90.18
0
LINE
8
BLACK
6
CONTINUOUS
10
156.765
20
-90.18
11
156.614
21
-90.18
0
LINE
8
BLACK
6
CONTINUOUS
10
157.786
20
-90.0319
11
157.79
21
-90.0311
0
LINE
8
BLACK
6
CONTINUOUS
10
157.79
20
-90.0311
11
157.809
21
-90.042
0
LINE
8
BLACK
6
CONTINUOUS
10
157.809
20
-90.042
11
157.829
21
-90.0507
0
LINE
8
BLACK
6
CONTINUOUS
10
157.829
20
-90.0507
11
157.831
21
-90.0546
0
LINE
8
BLACK
6
CONTINUOUS
10
157.831
20
-90.0546
11
157.835
21
-90.0568
0
LINE
8
BLACK
6
CONTINUOUS
10
157.835
20
-90.0568
11
157.842
21
-90.0772
0
LINE
8
BLACK
6
CONTINUOUS
10
157.842
20
-90.0772
11
157.852
21
-90.0967
0
LINE
8
BLACK
6
CONTINUOUS
10
157.852
20
-90.0967
11
157.851
21
-90.1009
0
LINE
8
BLACK
6
CONTINUOUS
10
157.851
20
-90.1009
11
157.852
21
-90.105
0
LINE
8
BLACK
6
CONTINUOUS
10
157.852
20
-90.105
11
157.852
21
-91.03
0
LINE
8
BLACK
6
CONTINUOUS
10
157.852
20
-91.03
11
158.063
21
-91.03
0
LINE
8
BLACK
6
CONTINUOUS
10
158.063
20
-91.03
11
158.089
21
-91.0345
0
LINE
8
BLACK
6
CONTINUOUS
10
158.089
20
-91.0345
11
158.128
21
-91.0675
0
LINE
8
BLACK
6
CONTINUOUS
10
158.128
20
-91.0675
11
158.137
21
-91.118
0
LINE
8
BLACK
6
CONTINUOUS
10
158.137
20
-91.118
11
158.111
21
-91.1624
0
LINE
8
BLACK
6
CONTINUOUS
10
158.111
20
-91.1624
11
158.063
21
-91.18
0
LINE
8
BLACK
6
CONTINUOUS
10
158.063
20
-91.18
11
157.492
21
-91.18
0
LINE
8
BLACK
6
CONTINUOUS
10
157.492
20
-91.18
11
157.466
21
-91.1755
0
LINE
8
BLACK
6
CONTINUOUS
10
157.466
20
-91.1755
11
157.427
21
-91.1425
0
LINE
8
BLACK
6
CONTINUOUS
10
157.427
20
-91.1425
11
157.418
21
-91.092
0
LINE
8
BLACK
6
CONTINUOUS
10
157.418
20
-91.092
11
157.443
21
-91.0475
0
LINE
8
BLACK
6
CONTINUOUS
10
157.443
20
-91.0475
11
157.492
21
-91.03
0
LINE
8
BLACK
6
CONTINUOUS
10
157.492
20
-91.03
11
157.702
21
-91.03
0
LINE
8
BLACK
6
CONTINUOUS
10
157.702
20
-91.03
11
157.702
21
-90.3337
0
LINE
8
BLACK
6
CONTINUOUS
10
157.702
20
-90.3337
11
157.64
21
-90.3961
0
LINE
8
BLACK
6
CONTINUOUS
10
157.64
20
-90.3961
11
157.622
21
-90.409
0
LINE
8
BLACK
6
CONTINUOUS
10
157.622
20
-90.409
11
157.62
21
-90.4102
0
LINE
8
BLACK
6
CONTINUOUS
10
157.62
20
-90.4102
11
157.525
21
-90.4578
0
LINE
8
BLACK
6
CONTINUOUS
10
157.525
20
-90.4578
11
157.5
21
-90.4652
0
LINE
8
BLACK
6
CONTINUOUS
10
157.5
20
-90.4652
11
157.45
21
-90.4533
0
LINE
8
BLACK
6
CONTINUOUS
10
157.45
20
-90.4533
11
157.42
21
-90.4121
0
LINE
8
BLACK
6
CONTINUOUS
10
157.42
20
-90.4121
11
157.423
21
-90.3609
0
LINE
8
BLACK
6
CONTINUOUS
10
157.423
20
-90.3609
11
157.458
21
-90.3236
0
LINE
8
BLACK
6
CONTINUOUS
10
157.458
20
-90.3236
11
157.542
21
-90.2814
0
LINE
8
BLACK
6
CONTINUOUS
10
157.542
20
-90.2814
11
157.624
21
-90.2001
0
LINE
8
BLACK
6
CONTINUOUS
10
157.624
20
-90.2001
11
157.715
21
-90.0634
0
LINE
8
BLACK
6
CONTINUOUS
10
157.715
20
-90.0634
11
157.733
21
-90.0445
0
LINE
8
BLACK
6
CONTINUOUS
10
157.733
20
-90.0445
11
157.737
21
-90.0433
0
LINE
8
BLACK
6
CONTINUOUS
10
157.737
20
-90.0433
11
157.74
21
-90.04
0
LINE
8
BLACK
6
CONTINUOUS
10
157.74
20
-90.04
11
157.761
21
-90.0362
0
LINE
8
BLACK
6
CONTINUOUS
10
157.761
20
-90.0362
11
157.782
21
-90.0301
0
LINE
8
BLACK
6
CONTINUOUS
10
157.782
20
-90.0301
11
157.786
21
-90.0319
0
LINE
8
BLACK
6
CONTINUOUS
10
163.651
20
-89.2088
11
163.668
21
-89.257
0
LINE
8
BLACK
6
CONTINUOUS
10
163.668
20
-89.257
11
163.668
21
-89.6473
0
LINE
8
BLACK
6
CONTINUOUS
10
163.668
20
-89.6473
11
164.112
21
-89.2039
0
LINE
8
BLACK
6
CONTINUOUS
10
164.112
20
-89.2039
11
164.133
21
-89.189
0
LINE
8
BLACK
6
CONTINUOUS
10
164.133
20
-89.189
11
164.184
21
-89.1845
0
LINE
8
BLACK
6
CONTINUOUS
10
164.184
20
-89.1845
11
164.226
21
-89.214
0
LINE
8
BLACK
6
CONTINUOUS
10
164.226
20
-89.214
11
164.24
21
-89.2635
0
LINE
8
BLACK
6
CONTINUOUS
10
164.24
20
-89.2635
11
164.218
21
-89.31
0
LINE
8
BLACK
6
CONTINUOUS
10
164.218
20
-89.31
11
163.835
21
-89.6926
0
LINE
8
BLACK
6
CONTINUOUS
10
163.835
20
-89.6926
11
164.225
21
-90.212
0
LINE
8
BLACK
6
CONTINUOUS
10
164.225
20
-90.212
11
164.237
21
-90.2352
0
LINE
8
BLACK
6
CONTINUOUS
10
164.237
20
-90.2352
11
164.234
21
-90.2864
0
LINE
8
BLACK
6
CONTINUOUS
10
164.234
20
-90.2864
11
164.199
21
-90.3239
0
LINE
8
BLACK
6
CONTINUOUS
10
164.199
20
-90.3239
11
164.148
21
-90.33
0
LINE
8
BLACK
6
CONTINUOUS
10
164.148
20
-90.33
11
164.105
21
-90.302
0
LINE
8
BLACK
6
CONTINUOUS
10
164.105
20
-90.302
11
163.728
21
-89.7997
0
LINE
8
BLACK
6
CONTINUOUS
10
163.728
20
-89.7997
11
163.668
21
-89.8595
0
LINE
8
BLACK
6
CONTINUOUS
10
163.668
20
-89.8595
11
163.668
21
-90.257
0
LINE
8
BLACK
6
CONTINUOUS
10
163.668
20
-90.257
11
163.664
21
-90.2826
0
LINE
8
BLACK
6
CONTINUOUS
10
163.664
20
-90.2826
11
163.631
21
-90.3219
0
LINE
8
BLACK
6
CONTINUOUS
10
163.631
20
-90.3219
11
163.58
21
-90.3308
0
LINE
8
BLACK
6
CONTINUOUS
10
163.58
20
-90.3308
11
163.536
21
-90.3052
0
LINE
8
BLACK
6
CONTINUOUS
10
163.536
20
-90.3052
11
163.518
21
-90.257
0
LINE
8
BLACK
6
CONTINUOUS
10
163.518
20
-90.257
11
163.518
21
-89.257
0
LINE
8
BLACK
6
CONTINUOUS
10
163.518
20
-89.257
11
163.523
21
-89.2313
0
LINE
8
BLACK
6
CONTINUOUS
10
163.523
20
-89.2313
11
163.556
21
-89.192
0
LINE
8
BLACK
6
CONTINUOUS
10
163.556
20
-89.192
11
163.607
21
-89.1831
0
LINE
8
BLACK
6
CONTINUOUS
10
163.607
20
-89.1831
11
163.651
21
-89.2088
0
LINE
8
BLACK
6
CONTINUOUS
10
153.543
20
-89.567
11
153.525
21
-89.5246
0
LINE
8
BLACK
6
CONTINUOUS
10
153.525
20
-89.5246
11
153.525
21
-87.6646
0
LINE
8
BLACK
6
CONTINUOUS
10
153.525
20
-87.6646
11
152.595
21
-87.6646
0
LINE
8
BLACK
6
CONTINUOUS
10
152.595
20
-87.6646
11
152.553
21
-87.647
0
LINE
8
BLACK
6
CONTINUOUS
10
152.553
20
-87.647
11
152.535
21
-87.6046
0
LINE
8
BLACK
6
CONTINUOUS
10
152.535
20
-87.6046
11
152.553
21
-87.5622
0
LINE
8
BLACK
6
CONTINUOUS
10
152.553
20
-87.5622
11
152.595
21
-87.5446
0
LINE
8
BLACK
6
CONTINUOUS
10
152.595
20
-87.5446
11
153.525
21
-87.5446
0
LINE
8
BLACK
6
CONTINUOUS
10
153.525
20
-87.5446
11
153.525
21
-85.6846
0
LINE
8
BLACK
6
CONTINUOUS
10
153.525
20
-85.6846
11
153.543
21
-85.6422
0
LINE
8
BLACK
6
CONTINUOUS
10
153.543
20
-85.6422
11
153.585
21
-85.6246
0
LINE
8
BLACK
6
CONTINUOUS
10
153.585
20
-85.6246
11
161.425
21
-85.6246
0
LINE
8
BLACK
6
CONTINUOUS
10
161.425
20
-85.6246
11
161.468
21
-85.6422
0
LINE
8
BLACK
6
CONTINUOUS
10
161.468
20
-85.6422
11
161.485
21
-85.6846
0
LINE
8
BLACK
6
CONTINUOUS
10
161.485
20
-85.6846
11
161.485
21
-87.5446
0
LINE
8
BLACK
6
CONTINUOUS
10
161.485
20
-87.5446
11
162.415
21
-87.5446
0
LINE
8
BLACK
6
CONTINUOUS
10
162.415
20
-87.5446
11
162.458
21
-87.5622
0
LINE
8
BLACK
6
CONTINUOUS
10
162.458
20
-87.5622
11
162.475
21
-87.6046
0
LINE
8
BLACK
6
CONTINUOUS
10
162.475
20
-87.6046
11
162.458
21
-87.647
0
LINE
8
BLACK
6
CONTINUOUS
10
162.458
20
-87.647
11
162.415
21
-87.6646
0
LINE
8
BLACK
6
CONTINUOUS
10
162.415
20
-87.6646
11
161.485
21
-87.6646
0
LINE
8
BLACK
6
CONTINUOUS
10
161.485
20
-87.6646
11
161.485
21
-89.5246
0
LINE
8
BLACK
6
CONTINUOUS
10
161.485
20
-89.5246
11
161.468
21
-89.567
0
LINE
8
BLACK
6
CONTINUOUS
10
161.468
20
-89.567
11
161.425
21
-89.5846
0
LINE
8
BLACK
6
CONTINUOUS
10
161.425
20
-89.5846
11
153.585
21
-89.5846
0
LINE
8
BLACK
6
CONTINUOUS
10
153.585
20
-89.5846
11
153.543
21
-89.567
0
LINE
8
BLACK
6
CONTINUOUS
10
153.645
20
-85.7446
11
153.645
21
-89.4646
0
LINE
8
BLACK
6
CONTINUOUS
10
153.645
20
-89.4646
11
159.985
21
-89.4646
0
LINE
8
BLACK
6
CONTINUOUS
10
159.985
20
-89.4646
11
159.985
21
-85.7446
0
LINE
8
BLACK
6
CONTINUOUS
10
159.985
20
-85.7446
11
153.645
21
-85.7446
0
LINE
8
BLACK
6
CONTINUOUS
10
160.345
20
-85.7446
11
160.345
21
-89.4646
0
LINE
8
BLACK
6
CONTINUOUS
10
160.345
20
-89.4646
11
161.365
21
-89.4646
0
LINE
8
BLACK
6
CONTINUOUS
10
161.365
20
-89.4646
11
161.365
21
-85.7446
0
LINE
8
BLACK
6
CONTINUOUS
10
161.365
20
-85.7446
11
160.345
21
-85.7446
0
LINE
8
BLACK
6
CONTINUOUS
10
180.925
20
-84.7336
11
180.943
21
-84.776
0
LINE
8
BLACK
6
CONTINUOUS
10
180.943
20
-84.776
11
180.943
21
-86.106
0
LINE
8
BLACK
6
CONTINUOUS
10
180.943
20
-86.106
11
180.925
21
-86.1484
0
LINE
8
BLACK
6
CONTINUOUS
10
180.925
20
-86.1484
11
180.883
21
-86.166
0
LINE
8
BLACK
6
CONTINUOUS
10
180.883
20
-86.166
11
180.84
21
-86.1484
0
LINE
8
BLACK
6
CONTINUOUS
10
180.84
20
-86.1484
11
180.823
21
-86.106
0
LINE
8
BLACK
6
CONTINUOUS
10
180.823
20
-86.106
11
180.823
21
-84.836
0
LINE
8
BLACK
6
CONTINUOUS
10
180.823
20
-84.836
11
179.553
21
-84.836
0
LINE
8
BLACK
6
CONTINUOUS
10
179.553
20
-84.836
11
179.51
21
-84.8184
0
LINE
8
BLACK
6
CONTINUOUS
10
179.51
20
-84.8184
11
179.493
21
-84.776
0
LINE
8
BLACK
6
CONTINUOUS
10
179.493
20
-84.776
11
179.51
21
-84.7336
0
LINE
8
BLACK
6
CONTINUOUS
10
179.51
20
-84.7336
11
179.553
21
-84.716
0
LINE
8
BLACK
6
CONTINUOUS
10
179.553
20
-84.716
11
180.883
21
-84.716
0
LINE
8
BLACK
6
CONTINUOUS
10
180.883
20
-84.716
11
180.925
21
-84.7336
0
LINE
8
BLACK
6
CONTINUOUS
10
157.949
20
-84.2413
11
157.954
21
-84.2405
0
LINE
8
BLACK
6
CONTINUOUS
10
157.954
20
-84.2405
11
157.972
21
-84.2514
0
LINE
8
BLACK
6
CONTINUOUS
10
157.972
20
-84.2514
11
157.992
21
-84.2601
0
LINE
8
BLACK
6
CONTINUOUS
10
157.992
20
-84.2601
11
157.994
21
-84.264
0
LINE
8
BLACK
6
CONTINUOUS
10
157.994
20
-84.264
11
157.998
21
-84.2662
0
LINE
8
BLACK
6
CONTINUOUS
10
157.998
20
-84.2662
11
158.005
21
-84.2866
0
LINE
8
BLACK
6
CONTINUOUS
10
158.005
20
-84.2866
11
158.015
21
-84.3061
0
LINE
8
BLACK
6
CONTINUOUS
10
158.015
20
-84.3061
11
158.014
21
-84.3103
0
LINE
8
BLACK
6
CONTINUOUS
10
158.014
20
-84.3103
11
158.016
21
-84.3144
0
LINE
8
BLACK
6
CONTINUOUS
10
158.016
20
-84.3144
11
158.016
21
-85.2394
0
LINE
8
BLACK
6
CONTINUOUS
10
158.016
20
-85.2394
11
158.226
21
-85.2394
0
LINE
8
BLACK
6
CONTINUOUS
10
158.226
20
-85.2394
11
158.252
21
-85.2439
0
LINE
8
BLACK
6
CONTINUOUS
10
158.252
20
-85.2439
11
158.291
21
-85.2769
0
LINE
8
BLACK
6
CONTINUOUS
10
158.291
20
-85.2769
11
158.3
21
-85.3274
0
LINE
8
BLACK
6
CONTINUOUS
10
158.3
20
-85.3274
11
158.274
21
-85.3718
0
LINE
8
BLACK
6
CONTINUOUS
10
158.274
20
-85.3718
11
158.226
21
-85.3894
0
LINE
8
BLACK
6
CONTINUOUS
10
158.226
20
-85.3894
11
157.655
21
-85.3894
0
LINE
8
BLACK
6
CONTINUOUS
10
157.655
20
-85.3894
11
157.629
21
-85.3849
0
LINE
8
BLACK
6
CONTINUOUS
10
157.629
20
-85.3849
11
157.59
21
-85.3519
0
LINE
8
BLACK
6
CONTINUOUS
10
157.59
20
-85.3519
11
157.581
21
-85.3014
0
LINE
8
BLACK
6
CONTINUOUS
10
157.581
20
-85.3014
11
157.607
21
-85.2569
0
LINE
8
BLACK
6
CONTINUOUS
10
157.607
20
-85.2569
11
157.655
21
-85.2394
0
LINE
8
BLACK
6
CONTINUOUS
10
157.655
20
-85.2394
11
157.866
21
-85.2394
0
LINE
8
BLACK
6
CONTINUOUS
10
157.866
20
-85.2394
11
157.866
21
-84.5431
0
LINE
8
BLACK
6
CONTINUOUS
10
157.866
20
-84.5431
11
157.803
21
-84.6055
0
LINE
8
BLACK
6
CONTINUOUS
10
157.803
20
-84.6055
11
157.785
21
-84.6184
0
LINE
8
BLACK
6
CONTINUOUS
10
157.785
20
-84.6184
11
157.784
21
-84.6196
0
LINE
8
BLACK
6
CONTINUOUS
10
157.784
20
-84.6196
11
157.688
21
-84.6672
0
LINE
8
BLACK
6
CONTINUOUS
10
157.688
20
-84.6672
11
157.663
21
-84.6746
0
LINE
8
BLACK
6
CONTINUOUS
10
157.663
20
-84.6746
11
157.614
21
-84.6627
0
LINE
8
BLACK
6
CONTINUOUS
10
157.614
20
-84.6627
11
157.583
21
-84.6215
0
LINE
8
BLACK
6
CONTINUOUS
10
157.583
20
-84.6215
11
157.586
21
-84.5703
0
LINE
8
BLACK
6
CONTINUOUS
10
157.586
20
-84.5703
11
157.621
21
-84.533
0
LINE
8
BLACK
6
CONTINUOUS
10
157.621
20
-84.533
11
157.706
21
-84.4908
0
LINE
8
BLACK
6
CONTINUOUS
10
157.706
20
-84.4908
11
157.787
21
-84.4095
0
LINE
8
BLACK
6
CONTINUOUS
10
157.787
20
-84.4095
11
157.878
21
-84.2728
0
LINE
8
BLACK
6
CONTINUOUS
10
157.878
20
-84.2728
11
157.896
21
-84.2539
0
LINE
8
BLACK
6
CONTINUOUS
10
157.896
20
-84.2539
11
157.9
21
-84.2527
0
LINE
8
BLACK
6
CONTINUOUS
10
157.9
20
-84.2527
11
157.903
21
-84.2494
0
LINE
8
BLACK
6
CONTINUOUS
10
157.903
20
-84.2494
11
157.925
21
-84.2456
0
LINE
8
BLACK
6
CONTINUOUS
10
157.925
20
-84.2456
11
157.945
21
-84.2395
0
LINE
8
BLACK
6
CONTINUOUS
10
157.945
20
-84.2395
11
157.949
21
-84.2413
0
LINE
8
BLACK
6
CONTINUOUS
10
157.347
20
-84.2439
11
157.386
21
-84.2769
0
LINE
8
BLACK
6
CONTINUOUS
10
157.386
20
-84.2769
11
157.395
21
-84.3274
0
LINE
8
BLACK
6
CONTINUOUS
10
157.395
20
-84.3274
11
157.37
21
-84.3718
0
LINE
8
BLACK
6
CONTINUOUS
10
157.37
20
-84.3718
11
157.322
21
-84.3894
0
LINE
8
BLACK
6
CONTINUOUS
10
157.322
20
-84.3894
11
156.92
21
-84.3894
0
LINE
8
BLACK
6
CONTINUOUS
10
156.92
20
-84.3894
11
156.92
21
-84.7156
0
LINE
8
BLACK
6
CONTINUOUS
10
156.92
20
-84.7156
11
157.179
21
-84.7156
0
LINE
8
BLACK
6
CONTINUOUS
10
157.179
20
-84.7156
11
157.204
21
-84.7201
0
LINE
8
BLACK
6
CONTINUOUS
10
157.204
20
-84.7201
11
157.244
21
-84.7531
0
LINE
8
BLACK
6
CONTINUOUS
10
157.244
20
-84.7531
11
157.253
21
-84.8036
0
LINE
8
BLACK
6
CONTINUOUS
10
157.253
20
-84.8036
11
157.227
21
-84.848
0
LINE
8
BLACK
6
CONTINUOUS
10
157.227
20
-84.848
11
157.179
21
-84.8656
0
LINE
8
BLACK
6
CONTINUOUS
10
157.179
20
-84.8656
11
156.92
21
-84.8656
0
LINE
8
BLACK
6
CONTINUOUS
10
156.92
20
-84.8656
11
156.92
21
-85.3144
0
LINE
8
BLACK
6
CONTINUOUS
10
156.92
20
-85.3144
11
156.916
21
-85.34
0
LINE
8
BLACK
6
CONTINUOUS
10
156.916
20
-85.34
11
156.883
21
-85.3793
0
LINE
8
BLACK
6
CONTINUOUS
10
156.883
20
-85.3793
11
156.832
21
-85.3882
0
LINE
8
BLACK
6
CONTINUOUS
10
156.832
20
-85.3882
11
156.788
21
-85.3626
0
LINE
8
BLACK
6
CONTINUOUS
10
156.788
20
-85.3626
11
156.77
21
-85.3144
0
LINE
8
BLACK
6
CONTINUOUS
10
156.77
20
-85.3144
11
156.77
21
-84.3144
0
LINE
8
BLACK
6
CONTINUOUS
10
156.77
20
-84.3144
11
156.772
21
-84.3046
0
LINE
8
BLACK
6
CONTINUOUS
10
156.772
20
-84.3046
11
156.771
21
-84.3014
0
LINE
8
BLACK
6
CONTINUOUS
10
156.771
20
-84.3014
11
156.773
21
-84.2985
0
LINE
8
BLACK
6
CONTINUOUS
10
156.773
20
-84.2985
11
156.775
21
-84.2887
0
LINE
8
BLACK
6
CONTINUOUS
10
156.775
20
-84.2887
11
156.787
21
-84.2738
0
LINE
8
BLACK
6
CONTINUOUS
10
156.787
20
-84.2738
11
156.797
21
-84.2569
0
LINE
8
BLACK
6
CONTINUOUS
10
156.797
20
-84.2569
11
156.803
21
-84.2546
0
LINE
8
BLACK
6
CONTINUOUS
10
156.803
20
-84.2546
11
156.808
21
-84.2494
0
LINE
8
BLACK
6
CONTINUOUS
10
156.808
20
-84.2494
11
156.827
21
-84.246
0
LINE
8
BLACK
6
CONTINUOUS
10
156.827
20
-84.246
11
156.845
21
-84.2394
0
LINE
8
BLACK
6
CONTINUOUS
10
156.845
20
-84.2394
11
157.322
21
-84.2394
0
LINE
8
BLACK
6
CONTINUOUS
10
157.322
20
-84.2394
11
157.347
21
-84.2439
0
LINE
8
BLACK
6
CONTINUOUS
10
179.277
20
-82.7402
11
179.294
21
-82.7884
0
LINE
8
BLACK
6
CONTINUOUS
10
179.294
20
-82.7884
11
179.294
21
-83.5027
0
LINE
8
BLACK
6
CONTINUOUS
10
179.294
20
-83.5027
11
179.29
21
-83.5247
0
LINE
8
BLACK
6
CONTINUOUS
10
179.29
20
-83.5247
11
179.29
21
-83.5264
0
LINE
8
BLACK
6
CONTINUOUS
10
179.29
20
-83.5264
11
179.243
21
-83.6692
0
LINE
8
BLACK
6
CONTINUOUS
10
179.243
20
-83.6692
11
179.23
21
-83.6921
0
LINE
8
BLACK
6
CONTINUOUS
10
179.23
20
-83.6921
11
179.227
21
-83.6945
0
LINE
8
BLACK
6
CONTINUOUS
10
179.227
20
-83.6945
11
179.225
21
-83.6986
0
LINE
8
BLACK
6
CONTINUOUS
10
179.225
20
-83.6986
11
179.129
21
-83.7938
0
LINE
8
BLACK
6
CONTINUOUS
10
179.129
20
-83.7938
11
179.108
21
-83.8087
0
LINE
8
BLACK
6
CONTINUOUS
10
179.108
20
-83.8087
11
179.104
21
-83.8091
0
LINE
8
BLACK
6
CONTINUOUS
10
179.104
20
-83.8091
11
179.1
21
-83.8119
0
LINE
8
BLACK
6
CONTINUOUS
10
179.1
20
-83.8119
11
178.957
21
-83.8595
0
LINE
8
BLACK
6
CONTINUOUS
10
178.957
20
-83.8595
11
178.935
21
-83.8628
0
LINE
8
BLACK
6
CONTINUOUS
10
178.935
20
-83.8628
11
178.934
21
-83.8634
0
LINE
8
BLACK
6
CONTINUOUS
10
178.934
20
-83.8634
11
178.838
21
-83.8634
0
LINE
8
BLACK
6
CONTINUOUS
10
178.838
20
-83.8634
11
178.813
21
-83.8589
0
LINE
8
BLACK
6
CONTINUOUS
10
178.813
20
-83.8589
11
178.773
21
-83.8259
0
LINE
8
BLACK
6
CONTINUOUS
10
178.773
20
-83.8259
11
178.764
21
-83.7754
0
LINE
8
BLACK
6
CONTINUOUS
10
178.764
20
-83.7754
11
178.79
21
-83.7309
0
LINE
8
BLACK
6
CONTINUOUS
10
178.79
20
-83.7309
11
178.838
21
-83.7134
0
LINE
8
BLACK
6
CONTINUOUS
10
178.838
20
-83.7134
11
178.921
21
-83.7134
0
LINE
8
BLACK
6
CONTINUOUS
10
178.921
20
-83.7134
11
179.036
21
-83.6752
0
LINE
8
BLACK
6
CONTINUOUS
10
179.036
20
-83.6752
11
179.106
21
-83.605
0
LINE
8
BLACK
6
CONTINUOUS
10
179.106
20
-83.605
11
179.144
21
-83.4905
0
LINE
8
BLACK
6
CONTINUOUS
10
179.144
20
-83.4905
11
179.144
21
-82.7884
0
LINE
8
BLACK
6
CONTINUOUS
10
179.144
20
-82.7884
11
179.149
21
-82.7627
0
LINE
8
BLACK
6
CONTINUOUS
10
179.149
20
-82.7627
11
179.182
21
-82.7234
0
LINE
8
BLACK
6
CONTINUOUS
10
179.182
20
-82.7234
11
179.232
21
-82.7145
0
LINE
8
BLACK
6
CONTINUOUS
10
179.232
20
-82.7145
11
179.277
21
-82.7402
0
LINE
8
BLACK
6
CONTINUOUS
10
179.922
20
-82.6748
11
179.956
21
-82.7132
0
LINE
8
BLACK
6
CONTINUOUS
10
179.956
20
-82.7132
11
179.957
21
-82.7645
0
LINE
8
BLACK
6
CONTINUOUS
10
179.957
20
-82.7645
11
179.752
21
-83.38
0
LINE
8
BLACK
6
CONTINUOUS
10
179.752
20
-83.38
11
180.049
21
-83.38
0
LINE
8
BLACK
6
CONTINUOUS
10
180.049
20
-83.38
11
180.049
21
-83.1217
0
LINE
8
BLACK
6
CONTINUOUS
10
180.049
20
-83.1217
11
180.054
21
-83.0961
0
LINE
8
BLACK
6
CONTINUOUS
10
180.054
20
-83.0961
11
180.087
21
-83.0568
0
LINE
8
BLACK
6
CONTINUOUS
10
180.087
20
-83.0568
11
180.137
21
-83.0479
0
LINE
8
BLACK
6
CONTINUOUS
10
180.137
20
-83.0479
11
180.181
21
-83.0735
0
LINE
8
BLACK
6
CONTINUOUS
10
180.181
20
-83.0735
11
180.199
21
-83.1217
0
LINE
8
BLACK
6
CONTINUOUS
10
180.199
20
-83.1217
11
180.199
21
-83.38
0
LINE
8
BLACK
6
CONTINUOUS
10
180.199
20
-83.38
11
180.267
21
-83.38
0
LINE
8
BLACK
6
CONTINUOUS
10
180.267
20
-83.38
11
180.293
21
-83.3846
0
LINE
8
BLACK
6
CONTINUOUS
10
180.293
20
-83.3846
11
180.332
21
-83.4175
0
LINE
8
BLACK
6
CONTINUOUS
10
180.332
20
-83.4175
11
180.341
21
-83.4681
0
LINE
8
BLACK
6
CONTINUOUS
10
180.341
20
-83.4681
11
180.315
21
-83.5125
0
LINE
8
BLACK
6
CONTINUOUS
10
180.315
20
-83.5125
11
180.267
21
-83.53
0
LINE
8
BLACK
6
CONTINUOUS
10
180.267
20
-83.53
11
180.199
21
-83.53
0
LINE
8
BLACK
6
CONTINUOUS
10
180.199
20
-83.53
11
180.199
21
-83.7884
0
LINE
8
BLACK
6
CONTINUOUS
10
180.199
20
-83.7884
11
180.195
21
-83.814
0
LINE
8
BLACK
6
CONTINUOUS
10
180.195
20
-83.814
11
180.162
21
-83.8533
0
LINE
8
BLACK
6
CONTINUOUS
10
180.162
20
-83.8533
11
180.111
21
-83.8622
0
LINE
8
BLACK
6
CONTINUOUS
10
180.111
20
-83.8622
11
180.067
21
-83.8366
0
LINE
8
BLACK
6
CONTINUOUS
10
180.067
20
-83.8366
11
180.049
21
-83.7884
0
LINE
8
BLACK
6
CONTINUOUS
10
180.049
20
-83.7884
11
180.049
21
-83.53
0
LINE
8
BLACK
6
CONTINUOUS
10
180.049
20
-83.53
11
179.648
21
-83.53
0
LINE
8
BLACK
6
CONTINUOUS
10
179.648
20
-83.53
11
179.622
21
-83.5255
0
LINE
8
BLACK
6
CONTINUOUS
10
179.622
20
-83.5255
11
179.618
21
-83.5218
0
LINE
8
BLACK
6
CONTINUOUS
10
179.618
20
-83.5218
11
179.612
21
-83.521
0
LINE
8
BLACK
6
CONTINUOUS
10
179.612
20
-83.521
11
179.599
21
-83.5057
0
LINE
8
BLACK
6
CONTINUOUS
10
179.599
20
-83.5057
11
179.583
21
-83.4925
0
LINE
8
BLACK
6
CONTINUOUS
10
179.583
20
-83.4925
11
179.582
21
-83.4869
0
LINE
8
BLACK
6
CONTINUOUS
10
179.582
20
-83.4869
11
179.578
21
-83.4826
0
LINE
8
BLACK
6
CONTINUOUS
10
179.578
20
-83.4826
11
179.578
21
-83.4622
0
LINE
8
BLACK
6
CONTINUOUS
10
179.578
20
-83.4622
11
179.574
21
-83.442
0
LINE
8
BLACK
6
CONTINUOUS
10
179.574
20
-83.442
11
179.577
21
-83.4371
0
LINE
8
BLACK
6
CONTINUOUS
10
179.577
20
-83.4371
11
179.577
21
-83.4313
0
LINE
8
BLACK
6
CONTINUOUS
10
179.577
20
-83.4313
11
179.815
21
-82.717
0
LINE
8
BLACK
6
CONTINUOUS
10
179.815
20
-82.717
11
179.827
21
-82.6941
0
LINE
8
BLACK
6
CONTINUOUS
10
179.827
20
-82.6941
11
179.871
21
-82.6673
0
LINE
8
BLACK
6
CONTINUOUS
10
179.871
20
-82.6673
11
179.922
21
-82.6748
0
LINE
8
BLACK
6
CONTINUOUS
10
153.778
20
-83.6924
11
153.76
21
-83.65
0
LINE
8
BLACK
6
CONTINUOUS
10
153.76
20
-83.65
11
153.76
21
-78.91
0
LINE
8
BLACK
6
CONTINUOUS
10
153.76
20
-78.91
11
153.778
21
-78.8676
0
LINE
8
BLACK
6
CONTINUOUS
10
153.778
20
-78.8676
11
153.82
21
-78.85
0
LINE
8
BLACK
6
CONTINUOUS
10
153.82
20
-78.85
11
161.06
21
-78.85
0
LINE
8
BLACK
6
CONTINUOUS
10
161.06
20
-78.85
11
161.102
21
-78.8676
0
LINE
8
BLACK
6
CONTINUOUS
10
161.102
20
-78.8676
11
161.12
21
-78.91
0
LINE
8
BLACK
6
CONTINUOUS
10
161.12
20
-78.91
11
161.12
21
-83.65
0
LINE
8
BLACK
6
CONTINUOUS
10
161.12
20
-83.65
11
161.102
21
-83.6924
0
LINE
8
BLACK
6
CONTINUOUS
10
161.102
20
-83.6924
11
161.06
21
-83.71
0
LINE
8
BLACK
6
CONTINUOUS
10
161.06
20
-83.71
11
153.82
21
-83.71
0
LINE
8
BLACK
6
CONTINUOUS
10
153.82
20
-83.71
11
153.778
21
-83.6924
0
LINE
8
BLACK
6
CONTINUOUS
10
153.88
20
-78.97
11
153.88
21
-83.59
0
LINE
8
BLACK
6
CONTINUOUS
10
153.88
20
-83.59
11
161
21
-83.59
0
LINE
8
BLACK
6
CONTINUOUS
10
161
20
-83.59
11
161
21
-78.97
0
LINE
8
BLACK
6
CONTINUOUS
10
161
20
-78.97
11
153.88
21
-78.97
0
LINE
8
BLACK
6
CONTINUOUS
10
160.528
20
-73.12
11
160.528
21
-77.84
0
LINE
8
BLACK
6
CONTINUOUS
10
160.528
20
-77.84
11
160.51
21
-77.8824
0
LINE
8
BLACK
6
CONTINUOUS
10
160.51
20
-77.8824
11
160.468
21
-77.9
0
LINE
8
BLACK
6
CONTINUOUS
10
160.468
20
-77.9
11
154.348
21
-77.9
0
LINE
8
BLACK
6
CONTINUOUS
10
154.348
20
-77.9
11
154.305
21
-77.8824
0
LINE
8
BLACK
6
CONTINUOUS
10
154.305
20
-77.8824
11
154.288
21
-77.84
0
LINE
8
BLACK
6
CONTINUOUS
10
154.288
20
-77.84
11
154.288
21
-73.12
0
LINE
8
BLACK
6
CONTINUOUS
10
154.288
20
-73.12
11
154.305
21
-73.0776
0
LINE
8
BLACK
6
CONTINUOUS
10
154.305
20
-73.0776
11
154.348
21
-73.06
0
LINE
8
BLACK
6
CONTINUOUS
10
154.348
20
-73.06
11
155.748
21
-73.06
0
LINE
8
BLACK
6
CONTINUOUS
10
155.748
20
-73.06
11
155.748
21
-72.92
0
LINE
8
BLACK
6
CONTINUOUS
10
155.748
20
-72.92
11
155.765
21
-72.8776
0
LINE
8
BLACK
6
CONTINUOUS
10
155.765
20
-72.8776
11
155.808
21
-72.86
0
LINE
8
BLACK
6
CONTINUOUS
10
155.808
20
-72.86
11
156.108
21
-72.86
0
LINE
8
BLACK
6
CONTINUOUS
10
156.108
20
-72.86
11
156.15
21
-72.8776
0
LINE
8
BLACK
6
CONTINUOUS
10
156.15
20
-72.8776
11
156.168
21
-72.92
0
LINE
8
BLACK
6
CONTINUOUS
10
156.168
20
-72.92
11
156.168
21
-73.06
0
LINE
8
BLACK
6
CONTINUOUS
10
156.168
20
-73.06
11
160.468
21
-73.06
0
LINE
8
BLACK
6
CONTINUOUS
10
160.468
20
-73.06
11
160.51
21
-73.0776
0
LINE
8
BLACK
6
CONTINUOUS
10
160.51
20
-73.0776
11
160.528
21
-73.12
0
LINE
8
BLACK
6
CONTINUOUS
10
154.915
20
-77.2724
11
154.898
21
-77.23
0
LINE
8
BLACK
6
CONTINUOUS
10
154.898
20
-77.23
11
154.898
21
-75.79
0
LINE
8
BLACK
6
CONTINUOUS
10
154.898
20
-75.79
11
154.408
21
-75.79
0
LINE
8
BLACK
6
CONTINUOUS
10
154.408
20
-75.79
11
154.408
21
-77.78
0
LINE
8
BLACK
6
CONTINUOUS
10
154.408
20
-77.78
11
160.408
21
-77.78
0
LINE
8
BLACK
6
CONTINUOUS
10
160.408
20
-77.78
11
160.408
21
-75.79
0
LINE
8
BLACK
6
CONTINUOUS
10
160.408
20
-75.79
11
159.918
21
-75.79
0
LINE
8
BLACK
6
CONTINUOUS
10
159.918
20
-75.79
11
159.918
21
-77.23
0
LINE
8
BLACK
6
CONTINUOUS
10
159.918
20
-77.23
11
159.9
21
-77.2724
0
LINE
8
BLACK
6
CONTINUOUS
10
159.9
20
-77.2724
11
159.858
21
-77.29
0
LINE
8
BLACK
6
CONTINUOUS
10
159.858
20
-77.29
11
154.958
21
-77.29
0
LINE
8
BLACK
6
CONTINUOUS
10
154.958
20
-77.29
11
154.915
21
-77.2724
0
LINE
8
BLACK
6
CONTINUOUS
10
155.018
20
-77.17
11
157.248
21
-77.17
0
LINE
8
BLACK
6
CONTINUOUS
10
157.248
20
-77.17
11
157.248
21
-76.73
0
LINE
8
BLACK
6
CONTINUOUS
10
157.248
20
-76.73
11
157.265
21
-76.6876
0
LINE
8
BLACK
6
CONTINUOUS
10
157.265
20
-76.6876
11
157.308
21
-76.67
0
LINE
8
BLACK
6
CONTINUOUS
10
157.308
20
-76.67
11
157.508
21
-76.67
0
LINE
8
BLACK
6
CONTINUOUS
10
157.508
20
-76.67
11
157.55
21
-76.6876
0
LINE
8
BLACK
6
CONTINUOUS
10
157.55
20
-76.6876
11
157.568
21
-76.73
0
LINE
8
BLACK
6
CONTINUOUS
10
157.568
20
-76.73
11
157.568
21
-77.17
0
LINE
8
BLACK
6
CONTINUOUS
10
157.568
20
-77.17
11
159.798
21
-77.17
0
LINE
8
BLACK
6
CONTINUOUS
10
159.798
20
-77.17
11
159.798
21
-73.79
0
LINE
8
BLACK
6
CONTINUOUS
10
159.798
20
-73.79
11
157.908
21
-73.79
0
LINE
8
BLACK
6
CONTINUOUS
10
157.908
20
-73.79
11
157.865
21
-73.7724
0
LINE
8
BLACK
6
CONTINUOUS
10
157.865
20
-73.7724
11
157.848
21
-73.73
0
LINE
8
BLACK
6
CONTINUOUS
10
157.848
20
-73.73
11
157.848
21
-73.18
0
LINE
8
BLACK
6
CONTINUOUS
10
157.848
20
-73.18
11
156.968
21
-73.18
0
LINE
8
BLACK
6
CONTINUOUS
10
156.968
20
-73.18
11
156.968
21
-73.73
0
LINE
8
BLACK
6
CONTINUOUS
10
156.968
20
-73.73
11
156.95
21
-73.7724
0
LINE
8
BLACK
6
CONTINUOUS
10
156.95
20
-73.7724
11
156.908
21
-73.79
0
LINE
8
BLACK
6
CONTINUOUS
10
156.908
20
-73.79
11
155.018
21
-73.79
0
LINE
8
BLACK
6
CONTINUOUS
10
155.018
20
-73.79
11
155.018
21
-77.17
0
LINE
8
BLACK
6
CONTINUOUS
10
159.918
20
-74.49
11
159.918
21
-75.67
0
LINE
8
BLACK
6
CONTINUOUS
10
159.918
20
-75.67
11
160.408
21
-75.67
0
LINE
8
BLACK
6
CONTINUOUS
10
160.408
20
-75.67
11
160.408
21
-74.49
0
LINE
8
BLACK
6
CONTINUOUS
10
160.408
20
-74.49
11
159.918
21
-74.49
0
LINE
8
BLACK
6
CONTINUOUS
10
154.408
20
-74.49
11
154.408
21
-75.67
0
LINE
8
BLACK
6
CONTINUOUS
10
154.408
20
-75.67
11
154.898
21
-75.67
0
LINE
8
BLACK
6
CONTINUOUS
10
154.898
20
-75.67
11
154.898
21
-74.49
0
LINE
8
BLACK
6
CONTINUOUS
10
154.898
20
-74.49
11
154.408
21
-74.49
0
LINE
8
BLACK
6
CONTINUOUS
10
159.918
20
-73.73
11
159.918
21
-74.37
0
LINE
8
BLACK
6
CONTINUOUS
10
159.918
20
-74.37
11
160.408
21
-74.37
0
LINE
8
BLACK
6
CONTINUOUS
10
160.408
20
-74.37
11
160.408
21
-73.18
0
LINE
8
BLACK
6
CONTINUOUS
10
160.408
20
-73.18
11
157.968
21
-73.18
0
LINE
8
BLACK
6
CONTINUOUS
10
157.968
20
-73.18
11
157.968
21
-73.67
0
LINE
8
BLACK
6
CONTINUOUS
10
157.968
20
-73.67
11
159.858
21
-73.67
0
LINE
8
BLACK
6
CONTINUOUS
10
159.858
20
-73.67
11
159.9
21
-73.6876
0
LINE
8
BLACK
6
CONTINUOUS
10
159.9
20
-73.6876
11
159.918
21
-73.73
0
LINE
8
BLACK
6
CONTINUOUS
10
154.408
20
-74.37
11
154.898
21
-74.37
0
LINE
8
BLACK
6
CONTINUOUS
10
154.898
20
-74.37
11
154.898
21
-73.73
0
LINE
8
BLACK
6
CONTINUOUS
10
154.898
20
-73.73
11
154.915
21
-73.6876
0
LINE
8
BLACK
6
CONTINUOUS
10
154.915
20
-73.6876
11
154.958
21
-73.67
0
LINE
8
BLACK
6
CONTINUOUS
10
154.958
20
-73.67
11
156.848
21
-73.67
0
LINE
8
BLACK
6
CONTINUOUS
10
156.848
20
-73.67
11
156.848
21
-73.18
0
LINE
8
BLACK
6
CONTINUOUS
10
156.848
20
-73.18
11
154.408
21
-73.18
0
LINE
8
BLACK
6
CONTINUOUS
10
154.408
20
-73.18
11
154.408
21
-74.37
0
LINE
8
BLACK
6
CONTINUOUS
10
155.34
20
-72.7776
11
155.358
21
-72.82
0
LINE
8
BLACK
6
CONTINUOUS
10
155.358
20
-72.82
11
155.34
21
-72.8624
0
LINE
8
BLACK
6
CONTINUOUS
10
155.34
20
-72.8624
11
155.298
21
-72.88
0
LINE
8
BLACK
6
CONTINUOUS
10
155.298
20
-72.88
11
154.108
21
-72.88
0
LINE
8
BLACK
6
CONTINUOUS
10
154.108
20
-72.88
11
154.108
21
-74.07
0
LINE
8
BLACK
6
CONTINUOUS
10
154.108
20
-74.07
11
154.09
21
-74.1124
0
LINE
8
BLACK
6
CONTINUOUS
10
154.09
20
-74.1124
11
154.048
21
-74.13
0
LINE
8
BLACK
6
CONTINUOUS
10
154.048
20
-74.13
11
154.005
21
-74.1124
0
LINE
8
BLACK
6
CONTINUOUS
10
154.005
20
-74.1124
11
153.988
21
-74.07
0
LINE
8
BLACK
6
CONTINUOUS
10
153.988
20
-74.07
11
153.988
21
-72.82
0
LINE
8
BLACK
6
CONTINUOUS
10
153.988
20
-72.82
11
154.005
21
-72.7776
0
LINE
8
BLACK
6
CONTINUOUS
10
154.005
20
-72.7776
11
154.048
21
-72.76
0
LINE
8
BLACK
6
CONTINUOUS
10
154.048
20
-72.76
11
155.298
21
-72.76
0
LINE
8
BLACK
6
CONTINUOUS
10
155.298
20
-72.76
11
155.34
21
-72.7776
0
LINE
8
BLACK
6
CONTINUOUS
10
136.381
20
-72.897
11
136.385
21
-72.8962
0
LINE
8
BLACK
6
CONTINUOUS
10
136.385
20
-72.8962
11
136.404
21
-72.9071
0
LINE
8
BLACK
6
CONTINUOUS
10
136.404
20
-72.9071
11
136.424
21
-72.9159
0
LINE
8
BLACK
6
CONTINUOUS
10
136.424
20
-72.9159
11
136.426
21
-72.9197
0
LINE
8
BLACK
6
CONTINUOUS
10
136.426
20
-72.9197
11
136.429
21
-72.9219
0
LINE
8
BLACK
6
CONTINUOUS
10
136.429
20
-72.9219
11
136.437
21
-72.9423
0
LINE
8
BLACK
6
CONTINUOUS
10
136.437
20
-72.9423
11
136.446
21
-72.9618
0
LINE
8
BLACK
6
CONTINUOUS
10
136.446
20
-72.9618
11
136.445
21
-72.966
0
LINE
8
BLACK
6
CONTINUOUS
10
136.445
20
-72.966
11
136.447
21
-72.9701
0
LINE
8
BLACK
6
CONTINUOUS
10
136.447
20
-72.9701
11
136.447
21
-73.8951
0
LINE
8
BLACK
6
CONTINUOUS
10
136.447
20
-73.8951
11
136.658
21
-73.8951
0
LINE
8
BLACK
6
CONTINUOUS
10
136.658
20
-73.8951
11
136.683
21
-73.8996
0
LINE
8
BLACK
6
CONTINUOUS
10
136.683
20
-73.8996
11
136.722
21
-73.9326
0
LINE
8
BLACK
6
CONTINUOUS
10
136.722
20
-73.9326
11
136.731
21
-73.9831
0
LINE
8
BLACK
6
CONTINUOUS
10
136.731
20
-73.9831
11
136.706
21
-74.0275
0
LINE
8
BLACK
6
CONTINUOUS
10
136.706
20
-74.0275
11
136.658
21
-74.0451
0
LINE
8
BLACK
6
CONTINUOUS
10
136.658
20
-74.0451
11
136.086
21
-74.0451
0
LINE
8
BLACK
6
CONTINUOUS
10
136.086
20
-74.0451
11
136.06
21
-74.0406
0
LINE
8
BLACK
6
CONTINUOUS
10
136.06
20
-74.0406
11
136.021
21
-74.0076
0
LINE
8
BLACK
6
CONTINUOUS
10
136.021
20
-74.0076
11
136.012
21
-73.9571
0
LINE
8
BLACK
6
CONTINUOUS
10
136.012
20
-73.9571
11
136.038
21
-73.9126
0
LINE
8
BLACK
6
CONTINUOUS
10
136.038
20
-73.9126
11
136.086
21
-73.8951
0
LINE
8
BLACK
6
CONTINUOUS
10
136.086
20
-73.8951
11
136.297
21
-73.8951
0
LINE
8
BLACK
6
CONTINUOUS
10
136.297
20
-73.8951
11
136.297
21
-73.1988
0
LINE
8
BLACK
6
CONTINUOUS
10
136.297
20
-73.1988
11
136.234
21
-73.2612
0
LINE
8
BLACK
6
CONTINUOUS
10
136.234
20
-73.2612
11
136.216
21
-73.2741
0
LINE
8
BLACK
6
CONTINUOUS
10
136.216
20
-73.2741
11
136.215
21
-73.2753
0
LINE
8
BLACK
6
CONTINUOUS
10
136.215
20
-73.2753
11
136.12
21
-73.3229
0
LINE
8
BLACK
6
CONTINUOUS
10
136.12
20
-73.3229
11
136.095
21
-73.3303
0
LINE
8
BLACK
6
CONTINUOUS
10
136.095
20
-73.3303
11
136.045
21
-73.3184
0
LINE
8
BLACK
6
CONTINUOUS
10
136.045
20
-73.3184
11
136.014
21
-73.2772
0
LINE
8
BLACK
6
CONTINUOUS
10
136.014
20
-73.2772
11
136.017
21
-73.226
0
LINE
8
BLACK
6
CONTINUOUS
10
136.017
20
-73.226
11
136.053
21
-73.1887
0
LINE
8
BLACK
6
CONTINUOUS
10
136.053
20
-73.1887
11
136.137
21
-73.1465
0
LINE
8
BLACK
6
CONTINUOUS
10
136.137
20
-73.1465
11
136.218
21
-73.0652
0
LINE
8
BLACK
6
CONTINUOUS
10
136.218
20
-73.0652
11
136.309
21
-72.9285
0
LINE
8
BLACK
6
CONTINUOUS
10
136.309
20
-72.9285
11
136.327
21
-72.9097
0
LINE
8
BLACK
6
CONTINUOUS
10
136.327
20
-72.9097
11
136.332
21
-72.9084
0
LINE
8
BLACK
6
CONTINUOUS
10
136.332
20
-72.9084
11
136.334
21
-72.9051
0
LINE
8
BLACK
6
CONTINUOUS
10
136.334
20
-72.9051
11
136.356
21
-72.9014
0
LINE
8
BLACK
6
CONTINUOUS
10
136.356
20
-72.9014
11
136.377
21
-72.8952
0
LINE
8
BLACK
6
CONTINUOUS
10
136.377
20
-72.8952
11
136.381
21
-72.897
0
LINE
8
BLACK
6
CONTINUOUS
10
135.715
20
-72.9219
11
135.733
21
-72.9701
0
LINE
8
BLACK
6
CONTINUOUS
10
135.733
20
-72.9701
11
135.733
21
-73.9701
0
LINE
8
BLACK
6
CONTINUOUS
10
135.733
20
-73.9701
11
135.728
21
-73.9957
0
LINE
8
BLACK
6
CONTINUOUS
10
135.728
20
-73.9957
11
135.695
21
-74.035
0
LINE
8
BLACK
6
CONTINUOUS
10
135.695
20
-74.035
11
135.644
21
-74.044
0
LINE
8
BLACK
6
CONTINUOUS
10
135.644
20
-74.044
11
135.6
21
-74.0183
0
LINE
8
BLACK
6
CONTINUOUS
10
135.6
20
-74.0183
11
135.583
21
-73.9701
0
LINE
8
BLACK
6
CONTINUOUS
10
135.583
20
-73.9701
11
135.583
21
-73.5213
0
LINE
8
BLACK
6
CONTINUOUS
10
135.583
20
-73.5213
11
135.161
21
-73.5213
0
LINE
8
BLACK
6
CONTINUOUS
10
135.161
20
-73.5213
11
135.161
21
-73.9701
0
LINE
8
BLACK
6
CONTINUOUS
10
135.161
20
-73.9701
11
135.157
21
-73.9957
0
LINE
8
BLACK
6
CONTINUOUS
10
135.157
20
-73.9957
11
135.124
21
-74.035
0
LINE
8
BLACK
6
CONTINUOUS
10
135.124
20
-74.035
11
135.073
21
-74.044
0
LINE
8
BLACK
6
CONTINUOUS
10
135.073
20
-74.044
11
135.029
21
-74.0183
0
LINE
8
BLACK
6
CONTINUOUS
10
135.029
20
-74.0183
11
135.011
21
-73.9701
0
LINE
8
BLACK
6
CONTINUOUS
10
135.011
20
-73.9701
11
135.011
21
-72.9701
0
LINE
8
BLACK
6
CONTINUOUS
10
135.011
20
-72.9701
11
135.016
21
-72.9444
0
LINE
8
BLACK
6
CONTINUOUS
10
135.016
20
-72.9444
11
135.049
21
-72.9051
0
LINE
8
BLACK
6
CONTINUOUS
10
135.049
20
-72.9051
11
135.099
21
-72.8962
0
LINE
8
BLACK
6
CONTINUOUS
10
135.099
20
-72.8962
11
135.144
21
-72.9219
0
LINE
8
BLACK
6
CONTINUOUS
10
135.144
20
-72.9219
11
135.161
21
-72.9701
0
LINE
8
BLACK
6
CONTINUOUS
10
135.161
20
-72.9701
11
135.161
21
-73.3713
0
LINE
8
BLACK
6
CONTINUOUS
10
135.161
20
-73.3713
11
135.583
21
-73.3713
0
LINE
8
BLACK
6
CONTINUOUS
10
135.583
20
-73.3713
11
135.583
21
-72.9701
0
LINE
8
BLACK
6
CONTINUOUS
10
135.583
20
-72.9701
11
135.587
21
-72.9444
0
LINE
8
BLACK
6
CONTINUOUS
10
135.587
20
-72.9444
11
135.62
21
-72.9051
0
LINE
8
BLACK
6
CONTINUOUS
10
135.62
20
-72.9051
11
135.671
21
-72.8962
0
LINE
8
BLACK
6
CONTINUOUS
10
135.671
20
-72.8962
11
135.715
21
-72.9219
0
LINE
8
BLACK
6
CONTINUOUS
10
171.84
20
-71.2613
11
171.844
21
-71.2605
0
LINE
8
BLACK
6
CONTINUOUS
10
171.844
20
-71.2605
11
171.863
21
-71.2714
0
LINE
8
BLACK
6
CONTINUOUS
10
171.863
20
-71.2714
11
171.883
21
-71.2801
0
LINE
8
BLACK
6
CONTINUOUS
10
171.883
20
-71.2801
11
171.885
21
-71.284
0
LINE
8
BLACK
6
CONTINUOUS
10
171.885
20
-71.284
11
171.888
21
-71.2862
0
LINE
8
BLACK
6
CONTINUOUS
10
171.888
20
-71.2862
11
171.896
21
-71.3066
0
LINE
8
BLACK
6
CONTINUOUS
10
171.896
20
-71.3066
11
171.905
21
-71.3261
0
LINE
8
BLACK
6
CONTINUOUS
10
171.905
20
-71.3261
11
171.904
21
-71.3303
0
LINE
8
BLACK
6
CONTINUOUS
10
171.904
20
-71.3303
11
171.906
21
-71.3344
0
LINE
8
BLACK
6
CONTINUOUS
10
171.906
20
-71.3344
11
171.906
21
-72.2594
0
LINE
8
BLACK
6
CONTINUOUS
10
171.906
20
-72.2594
11
172.117
21
-72.2594
0
LINE
8
BLACK
6
CONTINUOUS
10
172.117
20
-72.2594
11
172.142
21
-72.2639
0
LINE
8
BLACK
6
CONTINUOUS
10
172.142
20
-72.2639
11
172.182
21
-72.2969
0
LINE
8
BLACK
6
CONTINUOUS
10
172.182
20
-72.2969
11
172.191
21
-72.3474
0
LINE
8
BLACK
6
CONTINUOUS
10
172.191
20
-72.3474
11
172.165
21
-72.3918
0
LINE
8
BLACK
6
CONTINUOUS
10
172.165
20
-72.3918
11
172.117
21
-72.4094
0
LINE
8
BLACK
6
CONTINUOUS
10
172.117
20
-72.4094
11
171.545
21
-72.4094
0
LINE
8
BLACK
6
CONTINUOUS
10
171.545
20
-72.4094
11
171.52
21
-72.4049
0
LINE
8
BLACK
6
CONTINUOUS
10
171.52
20
-72.4049
11
171.48
21
-72.3719
0
LINE
8
BLACK
6
CONTINUOUS
10
171.48
20
-72.3719
11
171.471
21
-72.3214
0
LINE
8
BLACK
6
CONTINUOUS
10
171.471
20
-72.3214
11
171.497
21
-72.2769
0
LINE
8
BLACK
6
CONTINUOUS
10
171.497
20
-72.2769
11
171.545
21
-72.2594
0
LINE
8
BLACK
6
CONTINUOUS
10
171.545
20
-72.2594
11
171.756
21
-72.2594
0
LINE
8
BLACK
6
CONTINUOUS
10
171.756
20
-72.2594
11
171.756
21
-71.5631
0
LINE
8
BLACK
6
CONTINUOUS
10
171.756
20
-71.5631
11
171.694
21
-71.6255
0
LINE
8
BLACK
6
CONTINUOUS
10
171.694
20
-71.6255
11
171.675
21
-71.6384
0
LINE
8
BLACK
6
CONTINUOUS
10
171.675
20
-71.6384
11
171.674
21
-71.6396
0
LINE
8
BLACK
6
CONTINUOUS
10
171.674
20
-71.6396
11
171.579
21
-71.6872
0
LINE
8
BLACK
6
CONTINUOUS
10
171.579
20
-71.6872
11
171.554
21
-71.6946
0
LINE
8
BLACK
6
CONTINUOUS
10
171.554
20
-71.6946
11
171.504
21
-71.6827
0
LINE
8
BLACK
6
CONTINUOUS
10
171.504
20
-71.6827
11
171.473
21
-71.6415
0
LINE
8
BLACK
6
CONTINUOUS
10
171.473
20
-71.6415
11
171.476
21
-71.5903
0
LINE
8
BLACK
6
CONTINUOUS
10
171.476
20
-71.5903
11
171.512
21
-71.553
0
LINE
8
BLACK
6
CONTINUOUS
10
171.512
20
-71.553
11
171.596
21
-71.5108
0
LINE
8
BLACK
6
CONTINUOUS
10
171.596
20
-71.5108
11
171.677
21
-71.4295
0
LINE
8
BLACK
6
CONTINUOUS
10
171.677
20
-71.4295
11
171.769
21
-71.2928
0
LINE
8
BLACK
6
CONTINUOUS
10
171.769
20
-71.2928
11
171.787
21
-71.2739
0
LINE
8
BLACK
6
CONTINUOUS
10
171.787
20
-71.2739
11
171.791
21
-71.2727
0
LINE
8
BLACK
6
CONTINUOUS
10
171.791
20
-71.2727
11
171.793
21
-71.2694
0
LINE
8
BLACK
6
CONTINUOUS
10
171.793
20
-71.2694
11
171.815
21
-71.2656
0
LINE
8
BLACK
6
CONTINUOUS
10
171.815
20
-71.2656
11
171.836
21
-71.2595
0
LINE
8
BLACK
6
CONTINUOUS
10
171.836
20
-71.2595
11
171.84
21
-71.2613
0
LINE
8
BLACK
6
CONTINUOUS
10
171.174
20
-71.2862
11
171.192
21
-71.3344
0
LINE
8
BLACK
6
CONTINUOUS
10
171.192
20
-71.3344
11
171.192
21
-72.0487
0
LINE
8
BLACK
6
CONTINUOUS
10
171.192
20
-72.0487
11
171.188
21
-72.0707
0
LINE
8
BLACK
6
CONTINUOUS
10
171.188
20
-72.0707
11
171.188
21
-72.0724
0
LINE
8
BLACK
6
CONTINUOUS
10
171.188
20
-72.0724
11
171.14
21
-72.2152
0
LINE
8
BLACK
6
CONTINUOUS
10
171.14
20
-72.2152
11
171.128
21
-72.2381
0
LINE
8
BLACK
6
CONTINUOUS
10
171.128
20
-72.2381
11
171.124
21
-72.2405
0
LINE
8
BLACK
6
CONTINUOUS
10
171.124
20
-72.2405
11
171.122
21
-72.2446
0
LINE
8
BLACK
6
CONTINUOUS
10
171.122
20
-72.2446
11
171.027
21
-72.3398
0
LINE
8
BLACK
6
CONTINUOUS
10
171.027
20
-72.3398
11
171.006
21
-72.3547
0
LINE
8
BLACK
6
CONTINUOUS
10
171.006
20
-72.3547
11
171.001
21
-72.3551
0
LINE
8
BLACK
6
CONTINUOUS
10
171.001
20
-72.3551
11
170.998
21
-72.3579
0
LINE
8
BLACK
6
CONTINUOUS
10
170.998
20
-72.3579
11
170.855
21
-72.4055
0
LINE
8
BLACK
6
CONTINUOUS
10
170.855
20
-72.4055
11
170.832
21
-72.4088
0
LINE
8
BLACK
6
CONTINUOUS
10
170.832
20
-72.4088
11
170.831
21
-72.4094
0
LINE
8
BLACK
6
CONTINUOUS
10
170.831
20
-72.4094
11
170.736
21
-72.4094
0
LINE
8
BLACK
6
CONTINUOUS
10
170.736
20
-72.4094
11
170.71
21
-72.4049
0
LINE
8
BLACK
6
CONTINUOUS
10
170.71
20
-72.4049
11
170.671
21
-72.3719
0
LINE
8
BLACK
6
CONTINUOUS
10
170.671
20
-72.3719
11
170.662
21
-72.3214
0
LINE
8
BLACK
6
CONTINUOUS
10
170.662
20
-72.3214
11
170.688
21
-72.2769
0
LINE
8
BLACK
6
CONTINUOUS
10
170.688
20
-72.2769
11
170.736
21
-72.2594
0
LINE
8
BLACK
6
CONTINUOUS
10
170.736
20
-72.2594
11
170.819
21
-72.2594
0
LINE
8
BLACK
6
CONTINUOUS
10
170.819
20
-72.2594
11
170.933
21
-72.2212
0
LINE
8
BLACK
6
CONTINUOUS
10
170.933
20
-72.2212
11
171.003
21
-72.151
0
LINE
8
BLACK
6
CONTINUOUS
10
171.003
20
-72.151
11
171.042
21
-72.0365
0
LINE
8
BLACK
6
CONTINUOUS
10
171.042
20
-72.0365
11
171.042
21
-71.3344
0
LINE
8
BLACK
6
CONTINUOUS
10
171.042
20
-71.3344
11
171.046
21
-71.3087
0
LINE
8
BLACK
6
CONTINUOUS
10
171.046
20
-71.3087
11
171.079
21
-71.2694
0
LINE
8
BLACK
6
CONTINUOUS
10
171.079
20
-71.2694
11
171.13
21
-71.2605
0
LINE
8
BLACK
6
CONTINUOUS
10
171.13
20
-71.2605
11
171.174
21
-71.2862
0
LINE
8
BLACK
6
CONTINUOUS
10
142.244
20
-71.245
11
142.261
21
-71.2932
0
LINE
8
BLACK
6
CONTINUOUS
10
142.261
20
-71.2932
11
142.261
21
-72.0075
0
LINE
8
BLACK
6
CONTINUOUS
10
142.261
20
-72.0075
11
142.257
21
-72.0295
0
LINE
8
BLACK
6
CONTINUOUS
10
142.257
20
-72.0295
11
142.257
21
-72.0312
0
LINE
8
BLACK
6
CONTINUOUS
10
142.257
20
-72.0312
11
142.21
21
-72.174
0
LINE
8
BLACK
6
CONTINUOUS
10
142.21
20
-72.174
11
142.197
21
-72.1969
0
LINE
8
BLACK
6
CONTINUOUS
10
142.197
20
-72.1969
11
142.193
21
-72.1993
0
LINE
8
BLACK
6
CONTINUOUS
10
142.193
20
-72.1993
11
142.191
21
-72.2034
0
LINE
8
BLACK
6
CONTINUOUS
10
142.191
20
-72.2034
11
142.096
21
-72.2986
0
LINE
8
BLACK
6
CONTINUOUS
10
142.096
20
-72.2986
11
142.075
21
-72.3135
0
LINE
8
BLACK
6
CONTINUOUS
10
142.075
20
-72.3135
11
142.07
21
-72.3139
0
LINE
8
BLACK
6
CONTINUOUS
10
142.07
20
-72.3139
11
142.067
21
-72.3167
0
LINE
8
BLACK
6
CONTINUOUS
10
142.067
20
-72.3167
11
141.924
21
-72.3643
0
LINE
8
BLACK
6
CONTINUOUS
10
141.924
20
-72.3643
11
141.902
21
-72.3676
0
LINE
8
BLACK
6
CONTINUOUS
10
141.902
20
-72.3676
11
141.9
21
-72.3682
0
LINE
8
BLACK
6
CONTINUOUS
10
141.9
20
-72.3682
11
141.805
21
-72.3682
0
LINE
8
BLACK
6
CONTINUOUS
10
141.805
20
-72.3682
11
141.779
21
-72.3637
0
LINE
8
BLACK
6
CONTINUOUS
10
141.779
20
-72.3637
11
141.74
21
-72.3307
0
LINE
8
BLACK
6
CONTINUOUS
10
141.74
20
-72.3307
11
141.731
21
-72.2802
0
LINE
8
BLACK
6
CONTINUOUS
10
141.731
20
-72.2802
11
141.757
21
-72.2357
0
LINE
8
BLACK
6
CONTINUOUS
10
141.757
20
-72.2357
11
141.805
21
-72.2182
0
LINE
8
BLACK
6
CONTINUOUS
10
141.805
20
-72.2182
11
141.888
21
-72.2182
0
LINE
8
BLACK
6
CONTINUOUS
10
141.888
20
-72.2182
11
142.003
21
-72.18
0
LINE
8
BLACK
6
CONTINUOUS
10
142.003
20
-72.18
11
142.073
21
-72.1098
0
LINE
8
BLACK
6
CONTINUOUS
10
142.073
20
-72.1098
11
142.111
21
-71.9953
0
LINE
8
BLACK
6
CONTINUOUS
10
142.111
20
-71.9953
11
142.111
21
-71.2932
0
LINE
8
BLACK
6
CONTINUOUS
10
142.111
20
-71.2932
11
142.116
21
-71.2675
0
LINE
8
BLACK
6
CONTINUOUS
10
142.116
20
-71.2675
11
142.149
21
-71.2282
0
LINE
8
BLACK
6
CONTINUOUS
10
142.149
20
-71.2282
11
142.199
21
-71.2193
0
LINE
8
BLACK
6
CONTINUOUS
10
142.199
20
-71.2193
11
142.244
21
-71.245
0
LINE
8
BLACK
6
CONTINUOUS
10
143.021
20
-71.2227
11
143.025
21
-71.2256
0
LINE
8
BLACK
6
CONTINUOUS
10
143.025
20
-71.2256
11
143.029
21
-71.2261
0
LINE
8
BLACK
6
CONTINUOUS
10
143.029
20
-71.2261
11
143.124
21
-71.2737
0
LINE
8
BLACK
6
CONTINUOUS
10
143.124
20
-71.2737
11
143.142
21
-71.2871
0
LINE
8
BLACK
6
CONTINUOUS
10
143.142
20
-71.2871
11
143.144
21
-71.2878
0
LINE
8
BLACK
6
CONTINUOUS
10
143.144
20
-71.2878
11
143.191
21
-71.3354
0
LINE
8
BLACK
6
CONTINUOUS
10
143.191
20
-71.3354
11
143.204
21
-71.3538
0
LINE
8
BLACK
6
CONTINUOUS
10
143.204
20
-71.3538
11
143.206
21
-71.3549
0
LINE
8
BLACK
6
CONTINUOUS
10
143.206
20
-71.3549
11
143.253
21
-71.4501
0
LINE
8
BLACK
6
CONTINUOUS
10
143.253
20
-71.4501
11
143.261
21
-71.4751
0
LINE
8
BLACK
6
CONTINUOUS
10
143.261
20
-71.4751
11
143.26
21
-71.4794
0
LINE
8
BLACK
6
CONTINUOUS
10
143.26
20
-71.4794
11
143.261
21
-71.4837
0
LINE
8
BLACK
6
CONTINUOUS
10
143.261
20
-71.4837
11
143.261
21
-71.5789
0
LINE
8
BLACK
6
CONTINUOUS
10
143.261
20
-71.5789
11
143.257
21
-71.601
0
LINE
8
BLACK
6
CONTINUOUS
10
143.257
20
-71.601
11
143.257
21
-71.6026
0
LINE
8
BLACK
6
CONTINUOUS
10
143.257
20
-71.6026
11
143.21
21
-71.7455
0
LINE
8
BLACK
6
CONTINUOUS
10
143.21
20
-71.7455
11
143.197
21
-71.7684
0
LINE
8
BLACK
6
CONTINUOUS
10
143.197
20
-71.7684
11
143.193
21
-71.7707
0
LINE
8
BLACK
6
CONTINUOUS
10
143.193
20
-71.7707
11
143.191
21
-71.7748
0
LINE
8
BLACK
6
CONTINUOUS
10
143.191
20
-71.7748
11
142.748
21
-72.2182
0
LINE
8
BLACK
6
CONTINUOUS
10
142.748
20
-72.2182
11
143.186
21
-72.2182
0
LINE
8
BLACK
6
CONTINUOUS
10
143.186
20
-72.2182
11
143.212
21
-72.2227
0
LINE
8
BLACK
6
CONTINUOUS
10
143.212
20
-72.2227
11
143.251
21
-72.2557
0
LINE
8
BLACK
6
CONTINUOUS
10
143.251
20
-72.2557
11
143.26
21
-72.3062
0
LINE
8
BLACK
6
CONTINUOUS
10
143.26
20
-72.3062
11
143.234
21
-72.3506
0
LINE
8
BLACK
6
CONTINUOUS
10
143.234
20
-72.3506
11
143.186
21
-72.3682
0
LINE
8
BLACK
6
CONTINUOUS
10
143.186
20
-72.3682
11
142.567
21
-72.3682
0
LINE
8
BLACK
6
CONTINUOUS
10
142.567
20
-72.3682
11
142.551
21
-72.3653
0
LINE
8
BLACK
6
CONTINUOUS
10
142.551
20
-72.3653
11
142.548
21
-72.3656
0
LINE
8
BLACK
6
CONTINUOUS
10
142.548
20
-72.3656
11
142.546
21
-72.3645
0
LINE
8
BLACK
6
CONTINUOUS
10
142.546
20
-72.3645
11
142.541
21
-72.3637
0
LINE
8
BLACK
6
CONTINUOUS
10
142.541
20
-72.3637
11
142.524
21
-72.3491
0
LINE
8
BLACK
6
CONTINUOUS
10
142.524
20
-72.3491
11
142.506
21
-72.3362
0
LINE
8
BLACK
6
CONTINUOUS
10
142.506
20
-72.3362
11
142.505
21
-72.3329
0
LINE
8
BLACK
6
CONTINUOUS
10
142.505
20
-72.3329
11
142.502
21
-72.3307
0
LINE
8
BLACK
6
CONTINUOUS
10
142.502
20
-72.3307
11
142.498
21
-72.3084
0
LINE
8
BLACK
6
CONTINUOUS
10
142.498
20
-72.3084
11
142.492
21
-72.2866
0
LINE
8
BLACK
6
CONTINUOUS
10
142.492
20
-72.2866
11
142.494
21
-72.2835
0
LINE
8
BLACK
6
CONTINUOUS
10
142.494
20
-72.2835
11
142.493
21
-72.2802
0
LINE
8
BLACK
6
CONTINUOUS
10
142.493
20
-72.2802
11
142.504
21
-72.2606
0
LINE
8
BLACK
6
CONTINUOUS
10
142.504
20
-72.2606
11
142.514
21
-72.2401
0
LINE
8
BLACK
6
CONTINUOUS
10
142.514
20
-72.2401
11
143.073
21
-71.6812
0
LINE
8
BLACK
6
CONTINUOUS
10
143.073
20
-71.6812
11
143.111
21
-71.5667
0
LINE
8
BLACK
6
CONTINUOUS
10
143.111
20
-71.5667
11
143.111
21
-71.5014
0
LINE
8
BLACK
6
CONTINUOUS
10
143.111
20
-71.5014
11
143.077
21
-71.4328
0
LINE
8
BLACK
6
CONTINUOUS
10
143.077
20
-71.4328
11
143.046
21
-71.4024
0
LINE
8
BLACK
6
CONTINUOUS
10
143.046
20
-71.4024
11
142.978
21
-71.3682
0
LINE
8
BLACK
6
CONTINUOUS
10
142.978
20
-71.3682
11
142.775
21
-71.3682
0
LINE
8
BLACK
6
CONTINUOUS
10
142.775
20
-71.3682
11
142.707
21
-71.4024
0
LINE
8
BLACK
6
CONTINUOUS
10
142.707
20
-71.4024
11
142.668
21
-71.4415
0
LINE
8
BLACK
6
CONTINUOUS
10
142.668
20
-71.4415
11
142.646
21
-71.4564
0
LINE
8
BLACK
6
CONTINUOUS
10
142.646
20
-71.4564
11
142.595
21
-71.4609
0
LINE
8
BLACK
6
CONTINUOUS
10
142.595
20
-71.4609
11
142.553
21
-71.4314
0
LINE
8
BLACK
6
CONTINUOUS
10
142.553
20
-71.4314
11
142.54
21
-71.3819
0
LINE
8
BLACK
6
CONTINUOUS
10
142.54
20
-71.3819
11
142.562
21
-71.3354
0
LINE
8
BLACK
6
CONTINUOUS
10
142.562
20
-71.3354
11
142.609
21
-71.2878
0
LINE
8
BLACK
6
CONTINUOUS
10
142.609
20
-71.2878
11
142.628
21
-71.2749
0
LINE
8
BLACK
6
CONTINUOUS
10
142.628
20
-71.2749
11
142.629
21
-71.2737
0
LINE
8
BLACK
6
CONTINUOUS
10
142.629
20
-71.2737
11
142.724
21
-71.2261
0
LINE
8
BLACK
6
CONTINUOUS
10
142.724
20
-71.2261
11
142.749
21
-71.2187
0
LINE
8
BLACK
6
CONTINUOUS
10
142.749
20
-71.2187
11
142.753
21
-71.2197
0
LINE
8
BLACK
6
CONTINUOUS
10
142.753
20
-71.2197
11
142.757
21
-71.2182
0
LINE
8
BLACK
6
CONTINUOUS
10
142.757
20
-71.2182
11
142.996
21
-71.2182
0
LINE
8
BLACK
6
CONTINUOUS
10
142.996
20
-71.2182
11
143.021
21
-71.2227
0
LINE
8
BLACK
6
CONTINUOUS
10
158.086
20
-71.1343
11
158.089
21
-71.1338
0
LINE
8
BLACK
6
CONTINUOUS
10
158.089
20
-71.1338
11
158.092
21
-71.1354
0
LINE
8
BLACK
6
CONTINUOUS
10
158.092
20
-71.1354
11
158.1
21
-71.1369
0
LINE
8
BLACK
6
CONTINUOUS
10
158.1
20
-71.1369
11
158.116
21
-71.1499
0
LINE
8
BLACK
6
CONTINUOUS
10
158.116
20
-71.1499
11
158.133
21
-71.1604
0
LINE
8
BLACK
6
CONTINUOUS
10
158.133
20
-71.1604
11
158.135
21
-71.166
0
LINE
8
BLACK
6
CONTINUOUS
10
158.135
20
-71.166
11
158.14
21
-71.1699
0
LINE
8
BLACK
6
CONTINUOUS
10
158.14
20
-71.1699
11
158.143
21
-71.1898
0
LINE
8
BLACK
6
CONTINUOUS
10
158.143
20
-71.1898
11
158.15
21
-71.2089
0
LINE
8
BLACK
6
CONTINUOUS
10
158.15
20
-71.2089
11
158.147
21
-71.2145
0
LINE
8
BLACK
6
CONTINUOUS
10
158.147
20
-71.2145
11
158.148
21
-71.2204
0
LINE
8
BLACK
6
CONTINUOUS
10
158.148
20
-71.2204
11
158.138
21
-71.2379
0
LINE
8
BLACK
6
CONTINUOUS
10
158.138
20
-71.2379
11
158.131
21
-71.2568
0
LINE
8
BLACK
6
CONTINUOUS
10
158.131
20
-71.2568
11
157.904
21
-71.5168
0
LINE
8
BLACK
6
CONTINUOUS
10
157.904
20
-71.5168
11
157.91
21
-71.5179
0
LINE
8
BLACK
6
CONTINUOUS
10
157.91
20
-71.5179
11
157.913
21
-71.5207
0
LINE
8
BLACK
6
CONTINUOUS
10
157.913
20
-71.5207
11
157.918
21
-71.5213
0
LINE
8
BLACK
6
CONTINUOUS
10
157.918
20
-71.5213
11
158.013
21
-71.5689
0
LINE
8
BLACK
6
CONTINUOUS
10
158.013
20
-71.5689
11
158.031
21
-71.5822
0
LINE
8
BLACK
6
CONTINUOUS
10
158.031
20
-71.5822
11
158.032
21
-71.5829
0
LINE
8
BLACK
6
CONTINUOUS
10
158.032
20
-71.5829
11
158.08
21
-71.6305
0
LINE
8
BLACK
6
CONTINUOUS
10
158.08
20
-71.6305
11
158.093
21
-71.6489
0
LINE
8
BLACK
6
CONTINUOUS
10
158.093
20
-71.6489
11
158.094
21
-71.65
0
LINE
8
BLACK
6
CONTINUOUS
10
158.094
20
-71.65
11
158.142
21
-71.7453
0
LINE
8
BLACK
6
CONTINUOUS
10
158.142
20
-71.7453
11
158.149
21
-71.7702
0
LINE
8
BLACK
6
CONTINUOUS
10
158.149
20
-71.7702
11
158.148
21
-71.7746
0
LINE
8
BLACK
6
CONTINUOUS
10
158.148
20
-71.7746
11
158.15
21
-71.7788
0
LINE
8
BLACK
6
CONTINUOUS
10
158.15
20
-71.7788
11
158.15
21
-72.0169
0
LINE
8
BLACK
6
CONTINUOUS
10
158.15
20
-72.0169
11
158.145
21
-72.0426
0
LINE
8
BLACK
6
CONTINUOUS
10
158.145
20
-72.0426
11
158.142
21
-72.046
0
LINE
8
BLACK
6
CONTINUOUS
10
158.142
20
-72.046
11
158.142
21
-72.0504
0
LINE
8
BLACK
6
CONTINUOUS
10
158.142
20
-72.0504
11
158.094
21
-72.1457
0
LINE
8
BLACK
6
CONTINUOUS
10
158.094
20
-72.1457
11
158.081
21
-72.1637
0
LINE
8
BLACK
6
CONTINUOUS
10
158.081
20
-72.1637
11
158.08
21
-72.1652
0
LINE
8
BLACK
6
CONTINUOUS
10
158.08
20
-72.1652
11
158.032
21
-72.2128
0
LINE
8
BLACK
6
CONTINUOUS
10
158.032
20
-72.2128
11
158.014
21
-72.2257
0
LINE
8
BLACK
6
CONTINUOUS
10
158.014
20
-72.2257
11
158.013
21
-72.2268
0
LINE
8
BLACK
6
CONTINUOUS
10
158.013
20
-72.2268
11
157.918
21
-72.2745
0
LINE
8
BLACK
6
CONTINUOUS
10
157.918
20
-72.2745
11
157.893
21
-72.2819
0
LINE
8
BLACK
6
CONTINUOUS
10
157.893
20
-72.2819
11
157.888
21
-72.2808
0
LINE
8
BLACK
6
CONTINUOUS
10
157.888
20
-72.2808
11
157.884
21
-72.2824
0
LINE
8
BLACK
6
CONTINUOUS
10
157.884
20
-72.2824
11
157.598
21
-72.2824
0
LINE
8
BLACK
6
CONTINUOUS
10
157.598
20
-72.2824
11
157.573
21
-72.2779
0
LINE
8
BLACK
6
CONTINUOUS
10
157.573
20
-72.2779
11
157.569
21
-72.275
0
LINE
8
BLACK
6
CONTINUOUS
10
157.569
20
-72.275
11
157.565
21
-72.2745
0
LINE
8
BLACK
6
CONTINUOUS
10
157.565
20
-72.2745
11
157.47
21
-72.2268
0
LINE
8
BLACK
6
CONTINUOUS
10
157.47
20
-72.2268
11
157.452
21
-72.2135
0
LINE
8
BLACK
6
CONTINUOUS
10
157.452
20
-72.2135
11
157.45
21
-72.2128
0
LINE
8
BLACK
6
CONTINUOUS
10
157.45
20
-72.2128
11
157.403
21
-72.1652
0
LINE
8
BLACK
6
CONTINUOUS
10
157.403
20
-72.1652
11
157.388
21
-72.1438
0
LINE
8
BLACK
6
CONTINUOUS
10
157.388
20
-72.1438
11
157.383
21
-72.0927
0
LINE
8
BLACK
6
CONTINUOUS
10
157.383
20
-72.0927
11
157.413
21
-72.0507
0
LINE
8
BLACK
6
CONTINUOUS
10
157.413
20
-72.0507
11
157.462
21
-72.0374
0
LINE
8
BLACK
6
CONTINUOUS
10
157.462
20
-72.0374
11
157.509
21
-72.0591
0
LINE
8
BLACK
6
CONTINUOUS
10
157.509
20
-72.0591
11
157.548
21
-72.0981
0
LINE
8
BLACK
6
CONTINUOUS
10
157.548
20
-72.0981
11
157.616
21
-72.1324
0
LINE
8
BLACK
6
CONTINUOUS
10
157.616
20
-72.1324
11
157.866
21
-72.1324
0
LINE
8
BLACK
6
CONTINUOUS
10
157.866
20
-72.1324
11
157.935
21
-72.0981
0
LINE
8
BLACK
6
CONTINUOUS
10
157.935
20
-72.0981
11
157.965
21
-72.0677
0
LINE
8
BLACK
6
CONTINUOUS
10
157.965
20
-72.0677
11
158
21
-71.9992
0
LINE
8
BLACK
6
CONTINUOUS
10
158
20
-71.9992
11
158
21
-71.7965
0
LINE
8
BLACK
6
CONTINUOUS
10
158
20
-71.7965
11
157.965
21
-71.728
0
LINE
8
BLACK
6
CONTINUOUS
10
157.965
20
-71.728
11
157.935
21
-71.6976
0
LINE
8
BLACK
6
CONTINUOUS
10
157.935
20
-71.6976
11
157.866
21
-71.6633
0
LINE
8
BLACK
6
CONTINUOUS
10
157.866
20
-71.6633
11
157.741
21
-71.6633
0
LINE
8
BLACK
6
CONTINUOUS
10
157.741
20
-71.6633
11
157.73
21
-71.6614
0
LINE
8
BLACK
6
CONTINUOUS
10
157.73
20
-71.6614
11
157.727
21
-71.6619
0
LINE
8
BLACK
6
CONTINUOUS
10
157.727
20
-71.6619
11
157.724
21
-71.6603
0
LINE
8
BLACK
6
CONTINUOUS
10
157.724
20
-71.6603
11
157.716
21
-71.6588
0
LINE
8
BLACK
6
CONTINUOUS
10
157.716
20
-71.6588
11
157.7
21
-71.6458
0
LINE
8
BLACK
6
CONTINUOUS
10
157.7
20
-71.6458
11
157.683
21
-71.6353
0
LINE
8
BLACK
6
CONTINUOUS
10
157.683
20
-71.6353
11
157.681
21
-71.6297
0
LINE
8
BLACK
6
CONTINUOUS
10
157.681
20
-71.6297
11
157.676
21
-71.6258
0
LINE
8
BLACK
6
CONTINUOUS
10
157.676
20
-71.6258
11
157.673
21
-71.6059
0
LINE
8
BLACK
6
CONTINUOUS
10
157.673
20
-71.6059
11
157.666
21
-71.5868
0
LINE
8
BLACK
6
CONTINUOUS
10
157.666
20
-71.5868
11
157.668
21
-71.5812
0
LINE
8
BLACK
6
CONTINUOUS
10
157.668
20
-71.5812
11
157.667
21
-71.5753
0
LINE
8
BLACK
6
CONTINUOUS
10
157.667
20
-71.5753
11
157.678
21
-71.5578
0
LINE
8
BLACK
6
CONTINUOUS
10
157.678
20
-71.5578
11
157.685
21
-71.5389
0
LINE
8
BLACK
6
CONTINUOUS
10
157.685
20
-71.5389
11
157.909
21
-71.2824
0
LINE
8
BLACK
6
CONTINUOUS
10
157.909
20
-71.2824
11
157.456
21
-71.2824
0
LINE
8
BLACK
6
CONTINUOUS
10
157.456
20
-71.2824
11
157.43
21
-71.2779
0
LINE
8
BLACK
6
CONTINUOUS
10
157.43
20
-71.2779
11
157.391
21
-71.2449
0
LINE
8
BLACK
6
CONTINUOUS
10
157.391
20
-71.2449
11
157.382
21
-71.1944
0
LINE
8
BLACK
6
CONTINUOUS
10
157.382
20
-71.1944
11
157.407
21
-71.1499
0
LINE
8
BLACK
6
CONTINUOUS
10
157.407
20
-71.1499
11
157.456
21
-71.1324
0
LINE
8
BLACK
6
CONTINUOUS
10
157.456
20
-71.1324
11
158.075
21
-71.1324
0
LINE
8
BLACK
6
CONTINUOUS
10
158.075
20
-71.1324
11
158.086
21
-71.1343
0
LINE
8
BLACK
6
CONTINUOUS
10
157.132
20
-71.1592
11
157.15
21
-71.2074
0
LINE
8
BLACK
6
CONTINUOUS
10
157.15
20
-71.2074
11
157.15
21
-71.9217
0
LINE
8
BLACK
6
CONTINUOUS
10
157.15
20
-71.9217
11
157.146
21
-71.9437
0
LINE
8
BLACK
6
CONTINUOUS
10
157.146
20
-71.9437
11
157.146
21
-71.9454
0
LINE
8
BLACK
6
CONTINUOUS
10
157.146
20
-71.9454
11
157.098
21
-72.0882
0
LINE
8
BLACK
6
CONTINUOUS
10
157.098
20
-72.0882
11
157.086
21
-72.1111
0
LINE
8
BLACK
6
CONTINUOUS
10
157.086
20
-72.1111
11
157.082
21
-72.1135
0
LINE
8
BLACK
6
CONTINUOUS
10
157.082
20
-72.1135
11
157.08
21
-72.1176
0
LINE
8
BLACK
6
CONTINUOUS
10
157.08
20
-72.1176
11
156.985
21
-72.2128
0
LINE
8
BLACK
6
CONTINUOUS
10
156.985
20
-72.2128
11
156.963
21
-72.2277
0
LINE
8
BLACK
6
CONTINUOUS
10
156.963
20
-72.2277
11
156.959
21
-72.2281
0
LINE
8
BLACK
6
CONTINUOUS
10
156.959
20
-72.2281
11
156.955
21
-72.2309
0
LINE
8
BLACK
6
CONTINUOUS
10
156.955
20
-72.2309
11
156.813
21
-72.2785
0
LINE
8
BLACK
6
CONTINUOUS
10
156.813
20
-72.2785
11
156.79
21
-72.2818
0
LINE
8
BLACK
6
CONTINUOUS
10
156.79
20
-72.2818
11
156.789
21
-72.2824
0
LINE
8
BLACK
6
CONTINUOUS
10
156.789
20
-72.2824
11
156.694
21
-72.2824
0
LINE
8
BLACK
6
CONTINUOUS
10
156.694
20
-72.2824
11
156.668
21
-72.2779
0
LINE
8
BLACK
6
CONTINUOUS
10
156.668
20
-72.2779
11
156.629
21
-72.2449
0
LINE
8
BLACK
6
CONTINUOUS
10
156.629
20
-72.2449
11
156.62
21
-72.1944
0
LINE
8
BLACK
6
CONTINUOUS
10
156.62
20
-72.1944
11
156.645
21
-72.1499
0
LINE
8
BLACK
6
CONTINUOUS
10
156.645
20
-72.1499
11
156.694
21
-72.1324
0
LINE
8
BLACK
6
CONTINUOUS
10
156.694
20
-72.1324
11
156.777
21
-72.1324
0
LINE
8
BLACK
6
CONTINUOUS
10
156.777
20
-72.1324
11
156.891
21
-72.0942
0
LINE
8
BLACK
6
CONTINUOUS
10
156.891
20
-72.0942
11
156.961
21
-72.024
0
LINE
8
BLACK
6
CONTINUOUS
10
156.961
20
-72.024
11
157
21
-71.9095
0
LINE
8
BLACK
6
CONTINUOUS
10
157
20
-71.9095
11
157
21
-71.2074
0
LINE
8
BLACK
6
CONTINUOUS
10
157
20
-71.2074
11
157.004
21
-71.1817
0
LINE
8
BLACK
6
CONTINUOUS
10
157.004
20
-71.1817
11
157.037
21
-71.1424
0
LINE
8
BLACK
6
CONTINUOUS
10
157.037
20
-71.1424
11
157.088
21
-71.1335
0
LINE
8
BLACK
6
CONTINUOUS
10
157.088
20
-71.1335
11
157.132
21
-71.1592
  0
ENDSEC
  0
EOF
