  0
SECTION
  2
HEADER
  9
$ANGBASE
  50
0.0
  9
$ANGDIR
  70
1
  9
$MEASUREMENT
  70
1
  0
ENDSEC
  0
SECTION
  2
TABLES
  0
TABLE
  2
LTYPE
  70
4
  0
LTYPE
  5
40F
  2
CONTINUOUS
  70
0
  3
Solid line
  72
65
  73
0
  40
0.0
  0
LTYPE
  5
410
  2
DASHDOT
 70
0
  3
Dash Dot ____ _ ____ _
 72
65
 73
4
 40
2.0
 49
1.25
 49
-0.25
 49
0.25
 49
-0.25
  0
LTYPE
  5
411
  2
DASHED
 70
0
  3
Dashed __ __ __ __ __
 72
65
 73
2
 40
0.75
 49
0.5
 49
-0.25
  0
LTYPE
  5
43B
  2
DOTTED
 70
0
  3
Dotted .  .  .  .
 72
65
 73
2
 40
0.2
 49
0.0
 49
-0.2
  0
ENDTAB
  0
TABLE
  2
STYLE
  70
4
  0
STYLE
  2
KICAD
  70
0
  40
0
  41
1
  42
1
  50
0
  71
0
  3
isocp.shx
  0
STYLE
  2
KICADB
  70
0
  40
0
  41
1
  42
1
  50
0
  71
0
  3
isocp.shx
  0
STYLE
  2
KICADI
  70
0
  40
0
  41
1
  42
1
  50
15
  71
0
  3
isocp.shx
  0
STYLE
  2
KICADBI
  70
0
  40
0
  41
1
  42
1
  50
15
  71
0
  3
isocp.shx
  0
ENDTAB
  0
TABLE
  2
LAYER
  70
1
  0
LAYER
  2
BLACK
  70
0
  62
7
  6
CONTINUOUS
  0
ENDTAB
  0
ENDSEC
  0
SECTION
  2
ENTITIES
0
LINE
8
BLACK
6
CONTINUOUS
10
152.885
20
-147.744
11
153.113
21
-147.785
0
LINE
8
BLACK
6
CONTINUOUS
10
153.113
20
-147.785
11
153.331
21
-147.865
0
LINE
8
BLACK
6
CONTINUOUS
10
153.331
20
-147.865
11
153.533
21
-147.979
0
LINE
8
BLACK
6
CONTINUOUS
10
153.533
20
-147.979
11
153.712
21
-148.126
0
LINE
8
BLACK
6
CONTINUOUS
10
153.712
20
-148.126
11
153.864
21
-148.302
0
LINE
8
BLACK
6
CONTINUOUS
10
153.864
20
-148.302
11
153.985
21
-148.5
0
LINE
8
BLACK
6
CONTINUOUS
10
153.985
20
-148.5
11
154.07
21
-148.716
0
LINE
8
BLACK
6
CONTINUOUS
10
154.07
20
-148.716
11
154.117
21
-148.943
0
LINE
8
BLACK
6
CONTINUOUS
10
154.117
20
-148.943
11
154.126
21
-149.174
0
LINE
8
BLACK
6
CONTINUOUS
10
154.126
20
-149.174
11
154.096
21
-149.404
0
LINE
8
BLACK
6
CONTINUOUS
10
154.096
20
-149.404
11
154.027
21
-149.626
0
LINE
8
BLACK
6
CONTINUOUS
10
154.027
20
-149.626
11
153.922
21
-149.832
0
LINE
8
BLACK
6
CONTINUOUS
10
153.922
20
-149.832
11
153.783
21
-150.019
0
LINE
8
BLACK
6
CONTINUOUS
10
153.783
20
-150.019
11
153.615
21
-150.179
0
LINE
8
BLACK
6
CONTINUOUS
10
153.615
20
-150.179
11
153.423
21
-150.308
0
LINE
8
BLACK
6
CONTINUOUS
10
153.423
20
-150.308
11
153.212
21
-150.403
0
LINE
8
BLACK
6
CONTINUOUS
10
153.212
20
-150.403
11
152.987
21
-150.462
0
LINE
8
BLACK
6
CONTINUOUS
10
152.987
20
-150.462
11
152.756
21
-150.481
0
LINE
8
BLACK
6
CONTINUOUS
10
152.756
20
-150.481
11
151.496
21
-150.481
0
LINE
8
BLACK
6
CONTINUOUS
10
151.496
20
-150.481
11
151.367
21
-150.475
0
LINE
8
BLACK
6
CONTINUOUS
10
151.367
20
-150.475
11
151.139
21
-150.434
0
LINE
8
BLACK
6
CONTINUOUS
10
151.139
20
-150.434
11
150.921
21
-150.355
0
LINE
8
BLACK
6
CONTINUOUS
10
150.921
20
-150.355
11
150.719
21
-150.24
0
LINE
8
BLACK
6
CONTINUOUS
10
150.719
20
-150.24
11
150.54
21
-150.093
0
LINE
8
BLACK
6
CONTINUOUS
10
150.54
20
-150.093
11
150.388
21
-149.918
0
LINE
8
BLACK
6
CONTINUOUS
10
150.388
20
-149.918
11
150.267
21
-149.72
0
LINE
8
BLACK
6
CONTINUOUS
10
150.267
20
-149.72
11
150.182
21
-149.504
0
LINE
8
BLACK
6
CONTINUOUS
10
150.182
20
-149.504
11
150.135
21
-149.277
0
LINE
8
BLACK
6
CONTINUOUS
10
150.135
20
-149.277
11
150.126
21
-149.045
0
LINE
8
BLACK
6
CONTINUOUS
10
150.126
20
-149.045
11
150.156
21
-148.815
0
LINE
8
BLACK
6
CONTINUOUS
10
150.156
20
-148.815
11
150.225
21
-148.594
0
LINE
8
BLACK
6
CONTINUOUS
10
150.225
20
-148.594
11
150.33
21
-148.387
0
LINE
8
BLACK
6
CONTINUOUS
10
150.33
20
-148.387
11
150.469
21
-148.201
0
LINE
8
BLACK
6
CONTINUOUS
10
150.469
20
-148.201
11
150.637
21
-148.041
0
LINE
8
BLACK
6
CONTINUOUS
10
150.637
20
-148.041
11
150.829
21
-147.911
0
LINE
8
BLACK
6
CONTINUOUS
10
150.829
20
-147.911
11
151.04
21
-147.816
0
LINE
8
BLACK
6
CONTINUOUS
10
151.04
20
-147.816
11
151.265
21
-147.758
0
LINE
8
BLACK
6
CONTINUOUS
10
151.265
20
-147.758
11
151.496
21
-147.738
0
LINE
8
BLACK
6
CONTINUOUS
10
151.496
20
-147.738
11
152.756
21
-147.738
0
LINE
8
BLACK
6
CONTINUOUS
10
152.756
20
-147.738
11
152.885
21
-147.744
0
LINE
8
BLACK
6
CONTINUOUS
10
157.986
20
-147.743
11
158.214
21
-147.785
0
LINE
8
BLACK
6
CONTINUOUS
10
158.214
20
-147.785
11
158.432
21
-147.864
0
LINE
8
BLACK
6
CONTINUOUS
10
158.432
20
-147.864
11
158.633
21
-147.979
0
LINE
8
BLACK
6
CONTINUOUS
10
158.633
20
-147.979
11
158.813
21
-148.126
0
LINE
8
BLACK
6
CONTINUOUS
10
158.813
20
-148.126
11
158.965
21
-148.301
0
LINE
8
BLACK
6
CONTINUOUS
10
158.965
20
-148.301
11
159.085
21
-148.499
0
LINE
8
BLACK
6
CONTINUOUS
10
159.085
20
-148.499
11
159.17
21
-148.715
0
LINE
8
BLACK
6
CONTINUOUS
10
159.17
20
-148.715
11
159.218
21
-148.942
0
LINE
8
BLACK
6
CONTINUOUS
10
159.218
20
-148.942
11
159.227
21
-149.174
0
LINE
8
BLACK
6
CONTINUOUS
10
159.227
20
-149.174
11
159.196
21
-149.403
0
LINE
8
BLACK
6
CONTINUOUS
10
159.196
20
-149.403
11
159.127
21
-149.625
0
LINE
8
BLACK
6
CONTINUOUS
10
159.127
20
-149.625
11
159.022
21
-149.832
0
LINE
8
BLACK
6
CONTINUOUS
10
159.022
20
-149.832
11
158.884
21
-150.018
0
LINE
8
BLACK
6
CONTINUOUS
10
158.884
20
-150.018
11
158.716
21
-150.178
0
LINE
8
BLACK
6
CONTINUOUS
10
158.716
20
-150.178
11
158.524
21
-150.307
0
LINE
8
BLACK
6
CONTINUOUS
10
158.524
20
-150.307
11
158.312
21
-150.403
0
LINE
8
BLACK
6
CONTINUOUS
10
158.312
20
-150.403
11
158.088
21
-150.461
0
LINE
8
BLACK
6
CONTINUOUS
10
158.088
20
-150.461
11
157.856
21
-150.481
0
LINE
8
BLACK
6
CONTINUOUS
10
157.856
20
-150.481
11
156.596
21
-150.481
0
LINE
8
BLACK
6
CONTINUOUS
10
156.596
20
-150.481
11
156.467
21
-150.474
0
LINE
8
BLACK
6
CONTINUOUS
10
156.467
20
-150.474
11
156.239
21
-150.433
0
LINE
8
BLACK
6
CONTINUOUS
10
156.239
20
-150.433
11
156.021
21
-150.354
0
LINE
8
BLACK
6
CONTINUOUS
10
156.021
20
-150.354
11
155.82
21
-150.239
0
LINE
8
BLACK
6
CONTINUOUS
10
155.82
20
-150.239
11
155.64
21
-150.092
0
LINE
8
BLACK
6
CONTINUOUS
10
155.64
20
-150.092
11
155.488
21
-149.917
0
LINE
8
BLACK
6
CONTINUOUS
10
155.488
20
-149.917
11
155.368
21
-149.719
0
LINE
8
BLACK
6
CONTINUOUS
10
155.368
20
-149.719
11
155.283
21
-149.503
0
LINE
8
BLACK
6
CONTINUOUS
10
155.283
20
-149.503
11
155.235
21
-149.276
0
LINE
8
BLACK
6
CONTINUOUS
10
155.235
20
-149.276
11
155.226
21
-149.044
0
LINE
8
BLACK
6
CONTINUOUS
10
155.226
20
-149.044
11
155.257
21
-148.814
0
LINE
8
BLACK
6
CONTINUOUS
10
155.257
20
-148.814
11
155.326
21
-148.593
0
LINE
8
BLACK
6
CONTINUOUS
10
155.326
20
-148.593
11
155.431
21
-148.386
0
LINE
8
BLACK
6
CONTINUOUS
10
155.431
20
-148.386
11
155.569
21
-148.2
0
LINE
8
BLACK
6
CONTINUOUS
10
155.569
20
-148.2
11
155.737
21
-148.04
0
LINE
8
BLACK
6
CONTINUOUS
10
155.737
20
-148.04
11
155.929
21
-147.91
0
LINE
8
BLACK
6
CONTINUOUS
10
155.929
20
-147.91
11
156.141
21
-147.815
0
LINE
8
BLACK
6
CONTINUOUS
10
156.141
20
-147.815
11
156.365
21
-147.757
0
LINE
8
BLACK
6
CONTINUOUS
10
156.365
20
-147.757
11
156.596
21
-147.737
0
LINE
8
BLACK
6
CONTINUOUS
10
156.596
20
-147.737
11
157.856
21
-147.737
0
LINE
8
BLACK
6
CONTINUOUS
10
157.856
20
-147.737
11
157.986
21
-147.743
0
LINE
8
BLACK
6
CONTINUOUS
10
162.985
20
-147.743
11
163.213
21
-147.785
0
LINE
8
BLACK
6
CONTINUOUS
10
163.213
20
-147.785
11
163.431
21
-147.864
0
LINE
8
BLACK
6
CONTINUOUS
10
163.431
20
-147.864
11
163.633
21
-147.979
0
LINE
8
BLACK
6
CONTINUOUS
10
163.633
20
-147.979
11
163.812
21
-148.126
0
LINE
8
BLACK
6
CONTINUOUS
10
163.812
20
-148.126
11
163.964
21
-148.301
0
LINE
8
BLACK
6
CONTINUOUS
10
163.964
20
-148.301
11
164.085
21
-148.499
0
LINE
8
BLACK
6
CONTINUOUS
10
164.085
20
-148.499
11
164.17
21
-148.715
0
LINE
8
BLACK
6
CONTINUOUS
10
164.17
20
-148.715
11
164.217
21
-148.942
0
LINE
8
BLACK
6
CONTINUOUS
10
164.217
20
-148.942
11
164.226
21
-149.174
0
LINE
8
BLACK
6
CONTINUOUS
10
164.226
20
-149.174
11
164.196
21
-149.403
0
LINE
8
BLACK
6
CONTINUOUS
10
164.196
20
-149.403
11
164.127
21
-149.625
0
LINE
8
BLACK
6
CONTINUOUS
10
164.127
20
-149.625
11
164.022
21
-149.832
0
LINE
8
BLACK
6
CONTINUOUS
10
164.022
20
-149.832
11
163.883
21
-150.018
0
LINE
8
BLACK
6
CONTINUOUS
10
163.883
20
-150.018
11
163.715
21
-150.178
0
LINE
8
BLACK
6
CONTINUOUS
10
163.715
20
-150.178
11
163.523
21
-150.307
0
LINE
8
BLACK
6
CONTINUOUS
10
163.523
20
-150.307
11
163.312
21
-150.403
0
LINE
8
BLACK
6
CONTINUOUS
10
163.312
20
-150.403
11
163.087
21
-150.461
0
LINE
8
BLACK
6
CONTINUOUS
10
163.087
20
-150.461
11
162.856
21
-150.481
0
LINE
8
BLACK
6
CONTINUOUS
10
162.856
20
-150.481
11
161.596
21
-150.481
0
LINE
8
BLACK
6
CONTINUOUS
10
161.596
20
-150.481
11
161.467
21
-150.474
0
LINE
8
BLACK
6
CONTINUOUS
10
161.467
20
-150.474
11
161.239
21
-150.433
0
LINE
8
BLACK
6
CONTINUOUS
10
161.239
20
-150.433
11
161.021
21
-150.354
0
LINE
8
BLACK
6
CONTINUOUS
10
161.021
20
-150.354
11
160.819
21
-150.239
0
LINE
8
BLACK
6
CONTINUOUS
10
160.819
20
-150.239
11
160.64
21
-150.092
0
LINE
8
BLACK
6
CONTINUOUS
10
160.64
20
-150.092
11
160.488
21
-149.917
0
LINE
8
BLACK
6
CONTINUOUS
10
160.488
20
-149.917
11
160.367
21
-149.719
0
LINE
8
BLACK
6
CONTINUOUS
10
160.367
20
-149.719
11
160.282
21
-149.503
0
LINE
8
BLACK
6
CONTINUOUS
10
160.282
20
-149.503
11
160.235
21
-149.276
0
LINE
8
BLACK
6
CONTINUOUS
10
160.235
20
-149.276
11
160.226
21
-149.044
0
LINE
8
BLACK
6
CONTINUOUS
10
160.226
20
-149.044
11
160.256
21
-148.814
0
LINE
8
BLACK
6
CONTINUOUS
10
160.256
20
-148.814
11
160.325
21
-148.593
0
LINE
8
BLACK
6
CONTINUOUS
10
160.325
20
-148.593
11
160.43
21
-148.386
0
LINE
8
BLACK
6
CONTINUOUS
10
160.43
20
-148.386
11
160.569
21
-148.2
0
LINE
8
BLACK
6
CONTINUOUS
10
160.569
20
-148.2
11
160.737
21
-148.04
0
LINE
8
BLACK
6
CONTINUOUS
10
160.737
20
-148.04
11
160.929
21
-147.91
0
LINE
8
BLACK
6
CONTINUOUS
10
160.929
20
-147.91
11
161.14
21
-147.815
0
LINE
8
BLACK
6
CONTINUOUS
10
161.14
20
-147.815
11
161.365
21
-147.757
0
LINE
8
BLACK
6
CONTINUOUS
10
161.365
20
-147.757
11
161.596
21
-147.737
0
LINE
8
BLACK
6
CONTINUOUS
10
161.596
20
-147.737
11
162.856
21
-147.737
0
LINE
8
BLACK
6
CONTINUOUS
10
162.856
20
-147.737
11
162.985
21
-147.743
0
LINE
8
BLACK
6
CONTINUOUS
10
152.885
20
-143.046
11
153.113
21
-143.087
0
LINE
8
BLACK
6
CONTINUOUS
10
153.113
20
-143.087
11
153.331
21
-143.166
0
LINE
8
BLACK
6
CONTINUOUS
10
153.331
20
-143.166
11
153.533
21
-143.281
0
LINE
8
BLACK
6
CONTINUOUS
10
153.533
20
-143.281
11
153.712
21
-143.428
0
LINE
8
BLACK
6
CONTINUOUS
10
153.712
20
-143.428
11
153.864
21
-143.603
0
LINE
8
BLACK
6
CONTINUOUS
10
153.864
20
-143.603
11
153.985
21
-143.801
0
LINE
8
BLACK
6
CONTINUOUS
10
153.985
20
-143.801
11
154.07
21
-144.017
0
LINE
8
BLACK
6
CONTINUOUS
10
154.07
20
-144.017
11
154.117
21
-144.244
0
LINE
8
BLACK
6
CONTINUOUS
10
154.117
20
-144.244
11
154.126
21
-144.476
0
LINE
8
BLACK
6
CONTINUOUS
10
154.126
20
-144.476
11
154.096
21
-144.706
0
LINE
8
BLACK
6
CONTINUOUS
10
154.096
20
-144.706
11
154.027
21
-144.927
0
LINE
8
BLACK
6
CONTINUOUS
10
154.027
20
-144.927
11
153.922
21
-145.134
0
LINE
8
BLACK
6
CONTINUOUS
10
153.922
20
-145.134
11
153.783
21
-145.32
0
LINE
8
BLACK
6
CONTINUOUS
10
153.783
20
-145.32
11
153.615
21
-145.48
0
LINE
8
BLACK
6
CONTINUOUS
10
153.615
20
-145.48
11
153.423
21
-145.61
0
LINE
8
BLACK
6
CONTINUOUS
10
153.423
20
-145.61
11
153.212
21
-145.705
0
LINE
8
BLACK
6
CONTINUOUS
10
153.212
20
-145.705
11
152.987
21
-145.763
0
LINE
8
BLACK
6
CONTINUOUS
10
152.987
20
-145.763
11
152.756
21
-145.783
0
LINE
8
BLACK
6
CONTINUOUS
10
152.756
20
-145.783
11
151.496
21
-145.783
0
LINE
8
BLACK
6
CONTINUOUS
10
151.496
20
-145.783
11
151.367
21
-145.777
0
LINE
8
BLACK
6
CONTINUOUS
10
151.367
20
-145.777
11
151.139
21
-145.736
0
LINE
8
BLACK
6
CONTINUOUS
10
151.139
20
-145.736
11
150.921
21
-145.656
0
LINE
8
BLACK
6
CONTINUOUS
10
150.921
20
-145.656
11
150.719
21
-145.542
0
LINE
8
BLACK
6
CONTINUOUS
10
150.719
20
-145.542
11
150.54
21
-145.395
0
LINE
8
BLACK
6
CONTINUOUS
10
150.54
20
-145.395
11
150.388
21
-145.219
0
LINE
8
BLACK
6
CONTINUOUS
10
150.388
20
-145.219
11
150.267
21
-145.021
0
LINE
8
BLACK
6
CONTINUOUS
10
150.267
20
-145.021
11
150.182
21
-144.805
0
LINE
8
BLACK
6
CONTINUOUS
10
150.182
20
-144.805
11
150.135
21
-144.578
0
LINE
8
BLACK
6
CONTINUOUS
10
150.135
20
-144.578
11
150.126
21
-144.347
0
LINE
8
BLACK
6
CONTINUOUS
10
150.126
20
-144.347
11
150.156
21
-144.117
0
LINE
8
BLACK
6
CONTINUOUS
10
150.156
20
-144.117
11
150.225
21
-143.895
0
LINE
8
BLACK
6
CONTINUOUS
10
150.225
20
-143.895
11
150.33
21
-143.689
0
LINE
8
BLACK
6
CONTINUOUS
10
150.33
20
-143.689
11
150.469
21
-143.502
0
LINE
8
BLACK
6
CONTINUOUS
10
150.469
20
-143.502
11
150.637
21
-143.342
0
LINE
8
BLACK
6
CONTINUOUS
10
150.637
20
-143.342
11
150.829
21
-143.213
0
LINE
8
BLACK
6
CONTINUOUS
10
150.829
20
-143.213
11
151.04
21
-143.118
0
LINE
8
BLACK
6
CONTINUOUS
10
151.04
20
-143.118
11
151.265
21
-143.059
0
LINE
8
BLACK
6
CONTINUOUS
10
151.265
20
-143.059
11
151.496
21
-143.04
0
LINE
8
BLACK
6
CONTINUOUS
10
151.496
20
-143.04
11
152.756
21
-143.04
0
LINE
8
BLACK
6
CONTINUOUS
10
152.756
20
-143.04
11
152.885
21
-143.046
0
LINE
8
BLACK
6
CONTINUOUS
10
162.985
20
-143.045
11
163.213
21
-143.086
0
LINE
8
BLACK
6
CONTINUOUS
10
163.213
20
-143.086
11
163.431
21
-143.165
0
LINE
8
BLACK
6
CONTINUOUS
10
163.431
20
-143.165
11
163.633
21
-143.28
0
LINE
8
BLACK
6
CONTINUOUS
10
163.633
20
-143.28
11
163.812
21
-143.427
0
LINE
8
BLACK
6
CONTINUOUS
10
163.812
20
-143.427
11
163.964
21
-143.602
0
LINE
8
BLACK
6
CONTINUOUS
10
163.964
20
-143.602
11
164.085
21
-143.801
0
LINE
8
BLACK
6
CONTINUOUS
10
164.085
20
-143.801
11
164.17
21
-144.016
0
LINE
8
BLACK
6
CONTINUOUS
10
164.17
20
-144.016
11
164.217
21
-144.243
0
LINE
8
BLACK
6
CONTINUOUS
10
164.217
20
-144.243
11
164.226
21
-144.475
0
LINE
8
BLACK
6
CONTINUOUS
10
164.226
20
-144.475
11
164.196
21
-144.705
0
LINE
8
BLACK
6
CONTINUOUS
10
164.196
20
-144.705
11
164.127
21
-144.927
0
LINE
8
BLACK
6
CONTINUOUS
10
164.127
20
-144.927
11
164.022
21
-145.133
0
LINE
8
BLACK
6
CONTINUOUS
10
164.022
20
-145.133
11
163.883
21
-145.319
0
LINE
8
BLACK
6
CONTINUOUS
10
163.883
20
-145.319
11
163.715
21
-145.479
0
LINE
8
BLACK
6
CONTINUOUS
10
163.715
20
-145.479
11
163.523
21
-145.609
0
LINE
8
BLACK
6
CONTINUOUS
10
163.523
20
-145.609
11
163.312
21
-145.704
0
LINE
8
BLACK
6
CONTINUOUS
10
163.312
20
-145.704
11
163.087
21
-145.763
0
LINE
8
BLACK
6
CONTINUOUS
10
163.087
20
-145.763
11
162.856
21
-145.782
0
LINE
8
BLACK
6
CONTINUOUS
10
162.856
20
-145.782
11
161.596
21
-145.782
0
LINE
8
BLACK
6
CONTINUOUS
10
161.596
20
-145.782
11
161.467
21
-145.776
0
LINE
8
BLACK
6
CONTINUOUS
10
161.467
20
-145.776
11
161.239
21
-145.735
0
LINE
8
BLACK
6
CONTINUOUS
10
161.239
20
-145.735
11
161.021
21
-145.656
0
LINE
8
BLACK
6
CONTINUOUS
10
161.021
20
-145.656
11
160.819
21
-145.541
0
LINE
8
BLACK
6
CONTINUOUS
10
160.819
20
-145.541
11
160.64
21
-145.394
0
LINE
8
BLACK
6
CONTINUOUS
10
160.64
20
-145.394
11
160.488
21
-145.219
0
LINE
8
BLACK
6
CONTINUOUS
10
160.488
20
-145.219
11
160.367
21
-145.02
0
LINE
8
BLACK
6
CONTINUOUS
10
160.367
20
-145.02
11
160.282
21
-144.805
0
LINE
8
BLACK
6
CONTINUOUS
10
160.282
20
-144.805
11
160.235
21
-144.578
0
LINE
8
BLACK
6
CONTINUOUS
10
160.235
20
-144.578
11
160.226
21
-144.346
0
LINE
8
BLACK
6
CONTINUOUS
10
160.226
20
-144.346
11
160.256
21
-144.116
0
LINE
8
BLACK
6
CONTINUOUS
10
160.256
20
-144.116
11
160.325
21
-143.894
0
LINE
8
BLACK
6
CONTINUOUS
10
160.325
20
-143.894
11
160.43
21
-143.688
0
LINE
8
BLACK
6
CONTINUOUS
10
160.43
20
-143.688
11
160.569
21
-143.502
0
LINE
8
BLACK
6
CONTINUOUS
10
160.569
20
-143.502
11
160.737
21
-143.342
0
LINE
8
BLACK
6
CONTINUOUS
10
160.737
20
-143.342
11
160.929
21
-143.212
0
LINE
8
BLACK
6
CONTINUOUS
10
160.929
20
-143.212
11
161.14
21
-143.117
0
LINE
8
BLACK
6
CONTINUOUS
10
161.14
20
-143.117
11
161.365
21
-143.059
0
LINE
8
BLACK
6
CONTINUOUS
10
161.365
20
-143.059
11
161.596
21
-143.039
0
LINE
8
BLACK
6
CONTINUOUS
10
161.596
20
-143.039
11
162.856
21
-143.039
0
LINE
8
BLACK
6
CONTINUOUS
10
162.856
20
-143.039
11
162.985
21
-143.045
0
LINE
8
BLACK
6
CONTINUOUS
10
157.986
20
-143.045
11
158.214
21
-143.086
0
LINE
8
BLACK
6
CONTINUOUS
10
158.214
20
-143.086
11
158.432
21
-143.165
0
LINE
8
BLACK
6
CONTINUOUS
10
158.432
20
-143.165
11
158.633
21
-143.28
0
LINE
8
BLACK
6
CONTINUOUS
10
158.633
20
-143.28
11
158.813
21
-143.427
0
LINE
8
BLACK
6
CONTINUOUS
10
158.813
20
-143.427
11
158.965
21
-143.602
0
LINE
8
BLACK
6
CONTINUOUS
10
158.965
20
-143.602
11
159.085
21
-143.801
0
LINE
8
BLACK
6
CONTINUOUS
10
159.085
20
-143.801
11
159.17
21
-144.016
0
LINE
8
BLACK
6
CONTINUOUS
10
159.17
20
-144.016
11
159.218
21
-144.243
0
LINE
8
BLACK
6
CONTINUOUS
10
159.218
20
-144.243
11
159.227
21
-144.475
0
LINE
8
BLACK
6
CONTINUOUS
10
159.227
20
-144.475
11
159.196
21
-144.705
0
LINE
8
BLACK
6
CONTINUOUS
10
159.196
20
-144.705
11
159.127
21
-144.927
0
LINE
8
BLACK
6
CONTINUOUS
10
159.127
20
-144.927
11
159.022
21
-145.133
0
LINE
8
BLACK
6
CONTINUOUS
10
159.022
20
-145.133
11
158.884
21
-145.319
0
LINE
8
BLACK
6
CONTINUOUS
10
158.884
20
-145.319
11
158.716
21
-145.479
0
LINE
8
BLACK
6
CONTINUOUS
10
158.716
20
-145.479
11
158.524
21
-145.609
0
LINE
8
BLACK
6
CONTINUOUS
10
158.524
20
-145.609
11
158.312
21
-145.704
0
LINE
8
BLACK
6
CONTINUOUS
10
158.312
20
-145.704
11
158.088
21
-145.763
0
LINE
8
BLACK
6
CONTINUOUS
10
158.088
20
-145.763
11
157.856
21
-145.782
0
LINE
8
BLACK
6
CONTINUOUS
10
157.856
20
-145.782
11
156.596
21
-145.782
0
LINE
8
BLACK
6
CONTINUOUS
10
156.596
20
-145.782
11
156.467
21
-145.776
0
LINE
8
BLACK
6
CONTINUOUS
10
156.467
20
-145.776
11
156.239
21
-145.735
0
LINE
8
BLACK
6
CONTINUOUS
10
156.239
20
-145.735
11
156.021
21
-145.656
0
LINE
8
BLACK
6
CONTINUOUS
10
156.021
20
-145.656
11
155.82
21
-145.541
0
LINE
8
BLACK
6
CONTINUOUS
10
155.82
20
-145.541
11
155.64
21
-145.394
0
LINE
8
BLACK
6
CONTINUOUS
10
155.64
20
-145.394
11
155.488
21
-145.219
0
LINE
8
BLACK
6
CONTINUOUS
10
155.488
20
-145.219
11
155.368
21
-145.02
0
LINE
8
BLACK
6
CONTINUOUS
10
155.368
20
-145.02
11
155.283
21
-144.805
0
LINE
8
BLACK
6
CONTINUOUS
10
155.283
20
-144.805
11
155.235
21
-144.578
0
LINE
8
BLACK
6
CONTINUOUS
10
155.235
20
-144.578
11
155.226
21
-144.346
0
LINE
8
BLACK
6
CONTINUOUS
10
155.226
20
-144.346
11
155.257
21
-144.116
0
LINE
8
BLACK
6
CONTINUOUS
10
155.257
20
-144.116
11
155.326
21
-143.894
0
LINE
8
BLACK
6
CONTINUOUS
10
155.326
20
-143.894
11
155.431
21
-143.688
0
LINE
8
BLACK
6
CONTINUOUS
10
155.431
20
-143.688
11
155.569
21
-143.502
0
LINE
8
BLACK
6
CONTINUOUS
10
155.569
20
-143.502
11
155.737
21
-143.342
0
LINE
8
BLACK
6
CONTINUOUS
10
155.737
20
-143.342
11
155.929
21
-143.212
0
LINE
8
BLACK
6
CONTINUOUS
10
155.929
20
-143.212
11
156.141
21
-143.117
0
LINE
8
BLACK
6
CONTINUOUS
10
156.141
20
-143.117
11
156.365
21
-143.059
0
LINE
8
BLACK
6
CONTINUOUS
10
156.365
20
-143.059
11
156.596
21
-143.039
0
LINE
8
BLACK
6
CONTINUOUS
10
156.596
20
-143.039
11
157.856
21
-143.039
0
LINE
8
BLACK
6
CONTINUOUS
10
157.856
20
-143.039
11
157.986
21
-143.045
0
LINE
8
BLACK
6
CONTINUOUS
10
152.885
20
-138.344
11
153.113
21
-138.385
0
LINE
8
BLACK
6
CONTINUOUS
10
153.113
20
-138.385
11
153.331
21
-138.465
0
LINE
8
BLACK
6
CONTINUOUS
10
153.331
20
-138.465
11
153.533
21
-138.579
0
LINE
8
BLACK
6
CONTINUOUS
10
153.533
20
-138.579
11
153.712
21
-138.726
0
LINE
8
BLACK
6
CONTINUOUS
10
153.712
20
-138.726
11
153.864
21
-138.902
0
LINE
8
BLACK
6
CONTINUOUS
10
153.864
20
-138.902
11
153.985
21
-139.1
0
LINE
8
BLACK
6
CONTINUOUS
10
153.985
20
-139.1
11
154.07
21
-139.316
0
LINE
8
BLACK
6
CONTINUOUS
10
154.07
20
-139.316
11
154.117
21
-139.543
0
LINE
8
BLACK
6
CONTINUOUS
10
154.117
20
-139.543
11
154.126
21
-139.774
0
LINE
8
BLACK
6
CONTINUOUS
10
154.126
20
-139.774
11
154.096
21
-140.004
0
LINE
8
BLACK
6
CONTINUOUS
10
154.096
20
-140.004
11
154.027
21
-140.226
0
LINE
8
BLACK
6
CONTINUOUS
10
154.027
20
-140.226
11
153.922
21
-140.432
0
LINE
8
BLACK
6
CONTINUOUS
10
153.922
20
-140.432
11
153.783
21
-140.619
0
LINE
8
BLACK
6
CONTINUOUS
10
153.783
20
-140.619
11
153.615
21
-140.779
0
LINE
8
BLACK
6
CONTINUOUS
10
153.615
20
-140.779
11
153.423
21
-140.908
0
LINE
8
BLACK
6
CONTINUOUS
10
153.423
20
-140.908
11
153.212
21
-141.003
0
LINE
8
BLACK
6
CONTINUOUS
10
153.212
20
-141.003
11
152.987
21
-141.062
0
LINE
8
BLACK
6
CONTINUOUS
10
152.987
20
-141.062
11
152.756
21
-141.081
0
LINE
8
BLACK
6
CONTINUOUS
10
152.756
20
-141.081
11
151.496
21
-141.081
0
LINE
8
BLACK
6
CONTINUOUS
10
151.496
20
-141.081
11
151.367
21
-141.075
0
LINE
8
BLACK
6
CONTINUOUS
10
151.367
20
-141.075
11
151.139
21
-141.034
0
LINE
8
BLACK
6
CONTINUOUS
10
151.139
20
-141.034
11
150.921
21
-140.955
0
LINE
8
BLACK
6
CONTINUOUS
10
150.921
20
-140.955
11
150.719
21
-140.84
0
LINE
8
BLACK
6
CONTINUOUS
10
150.719
20
-140.84
11
150.54
21
-140.693
0
LINE
8
BLACK
6
CONTINUOUS
10
150.54
20
-140.693
11
150.388
21
-140.518
0
LINE
8
BLACK
6
CONTINUOUS
10
150.388
20
-140.518
11
150.267
21
-140.32
0
LINE
8
BLACK
6
CONTINUOUS
10
150.267
20
-140.32
11
150.182
21
-140.104
0
LINE
8
BLACK
6
CONTINUOUS
10
150.182
20
-140.104
11
150.135
21
-139.877
0
LINE
8
BLACK
6
CONTINUOUS
10
150.135
20
-139.877
11
150.126
21
-139.645
0
LINE
8
BLACK
6
CONTINUOUS
10
150.126
20
-139.645
11
150.156
21
-139.415
0
LINE
8
BLACK
6
CONTINUOUS
10
150.156
20
-139.415
11
150.225
21
-139.194
0
LINE
8
BLACK
6
CONTINUOUS
10
150.225
20
-139.194
11
150.33
21
-138.987
0
LINE
8
BLACK
6
CONTINUOUS
10
150.33
20
-138.987
11
150.469
21
-138.801
0
LINE
8
BLACK
6
CONTINUOUS
10
150.469
20
-138.801
11
150.637
21
-138.641
0
LINE
8
BLACK
6
CONTINUOUS
10
150.637
20
-138.641
11
150.829
21
-138.511
0
LINE
8
BLACK
6
CONTINUOUS
10
150.829
20
-138.511
11
151.04
21
-138.416
0
LINE
8
BLACK
6
CONTINUOUS
10
151.04
20
-138.416
11
151.265
21
-138.358
0
LINE
8
BLACK
6
CONTINUOUS
10
151.265
20
-138.358
11
151.496
21
-138.338
0
LINE
8
BLACK
6
CONTINUOUS
10
151.496
20
-138.338
11
152.756
21
-138.338
0
LINE
8
BLACK
6
CONTINUOUS
10
152.756
20
-138.338
11
152.885
21
-138.344
0
LINE
8
BLACK
6
CONTINUOUS
10
157.986
20
-138.343
11
158.214
21
-138.385
0
LINE
8
BLACK
6
CONTINUOUS
10
158.214
20
-138.385
11
158.432
21
-138.464
0
LINE
8
BLACK
6
CONTINUOUS
10
158.432
20
-138.464
11
158.633
21
-138.579
0
LINE
8
BLACK
6
CONTINUOUS
10
158.633
20
-138.579
11
158.813
21
-138.726
0
LINE
8
BLACK
6
CONTINUOUS
10
158.813
20
-138.726
11
158.965
21
-138.901
0
LINE
8
BLACK
6
CONTINUOUS
10
158.965
20
-138.901
11
159.085
21
-139.099
0
LINE
8
BLACK
6
CONTINUOUS
10
159.085
20
-139.099
11
159.17
21
-139.315
0
LINE
8
BLACK
6
CONTINUOUS
10
159.17
20
-139.315
11
159.218
21
-139.542
0
LINE
8
BLACK
6
CONTINUOUS
10
159.218
20
-139.542
11
159.227
21
-139.774
0
LINE
8
BLACK
6
CONTINUOUS
10
159.227
20
-139.774
11
159.196
21
-140.003
0
LINE
8
BLACK
6
CONTINUOUS
10
159.196
20
-140.003
11
159.127
21
-140.225
0
LINE
8
BLACK
6
CONTINUOUS
10
159.127
20
-140.225
11
159.022
21
-140.432
0
LINE
8
BLACK
6
CONTINUOUS
10
159.022
20
-140.432
11
158.884
21
-140.618
0
LINE
8
BLACK
6
CONTINUOUS
10
158.884
20
-140.618
11
158.716
21
-140.778
0
LINE
8
BLACK
6
CONTINUOUS
10
158.716
20
-140.778
11
158.524
21
-140.907
0
LINE
8
BLACK
6
CONTINUOUS
10
158.524
20
-140.907
11
158.312
21
-141.003
0
LINE
8
BLACK
6
CONTINUOUS
10
158.312
20
-141.003
11
158.088
21
-141.061
0
LINE
8
BLACK
6
CONTINUOUS
10
158.088
20
-141.061
11
157.856
21
-141.081
0
LINE
8
BLACK
6
CONTINUOUS
10
157.856
20
-141.081
11
156.596
21
-141.081
0
LINE
8
BLACK
6
CONTINUOUS
10
156.596
20
-141.081
11
156.467
21
-141.074
0
LINE
8
BLACK
6
CONTINUOUS
10
156.467
20
-141.074
11
156.239
21
-141.033
0
LINE
8
BLACK
6
CONTINUOUS
10
156.239
20
-141.033
11
156.021
21
-140.954
0
LINE
8
BLACK
6
CONTINUOUS
10
156.021
20
-140.954
11
155.82
21
-140.839
0
LINE
8
BLACK
6
CONTINUOUS
10
155.82
20
-140.839
11
155.64
21
-140.692
0
LINE
8
BLACK
6
CONTINUOUS
10
155.64
20
-140.692
11
155.488
21
-140.517
0
LINE
8
BLACK
6
CONTINUOUS
10
155.488
20
-140.517
11
155.368
21
-140.319
0
LINE
8
BLACK
6
CONTINUOUS
10
155.368
20
-140.319
11
155.283
21
-140.103
0
LINE
8
BLACK
6
CONTINUOUS
10
155.283
20
-140.103
11
155.235
21
-139.876
0
LINE
8
BLACK
6
CONTINUOUS
10
155.235
20
-139.876
11
155.226
21
-139.644
0
LINE
8
BLACK
6
CONTINUOUS
10
155.226
20
-139.644
11
155.257
21
-139.414
0
LINE
8
BLACK
6
CONTINUOUS
10
155.257
20
-139.414
11
155.326
21
-139.193
0
LINE
8
BLACK
6
CONTINUOUS
10
155.326
20
-139.193
11
155.431
21
-138.986
0
LINE
8
BLACK
6
CONTINUOUS
10
155.431
20
-138.986
11
155.569
21
-138.8
0
LINE
8
BLACK
6
CONTINUOUS
10
155.569
20
-138.8
11
155.737
21
-138.64
0
LINE
8
BLACK
6
CONTINUOUS
10
155.737
20
-138.64
11
155.929
21
-138.51
0
LINE
8
BLACK
6
CONTINUOUS
10
155.929
20
-138.51
11
156.141
21
-138.415
0
LINE
8
BLACK
6
CONTINUOUS
10
156.141
20
-138.415
11
156.365
21
-138.357
0
LINE
8
BLACK
6
CONTINUOUS
10
156.365
20
-138.357
11
156.596
21
-138.337
0
LINE
8
BLACK
6
CONTINUOUS
10
156.596
20
-138.337
11
157.856
21
-138.337
0
LINE
8
BLACK
6
CONTINUOUS
10
157.856
20
-138.337
11
157.986
21
-138.343
0
LINE
8
BLACK
6
CONTINUOUS
10
162.985
20
-138.343
11
163.213
21
-138.385
0
LINE
8
BLACK
6
CONTINUOUS
10
163.213
20
-138.385
11
163.431
21
-138.464
0
LINE
8
BLACK
6
CONTINUOUS
10
163.431
20
-138.464
11
163.633
21
-138.579
0
LINE
8
BLACK
6
CONTINUOUS
10
163.633
20
-138.579
11
163.812
21
-138.726
0
LINE
8
BLACK
6
CONTINUOUS
10
163.812
20
-138.726
11
163.964
21
-138.901
0
LINE
8
BLACK
6
CONTINUOUS
10
163.964
20
-138.901
11
164.085
21
-139.099
0
LINE
8
BLACK
6
CONTINUOUS
10
164.085
20
-139.099
11
164.17
21
-139.315
0
LINE
8
BLACK
6
CONTINUOUS
10
164.17
20
-139.315
11
164.217
21
-139.542
0
LINE
8
BLACK
6
CONTINUOUS
10
164.217
20
-139.542
11
164.226
21
-139.774
0
LINE
8
BLACK
6
CONTINUOUS
10
164.226
20
-139.774
11
164.196
21
-140.003
0
LINE
8
BLACK
6
CONTINUOUS
10
164.196
20
-140.003
11
164.127
21
-140.225
0
LINE
8
BLACK
6
CONTINUOUS
10
164.127
20
-140.225
11
164.022
21
-140.432
0
LINE
8
BLACK
6
CONTINUOUS
10
164.022
20
-140.432
11
163.883
21
-140.618
0
LINE
8
BLACK
6
CONTINUOUS
10
163.883
20
-140.618
11
163.715
21
-140.778
0
LINE
8
BLACK
6
CONTINUOUS
10
163.715
20
-140.778
11
163.523
21
-140.907
0
LINE
8
BLACK
6
CONTINUOUS
10
163.523
20
-140.907
11
163.312
21
-141.003
0
LINE
8
BLACK
6
CONTINUOUS
10
163.312
20
-141.003
11
163.087
21
-141.061
0
LINE
8
BLACK
6
CONTINUOUS
10
163.087
20
-141.061
11
162.856
21
-141.081
0
LINE
8
BLACK
6
CONTINUOUS
10
162.856
20
-141.081
11
161.596
21
-141.081
0
LINE
8
BLACK
6
CONTINUOUS
10
161.596
20
-141.081
11
161.467
21
-141.074
0
LINE
8
BLACK
6
CONTINUOUS
10
161.467
20
-141.074
11
161.239
21
-141.033
0
LINE
8
BLACK
6
CONTINUOUS
10
161.239
20
-141.033
11
161.021
21
-140.954
0
LINE
8
BLACK
6
CONTINUOUS
10
161.021
20
-140.954
11
160.819
21
-140.839
0
LINE
8
BLACK
6
CONTINUOUS
10
160.819
20
-140.839
11
160.64
21
-140.692
0
LINE
8
BLACK
6
CONTINUOUS
10
160.64
20
-140.692
11
160.488
21
-140.517
0
LINE
8
BLACK
6
CONTINUOUS
10
160.488
20
-140.517
11
160.367
21
-140.319
0
LINE
8
BLACK
6
CONTINUOUS
10
160.367
20
-140.319
11
160.282
21
-140.103
0
LINE
8
BLACK
6
CONTINUOUS
10
160.282
20
-140.103
11
160.235
21
-139.876
0
LINE
8
BLACK
6
CONTINUOUS
10
160.235
20
-139.876
11
160.226
21
-139.644
0
LINE
8
BLACK
6
CONTINUOUS
10
160.226
20
-139.644
11
160.256
21
-139.414
0
LINE
8
BLACK
6
CONTINUOUS
10
160.256
20
-139.414
11
160.325
21
-139.193
0
LINE
8
BLACK
6
CONTINUOUS
10
160.325
20
-139.193
11
160.43
21
-138.986
0
LINE
8
BLACK
6
CONTINUOUS
10
160.43
20
-138.986
11
160.569
21
-138.8
0
LINE
8
BLACK
6
CONTINUOUS
10
160.569
20
-138.8
11
160.737
21
-138.64
0
LINE
8
BLACK
6
CONTINUOUS
10
160.737
20
-138.64
11
160.929
21
-138.51
0
LINE
8
BLACK
6
CONTINUOUS
10
160.929
20
-138.51
11
161.14
21
-138.415
0
LINE
8
BLACK
6
CONTINUOUS
10
161.14
20
-138.415
11
161.365
21
-138.357
0
LINE
8
BLACK
6
CONTINUOUS
10
161.365
20
-138.357
11
161.596
21
-138.337
0
LINE
8
BLACK
6
CONTINUOUS
10
161.596
20
-138.337
11
162.856
21
-138.337
0
LINE
8
BLACK
6
CONTINUOUS
10
162.856
20
-138.337
11
162.985
21
-138.343
0
LINE
8
BLACK
6
CONTINUOUS
10
134.073
20
-134.149
11
132.373
21
-134.149
0
LINE
8
BLACK
6
CONTINUOUS
10
132.373
20
-134.149
11
132.373
21
-132.449
0
LINE
8
BLACK
6
CONTINUOUS
10
132.373
20
-132.449
11
134.073
21
-132.449
0
LINE
8
BLACK
6
CONTINUOUS
10
134.073
20
-132.449
11
134.073
21
-134.149
0
LINE
8
BLACK
6
CONTINUOUS
10
136.026
20
-132.491
11
136.188
21
-132.563
0
LINE
8
BLACK
6
CONTINUOUS
10
136.188
20
-132.563
11
136.332
21
-132.668
0
LINE
8
BLACK
6
CONTINUOUS
10
136.332
20
-132.668
11
136.451
21
-132.8
0
LINE
8
BLACK
6
CONTINUOUS
10
136.451
20
-132.8
11
136.54
21
-132.953
0
LINE
8
BLACK
6
CONTINUOUS
10
136.54
20
-132.953
11
136.594
21
-133.122
0
LINE
8
BLACK
6
CONTINUOUS
10
136.594
20
-133.122
11
136.613
21
-133.299
0
LINE
8
BLACK
6
CONTINUOUS
10
136.613
20
-133.299
11
136.594
21
-133.476
0
LINE
8
BLACK
6
CONTINUOUS
10
136.594
20
-133.476
11
136.54
21
-133.645
0
LINE
8
BLACK
6
CONTINUOUS
10
136.54
20
-133.645
11
136.451
21
-133.799
0
LINE
8
BLACK
6
CONTINUOUS
10
136.451
20
-133.799
11
136.332
21
-133.931
0
LINE
8
BLACK
6
CONTINUOUS
10
136.332
20
-133.931
11
136.188
21
-134.035
0
LINE
8
BLACK
6
CONTINUOUS
10
136.188
20
-134.035
11
136.026
21
-134.108
0
LINE
8
BLACK
6
CONTINUOUS
10
136.026
20
-134.108
11
135.852
21
-134.145
0
LINE
8
BLACK
6
CONTINUOUS
10
135.852
20
-134.145
11
135.674
21
-134.145
0
LINE
8
BLACK
6
CONTINUOUS
10
135.674
20
-134.145
11
135.5
21
-134.108
0
LINE
8
BLACK
6
CONTINUOUS
10
135.5
20
-134.108
11
135.338
21
-134.035
0
LINE
8
BLACK
6
CONTINUOUS
10
135.338
20
-134.035
11
135.194
21
-133.931
0
LINE
8
BLACK
6
CONTINUOUS
10
135.194
20
-133.931
11
135.075
21
-133.799
0
LINE
8
BLACK
6
CONTINUOUS
10
135.075
20
-133.799
11
134.986
21
-133.645
0
LINE
8
BLACK
6
CONTINUOUS
10
134.986
20
-133.645
11
134.932
21
-133.476
0
LINE
8
BLACK
6
CONTINUOUS
10
134.932
20
-133.476
11
134.913
21
-133.299
0
LINE
8
BLACK
6
CONTINUOUS
10
134.913
20
-133.299
11
134.932
21
-133.122
0
LINE
8
BLACK
6
CONTINUOUS
10
134.932
20
-133.122
11
134.986
21
-132.953
0
LINE
8
BLACK
6
CONTINUOUS
10
134.986
20
-132.953
11
135.075
21
-132.8
0
LINE
8
BLACK
6
CONTINUOUS
10
135.075
20
-132.8
11
135.194
21
-132.668
0
LINE
8
BLACK
6
CONTINUOUS
10
135.194
20
-132.668
11
135.338
21
-132.563
0
LINE
8
BLACK
6
CONTINUOUS
10
135.338
20
-132.563
11
135.5
21
-132.491
0
LINE
8
BLACK
6
CONTINUOUS
10
135.5
20
-132.491
11
135.674
21
-132.454
0
LINE
8
BLACK
6
CONTINUOUS
10
135.674
20
-132.454
11
135.852
21
-132.454
0
LINE
8
BLACK
6
CONTINUOUS
10
135.852
20
-132.454
11
136.026
21
-132.491
0
LINE
8
BLACK
6
CONTINUOUS
10
138.566
20
-132.491
11
138.728
21
-132.563
0
LINE
8
BLACK
6
CONTINUOUS
10
138.728
20
-132.563
11
138.872
21
-132.668
0
LINE
8
BLACK
6
CONTINUOUS
10
138.872
20
-132.668
11
138.991
21
-132.8
0
LINE
8
BLACK
6
CONTINUOUS
10
138.991
20
-132.8
11
139.08
21
-132.953
0
LINE
8
BLACK
6
CONTINUOUS
10
139.08
20
-132.953
11
139.134
21
-133.122
0
LINE
8
BLACK
6
CONTINUOUS
10
139.134
20
-133.122
11
139.153
21
-133.299
0
LINE
8
BLACK
6
CONTINUOUS
10
139.153
20
-133.299
11
139.134
21
-133.476
0
LINE
8
BLACK
6
CONTINUOUS
10
139.134
20
-133.476
11
139.08
21
-133.645
0
LINE
8
BLACK
6
CONTINUOUS
10
139.08
20
-133.645
11
138.991
21
-133.799
0
LINE
8
BLACK
6
CONTINUOUS
10
138.991
20
-133.799
11
138.872
21
-133.931
0
LINE
8
BLACK
6
CONTINUOUS
10
138.872
20
-133.931
11
138.728
21
-134.035
0
LINE
8
BLACK
6
CONTINUOUS
10
138.728
20
-134.035
11
138.566
21
-134.108
0
LINE
8
BLACK
6
CONTINUOUS
10
138.566
20
-134.108
11
138.392
21
-134.145
0
LINE
8
BLACK
6
CONTINUOUS
10
138.392
20
-134.145
11
138.214
21
-134.145
0
LINE
8
BLACK
6
CONTINUOUS
10
138.214
20
-134.145
11
138.04
21
-134.108
0
LINE
8
BLACK
6
CONTINUOUS
10
138.04
20
-134.108
11
137.878
21
-134.035
0
LINE
8
BLACK
6
CONTINUOUS
10
137.878
20
-134.035
11
137.734
21
-133.931
0
LINE
8
BLACK
6
CONTINUOUS
10
137.734
20
-133.931
11
137.615
21
-133.799
0
LINE
8
BLACK
6
CONTINUOUS
10
137.615
20
-133.799
11
137.526
21
-133.645
0
LINE
8
BLACK
6
CONTINUOUS
10
137.526
20
-133.645
11
137.472
21
-133.476
0
LINE
8
BLACK
6
CONTINUOUS
10
137.472
20
-133.476
11
137.453
21
-133.299
0
LINE
8
BLACK
6
CONTINUOUS
10
137.453
20
-133.299
11
137.472
21
-133.122
0
LINE
8
BLACK
6
CONTINUOUS
10
137.472
20
-133.122
11
137.526
21
-132.953
0
LINE
8
BLACK
6
CONTINUOUS
10
137.526
20
-132.953
11
137.615
21
-132.8
0
LINE
8
BLACK
6
CONTINUOUS
10
137.615
20
-132.8
11
137.734
21
-132.668
0
LINE
8
BLACK
6
CONTINUOUS
10
137.734
20
-132.668
11
137.878
21
-132.563
0
LINE
8
BLACK
6
CONTINUOUS
10
137.878
20
-132.563
11
138.04
21
-132.491
0
LINE
8
BLACK
6
CONTINUOUS
10
138.04
20
-132.491
11
138.214
21
-132.454
0
LINE
8
BLACK
6
CONTINUOUS
10
138.214
20
-132.454
11
138.392
21
-132.454
0
LINE
8
BLACK
6
CONTINUOUS
10
138.392
20
-132.454
11
138.566
21
-132.491
0
LINE
8
BLACK
6
CONTINUOUS
10
141.106
20
-132.491
11
141.268
21
-132.563
0
LINE
8
BLACK
6
CONTINUOUS
10
141.268
20
-132.563
11
141.412
21
-132.668
0
LINE
8
BLACK
6
CONTINUOUS
10
141.412
20
-132.668
11
141.531
21
-132.8
0
LINE
8
BLACK
6
CONTINUOUS
10
141.531
20
-132.8
11
141.62
21
-132.953
0
LINE
8
BLACK
6
CONTINUOUS
10
141.62
20
-132.953
11
141.674
21
-133.122
0
LINE
8
BLACK
6
CONTINUOUS
10
141.674
20
-133.122
11
141.693
21
-133.299
0
LINE
8
BLACK
6
CONTINUOUS
10
141.693
20
-133.299
11
141.674
21
-133.476
0
LINE
8
BLACK
6
CONTINUOUS
10
141.674
20
-133.476
11
141.62
21
-133.645
0
LINE
8
BLACK
6
CONTINUOUS
10
141.62
20
-133.645
11
141.531
21
-133.799
0
LINE
8
BLACK
6
CONTINUOUS
10
141.531
20
-133.799
11
141.412
21
-133.931
0
LINE
8
BLACK
6
CONTINUOUS
10
141.412
20
-133.931
11
141.268
21
-134.035
0
LINE
8
BLACK
6
CONTINUOUS
10
141.268
20
-134.035
11
141.106
21
-134.108
0
LINE
8
BLACK
6
CONTINUOUS
10
141.106
20
-134.108
11
140.932
21
-134.145
0
LINE
8
BLACK
6
CONTINUOUS
10
140.932
20
-134.145
11
140.754
21
-134.145
0
LINE
8
BLACK
6
CONTINUOUS
10
140.754
20
-134.145
11
140.58
21
-134.108
0
LINE
8
BLACK
6
CONTINUOUS
10
140.58
20
-134.108
11
140.418
21
-134.035
0
LINE
8
BLACK
6
CONTINUOUS
10
140.418
20
-134.035
11
140.274
21
-133.931
0
LINE
8
BLACK
6
CONTINUOUS
10
140.274
20
-133.931
11
140.155
21
-133.799
0
LINE
8
BLACK
6
CONTINUOUS
10
140.155
20
-133.799
11
140.066
21
-133.645
0
LINE
8
BLACK
6
CONTINUOUS
10
140.066
20
-133.645
11
140.012
21
-133.476
0
LINE
8
BLACK
6
CONTINUOUS
10
140.012
20
-133.476
11
139.993
21
-133.299
0
LINE
8
BLACK
6
CONTINUOUS
10
139.993
20
-133.299
11
140.012
21
-133.122
0
LINE
8
BLACK
6
CONTINUOUS
10
140.012
20
-133.122
11
140.066
21
-132.953
0
LINE
8
BLACK
6
CONTINUOUS
10
140.066
20
-132.953
11
140.155
21
-132.8
0
LINE
8
BLACK
6
CONTINUOUS
10
140.155
20
-132.8
11
140.274
21
-132.668
0
LINE
8
BLACK
6
CONTINUOUS
10
140.274
20
-132.668
11
140.418
21
-132.563
0
LINE
8
BLACK
6
CONTINUOUS
10
140.418
20
-132.563
11
140.58
21
-132.491
0
LINE
8
BLACK
6
CONTINUOUS
10
140.58
20
-132.491
11
140.754
21
-132.454
0
LINE
8
BLACK
6
CONTINUOUS
10
140.754
20
-132.454
11
140.932
21
-132.454
0
LINE
8
BLACK
6
CONTINUOUS
10
140.932
20
-132.454
11
141.106
21
-132.491
0
LINE
8
BLACK
6
CONTINUOUS
10
143.646
20
-132.491
11
143.808
21
-132.563
0
LINE
8
BLACK
6
CONTINUOUS
10
143.808
20
-132.563
11
143.952
21
-132.668
0
LINE
8
BLACK
6
CONTINUOUS
10
143.952
20
-132.668
11
144.071
21
-132.8
0
LINE
8
BLACK
6
CONTINUOUS
10
144.071
20
-132.8
11
144.16
21
-132.953
0
LINE
8
BLACK
6
CONTINUOUS
10
144.16
20
-132.953
11
144.214
21
-133.122
0
LINE
8
BLACK
6
CONTINUOUS
10
144.214
20
-133.122
11
144.233
21
-133.299
0
LINE
8
BLACK
6
CONTINUOUS
10
144.233
20
-133.299
11
144.214
21
-133.476
0
LINE
8
BLACK
6
CONTINUOUS
10
144.214
20
-133.476
11
144.16
21
-133.645
0
LINE
8
BLACK
6
CONTINUOUS
10
144.16
20
-133.645
11
144.071
21
-133.799
0
LINE
8
BLACK
6
CONTINUOUS
10
144.071
20
-133.799
11
143.952
21
-133.931
0
LINE
8
BLACK
6
CONTINUOUS
10
143.952
20
-133.931
11
143.808
21
-134.035
0
LINE
8
BLACK
6
CONTINUOUS
10
143.808
20
-134.035
11
143.646
21
-134.108
0
LINE
8
BLACK
6
CONTINUOUS
10
143.646
20
-134.108
11
143.472
21
-134.145
0
LINE
8
BLACK
6
CONTINUOUS
10
143.472
20
-134.145
11
143.294
21
-134.145
0
LINE
8
BLACK
6
CONTINUOUS
10
143.294
20
-134.145
11
143.12
21
-134.108
0
LINE
8
BLACK
6
CONTINUOUS
10
143.12
20
-134.108
11
142.958
21
-134.035
0
LINE
8
BLACK
6
CONTINUOUS
10
142.958
20
-134.035
11
142.814
21
-133.931
0
LINE
8
BLACK
6
CONTINUOUS
10
142.814
20
-133.931
11
142.695
21
-133.799
0
LINE
8
BLACK
6
CONTINUOUS
10
142.695
20
-133.799
11
142.606
21
-133.645
0
LINE
8
BLACK
6
CONTINUOUS
10
142.606
20
-133.645
11
142.552
21
-133.476
0
LINE
8
BLACK
6
CONTINUOUS
10
142.552
20
-133.476
11
142.533
21
-133.299
0
LINE
8
BLACK
6
CONTINUOUS
10
142.533
20
-133.299
11
142.552
21
-133.122
0
LINE
8
BLACK
6
CONTINUOUS
10
142.552
20
-133.122
11
142.606
21
-132.953
0
LINE
8
BLACK
6
CONTINUOUS
10
142.606
20
-132.953
11
142.695
21
-132.8
0
LINE
8
BLACK
6
CONTINUOUS
10
142.695
20
-132.8
11
142.814
21
-132.668
0
LINE
8
BLACK
6
CONTINUOUS
10
142.814
20
-132.668
11
142.958
21
-132.563
0
LINE
8
BLACK
6
CONTINUOUS
10
142.958
20
-132.563
11
143.12
21
-132.491
0
LINE
8
BLACK
6
CONTINUOUS
10
143.12
20
-132.491
11
143.294
21
-132.454
0
LINE
8
BLACK
6
CONTINUOUS
10
143.294
20
-132.454
11
143.472
21
-132.454
0
LINE
8
BLACK
6
CONTINUOUS
10
143.472
20
-132.454
11
143.646
21
-132.491
0
LINE
8
BLACK
6
CONTINUOUS
10
146.186
20
-132.491
11
146.348
21
-132.563
0
LINE
8
BLACK
6
CONTINUOUS
10
146.348
20
-132.563
11
146.492
21
-132.668
0
LINE
8
BLACK
6
CONTINUOUS
10
146.492
20
-132.668
11
146.611
21
-132.8
0
LINE
8
BLACK
6
CONTINUOUS
10
146.611
20
-132.8
11
146.7
21
-132.953
0
LINE
8
BLACK
6
CONTINUOUS
10
146.7
20
-132.953
11
146.754
21
-133.122
0
LINE
8
BLACK
6
CONTINUOUS
10
146.754
20
-133.122
11
146.773
21
-133.299
0
LINE
8
BLACK
6
CONTINUOUS
10
146.773
20
-133.299
11
146.754
21
-133.476
0
LINE
8
BLACK
6
CONTINUOUS
10
146.754
20
-133.476
11
146.7
21
-133.645
0
LINE
8
BLACK
6
CONTINUOUS
10
146.7
20
-133.645
11
146.611
21
-133.799
0
LINE
8
BLACK
6
CONTINUOUS
10
146.611
20
-133.799
11
146.492
21
-133.931
0
LINE
8
BLACK
6
CONTINUOUS
10
146.492
20
-133.931
11
146.348
21
-134.035
0
LINE
8
BLACK
6
CONTINUOUS
10
146.348
20
-134.035
11
146.186
21
-134.108
0
LINE
8
BLACK
6
CONTINUOUS
10
146.186
20
-134.108
11
146.012
21
-134.145
0
LINE
8
BLACK
6
CONTINUOUS
10
146.012
20
-134.145
11
145.834
21
-134.145
0
LINE
8
BLACK
6
CONTINUOUS
10
145.834
20
-134.145
11
145.66
21
-134.108
0
LINE
8
BLACK
6
CONTINUOUS
10
145.66
20
-134.108
11
145.498
21
-134.035
0
LINE
8
BLACK
6
CONTINUOUS
10
145.498
20
-134.035
11
145.354
21
-133.931
0
LINE
8
BLACK
6
CONTINUOUS
10
145.354
20
-133.931
11
145.235
21
-133.799
0
LINE
8
BLACK
6
CONTINUOUS
10
145.235
20
-133.799
11
145.146
21
-133.645
0
LINE
8
BLACK
6
CONTINUOUS
10
145.146
20
-133.645
11
145.092
21
-133.476
0
LINE
8
BLACK
6
CONTINUOUS
10
145.092
20
-133.476
11
145.073
21
-133.299
0
LINE
8
BLACK
6
CONTINUOUS
10
145.073
20
-133.299
11
145.092
21
-133.122
0
LINE
8
BLACK
6
CONTINUOUS
10
145.092
20
-133.122
11
145.146
21
-132.953
0
LINE
8
BLACK
6
CONTINUOUS
10
145.146
20
-132.953
11
145.235
21
-132.8
0
LINE
8
BLACK
6
CONTINUOUS
10
145.235
20
-132.8
11
145.354
21
-132.668
0
LINE
8
BLACK
6
CONTINUOUS
10
145.354
20
-132.668
11
145.498
21
-132.563
0
LINE
8
BLACK
6
CONTINUOUS
10
145.498
20
-132.563
11
145.66
21
-132.491
0
LINE
8
BLACK
6
CONTINUOUS
10
145.66
20
-132.491
11
145.834
21
-132.454
0
LINE
8
BLACK
6
CONTINUOUS
10
145.834
20
-132.454
11
146.012
21
-132.454
0
LINE
8
BLACK
6
CONTINUOUS
10
146.012
20
-132.454
11
146.186
21
-132.491
0
LINE
8
BLACK
6
CONTINUOUS
10
169.046
20
-132.491
11
169.208
21
-132.563
0
LINE
8
BLACK
6
CONTINUOUS
10
169.208
20
-132.563
11
169.352
21
-132.668
0
LINE
8
BLACK
6
CONTINUOUS
10
169.352
20
-132.668
11
169.471
21
-132.8
0
LINE
8
BLACK
6
CONTINUOUS
10
169.471
20
-132.8
11
169.56
21
-132.953
0
LINE
8
BLACK
6
CONTINUOUS
10
169.56
20
-132.953
11
169.614
21
-133.122
0
LINE
8
BLACK
6
CONTINUOUS
10
169.614
20
-133.122
11
169.633
21
-133.299
0
LINE
8
BLACK
6
CONTINUOUS
10
169.633
20
-133.299
11
169.614
21
-133.476
0
LINE
8
BLACK
6
CONTINUOUS
10
169.614
20
-133.476
11
169.56
21
-133.645
0
LINE
8
BLACK
6
CONTINUOUS
10
169.56
20
-133.645
11
169.471
21
-133.799
0
LINE
8
BLACK
6
CONTINUOUS
10
169.471
20
-133.799
11
169.352
21
-133.931
0
LINE
8
BLACK
6
CONTINUOUS
10
169.352
20
-133.931
11
169.208
21
-134.035
0
LINE
8
BLACK
6
CONTINUOUS
10
169.208
20
-134.035
11
169.046
21
-134.108
0
LINE
8
BLACK
6
CONTINUOUS
10
169.046
20
-134.108
11
168.872
21
-134.145
0
LINE
8
BLACK
6
CONTINUOUS
10
168.872
20
-134.145
11
168.694
21
-134.145
0
LINE
8
BLACK
6
CONTINUOUS
10
168.694
20
-134.145
11
168.52
21
-134.108
0
LINE
8
BLACK
6
CONTINUOUS
10
168.52
20
-134.108
11
168.358
21
-134.035
0
LINE
8
BLACK
6
CONTINUOUS
10
168.358
20
-134.035
11
168.214
21
-133.931
0
LINE
8
BLACK
6
CONTINUOUS
10
168.214
20
-133.931
11
168.095
21
-133.799
0
LINE
8
BLACK
6
CONTINUOUS
10
168.095
20
-133.799
11
168.006
21
-133.645
0
LINE
8
BLACK
6
CONTINUOUS
10
168.006
20
-133.645
11
167.952
21
-133.476
0
LINE
8
BLACK
6
CONTINUOUS
10
167.952
20
-133.476
11
167.933
21
-133.299
0
LINE
8
BLACK
6
CONTINUOUS
10
167.933
20
-133.299
11
167.952
21
-133.122
0
LINE
8
BLACK
6
CONTINUOUS
10
167.952
20
-133.122
11
168.006
21
-132.953
0
LINE
8
BLACK
6
CONTINUOUS
10
168.006
20
-132.953
11
168.095
21
-132.8
0
LINE
8
BLACK
6
CONTINUOUS
10
168.095
20
-132.8
11
168.214
21
-132.668
0
LINE
8
BLACK
6
CONTINUOUS
10
168.214
20
-132.668
11
168.358
21
-132.563
0
LINE
8
BLACK
6
CONTINUOUS
10
168.358
20
-132.563
11
168.52
21
-132.491
0
LINE
8
BLACK
6
CONTINUOUS
10
168.52
20
-132.491
11
168.694
21
-132.454
0
LINE
8
BLACK
6
CONTINUOUS
10
168.694
20
-132.454
11
168.872
21
-132.454
0
LINE
8
BLACK
6
CONTINUOUS
10
168.872
20
-132.454
11
169.046
21
-132.491
0
LINE
8
BLACK
6
CONTINUOUS
10
163.966
20
-132.491
11
164.128
21
-132.563
0
LINE
8
BLACK
6
CONTINUOUS
10
164.128
20
-132.563
11
164.272
21
-132.668
0
LINE
8
BLACK
6
CONTINUOUS
10
164.272
20
-132.668
11
164.391
21
-132.8
0
LINE
8
BLACK
6
CONTINUOUS
10
164.391
20
-132.8
11
164.48
21
-132.953
0
LINE
8
BLACK
6
CONTINUOUS
10
164.48
20
-132.953
11
164.534
21
-133.122
0
LINE
8
BLACK
6
CONTINUOUS
10
164.534
20
-133.122
11
164.553
21
-133.299
0
LINE
8
BLACK
6
CONTINUOUS
10
164.553
20
-133.299
11
164.534
21
-133.476
0
LINE
8
BLACK
6
CONTINUOUS
10
164.534
20
-133.476
11
164.48
21
-133.645
0
LINE
8
BLACK
6
CONTINUOUS
10
164.48
20
-133.645
11
164.391
21
-133.799
0
LINE
8
BLACK
6
CONTINUOUS
10
164.391
20
-133.799
11
164.272
21
-133.931
0
LINE
8
BLACK
6
CONTINUOUS
10
164.272
20
-133.931
11
164.128
21
-134.035
0
LINE
8
BLACK
6
CONTINUOUS
10
164.128
20
-134.035
11
163.966
21
-134.108
0
LINE
8
BLACK
6
CONTINUOUS
10
163.966
20
-134.108
11
163.792
21
-134.145
0
LINE
8
BLACK
6
CONTINUOUS
10
163.792
20
-134.145
11
163.614
21
-134.145
0
LINE
8
BLACK
6
CONTINUOUS
10
163.614
20
-134.145
11
163.44
21
-134.108
0
LINE
8
BLACK
6
CONTINUOUS
10
163.44
20
-134.108
11
163.278
21
-134.035
0
LINE
8
BLACK
6
CONTINUOUS
10
163.278
20
-134.035
11
163.134
21
-133.931
0
LINE
8
BLACK
6
CONTINUOUS
10
163.134
20
-133.931
11
163.015
21
-133.799
0
LINE
8
BLACK
6
CONTINUOUS
10
163.015
20
-133.799
11
162.926
21
-133.645
0
LINE
8
BLACK
6
CONTINUOUS
10
162.926
20
-133.645
11
162.872
21
-133.476
0
LINE
8
BLACK
6
CONTINUOUS
10
162.872
20
-133.476
11
162.853
21
-133.299
0
LINE
8
BLACK
6
CONTINUOUS
10
162.853
20
-133.299
11
162.872
21
-133.122
0
LINE
8
BLACK
6
CONTINUOUS
10
162.872
20
-133.122
11
162.926
21
-132.953
0
LINE
8
BLACK
6
CONTINUOUS
10
162.926
20
-132.953
11
163.015
21
-132.8
0
LINE
8
BLACK
6
CONTINUOUS
10
163.015
20
-132.8
11
163.134
21
-132.668
0
LINE
8
BLACK
6
CONTINUOUS
10
163.134
20
-132.668
11
163.278
21
-132.563
0
LINE
8
BLACK
6
CONTINUOUS
10
163.278
20
-132.563
11
163.44
21
-132.491
0
LINE
8
BLACK
6
CONTINUOUS
10
163.44
20
-132.491
11
163.614
21
-132.454
0
LINE
8
BLACK
6
CONTINUOUS
10
163.614
20
-132.454
11
163.792
21
-132.454
0
LINE
8
BLACK
6
CONTINUOUS
10
163.792
20
-132.454
11
163.966
21
-132.491
0
LINE
8
BLACK
6
CONTINUOUS
10
174.126
20
-132.491
11
174.288
21
-132.563
0
LINE
8
BLACK
6
CONTINUOUS
10
174.288
20
-132.563
11
174.432
21
-132.668
0
LINE
8
BLACK
6
CONTINUOUS
10
174.432
20
-132.668
11
174.551
21
-132.8
0
LINE
8
BLACK
6
CONTINUOUS
10
174.551
20
-132.8
11
174.64
21
-132.953
0
LINE
8
BLACK
6
CONTINUOUS
10
174.64
20
-132.953
11
174.694
21
-133.122
0
LINE
8
BLACK
6
CONTINUOUS
10
174.694
20
-133.122
11
174.713
21
-133.299
0
LINE
8
BLACK
6
CONTINUOUS
10
174.713
20
-133.299
11
174.694
21
-133.476
0
LINE
8
BLACK
6
CONTINUOUS
10
174.694
20
-133.476
11
174.64
21
-133.645
0
LINE
8
BLACK
6
CONTINUOUS
10
174.64
20
-133.645
11
174.551
21
-133.799
0
LINE
8
BLACK
6
CONTINUOUS
10
174.551
20
-133.799
11
174.432
21
-133.931
0
LINE
8
BLACK
6
CONTINUOUS
10
174.432
20
-133.931
11
174.288
21
-134.035
0
LINE
8
BLACK
6
CONTINUOUS
10
174.288
20
-134.035
11
174.126
21
-134.108
0
LINE
8
BLACK
6
CONTINUOUS
10
174.126
20
-134.108
11
173.952
21
-134.145
0
LINE
8
BLACK
6
CONTINUOUS
10
173.952
20
-134.145
11
173.774
21
-134.145
0
LINE
8
BLACK
6
CONTINUOUS
10
173.774
20
-134.145
11
173.6
21
-134.108
0
LINE
8
BLACK
6
CONTINUOUS
10
173.6
20
-134.108
11
173.438
21
-134.035
0
LINE
8
BLACK
6
CONTINUOUS
10
173.438
20
-134.035
11
173.294
21
-133.931
0
LINE
8
BLACK
6
CONTINUOUS
10
173.294
20
-133.931
11
173.175
21
-133.799
0
LINE
8
BLACK
6
CONTINUOUS
10
173.175
20
-133.799
11
173.086
21
-133.645
0
LINE
8
BLACK
6
CONTINUOUS
10
173.086
20
-133.645
11
173.032
21
-133.476
0
LINE
8
BLACK
6
CONTINUOUS
10
173.032
20
-133.476
11
173.013
21
-133.299
0
LINE
8
BLACK
6
CONTINUOUS
10
173.013
20
-133.299
11
173.032
21
-133.122
0
LINE
8
BLACK
6
CONTINUOUS
10
173.032
20
-133.122
11
173.086
21
-132.953
0
LINE
8
BLACK
6
CONTINUOUS
10
173.086
20
-132.953
11
173.175
21
-132.8
0
LINE
8
BLACK
6
CONTINUOUS
10
173.175
20
-132.8
11
173.294
21
-132.668
0
LINE
8
BLACK
6
CONTINUOUS
10
173.294
20
-132.668
11
173.438
21
-132.563
0
LINE
8
BLACK
6
CONTINUOUS
10
173.438
20
-132.563
11
173.6
21
-132.491
0
LINE
8
BLACK
6
CONTINUOUS
10
173.6
20
-132.491
11
173.774
21
-132.454
0
LINE
8
BLACK
6
CONTINUOUS
10
173.774
20
-132.454
11
173.952
21
-132.454
0
LINE
8
BLACK
6
CONTINUOUS
10
173.952
20
-132.454
11
174.126
21
-132.491
0
LINE
8
BLACK
6
CONTINUOUS
10
176.666
20
-132.491
11
176.828
21
-132.563
0
LINE
8
BLACK
6
CONTINUOUS
10
176.828
20
-132.563
11
176.972
21
-132.668
0
LINE
8
BLACK
6
CONTINUOUS
10
176.972
20
-132.668
11
177.091
21
-132.8
0
LINE
8
BLACK
6
CONTINUOUS
10
177.091
20
-132.8
11
177.18
21
-132.953
0
LINE
8
BLACK
6
CONTINUOUS
10
177.18
20
-132.953
11
177.234
21
-133.122
0
LINE
8
BLACK
6
CONTINUOUS
10
177.234
20
-133.122
11
177.253
21
-133.299
0
LINE
8
BLACK
6
CONTINUOUS
10
177.253
20
-133.299
11
177.234
21
-133.476
0
LINE
8
BLACK
6
CONTINUOUS
10
177.234
20
-133.476
11
177.18
21
-133.645
0
LINE
8
BLACK
6
CONTINUOUS
10
177.18
20
-133.645
11
177.091
21
-133.799
0
LINE
8
BLACK
6
CONTINUOUS
10
177.091
20
-133.799
11
176.972
21
-133.931
0
LINE
8
BLACK
6
CONTINUOUS
10
176.972
20
-133.931
11
176.828
21
-134.035
0
LINE
8
BLACK
6
CONTINUOUS
10
176.828
20
-134.035
11
176.666
21
-134.108
0
LINE
8
BLACK
6
CONTINUOUS
10
176.666
20
-134.108
11
176.492
21
-134.145
0
LINE
8
BLACK
6
CONTINUOUS
10
176.492
20
-134.145
11
176.314
21
-134.145
0
LINE
8
BLACK
6
CONTINUOUS
10
176.314
20
-134.145
11
176.14
21
-134.108
0
LINE
8
BLACK
6
CONTINUOUS
10
176.14
20
-134.108
11
175.978
21
-134.035
0
LINE
8
BLACK
6
CONTINUOUS
10
175.978
20
-134.035
11
175.834
21
-133.931
0
LINE
8
BLACK
6
CONTINUOUS
10
175.834
20
-133.931
11
175.715
21
-133.799
0
LINE
8
BLACK
6
CONTINUOUS
10
175.715
20
-133.799
11
175.626
21
-133.645
0
LINE
8
BLACK
6
CONTINUOUS
10
175.626
20
-133.645
11
175.572
21
-133.476
0
LINE
8
BLACK
6
CONTINUOUS
10
175.572
20
-133.476
11
175.553
21
-133.299
0
LINE
8
BLACK
6
CONTINUOUS
10
175.553
20
-133.299
11
175.572
21
-133.122
0
LINE
8
BLACK
6
CONTINUOUS
10
175.572
20
-133.122
11
175.626
21
-132.953
0
LINE
8
BLACK
6
CONTINUOUS
10
175.626
20
-132.953
11
175.715
21
-132.8
0
LINE
8
BLACK
6
CONTINUOUS
10
175.715
20
-132.8
11
175.834
21
-132.668
0
LINE
8
BLACK
6
CONTINUOUS
10
175.834
20
-132.668
11
175.978
21
-132.563
0
LINE
8
BLACK
6
CONTINUOUS
10
175.978
20
-132.563
11
176.14
21
-132.491
0
LINE
8
BLACK
6
CONTINUOUS
10
176.14
20
-132.491
11
176.314
21
-132.454
0
LINE
8
BLACK
6
CONTINUOUS
10
176.314
20
-132.454
11
176.492
21
-132.454
0
LINE
8
BLACK
6
CONTINUOUS
10
176.492
20
-132.454
11
176.666
21
-132.491
0
LINE
8
BLACK
6
CONTINUOUS
10
179.206
20
-132.491
11
179.368
21
-132.563
0
LINE
8
BLACK
6
CONTINUOUS
10
179.368
20
-132.563
11
179.512
21
-132.668
0
LINE
8
BLACK
6
CONTINUOUS
10
179.512
20
-132.668
11
179.631
21
-132.8
0
LINE
8
BLACK
6
CONTINUOUS
10
179.631
20
-132.8
11
179.72
21
-132.953
0
LINE
8
BLACK
6
CONTINUOUS
10
179.72
20
-132.953
11
179.774
21
-133.122
0
LINE
8
BLACK
6
CONTINUOUS
10
179.774
20
-133.122
11
179.793
21
-133.299
0
LINE
8
BLACK
6
CONTINUOUS
10
179.793
20
-133.299
11
179.774
21
-133.476
0
LINE
8
BLACK
6
CONTINUOUS
10
179.774
20
-133.476
11
179.72
21
-133.645
0
LINE
8
BLACK
6
CONTINUOUS
10
179.72
20
-133.645
11
179.631
21
-133.799
0
LINE
8
BLACK
6
CONTINUOUS
10
179.631
20
-133.799
11
179.512
21
-133.931
0
LINE
8
BLACK
6
CONTINUOUS
10
179.512
20
-133.931
11
179.368
21
-134.035
0
LINE
8
BLACK
6
CONTINUOUS
10
179.368
20
-134.035
11
179.206
21
-134.108
0
LINE
8
BLACK
6
CONTINUOUS
10
179.206
20
-134.108
11
179.032
21
-134.145
0
LINE
8
BLACK
6
CONTINUOUS
10
179.032
20
-134.145
11
178.854
21
-134.145
0
LINE
8
BLACK
6
CONTINUOUS
10
178.854
20
-134.145
11
178.68
21
-134.108
0
LINE
8
BLACK
6
CONTINUOUS
10
178.68
20
-134.108
11
178.518
21
-134.035
0
LINE
8
BLACK
6
CONTINUOUS
10
178.518
20
-134.035
11
178.374
21
-133.931
0
LINE
8
BLACK
6
CONTINUOUS
10
178.374
20
-133.931
11
178.255
21
-133.799
0
LINE
8
BLACK
6
CONTINUOUS
10
178.255
20
-133.799
11
178.166
21
-133.645
0
LINE
8
BLACK
6
CONTINUOUS
10
178.166
20
-133.645
11
178.112
21
-133.476
0
LINE
8
BLACK
6
CONTINUOUS
10
178.112
20
-133.476
11
178.093
21
-133.299
0
LINE
8
BLACK
6
CONTINUOUS
10
178.093
20
-133.299
11
178.112
21
-133.122
0
LINE
8
BLACK
6
CONTINUOUS
10
178.112
20
-133.122
11
178.166
21
-132.953
0
LINE
8
BLACK
6
CONTINUOUS
10
178.166
20
-132.953
11
178.255
21
-132.8
0
LINE
8
BLACK
6
CONTINUOUS
10
178.255
20
-132.8
11
178.374
21
-132.668
0
LINE
8
BLACK
6
CONTINUOUS
10
178.374
20
-132.668
11
178.518
21
-132.563
0
LINE
8
BLACK
6
CONTINUOUS
10
178.518
20
-132.563
11
178.68
21
-132.491
0
LINE
8
BLACK
6
CONTINUOUS
10
178.68
20
-132.491
11
178.854
21
-132.454
0
LINE
8
BLACK
6
CONTINUOUS
10
178.854
20
-132.454
11
179.032
21
-132.454
0
LINE
8
BLACK
6
CONTINUOUS
10
179.032
20
-132.454
11
179.206
21
-132.491
0
LINE
8
BLACK
6
CONTINUOUS
10
181.746
20
-132.491
11
181.908
21
-132.563
0
LINE
8
BLACK
6
CONTINUOUS
10
181.908
20
-132.563
11
182.052
21
-132.668
0
LINE
8
BLACK
6
CONTINUOUS
10
182.052
20
-132.668
11
182.171
21
-132.8
0
LINE
8
BLACK
6
CONTINUOUS
10
182.171
20
-132.8
11
182.26
21
-132.953
0
LINE
8
BLACK
6
CONTINUOUS
10
182.26
20
-132.953
11
182.314
21
-133.122
0
LINE
8
BLACK
6
CONTINUOUS
10
182.314
20
-133.122
11
182.333
21
-133.299
0
LINE
8
BLACK
6
CONTINUOUS
10
182.333
20
-133.299
11
182.314
21
-133.476
0
LINE
8
BLACK
6
CONTINUOUS
10
182.314
20
-133.476
11
182.26
21
-133.645
0
LINE
8
BLACK
6
CONTINUOUS
10
182.26
20
-133.645
11
182.171
21
-133.799
0
LINE
8
BLACK
6
CONTINUOUS
10
182.171
20
-133.799
11
182.052
21
-133.931
0
LINE
8
BLACK
6
CONTINUOUS
10
182.052
20
-133.931
11
181.908
21
-134.035
0
LINE
8
BLACK
6
CONTINUOUS
10
181.908
20
-134.035
11
181.746
21
-134.108
0
LINE
8
BLACK
6
CONTINUOUS
10
181.746
20
-134.108
11
181.572
21
-134.145
0
LINE
8
BLACK
6
CONTINUOUS
10
181.572
20
-134.145
11
181.394
21
-134.145
0
LINE
8
BLACK
6
CONTINUOUS
10
181.394
20
-134.145
11
181.22
21
-134.108
0
LINE
8
BLACK
6
CONTINUOUS
10
181.22
20
-134.108
11
181.058
21
-134.035
0
LINE
8
BLACK
6
CONTINUOUS
10
181.058
20
-134.035
11
180.914
21
-133.931
0
LINE
8
BLACK
6
CONTINUOUS
10
180.914
20
-133.931
11
180.795
21
-133.799
0
LINE
8
BLACK
6
CONTINUOUS
10
180.795
20
-133.799
11
180.706
21
-133.645
0
LINE
8
BLACK
6
CONTINUOUS
10
180.706
20
-133.645
11
180.652
21
-133.476
0
LINE
8
BLACK
6
CONTINUOUS
10
180.652
20
-133.476
11
180.633
21
-133.299
0
LINE
8
BLACK
6
CONTINUOUS
10
180.633
20
-133.299
11
180.652
21
-133.122
0
LINE
8
BLACK
6
CONTINUOUS
10
180.652
20
-133.122
11
180.706
21
-132.953
0
LINE
8
BLACK
6
CONTINUOUS
10
180.706
20
-132.953
11
180.795
21
-132.8
0
LINE
8
BLACK
6
CONTINUOUS
10
180.795
20
-132.8
11
180.914
21
-132.668
0
LINE
8
BLACK
6
CONTINUOUS
10
180.914
20
-132.668
11
181.058
21
-132.563
0
LINE
8
BLACK
6
CONTINUOUS
10
181.058
20
-132.563
11
181.22
21
-132.491
0
LINE
8
BLACK
6
CONTINUOUS
10
181.22
20
-132.491
11
181.394
21
-132.454
0
LINE
8
BLACK
6
CONTINUOUS
10
181.394
20
-132.454
11
181.572
21
-132.454
0
LINE
8
BLACK
6
CONTINUOUS
10
181.572
20
-132.454
11
181.746
21
-132.491
0
LINE
8
BLACK
6
CONTINUOUS
10
171.586
20
-132.491
11
171.748
21
-132.563
0
LINE
8
BLACK
6
CONTINUOUS
10
171.748
20
-132.563
11
171.892
21
-132.668
0
LINE
8
BLACK
6
CONTINUOUS
10
171.892
20
-132.668
11
172.011
21
-132.8
0
LINE
8
BLACK
6
CONTINUOUS
10
172.011
20
-132.8
11
172.1
21
-132.953
0
LINE
8
BLACK
6
CONTINUOUS
10
172.1
20
-132.953
11
172.154
21
-133.122
0
LINE
8
BLACK
6
CONTINUOUS
10
172.154
20
-133.122
11
172.173
21
-133.299
0
LINE
8
BLACK
6
CONTINUOUS
10
172.173
20
-133.299
11
172.154
21
-133.476
0
LINE
8
BLACK
6
CONTINUOUS
10
172.154
20
-133.476
11
172.1
21
-133.645
0
LINE
8
BLACK
6
CONTINUOUS
10
172.1
20
-133.645
11
172.011
21
-133.799
0
LINE
8
BLACK
6
CONTINUOUS
10
172.011
20
-133.799
11
171.892
21
-133.931
0
LINE
8
BLACK
6
CONTINUOUS
10
171.892
20
-133.931
11
171.748
21
-134.035
0
LINE
8
BLACK
6
CONTINUOUS
10
171.748
20
-134.035
11
171.586
21
-134.108
0
LINE
8
BLACK
6
CONTINUOUS
10
171.586
20
-134.108
11
171.412
21
-134.145
0
LINE
8
BLACK
6
CONTINUOUS
10
171.412
20
-134.145
11
171.234
21
-134.145
0
LINE
8
BLACK
6
CONTINUOUS
10
171.234
20
-134.145
11
171.06
21
-134.108
0
LINE
8
BLACK
6
CONTINUOUS
10
171.06
20
-134.108
11
170.898
21
-134.035
0
LINE
8
BLACK
6
CONTINUOUS
10
170.898
20
-134.035
11
170.754
21
-133.931
0
LINE
8
BLACK
6
CONTINUOUS
10
170.754
20
-133.931
11
170.635
21
-133.799
0
LINE
8
BLACK
6
CONTINUOUS
10
170.635
20
-133.799
11
170.546
21
-133.645
0
LINE
8
BLACK
6
CONTINUOUS
10
170.546
20
-133.645
11
170.492
21
-133.476
0
LINE
8
BLACK
6
CONTINUOUS
10
170.492
20
-133.476
11
170.473
21
-133.299
0
LINE
8
BLACK
6
CONTINUOUS
10
170.473
20
-133.299
11
170.492
21
-133.122
0
LINE
8
BLACK
6
CONTINUOUS
10
170.492
20
-133.122
11
170.546
21
-132.953
0
LINE
8
BLACK
6
CONTINUOUS
10
170.546
20
-132.953
11
170.635
21
-132.8
0
LINE
8
BLACK
6
CONTINUOUS
10
170.635
20
-132.8
11
170.754
21
-132.668
0
LINE
8
BLACK
6
CONTINUOUS
10
170.754
20
-132.668
11
170.898
21
-132.563
0
LINE
8
BLACK
6
CONTINUOUS
10
170.898
20
-132.563
11
171.06
21
-132.491
0
LINE
8
BLACK
6
CONTINUOUS
10
171.06
20
-132.491
11
171.234
21
-132.454
0
LINE
8
BLACK
6
CONTINUOUS
10
171.234
20
-132.454
11
171.412
21
-132.454
0
LINE
8
BLACK
6
CONTINUOUS
10
171.412
20
-132.454
11
171.586
21
-132.491
0
LINE
8
BLACK
6
CONTINUOUS
10
161.426
20
-132.491
11
161.588
21
-132.563
0
LINE
8
BLACK
6
CONTINUOUS
10
161.588
20
-132.563
11
161.732
21
-132.668
0
LINE
8
BLACK
6
CONTINUOUS
10
161.732
20
-132.668
11
161.851
21
-132.8
0
LINE
8
BLACK
6
CONTINUOUS
10
161.851
20
-132.8
11
161.94
21
-132.953
0
LINE
8
BLACK
6
CONTINUOUS
10
161.94
20
-132.953
11
161.994
21
-133.122
0
LINE
8
BLACK
6
CONTINUOUS
10
161.994
20
-133.122
11
162.013
21
-133.299
0
LINE
8
BLACK
6
CONTINUOUS
10
162.013
20
-133.299
11
161.994
21
-133.476
0
LINE
8
BLACK
6
CONTINUOUS
10
161.994
20
-133.476
11
161.94
21
-133.645
0
LINE
8
BLACK
6
CONTINUOUS
10
161.94
20
-133.645
11
161.851
21
-133.799
0
LINE
8
BLACK
6
CONTINUOUS
10
161.851
20
-133.799
11
161.732
21
-133.931
0
LINE
8
BLACK
6
CONTINUOUS
10
161.732
20
-133.931
11
161.588
21
-134.035
0
LINE
8
BLACK
6
CONTINUOUS
10
161.588
20
-134.035
11
161.426
21
-134.108
0
LINE
8
BLACK
6
CONTINUOUS
10
161.426
20
-134.108
11
161.252
21
-134.145
0
LINE
8
BLACK
6
CONTINUOUS
10
161.252
20
-134.145
11
161.074
21
-134.145
0
LINE
8
BLACK
6
CONTINUOUS
10
161.074
20
-134.145
11
160.9
21
-134.108
0
LINE
8
BLACK
6
CONTINUOUS
10
160.9
20
-134.108
11
160.738
21
-134.035
0
LINE
8
BLACK
6
CONTINUOUS
10
160.738
20
-134.035
11
160.594
21
-133.931
0
LINE
8
BLACK
6
CONTINUOUS
10
160.594
20
-133.931
11
160.475
21
-133.799
0
LINE
8
BLACK
6
CONTINUOUS
10
160.475
20
-133.799
11
160.386
21
-133.645
0
LINE
8
BLACK
6
CONTINUOUS
10
160.386
20
-133.645
11
160.332
21
-133.476
0
LINE
8
BLACK
6
CONTINUOUS
10
160.332
20
-133.476
11
160.313
21
-133.299
0
LINE
8
BLACK
6
CONTINUOUS
10
160.313
20
-133.299
11
160.332
21
-133.122
0
LINE
8
BLACK
6
CONTINUOUS
10
160.332
20
-133.122
11
160.386
21
-132.953
0
LINE
8
BLACK
6
CONTINUOUS
10
160.386
20
-132.953
11
160.475
21
-132.8
0
LINE
8
BLACK
6
CONTINUOUS
10
160.475
20
-132.8
11
160.594
21
-132.668
0
LINE
8
BLACK
6
CONTINUOUS
10
160.594
20
-132.668
11
160.738
21
-132.563
0
LINE
8
BLACK
6
CONTINUOUS
10
160.738
20
-132.563
11
160.9
21
-132.491
0
LINE
8
BLACK
6
CONTINUOUS
10
160.9
20
-132.491
11
161.074
21
-132.454
0
LINE
8
BLACK
6
CONTINUOUS
10
161.074
20
-132.454
11
161.252
21
-132.454
0
LINE
8
BLACK
6
CONTINUOUS
10
161.252
20
-132.454
11
161.426
21
-132.491
0
LINE
8
BLACK
6
CONTINUOUS
10
158.886
20
-132.491
11
159.048
21
-132.563
0
LINE
8
BLACK
6
CONTINUOUS
10
159.048
20
-132.563
11
159.192
21
-132.668
0
LINE
8
BLACK
6
CONTINUOUS
10
159.192
20
-132.668
11
159.311
21
-132.8
0
LINE
8
BLACK
6
CONTINUOUS
10
159.311
20
-132.8
11
159.4
21
-132.953
0
LINE
8
BLACK
6
CONTINUOUS
10
159.4
20
-132.953
11
159.454
21
-133.122
0
LINE
8
BLACK
6
CONTINUOUS
10
159.454
20
-133.122
11
159.473
21
-133.299
0
LINE
8
BLACK
6
CONTINUOUS
10
159.473
20
-133.299
11
159.454
21
-133.476
0
LINE
8
BLACK
6
CONTINUOUS
10
159.454
20
-133.476
11
159.4
21
-133.645
0
LINE
8
BLACK
6
CONTINUOUS
10
159.4
20
-133.645
11
159.311
21
-133.799
0
LINE
8
BLACK
6
CONTINUOUS
10
159.311
20
-133.799
11
159.192
21
-133.931
0
LINE
8
BLACK
6
CONTINUOUS
10
159.192
20
-133.931
11
159.048
21
-134.035
0
LINE
8
BLACK
6
CONTINUOUS
10
159.048
20
-134.035
11
158.886
21
-134.108
0
LINE
8
BLACK
6
CONTINUOUS
10
158.886
20
-134.108
11
158.712
21
-134.145
0
LINE
8
BLACK
6
CONTINUOUS
10
158.712
20
-134.145
11
158.534
21
-134.145
0
LINE
8
BLACK
6
CONTINUOUS
10
158.534
20
-134.145
11
158.36
21
-134.108
0
LINE
8
BLACK
6
CONTINUOUS
10
158.36
20
-134.108
11
158.198
21
-134.035
0
LINE
8
BLACK
6
CONTINUOUS
10
158.198
20
-134.035
11
158.054
21
-133.931
0
LINE
8
BLACK
6
CONTINUOUS
10
158.054
20
-133.931
11
157.935
21
-133.799
0
LINE
8
BLACK
6
CONTINUOUS
10
157.935
20
-133.799
11
157.846
21
-133.645
0
LINE
8
BLACK
6
CONTINUOUS
10
157.846
20
-133.645
11
157.792
21
-133.476
0
LINE
8
BLACK
6
CONTINUOUS
10
157.792
20
-133.476
11
157.773
21
-133.299
0
LINE
8
BLACK
6
CONTINUOUS
10
157.773
20
-133.299
11
157.792
21
-133.122
0
LINE
8
BLACK
6
CONTINUOUS
10
157.792
20
-133.122
11
157.846
21
-132.953
0
LINE
8
BLACK
6
CONTINUOUS
10
157.846
20
-132.953
11
157.935
21
-132.8
0
LINE
8
BLACK
6
CONTINUOUS
10
157.935
20
-132.8
11
158.054
21
-132.668
0
LINE
8
BLACK
6
CONTINUOUS
10
158.054
20
-132.668
11
158.198
21
-132.563
0
LINE
8
BLACK
6
CONTINUOUS
10
158.198
20
-132.563
11
158.36
21
-132.491
0
LINE
8
BLACK
6
CONTINUOUS
10
158.36
20
-132.491
11
158.534
21
-132.454
0
LINE
8
BLACK
6
CONTINUOUS
10
158.534
20
-132.454
11
158.712
21
-132.454
0
LINE
8
BLACK
6
CONTINUOUS
10
158.712
20
-132.454
11
158.886
21
-132.491
0
LINE
8
BLACK
6
CONTINUOUS
10
156.346
20
-132.491
11
156.508
21
-132.563
0
LINE
8
BLACK
6
CONTINUOUS
10
156.508
20
-132.563
11
156.652
21
-132.668
0
LINE
8
BLACK
6
CONTINUOUS
10
156.652
20
-132.668
11
156.771
21
-132.8
0
LINE
8
BLACK
6
CONTINUOUS
10
156.771
20
-132.8
11
156.86
21
-132.953
0
LINE
8
BLACK
6
CONTINUOUS
10
156.86
20
-132.953
11
156.914
21
-133.122
0
LINE
8
BLACK
6
CONTINUOUS
10
156.914
20
-133.122
11
156.933
21
-133.299
0
LINE
8
BLACK
6
CONTINUOUS
10
156.933
20
-133.299
11
156.914
21
-133.476
0
LINE
8
BLACK
6
CONTINUOUS
10
156.914
20
-133.476
11
156.86
21
-133.645
0
LINE
8
BLACK
6
CONTINUOUS
10
156.86
20
-133.645
11
156.771
21
-133.799
0
LINE
8
BLACK
6
CONTINUOUS
10
156.771
20
-133.799
11
156.652
21
-133.931
0
LINE
8
BLACK
6
CONTINUOUS
10
156.652
20
-133.931
11
156.508
21
-134.035
0
LINE
8
BLACK
6
CONTINUOUS
10
156.508
20
-134.035
11
156.346
21
-134.108
0
LINE
8
BLACK
6
CONTINUOUS
10
156.346
20
-134.108
11
156.172
21
-134.145
0
LINE
8
BLACK
6
CONTINUOUS
10
156.172
20
-134.145
11
155.994
21
-134.145
0
LINE
8
BLACK
6
CONTINUOUS
10
155.994
20
-134.145
11
155.82
21
-134.108
0
LINE
8
BLACK
6
CONTINUOUS
10
155.82
20
-134.108
11
155.658
21
-134.035
0
LINE
8
BLACK
6
CONTINUOUS
10
155.658
20
-134.035
11
155.514
21
-133.931
0
LINE
8
BLACK
6
CONTINUOUS
10
155.514
20
-133.931
11
155.395
21
-133.799
0
LINE
8
BLACK
6
CONTINUOUS
10
155.395
20
-133.799
11
155.306
21
-133.645
0
LINE
8
BLACK
6
CONTINUOUS
10
155.306
20
-133.645
11
155.252
21
-133.476
0
LINE
8
BLACK
6
CONTINUOUS
10
155.252
20
-133.476
11
155.233
21
-133.299
0
LINE
8
BLACK
6
CONTINUOUS
10
155.233
20
-133.299
11
155.252
21
-133.122
0
LINE
8
BLACK
6
CONTINUOUS
10
155.252
20
-133.122
11
155.306
21
-132.953
0
LINE
8
BLACK
6
CONTINUOUS
10
155.306
20
-132.953
11
155.395
21
-132.8
0
LINE
8
BLACK
6
CONTINUOUS
10
155.395
20
-132.8
11
155.514
21
-132.668
0
LINE
8
BLACK
6
CONTINUOUS
10
155.514
20
-132.668
11
155.658
21
-132.563
0
LINE
8
BLACK
6
CONTINUOUS
10
155.658
20
-132.563
11
155.82
21
-132.491
0
LINE
8
BLACK
6
CONTINUOUS
10
155.82
20
-132.491
11
155.994
21
-132.454
0
LINE
8
BLACK
6
CONTINUOUS
10
155.994
20
-132.454
11
156.172
21
-132.454
0
LINE
8
BLACK
6
CONTINUOUS
10
156.172
20
-132.454
11
156.346
21
-132.491
0
LINE
8
BLACK
6
CONTINUOUS
10
148.726
20
-132.491
11
148.888
21
-132.563
0
LINE
8
BLACK
6
CONTINUOUS
10
148.888
20
-132.563
11
149.032
21
-132.668
0
LINE
8
BLACK
6
CONTINUOUS
10
149.032
20
-132.668
11
149.151
21
-132.8
0
LINE
8
BLACK
6
CONTINUOUS
10
149.151
20
-132.8
11
149.24
21
-132.953
0
LINE
8
BLACK
6
CONTINUOUS
10
149.24
20
-132.953
11
149.294
21
-133.122
0
LINE
8
BLACK
6
CONTINUOUS
10
149.294
20
-133.122
11
149.313
21
-133.299
0
LINE
8
BLACK
6
CONTINUOUS
10
149.313
20
-133.299
11
149.294
21
-133.476
0
LINE
8
BLACK
6
CONTINUOUS
10
149.294
20
-133.476
11
149.24
21
-133.645
0
LINE
8
BLACK
6
CONTINUOUS
10
149.24
20
-133.645
11
149.151
21
-133.799
0
LINE
8
BLACK
6
CONTINUOUS
10
149.151
20
-133.799
11
149.032
21
-133.931
0
LINE
8
BLACK
6
CONTINUOUS
10
149.032
20
-133.931
11
148.888
21
-134.035
0
LINE
8
BLACK
6
CONTINUOUS
10
148.888
20
-134.035
11
148.726
21
-134.108
0
LINE
8
BLACK
6
CONTINUOUS
10
148.726
20
-134.108
11
148.552
21
-134.145
0
LINE
8
BLACK
6
CONTINUOUS
10
148.552
20
-134.145
11
148.374
21
-134.145
0
LINE
8
BLACK
6
CONTINUOUS
10
148.374
20
-134.145
11
148.2
21
-134.108
0
LINE
8
BLACK
6
CONTINUOUS
10
148.2
20
-134.108
11
148.038
21
-134.035
0
LINE
8
BLACK
6
CONTINUOUS
10
148.038
20
-134.035
11
147.894
21
-133.931
0
LINE
8
BLACK
6
CONTINUOUS
10
147.894
20
-133.931
11
147.775
21
-133.799
0
LINE
8
BLACK
6
CONTINUOUS
10
147.775
20
-133.799
11
147.686
21
-133.645
0
LINE
8
BLACK
6
CONTINUOUS
10
147.686
20
-133.645
11
147.632
21
-133.476
0
LINE
8
BLACK
6
CONTINUOUS
10
147.632
20
-133.476
11
147.613
21
-133.299
0
LINE
8
BLACK
6
CONTINUOUS
10
147.613
20
-133.299
11
147.632
21
-133.122
0
LINE
8
BLACK
6
CONTINUOUS
10
147.632
20
-133.122
11
147.686
21
-132.953
0
LINE
8
BLACK
6
CONTINUOUS
10
147.686
20
-132.953
11
147.775
21
-132.8
0
LINE
8
BLACK
6
CONTINUOUS
10
147.775
20
-132.8
11
147.894
21
-132.668
0
LINE
8
BLACK
6
CONTINUOUS
10
147.894
20
-132.668
11
148.038
21
-132.563
0
LINE
8
BLACK
6
CONTINUOUS
10
148.038
20
-132.563
11
148.2
21
-132.491
0
LINE
8
BLACK
6
CONTINUOUS
10
148.2
20
-132.491
11
148.374
21
-132.454
0
LINE
8
BLACK
6
CONTINUOUS
10
148.374
20
-132.454
11
148.552
21
-132.454
0
LINE
8
BLACK
6
CONTINUOUS
10
148.552
20
-132.454
11
148.726
21
-132.491
0
LINE
8
BLACK
6
CONTINUOUS
10
153.806
20
-132.491
11
153.968
21
-132.563
0
LINE
8
BLACK
6
CONTINUOUS
10
153.968
20
-132.563
11
154.112
21
-132.668
0
LINE
8
BLACK
6
CONTINUOUS
10
154.112
20
-132.668
11
154.231
21
-132.8
0
LINE
8
BLACK
6
CONTINUOUS
10
154.231
20
-132.8
11
154.32
21
-132.953
0
LINE
8
BLACK
6
CONTINUOUS
10
154.32
20
-132.953
11
154.374
21
-133.122
0
LINE
8
BLACK
6
CONTINUOUS
10
154.374
20
-133.122
11
154.393
21
-133.299
0
LINE
8
BLACK
6
CONTINUOUS
10
154.393
20
-133.299
11
154.374
21
-133.476
0
LINE
8
BLACK
6
CONTINUOUS
10
154.374
20
-133.476
11
154.32
21
-133.645
0
LINE
8
BLACK
6
CONTINUOUS
10
154.32
20
-133.645
11
154.231
21
-133.799
0
LINE
8
BLACK
6
CONTINUOUS
10
154.231
20
-133.799
11
154.112
21
-133.931
0
LINE
8
BLACK
6
CONTINUOUS
10
154.112
20
-133.931
11
153.968
21
-134.035
0
LINE
8
BLACK
6
CONTINUOUS
10
153.968
20
-134.035
11
153.806
21
-134.108
0
LINE
8
BLACK
6
CONTINUOUS
10
153.806
20
-134.108
11
153.632
21
-134.145
0
LINE
8
BLACK
6
CONTINUOUS
10
153.632
20
-134.145
11
153.454
21
-134.145
0
LINE
8
BLACK
6
CONTINUOUS
10
153.454
20
-134.145
11
153.28
21
-134.108
0
LINE
8
BLACK
6
CONTINUOUS
10
153.28
20
-134.108
11
153.118
21
-134.035
0
LINE
8
BLACK
6
CONTINUOUS
10
153.118
20
-134.035
11
152.974
21
-133.931
0
LINE
8
BLACK
6
CONTINUOUS
10
152.974
20
-133.931
11
152.855
21
-133.799
0
LINE
8
BLACK
6
CONTINUOUS
10
152.855
20
-133.799
11
152.766
21
-133.645
0
LINE
8
BLACK
6
CONTINUOUS
10
152.766
20
-133.645
11
152.712
21
-133.476
0
LINE
8
BLACK
6
CONTINUOUS
10
152.712
20
-133.476
11
152.693
21
-133.299
0
LINE
8
BLACK
6
CONTINUOUS
10
152.693
20
-133.299
11
152.712
21
-133.122
0
LINE
8
BLACK
6
CONTINUOUS
10
152.712
20
-133.122
11
152.766
21
-132.953
0
LINE
8
BLACK
6
CONTINUOUS
10
152.766
20
-132.953
11
152.855
21
-132.8
0
LINE
8
BLACK
6
CONTINUOUS
10
152.855
20
-132.8
11
152.974
21
-132.668
0
LINE
8
BLACK
6
CONTINUOUS
10
152.974
20
-132.668
11
153.118
21
-132.563
0
LINE
8
BLACK
6
CONTINUOUS
10
153.118
20
-132.563
11
153.28
21
-132.491
0
LINE
8
BLACK
6
CONTINUOUS
10
153.28
20
-132.491
11
153.454
21
-132.454
0
LINE
8
BLACK
6
CONTINUOUS
10
153.454
20
-132.454
11
153.632
21
-132.454
0
LINE
8
BLACK
6
CONTINUOUS
10
153.632
20
-132.454
11
153.806
21
-132.491
0
LINE
8
BLACK
6
CONTINUOUS
10
151.266
20
-132.491
11
151.428
21
-132.563
0
LINE
8
BLACK
6
CONTINUOUS
10
151.428
20
-132.563
11
151.572
21
-132.668
0
LINE
8
BLACK
6
CONTINUOUS
10
151.572
20
-132.668
11
151.691
21
-132.8
0
LINE
8
BLACK
6
CONTINUOUS
10
151.691
20
-132.8
11
151.78
21
-132.953
0
LINE
8
BLACK
6
CONTINUOUS
10
151.78
20
-132.953
11
151.834
21
-133.122
0
LINE
8
BLACK
6
CONTINUOUS
10
151.834
20
-133.122
11
151.853
21
-133.299
0
LINE
8
BLACK
6
CONTINUOUS
10
151.853
20
-133.299
11
151.834
21
-133.476
0
LINE
8
BLACK
6
CONTINUOUS
10
151.834
20
-133.476
11
151.78
21
-133.645
0
LINE
8
BLACK
6
CONTINUOUS
10
151.78
20
-133.645
11
151.691
21
-133.799
0
LINE
8
BLACK
6
CONTINUOUS
10
151.691
20
-133.799
11
151.572
21
-133.931
0
LINE
8
BLACK
6
CONTINUOUS
10
151.572
20
-133.931
11
151.428
21
-134.035
0
LINE
8
BLACK
6
CONTINUOUS
10
151.428
20
-134.035
11
151.266
21
-134.108
0
LINE
8
BLACK
6
CONTINUOUS
10
151.266
20
-134.108
11
151.092
21
-134.145
0
LINE
8
BLACK
6
CONTINUOUS
10
151.092
20
-134.145
11
150.914
21
-134.145
0
LINE
8
BLACK
6
CONTINUOUS
10
150.914
20
-134.145
11
150.74
21
-134.108
0
LINE
8
BLACK
6
CONTINUOUS
10
150.74
20
-134.108
11
150.578
21
-134.035
0
LINE
8
BLACK
6
CONTINUOUS
10
150.578
20
-134.035
11
150.434
21
-133.931
0
LINE
8
BLACK
6
CONTINUOUS
10
150.434
20
-133.931
11
150.315
21
-133.799
0
LINE
8
BLACK
6
CONTINUOUS
10
150.315
20
-133.799
11
150.226
21
-133.645
0
LINE
8
BLACK
6
CONTINUOUS
10
150.226
20
-133.645
11
150.172
21
-133.476
0
LINE
8
BLACK
6
CONTINUOUS
10
150.172
20
-133.476
11
150.153
21
-133.299
0
LINE
8
BLACK
6
CONTINUOUS
10
150.153
20
-133.299
11
150.172
21
-133.122
0
LINE
8
BLACK
6
CONTINUOUS
10
150.172
20
-133.122
11
150.226
21
-132.953
0
LINE
8
BLACK
6
CONTINUOUS
10
150.226
20
-132.953
11
150.315
21
-132.8
0
LINE
8
BLACK
6
CONTINUOUS
10
150.315
20
-132.8
11
150.434
21
-132.668
0
LINE
8
BLACK
6
CONTINUOUS
10
150.434
20
-132.668
11
150.578
21
-132.563
0
LINE
8
BLACK
6
CONTINUOUS
10
150.578
20
-132.563
11
150.74
21
-132.491
0
LINE
8
BLACK
6
CONTINUOUS
10
150.74
20
-132.491
11
150.914
21
-132.454
0
LINE
8
BLACK
6
CONTINUOUS
10
150.914
20
-132.454
11
151.092
21
-132.454
0
LINE
8
BLACK
6
CONTINUOUS
10
151.092
20
-132.454
11
151.266
21
-132.491
0
LINE
8
BLACK
6
CONTINUOUS
10
166.506
20
-132.491
11
166.668
21
-132.563
0
LINE
8
BLACK
6
CONTINUOUS
10
166.668
20
-132.563
11
166.812
21
-132.668
0
LINE
8
BLACK
6
CONTINUOUS
10
166.812
20
-132.668
11
166.931
21
-132.8
0
LINE
8
BLACK
6
CONTINUOUS
10
166.931
20
-132.8
11
167.02
21
-132.953
0
LINE
8
BLACK
6
CONTINUOUS
10
167.02
20
-132.953
11
167.074
21
-133.122
0
LINE
8
BLACK
6
CONTINUOUS
10
167.074
20
-133.122
11
167.093
21
-133.299
0
LINE
8
BLACK
6
CONTINUOUS
10
167.093
20
-133.299
11
167.074
21
-133.476
0
LINE
8
BLACK
6
CONTINUOUS
10
167.074
20
-133.476
11
167.02
21
-133.645
0
LINE
8
BLACK
6
CONTINUOUS
10
167.02
20
-133.645
11
166.931
21
-133.799
0
LINE
8
BLACK
6
CONTINUOUS
10
166.931
20
-133.799
11
166.812
21
-133.931
0
LINE
8
BLACK
6
CONTINUOUS
10
166.812
20
-133.931
11
166.668
21
-134.035
0
LINE
8
BLACK
6
CONTINUOUS
10
166.668
20
-134.035
11
166.506
21
-134.108
0
LINE
8
BLACK
6
CONTINUOUS
10
166.506
20
-134.108
11
166.332
21
-134.145
0
LINE
8
BLACK
6
CONTINUOUS
10
166.332
20
-134.145
11
166.154
21
-134.145
0
LINE
8
BLACK
6
CONTINUOUS
10
166.154
20
-134.145
11
165.98
21
-134.108
0
LINE
8
BLACK
6
CONTINUOUS
10
165.98
20
-134.108
11
165.818
21
-134.035
0
LINE
8
BLACK
6
CONTINUOUS
10
165.818
20
-134.035
11
165.674
21
-133.931
0
LINE
8
BLACK
6
CONTINUOUS
10
165.674
20
-133.931
11
165.555
21
-133.799
0
LINE
8
BLACK
6
CONTINUOUS
10
165.555
20
-133.799
11
165.466
21
-133.645
0
LINE
8
BLACK
6
CONTINUOUS
10
165.466
20
-133.645
11
165.412
21
-133.476
0
LINE
8
BLACK
6
CONTINUOUS
10
165.412
20
-133.476
11
165.393
21
-133.299
0
LINE
8
BLACK
6
CONTINUOUS
10
165.393
20
-133.299
11
165.412
21
-133.122
0
LINE
8
BLACK
6
CONTINUOUS
10
165.412
20
-133.122
11
165.466
21
-132.953
0
LINE
8
BLACK
6
CONTINUOUS
10
165.466
20
-132.953
11
165.555
21
-132.8
0
LINE
8
BLACK
6
CONTINUOUS
10
165.555
20
-132.8
11
165.674
21
-132.668
0
LINE
8
BLACK
6
CONTINUOUS
10
165.674
20
-132.668
11
165.818
21
-132.563
0
LINE
8
BLACK
6
CONTINUOUS
10
165.818
20
-132.563
11
165.98
21
-132.491
0
LINE
8
BLACK
6
CONTINUOUS
10
165.98
20
-132.491
11
166.154
21
-132.454
0
LINE
8
BLACK
6
CONTINUOUS
10
166.154
20
-132.454
11
166.332
21
-132.454
0
LINE
8
BLACK
6
CONTINUOUS
10
166.332
20
-132.454
11
166.506
21
-132.491
0
LINE
8
BLACK
6
CONTINUOUS
10
138.137
20
-128.181
11
138.319
21
-128.238
0
LINE
8
BLACK
6
CONTINUOUS
10
138.319
20
-128.238
11
138.486
21
-128.328
0
LINE
8
BLACK
6
CONTINUOUS
10
138.486
20
-128.328
11
138.633
21
-128.449
0
LINE
8
BLACK
6
CONTINUOUS
10
138.633
20
-128.449
11
138.753
21
-128.597
0
LINE
8
BLACK
6
CONTINUOUS
10
138.753
20
-128.597
11
138.842
21
-128.765
0
LINE
8
BLACK
6
CONTINUOUS
10
138.842
20
-128.765
11
138.897
21
-128.947
0
LINE
8
BLACK
6
CONTINUOUS
10
138.897
20
-128.947
11
138.916
21
-129.136
0
LINE
8
BLACK
6
CONTINUOUS
10
138.916
20
-129.136
11
138.916
21
-129.164
0
LINE
8
BLACK
6
CONTINUOUS
10
138.916
20
-129.164
11
138.892
21
-129.352
0
LINE
8
BLACK
6
CONTINUOUS
10
138.892
20
-129.352
11
138.832
21
-129.533
0
LINE
8
BLACK
6
CONTINUOUS
10
138.832
20
-129.533
11
138.738
21
-129.698
0
LINE
8
BLACK
6
CONTINUOUS
10
138.738
20
-129.698
11
138.613
21
-129.842
0
LINE
8
BLACK
6
CONTINUOUS
10
138.613
20
-129.842
11
138.463
21
-129.96
0
LINE
8
BLACK
6
CONTINUOUS
10
138.463
20
-129.96
11
138.294
21
-130.045
0
LINE
8
BLACK
6
CONTINUOUS
10
138.294
20
-130.045
11
138.11
21
-130.097
0
LINE
8
BLACK
6
CONTINUOUS
10
138.11
20
-130.097
11
137.921
21
-130.111
0
LINE
8
BLACK
6
CONTINUOUS
10
137.921
20
-130.111
11
137.732
21
-130.089
0
LINE
8
BLACK
6
CONTINUOUS
10
137.732
20
-130.089
11
137.551
21
-130.03
0
LINE
8
BLACK
6
CONTINUOUS
10
137.551
20
-130.03
11
137.385
21
-129.937
0
LINE
8
BLACK
6
CONTINUOUS
10
137.385
20
-129.937
11
137.24
21
-129.814
0
LINE
8
BLACK
6
CONTINUOUS
10
137.24
20
-129.814
11
137.121
21
-129.665
0
LINE
8
BLACK
6
CONTINUOUS
10
137.121
20
-129.665
11
137.034
21
-129.495
0
LINE
8
BLACK
6
CONTINUOUS
10
137.034
20
-129.495
11
136.982
21
-129.312
0
LINE
8
BLACK
6
CONTINUOUS
10
136.982
20
-129.312
11
136.966
21
-129.123
0
LINE
8
BLACK
6
CONTINUOUS
10
136.966
20
-129.123
11
136.987
21
-128.934
0
LINE
8
BLACK
6
CONTINUOUS
10
136.987
20
-128.934
11
137.045
21
-128.752
0
LINE
8
BLACK
6
CONTINUOUS
10
137.045
20
-128.752
11
137.137
21
-128.586
0
LINE
8
BLACK
6
CONTINUOUS
10
137.137
20
-128.586
11
137.259
21
-128.44
0
LINE
8
BLACK
6
CONTINUOUS
10
137.259
20
-128.44
11
137.407
21
-128.321
0
LINE
8
BLACK
6
CONTINUOUS
10
137.407
20
-128.321
11
137.576
21
-128.232
0
LINE
8
BLACK
6
CONTINUOUS
10
137.576
20
-128.232
11
137.758
21
-128.179
0
LINE
8
BLACK
6
CONTINUOUS
10
137.758
20
-128.179
11
137.948
21
-128.161
0
LINE
8
BLACK
6
CONTINUOUS
10
137.948
20
-128.161
11
138.137
21
-128.181
0
LINE
8
BLACK
6
CONTINUOUS
10
135.621
20
-127.12
11
135.786
21
-127.179
0
LINE
8
BLACK
6
CONTINUOUS
10
135.786
20
-127.179
11
135.934
21
-127.273
0
LINE
8
BLACK
6
CONTINUOUS
10
135.934
20
-127.273
11
136.058
21
-127.397
0
LINE
8
BLACK
6
CONTINUOUS
10
136.058
20
-127.397
11
136.151
21
-127.546
0
LINE
8
BLACK
6
CONTINUOUS
10
136.151
20
-127.546
11
136.209
21
-127.712
0
LINE
8
BLACK
6
CONTINUOUS
10
136.209
20
-127.712
11
136.228
21
-127.886
0
LINE
8
BLACK
6
CONTINUOUS
10
136.228
20
-127.886
11
136.228
21
-127.908
0
LINE
8
BLACK
6
CONTINUOUS
10
136.228
20
-127.908
11
136.204
21
-128.082
0
LINE
8
BLACK
6
CONTINUOUS
10
136.204
20
-128.082
11
136.141
21
-128.246
0
LINE
8
BLACK
6
CONTINUOUS
10
136.141
20
-128.246
11
136.044
21
-128.393
0
LINE
8
BLACK
6
CONTINUOUS
10
136.044
20
-128.393
11
135.917
21
-128.514
0
LINE
8
BLACK
6
CONTINUOUS
10
135.917
20
-128.514
11
135.766
21
-128.604
0
LINE
8
BLACK
6
CONTINUOUS
10
135.766
20
-128.604
11
135.599
21
-128.658
0
LINE
8
BLACK
6
CONTINUOUS
10
135.599
20
-128.658
11
135.425
21
-128.674
0
LINE
8
BLACK
6
CONTINUOUS
10
135.425
20
-128.674
11
135.25
21
-128.651
0
LINE
8
BLACK
6
CONTINUOUS
10
135.25
20
-128.651
11
135.086
21
-128.589
0
LINE
8
BLACK
6
CONTINUOUS
10
135.086
20
-128.589
11
134.939
21
-128.493
0
LINE
8
BLACK
6
CONTINUOUS
10
134.939
20
-128.493
11
134.817
21
-128.367
0
LINE
8
BLACK
6
CONTINUOUS
10
134.817
20
-128.367
11
134.726
21
-128.217
0
LINE
8
BLACK
6
CONTINUOUS
10
134.726
20
-128.217
11
134.671
21
-128.05
0
LINE
8
BLACK
6
CONTINUOUS
10
134.671
20
-128.05
11
134.654
21
-127.875
0
LINE
8
BLACK
6
CONTINUOUS
10
134.654
20
-127.875
11
134.676
21
-127.701
0
LINE
8
BLACK
6
CONTINUOUS
10
134.676
20
-127.701
11
134.736
21
-127.536
0
LINE
8
BLACK
6
CONTINUOUS
10
134.736
20
-127.536
11
134.831
21
-127.389
0
LINE
8
BLACK
6
CONTINUOUS
10
134.831
20
-127.389
11
134.956
21
-127.266
0
LINE
8
BLACK
6
CONTINUOUS
10
134.956
20
-127.266
11
135.106
21
-127.174
0
LINE
8
BLACK
6
CONTINUOUS
10
135.106
20
-127.174
11
135.272
21
-127.117
0
LINE
8
BLACK
6
CONTINUOUS
10
135.272
20
-127.117
11
135.446
21
-127.099
0
LINE
8
BLACK
6
CONTINUOUS
10
135.446
20
-127.099
11
135.621
21
-127.12
0
LINE
8
BLACK
6
CONTINUOUS
10
135.621
20
-122.62
11
135.786
21
-122.679
0
LINE
8
BLACK
6
CONTINUOUS
10
135.786
20
-122.679
11
135.934
21
-122.773
0
LINE
8
BLACK
6
CONTINUOUS
10
135.934
20
-122.773
11
136.058
21
-122.897
0
LINE
8
BLACK
6
CONTINUOUS
10
136.058
20
-122.897
11
136.151
21
-123.046
0
LINE
8
BLACK
6
CONTINUOUS
10
136.151
20
-123.046
11
136.209
21
-123.212
0
LINE
8
BLACK
6
CONTINUOUS
10
136.209
20
-123.212
11
136.228
21
-123.386
0
LINE
8
BLACK
6
CONTINUOUS
10
136.228
20
-123.386
11
136.228
21
-123.408
0
LINE
8
BLACK
6
CONTINUOUS
10
136.228
20
-123.408
11
136.204
21
-123.582
0
LINE
8
BLACK
6
CONTINUOUS
10
136.204
20
-123.582
11
136.141
21
-123.746
0
LINE
8
BLACK
6
CONTINUOUS
10
136.141
20
-123.746
11
136.044
21
-123.893
0
LINE
8
BLACK
6
CONTINUOUS
10
136.044
20
-123.893
11
135.917
21
-124.014
0
LINE
8
BLACK
6
CONTINUOUS
10
135.917
20
-124.014
11
135.766
21
-124.104
0
LINE
8
BLACK
6
CONTINUOUS
10
135.766
20
-124.104
11
135.599
21
-124.158
0
LINE
8
BLACK
6
CONTINUOUS
10
135.599
20
-124.158
11
135.425
21
-124.174
0
LINE
8
BLACK
6
CONTINUOUS
10
135.425
20
-124.174
11
135.25
21
-124.151
0
LINE
8
BLACK
6
CONTINUOUS
10
135.25
20
-124.151
11
135.086
21
-124.089
0
LINE
8
BLACK
6
CONTINUOUS
10
135.086
20
-124.089
11
134.939
21
-123.993
0
LINE
8
BLACK
6
CONTINUOUS
10
134.939
20
-123.993
11
134.817
21
-123.867
0
LINE
8
BLACK
6
CONTINUOUS
10
134.817
20
-123.867
11
134.726
21
-123.717
0
LINE
8
BLACK
6
CONTINUOUS
10
134.726
20
-123.717
11
134.671
21
-123.55
0
LINE
8
BLACK
6
CONTINUOUS
10
134.671
20
-123.55
11
134.654
21
-123.375
0
LINE
8
BLACK
6
CONTINUOUS
10
134.654
20
-123.375
11
134.676
21
-123.201
0
LINE
8
BLACK
6
CONTINUOUS
10
134.676
20
-123.201
11
134.736
21
-123.036
0
LINE
8
BLACK
6
CONTINUOUS
10
134.736
20
-123.036
11
134.831
21
-122.889
0
LINE
8
BLACK
6
CONTINUOUS
10
134.831
20
-122.889
11
134.956
21
-122.766
0
LINE
8
BLACK
6
CONTINUOUS
10
134.956
20
-122.766
11
135.106
21
-122.674
0
LINE
8
BLACK
6
CONTINUOUS
10
135.106
20
-122.674
11
135.272
21
-122.617
0
LINE
8
BLACK
6
CONTINUOUS
10
135.272
20
-122.617
11
135.446
21
-122.599
0
LINE
8
BLACK
6
CONTINUOUS
10
135.446
20
-122.599
11
135.621
21
-122.62
0
LINE
8
BLACK
6
CONTINUOUS
10
138.137
20
-121.181
11
138.319
21
-121.238
0
LINE
8
BLACK
6
CONTINUOUS
10
138.319
20
-121.238
11
138.486
21
-121.328
0
LINE
8
BLACK
6
CONTINUOUS
10
138.486
20
-121.328
11
138.633
21
-121.449
0
LINE
8
BLACK
6
CONTINUOUS
10
138.633
20
-121.449
11
138.753
21
-121.597
0
LINE
8
BLACK
6
CONTINUOUS
10
138.753
20
-121.597
11
138.842
21
-121.765
0
LINE
8
BLACK
6
CONTINUOUS
10
138.842
20
-121.765
11
138.897
21
-121.947
0
LINE
8
BLACK
6
CONTINUOUS
10
138.897
20
-121.947
11
138.916
21
-122.136
0
LINE
8
BLACK
6
CONTINUOUS
10
138.916
20
-122.136
11
138.916
21
-122.164
0
LINE
8
BLACK
6
CONTINUOUS
10
138.916
20
-122.164
11
138.892
21
-122.352
0
LINE
8
BLACK
6
CONTINUOUS
10
138.892
20
-122.352
11
138.832
21
-122.533
0
LINE
8
BLACK
6
CONTINUOUS
10
138.832
20
-122.533
11
138.738
21
-122.698
0
LINE
8
BLACK
6
CONTINUOUS
10
138.738
20
-122.698
11
138.613
21
-122.842
0
LINE
8
BLACK
6
CONTINUOUS
10
138.613
20
-122.842
11
138.463
21
-122.96
0
LINE
8
BLACK
6
CONTINUOUS
10
138.463
20
-122.96
11
138.294
21
-123.045
0
LINE
8
BLACK
6
CONTINUOUS
10
138.294
20
-123.045
11
138.11
21
-123.097
0
LINE
8
BLACK
6
CONTINUOUS
10
138.11
20
-123.097
11
137.921
21
-123.111
0
LINE
8
BLACK
6
CONTINUOUS
10
137.921
20
-123.111
11
137.732
21
-123.089
0
LINE
8
BLACK
6
CONTINUOUS
10
137.732
20
-123.089
11
137.551
21
-123.03
0
LINE
8
BLACK
6
CONTINUOUS
10
137.551
20
-123.03
11
137.385
21
-122.937
0
LINE
8
BLACK
6
CONTINUOUS
10
137.385
20
-122.937
11
137.24
21
-122.814
0
LINE
8
BLACK
6
CONTINUOUS
10
137.24
20
-122.814
11
137.121
21
-122.665
0
LINE
8
BLACK
6
CONTINUOUS
10
137.121
20
-122.665
11
137.034
21
-122.495
0
LINE
8
BLACK
6
CONTINUOUS
10
137.034
20
-122.495
11
136.982
21
-122.312
0
LINE
8
BLACK
6
CONTINUOUS
10
136.982
20
-122.312
11
136.966
21
-122.123
0
LINE
8
BLACK
6
CONTINUOUS
10
136.966
20
-122.123
11
136.987
21
-121.934
0
LINE
8
BLACK
6
CONTINUOUS
10
136.987
20
-121.934
11
137.045
21
-121.752
0
LINE
8
BLACK
6
CONTINUOUS
10
137.045
20
-121.752
11
137.137
21
-121.586
0
LINE
8
BLACK
6
CONTINUOUS
10
137.137
20
-121.586
11
137.259
21
-121.44
0
LINE
8
BLACK
6
CONTINUOUS
10
137.259
20
-121.44
11
137.407
21
-121.321
0
LINE
8
BLACK
6
CONTINUOUS
10
137.407
20
-121.321
11
137.576
21
-121.232
0
LINE
8
BLACK
6
CONTINUOUS
10
137.576
20
-121.232
11
137.758
21
-121.179
0
LINE
8
BLACK
6
CONTINUOUS
10
137.758
20
-121.179
11
137.948
21
-121.161
0
LINE
8
BLACK
6
CONTINUOUS
10
137.948
20
-121.161
11
138.137
21
-121.181
0
LINE
8
BLACK
6
CONTINUOUS
10
141.106
20
-117.251
11
141.268
21
-117.323
0
LINE
8
BLACK
6
CONTINUOUS
10
141.268
20
-117.323
11
141.412
21
-117.428
0
LINE
8
BLACK
6
CONTINUOUS
10
141.412
20
-117.428
11
141.531
21
-117.56
0
LINE
8
BLACK
6
CONTINUOUS
10
141.531
20
-117.56
11
141.62
21
-117.713
0
LINE
8
BLACK
6
CONTINUOUS
10
141.62
20
-117.713
11
141.674
21
-117.882
0
LINE
8
BLACK
6
CONTINUOUS
10
141.674
20
-117.882
11
141.693
21
-118.059
0
LINE
8
BLACK
6
CONTINUOUS
10
141.693
20
-118.059
11
141.674
21
-118.236
0
LINE
8
BLACK
6
CONTINUOUS
10
141.674
20
-118.236
11
141.62
21
-118.405
0
LINE
8
BLACK
6
CONTINUOUS
10
141.62
20
-118.405
11
141.531
21
-118.559
0
LINE
8
BLACK
6
CONTINUOUS
10
141.531
20
-118.559
11
141.412
21
-118.691
0
LINE
8
BLACK
6
CONTINUOUS
10
141.412
20
-118.691
11
141.268
21
-118.795
0
LINE
8
BLACK
6
CONTINUOUS
10
141.268
20
-118.795
11
141.106
21
-118.868
0
LINE
8
BLACK
6
CONTINUOUS
10
141.106
20
-118.868
11
140.932
21
-118.905
0
LINE
8
BLACK
6
CONTINUOUS
10
140.932
20
-118.905
11
140.754
21
-118.905
0
LINE
8
BLACK
6
CONTINUOUS
10
140.754
20
-118.905
11
140.58
21
-118.868
0
LINE
8
BLACK
6
CONTINUOUS
10
140.58
20
-118.868
11
140.418
21
-118.795
0
LINE
8
BLACK
6
CONTINUOUS
10
140.418
20
-118.795
11
140.274
21
-118.691
0
LINE
8
BLACK
6
CONTINUOUS
10
140.274
20
-118.691
11
140.155
21
-118.559
0
LINE
8
BLACK
6
CONTINUOUS
10
140.155
20
-118.559
11
140.066
21
-118.405
0
LINE
8
BLACK
6
CONTINUOUS
10
140.066
20
-118.405
11
140.012
21
-118.236
0
LINE
8
BLACK
6
CONTINUOUS
10
140.012
20
-118.236
11
139.993
21
-118.059
0
LINE
8
BLACK
6
CONTINUOUS
10
139.993
20
-118.059
11
140.012
21
-117.882
0
LINE
8
BLACK
6
CONTINUOUS
10
140.012
20
-117.882
11
140.066
21
-117.713
0
LINE
8
BLACK
6
CONTINUOUS
10
140.066
20
-117.713
11
140.155
21
-117.56
0
LINE
8
BLACK
6
CONTINUOUS
10
140.155
20
-117.56
11
140.274
21
-117.428
0
LINE
8
BLACK
6
CONTINUOUS
10
140.274
20
-117.428
11
140.418
21
-117.323
0
LINE
8
BLACK
6
CONTINUOUS
10
140.418
20
-117.323
11
140.58
21
-117.251
0
LINE
8
BLACK
6
CONTINUOUS
10
140.58
20
-117.251
11
140.754
21
-117.214
0
LINE
8
BLACK
6
CONTINUOUS
10
140.754
20
-117.214
11
140.932
21
-117.214
0
LINE
8
BLACK
6
CONTINUOUS
10
140.932
20
-117.214
11
141.106
21
-117.251
0
LINE
8
BLACK
6
CONTINUOUS
10
138.566
20
-117.251
11
138.728
21
-117.323
0
LINE
8
BLACK
6
CONTINUOUS
10
138.728
20
-117.323
11
138.872
21
-117.428
0
LINE
8
BLACK
6
CONTINUOUS
10
138.872
20
-117.428
11
138.991
21
-117.56
0
LINE
8
BLACK
6
CONTINUOUS
10
138.991
20
-117.56
11
139.08
21
-117.713
0
LINE
8
BLACK
6
CONTINUOUS
10
139.08
20
-117.713
11
139.134
21
-117.882
0
LINE
8
BLACK
6
CONTINUOUS
10
139.134
20
-117.882
11
139.153
21
-118.059
0
LINE
8
BLACK
6
CONTINUOUS
10
139.153
20
-118.059
11
139.134
21
-118.236
0
LINE
8
BLACK
6
CONTINUOUS
10
139.134
20
-118.236
11
139.08
21
-118.405
0
LINE
8
BLACK
6
CONTINUOUS
10
139.08
20
-118.405
11
138.991
21
-118.559
0
LINE
8
BLACK
6
CONTINUOUS
10
138.991
20
-118.559
11
138.872
21
-118.691
0
LINE
8
BLACK
6
CONTINUOUS
10
138.872
20
-118.691
11
138.728
21
-118.795
0
LINE
8
BLACK
6
CONTINUOUS
10
138.728
20
-118.795
11
138.566
21
-118.868
0
LINE
8
BLACK
6
CONTINUOUS
10
138.566
20
-118.868
11
138.392
21
-118.905
0
LINE
8
BLACK
6
CONTINUOUS
10
138.392
20
-118.905
11
138.214
21
-118.905
0
LINE
8
BLACK
6
CONTINUOUS
10
138.214
20
-118.905
11
138.04
21
-118.868
0
LINE
8
BLACK
6
CONTINUOUS
10
138.04
20
-118.868
11
137.878
21
-118.795
0
LINE
8
BLACK
6
CONTINUOUS
10
137.878
20
-118.795
11
137.734
21
-118.691
0
LINE
8
BLACK
6
CONTINUOUS
10
137.734
20
-118.691
11
137.615
21
-118.559
0
LINE
8
BLACK
6
CONTINUOUS
10
137.615
20
-118.559
11
137.526
21
-118.405
0
LINE
8
BLACK
6
CONTINUOUS
10
137.526
20
-118.405
11
137.472
21
-118.236
0
LINE
8
BLACK
6
CONTINUOUS
10
137.472
20
-118.236
11
137.453
21
-118.059
0
LINE
8
BLACK
6
CONTINUOUS
10
137.453
20
-118.059
11
137.472
21
-117.882
0
LINE
8
BLACK
6
CONTINUOUS
10
137.472
20
-117.882
11
137.526
21
-117.713
0
LINE
8
BLACK
6
CONTINUOUS
10
137.526
20
-117.713
11
137.615
21
-117.56
0
LINE
8
BLACK
6
CONTINUOUS
10
137.615
20
-117.56
11
137.734
21
-117.428
0
LINE
8
BLACK
6
CONTINUOUS
10
137.734
20
-117.428
11
137.878
21
-117.323
0
LINE
8
BLACK
6
CONTINUOUS
10
137.878
20
-117.323
11
138.04
21
-117.251
0
LINE
8
BLACK
6
CONTINUOUS
10
138.04
20
-117.251
11
138.214
21
-117.214
0
LINE
8
BLACK
6
CONTINUOUS
10
138.214
20
-117.214
11
138.392
21
-117.214
0
LINE
8
BLACK
6
CONTINUOUS
10
138.392
20
-117.214
11
138.566
21
-117.251
0
LINE
8
BLACK
6
CONTINUOUS
10
136.026
20
-117.251
11
136.188
21
-117.323
0
LINE
8
BLACK
6
CONTINUOUS
10
136.188
20
-117.323
11
136.332
21
-117.428
0
LINE
8
BLACK
6
CONTINUOUS
10
136.332
20
-117.428
11
136.451
21
-117.56
0
LINE
8
BLACK
6
CONTINUOUS
10
136.451
20
-117.56
11
136.54
21
-117.713
0
LINE
8
BLACK
6
CONTINUOUS
10
136.54
20
-117.713
11
136.594
21
-117.882
0
LINE
8
BLACK
6
CONTINUOUS
10
136.594
20
-117.882
11
136.613
21
-118.059
0
LINE
8
BLACK
6
CONTINUOUS
10
136.613
20
-118.059
11
136.594
21
-118.236
0
LINE
8
BLACK
6
CONTINUOUS
10
136.594
20
-118.236
11
136.54
21
-118.405
0
LINE
8
BLACK
6
CONTINUOUS
10
136.54
20
-118.405
11
136.451
21
-118.559
0
LINE
8
BLACK
6
CONTINUOUS
10
136.451
20
-118.559
11
136.332
21
-118.691
0
LINE
8
BLACK
6
CONTINUOUS
10
136.332
20
-118.691
11
136.188
21
-118.795
0
LINE
8
BLACK
6
CONTINUOUS
10
136.188
20
-118.795
11
136.026
21
-118.868
0
LINE
8
BLACK
6
CONTINUOUS
10
136.026
20
-118.868
11
135.852
21
-118.905
0
LINE
8
BLACK
6
CONTINUOUS
10
135.852
20
-118.905
11
135.674
21
-118.905
0
LINE
8
BLACK
6
CONTINUOUS
10
135.674
20
-118.905
11
135.5
21
-118.868
0
LINE
8
BLACK
6
CONTINUOUS
10
135.5
20
-118.868
11
135.338
21
-118.795
0
LINE
8
BLACK
6
CONTINUOUS
10
135.338
20
-118.795
11
135.194
21
-118.691
0
LINE
8
BLACK
6
CONTINUOUS
10
135.194
20
-118.691
11
135.075
21
-118.559
0
LINE
8
BLACK
6
CONTINUOUS
10
135.075
20
-118.559
11
134.986
21
-118.405
0
LINE
8
BLACK
6
CONTINUOUS
10
134.986
20
-118.405
11
134.932
21
-118.236
0
LINE
8
BLACK
6
CONTINUOUS
10
134.932
20
-118.236
11
134.913
21
-118.059
0
LINE
8
BLACK
6
CONTINUOUS
10
134.913
20
-118.059
11
134.932
21
-117.882
0
LINE
8
BLACK
6
CONTINUOUS
10
134.932
20
-117.882
11
134.986
21
-117.713
0
LINE
8
BLACK
6
CONTINUOUS
10
134.986
20
-117.713
11
135.075
21
-117.56
0
LINE
8
BLACK
6
CONTINUOUS
10
135.075
20
-117.56
11
135.194
21
-117.428
0
LINE
8
BLACK
6
CONTINUOUS
10
135.194
20
-117.428
11
135.338
21
-117.323
0
LINE
8
BLACK
6
CONTINUOUS
10
135.338
20
-117.323
11
135.5
21
-117.251
0
LINE
8
BLACK
6
CONTINUOUS
10
135.5
20
-117.251
11
135.674
21
-117.214
0
LINE
8
BLACK
6
CONTINUOUS
10
135.674
20
-117.214
11
135.852
21
-117.214
0
LINE
8
BLACK
6
CONTINUOUS
10
135.852
20
-117.214
11
136.026
21
-117.251
0
LINE
8
BLACK
6
CONTINUOUS
10
133.486
20
-117.251
11
133.648
21
-117.323
0
LINE
8
BLACK
6
CONTINUOUS
10
133.648
20
-117.323
11
133.792
21
-117.428
0
LINE
8
BLACK
6
CONTINUOUS
10
133.792
20
-117.428
11
133.911
21
-117.56
0
LINE
8
BLACK
6
CONTINUOUS
10
133.911
20
-117.56
11
134
21
-117.713
0
LINE
8
BLACK
6
CONTINUOUS
10
134
20
-117.713
11
134.054
21
-117.882
0
LINE
8
BLACK
6
CONTINUOUS
10
134.054
20
-117.882
11
134.073
21
-118.059
0
LINE
8
BLACK
6
CONTINUOUS
10
134.073
20
-118.059
11
134.054
21
-118.236
0
LINE
8
BLACK
6
CONTINUOUS
10
134.054
20
-118.236
11
134
21
-118.405
0
LINE
8
BLACK
6
CONTINUOUS
10
134
20
-118.405
11
133.911
21
-118.559
0
LINE
8
BLACK
6
CONTINUOUS
10
133.911
20
-118.559
11
133.792
21
-118.691
0
LINE
8
BLACK
6
CONTINUOUS
10
133.792
20
-118.691
11
133.648
21
-118.795
0
LINE
8
BLACK
6
CONTINUOUS
10
133.648
20
-118.795
11
133.486
21
-118.868
0
LINE
8
BLACK
6
CONTINUOUS
10
133.486
20
-118.868
11
133.312
21
-118.905
0
LINE
8
BLACK
6
CONTINUOUS
10
133.312
20
-118.905
11
133.134
21
-118.905
0
LINE
8
BLACK
6
CONTINUOUS
10
133.134
20
-118.905
11
132.96
21
-118.868
0
LINE
8
BLACK
6
CONTINUOUS
10
132.96
20
-118.868
11
132.798
21
-118.795
0
LINE
8
BLACK
6
CONTINUOUS
10
132.798
20
-118.795
11
132.654
21
-118.691
0
LINE
8
BLACK
6
CONTINUOUS
10
132.654
20
-118.691
11
132.535
21
-118.559
0
LINE
8
BLACK
6
CONTINUOUS
10
132.535
20
-118.559
11
132.446
21
-118.405
0
LINE
8
BLACK
6
CONTINUOUS
10
132.446
20
-118.405
11
132.392
21
-118.236
0
LINE
8
BLACK
6
CONTINUOUS
10
132.392
20
-118.236
11
132.373
21
-118.059
0
LINE
8
BLACK
6
CONTINUOUS
10
132.373
20
-118.059
11
132.392
21
-117.882
0
LINE
8
BLACK
6
CONTINUOUS
10
132.392
20
-117.882
11
132.446
21
-117.713
0
LINE
8
BLACK
6
CONTINUOUS
10
132.446
20
-117.713
11
132.535
21
-117.56
0
LINE
8
BLACK
6
CONTINUOUS
10
132.535
20
-117.56
11
132.654
21
-117.428
0
LINE
8
BLACK
6
CONTINUOUS
10
132.654
20
-117.428
11
132.798
21
-117.323
0
LINE
8
BLACK
6
CONTINUOUS
10
132.798
20
-117.323
11
132.96
21
-117.251
0
LINE
8
BLACK
6
CONTINUOUS
10
132.96
20
-117.251
11
133.134
21
-117.214
0
LINE
8
BLACK
6
CONTINUOUS
10
133.134
20
-117.214
11
133.312
21
-117.214
0
LINE
8
BLACK
6
CONTINUOUS
10
133.312
20
-117.214
11
133.486
21
-117.251
0
LINE
8
BLACK
6
CONTINUOUS
10
146.186
20
-117.251
11
146.348
21
-117.323
0
LINE
8
BLACK
6
CONTINUOUS
10
146.348
20
-117.323
11
146.492
21
-117.428
0
LINE
8
BLACK
6
CONTINUOUS
10
146.492
20
-117.428
11
146.611
21
-117.56
0
LINE
8
BLACK
6
CONTINUOUS
10
146.611
20
-117.56
11
146.7
21
-117.713
0
LINE
8
BLACK
6
CONTINUOUS
10
146.7
20
-117.713
11
146.754
21
-117.882
0
LINE
8
BLACK
6
CONTINUOUS
10
146.754
20
-117.882
11
146.773
21
-118.059
0
LINE
8
BLACK
6
CONTINUOUS
10
146.773
20
-118.059
11
146.754
21
-118.236
0
LINE
8
BLACK
6
CONTINUOUS
10
146.754
20
-118.236
11
146.7
21
-118.405
0
LINE
8
BLACK
6
CONTINUOUS
10
146.7
20
-118.405
11
146.611
21
-118.559
0
LINE
8
BLACK
6
CONTINUOUS
10
146.611
20
-118.559
11
146.492
21
-118.691
0
LINE
8
BLACK
6
CONTINUOUS
10
146.492
20
-118.691
11
146.348
21
-118.795
0
LINE
8
BLACK
6
CONTINUOUS
10
146.348
20
-118.795
11
146.186
21
-118.868
0
LINE
8
BLACK
6
CONTINUOUS
10
146.186
20
-118.868
11
146.012
21
-118.905
0
LINE
8
BLACK
6
CONTINUOUS
10
146.012
20
-118.905
11
145.834
21
-118.905
0
LINE
8
BLACK
6
CONTINUOUS
10
145.834
20
-118.905
11
145.66
21
-118.868
0
LINE
8
BLACK
6
CONTINUOUS
10
145.66
20
-118.868
11
145.498
21
-118.795
0
LINE
8
BLACK
6
CONTINUOUS
10
145.498
20
-118.795
11
145.354
21
-118.691
0
LINE
8
BLACK
6
CONTINUOUS
10
145.354
20
-118.691
11
145.235
21
-118.559
0
LINE
8
BLACK
6
CONTINUOUS
10
145.235
20
-118.559
11
145.146
21
-118.405
0
LINE
8
BLACK
6
CONTINUOUS
10
145.146
20
-118.405
11
145.092
21
-118.236
0
LINE
8
BLACK
6
CONTINUOUS
10
145.092
20
-118.236
11
145.073
21
-118.059
0
LINE
8
BLACK
6
CONTINUOUS
10
145.073
20
-118.059
11
145.092
21
-117.882
0
LINE
8
BLACK
6
CONTINUOUS
10
145.092
20
-117.882
11
145.146
21
-117.713
0
LINE
8
BLACK
6
CONTINUOUS
10
145.146
20
-117.713
11
145.235
21
-117.56
0
LINE
8
BLACK
6
CONTINUOUS
10
145.235
20
-117.56
11
145.354
21
-117.428
0
LINE
8
BLACK
6
CONTINUOUS
10
145.354
20
-117.428
11
145.498
21
-117.323
0
LINE
8
BLACK
6
CONTINUOUS
10
145.498
20
-117.323
11
145.66
21
-117.251
0
LINE
8
BLACK
6
CONTINUOUS
10
145.66
20
-117.251
11
145.834
21
-117.214
0
LINE
8
BLACK
6
CONTINUOUS
10
145.834
20
-117.214
11
146.012
21
-117.214
0
LINE
8
BLACK
6
CONTINUOUS
10
146.012
20
-117.214
11
146.186
21
-117.251
0
LINE
8
BLACK
6
CONTINUOUS
10
169.046
20
-117.251
11
169.208
21
-117.323
0
LINE
8
BLACK
6
CONTINUOUS
10
169.208
20
-117.323
11
169.352
21
-117.428
0
LINE
8
BLACK
6
CONTINUOUS
10
169.352
20
-117.428
11
169.471
21
-117.56
0
LINE
8
BLACK
6
CONTINUOUS
10
169.471
20
-117.56
11
169.56
21
-117.713
0
LINE
8
BLACK
6
CONTINUOUS
10
169.56
20
-117.713
11
169.614
21
-117.882
0
LINE
8
BLACK
6
CONTINUOUS
10
169.614
20
-117.882
11
169.633
21
-118.059
0
LINE
8
BLACK
6
CONTINUOUS
10
169.633
20
-118.059
11
169.614
21
-118.236
0
LINE
8
BLACK
6
CONTINUOUS
10
169.614
20
-118.236
11
169.56
21
-118.405
0
LINE
8
BLACK
6
CONTINUOUS
10
169.56
20
-118.405
11
169.471
21
-118.559
0
LINE
8
BLACK
6
CONTINUOUS
10
169.471
20
-118.559
11
169.352
21
-118.691
0
LINE
8
BLACK
6
CONTINUOUS
10
169.352
20
-118.691
11
169.208
21
-118.795
0
LINE
8
BLACK
6
CONTINUOUS
10
169.208
20
-118.795
11
169.046
21
-118.868
0
LINE
8
BLACK
6
CONTINUOUS
10
169.046
20
-118.868
11
168.872
21
-118.905
0
LINE
8
BLACK
6
CONTINUOUS
10
168.872
20
-118.905
11
168.694
21
-118.905
0
LINE
8
BLACK
6
CONTINUOUS
10
168.694
20
-118.905
11
168.52
21
-118.868
0
LINE
8
BLACK
6
CONTINUOUS
10
168.52
20
-118.868
11
168.358
21
-118.795
0
LINE
8
BLACK
6
CONTINUOUS
10
168.358
20
-118.795
11
168.214
21
-118.691
0
LINE
8
BLACK
6
CONTINUOUS
10
168.214
20
-118.691
11
168.095
21
-118.559
0
LINE
8
BLACK
6
CONTINUOUS
10
168.095
20
-118.559
11
168.006
21
-118.405
0
LINE
8
BLACK
6
CONTINUOUS
10
168.006
20
-118.405
11
167.952
21
-118.236
0
LINE
8
BLACK
6
CONTINUOUS
10
167.952
20
-118.236
11
167.933
21
-118.059
0
LINE
8
BLACK
6
CONTINUOUS
10
167.933
20
-118.059
11
167.952
21
-117.882
0
LINE
8
BLACK
6
CONTINUOUS
10
167.952
20
-117.882
11
168.006
21
-117.713
0
LINE
8
BLACK
6
CONTINUOUS
10
168.006
20
-117.713
11
168.095
21
-117.56
0
LINE
8
BLACK
6
CONTINUOUS
10
168.095
20
-117.56
11
168.214
21
-117.428
0
LINE
8
BLACK
6
CONTINUOUS
10
168.214
20
-117.428
11
168.358
21
-117.323
0
LINE
8
BLACK
6
CONTINUOUS
10
168.358
20
-117.323
11
168.52
21
-117.251
0
LINE
8
BLACK
6
CONTINUOUS
10
168.52
20
-117.251
11
168.694
21
-117.214
0
LINE
8
BLACK
6
CONTINUOUS
10
168.694
20
-117.214
11
168.872
21
-117.214
0
LINE
8
BLACK
6
CONTINUOUS
10
168.872
20
-117.214
11
169.046
21
-117.251
0
LINE
8
BLACK
6
CONTINUOUS
10
181.746
20
-117.251
11
181.908
21
-117.323
0
LINE
8
BLACK
6
CONTINUOUS
10
181.908
20
-117.323
11
182.052
21
-117.428
0
LINE
8
BLACK
6
CONTINUOUS
10
182.052
20
-117.428
11
182.171
21
-117.56
0
LINE
8
BLACK
6
CONTINUOUS
10
182.171
20
-117.56
11
182.26
21
-117.713
0
LINE
8
BLACK
6
CONTINUOUS
10
182.26
20
-117.713
11
182.314
21
-117.882
0
LINE
8
BLACK
6
CONTINUOUS
10
182.314
20
-117.882
11
182.333
21
-118.059
0
LINE
8
BLACK
6
CONTINUOUS
10
182.333
20
-118.059
11
182.314
21
-118.236
0
LINE
8
BLACK
6
CONTINUOUS
10
182.314
20
-118.236
11
182.26
21
-118.405
0
LINE
8
BLACK
6
CONTINUOUS
10
182.26
20
-118.405
11
182.171
21
-118.559
0
LINE
8
BLACK
6
CONTINUOUS
10
182.171
20
-118.559
11
182.052
21
-118.691
0
LINE
8
BLACK
6
CONTINUOUS
10
182.052
20
-118.691
11
181.908
21
-118.795
0
LINE
8
BLACK
6
CONTINUOUS
10
181.908
20
-118.795
11
181.746
21
-118.868
0
LINE
8
BLACK
6
CONTINUOUS
10
181.746
20
-118.868
11
181.572
21
-118.905
0
LINE
8
BLACK
6
CONTINUOUS
10
181.572
20
-118.905
11
181.394
21
-118.905
0
LINE
8
BLACK
6
CONTINUOUS
10
181.394
20
-118.905
11
181.22
21
-118.868
0
LINE
8
BLACK
6
CONTINUOUS
10
181.22
20
-118.868
11
181.058
21
-118.795
0
LINE
8
BLACK
6
CONTINUOUS
10
181.058
20
-118.795
11
180.914
21
-118.691
0
LINE
8
BLACK
6
CONTINUOUS
10
180.914
20
-118.691
11
180.795
21
-118.559
0
LINE
8
BLACK
6
CONTINUOUS
10
180.795
20
-118.559
11
180.706
21
-118.405
0
LINE
8
BLACK
6
CONTINUOUS
10
180.706
20
-118.405
11
180.652
21
-118.236
0
LINE
8
BLACK
6
CONTINUOUS
10
180.652
20
-118.236
11
180.633
21
-118.059
0
LINE
8
BLACK
6
CONTINUOUS
10
180.633
20
-118.059
11
180.652
21
-117.882
0
LINE
8
BLACK
6
CONTINUOUS
10
180.652
20
-117.882
11
180.706
21
-117.713
0
LINE
8
BLACK
6
CONTINUOUS
10
180.706
20
-117.713
11
180.795
21
-117.56
0
LINE
8
BLACK
6
CONTINUOUS
10
180.795
20
-117.56
11
180.914
21
-117.428
0
LINE
8
BLACK
6
CONTINUOUS
10
180.914
20
-117.428
11
181.058
21
-117.323
0
LINE
8
BLACK
6
CONTINUOUS
10
181.058
20
-117.323
11
181.22
21
-117.251
0
LINE
8
BLACK
6
CONTINUOUS
10
181.22
20
-117.251
11
181.394
21
-117.214
0
LINE
8
BLACK
6
CONTINUOUS
10
181.394
20
-117.214
11
181.572
21
-117.214
0
LINE
8
BLACK
6
CONTINUOUS
10
181.572
20
-117.214
11
181.746
21
-117.251
0
LINE
8
BLACK
6
CONTINUOUS
10
179.206
20
-117.251
11
179.368
21
-117.323
0
LINE
8
BLACK
6
CONTINUOUS
10
179.368
20
-117.323
11
179.512
21
-117.428
0
LINE
8
BLACK
6
CONTINUOUS
10
179.512
20
-117.428
11
179.631
21
-117.56
0
LINE
8
BLACK
6
CONTINUOUS
10
179.631
20
-117.56
11
179.72
21
-117.713
0
LINE
8
BLACK
6
CONTINUOUS
10
179.72
20
-117.713
11
179.774
21
-117.882
0
LINE
8
BLACK
6
CONTINUOUS
10
179.774
20
-117.882
11
179.793
21
-118.059
0
LINE
8
BLACK
6
CONTINUOUS
10
179.793
20
-118.059
11
179.774
21
-118.236
0
LINE
8
BLACK
6
CONTINUOUS
10
179.774
20
-118.236
11
179.72
21
-118.405
0
LINE
8
BLACK
6
CONTINUOUS
10
179.72
20
-118.405
11
179.631
21
-118.559
0
LINE
8
BLACK
6
CONTINUOUS
10
179.631
20
-118.559
11
179.512
21
-118.691
0
LINE
8
BLACK
6
CONTINUOUS
10
179.512
20
-118.691
11
179.368
21
-118.795
0
LINE
8
BLACK
6
CONTINUOUS
10
179.368
20
-118.795
11
179.206
21
-118.868
0
LINE
8
BLACK
6
CONTINUOUS
10
179.206
20
-118.868
11
179.032
21
-118.905
0
LINE
8
BLACK
6
CONTINUOUS
10
179.032
20
-118.905
11
178.854
21
-118.905
0
LINE
8
BLACK
6
CONTINUOUS
10
178.854
20
-118.905
11
178.68
21
-118.868
0
LINE
8
BLACK
6
CONTINUOUS
10
178.68
20
-118.868
11
178.518
21
-118.795
0
LINE
8
BLACK
6
CONTINUOUS
10
178.518
20
-118.795
11
178.374
21
-118.691
0
LINE
8
BLACK
6
CONTINUOUS
10
178.374
20
-118.691
11
178.255
21
-118.559
0
LINE
8
BLACK
6
CONTINUOUS
10
178.255
20
-118.559
11
178.166
21
-118.405
0
LINE
8
BLACK
6
CONTINUOUS
10
178.166
20
-118.405
11
178.112
21
-118.236
0
LINE
8
BLACK
6
CONTINUOUS
10
178.112
20
-118.236
11
178.093
21
-118.059
0
LINE
8
BLACK
6
CONTINUOUS
10
178.093
20
-118.059
11
178.112
21
-117.882
0
LINE
8
BLACK
6
CONTINUOUS
10
178.112
20
-117.882
11
178.166
21
-117.713
0
LINE
8
BLACK
6
CONTINUOUS
10
178.166
20
-117.713
11
178.255
21
-117.56
0
LINE
8
BLACK
6
CONTINUOUS
10
178.255
20
-117.56
11
178.374
21
-117.428
0
LINE
8
BLACK
6
CONTINUOUS
10
178.374
20
-117.428
11
178.518
21
-117.323
0
LINE
8
BLACK
6
CONTINUOUS
10
178.518
20
-117.323
11
178.68
21
-117.251
0
LINE
8
BLACK
6
CONTINUOUS
10
178.68
20
-117.251
11
178.854
21
-117.214
0
LINE
8
BLACK
6
CONTINUOUS
10
178.854
20
-117.214
11
179.032
21
-117.214
0
LINE
8
BLACK
6
CONTINUOUS
10
179.032
20
-117.214
11
179.206
21
-117.251
0
LINE
8
BLACK
6
CONTINUOUS
10
176.666
20
-117.251
11
176.828
21
-117.323
0
LINE
8
BLACK
6
CONTINUOUS
10
176.828
20
-117.323
11
176.972
21
-117.428
0
LINE
8
BLACK
6
CONTINUOUS
10
176.972
20
-117.428
11
177.091
21
-117.56
0
LINE
8
BLACK
6
CONTINUOUS
10
177.091
20
-117.56
11
177.18
21
-117.713
0
LINE
8
BLACK
6
CONTINUOUS
10
177.18
20
-117.713
11
177.234
21
-117.882
0
LINE
8
BLACK
6
CONTINUOUS
10
177.234
20
-117.882
11
177.253
21
-118.059
0
LINE
8
BLACK
6
CONTINUOUS
10
177.253
20
-118.059
11
177.234
21
-118.236
0
LINE
8
BLACK
6
CONTINUOUS
10
177.234
20
-118.236
11
177.18
21
-118.405
0
LINE
8
BLACK
6
CONTINUOUS
10
177.18
20
-118.405
11
177.091
21
-118.559
0
LINE
8
BLACK
6
CONTINUOUS
10
177.091
20
-118.559
11
176.972
21
-118.691
0
LINE
8
BLACK
6
CONTINUOUS
10
176.972
20
-118.691
11
176.828
21
-118.795
0
LINE
8
BLACK
6
CONTINUOUS
10
176.828
20
-118.795
11
176.666
21
-118.868
0
LINE
8
BLACK
6
CONTINUOUS
10
176.666
20
-118.868
11
176.492
21
-118.905
0
LINE
8
BLACK
6
CONTINUOUS
10
176.492
20
-118.905
11
176.314
21
-118.905
0
LINE
8
BLACK
6
CONTINUOUS
10
176.314
20
-118.905
11
176.14
21
-118.868
0
LINE
8
BLACK
6
CONTINUOUS
10
176.14
20
-118.868
11
175.978
21
-118.795
0
LINE
8
BLACK
6
CONTINUOUS
10
175.978
20
-118.795
11
175.834
21
-118.691
0
LINE
8
BLACK
6
CONTINUOUS
10
175.834
20
-118.691
11
175.715
21
-118.559
0
LINE
8
BLACK
6
CONTINUOUS
10
175.715
20
-118.559
11
175.626
21
-118.405
0
LINE
8
BLACK
6
CONTINUOUS
10
175.626
20
-118.405
11
175.572
21
-118.236
0
LINE
8
BLACK
6
CONTINUOUS
10
175.572
20
-118.236
11
175.553
21
-118.059
0
LINE
8
BLACK
6
CONTINUOUS
10
175.553
20
-118.059
11
175.572
21
-117.882
0
LINE
8
BLACK
6
CONTINUOUS
10
175.572
20
-117.882
11
175.626
21
-117.713
0
LINE
8
BLACK
6
CONTINUOUS
10
175.626
20
-117.713
11
175.715
21
-117.56
0
LINE
8
BLACK
6
CONTINUOUS
10
175.715
20
-117.56
11
175.834
21
-117.428
0
LINE
8
BLACK
6
CONTINUOUS
10
175.834
20
-117.428
11
175.978
21
-117.323
0
LINE
8
BLACK
6
CONTINUOUS
10
175.978
20
-117.323
11
176.14
21
-117.251
0
LINE
8
BLACK
6
CONTINUOUS
10
176.14
20
-117.251
11
176.314
21
-117.214
0
LINE
8
BLACK
6
CONTINUOUS
10
176.314
20
-117.214
11
176.492
21
-117.214
0
LINE
8
BLACK
6
CONTINUOUS
10
176.492
20
-117.214
11
176.666
21
-117.251
0
LINE
8
BLACK
6
CONTINUOUS
10
174.126
20
-117.251
11
174.288
21
-117.323
0
LINE
8
BLACK
6
CONTINUOUS
10
174.288
20
-117.323
11
174.432
21
-117.428
0
LINE
8
BLACK
6
CONTINUOUS
10
174.432
20
-117.428
11
174.551
21
-117.56
0
LINE
8
BLACK
6
CONTINUOUS
10
174.551
20
-117.56
11
174.64
21
-117.713
0
LINE
8
BLACK
6
CONTINUOUS
10
174.64
20
-117.713
11
174.694
21
-117.882
0
LINE
8
BLACK
6
CONTINUOUS
10
174.694
20
-117.882
11
174.713
21
-118.059
0
LINE
8
BLACK
6
CONTINUOUS
10
174.713
20
-118.059
11
174.694
21
-118.236
0
LINE
8
BLACK
6
CONTINUOUS
10
174.694
20
-118.236
11
174.64
21
-118.405
0
LINE
8
BLACK
6
CONTINUOUS
10
174.64
20
-118.405
11
174.551
21
-118.559
0
LINE
8
BLACK
6
CONTINUOUS
10
174.551
20
-118.559
11
174.432
21
-118.691
0
LINE
8
BLACK
6
CONTINUOUS
10
174.432
20
-118.691
11
174.288
21
-118.795
0
LINE
8
BLACK
6
CONTINUOUS
10
174.288
20
-118.795
11
174.126
21
-118.868
0
LINE
8
BLACK
6
CONTINUOUS
10
174.126
20
-118.868
11
173.952
21
-118.905
0
LINE
8
BLACK
6
CONTINUOUS
10
173.952
20
-118.905
11
173.774
21
-118.905
0
LINE
8
BLACK
6
CONTINUOUS
10
173.774
20
-118.905
11
173.6
21
-118.868
0
LINE
8
BLACK
6
CONTINUOUS
10
173.6
20
-118.868
11
173.438
21
-118.795
0
LINE
8
BLACK
6
CONTINUOUS
10
173.438
20
-118.795
11
173.294
21
-118.691
0
LINE
8
BLACK
6
CONTINUOUS
10
173.294
20
-118.691
11
173.175
21
-118.559
0
LINE
8
BLACK
6
CONTINUOUS
10
173.175
20
-118.559
11
173.086
21
-118.405
0
LINE
8
BLACK
6
CONTINUOUS
10
173.086
20
-118.405
11
173.032
21
-118.236
0
LINE
8
BLACK
6
CONTINUOUS
10
173.032
20
-118.236
11
173.013
21
-118.059
0
LINE
8
BLACK
6
CONTINUOUS
10
173.013
20
-118.059
11
173.032
21
-117.882
0
LINE
8
BLACK
6
CONTINUOUS
10
173.032
20
-117.882
11
173.086
21
-117.713
0
LINE
8
BLACK
6
CONTINUOUS
10
173.086
20
-117.713
11
173.175
21
-117.56
0
LINE
8
BLACK
6
CONTINUOUS
10
173.175
20
-117.56
11
173.294
21
-117.428
0
LINE
8
BLACK
6
CONTINUOUS
10
173.294
20
-117.428
11
173.438
21
-117.323
0
LINE
8
BLACK
6
CONTINUOUS
10
173.438
20
-117.323
11
173.6
21
-117.251
0
LINE
8
BLACK
6
CONTINUOUS
10
173.6
20
-117.251
11
173.774
21
-117.214
0
LINE
8
BLACK
6
CONTINUOUS
10
173.774
20
-117.214
11
173.952
21
-117.214
0
LINE
8
BLACK
6
CONTINUOUS
10
173.952
20
-117.214
11
174.126
21
-117.251
0
LINE
8
BLACK
6
CONTINUOUS
10
171.586
20
-117.251
11
171.748
21
-117.323
0
LINE
8
BLACK
6
CONTINUOUS
10
171.748
20
-117.323
11
171.892
21
-117.428
0
LINE
8
BLACK
6
CONTINUOUS
10
171.892
20
-117.428
11
172.011
21
-117.56
0
LINE
8
BLACK
6
CONTINUOUS
10
172.011
20
-117.56
11
172.1
21
-117.713
0
LINE
8
BLACK
6
CONTINUOUS
10
172.1
20
-117.713
11
172.154
21
-117.882
0
LINE
8
BLACK
6
CONTINUOUS
10
172.154
20
-117.882
11
172.173
21
-118.059
0
LINE
8
BLACK
6
CONTINUOUS
10
172.173
20
-118.059
11
172.154
21
-118.236
0
LINE
8
BLACK
6
CONTINUOUS
10
172.154
20
-118.236
11
172.1
21
-118.405
0
LINE
8
BLACK
6
CONTINUOUS
10
172.1
20
-118.405
11
172.011
21
-118.559
0
LINE
8
BLACK
6
CONTINUOUS
10
172.011
20
-118.559
11
171.892
21
-118.691
0
LINE
8
BLACK
6
CONTINUOUS
10
171.892
20
-118.691
11
171.748
21
-118.795
0
LINE
8
BLACK
6
CONTINUOUS
10
171.748
20
-118.795
11
171.586
21
-118.868
0
LINE
8
BLACK
6
CONTINUOUS
10
171.586
20
-118.868
11
171.412
21
-118.905
0
LINE
8
BLACK
6
CONTINUOUS
10
171.412
20
-118.905
11
171.234
21
-118.905
0
LINE
8
BLACK
6
CONTINUOUS
10
171.234
20
-118.905
11
171.06
21
-118.868
0
LINE
8
BLACK
6
CONTINUOUS
10
171.06
20
-118.868
11
170.898
21
-118.795
0
LINE
8
BLACK
6
CONTINUOUS
10
170.898
20
-118.795
11
170.754
21
-118.691
0
LINE
8
BLACK
6
CONTINUOUS
10
170.754
20
-118.691
11
170.635
21
-118.559
0
LINE
8
BLACK
6
CONTINUOUS
10
170.635
20
-118.559
11
170.546
21
-118.405
0
LINE
8
BLACK
6
CONTINUOUS
10
170.546
20
-118.405
11
170.492
21
-118.236
0
LINE
8
BLACK
6
CONTINUOUS
10
170.492
20
-118.236
11
170.473
21
-118.059
0
LINE
8
BLACK
6
CONTINUOUS
10
170.473
20
-118.059
11
170.492
21
-117.882
0
LINE
8
BLACK
6
CONTINUOUS
10
170.492
20
-117.882
11
170.546
21
-117.713
0
LINE
8
BLACK
6
CONTINUOUS
10
170.546
20
-117.713
11
170.635
21
-117.56
0
LINE
8
BLACK
6
CONTINUOUS
10
170.635
20
-117.56
11
170.754
21
-117.428
0
LINE
8
BLACK
6
CONTINUOUS
10
170.754
20
-117.428
11
170.898
21
-117.323
0
LINE
8
BLACK
6
CONTINUOUS
10
170.898
20
-117.323
11
171.06
21
-117.251
0
LINE
8
BLACK
6
CONTINUOUS
10
171.06
20
-117.251
11
171.234
21
-117.214
0
LINE
8
BLACK
6
CONTINUOUS
10
171.234
20
-117.214
11
171.412
21
-117.214
0
LINE
8
BLACK
6
CONTINUOUS
10
171.412
20
-117.214
11
171.586
21
-117.251
0
LINE
8
BLACK
6
CONTINUOUS
10
166.506
20
-117.251
11
166.668
21
-117.323
0
LINE
8
BLACK
6
CONTINUOUS
10
166.668
20
-117.323
11
166.812
21
-117.428
0
LINE
8
BLACK
6
CONTINUOUS
10
166.812
20
-117.428
11
166.931
21
-117.56
0
LINE
8
BLACK
6
CONTINUOUS
10
166.931
20
-117.56
11
167.02
21
-117.713
0
LINE
8
BLACK
6
CONTINUOUS
10
167.02
20
-117.713
11
167.074
21
-117.882
0
LINE
8
BLACK
6
CONTINUOUS
10
167.074
20
-117.882
11
167.093
21
-118.059
0
LINE
8
BLACK
6
CONTINUOUS
10
167.093
20
-118.059
11
167.074
21
-118.236
0
LINE
8
BLACK
6
CONTINUOUS
10
167.074
20
-118.236
11
167.02
21
-118.405
0
LINE
8
BLACK
6
CONTINUOUS
10
167.02
20
-118.405
11
166.931
21
-118.559
0
LINE
8
BLACK
6
CONTINUOUS
10
166.931
20
-118.559
11
166.812
21
-118.691
0
LINE
8
BLACK
6
CONTINUOUS
10
166.812
20
-118.691
11
166.668
21
-118.795
0
LINE
8
BLACK
6
CONTINUOUS
10
166.668
20
-118.795
11
166.506
21
-118.868
0
LINE
8
BLACK
6
CONTINUOUS
10
166.506
20
-118.868
11
166.332
21
-118.905
0
LINE
8
BLACK
6
CONTINUOUS
10
166.332
20
-118.905
11
166.154
21
-118.905
0
LINE
8
BLACK
6
CONTINUOUS
10
166.154
20
-118.905
11
165.98
21
-118.868
0
LINE
8
BLACK
6
CONTINUOUS
10
165.98
20
-118.868
11
165.818
21
-118.795
0
LINE
8
BLACK
6
CONTINUOUS
10
165.818
20
-118.795
11
165.674
21
-118.691
0
LINE
8
BLACK
6
CONTINUOUS
10
165.674
20
-118.691
11
165.555
21
-118.559
0
LINE
8
BLACK
6
CONTINUOUS
10
165.555
20
-118.559
11
165.466
21
-118.405
0
LINE
8
BLACK
6
CONTINUOUS
10
165.466
20
-118.405
11
165.412
21
-118.236
0
LINE
8
BLACK
6
CONTINUOUS
10
165.412
20
-118.236
11
165.393
21
-118.059
0
LINE
8
BLACK
6
CONTINUOUS
10
165.393
20
-118.059
11
165.412
21
-117.882
0
LINE
8
BLACK
6
CONTINUOUS
10
165.412
20
-117.882
11
165.466
21
-117.713
0
LINE
8
BLACK
6
CONTINUOUS
10
165.466
20
-117.713
11
165.555
21
-117.56
0
LINE
8
BLACK
6
CONTINUOUS
10
165.555
20
-117.56
11
165.674
21
-117.428
0
LINE
8
BLACK
6
CONTINUOUS
10
165.674
20
-117.428
11
165.818
21
-117.323
0
LINE
8
BLACK
6
CONTINUOUS
10
165.818
20
-117.323
11
165.98
21
-117.251
0
LINE
8
BLACK
6
CONTINUOUS
10
165.98
20
-117.251
11
166.154
21
-117.214
0
LINE
8
BLACK
6
CONTINUOUS
10
166.154
20
-117.214
11
166.332
21
-117.214
0
LINE
8
BLACK
6
CONTINUOUS
10
166.332
20
-117.214
11
166.506
21
-117.251
0
LINE
8
BLACK
6
CONTINUOUS
10
163.966
20
-117.251
11
164.128
21
-117.323
0
LINE
8
BLACK
6
CONTINUOUS
10
164.128
20
-117.323
11
164.272
21
-117.428
0
LINE
8
BLACK
6
CONTINUOUS
10
164.272
20
-117.428
11
164.391
21
-117.56
0
LINE
8
BLACK
6
CONTINUOUS
10
164.391
20
-117.56
11
164.48
21
-117.713
0
LINE
8
BLACK
6
CONTINUOUS
10
164.48
20
-117.713
11
164.534
21
-117.882
0
LINE
8
BLACK
6
CONTINUOUS
10
164.534
20
-117.882
11
164.553
21
-118.059
0
LINE
8
BLACK
6
CONTINUOUS
10
164.553
20
-118.059
11
164.534
21
-118.236
0
LINE
8
BLACK
6
CONTINUOUS
10
164.534
20
-118.236
11
164.48
21
-118.405
0
LINE
8
BLACK
6
CONTINUOUS
10
164.48
20
-118.405
11
164.391
21
-118.559
0
LINE
8
BLACK
6
CONTINUOUS
10
164.391
20
-118.559
11
164.272
21
-118.691
0
LINE
8
BLACK
6
CONTINUOUS
10
164.272
20
-118.691
11
164.128
21
-118.795
0
LINE
8
BLACK
6
CONTINUOUS
10
164.128
20
-118.795
11
163.966
21
-118.868
0
LINE
8
BLACK
6
CONTINUOUS
10
163.966
20
-118.868
11
163.792
21
-118.905
0
LINE
8
BLACK
6
CONTINUOUS
10
163.792
20
-118.905
11
163.614
21
-118.905
0
LINE
8
BLACK
6
CONTINUOUS
10
163.614
20
-118.905
11
163.44
21
-118.868
0
LINE
8
BLACK
6
CONTINUOUS
10
163.44
20
-118.868
11
163.278
21
-118.795
0
LINE
8
BLACK
6
CONTINUOUS
10
163.278
20
-118.795
11
163.134
21
-118.691
0
LINE
8
BLACK
6
CONTINUOUS
10
163.134
20
-118.691
11
163.015
21
-118.559
0
LINE
8
BLACK
6
CONTINUOUS
10
163.015
20
-118.559
11
162.926
21
-118.405
0
LINE
8
BLACK
6
CONTINUOUS
10
162.926
20
-118.405
11
162.872
21
-118.236
0
LINE
8
BLACK
6
CONTINUOUS
10
162.872
20
-118.236
11
162.853
21
-118.059
0
LINE
8
BLACK
6
CONTINUOUS
10
162.853
20
-118.059
11
162.872
21
-117.882
0
LINE
8
BLACK
6
CONTINUOUS
10
162.872
20
-117.882
11
162.926
21
-117.713
0
LINE
8
BLACK
6
CONTINUOUS
10
162.926
20
-117.713
11
163.015
21
-117.56
0
LINE
8
BLACK
6
CONTINUOUS
10
163.015
20
-117.56
11
163.134
21
-117.428
0
LINE
8
BLACK
6
CONTINUOUS
10
163.134
20
-117.428
11
163.278
21
-117.323
0
LINE
8
BLACK
6
CONTINUOUS
10
163.278
20
-117.323
11
163.44
21
-117.251
0
LINE
8
BLACK
6
CONTINUOUS
10
163.44
20
-117.251
11
163.614
21
-117.214
0
LINE
8
BLACK
6
CONTINUOUS
10
163.614
20
-117.214
11
163.792
21
-117.214
0
LINE
8
BLACK
6
CONTINUOUS
10
163.792
20
-117.214
11
163.966
21
-117.251
0
LINE
8
BLACK
6
CONTINUOUS
10
161.426
20
-117.251
11
161.588
21
-117.323
0
LINE
8
BLACK
6
CONTINUOUS
10
161.588
20
-117.323
11
161.732
21
-117.428
0
LINE
8
BLACK
6
CONTINUOUS
10
161.732
20
-117.428
11
161.851
21
-117.56
0
LINE
8
BLACK
6
CONTINUOUS
10
161.851
20
-117.56
11
161.94
21
-117.713
0
LINE
8
BLACK
6
CONTINUOUS
10
161.94
20
-117.713
11
161.994
21
-117.882
0
LINE
8
BLACK
6
CONTINUOUS
10
161.994
20
-117.882
11
162.013
21
-118.059
0
LINE
8
BLACK
6
CONTINUOUS
10
162.013
20
-118.059
11
161.994
21
-118.236
0
LINE
8
BLACK
6
CONTINUOUS
10
161.994
20
-118.236
11
161.94
21
-118.405
0
LINE
8
BLACK
6
CONTINUOUS
10
161.94
20
-118.405
11
161.851
21
-118.559
0
LINE
8
BLACK
6
CONTINUOUS
10
161.851
20
-118.559
11
161.732
21
-118.691
0
LINE
8
BLACK
6
CONTINUOUS
10
161.732
20
-118.691
11
161.588
21
-118.795
0
LINE
8
BLACK
6
CONTINUOUS
10
161.588
20
-118.795
11
161.426
21
-118.868
0
LINE
8
BLACK
6
CONTINUOUS
10
161.426
20
-118.868
11
161.252
21
-118.905
0
LINE
8
BLACK
6
CONTINUOUS
10
161.252
20
-118.905
11
161.074
21
-118.905
0
LINE
8
BLACK
6
CONTINUOUS
10
161.074
20
-118.905
11
160.9
21
-118.868
0
LINE
8
BLACK
6
CONTINUOUS
10
160.9
20
-118.868
11
160.738
21
-118.795
0
LINE
8
BLACK
6
CONTINUOUS
10
160.738
20
-118.795
11
160.594
21
-118.691
0
LINE
8
BLACK
6
CONTINUOUS
10
160.594
20
-118.691
11
160.475
21
-118.559
0
LINE
8
BLACK
6
CONTINUOUS
10
160.475
20
-118.559
11
160.386
21
-118.405
0
LINE
8
BLACK
6
CONTINUOUS
10
160.386
20
-118.405
11
160.332
21
-118.236
0
LINE
8
BLACK
6
CONTINUOUS
10
160.332
20
-118.236
11
160.313
21
-118.059
0
LINE
8
BLACK
6
CONTINUOUS
10
160.313
20
-118.059
11
160.332
21
-117.882
0
LINE
8
BLACK
6
CONTINUOUS
10
160.332
20
-117.882
11
160.386
21
-117.713
0
LINE
8
BLACK
6
CONTINUOUS
10
160.386
20
-117.713
11
160.475
21
-117.56
0
LINE
8
BLACK
6
CONTINUOUS
10
160.475
20
-117.56
11
160.594
21
-117.428
0
LINE
8
BLACK
6
CONTINUOUS
10
160.594
20
-117.428
11
160.738
21
-117.323
0
LINE
8
BLACK
6
CONTINUOUS
10
160.738
20
-117.323
11
160.9
21
-117.251
0
LINE
8
BLACK
6
CONTINUOUS
10
160.9
20
-117.251
11
161.074
21
-117.214
0
LINE
8
BLACK
6
CONTINUOUS
10
161.074
20
-117.214
11
161.252
21
-117.214
0
LINE
8
BLACK
6
CONTINUOUS
10
161.252
20
-117.214
11
161.426
21
-117.251
0
LINE
8
BLACK
6
CONTINUOUS
10
158.886
20
-117.251
11
159.048
21
-117.323
0
LINE
8
BLACK
6
CONTINUOUS
10
159.048
20
-117.323
11
159.192
21
-117.428
0
LINE
8
BLACK
6
CONTINUOUS
10
159.192
20
-117.428
11
159.311
21
-117.56
0
LINE
8
BLACK
6
CONTINUOUS
10
159.311
20
-117.56
11
159.4
21
-117.713
0
LINE
8
BLACK
6
CONTINUOUS
10
159.4
20
-117.713
11
159.454
21
-117.882
0
LINE
8
BLACK
6
CONTINUOUS
10
159.454
20
-117.882
11
159.473
21
-118.059
0
LINE
8
BLACK
6
CONTINUOUS
10
159.473
20
-118.059
11
159.454
21
-118.236
0
LINE
8
BLACK
6
CONTINUOUS
10
159.454
20
-118.236
11
159.4
21
-118.405
0
LINE
8
BLACK
6
CONTINUOUS
10
159.4
20
-118.405
11
159.311
21
-118.559
0
LINE
8
BLACK
6
CONTINUOUS
10
159.311
20
-118.559
11
159.192
21
-118.691
0
LINE
8
BLACK
6
CONTINUOUS
10
159.192
20
-118.691
11
159.048
21
-118.795
0
LINE
8
BLACK
6
CONTINUOUS
10
159.048
20
-118.795
11
158.886
21
-118.868
0
LINE
8
BLACK
6
CONTINUOUS
10
158.886
20
-118.868
11
158.712
21
-118.905
0
LINE
8
BLACK
6
CONTINUOUS
10
158.712
20
-118.905
11
158.534
21
-118.905
0
LINE
8
BLACK
6
CONTINUOUS
10
158.534
20
-118.905
11
158.36
21
-118.868
0
LINE
8
BLACK
6
CONTINUOUS
10
158.36
20
-118.868
11
158.198
21
-118.795
0
LINE
8
BLACK
6
CONTINUOUS
10
158.198
20
-118.795
11
158.054
21
-118.691
0
LINE
8
BLACK
6
CONTINUOUS
10
158.054
20
-118.691
11
157.935
21
-118.559
0
LINE
8
BLACK
6
CONTINUOUS
10
157.935
20
-118.559
11
157.846
21
-118.405
0
LINE
8
BLACK
6
CONTINUOUS
10
157.846
20
-118.405
11
157.792
21
-118.236
0
LINE
8
BLACK
6
CONTINUOUS
10
157.792
20
-118.236
11
157.773
21
-118.059
0
LINE
8
BLACK
6
CONTINUOUS
10
157.773
20
-118.059
11
157.792
21
-117.882
0
LINE
8
BLACK
6
CONTINUOUS
10
157.792
20
-117.882
11
157.846
21
-117.713
0
LINE
8
BLACK
6
CONTINUOUS
10
157.846
20
-117.713
11
157.935
21
-117.56
0
LINE
8
BLACK
6
CONTINUOUS
10
157.935
20
-117.56
11
158.054
21
-117.428
0
LINE
8
BLACK
6
CONTINUOUS
10
158.054
20
-117.428
11
158.198
21
-117.323
0
LINE
8
BLACK
6
CONTINUOUS
10
158.198
20
-117.323
11
158.36
21
-117.251
0
LINE
8
BLACK
6
CONTINUOUS
10
158.36
20
-117.251
11
158.534
21
-117.214
0
LINE
8
BLACK
6
CONTINUOUS
10
158.534
20
-117.214
11
158.712
21
-117.214
0
LINE
8
BLACK
6
CONTINUOUS
10
158.712
20
-117.214
11
158.886
21
-117.251
0
LINE
8
BLACK
6
CONTINUOUS
10
156.346
20
-117.251
11
156.508
21
-117.323
0
LINE
8
BLACK
6
CONTINUOUS
10
156.508
20
-117.323
11
156.652
21
-117.428
0
LINE
8
BLACK
6
CONTINUOUS
10
156.652
20
-117.428
11
156.771
21
-117.56
0
LINE
8
BLACK
6
CONTINUOUS
10
156.771
20
-117.56
11
156.86
21
-117.713
0
LINE
8
BLACK
6
CONTINUOUS
10
156.86
20
-117.713
11
156.914
21
-117.882
0
LINE
8
BLACK
6
CONTINUOUS
10
156.914
20
-117.882
11
156.933
21
-118.059
0
LINE
8
BLACK
6
CONTINUOUS
10
156.933
20
-118.059
11
156.914
21
-118.236
0
LINE
8
BLACK
6
CONTINUOUS
10
156.914
20
-118.236
11
156.86
21
-118.405
0
LINE
8
BLACK
6
CONTINUOUS
10
156.86
20
-118.405
11
156.771
21
-118.559
0
LINE
8
BLACK
6
CONTINUOUS
10
156.771
20
-118.559
11
156.652
21
-118.691
0
LINE
8
BLACK
6
CONTINUOUS
10
156.652
20
-118.691
11
156.508
21
-118.795
0
LINE
8
BLACK
6
CONTINUOUS
10
156.508
20
-118.795
11
156.346
21
-118.868
0
LINE
8
BLACK
6
CONTINUOUS
10
156.346
20
-118.868
11
156.172
21
-118.905
0
LINE
8
BLACK
6
CONTINUOUS
10
156.172
20
-118.905
11
155.994
21
-118.905
0
LINE
8
BLACK
6
CONTINUOUS
10
155.994
20
-118.905
11
155.82
21
-118.868
0
LINE
8
BLACK
6
CONTINUOUS
10
155.82
20
-118.868
11
155.658
21
-118.795
0
LINE
8
BLACK
6
CONTINUOUS
10
155.658
20
-118.795
11
155.514
21
-118.691
0
LINE
8
BLACK
6
CONTINUOUS
10
155.514
20
-118.691
11
155.395
21
-118.559
0
LINE
8
BLACK
6
CONTINUOUS
10
155.395
20
-118.559
11
155.306
21
-118.405
0
LINE
8
BLACK
6
CONTINUOUS
10
155.306
20
-118.405
11
155.252
21
-118.236
0
LINE
8
BLACK
6
CONTINUOUS
10
155.252
20
-118.236
11
155.233
21
-118.059
0
LINE
8
BLACK
6
CONTINUOUS
10
155.233
20
-118.059
11
155.252
21
-117.882
0
LINE
8
BLACK
6
CONTINUOUS
10
155.252
20
-117.882
11
155.306
21
-117.713
0
LINE
8
BLACK
6
CONTINUOUS
10
155.306
20
-117.713
11
155.395
21
-117.56
0
LINE
8
BLACK
6
CONTINUOUS
10
155.395
20
-117.56
11
155.514
21
-117.428
0
LINE
8
BLACK
6
CONTINUOUS
10
155.514
20
-117.428
11
155.658
21
-117.323
0
LINE
8
BLACK
6
CONTINUOUS
10
155.658
20
-117.323
11
155.82
21
-117.251
0
LINE
8
BLACK
6
CONTINUOUS
10
155.82
20
-117.251
11
155.994
21
-117.214
0
LINE
8
BLACK
6
CONTINUOUS
10
155.994
20
-117.214
11
156.172
21
-117.214
0
LINE
8
BLACK
6
CONTINUOUS
10
156.172
20
-117.214
11
156.346
21
-117.251
0
LINE
8
BLACK
6
CONTINUOUS
10
153.806
20
-117.251
11
153.968
21
-117.323
0
LINE
8
BLACK
6
CONTINUOUS
10
153.968
20
-117.323
11
154.112
21
-117.428
0
LINE
8
BLACK
6
CONTINUOUS
10
154.112
20
-117.428
11
154.231
21
-117.56
0
LINE
8
BLACK
6
CONTINUOUS
10
154.231
20
-117.56
11
154.32
21
-117.713
0
LINE
8
BLACK
6
CONTINUOUS
10
154.32
20
-117.713
11
154.374
21
-117.882
0
LINE
8
BLACK
6
CONTINUOUS
10
154.374
20
-117.882
11
154.393
21
-118.059
0
LINE
8
BLACK
6
CONTINUOUS
10
154.393
20
-118.059
11
154.374
21
-118.236
0
LINE
8
BLACK
6
CONTINUOUS
10
154.374
20
-118.236
11
154.32
21
-118.405
0
LINE
8
BLACK
6
CONTINUOUS
10
154.32
20
-118.405
11
154.231
21
-118.559
0
LINE
8
BLACK
6
CONTINUOUS
10
154.231
20
-118.559
11
154.112
21
-118.691
0
LINE
8
BLACK
6
CONTINUOUS
10
154.112
20
-118.691
11
153.968
21
-118.795
0
LINE
8
BLACK
6
CONTINUOUS
10
153.968
20
-118.795
11
153.806
21
-118.868
0
LINE
8
BLACK
6
CONTINUOUS
10
153.806
20
-118.868
11
153.632
21
-118.905
0
LINE
8
BLACK
6
CONTINUOUS
10
153.632
20
-118.905
11
153.454
21
-118.905
0
LINE
8
BLACK
6
CONTINUOUS
10
153.454
20
-118.905
11
153.28
21
-118.868
0
LINE
8
BLACK
6
CONTINUOUS
10
153.28
20
-118.868
11
153.118
21
-118.795
0
LINE
8
BLACK
6
CONTINUOUS
10
153.118
20
-118.795
11
152.974
21
-118.691
0
LINE
8
BLACK
6
CONTINUOUS
10
152.974
20
-118.691
11
152.855
21
-118.559
0
LINE
8
BLACK
6
CONTINUOUS
10
152.855
20
-118.559
11
152.766
21
-118.405
0
LINE
8
BLACK
6
CONTINUOUS
10
152.766
20
-118.405
11
152.712
21
-118.236
0
LINE
8
BLACK
6
CONTINUOUS
10
152.712
20
-118.236
11
152.693
21
-118.059
0
LINE
8
BLACK
6
CONTINUOUS
10
152.693
20
-118.059
11
152.712
21
-117.882
0
LINE
8
BLACK
6
CONTINUOUS
10
152.712
20
-117.882
11
152.766
21
-117.713
0
LINE
8
BLACK
6
CONTINUOUS
10
152.766
20
-117.713
11
152.855
21
-117.56
0
LINE
8
BLACK
6
CONTINUOUS
10
152.855
20
-117.56
11
152.974
21
-117.428
0
LINE
8
BLACK
6
CONTINUOUS
10
152.974
20
-117.428
11
153.118
21
-117.323
0
LINE
8
BLACK
6
CONTINUOUS
10
153.118
20
-117.323
11
153.28
21
-117.251
0
LINE
8
BLACK
6
CONTINUOUS
10
153.28
20
-117.251
11
153.454
21
-117.214
0
LINE
8
BLACK
6
CONTINUOUS
10
153.454
20
-117.214
11
153.632
21
-117.214
0
LINE
8
BLACK
6
CONTINUOUS
10
153.632
20
-117.214
11
153.806
21
-117.251
0
LINE
8
BLACK
6
CONTINUOUS
10
151.266
20
-117.251
11
151.428
21
-117.323
0
LINE
8
BLACK
6
CONTINUOUS
10
151.428
20
-117.323
11
151.572
21
-117.428
0
LINE
8
BLACK
6
CONTINUOUS
10
151.572
20
-117.428
11
151.691
21
-117.56
0
LINE
8
BLACK
6
CONTINUOUS
10
151.691
20
-117.56
11
151.78
21
-117.713
0
LINE
8
BLACK
6
CONTINUOUS
10
151.78
20
-117.713
11
151.834
21
-117.882
0
LINE
8
BLACK
6
CONTINUOUS
10
151.834
20
-117.882
11
151.853
21
-118.059
0
LINE
8
BLACK
6
CONTINUOUS
10
151.853
20
-118.059
11
151.834
21
-118.236
0
LINE
8
BLACK
6
CONTINUOUS
10
151.834
20
-118.236
11
151.78
21
-118.405
0
LINE
8
BLACK
6
CONTINUOUS
10
151.78
20
-118.405
11
151.691
21
-118.559
0
LINE
8
BLACK
6
CONTINUOUS
10
151.691
20
-118.559
11
151.572
21
-118.691
0
LINE
8
BLACK
6
CONTINUOUS
10
151.572
20
-118.691
11
151.428
21
-118.795
0
LINE
8
BLACK
6
CONTINUOUS
10
151.428
20
-118.795
11
151.266
21
-118.868
0
LINE
8
BLACK
6
CONTINUOUS
10
151.266
20
-118.868
11
151.092
21
-118.905
0
LINE
8
BLACK
6
CONTINUOUS
10
151.092
20
-118.905
11
150.914
21
-118.905
0
LINE
8
BLACK
6
CONTINUOUS
10
150.914
20
-118.905
11
150.74
21
-118.868
0
LINE
8
BLACK
6
CONTINUOUS
10
150.74
20
-118.868
11
150.578
21
-118.795
0
LINE
8
BLACK
6
CONTINUOUS
10
150.578
20
-118.795
11
150.434
21
-118.691
0
LINE
8
BLACK
6
CONTINUOUS
10
150.434
20
-118.691
11
150.315
21
-118.559
0
LINE
8
BLACK
6
CONTINUOUS
10
150.315
20
-118.559
11
150.226
21
-118.405
0
LINE
8
BLACK
6
CONTINUOUS
10
150.226
20
-118.405
11
150.172
21
-118.236
0
LINE
8
BLACK
6
CONTINUOUS
10
150.172
20
-118.236
11
150.153
21
-118.059
0
LINE
8
BLACK
6
CONTINUOUS
10
150.153
20
-118.059
11
150.172
21
-117.882
0
LINE
8
BLACK
6
CONTINUOUS
10
150.172
20
-117.882
11
150.226
21
-117.713
0
LINE
8
BLACK
6
CONTINUOUS
10
150.226
20
-117.713
11
150.315
21
-117.56
0
LINE
8
BLACK
6
CONTINUOUS
10
150.315
20
-117.56
11
150.434
21
-117.428
0
LINE
8
BLACK
6
CONTINUOUS
10
150.434
20
-117.428
11
150.578
21
-117.323
0
LINE
8
BLACK
6
CONTINUOUS
10
150.578
20
-117.323
11
150.74
21
-117.251
0
LINE
8
BLACK
6
CONTINUOUS
10
150.74
20
-117.251
11
150.914
21
-117.214
0
LINE
8
BLACK
6
CONTINUOUS
10
150.914
20
-117.214
11
151.092
21
-117.214
0
LINE
8
BLACK
6
CONTINUOUS
10
151.092
20
-117.214
11
151.266
21
-117.251
0
LINE
8
BLACK
6
CONTINUOUS
10
148.726
20
-117.251
11
148.888
21
-117.323
0
LINE
8
BLACK
6
CONTINUOUS
10
148.888
20
-117.323
11
149.032
21
-117.428
0
LINE
8
BLACK
6
CONTINUOUS
10
149.032
20
-117.428
11
149.151
21
-117.56
0
LINE
8
BLACK
6
CONTINUOUS
10
149.151
20
-117.56
11
149.24
21
-117.713
0
LINE
8
BLACK
6
CONTINUOUS
10
149.24
20
-117.713
11
149.294
21
-117.882
0
LINE
8
BLACK
6
CONTINUOUS
10
149.294
20
-117.882
11
149.313
21
-118.059
0
LINE
8
BLACK
6
CONTINUOUS
10
149.313
20
-118.059
11
149.294
21
-118.236
0
LINE
8
BLACK
6
CONTINUOUS
10
149.294
20
-118.236
11
149.24
21
-118.405
0
LINE
8
BLACK
6
CONTINUOUS
10
149.24
20
-118.405
11
149.151
21
-118.559
0
LINE
8
BLACK
6
CONTINUOUS
10
149.151
20
-118.559
11
149.032
21
-118.691
0
LINE
8
BLACK
6
CONTINUOUS
10
149.032
20
-118.691
11
148.888
21
-118.795
0
LINE
8
BLACK
6
CONTINUOUS
10
148.888
20
-118.795
11
148.726
21
-118.868
0
LINE
8
BLACK
6
CONTINUOUS
10
148.726
20
-118.868
11
148.552
21
-118.905
0
LINE
8
BLACK
6
CONTINUOUS
10
148.552
20
-118.905
11
148.374
21
-118.905
0
LINE
8
BLACK
6
CONTINUOUS
10
148.374
20
-118.905
11
148.2
21
-118.868
0
LINE
8
BLACK
6
CONTINUOUS
10
148.2
20
-118.868
11
148.038
21
-118.795
0
LINE
8
BLACK
6
CONTINUOUS
10
148.038
20
-118.795
11
147.894
21
-118.691
0
LINE
8
BLACK
6
CONTINUOUS
10
147.894
20
-118.691
11
147.775
21
-118.559
0
LINE
8
BLACK
6
CONTINUOUS
10
147.775
20
-118.559
11
147.686
21
-118.405
0
LINE
8
BLACK
6
CONTINUOUS
10
147.686
20
-118.405
11
147.632
21
-118.236
0
LINE
8
BLACK
6
CONTINUOUS
10
147.632
20
-118.236
11
147.613
21
-118.059
0
LINE
8
BLACK
6
CONTINUOUS
10
147.613
20
-118.059
11
147.632
21
-117.882
0
LINE
8
BLACK
6
CONTINUOUS
10
147.632
20
-117.882
11
147.686
21
-117.713
0
LINE
8
BLACK
6
CONTINUOUS
10
147.686
20
-117.713
11
147.775
21
-117.56
0
LINE
8
BLACK
6
CONTINUOUS
10
147.775
20
-117.56
11
147.894
21
-117.428
0
LINE
8
BLACK
6
CONTINUOUS
10
147.894
20
-117.428
11
148.038
21
-117.323
0
LINE
8
BLACK
6
CONTINUOUS
10
148.038
20
-117.323
11
148.2
21
-117.251
0
LINE
8
BLACK
6
CONTINUOUS
10
148.2
20
-117.251
11
148.374
21
-117.214
0
LINE
8
BLACK
6
CONTINUOUS
10
148.374
20
-117.214
11
148.552
21
-117.214
0
LINE
8
BLACK
6
CONTINUOUS
10
148.552
20
-117.214
11
148.726
21
-117.251
0
LINE
8
BLACK
6
CONTINUOUS
10
143.646
20
-117.251
11
143.808
21
-117.323
0
LINE
8
BLACK
6
CONTINUOUS
10
143.808
20
-117.323
11
143.952
21
-117.428
0
LINE
8
BLACK
6
CONTINUOUS
10
143.952
20
-117.428
11
144.071
21
-117.56
0
LINE
8
BLACK
6
CONTINUOUS
10
144.071
20
-117.56
11
144.16
21
-117.713
0
LINE
8
BLACK
6
CONTINUOUS
10
144.16
20
-117.713
11
144.214
21
-117.882
0
LINE
8
BLACK
6
CONTINUOUS
10
144.214
20
-117.882
11
144.233
21
-118.059
0
LINE
8
BLACK
6
CONTINUOUS
10
144.233
20
-118.059
11
144.214
21
-118.236
0
LINE
8
BLACK
6
CONTINUOUS
10
144.214
20
-118.236
11
144.16
21
-118.405
0
LINE
8
BLACK
6
CONTINUOUS
10
144.16
20
-118.405
11
144.071
21
-118.559
0
LINE
8
BLACK
6
CONTINUOUS
10
144.071
20
-118.559
11
143.952
21
-118.691
0
LINE
8
BLACK
6
CONTINUOUS
10
143.952
20
-118.691
11
143.808
21
-118.795
0
LINE
8
BLACK
6
CONTINUOUS
10
143.808
20
-118.795
11
143.646
21
-118.868
0
LINE
8
BLACK
6
CONTINUOUS
10
143.646
20
-118.868
11
143.472
21
-118.905
0
LINE
8
BLACK
6
CONTINUOUS
10
143.472
20
-118.905
11
143.294
21
-118.905
0
LINE
8
BLACK
6
CONTINUOUS
10
143.294
20
-118.905
11
143.12
21
-118.868
0
LINE
8
BLACK
6
CONTINUOUS
10
143.12
20
-118.868
11
142.958
21
-118.795
0
LINE
8
BLACK
6
CONTINUOUS
10
142.958
20
-118.795
11
142.814
21
-118.691
0
LINE
8
BLACK
6
CONTINUOUS
10
142.814
20
-118.691
11
142.695
21
-118.559
0
LINE
8
BLACK
6
CONTINUOUS
10
142.695
20
-118.559
11
142.606
21
-118.405
0
LINE
8
BLACK
6
CONTINUOUS
10
142.606
20
-118.405
11
142.552
21
-118.236
0
LINE
8
BLACK
6
CONTINUOUS
10
142.552
20
-118.236
11
142.533
21
-118.059
0
LINE
8
BLACK
6
CONTINUOUS
10
142.533
20
-118.059
11
142.552
21
-117.882
0
LINE
8
BLACK
6
CONTINUOUS
10
142.552
20
-117.882
11
142.606
21
-117.713
0
LINE
8
BLACK
6
CONTINUOUS
10
142.606
20
-117.713
11
142.695
21
-117.56
0
LINE
8
BLACK
6
CONTINUOUS
10
142.695
20
-117.56
11
142.814
21
-117.428
0
LINE
8
BLACK
6
CONTINUOUS
10
142.814
20
-117.428
11
142.958
21
-117.323
0
LINE
8
BLACK
6
CONTINUOUS
10
142.958
20
-117.323
11
143.12
21
-117.251
0
LINE
8
BLACK
6
CONTINUOUS
10
143.12
20
-117.251
11
143.294
21
-117.214
0
LINE
8
BLACK
6
CONTINUOUS
10
143.294
20
-117.214
11
143.472
21
-117.214
0
LINE
8
BLACK
6
CONTINUOUS
10
143.472
20
-117.214
11
143.646
21
-117.251
0
LINE
8
BLACK
6
CONTINUOUS
10
179.815
20
-100.538
11
179.978
21
-100.61
0
LINE
8
BLACK
6
CONTINUOUS
10
179.978
20
-100.61
11
180.121
21
-100.714
0
LINE
8
BLACK
6
CONTINUOUS
10
180.121
20
-100.714
11
180.24
21
-100.846
0
LINE
8
BLACK
6
CONTINUOUS
10
180.24
20
-100.846
11
180.329
21
-101
0
LINE
8
BLACK
6
CONTINUOUS
10
180.329
20
-101
11
180.384
21
-101.169
0
LINE
8
BLACK
6
CONTINUOUS
10
180.384
20
-101.169
11
180.403
21
-101.346
0
LINE
8
BLACK
6
CONTINUOUS
10
180.403
20
-101.346
11
180.384
21
-101.523
0
LINE
8
BLACK
6
CONTINUOUS
10
180.384
20
-101.523
11
180.329
21
-101.692
0
LINE
8
BLACK
6
CONTINUOUS
10
180.329
20
-101.692
11
180.24
21
-101.846
0
LINE
8
BLACK
6
CONTINUOUS
10
180.24
20
-101.846
11
180.121
21
-101.978
0
LINE
8
BLACK
6
CONTINUOUS
10
180.121
20
-101.978
11
179.978
21
-102.082
0
LINE
8
BLACK
6
CONTINUOUS
10
179.978
20
-102.082
11
179.815
21
-102.154
0
LINE
8
BLACK
6
CONTINUOUS
10
179.815
20
-102.154
11
179.641
21
-102.191
0
LINE
8
BLACK
6
CONTINUOUS
10
179.641
20
-102.191
11
179.464
21
-102.191
0
LINE
8
BLACK
6
CONTINUOUS
10
179.464
20
-102.191
11
179.29
21
-102.154
0
LINE
8
BLACK
6
CONTINUOUS
10
179.29
20
-102.154
11
179.128
21
-102.082
0
LINE
8
BLACK
6
CONTINUOUS
10
179.128
20
-102.082
11
178.984
21
-101.978
0
LINE
8
BLACK
6
CONTINUOUS
10
178.984
20
-101.978
11
178.865
21
-101.846
0
LINE
8
BLACK
6
CONTINUOUS
10
178.865
20
-101.846
11
178.776
21
-101.692
0
LINE
8
BLACK
6
CONTINUOUS
10
178.776
20
-101.692
11
178.721
21
-101.523
0
LINE
8
BLACK
6
CONTINUOUS
10
178.721
20
-101.523
11
178.703
21
-101.346
0
LINE
8
BLACK
6
CONTINUOUS
10
178.703
20
-101.346
11
178.721
21
-101.169
0
LINE
8
BLACK
6
CONTINUOUS
10
178.721
20
-101.169
11
178.776
21
-101
0
LINE
8
BLACK
6
CONTINUOUS
10
178.776
20
-101
11
178.865
21
-100.846
0
LINE
8
BLACK
6
CONTINUOUS
10
178.865
20
-100.846
11
178.984
21
-100.714
0
LINE
8
BLACK
6
CONTINUOUS
10
178.984
20
-100.714
11
179.128
21
-100.61
0
LINE
8
BLACK
6
CONTINUOUS
10
179.128
20
-100.61
11
179.29
21
-100.538
0
LINE
8
BLACK
6
CONTINUOUS
10
179.29
20
-100.538
11
179.464
21
-100.501
0
LINE
8
BLACK
6
CONTINUOUS
10
179.464
20
-100.501
11
179.641
21
-100.501
0
LINE
8
BLACK
6
CONTINUOUS
10
179.641
20
-100.501
11
179.815
21
-100.538
0
LINE
8
BLACK
6
CONTINUOUS
10
157.771
20
-99.7583
11
157.948
21
-99.7806
0
LINE
8
BLACK
6
CONTINUOUS
10
157.948
20
-99.7806
11
158.115
21
-99.8416
0
LINE
8
BLACK
6
CONTINUOUS
10
158.115
20
-99.8416
11
158.265
21
-99.9383
0
LINE
8
BLACK
6
CONTINUOUS
10
158.265
20
-99.9383
11
158.39
21
-100.066
0
LINE
8
BLACK
6
CONTINUOUS
10
158.39
20
-100.066
11
158.483
21
-100.218
0
LINE
8
BLACK
6
CONTINUOUS
10
158.483
20
-100.218
11
158.541
21
-100.386
0
LINE
8
BLACK
6
CONTINUOUS
10
158.541
20
-100.386
11
158.559
21
-100.564
0
LINE
8
BLACK
6
CONTINUOUS
10
158.559
20
-100.564
11
158.538
21
-100.741
0
LINE
8
BLACK
6
CONTINUOUS
10
158.538
20
-100.741
11
158.478
21
-100.909
0
LINE
8
BLACK
6
CONTINUOUS
10
158.478
20
-100.909
11
158.383
21
-101.059
0
LINE
8
BLACK
6
CONTINUOUS
10
158.383
20
-101.059
11
158.256
21
-101.185
0
LINE
8
BLACK
6
CONTINUOUS
10
158.256
20
-101.185
11
158.105
21
-101.28
0
LINE
8
BLACK
6
CONTINUOUS
10
158.105
20
-101.28
11
157.937
21
-101.338
0
LINE
8
BLACK
6
CONTINUOUS
10
157.937
20
-101.338
11
157.759
21
-101.358
0
LINE
8
BLACK
6
CONTINUOUS
10
157.759
20
-101.358
11
155.109
21
-101.358
0
LINE
8
BLACK
6
CONTINUOUS
10
155.109
20
-101.358
11
155.098
21
-101.358
0
LINE
8
BLACK
6
CONTINUOUS
10
155.098
20
-101.358
11
154.921
21
-101.336
0
LINE
8
BLACK
6
CONTINUOUS
10
154.921
20
-101.336
11
154.754
21
-101.275
0
LINE
8
BLACK
6
CONTINUOUS
10
154.754
20
-101.275
11
154.604
21
-101.178
0
LINE
8
BLACK
6
CONTINUOUS
10
154.604
20
-101.178
11
154.479
21
-101.051
0
LINE
8
BLACK
6
CONTINUOUS
10
154.479
20
-101.051
11
154.386
21
-100.899
0
LINE
8
BLACK
6
CONTINUOUS
10
154.386
20
-100.899
11
154.328
21
-100.73
0
LINE
8
BLACK
6
CONTINUOUS
10
154.328
20
-100.73
11
154.309
21
-100.553
0
LINE
8
BLACK
6
CONTINUOUS
10
154.309
20
-100.553
11
154.331
21
-100.376
0
LINE
8
BLACK
6
CONTINUOUS
10
154.331
20
-100.376
11
154.39
21
-100.208
0
LINE
8
BLACK
6
CONTINUOUS
10
154.39
20
-100.208
11
154.486
21
-100.057
0
LINE
8
BLACK
6
CONTINUOUS
10
154.486
20
-100.057
11
154.613
21
-99.9313
0
LINE
8
BLACK
6
CONTINUOUS
10
154.613
20
-99.9313
11
154.764
21
-99.8368
0
LINE
8
BLACK
6
CONTINUOUS
10
154.764
20
-99.8368
11
154.932
21
-99.7781
0
LINE
8
BLACK
6
CONTINUOUS
10
154.932
20
-99.7781
11
155.109
21
-99.7582
0
LINE
8
BLACK
6
CONTINUOUS
10
155.109
20
-99.7582
11
157.759
21
-99.7582
0
LINE
8
BLACK
6
CONTINUOUS
10
157.759
20
-99.7582
11
157.771
21
-99.7583
0
LINE
8
BLACK
6
CONTINUOUS
10
179.815
20
-97.9976
11
179.978
21
-98.0699
0
LINE
8
BLACK
6
CONTINUOUS
10
179.978
20
-98.0699
11
180.121
21
-98.1743
0
LINE
8
BLACK
6
CONTINUOUS
10
180.121
20
-98.1743
11
180.24
21
-98.3064
0
LINE
8
BLACK
6
CONTINUOUS
10
180.24
20
-98.3064
11
180.329
21
-98.4603
0
LINE
8
BLACK
6
CONTINUOUS
10
180.329
20
-98.4603
11
180.384
21
-98.6293
0
LINE
8
BLACK
6
CONTINUOUS
10
180.384
20
-98.6293
11
180.403
21
-98.806
0
LINE
8
BLACK
6
CONTINUOUS
10
180.403
20
-98.806
11
180.384
21
-98.9827
0
LINE
8
BLACK
6
CONTINUOUS
10
180.384
20
-98.9827
11
180.329
21
-99.1517
0
LINE
8
BLACK
6
CONTINUOUS
10
180.329
20
-99.1517
11
180.24
21
-99.3056
0
LINE
8
BLACK
6
CONTINUOUS
10
180.24
20
-99.3056
11
180.121
21
-99.4377
0
LINE
8
BLACK
6
CONTINUOUS
10
180.121
20
-99.4377
11
179.978
21
-99.5421
0
LINE
8
BLACK
6
CONTINUOUS
10
179.978
20
-99.5421
11
179.815
21
-99.6144
0
LINE
8
BLACK
6
CONTINUOUS
10
179.815
20
-99.6144
11
179.641
21
-99.6513
0
LINE
8
BLACK
6
CONTINUOUS
10
179.641
20
-99.6513
11
179.464
21
-99.6513
0
LINE
8
BLACK
6
CONTINUOUS
10
179.464
20
-99.6513
11
179.29
21
-99.6144
0
LINE
8
BLACK
6
CONTINUOUS
10
179.29
20
-99.6144
11
179.128
21
-99.5421
0
LINE
8
BLACK
6
CONTINUOUS
10
179.128
20
-99.5421
11
178.984
21
-99.4377
0
LINE
8
BLACK
6
CONTINUOUS
10
178.984
20
-99.4377
11
178.865
21
-99.3056
0
LINE
8
BLACK
6
CONTINUOUS
10
178.865
20
-99.3056
11
178.776
21
-99.1517
0
LINE
8
BLACK
6
CONTINUOUS
10
178.776
20
-99.1517
11
178.721
21
-98.9827
0
LINE
8
BLACK
6
CONTINUOUS
10
178.721
20
-98.9827
11
178.703
21
-98.806
0
LINE
8
BLACK
6
CONTINUOUS
10
178.703
20
-98.806
11
178.721
21
-98.6293
0
LINE
8
BLACK
6
CONTINUOUS
10
178.721
20
-98.6293
11
178.776
21
-98.4603
0
LINE
8
BLACK
6
CONTINUOUS
10
178.776
20
-98.4603
11
178.865
21
-98.3064
0
LINE
8
BLACK
6
CONTINUOUS
10
178.865
20
-98.3064
11
178.984
21
-98.1743
0
LINE
8
BLACK
6
CONTINUOUS
10
178.984
20
-98.1743
11
179.128
21
-98.0699
0
LINE
8
BLACK
6
CONTINUOUS
10
179.128
20
-98.0699
11
179.29
21
-97.9976
0
LINE
8
BLACK
6
CONTINUOUS
10
179.29
20
-97.9976
11
179.464
21
-97.9607
0
LINE
8
BLACK
6
CONTINUOUS
10
179.464
20
-97.9607
11
179.641
21
-97.9607
0
LINE
8
BLACK
6
CONTINUOUS
10
179.641
20
-97.9607
11
179.815
21
-97.9976
0
LINE
8
BLACK
6
CONTINUOUS
10
142.759
20
-97.2797
11
142.936
21
-97.3021
0
LINE
8
BLACK
6
CONTINUOUS
10
142.936
20
-97.3021
11
143.104
21
-97.3631
0
LINE
8
BLACK
6
CONTINUOUS
10
143.104
20
-97.3631
11
143.254
21
-97.4597
0
LINE
8
BLACK
6
CONTINUOUS
10
143.254
20
-97.4597
11
143.379
21
-97.5871
0
LINE
8
BLACK
6
CONTINUOUS
10
143.379
20
-97.5871
11
143.472
21
-97.739
0
LINE
8
BLACK
6
CONTINUOUS
10
143.472
20
-97.739
11
143.529
21
-97.9078
0
LINE
8
BLACK
6
CONTINUOUS
10
143.529
20
-97.9078
11
143.548
21
-98.0852
0
LINE
8
BLACK
6
CONTINUOUS
10
143.548
20
-98.0852
11
143.527
21
-98.2623
0
LINE
8
BLACK
6
CONTINUOUS
10
143.527
20
-98.2623
11
143.467
21
-98.4303
0
LINE
8
BLACK
6
CONTINUOUS
10
143.467
20
-98.4303
11
143.372
21
-98.5809
0
LINE
8
BLACK
6
CONTINUOUS
10
143.372
20
-98.5809
11
143.245
21
-98.7066
0
LINE
8
BLACK
6
CONTINUOUS
10
143.245
20
-98.7066
11
143.094
21
-98.8011
0
LINE
8
BLACK
6
CONTINUOUS
10
143.094
20
-98.8011
11
142.925
21
-98.8598
0
LINE
8
BLACK
6
CONTINUOUS
10
142.925
20
-98.8598
11
142.748
21
-98.8796
0
LINE
8
BLACK
6
CONTINUOUS
10
142.748
20
-98.8796
11
140.098
21
-98.8796
0
LINE
8
BLACK
6
CONTINUOUS
10
140.098
20
-98.8796
11
140.087
21
-98.8796
0
LINE
8
BLACK
6
CONTINUOUS
10
140.087
20
-98.8796
11
139.91
21
-98.8572
0
LINE
8
BLACK
6
CONTINUOUS
10
139.91
20
-98.8572
11
139.742
21
-98.7962
0
LINE
8
BLACK
6
CONTINUOUS
10
139.742
20
-98.7962
11
139.592
21
-98.6996
0
LINE
8
BLACK
6
CONTINUOUS
10
139.592
20
-98.6996
11
139.468
21
-98.5722
0
LINE
8
BLACK
6
CONTINUOUS
10
139.468
20
-98.5722
11
139.374
21
-98.4203
0
LINE
8
BLACK
6
CONTINUOUS
10
139.374
20
-98.4203
11
139.317
21
-98.2514
0
LINE
8
BLACK
6
CONTINUOUS
10
139.317
20
-98.2514
11
139.298
21
-98.074
0
LINE
8
BLACK
6
CONTINUOUS
10
139.298
20
-98.074
11
139.319
21
-97.897
0
LINE
8
BLACK
6
CONTINUOUS
10
139.319
20
-97.897
11
139.379
21
-97.7289
0
LINE
8
BLACK
6
CONTINUOUS
10
139.379
20
-97.7289
11
139.475
21
-97.5784
0
LINE
8
BLACK
6
CONTINUOUS
10
139.475
20
-97.5784
11
139.601
21
-97.4527
0
LINE
8
BLACK
6
CONTINUOUS
10
139.601
20
-97.4527
11
139.752
21
-97.3582
0
LINE
8
BLACK
6
CONTINUOUS
10
139.752
20
-97.3582
11
139.921
21
-97.2995
0
LINE
8
BLACK
6
CONTINUOUS
10
139.921
20
-97.2995
11
140.098
21
-97.2796
0
LINE
8
BLACK
6
CONTINUOUS
10
140.098
20
-97.2796
11
142.748
21
-97.2796
0
LINE
8
BLACK
6
CONTINUOUS
10
142.748
20
-97.2796
11
142.759
21
-97.2797
0
LINE
8
BLACK
6
CONTINUOUS
10
179.815
20
-95.4576
11
179.978
21
-95.5299
0
LINE
8
BLACK
6
CONTINUOUS
10
179.978
20
-95.5299
11
180.121
21
-95.6343
0
LINE
8
BLACK
6
CONTINUOUS
10
180.121
20
-95.6343
11
180.24
21
-95.7664
0
LINE
8
BLACK
6
CONTINUOUS
10
180.24
20
-95.7664
11
180.329
21
-95.9203
0
LINE
8
BLACK
6
CONTINUOUS
10
180.329
20
-95.9203
11
180.384
21
-96.0893
0
LINE
8
BLACK
6
CONTINUOUS
10
180.384
20
-96.0893
11
180.403
21
-96.266
0
LINE
8
BLACK
6
CONTINUOUS
10
180.403
20
-96.266
11
180.384
21
-96.4427
0
LINE
8
BLACK
6
CONTINUOUS
10
180.384
20
-96.4427
11
180.329
21
-96.6117
0
LINE
8
BLACK
6
CONTINUOUS
10
180.329
20
-96.6117
11
180.24
21
-96.7656
0
LINE
8
BLACK
6
CONTINUOUS
10
180.24
20
-96.7656
11
180.121
21
-96.8977
0
LINE
8
BLACK
6
CONTINUOUS
10
180.121
20
-96.8977
11
179.978
21
-97.0021
0
LINE
8
BLACK
6
CONTINUOUS
10
179.978
20
-97.0021
11
179.815
21
-97.0744
0
LINE
8
BLACK
6
CONTINUOUS
10
179.815
20
-97.0744
11
179.641
21
-97.1113
0
LINE
8
BLACK
6
CONTINUOUS
10
179.641
20
-97.1113
11
179.464
21
-97.1113
0
LINE
8
BLACK
6
CONTINUOUS
10
179.464
20
-97.1113
11
179.29
21
-97.0744
0
LINE
8
BLACK
6
CONTINUOUS
10
179.29
20
-97.0744
11
179.128
21
-97.0021
0
LINE
8
BLACK
6
CONTINUOUS
10
179.128
20
-97.0021
11
178.984
21
-96.8977
0
LINE
8
BLACK
6
CONTINUOUS
10
178.984
20
-96.8977
11
178.865
21
-96.7656
0
LINE
8
BLACK
6
CONTINUOUS
10
178.865
20
-96.7656
11
178.776
21
-96.6117
0
LINE
8
BLACK
6
CONTINUOUS
10
178.776
20
-96.6117
11
178.721
21
-96.4427
0
LINE
8
BLACK
6
CONTINUOUS
10
178.721
20
-96.4427
11
178.703
21
-96.266
0
LINE
8
BLACK
6
CONTINUOUS
10
178.703
20
-96.266
11
178.721
21
-96.0893
0
LINE
8
BLACK
6
CONTINUOUS
10
178.721
20
-96.0893
11
178.776
21
-95.9203
0
LINE
8
BLACK
6
CONTINUOUS
10
178.776
20
-95.9203
11
178.865
21
-95.7664
0
LINE
8
BLACK
6
CONTINUOUS
10
178.865
20
-95.7664
11
178.984
21
-95.6343
0
LINE
8
BLACK
6
CONTINUOUS
10
178.984
20
-95.6343
11
179.128
21
-95.5299
0
LINE
8
BLACK
6
CONTINUOUS
10
179.128
20
-95.5299
11
179.29
21
-95.4576
0
LINE
8
BLACK
6
CONTINUOUS
10
179.29
20
-95.4576
11
179.464
21
-95.4207
0
LINE
8
BLACK
6
CONTINUOUS
10
179.464
20
-95.4207
11
179.641
21
-95.4207
0
LINE
8
BLACK
6
CONTINUOUS
10
179.641
20
-95.4207
11
179.815
21
-95.4576
0
LINE
8
BLACK
6
CONTINUOUS
10
157.732
20
-94.7884
11
157.909
21
-94.8108
0
LINE
8
BLACK
6
CONTINUOUS
10
157.909
20
-94.8108
11
158.077
21
-94.8718
0
LINE
8
BLACK
6
CONTINUOUS
10
158.077
20
-94.8718
11
158.227
21
-94.9684
0
LINE
8
BLACK
6
CONTINUOUS
10
158.227
20
-94.9684
11
158.352
21
-95.0958
0
LINE
8
BLACK
6
CONTINUOUS
10
158.352
20
-95.0958
11
158.445
21
-95.2477
0
LINE
8
BLACK
6
CONTINUOUS
10
158.445
20
-95.2477
11
158.503
21
-95.4166
0
LINE
8
BLACK
6
CONTINUOUS
10
158.503
20
-95.4166
11
158.521
21
-95.5939
0
LINE
8
BLACK
6
CONTINUOUS
10
158.521
20
-95.5939
11
158.5
21
-95.771
0
LINE
8
BLACK
6
CONTINUOUS
10
158.5
20
-95.771
11
158.44
21
-95.939
0
LINE
8
BLACK
6
CONTINUOUS
10
158.44
20
-95.939
11
158.345
21
-96.0896
0
LINE
8
BLACK
6
CONTINUOUS
10
158.345
20
-96.0896
11
158.218
21
-96.2153
0
LINE
8
BLACK
6
CONTINUOUS
10
158.218
20
-96.2153
11
158.067
21
-96.3098
0
LINE
8
BLACK
6
CONTINUOUS
10
158.067
20
-96.3098
11
157.899
21
-96.3685
0
LINE
8
BLACK
6
CONTINUOUS
10
157.899
20
-96.3685
11
157.721
21
-96.3883
0
LINE
8
BLACK
6
CONTINUOUS
10
157.721
20
-96.3883
11
155.071
21
-96.3883
0
LINE
8
BLACK
6
CONTINUOUS
10
155.071
20
-96.3883
11
155.06
21
-96.3883
0
LINE
8
BLACK
6
CONTINUOUS
10
155.06
20
-96.3883
11
154.883
21
-96.3659
0
LINE
8
BLACK
6
CONTINUOUS
10
154.883
20
-96.3659
11
154.716
21
-96.3049
0
LINE
8
BLACK
6
CONTINUOUS
10
154.716
20
-96.3049
11
154.566
21
-96.2083
0
LINE
8
BLACK
6
CONTINUOUS
10
154.566
20
-96.2083
11
154.441
21
-96.0809
0
LINE
8
BLACK
6
CONTINUOUS
10
154.441
20
-96.0809
11
154.347
21
-95.929
0
LINE
8
BLACK
6
CONTINUOUS
10
154.347
20
-95.929
11
154.29
21
-95.7601
0
LINE
8
BLACK
6
CONTINUOUS
10
154.29
20
-95.7601
11
154.271
21
-95.5828
0
LINE
8
BLACK
6
CONTINUOUS
10
154.271
20
-95.5828
11
154.292
21
-95.4057
0
LINE
8
BLACK
6
CONTINUOUS
10
154.292
20
-95.4057
11
154.352
21
-95.2376
0
LINE
8
BLACK
6
CONTINUOUS
10
154.352
20
-95.2376
11
154.448
21
-95.0871
0
LINE
8
BLACK
6
CONTINUOUS
10
154.448
20
-95.0871
11
154.574
21
-94.9614
0
LINE
8
BLACK
6
CONTINUOUS
10
154.574
20
-94.9614
11
154.726
21
-94.8669
0
LINE
8
BLACK
6
CONTINUOUS
10
154.726
20
-94.8669
11
154.894
21
-94.8082
0
LINE
8
BLACK
6
CONTINUOUS
10
154.894
20
-94.8082
11
155.071
21
-94.7883
0
LINE
8
BLACK
6
CONTINUOUS
10
155.071
20
-94.7883
11
157.721
21
-94.7883
0
LINE
8
BLACK
6
CONTINUOUS
10
157.721
20
-94.7883
11
157.732
21
-94.7884
0
LINE
8
BLACK
6
CONTINUOUS
10
179.815
20
-92.9176
11
179.978
21
-92.9899
0
LINE
8
BLACK
6
CONTINUOUS
10
179.978
20
-92.9899
11
180.121
21
-93.0943
0
LINE
8
BLACK
6
CONTINUOUS
10
180.121
20
-93.0943
11
180.24
21
-93.2264
0
LINE
8
BLACK
6
CONTINUOUS
10
180.24
20
-93.2264
11
180.329
21
-93.3803
0
LINE
8
BLACK
6
CONTINUOUS
10
180.329
20
-93.3803
11
180.384
21
-93.5493
0
LINE
8
BLACK
6
CONTINUOUS
10
180.384
20
-93.5493
11
180.403
21
-93.726
0
LINE
8
BLACK
6
CONTINUOUS
10
180.403
20
-93.726
11
180.384
21
-93.9027
0
LINE
8
BLACK
6
CONTINUOUS
10
180.384
20
-93.9027
11
180.329
21
-94.0717
0
LINE
8
BLACK
6
CONTINUOUS
10
180.329
20
-94.0717
11
180.24
21
-94.2256
0
LINE
8
BLACK
6
CONTINUOUS
10
180.24
20
-94.2256
11
180.121
21
-94.3577
0
LINE
8
BLACK
6
CONTINUOUS
10
180.121
20
-94.3577
11
179.978
21
-94.4621
0
LINE
8
BLACK
6
CONTINUOUS
10
179.978
20
-94.4621
11
179.815
21
-94.5344
0
LINE
8
BLACK
6
CONTINUOUS
10
179.815
20
-94.5344
11
179.641
21
-94.5713
0
LINE
8
BLACK
6
CONTINUOUS
10
179.641
20
-94.5713
11
179.464
21
-94.5713
0
LINE
8
BLACK
6
CONTINUOUS
10
179.464
20
-94.5713
11
179.29
21
-94.5344
0
LINE
8
BLACK
6
CONTINUOUS
10
179.29
20
-94.5344
11
179.128
21
-94.4621
0
LINE
8
BLACK
6
CONTINUOUS
10
179.128
20
-94.4621
11
178.984
21
-94.3577
0
LINE
8
BLACK
6
CONTINUOUS
10
178.984
20
-94.3577
11
178.865
21
-94.2256
0
LINE
8
BLACK
6
CONTINUOUS
10
178.865
20
-94.2256
11
178.776
21
-94.0717
0
LINE
8
BLACK
6
CONTINUOUS
10
178.776
20
-94.0717
11
178.721
21
-93.9027
0
LINE
8
BLACK
6
CONTINUOUS
10
178.721
20
-93.9027
11
178.703
21
-93.726
0
LINE
8
BLACK
6
CONTINUOUS
10
178.703
20
-93.726
11
178.721
21
-93.5493
0
LINE
8
BLACK
6
CONTINUOUS
10
178.721
20
-93.5493
11
178.776
21
-93.3803
0
LINE
8
BLACK
6
CONTINUOUS
10
178.776
20
-93.3803
11
178.865
21
-93.2264
0
LINE
8
BLACK
6
CONTINUOUS
10
178.865
20
-93.2264
11
178.984
21
-93.0943
0
LINE
8
BLACK
6
CONTINUOUS
10
178.984
20
-93.0943
11
179.128
21
-92.9899
0
LINE
8
BLACK
6
CONTINUOUS
10
179.128
20
-92.9899
11
179.29
21
-92.9176
0
LINE
8
BLACK
6
CONTINUOUS
10
179.29
20
-92.9176
11
179.464
21
-92.8807
0
LINE
8
BLACK
6
CONTINUOUS
10
179.464
20
-92.8807
11
179.641
21
-92.8807
0
LINE
8
BLACK
6
CONTINUOUS
10
179.641
20
-92.8807
11
179.815
21
-92.9176
0
LINE
8
BLACK
6
CONTINUOUS
10
179.815
20
-90.3776
11
179.978
21
-90.4499
0
LINE
8
BLACK
6
CONTINUOUS
10
179.978
20
-90.4499
11
180.121
21
-90.5543
0
LINE
8
BLACK
6
CONTINUOUS
10
180.121
20
-90.5543
11
180.24
21
-90.6864
0
LINE
8
BLACK
6
CONTINUOUS
10
180.24
20
-90.6864
11
180.329
21
-90.8403
0
LINE
8
BLACK
6
CONTINUOUS
10
180.329
20
-90.8403
11
180.384
21
-91.0093
0
LINE
8
BLACK
6
CONTINUOUS
10
180.384
20
-91.0093
11
180.403
21
-91.186
0
LINE
8
BLACK
6
CONTINUOUS
10
180.403
20
-91.186
11
180.384
21
-91.3627
0
LINE
8
BLACK
6
CONTINUOUS
10
180.384
20
-91.3627
11
180.329
21
-91.5317
0
LINE
8
BLACK
6
CONTINUOUS
10
180.329
20
-91.5317
11
180.24
21
-91.6856
0
LINE
8
BLACK
6
CONTINUOUS
10
180.24
20
-91.6856
11
180.121
21
-91.8177
0
LINE
8
BLACK
6
CONTINUOUS
10
180.121
20
-91.8177
11
179.978
21
-91.9221
0
LINE
8
BLACK
6
CONTINUOUS
10
179.978
20
-91.9221
11
179.815
21
-91.9944
0
LINE
8
BLACK
6
CONTINUOUS
10
179.815
20
-91.9944
11
179.641
21
-92.0313
0
LINE
8
BLACK
6
CONTINUOUS
10
179.641
20
-92.0313
11
179.464
21
-92.0313
0
LINE
8
BLACK
6
CONTINUOUS
10
179.464
20
-92.0313
11
179.29
21
-91.9944
0
LINE
8
BLACK
6
CONTINUOUS
10
179.29
20
-91.9944
11
179.128
21
-91.9221
0
LINE
8
BLACK
6
CONTINUOUS
10
179.128
20
-91.9221
11
178.984
21
-91.8177
0
LINE
8
BLACK
6
CONTINUOUS
10
178.984
20
-91.8177
11
178.865
21
-91.6856
0
LINE
8
BLACK
6
CONTINUOUS
10
178.865
20
-91.6856
11
178.776
21
-91.5317
0
LINE
8
BLACK
6
CONTINUOUS
10
178.776
20
-91.5317
11
178.721
21
-91.3627
0
LINE
8
BLACK
6
CONTINUOUS
10
178.721
20
-91.3627
11
178.703
21
-91.186
0
LINE
8
BLACK
6
CONTINUOUS
10
178.703
20
-91.186
11
178.721
21
-91.0093
0
LINE
8
BLACK
6
CONTINUOUS
10
178.721
20
-91.0093
11
178.776
21
-90.8403
0
LINE
8
BLACK
6
CONTINUOUS
10
178.776
20
-90.8403
11
178.865
21
-90.6864
0
LINE
8
BLACK
6
CONTINUOUS
10
178.865
20
-90.6864
11
178.984
21
-90.5543
0
LINE
8
BLACK
6
CONTINUOUS
10
178.984
20
-90.5543
11
179.128
21
-90.4499
0
LINE
8
BLACK
6
CONTINUOUS
10
179.128
20
-90.4499
11
179.29
21
-90.3776
0
LINE
8
BLACK
6
CONTINUOUS
10
179.29
20
-90.3776
11
179.464
21
-90.3407
0
LINE
8
BLACK
6
CONTINUOUS
10
179.464
20
-90.3407
11
179.641
21
-90.3407
0
LINE
8
BLACK
6
CONTINUOUS
10
179.641
20
-90.3407
11
179.815
21
-90.3776
0
LINE
8
BLACK
6
CONTINUOUS
10
179.815
20
-87.8376
11
179.978
21
-87.9099
0
LINE
8
BLACK
6
CONTINUOUS
10
179.978
20
-87.9099
11
180.121
21
-88.0143
0
LINE
8
BLACK
6
CONTINUOUS
10
180.121
20
-88.0143
11
180.24
21
-88.1464
0
LINE
8
BLACK
6
CONTINUOUS
10
180.24
20
-88.1464
11
180.329
21
-88.3003
0
LINE
8
BLACK
6
CONTINUOUS
10
180.329
20
-88.3003
11
180.384
21
-88.4693
0
LINE
8
BLACK
6
CONTINUOUS
10
180.384
20
-88.4693
11
180.403
21
-88.646
0
LINE
8
BLACK
6
CONTINUOUS
10
180.403
20
-88.646
11
180.384
21
-88.8227
0
LINE
8
BLACK
6
CONTINUOUS
10
180.384
20
-88.8227
11
180.329
21
-88.9917
0
LINE
8
BLACK
6
CONTINUOUS
10
180.329
20
-88.9917
11
180.24
21
-89.1456
0
LINE
8
BLACK
6
CONTINUOUS
10
180.24
20
-89.1456
11
180.121
21
-89.2777
0
LINE
8
BLACK
6
CONTINUOUS
10
180.121
20
-89.2777
11
179.978
21
-89.3821
0
LINE
8
BLACK
6
CONTINUOUS
10
179.978
20
-89.3821
11
179.815
21
-89.4544
0
LINE
8
BLACK
6
CONTINUOUS
10
179.815
20
-89.4544
11
179.641
21
-89.4913
0
LINE
8
BLACK
6
CONTINUOUS
10
179.641
20
-89.4913
11
179.464
21
-89.4913
0
LINE
8
BLACK
6
CONTINUOUS
10
179.464
20
-89.4913
11
179.29
21
-89.4544
0
LINE
8
BLACK
6
CONTINUOUS
10
179.29
20
-89.4544
11
179.128
21
-89.3821
0
LINE
8
BLACK
6
CONTINUOUS
10
179.128
20
-89.3821
11
178.984
21
-89.2777
0
LINE
8
BLACK
6
CONTINUOUS
10
178.984
20
-89.2777
11
178.865
21
-89.1456
0
LINE
8
BLACK
6
CONTINUOUS
10
178.865
20
-89.1456
11
178.776
21
-88.9917
0
LINE
8
BLACK
6
CONTINUOUS
10
178.776
20
-88.9917
11
178.721
21
-88.8227
0
LINE
8
BLACK
6
CONTINUOUS
10
178.721
20
-88.8227
11
178.703
21
-88.646
0
LINE
8
BLACK
6
CONTINUOUS
10
178.703
20
-88.646
11
178.721
21
-88.4693
0
LINE
8
BLACK
6
CONTINUOUS
10
178.721
20
-88.4693
11
178.776
21
-88.3003
0
LINE
8
BLACK
6
CONTINUOUS
10
178.776
20
-88.3003
11
178.865
21
-88.1464
0
LINE
8
BLACK
6
CONTINUOUS
10
178.865
20
-88.1464
11
178.984
21
-88.0143
0
LINE
8
BLACK
6
CONTINUOUS
10
178.984
20
-88.0143
11
179.128
21
-87.9099
0
LINE
8
BLACK
6
CONTINUOUS
10
179.128
20
-87.9099
11
179.29
21
-87.8376
0
LINE
8
BLACK
6
CONTINUOUS
10
179.29
20
-87.8376
11
179.464
21
-87.8007
0
LINE
8
BLACK
6
CONTINUOUS
10
179.464
20
-87.8007
11
179.641
21
-87.8007
0
LINE
8
BLACK
6
CONTINUOUS
10
179.641
20
-87.8007
11
179.815
21
-87.8376
0
LINE
8
BLACK
6
CONTINUOUS
10
165.055
20
-88.8046
11
162.655
21
-88.8046
0
LINE
8
BLACK
6
CONTINUOUS
10
162.655
20
-88.8046
11
162.655
21
-86.4046
0
LINE
8
BLACK
6
CONTINUOUS
10
162.655
20
-86.4046
11
165.055
21
-86.4046
0
LINE
8
BLACK
6
CONTINUOUS
10
165.055
20
-86.4046
11
165.055
21
-88.8046
0
LINE
8
BLACK
6
CONTINUOUS
10
151.281
20
-86.4112
11
151.496
21
-86.454
0
LINE
8
BLACK
6
CONTINUOUS
10
151.496
20
-86.454
11
151.7
21
-86.5354
0
LINE
8
BLACK
6
CONTINUOUS
10
151.7
20
-86.5354
11
151.886
21
-86.6526
0
LINE
8
BLACK
6
CONTINUOUS
10
151.886
20
-86.6526
11
152.047
21
-86.8016
0
LINE
8
BLACK
6
CONTINUOUS
10
152.047
20
-86.8016
11
152.179
21
-86.9776
0
LINE
8
BLACK
6
CONTINUOUS
10
152.179
20
-86.9776
11
152.276
21
-87.1746
0
LINE
8
BLACK
6
CONTINUOUS
10
152.276
20
-87.1746
11
152.335
21
-87.3859
0
LINE
8
BLACK
6
CONTINUOUS
10
152.335
20
-87.3859
11
152.355
21
-87.6046
0
LINE
8
BLACK
6
CONTINUOUS
10
152.355
20
-87.6046
11
152.354
21
-87.6674
0
LINE
8
BLACK
6
CONTINUOUS
10
152.354
20
-87.6674
11
152.322
21
-87.8847
0
LINE
8
BLACK
6
CONTINUOUS
10
152.322
20
-87.8847
11
152.252
21
-88.0927
0
LINE
8
BLACK
6
CONTINUOUS
10
152.252
20
-88.0927
11
152.144
21
-88.2843
0
LINE
8
BLACK
6
CONTINUOUS
10
152.144
20
-88.2843
11
152.004
21
-88.4531
0
LINE
8
BLACK
6
CONTINUOUS
10
152.004
20
-88.4531
11
151.835
21
-88.5936
0
LINE
8
BLACK
6
CONTINUOUS
10
151.835
20
-88.5936
11
151.643
21
-88.7009
0
LINE
8
BLACK
6
CONTINUOUS
10
151.643
20
-88.7009
11
151.436
21
-88.7714
0
LINE
8
BLACK
6
CONTINUOUS
10
151.436
20
-88.7714
11
151.218
21
-88.803
0
LINE
8
BLACK
6
CONTINUOUS
10
151.218
20
-88.803
11
150.999
21
-88.7943
0
LINE
8
BLACK
6
CONTINUOUS
10
150.999
20
-88.7943
11
150.785
21
-88.7459
0
LINE
8
BLACK
6
CONTINUOUS
10
150.785
20
-88.7459
11
150.583
21
-88.6592
0
LINE
8
BLACK
6
CONTINUOUS
10
150.583
20
-88.6592
11
150.4
21
-88.5372
0
LINE
8
BLACK
6
CONTINUOUS
10
150.4
20
-88.5372
11
150.243
21
-88.3839
0
LINE
8
BLACK
6
CONTINUOUS
10
150.243
20
-88.3839
11
150.116
21
-88.2046
0
LINE
8
BLACK
6
CONTINUOUS
10
150.116
20
-88.2046
11
150.024
21
-88.0052
0
LINE
8
BLACK
6
CONTINUOUS
10
150.024
20
-88.0052
11
149.97
21
-87.7923
0
LINE
8
BLACK
6
CONTINUOUS
10
149.97
20
-87.7923
11
149.956
21
-87.5732
0
LINE
8
BLACK
6
CONTINUOUS
10
149.956
20
-87.5732
11
149.982
21
-87.3551
0
LINE
8
BLACK
6
CONTINUOUS
10
149.982
20
-87.3551
11
150.047
21
-87.1454
0
LINE
8
BLACK
6
CONTINUOUS
10
150.047
20
-87.1454
11
150.149
21
-86.951
0
LINE
8
BLACK
6
CONTINUOUS
10
150.149
20
-86.951
11
150.285
21
-86.7786
0
LINE
8
BLACK
6
CONTINUOUS
10
150.285
20
-86.7786
11
150.45
21
-86.6338
0
LINE
8
BLACK
6
CONTINUOUS
10
150.45
20
-86.6338
11
150.639
21
-86.5215
0
LINE
8
BLACK
6
CONTINUOUS
10
150.639
20
-86.5215
11
150.845
21
-86.4455
0
LINE
8
BLACK
6
CONTINUOUS
10
150.845
20
-86.4455
11
151.061
21
-86.4083
0
LINE
8
BLACK
6
CONTINUOUS
10
151.061
20
-86.4083
11
151.281
21
-86.4112
0
LINE
8
BLACK
6
CONTINUOUS
10
180.403
20
-86.956
11
178.703
21
-86.956
0
LINE
8
BLACK
6
CONTINUOUS
10
178.703
20
-86.956
11
178.703
21
-85.256
0
LINE
8
BLACK
6
CONTINUOUS
10
178.703
20
-85.256
11
180.403
21
-85.256
0
LINE
8
BLACK
6
CONTINUOUS
10
180.403
20
-85.256
11
180.403
21
-86.956
0
LINE
8
BLACK
6
CONTINUOUS
10
160.123
20
-80.5011
11
160.291
21
-80.561
0
LINE
8
BLACK
6
CONTINUOUS
10
160.291
20
-80.561
11
160.441
21
-80.6565
0
LINE
8
BLACK
6
CONTINUOUS
10
160.441
20
-80.6565
11
160.567
21
-80.7831
0
LINE
8
BLACK
6
CONTINUOUS
10
160.567
20
-80.7831
11
160.661
21
-80.9343
0
LINE
8
BLACK
6
CONTINUOUS
10
160.661
20
-80.9343
11
160.72
21
-81.1028
0
LINE
8
BLACK
6
CONTINUOUS
10
160.72
20
-81.1028
11
160.74
21
-81.28
0
LINE
8
BLACK
6
CONTINUOUS
10
160.74
20
-81.28
11
160.74
21
-81.3023
0
LINE
8
BLACK
6
CONTINUOUS
10
160.74
20
-81.3023
11
160.715
21
-81.479
0
LINE
8
BLACK
6
CONTINUOUS
10
160.715
20
-81.479
11
160.652
21
-81.6457
0
LINE
8
BLACK
6
CONTINUOUS
10
160.652
20
-81.6457
11
160.553
21
-81.7942
0
LINE
8
BLACK
6
CONTINUOUS
10
160.553
20
-81.7942
11
160.424
21
-81.9172
0
LINE
8
BLACK
6
CONTINUOUS
10
160.424
20
-81.9172
11
160.27
21
-82.0085
0
LINE
8
BLACK
6
CONTINUOUS
10
160.27
20
-82.0085
11
160.101
21
-82.0637
0
LINE
8
BLACK
6
CONTINUOUS
10
160.101
20
-82.0637
11
159.923
21
-82.0798
0
LINE
8
BLACK
6
CONTINUOUS
10
159.923
20
-82.0798
11
159.746
21
-82.0562
0
LINE
8
BLACK
6
CONTINUOUS
10
159.746
20
-82.0562
11
159.579
21
-81.9941
0
LINE
8
BLACK
6
CONTINUOUS
10
159.579
20
-81.9941
11
159.43
21
-81.8964
0
LINE
8
BLACK
6
CONTINUOUS
10
159.43
20
-81.8964
11
159.306
21
-81.7681
0
LINE
8
BLACK
6
CONTINUOUS
10
159.306
20
-81.7681
11
159.214
21
-81.6156
0
LINE
8
BLACK
6
CONTINUOUS
10
159.214
20
-81.6156
11
159.157
21
-81.4463
0
LINE
8
BLACK
6
CONTINUOUS
10
159.157
20
-81.4463
11
159.14
21
-81.2688
0
LINE
8
BLACK
6
CONTINUOUS
10
159.14
20
-81.2688
11
159.162
21
-81.0919
0
LINE
8
BLACK
6
CONTINUOUS
10
159.162
20
-81.0919
11
159.223
21
-80.9243
0
LINE
8
BLACK
6
CONTINUOUS
10
159.223
20
-80.9243
11
159.32
21
-80.7744
0
LINE
8
BLACK
6
CONTINUOUS
10
159.32
20
-80.7744
11
159.447
21
-80.6496
0
LINE
8
BLACK
6
CONTINUOUS
10
159.447
20
-80.6496
11
159.599
21
-80.5561
0
LINE
8
BLACK
6
CONTINUOUS
10
159.599
20
-80.5561
11
159.768
21
-80.4987
0
LINE
8
BLACK
6
CONTINUOUS
10
159.768
20
-80.4987
11
159.946
21
-80.48
0
LINE
8
BLACK
6
CONTINUOUS
10
159.946
20
-80.48
11
160.123
21
-80.5011
0
LINE
8
BLACK
6
CONTINUOUS
10
155.123
20
-80.5011
11
155.291
21
-80.561
0
LINE
8
BLACK
6
CONTINUOUS
10
155.291
20
-80.561
11
155.441
21
-80.6565
0
LINE
8
BLACK
6
CONTINUOUS
10
155.441
20
-80.6565
11
155.567
21
-80.7831
0
LINE
8
BLACK
6
CONTINUOUS
10
155.567
20
-80.7831
11
155.661
21
-80.9343
0
LINE
8
BLACK
6
CONTINUOUS
10
155.661
20
-80.9343
11
155.72
21
-81.1028
0
LINE
8
BLACK
6
CONTINUOUS
10
155.72
20
-81.1028
11
155.74
21
-81.28
0
LINE
8
BLACK
6
CONTINUOUS
10
155.74
20
-81.28
11
155.74
21
-81.3023
0
LINE
8
BLACK
6
CONTINUOUS
10
155.74
20
-81.3023
11
155.715
21
-81.479
0
LINE
8
BLACK
6
CONTINUOUS
10
155.715
20
-81.479
11
155.652
21
-81.6457
0
LINE
8
BLACK
6
CONTINUOUS
10
155.652
20
-81.6457
11
155.553
21
-81.7942
0
LINE
8
BLACK
6
CONTINUOUS
10
155.553
20
-81.7942
11
155.424
21
-81.9172
0
LINE
8
BLACK
6
CONTINUOUS
10
155.424
20
-81.9172
11
155.27
21
-82.0085
0
LINE
8
BLACK
6
CONTINUOUS
10
155.27
20
-82.0085
11
155.101
21
-82.0637
0
LINE
8
BLACK
6
CONTINUOUS
10
155.101
20
-82.0637
11
154.923
21
-82.0798
0
LINE
8
BLACK
6
CONTINUOUS
10
154.923
20
-82.0798
11
154.746
21
-82.0562
0
LINE
8
BLACK
6
CONTINUOUS
10
154.746
20
-82.0562
11
154.579
21
-81.9941
0
LINE
8
BLACK
6
CONTINUOUS
10
154.579
20
-81.9941
11
154.43
21
-81.8964
0
LINE
8
BLACK
6
CONTINUOUS
10
154.43
20
-81.8964
11
154.306
21
-81.7681
0
LINE
8
BLACK
6
CONTINUOUS
10
154.306
20
-81.7681
11
154.214
21
-81.6156
0
LINE
8
BLACK
6
CONTINUOUS
10
154.214
20
-81.6156
11
154.157
21
-81.4463
0
LINE
8
BLACK
6
CONTINUOUS
10
154.157
20
-81.4463
11
154.14
21
-81.2688
0
LINE
8
BLACK
6
CONTINUOUS
10
154.14
20
-81.2688
11
154.162
21
-81.0919
0
LINE
8
BLACK
6
CONTINUOUS
10
154.162
20
-81.0919
11
154.223
21
-80.9243
0
LINE
8
BLACK
6
CONTINUOUS
10
154.223
20
-80.9243
11
154.32
21
-80.7744
0
LINE
8
BLACK
6
CONTINUOUS
10
154.32
20
-80.7744
11
154.447
21
-80.6496
0
LINE
8
BLACK
6
CONTINUOUS
10
154.447
20
-80.6496
11
154.599
21
-80.5561
0
LINE
8
BLACK
6
CONTINUOUS
10
154.599
20
-80.5561
11
154.768
21
-80.4987
0
LINE
8
BLACK
6
CONTINUOUS
10
154.768
20
-80.4987
11
154.946
21
-80.48
0
LINE
8
BLACK
6
CONTINUOUS
10
154.946
20
-80.48
11
155.123
21
-80.5011
0
LINE
8
BLACK
6
CONTINUOUS
10
135.963
20
-75.6237
11
136.16
21
-75.663
0
LINE
8
BLACK
6
CONTINUOUS
10
136.16
20
-75.663
11
136.347
21
-75.7376
0
LINE
8
BLACK
6
CONTINUOUS
10
136.347
20
-75.7376
11
136.518
21
-75.845
0
LINE
8
BLACK
6
CONTINUOUS
10
136.518
20
-75.845
11
136.665
21
-75.9817
0
LINE
8
BLACK
6
CONTINUOUS
10
136.665
20
-75.9817
11
136.786
21
-76.143
0
LINE
8
BLACK
6
CONTINUOUS
10
136.786
20
-76.143
11
136.875
21
-76.3235
0
LINE
8
BLACK
6
CONTINUOUS
10
136.875
20
-76.3235
11
136.93
21
-76.5173
0
LINE
8
BLACK
6
CONTINUOUS
10
136.93
20
-76.5173
11
136.948
21
-76.7177
0
LINE
8
BLACK
6
CONTINUOUS
10
136.948
20
-76.7177
11
136.946
21
-76.7753
0
LINE
8
BLACK
6
CONTINUOUS
10
136.946
20
-76.7753
11
136.918
21
-76.9745
0
LINE
8
BLACK
6
CONTINUOUS
10
136.918
20
-76.9745
11
136.853
21
-77.1651
0
LINE
8
BLACK
6
CONTINUOUS
10
136.853
20
-77.1651
11
136.755
21
-77.3408
0
LINE
8
BLACK
6
CONTINUOUS
10
136.755
20
-77.3408
11
136.626
21
-77.4955
0
LINE
8
BLACK
6
CONTINUOUS
10
136.626
20
-77.4955
11
136.471
21
-77.6243
0
LINE
8
BLACK
6
CONTINUOUS
10
136.471
20
-77.6243
11
136.295
21
-77.7226
0
LINE
8
BLACK
6
CONTINUOUS
10
136.295
20
-77.7226
11
136.105
21
-77.7873
0
LINE
8
BLACK
6
CONTINUOUS
10
136.105
20
-77.7873
11
135.906
21
-77.8162
0
LINE
8
BLACK
6
CONTINUOUS
10
135.906
20
-77.8162
11
135.704
21
-77.8083
0
LINE
8
BLACK
6
CONTINUOUS
10
135.704
20
-77.8083
11
135.508
21
-77.7639
0
LINE
8
BLACK
6
CONTINUOUS
10
135.508
20
-77.7639
11
135.323
21
-77.6844
0
LINE
8
BLACK
6
CONTINUOUS
10
135.323
20
-77.6844
11
135.156
21
-77.5726
0
LINE
8
BLACK
6
CONTINUOUS
10
135.156
20
-77.5726
11
135.012
21
-77.4321
0
LINE
8
BLACK
6
CONTINUOUS
10
135.012
20
-77.4321
11
134.895
21
-77.2677
0
LINE
8
BLACK
6
CONTINUOUS
10
134.895
20
-77.2677
11
134.811
21
-77.0849
0
LINE
8
BLACK
6
CONTINUOUS
10
134.811
20
-77.0849
11
134.762
21
-76.8898
0
LINE
8
BLACK
6
CONTINUOUS
10
134.762
20
-76.8898
11
134.748
21
-76.6889
0
LINE
8
BLACK
6
CONTINUOUS
10
134.748
20
-76.6889
11
134.772
21
-76.489
0
LINE
8
BLACK
6
CONTINUOUS
10
134.772
20
-76.489
11
134.832
21
-76.2968
0
LINE
8
BLACK
6
CONTINUOUS
10
134.832
20
-76.2968
11
134.925
21
-76.1186
0
LINE
8
BLACK
6
CONTINUOUS
10
134.925
20
-76.1186
11
135.05
21
-75.9605
0
LINE
8
BLACK
6
CONTINUOUS
10
135.05
20
-75.9605
11
135.201
21
-75.8278
0
LINE
8
BLACK
6
CONTINUOUS
10
135.201
20
-75.8278
11
135.374
21
-75.7249
0
LINE
8
BLACK
6
CONTINUOUS
10
135.374
20
-75.7249
11
135.563
21
-75.6552
0
LINE
8
BLACK
6
CONTINUOUS
10
135.563
20
-75.6552
11
135.762
21
-75.6211
0
LINE
8
BLACK
6
CONTINUOUS
10
135.762
20
-75.6211
11
135.963
21
-75.6237
0
LINE
8
BLACK
6
CONTINUOUS
10
158.563
20
-74.0754
11
158.708
21
-74.1354
0
LINE
8
BLACK
6
CONTINUOUS
10
158.708
20
-74.1354
11
158.832
21
-74.2307
0
LINE
8
BLACK
6
CONTINUOUS
10
158.832
20
-74.2307
11
158.928
21
-74.355
0
LINE
8
BLACK
6
CONTINUOUS
10
158.928
20
-74.355
11
158.987
21
-74.4997
0
LINE
8
BLACK
6
CONTINUOUS
10
158.987
20
-74.4997
11
159.008
21
-74.655
0
LINE
8
BLACK
6
CONTINUOUS
10
159.008
20
-74.655
11
159.008
21
-75.205
0
LINE
8
BLACK
6
CONTINUOUS
10
159.008
20
-75.205
11
158.987
21
-75.3603
0
LINE
8
BLACK
6
CONTINUOUS
10
158.987
20
-75.3603
11
158.928
21
-75.505
0
LINE
8
BLACK
6
CONTINUOUS
10
158.928
20
-75.505
11
158.832
21
-75.6293
0
LINE
8
BLACK
6
CONTINUOUS
10
158.832
20
-75.6293
11
158.708
21
-75.7246
0
LINE
8
BLACK
6
CONTINUOUS
10
158.708
20
-75.7246
11
158.563
21
-75.7846
0
LINE
8
BLACK
6
CONTINUOUS
10
158.563
20
-75.7846
11
158.408
21
-75.805
0
LINE
8
BLACK
6
CONTINUOUS
10
158.408
20
-75.805
11
158.253
21
-75.7846
0
LINE
8
BLACK
6
CONTINUOUS
10
158.253
20
-75.7846
11
158.108
21
-75.7246
0
LINE
8
BLACK
6
CONTINUOUS
10
158.108
20
-75.7246
11
157.984
21
-75.6293
0
LINE
8
BLACK
6
CONTINUOUS
10
157.984
20
-75.6293
11
157.888
21
-75.505
0
LINE
8
BLACK
6
CONTINUOUS
10
157.888
20
-75.505
11
157.828
21
-75.3603
0
LINE
8
BLACK
6
CONTINUOUS
10
157.828
20
-75.3603
11
157.808
21
-75.205
0
LINE
8
BLACK
6
CONTINUOUS
10
157.808
20
-75.205
11
157.808
21
-74.655
0
LINE
8
BLACK
6
CONTINUOUS
10
157.808
20
-74.655
11
157.828
21
-74.4997
0
LINE
8
BLACK
6
CONTINUOUS
10
157.828
20
-74.4997
11
157.888
21
-74.355
0
LINE
8
BLACK
6
CONTINUOUS
10
157.888
20
-74.355
11
157.984
21
-74.2307
0
LINE
8
BLACK
6
CONTINUOUS
10
157.984
20
-74.2307
11
158.108
21
-74.1354
0
LINE
8
BLACK
6
CONTINUOUS
10
158.108
20
-74.1354
11
158.253
21
-74.0754
0
LINE
8
BLACK
6
CONTINUOUS
10
158.253
20
-74.0754
11
158.408
21
-74.055
0
LINE
8
BLACK
6
CONTINUOUS
10
158.408
20
-74.055
11
158.563
21
-74.0754
0
LINE
8
BLACK
6
CONTINUOUS
10
156.854
20
-74.074
11
156.935
21
-74.1282
0
LINE
8
BLACK
6
CONTINUOUS
10
156.935
20
-74.1282
11
156.989
21
-74.2093
0
LINE
8
BLACK
6
CONTINUOUS
10
156.989
20
-74.2093
11
157.008
21
-74.305
0
LINE
8
BLACK
6
CONTINUOUS
10
157.008
20
-74.305
11
157.008
21
-75.555
0
LINE
8
BLACK
6
CONTINUOUS
10
157.008
20
-75.555
11
156.989
21
-75.6507
0
LINE
8
BLACK
6
CONTINUOUS
10
156.989
20
-75.6507
11
156.935
21
-75.7318
0
LINE
8
BLACK
6
CONTINUOUS
10
156.935
20
-75.7318
11
156.854
21
-75.786
0
LINE
8
BLACK
6
CONTINUOUS
10
156.854
20
-75.786
11
156.758
21
-75.805
0
LINE
8
BLACK
6
CONTINUOUS
10
156.758
20
-75.805
11
156.058
21
-75.805
0
LINE
8
BLACK
6
CONTINUOUS
10
156.058
20
-75.805
11
155.962
21
-75.786
0
LINE
8
BLACK
6
CONTINUOUS
10
155.962
20
-75.786
11
155.881
21
-75.7318
0
LINE
8
BLACK
6
CONTINUOUS
10
155.881
20
-75.7318
11
155.827
21
-75.6507
0
LINE
8
BLACK
6
CONTINUOUS
10
155.827
20
-75.6507
11
155.808
21
-75.555
0
LINE
8
BLACK
6
CONTINUOUS
10
155.808
20
-75.555
11
155.808
21
-74.305
0
LINE
8
BLACK
6
CONTINUOUS
10
155.808
20
-74.305
11
155.827
21
-74.2093
0
LINE
8
BLACK
6
CONTINUOUS
10
155.827
20
-74.2093
11
155.881
21
-74.1282
0
LINE
8
BLACK
6
CONTINUOUS
10
155.881
20
-74.1282
11
155.962
21
-74.074
0
LINE
8
BLACK
6
CONTINUOUS
10
155.962
20
-74.074
11
156.058
21
-74.055
0
LINE
8
BLACK
6
CONTINUOUS
10
156.058
20
-74.055
11
156.758
21
-74.055
0
LINE
8
BLACK
6
CONTINUOUS
10
156.758
20
-74.055
11
156.854
21
-74.074
0
LINE
8
BLACK
6
CONTINUOUS
10
145.647
20
-68.0214
11
145.853
21
-68.0615
0
LINE
8
BLACK
6
CONTINUOUS
10
145.853
20
-68.0615
11
146.047
21
-68.1397
0
LINE
8
BLACK
6
CONTINUOUS
10
146.047
20
-68.1397
11
146.223
21
-68.2532
0
LINE
8
BLACK
6
CONTINUOUS
10
146.223
20
-68.2532
11
146.374
21
-68.3979
0
LINE
8
BLACK
6
CONTINUOUS
10
146.374
20
-68.3979
11
146.495
21
-68.5686
0
LINE
8
BLACK
6
CONTINUOUS
10
146.495
20
-68.5686
11
146.582
21
-68.7591
0
LINE
8
BLACK
6
CONTINUOUS
10
146.582
20
-68.7591
11
146.631
21
-68.9625
0
LINE
8
BLACK
6
CONTINUOUS
10
146.631
20
-68.9625
11
146.64
21
-69.1715
0
LINE
8
BLACK
6
CONTINUOUS
10
146.64
20
-69.1715
11
146.61
21
-69.3786
0
LINE
8
BLACK
6
CONTINUOUS
10
146.61
20
-69.3786
11
146.542
21
-69.5763
0
LINE
8
BLACK
6
CONTINUOUS
10
146.542
20
-69.5763
11
146.437
21
-69.7574
0
LINE
8
BLACK
6
CONTINUOUS
10
146.437
20
-69.7574
11
146.3
21
-69.9154
0
LINE
8
BLACK
6
CONTINUOUS
10
146.3
20
-69.9154
11
146.135
21
-70.0447
0
LINE
8
BLACK
6
CONTINUOUS
10
146.135
20
-70.0447
11
145.949
21
-70.1405
0
LINE
8
BLACK
6
CONTINUOUS
10
145.949
20
-70.1405
11
145.748
21
-70.1994
0
LINE
8
BLACK
6
CONTINUOUS
10
145.748
20
-70.1994
11
145.54
21
-70.2193
0
LINE
8
BLACK
6
CONTINUOUS
10
145.54
20
-70.2193
11
139.54
21
-70.2193
0
LINE
8
BLACK
6
CONTINUOUS
10
139.54
20
-70.2193
11
139.432
21
-70.214
0
LINE
8
BLACK
6
CONTINUOUS
10
139.432
20
-70.214
11
139.227
21
-70.1739
0
LINE
8
BLACK
6
CONTINUOUS
10
139.227
20
-70.1739
11
139.033
21
-70.0957
0
LINE
8
BLACK
6
CONTINUOUS
10
139.033
20
-70.0957
11
138.857
21
-69.9822
0
LINE
8
BLACK
6
CONTINUOUS
10
138.857
20
-69.9822
11
138.706
21
-69.8375
0
LINE
8
BLACK
6
CONTINUOUS
10
138.706
20
-69.8375
11
138.585
21
-69.6668
0
LINE
8
BLACK
6
CONTINUOUS
10
138.585
20
-69.6668
11
138.498
21
-69.4763
0
LINE
8
BLACK
6
CONTINUOUS
10
138.498
20
-69.4763
11
138.449
21
-69.2729
0
LINE
8
BLACK
6
CONTINUOUS
10
138.449
20
-69.2729
11
138.44
21
-69.0639
0
LINE
8
BLACK
6
CONTINUOUS
10
138.44
20
-69.0639
11
138.47
21
-68.8568
0
LINE
8
BLACK
6
CONTINUOUS
10
138.47
20
-68.8568
11
138.538
21
-68.6591
0
LINE
8
BLACK
6
CONTINUOUS
10
138.538
20
-68.6591
11
138.643
21
-68.478
0
LINE
8
BLACK
6
CONTINUOUS
10
138.643
20
-68.478
11
138.78
21
-68.32
0
LINE
8
BLACK
6
CONTINUOUS
10
138.78
20
-68.32
11
138.945
21
-68.1907
0
LINE
8
BLACK
6
CONTINUOUS
10
138.945
20
-68.1907
11
139.131
21
-68.0949
0
LINE
8
BLACK
6
CONTINUOUS
10
139.131
20
-68.0949
11
139.332
21
-68.036
0
LINE
8
BLACK
6
CONTINUOUS
10
139.332
20
-68.036
11
139.54
21
-68.0161
0
LINE
8
BLACK
6
CONTINUOUS
10
139.54
20
-68.0161
11
145.54
21
-68.0161
0
LINE
8
BLACK
6
CONTINUOUS
10
145.54
20
-68.0161
11
145.647
21
-68.0214
0
LINE
8
BLACK
6
CONTINUOUS
10
174.545
20
-68.0176
11
174.75
21
-68.0577
0
LINE
8
BLACK
6
CONTINUOUS
10
174.75
20
-68.0577
11
174.945
21
-68.1359
0
LINE
8
BLACK
6
CONTINUOUS
10
174.945
20
-68.1359
11
175.12
21
-68.2494
0
LINE
8
BLACK
6
CONTINUOUS
10
175.12
20
-68.2494
11
175.271
21
-68.3941
0
LINE
8
BLACK
6
CONTINUOUS
10
175.271
20
-68.3941
11
175.393
21
-68.5648
0
LINE
8
BLACK
6
CONTINUOUS
10
175.393
20
-68.5648
11
175.479
21
-68.7553
0
LINE
8
BLACK
6
CONTINUOUS
10
175.479
20
-68.7553
11
175.528
21
-68.9587
0
LINE
8
BLACK
6
CONTINUOUS
10
175.528
20
-68.9587
11
175.538
21
-69.1677
0
LINE
8
BLACK
6
CONTINUOUS
10
175.538
20
-69.1677
11
175.508
21
-69.3748
0
LINE
8
BLACK
6
CONTINUOUS
10
175.508
20
-69.3748
11
175.439
21
-69.5725
0
LINE
8
BLACK
6
CONTINUOUS
10
175.439
20
-69.5725
11
175.334
21
-69.7536
0
LINE
8
BLACK
6
CONTINUOUS
10
175.334
20
-69.7536
11
175.197
21
-69.9117
0
LINE
8
BLACK
6
CONTINUOUS
10
175.197
20
-69.9117
11
175.033
21
-70.0409
0
LINE
8
BLACK
6
CONTINUOUS
10
175.033
20
-70.0409
11
174.847
21
-70.1368
0
LINE
8
BLACK
6
CONTINUOUS
10
174.847
20
-70.1368
11
174.646
21
-70.1957
0
LINE
8
BLACK
6
CONTINUOUS
10
174.646
20
-70.1957
11
174.438
21
-70.2155
0
LINE
8
BLACK
6
CONTINUOUS
10
174.438
20
-70.2155
11
168.438
21
-70.2155
0
LINE
8
BLACK
6
CONTINUOUS
10
168.438
20
-70.2155
11
168.33
21
-70.2103
0
LINE
8
BLACK
6
CONTINUOUS
10
168.33
20
-70.2103
11
168.125
21
-70.1702
0
LINE
8
BLACK
6
CONTINUOUS
10
168.125
20
-70.1702
11
167.931
21
-70.092
0
LINE
8
BLACK
6
CONTINUOUS
10
167.931
20
-70.092
11
167.755
21
-69.9784
0
LINE
8
BLACK
6
CONTINUOUS
10
167.755
20
-69.9784
11
167.604
21
-69.8337
0
LINE
8
BLACK
6
CONTINUOUS
10
167.604
20
-69.8337
11
167.483
21
-69.6631
0
LINE
8
BLACK
6
CONTINUOUS
10
167.483
20
-69.6631
11
167.396
21
-69.4726
0
LINE
8
BLACK
6
CONTINUOUS
10
167.396
20
-69.4726
11
167.347
21
-69.2692
0
LINE
8
BLACK
6
CONTINUOUS
10
167.347
20
-69.2692
11
167.337
21
-69.0601
0
LINE
8
BLACK
6
CONTINUOUS
10
167.337
20
-69.0601
11
167.367
21
-68.853
0
LINE
8
BLACK
6
CONTINUOUS
10
167.367
20
-68.853
11
167.436
21
-68.6554
0
LINE
8
BLACK
6
CONTINUOUS
10
167.436
20
-68.6554
11
167.541
21
-68.4742
0
LINE
8
BLACK
6
CONTINUOUS
10
167.541
20
-68.4742
11
167.678
21
-68.3162
0
LINE
8
BLACK
6
CONTINUOUS
10
167.678
20
-68.3162
11
167.842
21
-68.1869
0
LINE
8
BLACK
6
CONTINUOUS
10
167.842
20
-68.1869
11
168.028
21
-68.0911
0
LINE
8
BLACK
6
CONTINUOUS
10
168.028
20
-68.0911
11
168.229
21
-68.0322
0
LINE
8
BLACK
6
CONTINUOUS
10
168.229
20
-68.0322
11
168.438
21
-68.0123
0
LINE
8
BLACK
6
CONTINUOUS
10
168.438
20
-68.0123
11
174.438
21
-68.0123
0
LINE
8
BLACK
6
CONTINUOUS
10
174.438
20
-68.0123
11
174.545
21
-68.0176
0
LINE
8
BLACK
6
CONTINUOUS
10
149.795
20
-58.5249
11
149.993
21
-58.5936
0
LINE
8
BLACK
6
CONTINUOUS
10
149.993
20
-58.5936
11
150.174
21
-58.6984
0
LINE
8
BLACK
6
CONTINUOUS
10
150.174
20
-58.6984
11
150.332
21
-58.8355
0
LINE
8
BLACK
6
CONTINUOUS
10
150.332
20
-58.8355
11
150.461
21
-59.0001
0
LINE
8
BLACK
6
CONTINUOUS
10
150.461
20
-59.0001
11
150.557
21
-59.1861
0
LINE
8
BLACK
6
CONTINUOUS
10
150.557
20
-59.1861
11
150.616
21
-59.3869
0
LINE
8
BLACK
6
CONTINUOUS
10
150.616
20
-59.3869
11
150.636
21
-59.5952
0
LINE
8
BLACK
6
CONTINUOUS
10
150.636
20
-59.5952
11
150.636
21
-65.5952
0
LINE
8
BLACK
6
CONTINUOUS
10
150.636
20
-65.5952
11
150.63
21
-65.7027
0
LINE
8
BLACK
6
CONTINUOUS
10
150.63
20
-65.7027
11
150.59
21
-65.9081
0
LINE
8
BLACK
6
CONTINUOUS
10
150.59
20
-65.9081
11
150.512
21
-66.1022
0
LINE
8
BLACK
6
CONTINUOUS
10
150.512
20
-66.1022
11
150.399
21
-66.2779
0
LINE
8
BLACK
6
CONTINUOUS
10
150.399
20
-66.2779
11
150.254
21
-66.4291
0
LINE
8
BLACK
6
CONTINUOUS
10
150.254
20
-66.4291
11
150.083
21
-66.5502
0
LINE
8
BLACK
6
CONTINUOUS
10
150.083
20
-66.5502
11
149.893
21
-66.6368
0
LINE
8
BLACK
6
CONTINUOUS
10
149.893
20
-66.6368
11
149.689
21
-66.6858
0
LINE
8
BLACK
6
CONTINUOUS
10
149.689
20
-66.6858
11
149.48
21
-66.6955
0
LINE
8
BLACK
6
CONTINUOUS
10
149.48
20
-66.6955
11
149.273
21
-66.6655
0
LINE
8
BLACK
6
CONTINUOUS
10
149.273
20
-66.6655
11
149.075
21
-66.5968
0
LINE
8
BLACK
6
CONTINUOUS
10
149.075
20
-66.5968
11
148.894
21
-66.492
0
LINE
8
BLACK
6
CONTINUOUS
10
148.894
20
-66.492
11
148.736
21
-66.3549
0
LINE
8
BLACK
6
CONTINUOUS
10
148.736
20
-66.3549
11
148.607
21
-66.1903
0
LINE
8
BLACK
6
CONTINUOUS
10
148.607
20
-66.1903
11
148.511
21
-66.0043
0
LINE
8
BLACK
6
CONTINUOUS
10
148.511
20
-66.0043
11
148.452
21
-65.8035
0
LINE
8
BLACK
6
CONTINUOUS
10
148.452
20
-65.8035
11
148.432
21
-65.5952
0
LINE
8
BLACK
6
CONTINUOUS
10
148.432
20
-65.5952
11
148.432
21
-59.5952
0
LINE
8
BLACK
6
CONTINUOUS
10
148.432
20
-59.5952
11
148.438
21
-59.4877
0
LINE
8
BLACK
6
CONTINUOUS
10
148.438
20
-59.4877
11
148.478
21
-59.2823
0
LINE
8
BLACK
6
CONTINUOUS
10
148.478
20
-59.2823
11
148.556
21
-59.0882
0
LINE
8
BLACK
6
CONTINUOUS
10
148.556
20
-59.0882
11
148.669
21
-58.9125
0
LINE
8
BLACK
6
CONTINUOUS
10
148.669
20
-58.9125
11
148.814
21
-58.7613
0
LINE
8
BLACK
6
CONTINUOUS
10
148.814
20
-58.7613
11
148.985
21
-58.6402
0
LINE
8
BLACK
6
CONTINUOUS
10
148.985
20
-58.6402
11
149.175
21
-58.5536
0
LINE
8
BLACK
6
CONTINUOUS
10
149.175
20
-58.5536
11
149.379
21
-58.5046
0
LINE
8
BLACK
6
CONTINUOUS
10
149.379
20
-58.5046
11
149.588
21
-58.4949
0
LINE
8
BLACK
6
CONTINUOUS
10
149.588
20
-58.4949
11
149.795
21
-58.5249
0
LINE
8
BLACK
6
CONTINUOUS
10
165.176
20
-58.0496
11
165.374
21
-58.1183
0
LINE
8
BLACK
6
CONTINUOUS
10
165.374
20
-58.1183
11
165.555
21
-58.223
0
LINE
8
BLACK
6
CONTINUOUS
10
165.555
20
-58.223
11
165.713
21
-58.3602
0
LINE
8
BLACK
6
CONTINUOUS
10
165.713
20
-58.3602
11
165.842
21
-58.5247
0
LINE
8
BLACK
6
CONTINUOUS
10
165.842
20
-58.5247
11
165.938
21
-58.7108
0
LINE
8
BLACK
6
CONTINUOUS
10
165.938
20
-58.7108
11
165.997
21
-58.9116
0
LINE
8
BLACK
6
CONTINUOUS
10
165.997
20
-58.9116
11
166.017
21
-59.1199
0
LINE
8
BLACK
6
CONTINUOUS
10
166.017
20
-59.1199
11
166.017
21
-65.1199
0
LINE
8
BLACK
6
CONTINUOUS
10
166.017
20
-65.1199
11
166.011
21
-65.2274
0
LINE
8
BLACK
6
CONTINUOUS
10
166.011
20
-65.2274
11
165.971
21
-65.4327
0
LINE
8
BLACK
6
CONTINUOUS
10
165.971
20
-65.4327
11
165.893
21
-65.6268
0
LINE
8
BLACK
6
CONTINUOUS
10
165.893
20
-65.6268
11
165.78
21
-65.8026
0
LINE
8
BLACK
6
CONTINUOUS
10
165.78
20
-65.8026
11
165.635
21
-65.9538
0
LINE
8
BLACK
6
CONTINUOUS
10
165.635
20
-65.9538
11
165.464
21
-66.0748
0
LINE
8
BLACK
6
CONTINUOUS
10
165.464
20
-66.0748
11
165.274
21
-66.1615
0
LINE
8
BLACK
6
CONTINUOUS
10
165.274
20
-66.1615
11
165.07
21
-66.2105
0
LINE
8
BLACK
6
CONTINUOUS
10
165.07
20
-66.2105
11
164.861
21
-66.2202
0
LINE
8
BLACK
6
CONTINUOUS
10
164.861
20
-66.2202
11
164.654
21
-66.1901
0
LINE
8
BLACK
6
CONTINUOUS
10
164.654
20
-66.1901
11
164.456
21
-66.1215
0
LINE
8
BLACK
6
CONTINUOUS
10
164.456
20
-66.1215
11
164.275
21
-66.0167
0
LINE
8
BLACK
6
CONTINUOUS
10
164.275
20
-66.0167
11
164.117
21
-65.8796
0
LINE
8
BLACK
6
CONTINUOUS
10
164.117
20
-65.8796
11
163.988
21
-65.715
0
LINE
8
BLACK
6
CONTINUOUS
10
163.988
20
-65.715
11
163.892
21
-65.529
0
LINE
8
BLACK
6
CONTINUOUS
10
163.892
20
-65.529
11
163.833
21
-65.3282
0
LINE
8
BLACK
6
CONTINUOUS
10
163.833
20
-65.3282
11
163.813
21
-65.1199
0
LINE
8
BLACK
6
CONTINUOUS
10
163.813
20
-65.1199
11
163.813
21
-59.1199
0
LINE
8
BLACK
6
CONTINUOUS
10
163.813
20
-59.1199
11
163.819
21
-59.0124
0
LINE
8
BLACK
6
CONTINUOUS
10
163.819
20
-59.0124
11
163.859
21
-58.807
0
LINE
8
BLACK
6
CONTINUOUS
10
163.859
20
-58.807
11
163.937
21
-58.6129
0
LINE
8
BLACK
6
CONTINUOUS
10
163.937
20
-58.6129
11
164.051
21
-58.4371
0
LINE
8
BLACK
6
CONTINUOUS
10
164.051
20
-58.4371
11
164.195
21
-58.286
0
LINE
8
BLACK
6
CONTINUOUS
10
164.195
20
-58.286
11
164.366
21
-58.1649
0
LINE
8
BLACK
6
CONTINUOUS
10
164.366
20
-58.1649
11
164.556
21
-58.0783
0
LINE
8
BLACK
6
CONTINUOUS
10
164.556
20
-58.0783
11
164.76
21
-58.0293
0
LINE
8
BLACK
6
CONTINUOUS
10
164.76
20
-58.0293
11
164.969
21
-58.0196
0
LINE
8
BLACK
6
CONTINUOUS
10
164.969
20
-58.0196
11
165.176
21
-58.0496
0
LINE
8
BLACK
6
CONTINUOUS
10
174.766
20
-55.6755
11
174.966
21
-55.7393
0
LINE
8
BLACK
6
CONTINUOUS
10
174.966
20
-55.7393
11
175.149
21
-55.8396
0
LINE
8
BLACK
6
CONTINUOUS
10
175.149
20
-55.8396
11
175.311
21
-55.9728
0
LINE
8
BLACK
6
CONTINUOUS
10
175.311
20
-55.9728
11
178.139
21
-58.8013
0
LINE
8
BLACK
6
CONTINUOUS
10
178.139
20
-58.8013
11
178.211
21
-58.881
0
LINE
8
BLACK
6
CONTINUOUS
10
178.211
20
-58.881
11
178.328
21
-59.0546
0
LINE
8
BLACK
6
CONTINUOUS
10
178.328
20
-59.0546
11
178.41
21
-59.2471
0
LINE
8
BLACK
6
CONTINUOUS
10
178.41
20
-59.2471
11
178.454
21
-59.4517
0
LINE
8
BLACK
6
CONTINUOUS
10
178.454
20
-59.4517
11
178.459
21
-59.6609
0
LINE
8
BLACK
6
CONTINUOUS
10
178.459
20
-59.6609
11
178.424
21
-59.8672
0
LINE
8
BLACK
6
CONTINUOUS
10
178.424
20
-59.8672
11
178.35
21
-60.0631
0
LINE
8
BLACK
6
CONTINUOUS
10
178.35
20
-60.0631
11
178.241
21
-60.2416
0
LINE
8
BLACK
6
CONTINUOUS
10
178.241
20
-60.2416
11
178.1
21
-60.3963
0
LINE
8
BLACK
6
CONTINUOUS
10
178.1
20
-60.3963
11
177.932
21
-60.5215
0
LINE
8
BLACK
6
CONTINUOUS
10
177.932
20
-60.5215
11
177.744
21
-60.6127
0
LINE
8
BLACK
6
CONTINUOUS
10
177.744
20
-60.6127
11
177.542
21
-60.6667
0
LINE
8
BLACK
6
CONTINUOUS
10
177.542
20
-60.6667
11
177.333
21
-60.6815
0
LINE
8
BLACK
6
CONTINUOUS
10
177.333
20
-60.6815
11
177.125
21
-60.6565
0
LINE
8
BLACK
6
CONTINUOUS
10
177.125
20
-60.6565
11
176.926
21
-60.5927
0
LINE
8
BLACK
6
CONTINUOUS
10
176.926
20
-60.5927
11
176.742
21
-60.4924
0
LINE
8
BLACK
6
CONTINUOUS
10
176.742
20
-60.4924
11
176.581
21
-60.3592
0
LINE
8
BLACK
6
CONTINUOUS
10
176.581
20
-60.3592
11
173.753
21
-57.5307
0
LINE
8
BLACK
6
CONTINUOUS
10
173.753
20
-57.5307
11
173.68
21
-57.451
0
LINE
8
BLACK
6
CONTINUOUS
10
173.68
20
-57.451
11
173.563
21
-57.2774
0
LINE
8
BLACK
6
CONTINUOUS
10
173.563
20
-57.2774
11
173.482
21
-57.0849
0
LINE
8
BLACK
6
CONTINUOUS
10
173.482
20
-57.0849
11
173.438
21
-56.8803
0
LINE
8
BLACK
6
CONTINUOUS
10
173.438
20
-56.8803
11
173.433
21
-56.6711
0
LINE
8
BLACK
6
CONTINUOUS
10
173.433
20
-56.6711
11
173.468
21
-56.4648
0
LINE
8
BLACK
6
CONTINUOUS
10
173.468
20
-56.4648
11
173.541
21
-56.2689
0
LINE
8
BLACK
6
CONTINUOUS
10
173.541
20
-56.2689
11
173.651
21
-56.0904
0
LINE
8
BLACK
6
CONTINUOUS
10
173.651
20
-56.0904
11
173.792
21
-55.9357
0
LINE
8
BLACK
6
CONTINUOUS
10
173.792
20
-55.9357
11
173.959
21
-55.8105
0
LINE
8
BLACK
6
CONTINUOUS
10
173.959
20
-55.8105
11
174.148
21
-55.7193
0
LINE
8
BLACK
6
CONTINUOUS
10
174.148
20
-55.7193
11
174.35
21
-55.6653
0
LINE
8
BLACK
6
CONTINUOUS
10
174.35
20
-55.6653
11
174.559
21
-55.6505
0
LINE
8
BLACK
6
CONTINUOUS
10
174.559
20
-55.6505
11
174.766
21
-55.6755
0
LINE
8
BLACK
6
CONTINUOUS
10
140.287
20
-55.6092
11
140.483
21
-55.6826
0
LINE
8
BLACK
6
CONTINUOUS
10
140.483
20
-55.6826
11
140.662
21
-55.7918
0
LINE
8
BLACK
6
CONTINUOUS
10
140.662
20
-55.7918
11
140.816
21
-55.9328
0
LINE
8
BLACK
6
CONTINUOUS
10
140.816
20
-55.9328
11
140.942
21
-56.1004
0
LINE
8
BLACK
6
CONTINUOUS
10
140.942
20
-56.1004
11
141.033
21
-56.2888
0
LINE
8
BLACK
6
CONTINUOUS
10
141.033
20
-56.2888
11
141.087
21
-56.4909
0
LINE
8
BLACK
6
CONTINUOUS
10
141.087
20
-56.4909
11
141.102
21
-56.6997
0
LINE
8
BLACK
6
CONTINUOUS
10
141.102
20
-56.6997
11
141.077
21
-56.9074
0
LINE
8
BLACK
6
CONTINUOUS
10
141.077
20
-56.9074
11
141.013
21
-57.1067
0
LINE
8
BLACK
6
CONTINUOUS
10
141.013
20
-57.1067
11
140.912
21
-57.2903
0
LINE
8
BLACK
6
CONTINUOUS
10
140.912
20
-57.2903
11
140.779
21
-57.4517
0
LINE
8
BLACK
6
CONTINUOUS
10
140.779
20
-57.4517
11
137.951
21
-60.2801
0
LINE
8
BLACK
6
CONTINUOUS
10
137.951
20
-60.2801
11
137.871
21
-60.3524
0
LINE
8
BLACK
6
CONTINUOUS
10
137.871
20
-60.3524
11
137.697
21
-60.4693
0
LINE
8
BLACK
6
CONTINUOUS
10
137.697
20
-60.4693
11
137.505
21
-60.5512
0
LINE
8
BLACK
6
CONTINUOUS
10
137.505
20
-60.5512
11
137.3
21
-60.5953
0
LINE
8
BLACK
6
CONTINUOUS
10
137.3
20
-60.5953
11
137.091
21
-60.5998
0
LINE
8
BLACK
6
CONTINUOUS
10
137.091
20
-60.5998
11
136.885
21
-60.5647
0
LINE
8
BLACK
6
CONTINUOUS
10
136.885
20
-60.5647
11
136.689
21
-60.4913
0
LINE
8
BLACK
6
CONTINUOUS
10
136.689
20
-60.4913
11
136.51
21
-60.3821
0
LINE
8
BLACK
6
CONTINUOUS
10
136.51
20
-60.3821
11
136.356
21
-60.2411
0
LINE
8
BLACK
6
CONTINUOUS
10
136.356
20
-60.2411
11
136.231
21
-60.0735
0
LINE
8
BLACK
6
CONTINUOUS
10
136.231
20
-60.0735
11
136.139
21
-59.8852
0
LINE
8
BLACK
6
CONTINUOUS
10
136.139
20
-59.8852
11
136.085
21
-59.683
0
LINE
8
BLACK
6
CONTINUOUS
10
136.085
20
-59.683
11
136.071
21
-59.4743
0
LINE
8
BLACK
6
CONTINUOUS
10
136.071
20
-59.4743
11
136.096
21
-59.2665
0
LINE
8
BLACK
6
CONTINUOUS
10
136.096
20
-59.2665
11
136.159
21
-59.0672
0
LINE
8
BLACK
6
CONTINUOUS
10
136.159
20
-59.0672
11
136.26
21
-58.8836
0
LINE
8
BLACK
6
CONTINUOUS
10
136.26
20
-58.8836
11
136.393
21
-58.7222
0
LINE
8
BLACK
6
CONTINUOUS
10
136.393
20
-58.7222
11
139.221
21
-55.8938
0
LINE
8
BLACK
6
CONTINUOUS
10
139.221
20
-55.8938
11
139.301
21
-55.8215
0
LINE
8
BLACK
6
CONTINUOUS
10
139.301
20
-55.8215
11
139.475
21
-55.7046
0
LINE
8
BLACK
6
CONTINUOUS
10
139.475
20
-55.7046
11
139.667
21
-55.6227
0
LINE
8
BLACK
6
CONTINUOUS
10
139.667
20
-55.6227
11
139.872
21
-55.5787
0
LINE
8
BLACK
6
CONTINUOUS
10
139.872
20
-55.5787
11
140.081
21
-55.5741
0
LINE
8
BLACK
6
CONTINUOUS
10
140.081
20
-55.5741
11
140.287
21
-55.6092
  0
ENDSEC
  0
EOF
