  0
SECTION
  2
HEADER
  9
$ANGBASE
  50
0.0
  9
$ANGDIR
  70
1
  9
$MEASUREMENT
  70
1
  0
ENDSEC
  0
SECTION
  2
TABLES
  0
TABLE
  2
LTYPE
  70
4
  0
LTYPE
  5
40F
  2
CONTINUOUS
  70
0
  3
Solid line
  72
65
  73
0
  40
0.0
  0
LTYPE
  5
410
  2
DASHDOT
 70
0
  3
Dash Dot ____ _ ____ _
 72
65
 73
4
 40
2.0
 49
1.25
 49
-0.25
 49
0.25
 49
-0.25
  0
LTYPE
  5
411
  2
DASHED
 70
0
  3
Dashed __ __ __ __ __
 72
65
 73
2
 40
0.75
 49
0.5
 49
-0.25
  0
LTYPE
  5
43B
  2
DOTTED
 70
0
  3
Dotted .  .  .  .
 72
65
 73
2
 40
0.2
 49
0.0
 49
-0.2
  0
ENDTAB
  0
TABLE
  2
STYLE
  70
4
  0
STYLE
  2
KICAD
  70
0
  40
0
  41
1
  42
1
  50
0
  71
0
  3
isocp.shx
  0
STYLE
  2
KICADB
  70
0
  40
0
  41
1
  42
1
  50
0
  71
0
  3
isocp.shx
  0
STYLE
  2
KICADI
  70
0
  40
0
  41
1
  42
1
  50
15
  71
0
  3
isocp.shx
  0
STYLE
  2
KICADBI
  70
0
  40
0
  41
1
  42
1
  50
15
  71
0
  3
isocp.shx
  0
ENDTAB
  0
TABLE
  2
LAYER
  70
1
  0
LAYER
  2
BLACK
  70
0
  62
7
  6
CONTINUOUS
  0
ENDTAB
  0
ENDSEC
  0
SECTION
  2
ENTITIES
0
LINE
8
BLACK
6
CONTINUOUS
10
141.787
20
-154.502
11
141.486
21
-154.457
0
LINE
8
BLACK
6
CONTINUOUS
10
141.486
20
-154.457
11
141.191
21
-154.383
0
LINE
8
BLACK
6
CONTINUOUS
10
141.191
20
-154.383
11
140.904
21
-154.281
0
LINE
8
BLACK
6
CONTINUOUS
10
140.904
20
-154.281
11
140.629
21
-154.151
0
LINE
8
BLACK
6
CONTINUOUS
10
140.629
20
-154.151
11
140.368
21
-153.994
0
LINE
8
BLACK
6
CONTINUOUS
10
140.368
20
-153.994
11
140.124
21
-153.813
0
LINE
8
BLACK
6
CONTINUOUS
10
140.124
20
-153.813
11
139.899
21
-153.609
0
LINE
8
BLACK
6
CONTINUOUS
10
139.899
20
-153.609
11
139.899
21
-153.609
0
LINE
8
BLACK
6
CONTINUOUS
10
139.899
20
-153.609
11
132.649
21
-146.36
0
LINE
8
BLACK
6
CONTINUOUS
10
132.649
20
-146.36
11
132.649
21
-146.36
0
LINE
8
BLACK
6
CONTINUOUS
10
132.649
20
-146.36
11
132.429
21
-146.114
0
LINE
8
BLACK
6
CONTINUOUS
10
132.429
20
-146.114
11
132.236
21
-145.847
0
LINE
8
BLACK
6
CONTINUOUS
10
132.236
20
-145.847
11
132.072
21
-145.561
0
LINE
8
BLACK
6
CONTINUOUS
10
132.072
20
-145.561
11
131.94
21
-145.259
0
LINE
8
BLACK
6
CONTINUOUS
10
131.94
20
-145.259
11
131.84
21
-144.944
0
LINE
8
BLACK
6
CONTINUOUS
10
131.84
20
-144.944
11
131.775
21
-144.621
0
LINE
8
BLACK
6
CONTINUOUS
10
131.775
20
-144.621
11
131.744
21
-144.293
0
LINE
8
BLACK
6
CONTINUOUS
10
131.744
20
-144.293
11
131.748
21
-143.97
0
LINE
8
BLACK
6
CONTINUOUS
10
131.748
20
-143.97
11
131.748
21
-143.97
0
LINE
8
BLACK
6
CONTINUOUS
10
131.748
20
-143.97
11
131.748
21
-62.7751
0
LINE
8
BLACK
6
CONTINUOUS
10
131.748
20
-62.7751
11
131.763
21
-62.4712
0
LINE
8
BLACK
6
CONTINUOUS
10
131.763
20
-62.4712
11
131.808
21
-62.1703
0
LINE
8
BLACK
6
CONTINUOUS
10
131.808
20
-62.1703
11
131.881
21
-61.8752
0
LINE
8
BLACK
6
CONTINUOUS
10
131.881
20
-61.8752
11
131.984
21
-61.5888
0
LINE
8
BLACK
6
CONTINUOUS
10
131.984
20
-61.5888
11
132.114
21
-61.3137
0
LINE
8
BLACK
6
CONTINUOUS
10
132.114
20
-61.3137
11
132.27
21
-61.0528
0
LINE
8
BLACK
6
CONTINUOUS
10
132.27
20
-61.0528
11
132.452
21
-60.8085
0
LINE
8
BLACK
6
CONTINUOUS
10
132.452
20
-60.8085
11
132.656
21
-60.5831
0
LINE
8
BLACK
6
CONTINUOUS
10
132.656
20
-60.5831
11
132.656
21
-60.583
0
LINE
8
BLACK
6
CONTINUOUS
10
132.656
20
-60.583
11
139.713
21
-53.5257
0
LINE
8
BLACK
6
CONTINUOUS
10
139.713
20
-53.5257
11
139.713
21
-53.5257
0
LINE
8
BLACK
6
CONTINUOUS
10
139.713
20
-53.5257
11
139.939
21
-53.3214
0
LINE
8
BLACK
6
CONTINUOUS
10
139.939
20
-53.3214
11
140.183
21
-53.1402
0
LINE
8
BLACK
6
CONTINUOUS
10
140.183
20
-53.1402
11
140.444
21
-52.9838
0
LINE
8
BLACK
6
CONTINUOUS
10
140.444
20
-52.9838
11
140.719
21
-52.8537
0
LINE
8
BLACK
6
CONTINUOUS
10
140.719
20
-52.8537
11
141.005
21
-52.7512
0
LINE
8
BLACK
6
CONTINUOUS
10
141.005
20
-52.7512
11
141.301
21
-52.6773
0
LINE
8
BLACK
6
CONTINUOUS
10
141.301
20
-52.6773
11
141.602
21
-52.6327
0
LINE
8
BLACK
6
CONTINUOUS
10
141.602
20
-52.6327
11
141.905
21
-52.6178
0
LINE
8
BLACK
6
CONTINUOUS
10
141.905
20
-52.6178
11
141.905
21
-52.6177
0
LINE
8
BLACK
6
CONTINUOUS
10
141.905
20
-52.6177
11
172.905
21
-52.6177
0
LINE
8
BLACK
6
CONTINUOUS
10
172.905
20
-52.6177
11
173.209
21
-52.6326
0
LINE
8
BLACK
6
CONTINUOUS
10
173.209
20
-52.6326
11
173.51
21
-52.6773
0
LINE
8
BLACK
6
CONTINUOUS
10
173.51
20
-52.6773
11
173.805
21
-52.7512
0
LINE
8
BLACK
6
CONTINUOUS
10
173.805
20
-52.7512
11
174.092
21
-52.8537
0
LINE
8
BLACK
6
CONTINUOUS
10
174.092
20
-52.8537
11
174.367
21
-52.9838
0
LINE
8
BLACK
6
CONTINUOUS
10
174.367
20
-52.9838
11
174.628
21
-53.1402
0
LINE
8
BLACK
6
CONTINUOUS
10
174.628
20
-53.1402
11
174.872
21
-53.3214
0
LINE
8
BLACK
6
CONTINUOUS
10
174.872
20
-53.3214
11
175.097
21
-53.5257
0
LINE
8
BLACK
6
CONTINUOUS
10
175.097
20
-53.5257
11
175.097
21
-53.5257
0
LINE
8
BLACK
6
CONTINUOUS
10
175.097
20
-53.5257
11
175.097
21
-53.5257
0
LINE
8
BLACK
6
CONTINUOUS
10
175.097
20
-53.5257
11
182.04
21
-60.4683
0
LINE
8
BLACK
6
CONTINUOUS
10
182.04
20
-60.4683
11
182.04
21
-60.4683
0
LINE
8
BLACK
6
CONTINUOUS
10
182.04
20
-60.4683
11
182.244
21
-60.6937
0
LINE
8
BLACK
6
CONTINUOUS
10
182.244
20
-60.6937
11
182.426
21
-60.9381
0
LINE
8
BLACK
6
CONTINUOUS
10
182.426
20
-60.9381
11
182.582
21
-61.199
0
LINE
8
BLACK
6
CONTINUOUS
10
182.582
20
-61.199
11
182.712
21
-61.474
0
LINE
8
BLACK
6
CONTINUOUS
10
182.712
20
-61.474
11
182.815
21
-61.7605
0
LINE
8
BLACK
6
CONTINUOUS
10
182.815
20
-61.7605
11
182.888
21
-62.0556
0
LINE
8
BLACK
6
CONTINUOUS
10
182.888
20
-62.0556
11
182.933
21
-62.3565
0
LINE
8
BLACK
6
CONTINUOUS
10
182.933
20
-62.3565
11
182.948
21
-62.6603
0
LINE
8
BLACK
6
CONTINUOUS
10
182.948
20
-62.6603
11
182.948
21
-62.6604
0
LINE
8
BLACK
6
CONTINUOUS
10
182.948
20
-62.6604
11
182.948
21
-144.174
0
LINE
8
BLACK
6
CONTINUOUS
10
182.948
20
-144.174
11
182.933
21
-144.478
0
LINE
8
BLACK
6
CONTINUOUS
10
182.933
20
-144.478
11
182.888
21
-144.779
0
LINE
8
BLACK
6
CONTINUOUS
10
182.888
20
-144.779
11
182.815
21
-145.074
0
LINE
8
BLACK
6
CONTINUOUS
10
182.815
20
-145.074
11
182.712
21
-145.36
0
LINE
8
BLACK
6
CONTINUOUS
10
182.712
20
-145.36
11
182.582
21
-145.635
0
LINE
8
BLACK
6
CONTINUOUS
10
182.582
20
-145.635
11
182.426
21
-145.896
0
LINE
8
BLACK
6
CONTINUOUS
10
182.426
20
-145.896
11
182.244
21
-146.141
0
LINE
8
BLACK
6
CONTINUOUS
10
182.244
20
-146.141
11
182.04
21
-146.366
0
LINE
8
BLACK
6
CONTINUOUS
10
182.04
20
-146.366
11
182.04
21
-146.366
0
LINE
8
BLACK
6
CONTINUOUS
10
182.04
20
-146.366
11
174.797
21
-153.609
0
LINE
8
BLACK
6
CONTINUOUS
10
174.797
20
-153.609
11
174.797
21
-153.609
0
LINE
8
BLACK
6
CONTINUOUS
10
174.797
20
-153.609
11
174.572
21
-153.813
0
LINE
8
BLACK
6
CONTINUOUS
10
174.572
20
-153.813
11
174.328
21
-153.994
0
LINE
8
BLACK
6
CONTINUOUS
10
174.328
20
-153.994
11
174.067
21
-154.151
0
LINE
8
BLACK
6
CONTINUOUS
10
174.067
20
-154.151
11
173.792
21
-154.281
0
LINE
8
BLACK
6
CONTINUOUS
10
173.792
20
-154.281
11
173.505
21
-154.383
0
LINE
8
BLACK
6
CONTINUOUS
10
173.505
20
-154.383
11
173.21
21
-154.457
0
LINE
8
BLACK
6
CONTINUOUS
10
173.21
20
-154.457
11
172.909
21
-154.502
0
LINE
8
BLACK
6
CONTINUOUS
10
172.909
20
-154.502
11
172.605
21
-154.517
0
LINE
8
BLACK
6
CONTINUOUS
10
172.605
20
-154.517
11
172.605
21
-154.517
0
LINE
8
BLACK
6
CONTINUOUS
10
172.605
20
-154.517
11
142.091
21
-154.517
0
LINE
8
BLACK
6
CONTINUOUS
10
142.091
20
-154.517
11
141.787
21
-154.502
0
LINE
8
BLACK
6
CONTINUOUS
10
141.896
20
-52.8147
11
141.621
21
-52.8282
0
LINE
8
BLACK
6
CONTINUOUS
10
141.621
20
-52.8282
11
141.339
21
-52.87
0
LINE
8
BLACK
6
CONTINUOUS
10
141.339
20
-52.87
11
141.063
21
-52.9393
0
LINE
8
BLACK
6
CONTINUOUS
10
141.063
20
-52.9393
11
140.794
21
-53.0352
0
LINE
8
BLACK
6
CONTINUOUS
10
140.794
20
-53.0352
11
140.537
21
-53.1571
0
LINE
8
BLACK
6
CONTINUOUS
10
140.537
20
-53.1571
11
140.292
21
-53.3035
0
LINE
8
BLACK
6
CONTINUOUS
10
140.292
20
-53.3035
11
140.063
21
-53.4733
0
LINE
8
BLACK
6
CONTINUOUS
10
140.063
20
-53.4733
11
139.859
21
-53.6583
0
LINE
8
BLACK
6
CONTINUOUS
10
139.859
20
-53.6583
11
139.855
21
-53.6671
0
LINE
8
BLACK
6
CONTINUOUS
10
139.855
20
-53.6671
11
132.797
21
-60.7245
0
LINE
8
BLACK
6
CONTINUOUS
10
132.797
20
-60.7245
11
132.789
21
-60.7289
0
LINE
8
BLACK
6
CONTINUOUS
10
132.789
20
-60.7289
11
132.604
21
-60.9331
0
LINE
8
BLACK
6
CONTINUOUS
10
132.604
20
-60.9331
11
132.434
21
-61.162
0
LINE
8
BLACK
6
CONTINUOUS
10
132.434
20
-61.162
11
132.287
21
-61.4064
0
LINE
8
BLACK
6
CONTINUOUS
10
132.287
20
-61.4064
11
132.166
21
-61.664
0
LINE
8
BLACK
6
CONTINUOUS
10
132.166
20
-61.664
11
132.07
21
-61.9322
0
LINE
8
BLACK
6
CONTINUOUS
10
132.07
20
-61.9322
11
132
21
-62.2086
0
LINE
8
BLACK
6
CONTINUOUS
10
132
20
-62.2086
11
131.958
21
-62.4905
0
LINE
8
BLACK
6
CONTINUOUS
10
131.958
20
-62.4905
11
131.945
21
-62.7657
0
LINE
8
BLACK
6
CONTINUOUS
10
131.945
20
-62.7657
11
131.948
21
-62.7751
0
LINE
8
BLACK
6
CONTINUOUS
10
131.948
20
-62.7751
11
131.948
21
-143.97
0
LINE
8
BLACK
6
CONTINUOUS
10
131.948
20
-143.97
11
131.947
21
-143.973
0
LINE
8
BLACK
6
CONTINUOUS
10
131.947
20
-143.973
11
131.948
21
-143.976
0
LINE
8
BLACK
6
CONTINUOUS
10
131.948
20
-143.976
11
131.944
21
-143.987
0
LINE
8
BLACK
6
CONTINUOUS
10
131.944
20
-143.987
11
131.94
21
-144.285
0
LINE
8
BLACK
6
CONTINUOUS
10
131.94
20
-144.285
11
131.969
21
-144.592
0
LINE
8
BLACK
6
CONTINUOUS
10
131.969
20
-144.592
11
132.03
21
-144.895
0
LINE
8
BLACK
6
CONTINUOUS
10
132.03
20
-144.895
11
132.123
21
-145.19
0
LINE
8
BLACK
6
CONTINUOUS
10
132.123
20
-145.19
11
132.247
21
-145.473
0
LINE
8
BLACK
6
CONTINUOUS
10
132.247
20
-145.473
11
132.4
21
-145.741
0
LINE
8
BLACK
6
CONTINUOUS
10
132.4
20
-145.741
11
132.581
21
-145.991
0
LINE
8
BLACK
6
CONTINUOUS
10
132.581
20
-145.991
11
132.781
21
-146.213
0
LINE
8
BLACK
6
CONTINUOUS
10
132.781
20
-146.213
11
132.791
21
-146.218
0
LINE
8
BLACK
6
CONTINUOUS
10
132.791
20
-146.218
11
140.04
21
-153.467
0
LINE
8
BLACK
6
CONTINUOUS
10
140.04
20
-153.467
11
140.045
21
-153.476
0
LINE
8
BLACK
6
CONTINUOUS
10
140.045
20
-153.476
11
140.249
21
-153.661
0
LINE
8
BLACK
6
CONTINUOUS
10
140.249
20
-153.661
11
140.478
21
-153.831
0
LINE
8
BLACK
6
CONTINUOUS
10
140.478
20
-153.831
11
140.722
21
-153.977
0
LINE
8
BLACK
6
CONTINUOUS
10
140.722
20
-153.977
11
140.98
21
-154.099
0
LINE
8
BLACK
6
CONTINUOUS
10
140.98
20
-154.099
11
141.248
21
-154.195
0
LINE
8
BLACK
6
CONTINUOUS
10
141.248
20
-154.195
11
141.524
21
-154.264
0
LINE
8
BLACK
6
CONTINUOUS
10
141.524
20
-154.264
11
141.806
21
-154.306
0
LINE
8
BLACK
6
CONTINUOUS
10
141.806
20
-154.306
11
142.081
21
-154.32
0
LINE
8
BLACK
6
CONTINUOUS
10
142.081
20
-154.32
11
142.091
21
-154.317
0
LINE
8
BLACK
6
CONTINUOUS
10
142.091
20
-154.317
11
172.605
21
-154.317
0
LINE
8
BLACK
6
CONTINUOUS
10
172.605
20
-154.317
11
172.615
21
-154.32
0
LINE
8
BLACK
6
CONTINUOUS
10
172.615
20
-154.32
11
172.89
21
-154.306
0
LINE
8
BLACK
6
CONTINUOUS
10
172.89
20
-154.306
11
173.172
21
-154.264
0
LINE
8
BLACK
6
CONTINUOUS
10
173.172
20
-154.264
11
173.448
21
-154.195
0
LINE
8
BLACK
6
CONTINUOUS
10
173.448
20
-154.195
11
173.716
21
-154.099
0
LINE
8
BLACK
6
CONTINUOUS
10
173.716
20
-154.099
11
173.974
21
-153.977
0
LINE
8
BLACK
6
CONTINUOUS
10
173.974
20
-153.977
11
174.218
21
-153.831
0
LINE
8
BLACK
6
CONTINUOUS
10
174.218
20
-153.831
11
174.447
21
-153.661
0
LINE
8
BLACK
6
CONTINUOUS
10
174.447
20
-153.661
11
174.652
21
-153.476
0
LINE
8
BLACK
6
CONTINUOUS
10
174.652
20
-153.476
11
174.656
21
-153.467
0
LINE
8
BLACK
6
CONTINUOUS
10
174.656
20
-153.467
11
181.899
21
-146.225
0
LINE
8
BLACK
6
CONTINUOUS
10
181.899
20
-146.225
11
181.907
21
-146.22
0
LINE
8
BLACK
6
CONTINUOUS
10
181.907
20
-146.22
11
182.092
21
-146.016
0
LINE
8
BLACK
6
CONTINUOUS
10
182.092
20
-146.016
11
182.262
21
-145.787
0
LINE
8
BLACK
6
CONTINUOUS
10
182.262
20
-145.787
11
182.409
21
-145.543
0
LINE
8
BLACK
6
CONTINUOUS
10
182.409
20
-145.543
11
182.53
21
-145.285
0
LINE
8
BLACK
6
CONTINUOUS
10
182.53
20
-145.285
11
182.626
21
-145.017
0
LINE
8
BLACK
6
CONTINUOUS
10
182.626
20
-145.017
11
182.696
21
-144.74
0
LINE
8
BLACK
6
CONTINUOUS
10
182.696
20
-144.74
11
182.738
21
-144.459
0
LINE
8
BLACK
6
CONTINUOUS
10
182.738
20
-144.459
11
182.751
21
-144.183
0
LINE
8
BLACK
6
CONTINUOUS
10
182.751
20
-144.183
11
182.748
21
-144.174
0
LINE
8
BLACK
6
CONTINUOUS
10
182.748
20
-144.174
11
182.748
21
-62.6603
0
LINE
8
BLACK
6
CONTINUOUS
10
182.748
20
-62.6603
11
182.751
21
-62.651
0
LINE
8
BLACK
6
CONTINUOUS
10
182.751
20
-62.651
11
182.738
21
-62.3758
0
LINE
8
BLACK
6
CONTINUOUS
10
182.738
20
-62.3758
11
182.696
21
-62.0939
0
LINE
8
BLACK
6
CONTINUOUS
10
182.696
20
-62.0939
11
182.626
21
-61.8175
0
LINE
8
BLACK
6
CONTINUOUS
10
182.626
20
-61.8175
11
182.53
21
-61.5492
0
LINE
8
BLACK
6
CONTINUOUS
10
182.53
20
-61.5492
11
182.409
21
-61.2916
0
LINE
8
BLACK
6
CONTINUOUS
10
182.409
20
-61.2916
11
182.262
21
-61.0473
0
LINE
8
BLACK
6
CONTINUOUS
10
182.262
20
-61.0473
11
182.092
21
-60.8184
0
LINE
8
BLACK
6
CONTINUOUS
10
182.092
20
-60.8184
11
181.907
21
-60.6142
0
LINE
8
BLACK
6
CONTINUOUS
10
181.907
20
-60.6142
11
181.905
21
-60.6131
0
LINE
8
BLACK
6
CONTINUOUS
10
181.905
20
-60.6131
11
181.899
21
-60.6097
0
LINE
8
BLACK
6
CONTINUOUS
10
181.899
20
-60.6097
11
174.956
21
-53.6671
0
LINE
8
BLACK
6
CONTINUOUS
10
174.956
20
-53.6671
11
174.951
21
-53.6583
0
LINE
8
BLACK
6
CONTINUOUS
10
174.951
20
-53.6583
11
174.747
21
-53.4733
0
LINE
8
BLACK
6
CONTINUOUS
10
174.747
20
-53.4733
11
174.518
21
-53.3035
0
LINE
8
BLACK
6
CONTINUOUS
10
174.518
20
-53.3035
11
174.274
21
-53.1571
0
LINE
8
BLACK
6
CONTINUOUS
10
174.274
20
-53.1571
11
174.016
21
-53.0352
0
LINE
8
BLACK
6
CONTINUOUS
10
174.016
20
-53.0352
11
173.748
21
-52.9392
0
LINE
8
BLACK
6
CONTINUOUS
10
173.748
20
-52.9392
11
173.472
21
-52.87
0
LINE
8
BLACK
6
CONTINUOUS
10
173.472
20
-52.87
11
173.19
21
-52.8282
0
LINE
8
BLACK
6
CONTINUOUS
10
173.19
20
-52.8282
11
172.915
21
-52.8147
0
LINE
8
BLACK
6
CONTINUOUS
10
172.915
20
-52.8147
11
172.905
21
-52.8177
0
LINE
8
BLACK
6
CONTINUOUS
10
172.905
20
-52.8177
11
141.905
21
-52.8177
0
LINE
8
BLACK
6
CONTINUOUS
10
141.905
20
-52.8177
11
141.896
21
-52.8147
0
LINE
8
BLACK
6
CONTINUOUS
10
140.532
20
-101.769
11
140.628
21
-101.562
0
LINE
8
BLACK
6
CONTINUOUS
10
140.628
20
-101.562
11
140.759
21
-101.375
0
LINE
8
BLACK
6
CONTINUOUS
10
140.759
20
-101.375
11
140.921
21
-101.214
0
LINE
8
BLACK
6
CONTINUOUS
10
140.921
20
-101.214
11
141.108
21
-101.083
0
LINE
8
BLACK
6
CONTINUOUS
10
141.108
20
-101.083
11
141.315
21
-100.986
0
LINE
8
BLACK
6
CONTINUOUS
10
141.315
20
-100.986
11
141.535
21
-100.927
0
LINE
8
BLACK
6
CONTINUOUS
10
141.535
20
-100.927
11
141.763
21
-100.907
0
LINE
8
BLACK
6
CONTINUOUS
10
141.763
20
-100.907
11
141.99
21
-100.927
0
LINE
8
BLACK
6
CONTINUOUS
10
141.99
20
-100.927
11
142.211
21
-100.986
0
LINE
8
BLACK
6
CONTINUOUS
10
142.211
20
-100.986
11
142.418
21
-101.083
0
LINE
8
BLACK
6
CONTINUOUS
10
142.418
20
-101.083
11
142.605
21
-101.214
0
LINE
8
BLACK
6
CONTINUOUS
10
142.605
20
-101.214
11
142.766
21
-101.375
0
LINE
8
BLACK
6
CONTINUOUS
10
142.766
20
-101.375
11
142.897
21
-101.562
0
LINE
8
BLACK
6
CONTINUOUS
10
142.897
20
-101.562
11
142.994
21
-101.769
0
LINE
8
BLACK
6
CONTINUOUS
10
142.994
20
-101.769
11
143.053
21
-101.99
0
LINE
8
BLACK
6
CONTINUOUS
10
143.053
20
-101.99
11
143.073
21
-102.217
0
LINE
8
BLACK
6
CONTINUOUS
10
143.073
20
-102.217
11
143.053
21
-102.445
0
LINE
8
BLACK
6
CONTINUOUS
10
143.053
20
-102.445
11
142.994
21
-102.665
0
LINE
8
BLACK
6
CONTINUOUS
10
142.994
20
-102.665
11
142.897
21
-102.872
0
LINE
8
BLACK
6
CONTINUOUS
10
142.897
20
-102.872
11
142.766
21
-103.059
0
LINE
8
BLACK
6
CONTINUOUS
10
142.766
20
-103.059
11
142.605
21
-103.221
0
LINE
8
BLACK
6
CONTINUOUS
10
142.605
20
-103.221
11
142.418
21
-103.352
0
LINE
8
BLACK
6
CONTINUOUS
10
142.418
20
-103.352
11
142.211
21
-103.448
0
LINE
8
BLACK
6
CONTINUOUS
10
142.211
20
-103.448
11
141.99
21
-103.508
0
LINE
8
BLACK
6
CONTINUOUS
10
141.99
20
-103.508
11
141.763
21
-103.527
0
LINE
8
BLACK
6
CONTINUOUS
10
141.763
20
-103.527
11
141.535
21
-103.508
0
LINE
8
BLACK
6
CONTINUOUS
10
141.535
20
-103.508
11
141.315
21
-103.448
0
LINE
8
BLACK
6
CONTINUOUS
10
141.315
20
-103.448
11
141.108
21
-103.352
0
LINE
8
BLACK
6
CONTINUOUS
10
141.108
20
-103.352
11
140.921
21
-103.221
0
LINE
8
BLACK
6
CONTINUOUS
10
140.921
20
-103.221
11
140.759
21
-103.059
0
LINE
8
BLACK
6
CONTINUOUS
10
140.759
20
-103.059
11
140.628
21
-102.872
0
LINE
8
BLACK
6
CONTINUOUS
10
140.628
20
-102.872
11
140.532
21
-102.665
0
LINE
8
BLACK
6
CONTINUOUS
10
140.532
20
-102.665
11
140.473
21
-102.445
0
LINE
8
BLACK
6
CONTINUOUS
10
140.473
20
-102.445
11
140.453
21
-102.217
0
LINE
8
BLACK
6
CONTINUOUS
10
140.453
20
-102.217
11
140.455
21
-102.186
0
LINE
8
BLACK
6
CONTINUOUS
10
140.455
20
-102.186
11
140.473
21
-101.99
0
LINE
8
BLACK
6
CONTINUOUS
10
140.473
20
-101.99
11
140.532
21
-101.769
0
LINE
8
BLACK
6
CONTINUOUS
10
140.636
20
-102.616
11
140.728
21
-102.815
0
LINE
8
BLACK
6
CONTINUOUS
10
140.728
20
-102.815
11
140.854
21
-102.994
0
LINE
8
BLACK
6
CONTINUOUS
10
140.854
20
-102.994
11
141.011
21
-103.146
0
LINE
8
BLACK
6
CONTINUOUS
10
141.011
20
-103.146
11
141.192
21
-103.268
0
LINE
8
BLACK
6
CONTINUOUS
10
141.192
20
-103.268
11
141.393
21
-103.354
0
LINE
8
BLACK
6
CONTINUOUS
10
141.393
20
-103.354
11
141.607
21
-103.402
0
LINE
8
BLACK
6
CONTINUOUS
10
141.607
20
-103.402
11
141.825
21
-103.411
0
LINE
8
BLACK
6
CONTINUOUS
10
141.825
20
-103.411
11
142.042
21
-103.379
0
LINE
8
BLACK
6
CONTINUOUS
10
142.042
20
-103.379
11
142.249
21
-103.309
0
LINE
8
BLACK
6
CONTINUOUS
10
142.249
20
-103.309
11
142.44
21
-103.202
0
LINE
8
BLACK
6
CONTINUOUS
10
142.44
20
-103.202
11
142.608
21
-103.062
0
LINE
8
BLACK
6
CONTINUOUS
10
142.608
20
-103.062
11
142.748
21
-102.894
0
LINE
8
BLACK
6
CONTINUOUS
10
142.748
20
-102.894
11
142.854
21
-102.704
0
LINE
8
BLACK
6
CONTINUOUS
10
142.854
20
-102.704
11
142.925
21
-102.496
0
LINE
8
BLACK
6
CONTINUOUS
10
142.925
20
-102.496
11
142.956
21
-102.28
0
LINE
8
BLACK
6
CONTINUOUS
10
142.956
20
-102.28
11
142.958
21
-102.217
0
LINE
8
BLACK
6
CONTINUOUS
10
142.958
20
-102.217
11
142.938
21
-102
0
LINE
8
BLACK
6
CONTINUOUS
10
142.938
20
-102
11
142.878
21
-101.789
0
LINE
8
BLACK
6
CONTINUOUS
10
142.878
20
-101.789
11
142.782
21
-101.593
0
LINE
8
BLACK
6
CONTINUOUS
10
142.782
20
-101.593
11
142.651
21
-101.418
0
LINE
8
BLACK
6
CONTINUOUS
10
142.651
20
-101.418
11
142.49
21
-101.269
0
LINE
8
BLACK
6
CONTINUOUS
10
142.49
20
-101.269
11
142.305
21
-101.153
0
LINE
8
BLACK
6
CONTINUOUS
10
142.305
20
-101.153
11
142.102
21
-101.072
0
LINE
8
BLACK
6
CONTINUOUS
10
142.102
20
-101.072
11
141.888
21
-101.029
0
LINE
8
BLACK
6
CONTINUOUS
10
141.888
20
-101.029
11
141.669
21
-101.026
0
LINE
8
BLACK
6
CONTINUOUS
10
141.669
20
-101.026
11
141.453
21
-101.063
0
LINE
8
BLACK
6
CONTINUOUS
10
141.453
20
-101.063
11
141.248
21
-101.139
0
LINE
8
BLACK
6
CONTINUOUS
10
141.248
20
-101.139
11
141.06
21
-101.251
0
LINE
8
BLACK
6
CONTINUOUS
10
141.06
20
-101.251
11
140.896
21
-101.395
0
LINE
8
BLACK
6
CONTINUOUS
10
140.896
20
-101.395
11
140.76
21
-101.567
0
LINE
8
BLACK
6
CONTINUOUS
10
140.76
20
-101.567
11
140.659
21
-101.76
0
LINE
8
BLACK
6
CONTINUOUS
10
140.659
20
-101.76
11
140.594
21
-101.969
0
LINE
8
BLACK
6
CONTINUOUS
10
140.594
20
-101.969
11
140.568
21
-102.186
0
LINE
8
BLACK
6
CONTINUOUS
10
140.568
20
-102.186
11
140.582
21
-102.404
0
LINE
8
BLACK
6
CONTINUOUS
10
140.582
20
-102.404
11
140.636
21
-102.616
0
LINE
8
BLACK
6
CONTINUOUS
10
152.032
20
-101.619
11
152.128
21
-101.412
0
LINE
8
BLACK
6
CONTINUOUS
10
152.128
20
-101.412
11
152.259
21
-101.225
0
LINE
8
BLACK
6
CONTINUOUS
10
152.259
20
-101.225
11
152.421
21
-101.064
0
LINE
8
BLACK
6
CONTINUOUS
10
152.421
20
-101.064
11
152.608
21
-100.933
0
LINE
8
BLACK
6
CONTINUOUS
10
152.608
20
-100.933
11
152.815
21
-100.836
0
LINE
8
BLACK
6
CONTINUOUS
10
152.815
20
-100.836
11
153.035
21
-100.777
0
LINE
8
BLACK
6
CONTINUOUS
10
153.035
20
-100.777
11
153.263
21
-100.757
0
LINE
8
BLACK
6
CONTINUOUS
10
153.263
20
-100.757
11
153.49
21
-100.777
0
LINE
8
BLACK
6
CONTINUOUS
10
153.49
20
-100.777
11
153.711
21
-100.836
0
LINE
8
BLACK
6
CONTINUOUS
10
153.711
20
-100.836
11
153.918
21
-100.933
0
LINE
8
BLACK
6
CONTINUOUS
10
153.918
20
-100.933
11
154.105
21
-101.064
0
LINE
8
BLACK
6
CONTINUOUS
10
154.105
20
-101.064
11
154.266
21
-101.225
0
LINE
8
BLACK
6
CONTINUOUS
10
154.266
20
-101.225
11
154.397
21
-101.412
0
LINE
8
BLACK
6
CONTINUOUS
10
154.397
20
-101.412
11
154.494
21
-101.619
0
LINE
8
BLACK
6
CONTINUOUS
10
154.494
20
-101.619
11
154.553
21
-101.84
0
LINE
8
BLACK
6
CONTINUOUS
10
154.553
20
-101.84
11
154.573
21
-102.067
0
LINE
8
BLACK
6
CONTINUOUS
10
154.573
20
-102.067
11
154.553
21
-102.295
0
LINE
8
BLACK
6
CONTINUOUS
10
154.553
20
-102.295
11
154.494
21
-102.515
0
LINE
8
BLACK
6
CONTINUOUS
10
154.494
20
-102.515
11
154.397
21
-102.722
0
LINE
8
BLACK
6
CONTINUOUS
10
154.397
20
-102.722
11
154.266
21
-102.909
0
LINE
8
BLACK
6
CONTINUOUS
10
154.266
20
-102.909
11
154.105
21
-103.071
0
LINE
8
BLACK
6
CONTINUOUS
10
154.105
20
-103.071
11
153.918
21
-103.202
0
LINE
8
BLACK
6
CONTINUOUS
10
153.918
20
-103.202
11
153.711
21
-103.298
0
LINE
8
BLACK
6
CONTINUOUS
10
153.711
20
-103.298
11
153.49
21
-103.358
0
LINE
8
BLACK
6
CONTINUOUS
10
153.49
20
-103.358
11
153.263
21
-103.377
0
LINE
8
BLACK
6
CONTINUOUS
10
153.263
20
-103.377
11
153.035
21
-103.358
0
LINE
8
BLACK
6
CONTINUOUS
10
153.035
20
-103.358
11
152.815
21
-103.298
0
LINE
8
BLACK
6
CONTINUOUS
10
152.815
20
-103.298
11
152.608
21
-103.202
0
LINE
8
BLACK
6
CONTINUOUS
10
152.608
20
-103.202
11
152.421
21
-103.071
0
LINE
8
BLACK
6
CONTINUOUS
10
152.421
20
-103.071
11
152.259
21
-102.909
0
LINE
8
BLACK
6
CONTINUOUS
10
152.259
20
-102.909
11
152.128
21
-102.722
0
LINE
8
BLACK
6
CONTINUOUS
10
152.128
20
-102.722
11
152.032
21
-102.515
0
LINE
8
BLACK
6
CONTINUOUS
10
152.032
20
-102.515
11
151.973
21
-102.295
0
LINE
8
BLACK
6
CONTINUOUS
10
151.973
20
-102.295
11
151.953
21
-102.067
0
LINE
8
BLACK
6
CONTINUOUS
10
151.953
20
-102.067
11
151.955
21
-102.036
0
LINE
8
BLACK
6
CONTINUOUS
10
151.955
20
-102.036
11
151.973
21
-101.84
0
LINE
8
BLACK
6
CONTINUOUS
10
151.973
20
-101.84
11
152.032
21
-101.619
0
LINE
8
BLACK
6
CONTINUOUS
10
152.136
20
-102.466
11
152.228
21
-102.665
0
LINE
8
BLACK
6
CONTINUOUS
10
152.228
20
-102.665
11
152.354
21
-102.844
0
LINE
8
BLACK
6
CONTINUOUS
10
152.354
20
-102.844
11
152.511
21
-102.996
0
LINE
8
BLACK
6
CONTINUOUS
10
152.511
20
-102.996
11
152.692
21
-103.118
0
LINE
8
BLACK
6
CONTINUOUS
10
152.692
20
-103.118
11
152.893
21
-103.204
0
LINE
8
BLACK
6
CONTINUOUS
10
152.893
20
-103.204
11
153.107
21
-103.252
0
LINE
8
BLACK
6
CONTINUOUS
10
153.107
20
-103.252
11
153.325
21
-103.261
0
LINE
8
BLACK
6
CONTINUOUS
10
153.325
20
-103.261
11
153.542
21
-103.229
0
LINE
8
BLACK
6
CONTINUOUS
10
153.542
20
-103.229
11
153.749
21
-103.159
0
LINE
8
BLACK
6
CONTINUOUS
10
153.749
20
-103.159
11
153.94
21
-103.052
0
LINE
8
BLACK
6
CONTINUOUS
10
153.94
20
-103.052
11
154.108
21
-102.912
0
LINE
8
BLACK
6
CONTINUOUS
10
154.108
20
-102.912
11
154.248
21
-102.744
0
LINE
8
BLACK
6
CONTINUOUS
10
154.248
20
-102.744
11
154.354
21
-102.554
0
LINE
8
BLACK
6
CONTINUOUS
10
154.354
20
-102.554
11
154.425
21
-102.346
0
LINE
8
BLACK
6
CONTINUOUS
10
154.425
20
-102.346
11
154.456
21
-102.13
0
LINE
8
BLACK
6
CONTINUOUS
10
154.456
20
-102.13
11
154.458
21
-102.067
0
LINE
8
BLACK
6
CONTINUOUS
10
154.458
20
-102.067
11
154.438
21
-101.85
0
LINE
8
BLACK
6
CONTINUOUS
10
154.438
20
-101.85
11
154.378
21
-101.639
0
LINE
8
BLACK
6
CONTINUOUS
10
154.378
20
-101.639
11
154.282
21
-101.443
0
LINE
8
BLACK
6
CONTINUOUS
10
154.282
20
-101.443
11
154.151
21
-101.268
0
LINE
8
BLACK
6
CONTINUOUS
10
154.151
20
-101.268
11
153.99
21
-101.119
0
LINE
8
BLACK
6
CONTINUOUS
10
153.99
20
-101.119
11
153.805
21
-101.003
0
LINE
8
BLACK
6
CONTINUOUS
10
153.805
20
-101.003
11
153.602
21
-100.922
0
LINE
8
BLACK
6
CONTINUOUS
10
153.602
20
-100.922
11
153.388
21
-100.879
0
LINE
8
BLACK
6
CONTINUOUS
10
153.388
20
-100.879
11
153.169
21
-100.876
0
LINE
8
BLACK
6
CONTINUOUS
10
153.169
20
-100.876
11
152.953
21
-100.913
0
LINE
8
BLACK
6
CONTINUOUS
10
152.953
20
-100.913
11
152.748
21
-100.989
0
LINE
8
BLACK
6
CONTINUOUS
10
152.748
20
-100.989
11
152.56
21
-101.101
0
LINE
8
BLACK
6
CONTINUOUS
10
152.56
20
-101.101
11
152.396
21
-101.245
0
LINE
8
BLACK
6
CONTINUOUS
10
152.396
20
-101.245
11
152.26
21
-101.417
0
LINE
8
BLACK
6
CONTINUOUS
10
152.26
20
-101.417
11
152.159
21
-101.61
0
LINE
8
BLACK
6
CONTINUOUS
10
152.159
20
-101.61
11
152.094
21
-101.819
0
LINE
8
BLACK
6
CONTINUOUS
10
152.094
20
-101.819
11
152.068
21
-102.036
0
LINE
8
BLACK
6
CONTINUOUS
10
152.068
20
-102.036
11
152.082
21
-102.254
0
LINE
8
BLACK
6
CONTINUOUS
10
152.082
20
-102.254
11
152.136
21
-102.466
0
LINE
8
BLACK
6
CONTINUOUS
10
152.032
20
-93.6194
11
152.128
21
-93.4124
0
LINE
8
BLACK
6
CONTINUOUS
10
152.128
20
-93.4124
11
152.259
21
-93.2254
0
LINE
8
BLACK
6
CONTINUOUS
10
152.259
20
-93.2254
11
152.421
21
-93.0639
0
LINE
8
BLACK
6
CONTINUOUS
10
152.421
20
-93.0639
11
152.608
21
-92.9329
0
LINE
8
BLACK
6
CONTINUOUS
10
152.608
20
-92.9329
11
152.815
21
-92.8364
0
LINE
8
BLACK
6
CONTINUOUS
10
152.815
20
-92.8364
11
153.035
21
-92.7773
0
LINE
8
BLACK
6
CONTINUOUS
10
153.035
20
-92.7773
11
153.263
21
-92.7574
0
LINE
8
BLACK
6
CONTINUOUS
10
153.263
20
-92.7574
11
153.49
21
-92.7773
0
LINE
8
BLACK
6
CONTINUOUS
10
153.49
20
-92.7773
11
153.711
21
-92.8364
0
LINE
8
BLACK
6
CONTINUOUS
10
153.711
20
-92.8364
11
153.918
21
-92.9329
0
LINE
8
BLACK
6
CONTINUOUS
10
153.918
20
-92.9329
11
154.105
21
-93.0639
0
LINE
8
BLACK
6
CONTINUOUS
10
154.105
20
-93.0639
11
154.266
21
-93.2254
0
LINE
8
BLACK
6
CONTINUOUS
10
154.266
20
-93.2254
11
154.397
21
-93.4124
0
LINE
8
BLACK
6
CONTINUOUS
10
154.397
20
-93.4124
11
154.494
21
-93.6194
0
LINE
8
BLACK
6
CONTINUOUS
10
154.494
20
-93.6194
11
154.553
21
-93.8399
0
LINE
8
BLACK
6
CONTINUOUS
10
154.553
20
-93.8399
11
154.573
21
-94.0674
0
LINE
8
BLACK
6
CONTINUOUS
10
154.573
20
-94.0674
11
154.553
21
-94.2949
0
LINE
8
BLACK
6
CONTINUOUS
10
154.553
20
-94.2949
11
154.494
21
-94.5155
0
LINE
8
BLACK
6
CONTINUOUS
10
154.494
20
-94.5155
11
154.397
21
-94.7224
0
LINE
8
BLACK
6
CONTINUOUS
10
154.397
20
-94.7224
11
154.266
21
-94.9095
0
LINE
8
BLACK
6
CONTINUOUS
10
154.266
20
-94.9095
11
154.105
21
-95.0709
0
LINE
8
BLACK
6
CONTINUOUS
10
154.105
20
-95.0709
11
153.918
21
-95.2019
0
LINE
8
BLACK
6
CONTINUOUS
10
153.918
20
-95.2019
11
153.711
21
-95.2984
0
LINE
8
BLACK
6
CONTINUOUS
10
153.711
20
-95.2984
11
153.49
21
-95.3575
0
LINE
8
BLACK
6
CONTINUOUS
10
153.49
20
-95.3575
11
153.263
21
-95.3774
0
LINE
8
BLACK
6
CONTINUOUS
10
153.263
20
-95.3774
11
153.035
21
-95.3575
0
LINE
8
BLACK
6
CONTINUOUS
10
153.035
20
-95.3575
11
152.815
21
-95.2984
0
LINE
8
BLACK
6
CONTINUOUS
10
152.815
20
-95.2984
11
152.608
21
-95.2019
0
LINE
8
BLACK
6
CONTINUOUS
10
152.608
20
-95.2019
11
152.421
21
-95.0709
0
LINE
8
BLACK
6
CONTINUOUS
10
152.421
20
-95.0709
11
152.259
21
-94.9095
0
LINE
8
BLACK
6
CONTINUOUS
10
152.259
20
-94.9095
11
152.128
21
-94.7224
0
LINE
8
BLACK
6
CONTINUOUS
10
152.128
20
-94.7224
11
152.032
21
-94.5155
0
LINE
8
BLACK
6
CONTINUOUS
10
152.032
20
-94.5155
11
151.973
21
-94.2949
0
LINE
8
BLACK
6
CONTINUOUS
10
151.973
20
-94.2949
11
151.953
21
-94.0674
0
LINE
8
BLACK
6
CONTINUOUS
10
151.953
20
-94.0674
11
151.955
21
-94.0361
0
LINE
8
BLACK
6
CONTINUOUS
10
151.955
20
-94.0361
11
151.973
21
-93.8399
0
LINE
8
BLACK
6
CONTINUOUS
10
151.973
20
-93.8399
11
152.032
21
-93.6194
0
LINE
8
BLACK
6
CONTINUOUS
10
152.136
20
-94.4663
11
152.228
21
-94.665
0
LINE
8
BLACK
6
CONTINUOUS
10
152.228
20
-94.665
11
152.354
21
-94.8436
0
LINE
8
BLACK
6
CONTINUOUS
10
152.354
20
-94.8436
11
152.511
21
-94.9962
0
LINE
8
BLACK
6
CONTINUOUS
10
152.511
20
-94.9962
11
152.692
21
-95.1177
0
LINE
8
BLACK
6
CONTINUOUS
10
152.692
20
-95.1177
11
152.893
21
-95.204
0
LINE
8
BLACK
6
CONTINUOUS
10
152.893
20
-95.204
11
153.107
21
-95.2523
0
LINE
8
BLACK
6
CONTINUOUS
10
153.107
20
-95.2523
11
153.325
21
-95.2609
0
LINE
8
BLACK
6
CONTINUOUS
10
153.325
20
-95.2609
11
153.542
21
-95.2295
0
LINE
8
BLACK
6
CONTINUOUS
10
153.542
20
-95.2295
11
153.749
21
-95.1592
0
LINE
8
BLACK
6
CONTINUOUS
10
153.749
20
-95.1592
11
153.94
21
-95.0523
0
LINE
8
BLACK
6
CONTINUOUS
10
153.94
20
-95.0523
11
154.108
21
-94.9125
0
LINE
8
BLACK
6
CONTINUOUS
10
154.108
20
-94.9125
11
154.248
21
-94.7443
0
LINE
8
BLACK
6
CONTINUOUS
10
154.248
20
-94.7443
11
154.354
21
-94.5535
0
LINE
8
BLACK
6
CONTINUOUS
10
154.354
20
-94.5535
11
154.425
21
-94.3464
0
LINE
8
BLACK
6
CONTINUOUS
10
154.425
20
-94.3464
11
154.456
21
-94.13
0
LINE
8
BLACK
6
CONTINUOUS
10
154.456
20
-94.13
11
154.458
21
-94.0674
0
LINE
8
BLACK
6
CONTINUOUS
10
154.458
20
-94.0674
11
154.438
21
-93.8496
0
LINE
8
BLACK
6
CONTINUOUS
10
154.438
20
-93.8496
11
154.378
21
-93.6391
0
LINE
8
BLACK
6
CONTINUOUS
10
154.378
20
-93.6391
11
154.282
21
-93.443
0
LINE
8
BLACK
6
CONTINUOUS
10
154.282
20
-93.443
11
154.151
21
-93.2677
0
LINE
8
BLACK
6
CONTINUOUS
10
154.151
20
-93.2677
11
153.99
21
-93.1193
0
LINE
8
BLACK
6
CONTINUOUS
10
153.99
20
-93.1193
11
153.805
21
-93.0026
0
LINE
8
BLACK
6
CONTINUOUS
10
153.805
20
-93.0026
11
153.602
21
-92.9215
0
LINE
8
BLACK
6
CONTINUOUS
10
153.602
20
-92.9215
11
153.388
21
-92.8789
0
LINE
8
BLACK
6
CONTINUOUS
10
153.388
20
-92.8789
11
153.169
21
-92.876
0
LINE
8
BLACK
6
CONTINUOUS
10
153.169
20
-92.876
11
152.953
21
-92.913
0
LINE
8
BLACK
6
CONTINUOUS
10
152.953
20
-92.913
11
152.748
21
-92.9887
0
LINE
8
BLACK
6
CONTINUOUS
10
152.748
20
-92.9887
11
152.56
21
-93.1006
0
LINE
8
BLACK
6
CONTINUOUS
10
152.56
20
-93.1006
11
152.396
21
-93.2448
0
LINE
8
BLACK
6
CONTINUOUS
10
152.396
20
-93.2448
11
152.26
21
-93.4165
0
LINE
8
BLACK
6
CONTINUOUS
10
152.26
20
-93.4165
11
152.159
21
-93.6101
0
LINE
8
BLACK
6
CONTINUOUS
10
152.159
20
-93.6101
11
152.094
21
-93.8189
0
LINE
8
BLACK
6
CONTINUOUS
10
152.094
20
-93.8189
11
152.068
21
-94.0361
0
LINE
8
BLACK
6
CONTINUOUS
10
152.068
20
-94.0361
11
152.082
21
-94.2544
0
LINE
8
BLACK
6
CONTINUOUS
10
152.082
20
-94.2544
11
152.136
21
-94.4663
0
LINE
8
BLACK
6
CONTINUOUS
10
140.532
20
-93.4694
11
140.628
21
-93.2624
0
LINE
8
BLACK
6
CONTINUOUS
10
140.628
20
-93.2624
11
140.759
21
-93.0754
0
LINE
8
BLACK
6
CONTINUOUS
10
140.759
20
-93.0754
11
140.921
21
-92.9139
0
LINE
8
BLACK
6
CONTINUOUS
10
140.921
20
-92.9139
11
141.108
21
-92.7829
0
LINE
8
BLACK
6
CONTINUOUS
10
141.108
20
-92.7829
11
141.315
21
-92.6864
0
LINE
8
BLACK
6
CONTINUOUS
10
141.315
20
-92.6864
11
141.535
21
-92.6273
0
LINE
8
BLACK
6
CONTINUOUS
10
141.535
20
-92.6273
11
141.763
21
-92.6074
0
LINE
8
BLACK
6
CONTINUOUS
10
141.763
20
-92.6074
11
141.99
21
-92.6273
0
LINE
8
BLACK
6
CONTINUOUS
10
141.99
20
-92.6273
11
142.211
21
-92.6864
0
LINE
8
BLACK
6
CONTINUOUS
10
142.211
20
-92.6864
11
142.418
21
-92.7829
0
LINE
8
BLACK
6
CONTINUOUS
10
142.418
20
-92.7829
11
142.605
21
-92.9139
0
LINE
8
BLACK
6
CONTINUOUS
10
142.605
20
-92.9139
11
142.766
21
-93.0754
0
LINE
8
BLACK
6
CONTINUOUS
10
142.766
20
-93.0754
11
142.897
21
-93.2624
0
LINE
8
BLACK
6
CONTINUOUS
10
142.897
20
-93.2624
11
142.994
21
-93.4694
0
LINE
8
BLACK
6
CONTINUOUS
10
142.994
20
-93.4694
11
143.053
21
-93.6899
0
LINE
8
BLACK
6
CONTINUOUS
10
143.053
20
-93.6899
11
143.073
21
-93.9174
0
LINE
8
BLACK
6
CONTINUOUS
10
143.073
20
-93.9174
11
143.053
21
-94.1449
0
LINE
8
BLACK
6
CONTINUOUS
10
143.053
20
-94.1449
11
142.994
21
-94.3655
0
LINE
8
BLACK
6
CONTINUOUS
10
142.994
20
-94.3655
11
142.897
21
-94.5724
0
LINE
8
BLACK
6
CONTINUOUS
10
142.897
20
-94.5724
11
142.766
21
-94.7595
0
LINE
8
BLACK
6
CONTINUOUS
10
142.766
20
-94.7595
11
142.605
21
-94.9209
0
LINE
8
BLACK
6
CONTINUOUS
10
142.605
20
-94.9209
11
142.418
21
-95.0519
0
LINE
8
BLACK
6
CONTINUOUS
10
142.418
20
-95.0519
11
142.211
21
-95.1484
0
LINE
8
BLACK
6
CONTINUOUS
10
142.211
20
-95.1484
11
141.99
21
-95.2075
0
LINE
8
BLACK
6
CONTINUOUS
10
141.99
20
-95.2075
11
141.763
21
-95.2274
0
LINE
8
BLACK
6
CONTINUOUS
10
141.763
20
-95.2274
11
141.535
21
-95.2075
0
LINE
8
BLACK
6
CONTINUOUS
10
141.535
20
-95.2075
11
141.315
21
-95.1484
0
LINE
8
BLACK
6
CONTINUOUS
10
141.315
20
-95.1484
11
141.108
21
-95.0519
0
LINE
8
BLACK
6
CONTINUOUS
10
141.108
20
-95.0519
11
140.921
21
-94.9209
0
LINE
8
BLACK
6
CONTINUOUS
10
140.921
20
-94.9209
11
140.759
21
-94.7595
0
LINE
8
BLACK
6
CONTINUOUS
10
140.759
20
-94.7595
11
140.628
21
-94.5724
0
LINE
8
BLACK
6
CONTINUOUS
10
140.628
20
-94.5724
11
140.532
21
-94.3655
0
LINE
8
BLACK
6
CONTINUOUS
10
140.532
20
-94.3655
11
140.473
21
-94.1449
0
LINE
8
BLACK
6
CONTINUOUS
10
140.473
20
-94.1449
11
140.453
21
-93.9174
0
LINE
8
BLACK
6
CONTINUOUS
10
140.453
20
-93.9174
11
140.455
21
-93.8861
0
LINE
8
BLACK
6
CONTINUOUS
10
140.455
20
-93.8861
11
140.473
21
-93.6899
0
LINE
8
BLACK
6
CONTINUOUS
10
140.473
20
-93.6899
11
140.532
21
-93.4694
0
LINE
8
BLACK
6
CONTINUOUS
10
140.636
20
-94.3163
11
140.728
21
-94.515
0
LINE
8
BLACK
6
CONTINUOUS
10
140.728
20
-94.515
11
140.854
21
-94.6936
0
LINE
8
BLACK
6
CONTINUOUS
10
140.854
20
-94.6936
11
141.011
21
-94.8462
0
LINE
8
BLACK
6
CONTINUOUS
10
141.011
20
-94.8462
11
141.192
21
-94.9677
0
LINE
8
BLACK
6
CONTINUOUS
10
141.192
20
-94.9677
11
141.393
21
-95.054
0
LINE
8
BLACK
6
CONTINUOUS
10
141.393
20
-95.054
11
141.607
21
-95.1023
0
LINE
8
BLACK
6
CONTINUOUS
10
141.607
20
-95.1023
11
141.825
21
-95.1109
0
LINE
8
BLACK
6
CONTINUOUS
10
141.825
20
-95.1109
11
142.042
21
-95.0795
0
LINE
8
BLACK
6
CONTINUOUS
10
142.042
20
-95.0795
11
142.249
21
-95.0092
0
LINE
8
BLACK
6
CONTINUOUS
10
142.249
20
-95.0092
11
142.44
21
-94.9023
0
LINE
8
BLACK
6
CONTINUOUS
10
142.44
20
-94.9023
11
142.608
21
-94.7625
0
LINE
8
BLACK
6
CONTINUOUS
10
142.608
20
-94.7625
11
142.748
21
-94.5943
0
LINE
8
BLACK
6
CONTINUOUS
10
142.748
20
-94.5943
11
142.854
21
-94.4035
0
LINE
8
BLACK
6
CONTINUOUS
10
142.854
20
-94.4035
11
142.925
21
-94.1964
0
LINE
8
BLACK
6
CONTINUOUS
10
142.925
20
-94.1964
11
142.956
21
-93.98
0
LINE
8
BLACK
6
CONTINUOUS
10
142.956
20
-93.98
11
142.958
21
-93.9174
0
LINE
8
BLACK
6
CONTINUOUS
10
142.958
20
-93.9174
11
142.938
21
-93.6996
0
LINE
8
BLACK
6
CONTINUOUS
10
142.938
20
-93.6996
11
142.878
21
-93.4891
0
LINE
8
BLACK
6
CONTINUOUS
10
142.878
20
-93.4891
11
142.782
21
-93.293
0
LINE
8
BLACK
6
CONTINUOUS
10
142.782
20
-93.293
11
142.651
21
-93.1177
0
LINE
8
BLACK
6
CONTINUOUS
10
142.651
20
-93.1177
11
142.49
21
-92.9693
0
LINE
8
BLACK
6
CONTINUOUS
10
142.49
20
-92.9693
11
142.305
21
-92.8526
0
LINE
8
BLACK
6
CONTINUOUS
10
142.305
20
-92.8526
11
142.102
21
-92.7715
0
LINE
8
BLACK
6
CONTINUOUS
10
142.102
20
-92.7715
11
141.888
21
-92.7289
0
LINE
8
BLACK
6
CONTINUOUS
10
141.888
20
-92.7289
11
141.669
21
-92.726
0
LINE
8
BLACK
6
CONTINUOUS
10
141.669
20
-92.726
11
141.453
21
-92.763
0
LINE
8
BLACK
6
CONTINUOUS
10
141.453
20
-92.763
11
141.248
21
-92.8387
0
LINE
8
BLACK
6
CONTINUOUS
10
141.248
20
-92.8387
11
141.06
21
-92.9506
0
LINE
8
BLACK
6
CONTINUOUS
10
141.06
20
-92.9506
11
140.896
21
-93.0948
0
LINE
8
BLACK
6
CONTINUOUS
10
140.896
20
-93.0948
11
140.76
21
-93.2665
0
LINE
8
BLACK
6
CONTINUOUS
10
140.76
20
-93.2665
11
140.659
21
-93.4601
0
LINE
8
BLACK
6
CONTINUOUS
10
140.659
20
-93.4601
11
140.594
21
-93.6689
0
LINE
8
BLACK
6
CONTINUOUS
10
140.594
20
-93.6689
11
140.568
21
-93.8861
0
LINE
8
BLACK
6
CONTINUOUS
10
140.568
20
-93.8861
11
140.582
21
-94.1044
0
LINE
8
BLACK
6
CONTINUOUS
10
140.582
20
-94.1044
11
140.636
21
-94.3163
0
LINE
8
BLACK
6
CONTINUOUS
10
167.404
20
-62.1614
11
167.467
21
-61.7698
0
LINE
8
BLACK
6
CONTINUOUS
10
167.467
20
-61.7698
11
167.569
21
-61.3863
0
LINE
8
BLACK
6
CONTINUOUS
10
167.569
20
-61.3863
11
167.707
21
-61.0145
0
LINE
8
BLACK
6
CONTINUOUS
10
167.707
20
-61.0145
11
167.881
21
-60.658
0
LINE
8
BLACK
6
CONTINUOUS
10
167.881
20
-60.658
11
168.089
21
-60.3202
0
LINE
8
BLACK
6
CONTINUOUS
10
168.089
20
-60.3202
11
168.329
21
-60.0042
0
LINE
8
BLACK
6
CONTINUOUS
10
168.329
20
-60.0042
11
168.598
21
-59.7132
0
LINE
8
BLACK
6
CONTINUOUS
10
168.598
20
-59.7132
11
168.895
21
-59.4498
0
LINE
8
BLACK
6
CONTINUOUS
10
168.895
20
-59.4498
11
169.216
21
-59.2167
0
LINE
8
BLACK
6
CONTINUOUS
10
169.216
20
-59.2167
11
169.558
21
-59.0159
0
LINE
8
BLACK
6
CONTINUOUS
10
169.558
20
-59.0159
11
169.918
21
-58.8496
0
LINE
8
BLACK
6
CONTINUOUS
10
169.918
20
-58.8496
11
170.292
21
-58.7191
0
LINE
8
BLACK
6
CONTINUOUS
10
170.292
20
-58.7191
11
170.678
21
-58.6258
0
LINE
8
BLACK
6
CONTINUOUS
10
170.678
20
-58.6258
11
171.071
21
-58.5706
0
LINE
8
BLACK
6
CONTINUOUS
10
171.071
20
-58.5706
11
171.467
21
-58.554
0
LINE
8
BLACK
6
CONTINUOUS
10
171.467
20
-58.554
11
171.863
21
-58.5762
0
LINE
8
BLACK
6
CONTINUOUS
10
171.863
20
-58.5762
11
172.255
21
-58.6369
0
LINE
8
BLACK
6
CONTINUOUS
10
172.255
20
-58.6369
11
172.639
21
-58.7355
0
LINE
8
BLACK
6
CONTINUOUS
10
172.639
20
-58.7355
11
173.012
21
-58.8712
0
LINE
8
BLACK
6
CONTINUOUS
10
173.012
20
-58.8712
11
173.37
21
-59.0426
0
LINE
8
BLACK
6
CONTINUOUS
10
173.37
20
-59.0426
11
173.709
21
-59.248
0
LINE
8
BLACK
6
CONTINUOUS
10
173.709
20
-59.248
11
174.027
21
-59.4857
0
LINE
8
BLACK
6
CONTINUOUS
10
174.027
20
-59.4857
11
174.32
21
-59.7531
0
LINE
8
BLACK
6
CONTINUOUS
10
174.32
20
-59.7531
11
174.585
21
-60.0479
0
LINE
8
BLACK
6
CONTINUOUS
10
174.585
20
-60.0479
11
174.82
21
-60.3672
0
LINE
8
BLACK
6
CONTINUOUS
10
174.82
20
-60.3672
11
175.024
21
-60.7079
0
LINE
8
BLACK
6
CONTINUOUS
10
175.024
20
-60.7079
11
175.192
21
-61.0668
0
LINE
8
BLACK
6
CONTINUOUS
10
175.192
20
-61.0668
11
175.325
21
-61.4405
0
LINE
8
BLACK
6
CONTINUOUS
10
175.325
20
-61.4405
11
175.421
21
-61.8253
0
LINE
8
BLACK
6
CONTINUOUS
10
175.421
20
-61.8253
11
175.479
21
-62.2177
0
LINE
8
BLACK
6
CONTINUOUS
10
175.479
20
-62.2177
11
175.499
21
-62.6139
0
LINE
8
BLACK
6
CONTINUOUS
10
175.499
20
-62.6139
11
175.497
21
-62.7273
0
LINE
8
BLACK
6
CONTINUOUS
10
175.497
20
-62.7273
11
175.467
21
-63.1228
0
LINE
8
BLACK
6
CONTINUOUS
10
175.467
20
-63.1228
11
175.398
21
-63.5134
0
LINE
8
BLACK
6
CONTINUOUS
10
175.398
20
-63.5134
11
175.291
21
-63.8955
0
LINE
8
BLACK
6
CONTINUOUS
10
175.291
20
-63.8955
11
175.148
21
-64.2653
0
LINE
8
BLACK
6
CONTINUOUS
10
175.148
20
-64.2653
11
174.969
21
-64.6193
0
LINE
8
BLACK
6
CONTINUOUS
10
174.969
20
-64.6193
11
174.756
21
-64.9543
0
LINE
8
BLACK
6
CONTINUOUS
10
174.756
20
-64.9543
11
174.512
21
-65.2668
0
LINE
8
BLACK
6
CONTINUOUS
10
174.512
20
-65.2668
11
174.239
21
-65.5541
0
LINE
8
BLACK
6
CONTINUOUS
10
174.239
20
-65.5541
11
173.938
21
-65.8133
0
LINE
8
BLACK
6
CONTINUOUS
10
173.938
20
-65.8133
11
173.614
21
-66.0419
0
LINE
8
BLACK
6
CONTINUOUS
10
173.614
20
-66.0419
11
173.269
21
-66.2378
0
LINE
8
BLACK
6
CONTINUOUS
10
173.269
20
-66.2378
11
172.907
21
-66.3992
0
LINE
8
BLACK
6
CONTINUOUS
10
172.907
20
-66.3992
11
172.531
21
-66.5244
0
LINE
8
BLACK
6
CONTINUOUS
10
172.531
20
-66.5244
11
172.144
21
-66.6123
0
LINE
8
BLACK
6
CONTINUOUS
10
172.144
20
-66.6123
11
171.75
21
-66.662
0
LINE
8
BLACK
6
CONTINUOUS
10
171.75
20
-66.662
11
171.354
21
-66.673
0
LINE
8
BLACK
6
CONTINUOUS
10
171.354
20
-66.673
11
170.958
21
-66.6454
0
LINE
8
BLACK
6
CONTINUOUS
10
170.958
20
-66.6454
11
170.567
21
-66.5792
0
LINE
8
BLACK
6
CONTINUOUS
10
170.567
20
-66.5792
11
170.184
21
-66.4752
0
LINE
8
BLACK
6
CONTINUOUS
10
170.184
20
-66.4752
11
169.813
21
-66.3344
0
LINE
8
BLACK
6
CONTINUOUS
10
169.813
20
-66.3344
11
169.458
21
-66.158
0
LINE
8
BLACK
6
CONTINUOUS
10
169.458
20
-66.158
11
169.122
21
-65.9478
0
LINE
8
BLACK
6
CONTINUOUS
10
169.122
20
-65.9478
11
168.807
21
-65.7058
0
LINE
8
BLACK
6
CONTINUOUS
10
168.807
20
-65.7058
11
168.518
21
-65.4342
0
LINE
8
BLACK
6
CONTINUOUS
10
168.518
20
-65.4342
11
168.257
21
-65.1358
0
LINE
8
BLACK
6
CONTINUOUS
10
168.257
20
-65.1358
11
168.026
21
-64.8133
0
LINE
8
BLACK
6
CONTINUOUS
10
168.026
20
-64.8133
11
167.828
21
-64.4698
0
LINE
8
BLACK
6
CONTINUOUS
10
167.828
20
-64.4698
11
167.664
21
-64.1085
0
LINE
8
BLACK
6
CONTINUOUS
10
167.664
20
-64.1085
11
167.536
21
-63.733
0
LINE
8
BLACK
6
CONTINUOUS
10
167.536
20
-63.733
11
167.445
21
-63.3468
0
LINE
8
BLACK
6
CONTINUOUS
10
167.445
20
-63.3468
11
167.393
21
-62.9537
0
LINE
8
BLACK
6
CONTINUOUS
10
167.393
20
-62.9537
11
167.381
21
-62.6002
0
LINE
8
BLACK
6
CONTINUOUS
10
167.381
20
-62.6002
11
167.379
21
-62.5572
0
LINE
8
BLACK
6
CONTINUOUS
10
167.379
20
-62.5572
11
167.404
21
-62.1614
0
LINE
8
BLACK
6
CONTINUOUS
10
167.572
20
-63.3937
11
167.67
21
-63.7805
0
LINE
8
BLACK
6
CONTINUOUS
10
167.67
20
-63.7805
11
167.807
21
-64.1554
0
LINE
8
BLACK
6
CONTINUOUS
10
167.807
20
-64.1554
11
167.982
21
-64.5145
0
LINE
8
BLACK
6
CONTINUOUS
10
167.982
20
-64.5145
11
168.191
21
-64.8541
0
LINE
8
BLACK
6
CONTINUOUS
10
168.191
20
-64.8541
11
168.434
21
-65.1708
0
LINE
8
BLACK
6
CONTINUOUS
10
168.434
20
-65.1708
11
168.708
21
-65.4613
0
LINE
8
BLACK
6
CONTINUOUS
10
168.708
20
-65.4613
11
169.01
21
-65.7227
0
LINE
8
BLACK
6
CONTINUOUS
10
169.01
20
-65.7227
11
169.337
21
-65.9522
0
LINE
8
BLACK
6
CONTINUOUS
10
169.337
20
-65.9522
11
169.685
21
-66.1476
0
LINE
8
BLACK
6
CONTINUOUS
10
169.685
20
-66.1476
11
170.051
21
-66.3067
0
LINE
8
BLACK
6
CONTINUOUS
10
170.051
20
-66.3067
11
170.431
21
-66.4281
0
LINE
8
BLACK
6
CONTINUOUS
10
170.431
20
-66.4281
11
170.822
21
-66.5104
0
LINE
8
BLACK
6
CONTINUOUS
10
170.822
20
-66.5104
11
171.219
21
-66.5528
0
LINE
8
BLACK
6
CONTINUOUS
10
171.219
20
-66.5528
11
171.618
21
-66.5549
0
LINE
8
BLACK
6
CONTINUOUS
10
171.618
20
-66.5549
11
172.015
21
-66.5167
0
LINE
8
BLACK
6
CONTINUOUS
10
172.015
20
-66.5167
11
172.407
21
-66.4385
0
LINE
8
BLACK
6
CONTINUOUS
10
172.407
20
-66.4385
11
172.788
21
-66.3211
0
LINE
8
BLACK
6
CONTINUOUS
10
172.788
20
-66.3211
11
173.156
21
-66.1658
0
LINE
8
BLACK
6
CONTINUOUS
10
173.156
20
-66.1658
11
173.506
21
-65.9741
0
LINE
8
BLACK
6
CONTINUOUS
10
173.506
20
-65.9741
11
173.835
21
-65.748
0
LINE
8
BLACK
6
CONTINUOUS
10
173.835
20
-65.748
11
174.139
21
-65.4898
0
LINE
8
BLACK
6
CONTINUOUS
10
174.139
20
-65.4898
11
174.416
21
-65.2021
0
LINE
8
BLACK
6
CONTINUOUS
10
174.416
20
-65.2021
11
174.662
21
-64.888
0
LINE
8
BLACK
6
CONTINUOUS
10
174.662
20
-64.888
11
174.876
21
-64.5506
0
LINE
8
BLACK
6
CONTINUOUS
10
174.876
20
-64.5506
11
175.054
21
-64.1933
0
LINE
8
BLACK
6
CONTINUOUS
10
175.054
20
-64.1933
11
175.195
21
-63.8199
0
LINE
8
BLACK
6
CONTINUOUS
10
175.195
20
-63.8199
11
175.298
21
-63.4342
0
LINE
8
BLACK
6
CONTINUOUS
10
175.298
20
-63.4342
11
175.361
21
-63.04
0
LINE
8
BLACK
6
CONTINUOUS
10
175.361
20
-63.04
11
175.384
21
-62.6415
0
LINE
8
BLACK
6
CONTINUOUS
10
175.384
20
-62.6415
11
175.384
21
-62.6139
0
LINE
8
BLACK
6
CONTINUOUS
10
175.384
20
-62.6139
11
175.364
21
-62.2153
0
LINE
8
BLACK
6
CONTINUOUS
10
175.364
20
-62.2153
11
175.303
21
-61.8207
0
LINE
8
BLACK
6
CONTINUOUS
10
175.303
20
-61.8207
11
175.203
21
-61.4342
0
LINE
8
BLACK
6
CONTINUOUS
10
175.203
20
-61.4342
11
175.065
21
-61.0598
0
LINE
8
BLACK
6
CONTINUOUS
10
175.065
20
-61.0598
11
174.889
21
-60.7013
0
LINE
8
BLACK
6
CONTINUOUS
10
174.889
20
-60.7013
11
174.678
21
-60.3624
0
LINE
8
BLACK
6
CONTINUOUS
10
174.678
20
-60.3624
11
174.434
21
-60.0466
0
LINE
8
BLACK
6
CONTINUOUS
10
174.434
20
-60.0466
11
174.159
21
-59.757
0
LINE
8
BLACK
6
CONTINUOUS
10
174.159
20
-59.757
11
173.857
21
-59.4967
0
LINE
8
BLACK
6
CONTINUOUS
10
173.857
20
-59.4967
11
173.529
21
-59.2683
0
LINE
8
BLACK
6
CONTINUOUS
10
173.529
20
-59.2683
11
173.181
21
-59.0742
0
LINE
8
BLACK
6
CONTINUOUS
10
173.181
20
-59.0742
11
172.814
21
-58.9163
0
LINE
8
BLACK
6
CONTINUOUS
10
172.814
20
-58.9163
11
172.433
21
-58.7963
0
LINE
8
BLACK
6
CONTINUOUS
10
172.433
20
-58.7963
11
172.042
21
-58.7153
0
LINE
8
BLACK
6
CONTINUOUS
10
172.042
20
-58.7153
11
171.645
21
-58.6743
0
LINE
8
BLACK
6
CONTINUOUS
10
171.645
20
-58.6743
11
171.246
21
-58.6736
0
LINE
8
BLACK
6
CONTINUOUS
10
171.246
20
-58.6736
11
170.849
21
-58.7132
0
LINE
8
BLACK
6
CONTINUOUS
10
170.849
20
-58.7132
11
170.458
21
-58.7928
0
LINE
8
BLACK
6
CONTINUOUS
10
170.458
20
-58.7928
11
170.077
21
-58.9115
0
LINE
8
BLACK
6
CONTINUOUS
10
170.077
20
-58.9115
11
169.709
21
-59.0681
0
LINE
8
BLACK
6
CONTINUOUS
10
169.709
20
-59.0681
11
169.36
21
-59.2611
0
LINE
8
BLACK
6
CONTINUOUS
10
169.36
20
-59.2611
11
169.032
21
-59.4883
0
LINE
8
BLACK
6
CONTINUOUS
10
169.032
20
-59.4883
11
168.728
21
-59.7476
0
LINE
8
BLACK
6
CONTINUOUS
10
168.728
20
-59.7476
11
168.452
21
-60.0362
0
LINE
8
BLACK
6
CONTINUOUS
10
168.452
20
-60.0362
11
168.207
21
-60.3511
0
LINE
8
BLACK
6
CONTINUOUS
10
168.207
20
-60.3511
11
167.995
21
-60.6893
0
LINE
8
BLACK
6
CONTINUOUS
10
167.995
20
-60.6893
11
167.818
21
-61.0472
0
LINE
8
BLACK
6
CONTINUOUS
10
167.818
20
-61.0472
11
167.678
21
-61.4211
0
LINE
8
BLACK
6
CONTINUOUS
10
167.678
20
-61.4211
11
167.577
21
-61.8072
0
LINE
8
BLACK
6
CONTINUOUS
10
167.577
20
-61.8072
11
167.515
21
-62.2016
0
LINE
8
BLACK
6
CONTINUOUS
10
167.515
20
-62.2016
11
167.494
21
-62.6002
0
LINE
8
BLACK
6
CONTINUOUS
10
167.494
20
-62.6002
11
167.513
21
-62.9989
0
LINE
8
BLACK
6
CONTINUOUS
10
167.513
20
-62.9989
11
167.572
21
-63.3937
0
LINE
8
BLACK
6
CONTINUOUS
10
138.999
20
-62.1414
11
139.063
21
-61.7499
0
LINE
8
BLACK
6
CONTINUOUS
10
139.063
20
-61.7499
11
139.164
21
-61.3664
0
LINE
8
BLACK
6
CONTINUOUS
10
139.164
20
-61.3664
11
139.302
21
-60.9946
0
LINE
8
BLACK
6
CONTINUOUS
10
139.302
20
-60.9946
11
139.476
21
-60.6381
0
LINE
8
BLACK
6
CONTINUOUS
10
139.476
20
-60.6381
11
139.684
21
-60.3002
0
LINE
8
BLACK
6
CONTINUOUS
10
139.684
20
-60.3002
11
139.924
21
-59.9843
0
LINE
8
BLACK
6
CONTINUOUS
10
139.924
20
-59.9843
11
140.193
21
-59.6932
0
LINE
8
BLACK
6
CONTINUOUS
10
140.193
20
-59.6932
11
140.49
21
-59.4299
0
LINE
8
BLACK
6
CONTINUOUS
10
140.49
20
-59.4299
11
140.811
21
-59.1967
0
LINE
8
BLACK
6
CONTINUOUS
10
140.811
20
-59.1967
11
141.153
21
-58.996
0
LINE
8
BLACK
6
CONTINUOUS
10
141.153
20
-58.996
11
141.513
21
-58.8296
0
LINE
8
BLACK
6
CONTINUOUS
10
141.513
20
-58.8296
11
141.888
21
-58.6992
0
LINE
8
BLACK
6
CONTINUOUS
10
141.888
20
-58.6992
11
142.273
21
-58.6059
0
LINE
8
BLACK
6
CONTINUOUS
10
142.273
20
-58.6059
11
142.666
21
-58.5507
0
LINE
8
BLACK
6
CONTINUOUS
10
142.666
20
-58.5507
11
143.062
21
-58.5341
0
LINE
8
BLACK
6
CONTINUOUS
10
143.062
20
-58.5341
11
143.458
21
-58.5562
0
LINE
8
BLACK
6
CONTINUOUS
10
143.458
20
-58.5562
11
143.85
21
-58.6169
0
LINE
8
BLACK
6
CONTINUOUS
10
143.85
20
-58.6169
11
144.235
21
-58.7156
0
LINE
8
BLACK
6
CONTINUOUS
10
144.235
20
-58.7156
11
144.607
21
-58.8512
0
LINE
8
BLACK
6
CONTINUOUS
10
144.607
20
-58.8512
11
144.965
21
-59.0226
0
LINE
8
BLACK
6
CONTINUOUS
10
144.965
20
-59.0226
11
145.304
21
-59.2281
0
LINE
8
BLACK
6
CONTINUOUS
10
145.304
20
-59.2281
11
145.622
21
-59.4657
0
LINE
8
BLACK
6
CONTINUOUS
10
145.622
20
-59.4657
11
145.915
21
-59.7332
0
LINE
8
BLACK
6
CONTINUOUS
10
145.915
20
-59.7332
11
146.18
21
-60.0279
0
LINE
8
BLACK
6
CONTINUOUS
10
146.18
20
-60.0279
11
146.416
21
-60.3472
0
LINE
8
BLACK
6
CONTINUOUS
10
146.416
20
-60.3472
11
146.619
21
-60.6879
0
LINE
8
BLACK
6
CONTINUOUS
10
146.619
20
-60.6879
11
146.788
21
-61.0468
0
LINE
8
BLACK
6
CONTINUOUS
10
146.788
20
-61.0468
11
146.921
21
-61.4205
0
LINE
8
BLACK
6
CONTINUOUS
10
146.921
20
-61.4205
11
147.017
21
-61.8054
0
LINE
8
BLACK
6
CONTINUOUS
10
147.017
20
-61.8054
11
147.075
21
-62.1978
0
LINE
8
BLACK
6
CONTINUOUS
10
147.075
20
-62.1978
11
147.094
21
-62.594
0
LINE
8
BLACK
6
CONTINUOUS
10
147.094
20
-62.594
11
147.092
21
-62.7073
0
LINE
8
BLACK
6
CONTINUOUS
10
147.092
20
-62.7073
11
147.062
21
-63.1028
0
LINE
8
BLACK
6
CONTINUOUS
10
147.062
20
-63.1028
11
146.993
21
-63.4935
0
LINE
8
BLACK
6
CONTINUOUS
10
146.993
20
-63.4935
11
146.886
21
-63.8755
0
LINE
8
BLACK
6
CONTINUOUS
10
146.886
20
-63.8755
11
146.743
21
-64.2453
0
LINE
8
BLACK
6
CONTINUOUS
10
146.743
20
-64.2453
11
146.564
21
-64.5994
0
LINE
8
BLACK
6
CONTINUOUS
10
146.564
20
-64.5994
11
146.352
21
-64.9343
0
LINE
8
BLACK
6
CONTINUOUS
10
146.352
20
-64.9343
11
146.107
21
-65.2469
0
LINE
8
BLACK
6
CONTINUOUS
10
146.107
20
-65.2469
11
145.834
21
-65.5341
0
LINE
8
BLACK
6
CONTINUOUS
10
145.834
20
-65.5341
11
145.534
21
-65.7933
0
LINE
8
BLACK
6
CONTINUOUS
10
145.534
20
-65.7933
11
145.209
21
-66.022
0
LINE
8
BLACK
6
CONTINUOUS
10
145.209
20
-66.022
11
144.865
21
-66.2179
0
LINE
8
BLACK
6
CONTINUOUS
10
144.865
20
-66.2179
11
144.502
21
-66.3792
0
LINE
8
BLACK
6
CONTINUOUS
10
144.502
20
-66.3792
11
144.126
21
-66.5044
0
LINE
8
BLACK
6
CONTINUOUS
10
144.126
20
-66.5044
11
143.739
21
-66.5923
0
LINE
8
BLACK
6
CONTINUOUS
10
143.739
20
-66.5923
11
143.345
21
-66.642
0
LINE
8
BLACK
6
CONTINUOUS
10
143.345
20
-66.642
11
142.949
21
-66.6531
0
LINE
8
BLACK
6
CONTINUOUS
10
142.949
20
-66.6531
11
142.553
21
-66.6254
0
LINE
8
BLACK
6
CONTINUOUS
10
142.553
20
-66.6254
11
142.162
21
-66.5593
0
LINE
8
BLACK
6
CONTINUOUS
10
142.162
20
-66.5593
11
141.779
21
-66.4553
0
LINE
8
BLACK
6
CONTINUOUS
10
141.779
20
-66.4553
11
141.409
21
-66.3144
0
LINE
8
BLACK
6
CONTINUOUS
10
141.409
20
-66.3144
11
141.053
21
-66.138
0
LINE
8
BLACK
6
CONTINUOUS
10
141.053
20
-66.138
11
140.717
21
-65.9278
0
LINE
8
BLACK
6
CONTINUOUS
10
140.717
20
-65.9278
11
140.403
21
-65.6858
0
LINE
8
BLACK
6
CONTINUOUS
10
140.403
20
-65.6858
11
140.113
21
-65.4143
0
LINE
8
BLACK
6
CONTINUOUS
10
140.113
20
-65.4143
11
139.852
21
-65.1158
0
LINE
8
BLACK
6
CONTINUOUS
10
139.852
20
-65.1158
11
139.621
21
-64.7933
0
LINE
8
BLACK
6
CONTINUOUS
10
139.621
20
-64.7933
11
139.423
21
-64.4498
0
LINE
8
BLACK
6
CONTINUOUS
10
139.423
20
-64.4498
11
139.259
21
-64.0886
0
LINE
8
BLACK
6
CONTINUOUS
10
139.259
20
-64.0886
11
139.131
21
-63.7131
0
LINE
8
BLACK
6
CONTINUOUS
10
139.131
20
-63.7131
11
139.041
21
-63.3269
0
LINE
8
BLACK
6
CONTINUOUS
10
139.041
20
-63.3269
11
138.988
21
-62.9337
0
LINE
8
BLACK
6
CONTINUOUS
10
138.988
20
-62.9337
11
138.976
21
-62.5802
0
LINE
8
BLACK
6
CONTINUOUS
10
138.976
20
-62.5802
11
138.974
21
-62.5373
0
LINE
8
BLACK
6
CONTINUOUS
10
138.974
20
-62.5373
11
138.999
21
-62.1414
0
LINE
8
BLACK
6
CONTINUOUS
10
139.167
20
-63.3738
11
139.265
21
-63.7606
0
LINE
8
BLACK
6
CONTINUOUS
10
139.265
20
-63.7606
11
139.403
21
-64.1354
0
LINE
8
BLACK
6
CONTINUOUS
10
139.403
20
-64.1354
11
139.577
21
-64.4945
0
LINE
8
BLACK
6
CONTINUOUS
10
139.577
20
-64.4945
11
139.787
21
-64.8342
0
LINE
8
BLACK
6
CONTINUOUS
10
139.787
20
-64.8342
11
140.03
21
-65.1509
0
LINE
8
BLACK
6
CONTINUOUS
10
140.03
20
-65.1509
11
140.303
21
-65.4414
0
LINE
8
BLACK
6
CONTINUOUS
10
140.303
20
-65.4414
11
140.605
21
-65.7027
0
LINE
8
BLACK
6
CONTINUOUS
10
140.605
20
-65.7027
11
140.932
21
-65.9323
0
LINE
8
BLACK
6
CONTINUOUS
10
140.932
20
-65.9323
11
141.28
21
-66.1276
0
LINE
8
BLACK
6
CONTINUOUS
10
141.28
20
-66.1276
11
141.646
21
-66.2868
0
LINE
8
BLACK
6
CONTINUOUS
10
141.646
20
-66.2868
11
142.026
21
-66.4082
0
LINE
8
BLACK
6
CONTINUOUS
10
142.026
20
-66.4082
11
142.417
21
-66.4905
0
LINE
8
BLACK
6
CONTINUOUS
10
142.417
20
-66.4905
11
142.814
21
-66.5329
0
LINE
8
BLACK
6
CONTINUOUS
10
142.814
20
-66.5329
11
143.213
21
-66.535
0
LINE
8
BLACK
6
CONTINUOUS
10
143.213
20
-66.535
11
143.61
21
-66.4967
0
LINE
8
BLACK
6
CONTINUOUS
10
143.61
20
-66.4967
11
144.002
21
-66.4185
0
LINE
8
BLACK
6
CONTINUOUS
10
144.002
20
-66.4185
11
144.383
21
-66.3011
0
LINE
8
BLACK
6
CONTINUOUS
10
144.383
20
-66.3011
11
144.751
21
-66.1458
0
LINE
8
BLACK
6
CONTINUOUS
10
144.751
20
-66.1458
11
145.101
21
-65.9541
0
LINE
8
BLACK
6
CONTINUOUS
10
145.101
20
-65.9541
11
145.43
21
-65.728
0
LINE
8
BLACK
6
CONTINUOUS
10
145.43
20
-65.728
11
145.735
21
-65.4698
0
LINE
8
BLACK
6
CONTINUOUS
10
145.735
20
-65.4698
11
146.011
21
-65.1822
0
LINE
8
BLACK
6
CONTINUOUS
10
146.011
20
-65.1822
11
146.258
21
-64.868
0
LINE
8
BLACK
6
CONTINUOUS
10
146.258
20
-64.868
11
146.471
21
-64.5306
0
LINE
8
BLACK
6
CONTINUOUS
10
146.471
20
-64.5306
11
146.649
21
-64.1734
0
LINE
8
BLACK
6
CONTINUOUS
10
146.649
20
-64.1734
11
146.79
21
-63.8
0
LINE
8
BLACK
6
CONTINUOUS
10
146.79
20
-63.8
11
146.893
21
-63.4142
0
LINE
8
BLACK
6
CONTINUOUS
10
146.893
20
-63.4142
11
146.956
21
-63.02
0
LINE
8
BLACK
6
CONTINUOUS
10
146.956
20
-63.02
11
146.979
21
-62.6215
0
LINE
8
BLACK
6
CONTINUOUS
10
146.979
20
-62.6215
11
146.979
21
-62.594
0
LINE
8
BLACK
6
CONTINUOUS
10
146.979
20
-62.594
11
146.959
21
-62.1953
0
LINE
8
BLACK
6
CONTINUOUS
10
146.959
20
-62.1953
11
146.898
21
-61.8007
0
LINE
8
BLACK
6
CONTINUOUS
10
146.898
20
-61.8007
11
146.799
21
-61.4142
0
LINE
8
BLACK
6
CONTINUOUS
10
146.799
20
-61.4142
11
146.66
21
-61.0399
0
LINE
8
BLACK
6
CONTINUOUS
10
146.66
20
-61.0399
11
146.484
21
-60.6814
0
LINE
8
BLACK
6
CONTINUOUS
10
146.484
20
-60.6814
11
146.273
21
-60.3425
0
LINE
8
BLACK
6
CONTINUOUS
10
146.273
20
-60.3425
11
146.029
21
-60.0266
0
LINE
8
BLACK
6
CONTINUOUS
10
146.029
20
-60.0266
11
145.755
21
-59.7371
0
LINE
8
BLACK
6
CONTINUOUS
10
145.755
20
-59.7371
11
145.452
21
-59.4768
0
LINE
8
BLACK
6
CONTINUOUS
10
145.452
20
-59.4768
11
145.125
21
-59.2484
0
LINE
8
BLACK
6
CONTINUOUS
10
145.125
20
-59.2484
11
144.776
21
-59.0542
0
LINE
8
BLACK
6
CONTINUOUS
10
144.776
20
-59.0542
11
144.409
21
-58.8963
0
LINE
8
BLACK
6
CONTINUOUS
10
144.409
20
-58.8963
11
144.028
21
-58.7763
0
LINE
8
BLACK
6
CONTINUOUS
10
144.028
20
-58.7763
11
143.638
21
-58.6954
0
LINE
8
BLACK
6
CONTINUOUS
10
143.638
20
-58.6954
11
143.24
21
-58.6543
0
LINE
8
BLACK
6
CONTINUOUS
10
143.24
20
-58.6543
11
142.841
21
-58.6536
0
LINE
8
BLACK
6
CONTINUOUS
10
142.841
20
-58.6536
11
142.444
21
-58.6933
0
LINE
8
BLACK
6
CONTINUOUS
10
142.444
20
-58.6933
11
142.053
21
-58.7729
0
LINE
8
BLACK
6
CONTINUOUS
10
142.053
20
-58.7729
11
141.672
21
-58.8916
0
LINE
8
BLACK
6
CONTINUOUS
10
141.672
20
-58.8916
11
141.305
21
-59.0482
0
LINE
8
BLACK
6
CONTINUOUS
10
141.305
20
-59.0482
11
140.955
21
-59.2411
0
LINE
8
BLACK
6
CONTINUOUS
10
140.955
20
-59.2411
11
140.627
21
-59.4683
0
LINE
8
BLACK
6
CONTINUOUS
10
140.627
20
-59.4683
11
140.323
21
-59.7276
0
LINE
8
BLACK
6
CONTINUOUS
10
140.323
20
-59.7276
11
140.048
21
-60.0162
0
LINE
8
BLACK
6
CONTINUOUS
10
140.048
20
-60.0162
11
139.802
21
-60.3312
0
LINE
8
BLACK
6
CONTINUOUS
10
139.802
20
-60.3312
11
139.59
21
-60.6693
0
LINE
8
BLACK
6
CONTINUOUS
10
139.59
20
-60.6693
11
139.413
21
-61.0272
0
LINE
8
BLACK
6
CONTINUOUS
10
139.413
20
-61.0272
11
139.274
21
-61.4011
0
LINE
8
BLACK
6
CONTINUOUS
10
139.274
20
-61.4011
11
139.172
21
-61.7872
0
LINE
8
BLACK
6
CONTINUOUS
10
139.172
20
-61.7872
11
139.111
21
-62.1816
0
LINE
8
BLACK
6
CONTINUOUS
10
139.111
20
-62.1816
11
139.089
21
-62.5802
0
LINE
8
BLACK
6
CONTINUOUS
10
139.089
20
-62.5802
11
139.108
21
-62.979
0
LINE
8
BLACK
6
CONTINUOUS
10
139.108
20
-62.979
11
139.167
21
-63.3738
  0
ENDSEC
  0
EOF
