0
SECTION
2
HEADER
9
$INSUNITS
70
4
9
$ACADVER
1
AC1014
9
$HANDSEED
5
FFFF
0
ENDSEC
0
SECTION
2
TABLES
0
TABLE
2
VPORT
5
8
100
AcDbSymbolTable
0
ENDTAB
0
TABLE
2
LTYPE
5
5
100
AcDbSymbolTable
0
LTYPE
5
14
100
AcDbSymbolTableRecord
100
AcDbLinetypeTableRecord
2
BYBLOCK
70
0
0
LTYPE
5
15
100
AcDbSymbolTableRecord
100
AcDbLinetypeTableRecord
2
BYLAYER
70
0
0
ENDTAB
0
TABLE
2
LAYER
5
2
100
AcDbSymbolTable
70
2
0
LAYER
5
50
100
AcDbSymbolTableRecord
100
AcDbLayerTableRecord
2
0
70
0
6
CONTINUOUS
0
ENDTAB
0
TABLE
2
STYLE
5
3
100
AcDbSymbolTable
70
1
0
STYLE
5
11
100
AcDbSymbolTableRecord
100
AcDbTextStyleTableRecord
2
STANDARD
70
0
0
ENDTAB
0
TABLE
2
VIEW
5
6
100
AcDbSymbolTable
70
0
0
ENDTAB
0
TABLE
2
UCS
5
7
100
AcDbSymbolTable
70
0
0
ENDTAB
0
TABLE
2
APPID
5
9
100
AcDbSymbolTable
70
2
0
APPID
5
12
100
AcDbSymbolTableRecord
100
AcDbRegAppTableRecord
2
ACAD
70
0
0
ENDTAB
0
TABLE
2
DIMSTYLE
5
A
100
AcDbSymbolTable
70
1
0
ENDTAB
0
TABLE
2
BLOCK_RECORD
5
1
100
AcDbSymbolTable
70
1
0
BLOCK_RECORD
5
1F
100
AcDbSymbolTableRecord
100
AcDbBlockTableRecord
2
*MODEL_SPACE
0
BLOCK_RECORD
5
1B
100
AcDbSymbolTableRecord
100
AcDbBlockTableRecord
2
*PAPER_SPACE
0
ENDTAB
0
ENDSEC
0
SECTION
2
BLOCKS
0
BLOCK
5
20
100
AcDbEntity
100
AcDbBlockBegin
2
*MODEL_SPACE
0
ENDBLK
5
21
100
AcDbEntity
100
AcDbBlockEnd
0
BLOCK
5
1C
100
AcDbEntity
100
AcDbBlockBegin
2
*PAPER_SPACE
0
ENDBLK
5
1D
100
AcDbEntity
100
AcDbBlockEnd
0
ENDSEC
0
SECTION
2
ENTITIES
0
ARC
5
100
100
AcDbEntity
8
0
100
AcDbCircle
10
54.679063783838842
20
-6.0825377199681796
30
0
40
5.9999999999999876
210
0
220
-0
230
1
100
AcDbArc
50
0
51
90.00000000000027
0
LINE
5
101
100
AcDbEntity
8
0
100
AcDbLine
10
54.679063783838814
20
-0.082537719968202028
30
0
11
6.1790637838389273
21
-0.082537719968367174
31
3.944304526105059e-30
0
ARC
5
102
100
AcDbEntity
8
0
100
AcDbCircle
10
6.1790637838389406
20
-6.0825377199683395
30
0
40
5.9999999999999716
210
9.8607613152627965e-32
220
-6.5738408768417934e-31
230
1
100
AcDbArc
50
90.000000000000128
51
180
0
LINE
5
103
100
AcDbEntity
8
0
100
AcDbLine
10
6.1790637838392337
20
-112.48253771996794
30
0
11
54.67906378383914
21
-112.48253771996778
31
-3.944304526105059e-30
0
CIRCLE
5
104
100
AcDbEntity
8
0
100
AcDbCircle
10
55.679063783838849
20
-5.23253771996818
30
0
40
1.7499999999999964
210
1.6900425814854972e-46
220
-4.9303806576313238e-32
230
1
0
CIRCLE
5
105
100
AcDbEntity
8
0
100
AcDbCircle
10
5.1790637838392151
20
-107.33253771996797
30
0
40
1.7499999999999964
210
1.6900425814854972e-46
220
-4.9303806576313238e-32
230
1
0
CIRCLE
5
106
100
AcDbEntity
8
0
100
AcDbCircle
10
5.1790637838389397
20
-5.2325377199683576
30
0
40
1.7499999999999964
210
1.6900425814854972e-46
220
-4.9303806576313238e-32
230
1
0
CIRCLE
5
107
100
AcDbEntity
8
0
100
AcDbCircle
10
55.679063783839126
20
-107.33253771996779
30
0
40
1.7499999999999964
210
1.6900425814854972e-46
220
-4.9303806576313238e-32
230
1
0
LINE
5
108
100
AcDbEntity
8
0
100
AcDbLine
10
55.67906378383875
20
-8.2325377199681693
30
0
11
57.679301756758854
21
-8.2325377199680556
31
0
0
ELLIPSE
5
109
100
AcDbEntity
8
0
100
AcDbEllipse
10
57.678825754274044
20
-9.2327757495327578
30
0
11
0.70744336578092204
21
0.70744336578091815
31
0.0
40
0.99952422397232665
41
5.4980250883955843
42
7.0683455259634833
0
LINE
5
110
100
AcDbEntity
8
0
100
AcDbLine
10
58.679063783838728
20
-9.2322997470480548
30
6.9775898615443819e-32
11
58.679063783839105
21
-103.33277569288789
31
0
0
ELLIPSE
5
111
100
AcDbEntity
8
0
100
AcDbEllipse
10
57.678825754274413
20
-103.3322996904031
30
0
11
0.70744336578092559
21
-0.70744336578091327
31
0.0
40
0.99952422397232832
41
5.4980250883956892
42
7.0683455259634878
0
LINE
5
112
100
AcDbEntity
8
0
100
AcDbLine
10
57.679301756759216
20
-104.33253771996777
30
-5.2331923961587942e-32
11
55.679063783839105
21
-104.33253771996777
31
0
0
ARC
5
113
100
AcDbEntity
8
0
100
AcDbCircle
10
55.679063783839126
20
-107.33253771996779
30
0
40
3.0000000000000071
210
9.8607613152626498e-32
220
5.8387436013533923e-46
230
1
100
AcDbArc
50
90.000000000000398
51
180
0
LINE
5
114
100
AcDbEntity
8
0
100
AcDbLine
10
52.679063783839126
20
-107.3325377199678
30
2.958228394578789e-31
11
52.679063783839133
21
-109.33277569288789
31
0
0
ELLIPSE
5
115
100
AcDbEntity
8
0
100
AcDbEllipse
10
51.678825754274428
20
-109.33229969040309
30
0
11
0.70744336578092559
21
-0.70744336578091327
31
0.0
40
0.99952422397232832
41
5.498025088395659
42
7.0683455259634682
0
ELLIPSE
5
116
100
AcDbEntity
8
0
100
AcDbEllipse
10
9.1793018134039173
20
-109.33229969040323
30
0
11
-0.70744336578092204
21
-0.70744336578091815
31
0.0
40
0.99952422397232665
41
5.4980250883956696
42
7.0683455259635029
0
LINE
5
117
100
AcDbEntity
8
0
100
AcDbLine
10
8.1790637838392364
20
-109.33277569288802
30
-6.9775898615450815e-32
11
8.1790637838392115
21
-107.33253771996795
31
0
0
ARC
5
118
100
AcDbEntity
8
0
100
AcDbCircle
10
5.1790637838392151
20
-107.33253771996797
30
0
40
2.9999999999999973
210
-1.8771682370284267e-60
220
3.1702553147973543e-46
230
1
100
AcDbArc
50
0
51
90.000000000000327
0
LINE
5
119
100
AcDbEntity
8
0
100
AcDbLine
10
5.1790637838391982
20
-104.332537719968
30
-9.0148819254031462e-46
11
3.1788258109191099
21
-104.33253771996797
31
0
0
ELLIPSE
5
120
100
AcDbEntity
8
0
100
AcDbEllipse
10
3.1793018134039119
20
-103.33229969040329
30
0
11
-0.7074433657809186
21
-0.70744336578092182
31
0.0
40
0.9995242239723271
41
5.4980250883956696
42
7.0683455259634833
0
ELLIPSE
5
121
100
AcDbEntity
8
0
100
AcDbEllipse
10
3.1793018134036544
20
-9.2327757495330509
30
0
11
-0.70744336578092248
21
0.70744336578091693
31
0.0
40
0.99952422397232854
41
5.4980250883956838
42
7.0683455259634833
0
LINE
5
122
100
AcDbEntity
8
0
100
AcDbLine
10
3.1788258109188483
20
-8.2325377199683718
30
-6.6379605075183912e-35
11
5.1790637838389486
21
-8.2325377199683487
31
0
0
ARC
5
123
100
AcDbEntity
8
0
100
AcDbCircle
10
5.1790637838389397
20
-5.2325377199683576
30
0
40
2.9999999999999916
210
2.3035668114714189e-47
220
6.8199277676211567e-62
230
1
100
AcDbArc
50
-89.999999999999844
51
0
0
LINE
5
124
100
AcDbEntity
8
0
100
AcDbLine
10
8.1790637838389237
20
-5.2325377199683496
30
-1.3137173103045067e-46
11
8.1790637838389326
21
-3.2322997470482564
31
0
0
ELLIPSE
5
125
100
AcDbEntity
8
0
100
AcDbEllipse
10
9.179301813403633
20
-3.2327757495330545
30
0
11
-0.70744336578093192
21
0.70744336578090738
31
0.0
40
0.99952422397232854
41
5.4980250883956705
42
7.0683455259634753
0
LINE
5
126
100
AcDbEntity
8
0
100
AcDbLine
10
9.1788258109188288
20
-2.2325377199683754
30
-6.9775898615449731e-32
11
51.679301756758846
21
-2.2325377199682048
31
3.944304526105059e-30
0
ELLIPSE
5
127
100
AcDbEntity
8
0
100
AcDbEllipse
10
51.678825754274051
20
-3.2327757495329124
30
0
11
0.7074433657809186
21
0.70744336578092182
31
0.0
40
0.9995242239723271
41
5.4980250883956892
42
7.0683455259634984
0
LINE
5
128
100
AcDbEntity
8
0
100
AcDbLine
10
52.679063783838735
20
-3.2322997470481059
30
3.4854759505187742e-32
11
52.679063783838757
21
-5.2325377199681897
31
0
0
ARC
5
129
100
AcDbEntity
8
0
100
AcDbCircle
10
55.679063783838849
20
-5.23253771996818
30
0
40
3.0000000000000959
210
0
220
0
230
1
100
AcDbArc
50
180
51
269.99999999999807
0
CIRCLE
5
130
100
AcDbEntity
8
0
100
AcDbCircle
10
30.42906378383886
20
-15.650097767708662
30
0
40
6.25
210
0
220
0
230
1
0
LINE
5
131
100
AcDbEntity
8
0
100
AcDbLine
10
0.17906378383889088
20
-6.082537719968153
30
0
11
0.17906378383916258
21
-106.48253771996818
31
1.7758728479293889e-15
0
ARC
5
132
100
AcDbEntity
8
0
100
AcDbCircle
10
6.1790637838391671
20
-106.48253771996814
30
0
40
6.0000000000000044
210
2.9597880798823124e-16
220
1.7525465996247587e-30
230
1
100
AcDbArc
50
180
51
270.00000000000017
0
ARC
5
133
100
AcDbEntity
8
0
100
AcDbCircle
10
54.679063783839169
20
-106.48253771996801
30
0
40
6.0000000000000142
210
-0
220
2.5292422177738843e-16
230
1
100
AcDbArc
50
-90
51
0
0
LINE
5
134
100
AcDbEntity
8
0
100
AcDbLine
10
60.679063783839169
20
-106.48253771996799
30
0
11
60.679063783838899
21
-6.0825377199679842
31
-1.7758728479293928e-15
0
LINE
5
135
100
AcDbEntity
8
0
100
AcDbLine
10
2.1790637838392168
20
-103.33277569288809
30
0
11
2.1790637838389624
21
-9.2322997470482449
31
-3.944304526105059e-30
0
LINE
5
136
100
AcDbEntity
8
0
100
AcDbLine
10
51.679301756759237
20
-110.3325377199678
30
0
11
9.1788258109191201
21
-110.33253771996795
31
0
0
LWPOLYLINE
5
137
100
AcDbEntity
8
0
100
AcDbPolyline
90
16
70
1
43
0.0
10
5.8077434402825281
20
-99.41301244015375
10
12.865102753155902
20
-106.47037175302748
42
0.19891236737966864
10
14.986423096715695
20
-107.34905140946792
10
45.98642309671569
20
-107.3490514094678
42
0.19891236737964837
10
48.107743440283002
20
-106.47037175302431
10
55.05038412739907
20
-99.527731065908611
42
0.19891236737965834
10
55.929063783839503
20
-97.406410722348937
10
55.929063783841606
20
-15.892738454828825
42
0.19891236737965831
10
55.050384127401308
20
-13.77141811126916
10
47.807743440281989
20
-6.5287774241494576
42
0.1989123673796577
10
45.686423096722386
20
-5.6500977677090427
10
15.171704470961338
20
-5.650097767708254
42
0.19891236737965623
10
13.050384127401685
20
-6.5287774241485463
10
5.8012100337937405
20
-13.777951517756094
42
0.21612560885038082
10
4.9290637838411637
20
-16.097155042837862
10
4.929063783843163
20
-97.291692096594105
42
0.19891236737959983
0
LWPOLYLINE
5
138
100
AcDbEntity
8
0
100
AcDbPolyline
90
4
70
1
43
0.0
10
51.389063783840292
20
-75.230762226467803
10
53.929063783840299
20
-75.230762226467803
10
53.929063783840299
20
-57.450762226467802
10
51.389063783840292
20
-57.450762226467802
0
LINE
5
139
100
AcDbEntity
8
0
100
AcDbLine
10
37.82906378383889
20
-24.150097767708743
30
0
11
23.029063783838897
21
-24.150097767708743
31
0
0
LINE
5
140
100
AcDbEntity
8
0
100
AcDbLine
10
39.429063783838892
20
-22.550097767708746
30
0
11
39.429063783838892
21
-8.7500977677087537
31
0
0
LINE
5
141
100
AcDbEntity
8
0
100
AcDbLine
10
21.429063783838899
20
-8.7500977677087395
30
0
11
21.429063783838899
21
-22.550097767708746
31
0
0
LINE
5
142
100
AcDbEntity
8
0
100
AcDbLine
10
23.029063783838897
20
-7.1500977677087505
30
0
11
37.82906378383889
21
-7.1500977677087505
31
0
0
LINE
5
143
100
AcDbEntity
8
0
100
AcDbLine
10
10.597556280214652
20
-37.667862692357296
30
0
11
10.597556280214654
21
-37.572861985201548
31
2.7734124023383373e-17
0
LINE
5
144
100
AcDbEntity
8
0
100
AcDbLine
10
11.647556280214795
20
-30.205338870386672
30
4.4408920985006262e-15
11
11.647556280214797
21
-30.167861985201498
31
4.4518329494990487e-15
0
LINE
5
145
100
AcDbEntity
8
0
100
AcDbLine
10
10.647556280214793
20
-30.205338870386651
30
0
11
10.647556280214797
21
-30.167861985201476
31
1.0940850998422521e-17
0
LINE
5
146
100
AcDbEntity
8
0
100
AcDbLine
10
10.647556280214641
20
-37.767861985201463
30
0
11
11.647556280214641
21
-37.767861985201478
31
5.8067830766325428e-16
0
LINE
5
147
100
AcDbEntity
8
0
100
AcDbLine
10
11.647556280214637
20
-37.865774165979985
30
0
11
11.647556280214641
21
-37.767861985201478
31
5.8067830766325428e-16
0
LINE
5
148
100
AcDbEntity
8
0
100
AcDbLine
10
10.647556280214641
20
-37.800149714818751
30
0
11
10.647556280214641
21
-37.767861985201463
31
0
0
LINE
5
149
100
AcDbEntity
8
0
100
AcDbLine
10
6.0475562802146481
20
-38.167861985201512
30
0
11
10.647556280214641
21
-38.167861985201604
31
-1.7697718832496666e-15
0
LINE
5
150
100
AcDbEntity
8
0
100
AcDbLine
10
11.647556280214641
20
-38.167861985201611
30
0
11
11.799225904725279
21
-38.167861985201618
31
8.8071260884757612e-17
0
LINE
5
151
100
AcDbEntity
8
0
100
AcDbLine
10
11.799225904725279
20
-38.167861985201618
30
8.8071260884757612e-17
11
12.797556280214833
21
-38.16786198520159
31
5.7970879292789475e-16
0
LINE
5
152
100
AcDbEntity
8
0
100
AcDbLine
10
11.799225904725429
20
-30.667861985201618
30
4.4408920985006262e-15
11
11.64755628021479
21
-30.667861985201611
31
4.3528208376158685e-15
0
LINE
5
153
100
AcDbEntity
8
0
100
AcDbLine
10
11.647556280214783
20
-30.967861985201615
30
0
11
11.799225904725422
21
-30.967861985201619
31
8.8071260884757612e-17
0
LINE
5
154
100
AcDbEntity
8
0
100
AcDbLine
10
10.492995458705128
20
-30.967861985201598
30
0
11
10.397556282435875
21
-30.967861985201598
31
-5.5419459360804665e-17
0
LWPOLYLINE
5
155
100
AcDbEntity
8
0
100
AcDbPolyline
90
5
70
1
43
0.0
10
9.5975562802147856
20
-30.96786198520158
10
6.34755628021479
20
-30.967861985201516
10
6.3475562802147847
20
-31.317861985201517
10
9.5975562802147785
20
-31.317861985201585
10
9.597556280214782
20
-31.110308028366575
0
LINE
5
156
100
AcDbEntity
8
0
100
AcDbLine
10
12.797556280214785
20
-30.967861985201587
30
0
11
11.799225904725422
21
-30.967861985201619
31
8.8071260884757612e-17
0
LINE
5
157
100
AcDbEntity
8
0
100
AcDbLine
10
11.647556280214641
20
-37.867861985201515
30
0
11
11.647556280214637
21
-37.865774165979985
31
0
0
LINE
5
158
100
AcDbEntity
8
0
100
AcDbLine
10
11.647556280214623
20
-38.667861985201498
30
0
11
11.647556280214626
21
-38.630385100016326
31
1.0940850998421225e-17
0
LINE
5
159
100
AcDbEntity
8
0
100
AcDbLine
10
11.647556280214626
20
-38.630385100016326
30
1.0940850998421225e-17
11
11.647556280214635
21
-38.214708091683427
31
1.2135107251231429e-16
0
LINE
5
160
100
AcDbEntity
8
0
100
AcDbLine
10
11.647556280214635
20
-38.214708091683427
30
1.2135107251231429e-16
11
11.647556280214641
21
-38.167861985201611
31
0
0
LINE
5
161
100
AcDbEntity
8
0
100
AcDbLine
10
10.647556280214786
20
-30.621015878719497
30
0
11
10.647556280214793
21
-30.205338870386651
31
0
0
LINE
5
162
100
AcDbEntity
8
0
100
AcDbLine
10
10.647556280214786
20
-30.66786198520149
30
0
11
10.647556280214786
21
-30.621015878719497
31
0
0
LINE
5
163
100
AcDbEntity
8
0
100
AcDbLine
10
10.647556280214774
20
-31.067861985201461
30
0
11
10.647556280214774
21
-31.035588200243769
31
9.4218788629980614e-18
0
LINE
5
164
100
AcDbEntity
8
0
100
AcDbLine
10
5.6475562802156656
20
-37.167861646740789
30
0
11
5.6475562802156851
21
-36.167862323662192
31
2.9193577689998307e-16
0
LWPOLYLINE
5
165
100
AcDbEntity
8
0
100
AcDbPolyline
90
5
70
1
43
0.0
10
6.3475562802146612
20
-37.517861985201513
10
6.3475562802146541
20
-37.867861985201515
10
9.5975562802146488
20
-37.867861985201586
10
9.5975562802146523
20
-37.725415942036491
10
9.5975562802146559
20
-37.517861985201584
0
LINE
5
166
100
AcDbEntity
8
0
100
AcDbLine
10
10.397556281544563
20
-37.8678619852016
30
0
11
10.492995458583316
21
-37.8678619852016
31
5.5419459807635333e-17
0
LINE
5
167
100
AcDbEntity
8
0
100
AcDbLine
10
6.0475562802146481
20
-38.167861985201512
30
0
11
6.0475562802146623
21
-37.417861985201512
31
2.1895198088826948e-16
0
LINE
5
168
100
AcDbEntity
8
0
100
AcDbLine
10
6.0475562802147831
20
-31.417861985201512
30
0
11
6.0475562802147973
21
-30.667861985201512
31
2.1895198088826948e-16
0
LINE
5
169
100
AcDbEntity
8
0
100
AcDbLine
10
10.647556280214786
20
-30.66786198520149
30
0
11
6.0475562802147973
21
-30.667861985201512
31
2.1895198088826948e-16
0
LINE
5
170
100
AcDbEntity
8
0
100
AcDbLine
10
11.799225904725652
20
-37.867861985201621
30
0
11
12.797556280214836
21
-37.867861985201586
31
5.7970879292789475e-16
0
LINE
5
171
100
AcDbEntity
8
0
100
AcDbLine
10
11.799225904725652
20
-37.867861985201621
30
0
11
11.647556280214641
21
-37.867861985201515
31
0
0
LINE
5
172
100
AcDbEntity
8
0
100
AcDbLine
10
9.6975562802146644
20
-37.372861985201524
30
0
11
9.6975562802146715
21
-37.017861985201591
31
1.03637270953762e-16
0
LINE
5
173
100
AcDbEntity
8
0
100
AcDbLine
10
9.6975562802146715
20
-37.017861985201591
30
1.03637270953762e-16
11
9.6975562802146857
21
-36.317861985201588
31
2.0435518216238445e-16
0
LINE
5
174
100
AcDbEntity
8
0
100
AcDbLine
10
9.6975562802147603
20
-32.517861985201584
30
0
11
9.6975562802146857
21
-36.317861985201588
31
2.0435518216238445e-16
0
LINE
5
175
100
AcDbEntity
8
0
100
AcDbLine
10
9.6975562802147603
20
-32.517861985201584
30
0
11
9.6975562802147746
21
-31.817861985201581
31
2.0435518216238445e-16
0
LINE
5
176
100
AcDbEntity
8
0
100
AcDbLine
10
9.6975562802147746
20
-31.817861985201581
30
2.0435518216238445e-16
11
9.6975562802147799
21
-31.462861985201531
31
1.036372709537957e-16
0
LINE
5
177
100
AcDbEntity
8
0
100
AcDbLine
10
10.647556280214774
20
-31.067861985201461
30
0
11
11.647556280214776
21
-31.067861985201475
31
5.8067830766325428e-16
0
LINE
5
178
100
AcDbEntity
8
0
100
AcDbLine
10
11.647556280214788
20
-30.621015878719511
30
0
11
11.647556280214795
21
-30.205338870386672
31
4.4408920985006262e-15
0
LINE
5
179
100
AcDbEntity
8
0
100
AcDbLine
10
11.647556280214777
20
-30.969949804423486
30
0
11
11.647556280214783
21
-30.967861985201615
31
0
0
LINE
5
180
100
AcDbEntity
8
0
100
AcDbLine
10
5.6475562802157553
20
-32.667861646740789
30
0
11
5.6475562802157757
21
-31.667862323662192
31
2.9193577689998307e-16
0
LINE
5
181
100
AcDbEntity
8
0
100
AcDbLine
10
6.0475562802147831
20
-31.417861985201512
30
0
11
6.0475562802147795
21
-31.567861985201439
31
-4.3790396177632373e-17
0
LINE
5
182
100
AcDbEntity
8
0
100
AcDbLine
10
6.0475562802146667
20
-37.267861985201506
30
-4.4408920985006262e-15
11
6.0475562802146623
21
-37.417861985201512
31
2.1895198088826948e-16
0
LINE
5
183
100
AcDbEntity
8
0
100
AcDbLine
10
12.797556280214833
20
-38.16786198520159
30
5.7970879292789475e-16
11
12.797556280214836
21
-37.867861985201586
31
5.7970879292789475e-16
0
LINE
5
184
100
AcDbEntity
8
0
100
AcDbLine
10
11.647556280214776
20
-31.067861985201475
30
5.8067830766325428e-16
11
11.647556280214777
21
-30.969949804423486
31
0
0
LINE
5
185
100
AcDbEntity
8
0
100
AcDbLine
10
10.597556280214778
20
-31.26286198520155
30
0
11
10.597556280214782
21
-31.167861339045931
31
2.7734106215251155e-17
0
LINE
5
186
100
AcDbEntity
8
0
100
AcDbLine
10
10.647556280214625
20
-38.667861985201476
30
0
11
10.647556280214626
21
-38.630385100016305
31
1.0940850998421225e-17
0
LINE
5
187
100
AcDbEntity
8
0
100
AcDbLine
10
10.647556280214637
20
-38.214708091683093
30
0
11
10.647556280214641
21
-38.167861985201604
31
-1.7697718832496666e-15
0
LINE
5
188
100
AcDbEntity
8
0
100
AcDbLine
10
10.647556280214626
20
-38.630385100016305
30
1.0940850998421225e-17
11
10.647556280214637
21
-38.214708091683093
31
0
0
LINE
5
189
100
AcDbEntity
8
0
100
AcDbLine
10
11.64755628021479
20
-30.667861985201611
30
4.3528208376158685e-15
11
11.647556280214788
21
-30.621015878719511
31
0
0
LINE
5
190
100
AcDbEntity
8
0
100
AcDbLine
10
12.797556280214792
20
-30.66786198520159
30
0
11
11.799225904725429
21
-30.667861985201618
31
4.4408920985006262e-15
0
LINE
5
191
100
AcDbEntity
8
0
100
AcDbLine
10
12.797556280214792
20
-30.66786198520159
30
0
11
12.797556280214785
21
-30.967861985201587
31
0
0
LINE
5
192
100
AcDbEntity
8
0
100
AcDbLine
10
0.29755628021475017
20
-32.767862102292355
30
0
11
0.29755628021468439
21
-36.067861868110356
31
-9.6338864754223513e-16
0
ARC
5
193
100
AcDbEntity
8
0
100
AcDbCircle
10
10.397556280214655
20
-37.572861985201548
30
0
40
0.20000000000000018
210
-1.3867062011691673e-16
220
3.079106305856985e-30
230
1
100
AcDbArc
50
0
51
89.999999999999503
0
SPLINE
5
194
100
AcDbEntity
8
0
100
AcDbSpline
70
0
71
3
72
12
73
8
74
0
42
0.000000001
43
0.0000000001
44
0.0000000001
40
0.010656180743309823
40
0.010656180743309823
40
0.010656180743309823
40
0.010656180743309823
40
0.012819798048824318
40
0.012819798048824318
40
0.019192617958838337
40
0.019192617958838337
40
0.025054079724688802
40
0.025054079724688802
40
0.025054079724688802
40
0.025054079724688802
10
10.647556280214271
20
-37.800149714817749
30
0
10
10.642758705175893
20
-37.794709795260999
30
0
10
10.638264536251699
20
-37.789015622461733
30
0
10
10.621866077058691
20
-37.765761254059093
30
0
10
10.612308068432039
20
-37.746184524853511
30
0
10
10.600483133715645
20
-37.707155613807437
30
0
10
10.597557172659315
20
-37.687411211895061
30
0
10
10.597556098599561
20
-37.667873006040658
30
0
0
LINE
5
195
100
AcDbEntity
8
0
100
AcDbLine
10
11.647556280214797
20
-30.167861985201498
30
4.4518329494990487e-15
11
10.647556280214797
21
-30.167861985201476
31
1.0940850998422521e-17
0
LINE
5
196
100
AcDbEntity
8
0
100
AcDbLine
10
0.39755628021468403
20
-36.167861985201355
30
0
11
5.6475562802156842
21
-36.167861985201462
31
-1.3923309832679657e-15
0
LINE
5
197
100
AcDbEntity
8
0
100
AcDbLine
10
0.39755628021475287
20
-32.667861985201363
30
0
11
5.6475562802157544
21
-32.667861985201462
31
-1.3923309832679647e-15
0
LINE
5
198
100
AcDbEntity
8
0
100
AcDbLine
10
5.7475562802146642
20
-37.267861985201499
30
0
11
6.0475562802146667
21
-37.267861985201506
31
-4.4408920985006262e-15
0
LINE
5
199
100
AcDbEntity
8
0
100
AcDbLine
10
5.7475562802147788
20
-31.567861985201496
30
0
11
6.0475562802147795
21
-31.567861985201439
31
-4.3790396177632373e-17
0
ARC
5
200
100
AcDbEntity
8
0
100
AcDbCircle
10
5.7475562802146651
20
-37.16786198520149
30
0
40
0.099999999999572542
210
0
220
0
230
1
100
AcDbArc
50
179.99980607682272
51
269.99999999999949
0
LINE
5
201
100
AcDbEntity
8
0
100
AcDbLine
10
9.6975562802146644
20
-37.372861985201524
30
0
11
10.397556280214657
21
-37.372861985201546
31
2.2650340547459352e-46
0
ARC
5
202
100
AcDbEntity
8
0
100
AcDbCircle
10
5.7475562802147762
20
-31.667861985201498
30
0
40
0.10000000000000231
210
0
220
-0
230
1
100
AcDbArc
50
89.999999999998465
51
180.00019392317728
0
ARC
5
203
100
AcDbEntity
8
0
100
AcDbCircle
10
10.397556280214779
20
-31.26286198520155
30
0
40
0.20000000000000018
210
-5.4738221262688081e-46
220
-4.93038065763132e-32
230
1
100
AcDbArc
50
-90.000000000000512
51
0
0
SPLINE
5
204
100
AcDbEntity
8
0
100
AcDbSpline
70
0
71
3
72
12
73
8
74
0
42
0.000000001
43
0.0000000001
44
0.0000000001
40
0
40
0
40
0
40
0
40
0.006421037234314096
40
0.006421037234314096
40
0.012792036815625712
40
0.012792036815625712
40
0.014394288413199334
40
0.014394288413199334
40
0.014394288413199334
40
0.014394288413199334
10
10.597556134749089
20
-31.167851924287287
30
0
10
10.597557207906455
20
-31.146448466868478
30
0
10
10.601083219466389
20
-31.12477481702701
30
0
10
10.614597410364082
20
-31.084332924023865
30
0
10
10.624701805071819
20
-31.065039910540854
30
0
10
10.640625096087998
20
-31.043760518675477
30
0
10
10.644006763008036
20
-31.039599020623442
30
0
10
10.647556280214772
20
-31.035574257346159
30
0
0
LINE
5
205
100
AcDbEntity
8
0
100
AcDbLine
10
11.647556280214623
20
-38.667861985201498
30
0
11
10.647556280214625
21
-38.667861985201476
31
0
0
ARC
5
206
100
AcDbEntity
8
0
100
AcDbCircle
10
0.39755628021468559
20
-36.067861985201354
30
0
40
0.10000000000006976
210
-9.6338864754090266e-15
220
1.1280413928029898e-20
230
1
100
AcDbArc
50
179.99993291490213
51
269.99999999999909
0
ARC
5
207
100
AcDbEntity
8
0
100
AcDbCircle
10
0.39755628021475137
20
-32.767861985201357
30
0
40
0.099999999999993427
210
0
220
-0
230
1
100
AcDbArc
50
89.999999999999147
51
180.00006708509787
0
LINE
5
208
100
AcDbEntity
8
0
100
AcDbLine
10
9.6975562802147799
20
-31.462861985201531
30
1.036372709537957e-16
11
10.397556280214777
21
-31.462861985201549
31
-9.8607613152626481e-33
0
LINE
5
209
100
AcDbEntity
8
0
100
AcDbLine
10
53.929063783840299
20
-66.340762226467803
30
-1.256101131210955e-14
11
53.395314632060249
21
-66.340762226467803
31
-1.256101131210955e-14
0
CIRCLE
5
210
100
AcDbEntity
8
0
100
AcDbCircle
10
16.246623831579676
20
-97.414977672226968
30
0
40
4.9999999999999902
210
0
220
0
230
1
0
CIRCLE
5
211
100
AcDbEntity
8
0
100
AcDbCircle
10
44.611503736098335
20
-97.414977672226897
30
0
40
4.9999999999999902
210
0
220
0
230
1
0
CIRCLE
5
212
100
AcDbEntity
8
0
100
AcDbCircle
10
44.611503736098335
20
-97.414977672226897
30
0
40
3.2000000000000028
210
0
220
0
230
1
0
CIRCLE
5
213
100
AcDbEntity
8
0
100
AcDbCircle
10
16.246623831579676
20
-97.414977672226968
30
0
40
3.2000000000000006
210
0
220
0
230
1
0
LWPOLYLINE
5
214
100
AcDbEntity
8
0
100
AcDbPolyline
90
4
70
1
43
0.0
10
6.4708646864333561
20
-26.936919480761389
10
6.470864686433365
20
-26.583766180181655
10
6.1177113858536556
20
-26.583766180181641
10
6.1177113858536467
20
-26.936919480761375
0
LWPOLYLINE
5
215
100
AcDbEntity
8
0
100
AcDbPolyline
90
4
70
1
43
0.0
10
54.720864686433337
20
-26.583766180182895
10
54.367711385853625
20
-26.583766180182884
10
54.367711385853625
20
-26.936919480762619
10
54.72086468643333
20
-26.936919480762633
0
LWPOLYLINE
5
216
100
AcDbEntity
8
0
100
AcDbPolyline
90
4
70
1
43
0.0
10
54.720864686432947
20
-41.883766180182874
10
54.367711385853227
20
-41.88376618018286
10
54.367711385853227
20
-42.23691948076258
10
54.72086468643294
20
-42.236919480762587
0
LINE
5
217
100
AcDbEntity
8
0
100
AcDbLine
10
30.42906378383918
20
-110.33253771996786
30
0
11
30.429063783841865
21
-5.6500977677086563
31
-1.4791141972893971e-30
0
LWPOLYLINE
5
218
100
AcDbEntity
8
0
100
AcDbPolyline
90
4
70
1
43
0.0
10
30.699999999999996
20
-59.324999999999875
10
30.349999999999998
20
-59.32499999999991
10
30.349999999999994
20
-59.674999999999905
10
30.699999999999989
20
-59.674999999999869
0
LWPOLYLINE
5
219
100
AcDbEntity
8
0
100
AcDbPolyline
90
4
70
1
43
0.0
10
30.349999999999994
20
-59.324999999999903
10
29.849999999999991
20
-59.324999999999903
10
29.849999999999991
20
-59.674999999999905
10
30.349999999999994
20
-59.674999999999905
0
LWPOLYLINE
5
220
100
AcDbEntity
8
0
100
AcDbPolyline
90
4
70
1
43
0.0
10
29.149999999999988
20
-59.324999999999903
10
28.649999999999988
20
-59.324999999999903
10
28.649999999999988
20
-59.674999999999905
10
29.149999999999988
20
-59.674999999999905
0
LWPOLYLINE
5
221
100
AcDbEntity
8
0
100
AcDbPolyline
90
4
70
1
43
0.0
10
28.649999999999988
20
-59.324999999999903
10
28.29999999999999
20
-59.324999999999868
10
28.299999999999997
20
-59.674999999999876
10
28.649999999999991
20
-59.674999999999912
0
LWPOLYLINE
5
222
100
AcDbEntity
8
0
100
AcDbPolyline
90
4
70
1
43
0.0
10
29.749921789466043
20
-59.324999999999839
10
29.25007821053385
20
-59.324999999999839
10
29.250078210532095
20
-59.674999999999841
10
29.749921789466043
20
-59.674999999999841
0
LWPOLYLINE
5
223
100
AcDbEntity
8
0
100
AcDbPolyline
90
4
70
1
43
0.0
10
29.250078210532095
20
-59.324999999999839
10
29.149999999999988
20
-59.32499999999991
10
29.149999999999988
20
-59.674999999999905
10
29.250078210532095
20
-59.674999999999834
0
LWPOLYLINE
5
224
100
AcDbEntity
8
0
100
AcDbPolyline
90
4
70
1
43
0.0
10
29.849999999999991
20
-59.324999999999903
10
29.749921789466093
20
-59.324999999999832
10
29.749921789466093
20
-59.674999999999841
10
29.849999999999991
20
-59.674999999999912
0
LWPOLYLINE
5
225
100
AcDbEntity
8
0
100
AcDbPolyline
90
4
70
1
43
0.0
10
29.749921789466043
20
-64.324999999999861
10
29.25007821053385
20
-64.324999999999861
10
29.250078210532095
20
-64.674999999999855
10
29.749921789466043
20
-64.674999999999855
0
LWPOLYLINE
5
226
100
AcDbEntity
8
0
100
AcDbPolyline
90
4
70
1
43
0.0
10
29.849999999999991
20
-64.324999999999932
10
29.749921789466093
20
-64.324999999999861
10
29.749921789466093
20
-64.674999999999855
10
29.849999999999991
20
-64.674999999999926
0
LWPOLYLINE
5
227
100
AcDbEntity
8
0
100
AcDbPolyline
90
4
70
1
43
0.0
10
29.250078210532095
20
-64.324999999999861
10
29.149999999999988
20
-64.324999999999932
10
29.149999999999988
20
-64.674999999999926
10
29.250078210532095
20
-64.674999999999855
0
LWPOLYLINE
5
228
100
AcDbEntity
8
0
100
AcDbPolyline
90
4
70
1
43
0.0
10
29.149999999999988
20
-64.324999999999932
10
28.649999999999988
20
-64.324999999999932
10
28.649999999999988
20
-64.674999999999926
10
29.149999999999988
20
-64.674999999999926
0
LWPOLYLINE
5
229
100
AcDbEntity
8
0
100
AcDbPolyline
90
4
70
1
43
0.0
10
30.349999999999994
20
-64.324999999999932
10
29.849999999999991
20
-64.324999999999932
10
29.849999999999991
20
-64.674999999999926
10
30.349999999999994
20
-64.674999999999926
0
LWPOLYLINE
5
230
100
AcDbEntity
8
0
100
AcDbPolyline
90
4
70
1
43
0.0
10
30.699999999999996
20
-64.324999999999889
10
30.349999999999998
20
-64.324999999999932
10
30.349999999999994
20
-64.674999999999926
10
30.699999999999989
20
-64.674999999999883
0
LWPOLYLINE
5
231
100
AcDbEntity
8
0
100
AcDbPolyline
90
4
70
1
43
0.0
10
28.649999999999988
20
-64.324999999999932
10
28.29999999999999
20
-64.324999999999889
10
28.299999999999997
20
-64.674999999999898
10
28.649999999999991
20
-64.674999999999926
0
LWPOLYLINE
5
232
100
AcDbEntity
8
0
100
AcDbPolyline
90
4
70
1
43
0.0
10
13.499999999999989
20
-61.749999999999901
10
13.499999999999989
20
-62.249999999999901
10
15.499999999999991
20
-62.249999999999901
10
15.499999999999991
20
-61.749999999999901
0
CIRCLE
5
233
100
AcDbEntity
8
0
100
AcDbCircle
10
26.349999999999998
20
-57.999999999999837
30
0
40
0.95000000000000329
210
-2.5893116246809249e-61
220
1.9721522630525295e-31
230
1
0
CIRCLE
5
234
100
AcDbEntity
8
0
100
AcDbCircle
10
26.349999999999998
20
-65.999999999999858
30
0
40
0.95000000000000329
210
-2.5893116246809249e-61
220
1.9721522630525295e-31
230
1
0
CIRCLE
5
235
100
AcDbEntity
8
0
100
AcDbCircle
10
14.849999999999994
20
-57.849999999999831
30
0
40
0.95000000000000329
210
-2.5893116246809249e-61
220
1.9721522630525295e-31
230
1
0
CIRCLE
5
236
100
AcDbEntity
8
0
100
AcDbCircle
10
14.849999999999994
20
-66.149999999999864
30
0
40
0.95000000000000329
210
-2.5893116246809249e-61
220
1.9721522630525295e-31
230
1
0
LWPOLYLINE
5
237
100
AcDbEntity
8
0
100
AcDbPolyline
90
4
70
1
43
0.0
10
6.4708646864329742
20
-41.883766180181624
10
6.1177113858532648
20
-41.883766180181617
10
6.1177113858532559
20
-42.236919480761337
10
6.4708646864329653
20
-42.236919480761344
0
CIRCLE
5
238
100
AcDbEntity
8
0
100
AcDbCircle
10
8.9290637838394211
20
-83.349051409467933
30
0
40
1.0000000000000022
210
0
220
0
230
1
0
ENDSEC
0
SECTION
2
OBJECTS
0
DICTIONARY
5
C
100
AcDbDictionary
3
ACAD_GROUP
350
D
3
ACAD_MLINESTYLE
350
17
0
DICTIONARY
5
D
100
AcDbDictionary
0
DICTIONARY
5
1A
330
C
100
AcDbDictionary
0
DICTIONARY
5
17
100
AcDbDictionary
0
ENDSEC
0
EOF
