0
SECTION
2
HEADER
9
$INSUNITS
70
4
9
$ACADVER
1
AC1014
9
$HANDSEED
5
FFFF
0
ENDSEC
0
SECTION
2
TABLES
0
TABLE
2
VPORT
5
8
100
AcDbSymbolTable
0
ENDTAB
0
TABLE
2
LTYPE
5
5
100
AcDbSymbolTable
0
LTYPE
5
14
100
AcDbSymbolTableRecord
100
AcDbLinetypeTableRecord
2
BYBLOCK
70
0
0
LTYPE
5
15
100
AcDbSymbolTableRecord
100
AcDbLinetypeTableRecord
2
BYLAYER
70
0
0
ENDTAB
0
TABLE
2
LAYER
5
2
100
AcDbSymbolTable
70
2
0
LAYER
5
50
100
AcDbSymbolTableRecord
100
AcDbLayerTableRecord
2
0
70
0
6
CONTINUOUS
0
ENDTAB
0
TABLE
2
STYLE
5
3
100
AcDbSymbolTable
70
1
0
STYLE
5
11
100
AcDbSymbolTableRecord
100
AcDbTextStyleTableRecord
2
STANDARD
70
0
0
ENDTAB
0
TABLE
2
VIEW
5
6
100
AcDbSymbolTable
70
0
0
ENDTAB
0
TABLE
2
UCS
5
7
100
AcDbSymbolTable
70
0
0
ENDTAB
0
TABLE
2
APPID
5
9
100
AcDbSymbolTable
70
2
0
APPID
5
12
100
AcDbSymbolTableRecord
100
AcDbRegAppTableRecord
2
ACAD
70
0
0
ENDTAB
0
TABLE
2
DIMSTYLE
5
A
100
AcDbSymbolTable
70
1
0
ENDTAB
0
TABLE
2
BLOCK_RECORD
5
1
100
AcDbSymbolTable
70
1
0
BLOCK_RECORD
5
1F
100
AcDbSymbolTableRecord
100
AcDbBlockTableRecord
2
*MODEL_SPACE
0
BLOCK_RECORD
5
1B
100
AcDbSymbolTableRecord
100
AcDbBlockTableRecord
2
*PAPER_SPACE
0
ENDTAB
0
ENDSEC
0
SECTION
2
BLOCKS
0
BLOCK
5
20
100
AcDbEntity
100
AcDbBlockBegin
2
*MODEL_SPACE
0
ENDBLK
5
21
100
AcDbEntity
100
AcDbBlockEnd
0
BLOCK
5
1C
100
AcDbEntity
100
AcDbBlockBegin
2
*PAPER_SPACE
0
ENDBLK
5
1D
100
AcDbEntity
100
AcDbBlockEnd
0
ENDSEC
0
SECTION
2
ENTITIES
0
LINE
5
100
100
AcDbEntity
8
0
100
AcDbLine
10
23.37837579244901
20
-18.992394500011549
30
0
11
23.37837579244901
21
-1.2123945000115466
31
0
0
LINE
5
101
100
AcDbEntity
8
0
100
AcDbLine
10
20.838375792449003
20
-1.2123945000115466
30
0
11
20.838375792449003
21
-18.992394500011549
31
0
0
LINE
5
102
100
AcDbEntity
8
0
100
AcDbLine
10
20.838375792449003
20
-18.992394500011549
30
0
11
23.37837579244901
21
-18.992394500011549
31
0
0
LINE
5
103
100
AcDbEntity
8
0
100
AcDbLine
10
23.37837579244901
20
-1.2123945000115466
30
0
11
20.838375792449003
21
-1.2123945000115466
31
0
0
LINE
5
104
100
AcDbEntity
8
0
100
AcDbLine
10
25.440000000000346
20
12.787605499999684
30
0
11
-25.699999999999626
21
12.787605500001
31
0
0
LWPOLYLINE
5
105
100
AcDbEntity
8
0
100
AcDbPolyline
90
8
70
1
43
0.0
10
23.439999999998847
20
-31.276609945770794
10
-23.683248415103453
20
-31.276609945770794
42
-0.41421356237309503
10
-25.683248415103456
20
-29.276609945770794
10
-25.683248415103456
20
10.087605500000343
42
-0.41421356237309503
10
-23.683248415103456
20
12.087605500000343
10
23.439999999998847
20
12.087605500000347
42
-0.41421356237309503
10
25.43999999999885
20
10.087605500000345
10
25.43999999999885
20
-29.276609945770794
42
-0.41421356237309503
0
LINE
5
106
100
AcDbEntity
8
0
100
AcDbLine
10
25.440000000000818
20
30.897605499999628
30
0
11
25.440000000000353
21
12.787605499999682
31
0
0
LINE
5
107
100
AcDbEntity
8
0
100
AcDbLine
10
-25.699999999999626
20
12.787605500001007
30
0
11
-25.699999999999157
21
30.897605500000953
31
0
0
LWPOLYLINE
5
108
100
AcDbEntity
8
0
100
AcDbPolyline
90
86
70
1
43
0.0
10
20.105815744707122
20
2.332050308267144
10
19.945070169066071
20
2.3320503082671351
10
19.405815744707038
20
2.3320503082671085
10
19.405815744707098
20
0.88205030826709496
10
19.405815744707109
20
0.78205030826709709
10
19.305815744707154
20
0.78205030826709709
10
19.305815744707154
20
0.77705030826709987
10
19.305815744707118
20
0.57705030826708636
10
19.305815744707147
20
-0.1679496917329093
10
19.305815744707154
20
-0.36794969173291392
10
19.305815744707211
20
-1.567949691732915
10
18.803309463260558
20
-1.5679496917329327
42
-0.38517038821472188
10
18.305815744707267
20
-2.0179496917329409
10
17.805815744707267
20
-2.0179496917329587
10
16.855815744707225
20
-2.017949691733012
10
16.055815744707225
20
-2.0179496917330475
10
12.055815744707221
20
-2.0179496917332163
10
11.255815744707229
20
-2.0179496917332429
10
10.305815744707267
20
-2.0179496917332784
10
9.8058157447072603
20
-2.0179496917332984
42
-0.38517038821472199
10
9.3083220261539346
20
-1.5679496917333235
10
8.805815744707207
20
-1.5679496917333502
10
8.8058157447071572
20
-0.36794969173334025
10
8.8058157447071483
20
-0.16794969173334451
10
8.8058157447071217
20
0.57705030826666004
10
8.8058157447071537
20
0.77705030826666466
10
8.8058157447071537
20
0.78205030826666189
10
8.7058157447071061
20
0.78205030826664412
10
8.7058157447070972
20
0.88205030826665087
10
8.705815744707035
20
2.3320503082666733
10
8.1665613203481691
20
2.3320503082666466
10
8.005815744707121
20
2.3320503082666377
10
8.0058157447070819
20
3.3320503082666431
10
8.16656132034813
20
3.3320503082666519
10
8.7058157447069995
20
3.3320503082666697
10
8.7058157447069373
20
4.7820503082666477
10
8.7058157447069373
20
4.8820503082666544
10
8.8058157447069831
20
4.8820503082666633
10
8.8058157447069831
20
4.8870503082666694
10
8.8058157447069298
20
5.0870503082666563
10
8.8058157447068997
20
5.8320503082666519
10
8.8058157447068908
20
6.0320503082666566
10
8.805815744706841
20
7.2320503082666576
10
9.3058157447068446
20
7.2320503082666843
10
9.3058157447067913
20
8.5820503082666733
10
9.3058157447067824
20
9.0320503082666814
42
-0.41421356237308854
10
9.6058157447067671
20
9.3320503082666928
10
10.010011755551789
20
9.3320503082667194
42
-0.36597738186304335
10
10.305815744706788
20
9.0820503082667159
10
10.655815744706789
20
9.0820503082667337
10
10.655815744706763
20
9.8820503082667344
10
10.655815744706736
20
10.482050308266739
10
12.455815744706733
20
10.48205030826681
10
12.45581574470676
20
9.8820503082668232
10
12.455815744706795
20
9.0820503082668136
10
13.062166577396383
20
9.0820503082668331
42
-0.20128343207205943
10
13.155815744706789
20
9.2052553890237476
10
13.155815744706763
20
9.8820503082668409
10
13.155815744706736
20
10.482050308266846
10
14.955815744706733
20
10.482050308266926
10
14.95581574470676
20
9.8820503082669209
10
14.955815744706795
20
9.2052553890237832
42
-0.20128343207193247
10
15.049464912017134
20
9.0820503082669202
10
15.655815744706798
20
9.0820503082669468
10
15.655815744706763
20
9.8820503082669475
10
15.655815744706736
20
10.482050308266952
10
17.455815744706733
20
10.482050308267024
10
17.455815744706769
20
9.8820503082670186
10
17.455815744706797
20
9.0820503082670179
10
17.805815744706777
20
9.0820503082670268
42
-0.36597738186304413
10
18.101619733861753
20
9.3320503082670463
10
18.505815744706762
20
9.3320503082670641
42
-0.4142135623731048
10
18.805815744706781
20
9.0320503082670722
10
18.805815744706784
20
8.5820503082670729
10
18.805815744706837
20
7.2320503082670751
10
19.305815744706834
20
7.2320503082670928
10
19.305815744706891
20
6.0320503082670829
10
19.305815744706898
20
5.832050308267096
10
19.305815744706933
20
5.0870503082670915
10
19.305815744706987
20
4.8870503082671046
10
19.305815744706987
20
4.8820503082670985
10
19.405815744706942
20
4.8820503082670985
10
19.405815744706942
20
4.7820503082670918
10
19.405815744706992
20
3.3320503082671138
10
19.945070169066028
20
3.3320503082671316
10
20.105815744707076
20
3.3320503082671404
0
LWPOLYLINE
5
109
100
AcDbEntity
8
0
100
AcDbPolyline
90
86
70
1
43
0.0
10
-8.2590641598117145
20
2.3320503082667887
10
-8.4198097354527679
20
2.3320503082667887
10
-8.9590641598117351
20
2.3320503082667887
10
-8.9590641598117351
20
0.8820503082667841
10
-8.9590641598117351
20
0.78205030826678623
10
-9.0590641598117259
20
0.78205030826678623
10
-9.0590641598117259
20
0.777050308266789
10
-9.059064159811733
20
0.57705030826678438
10
-9.0590641598117383
20
-0.16794969173321128
10
-9.0590641598117383
20
-0.3679496917332159
10
-9.0590641598117383
20
-1.567949691733217
10
-9.561570441258409
20
-1.5679496917332172
42
-0.38517038821472216
10
-10.059064159811726
20
-2.0179496917332163
10
-10.559064159811726
20
-2.0179496917332163
10
-11.509064159811736
20
-2.0179496917332163
10
-12.309064159811738
20
-2.0179496917332163
10
-16.309064159811737
20
-2.0179496917332163
10
-17.109064159811737
20
-2.0179496917332163
10
-18.059064159811726
20
-2.0179496917332163
10
-18.559064159811726
20
-2.0179496917332083
42
-0.38517038821472194
10
-19.056557878365034
20
-1.567949691733217
10
-19.559064159811737
20
-1.567949691733217
10
-19.559064159811737
20
-0.36794969173320702
10
-19.559064159811737
20
-0.16794969173322016
10
-19.559064159811737
20
0.57705030826678438
10
-19.559064159811722
20
0.777050308266789
10
-19.559064159811722
20
0.78205030826678623
10
-19.659064159811738
20
0.78205030826678623
10
-19.659064159811738
20
0.8820503082667841
10
-19.659064159811741
20
2.3320503082667887
10
-20.198318584170664
20
2.3320503082667887
10
-20.359064159811716
20
2.3320503082667887
10
-20.359064159811716
20
3.3320503082667852
10
-20.198318584170664
20
3.3320503082667852
10
-19.659064159811741
20
3.3320503082667852
10
-19.659064159811738
20
4.7820503082667809
10
-19.659064159811738
20
4.8820503082667877
10
-19.559064159811722
20
4.8820503082667877
10
-19.559064159811722
20
4.8870503082667938
10
-19.559064159811737
20
5.0870503082667895
10
-19.559064159811737
20
5.8320503082667852
10
-19.559064159811737
20
6.0320503082667898
10
-19.559064159811737
20
7.2320503082667909
10
-19.059064159811737
20
7.232050308266782
10
-19.059064159811737
20
8.5820503082667887
10
-19.059064159811737
20
9.032050308266788
42
-0.41421356237309725
10
-18.759064159811732
20
9.3320503082667905
10
-18.354868148966716
20
9.3320503082667923
42
-0.36597738186304152
10
-18.059064159811729
20
9.0820503082667869
10
-17.709064159811728
20
9.0820503082667869
10
-17.709064159811728
20
9.8820503082667877
10
-17.709064159811728
20
10.482050308266784
10
-15.909064159811727
20
10.482050308266784
10
-15.909064159811727
20
9.8820503082667877
10
-15.909064159811727
20
9.0820503082667869
10
-15.302713327122113
20
9.0820503082667887
42
-0.20128343207202165
10
-15.209064159811724
20
9.2052553890236855
10
-15.209064159811728
20
9.8820503082667877
10
-15.209064159811728
20
10.482050308266784
10
-13.409064159811727
20
10.482050308266784
10
-13.409064159811726
20
9.8820503082667877
10
-13.409064159811724
20
9.2052553890236712
42
-0.20128343207198296
10
-13.315414992501363
20
9.0820503082667869
10
-12.70906415981173
20
9.0820503082667869
10
-12.70906415981173
20
9.8820503082667877
10
-12.709064159811728
20
10.482050308266784
10
-10.909064159811727
20
10.482050308266784
10
-10.909064159811727
20
9.8820503082667877
10
-10.909064159811727
20
9.0820503082667869
10
-10.559064159811735
20
9.0820503082667869
42
-0.36597738186304252
10
-10.263260170656752
20
9.3320503082667887
10
-9.8590641598117301
20
9.3320503082667887
42
-0.41421356237309076
10
-9.5590641598117294
20
9.032050308266788
10
-9.5590641598117365
20
8.5820503082667887
10
-9.5590641598117365
20
7.2320503082667909
10
-9.059064159811733
20
7.2320503082667909
10
-9.0590641598117383
20
6.0320503082667809
10
-9.059064159811733
20
5.832050308266794
10
-9.059064159811733
20
5.0870503082667895
10
-9.0590641598117259
20
4.8870503082667938
10
-9.0590641598117259
20
4.8820503082667877
10
-8.9590641598117351
20
4.8820503082667877
10
-8.9590641598117351
20
4.7820503082667809
10
-8.9590641598117351
20
3.3320503082667852
10
-8.4198097354527679
20
3.3320503082667852
10
-8.2590641598117145
20
3.3320503082667852
0
LWPOLYLINE
5
110
100
AcDbEntity
8
0
100
AcDbPolyline
90
86
70
1
43
0.0
10
-8.2590641598113557
20
-21.667949691733234
10
-8.4198097354524073
20
-21.667949691733234
10
-8.9590641598113727
20
-21.667949691733234
10
-8.9590641598113727
20
-23.117949691733237
10
-8.9590641598113727
20
-23.217949691733235
10
-9.0590641598113599
20
-23.217949691733235
10
-9.0590641598113599
20
-23.222949691733234
10
-9.0590641598113741
20
-23.422949691733237
10
-9.0590641598113741
20
-24.167949691733241
10
-9.0590641598113741
20
-24.367949691733237
10
-9.0590641598113741
20
-25.567949691733229
10
-9.5615704412580609
20
-25.567949691733229
42
-0.38517038821473232
10
-10.059064159811362
20
-26.017949691733229
10
-10.559064159811362
20
-26.017949691733229
10
-11.509064159811373
20
-26.017949691733229
10
-12.309064159811374
20
-26.017949691733229
10
-16.309064159811374
20
-26.017949691733229
10
-17.109064159811371
20
-26.017949691733229
10
-18.059064159811363
20
-26.017949691733229
10
-18.559064159811363
20
-26.017949691733236
42
-0.38517038821473204
10
-19.056557878364671
20
-25.567949691733229
10
-19.559064159811371
20
-25.567949691733229
10
-19.559064159811371
20
-24.367949691733237
10
-19.559064159811371
20
-24.167949691733241
10
-19.559064159811371
20
-23.422949691733237
10
-19.55906415981136
20
-23.222949691733234
10
-19.55906415981136
20
-23.217949691733235
10
-19.659064159811376
20
-23.217949691733235
10
-19.659064159811376
20
-23.117949691733237
10
-19.659064159811376
20
-21.667949691733234
10
-20.198318584170298
20
-21.667949691733234
10
-20.35906415981135
20
-21.667949691733234
10
-20.35906415981135
20
-20.667949691733227
10
-20.198318584170298
20
-20.667949691733227
10
-19.659064159811376
20
-20.667949691733227
10
-19.659064159811376
20
-19.217949691733239
10
-19.659064159811372
20
-19.117949691733234
10
-19.55906415981136
20
-19.117949691733234
10
-19.55906415981136
20
-19.112949691733228
10
-19.559064159811371
20
-18.912949691733232
10
-19.559064159811371
20
-18.167949691733234
10
-19.559064159811371
20
-17.967949691733232
10
-19.559064159811371
20
-16.767949691733229
10
-19.059064159811371
20
-16.767949691733239
10
-19.059064159811371
20
-15.417949691733233
10
-19.059064159811371
20
-14.967949691733233
42
-0.41421356237310375
10
-18.759064159811366
20
-14.667949691733231
10
-18.354868148966354
20
-14.667949691733227
42
-0.36597738186303802
10
-18.059064159811363
20
-14.917949691733234
10
-17.709064159811362
20
-14.917949691733234
10
-17.709064159811362
20
-14.117949691733234
10
-17.709064159811362
20
-13.517949691733229
10
-15.909064159811363
20
-13.517949691733229
10
-15.909064159811363
20
-14.117949691733234
10
-15.909064159811363
20
-14.917949691733234
10
-15.302713327121744
20
-14.917949691733234
42
-0.20128343207203425
10
-15.20906415981136
20
-14.794744610976336
10
-15.20906415981136
20
-14.117949691733234
10
-15.209064159811362
20
-13.517949691733229
10
-13.409064159811363
20
-13.517949691733229
10
-13.40906415981136
20
-14.117949691733234
10
-13.409064159811358
20
-14.794744610976352
42
-0.20128343207198365
10
-13.315414992501001
20
-14.917949691733234
10
-12.709064159811362
20
-14.917949691733234
10
-12.709064159811362
20
-14.117949691733234
10
-12.709064159811362
20
-13.517949691733229
10
-10.909064159811363
20
-13.517949691733229
10
-10.909064159811361
20
-14.117949691733234
10
-10.909064159811361
20
-14.917949691733234
10
-10.559064159811369
20
-14.917949691733234
42
-0.36597738186303835
10
-10.263260170656388
20
-14.667949691733233
10
-9.859064159811366
20
-14.667949691733231
42
-0.41421356237309725
10
-9.5590641598113653
20
-14.967949691733233
10
-9.5590641598113724
20
-15.417949691733233
10
-9.5590641598113724
20
-16.767949691733239
10
-9.0590641598113706
20
-16.767949691733239
10
-9.0590641598113706
20
-17.967949691733239
10
-9.0590641598113706
20
-18.167949691733227
10
-9.0590641598113706
20
-18.912949691733232
10
-9.0590641598113599
20
-19.112949691733228
10
-9.0590641598113599
20
-19.117949691733234
10
-8.9590641598113727
20
-19.117949691733234
10
-8.9590641598113727
20
-19.217949691733239
10
-8.9590641598113727
20
-20.667949691733234
10
-8.4198097354524073
20
-20.667949691733227
10
-8.2590641598113557
20
-20.667949691733227
0
LWPOLYLINE
5
111
100
AcDbEntity
8
0
100
AcDbPolyline
90
86
70
1
43
0.0
10
20.105815744707172
20
-21.667949691732986
10
19.945070169066128
20
-21.667949691732986
10
19.405815744707155
20
-21.667949691732986
10
19.405815744707144
20
-23.117949691732996
10
19.405815744707155
20
-23.217949691732997
10
19.305815744707164
20
-23.217949691732986
10
19.305815744707164
20
-23.222949691732985
10
19.305815744707147
20
-23.422949691732988
10
19.305815744707147
20
-24.167949691732993
10
19.305815744707147
20
-24.367949691732989
10
19.305815744707139
20
-25.567949691732981
10
18.803309463260447
20
-25.567949691732998
42
-0.38517038821472704
10
18.305815744707139
20
-26.01794969173298
10
17.805815744707143
20
-26.01794969173298
10
16.855815744707137
20
-26.01794969173298
10
16.055815744707136
20
-26.01794969173298
10
12.055815744707132
20
-26.017949691732962
10
11.255815744707141
20
-26.017949691732962
10
10.305815744707152
20
-26.017949691732944
10
9.8058157447071448
20
-26.017949691732941
42
-0.38517038821472216
10
9.3083220261538315
20
-25.567949691732945
10
8.8058157447071395
20
-25.567949691732945
10
8.805815744707143
20
-24.367949691732935
10
8.805815744707143
20
-24.167949691732957
10
8.8058157447071483
20
-23.422949691732946
10
8.8058157447071572
20
-23.222949691732939
10
8.8058157447071572
20
-23.21794969173294
10
8.7058157447071451
20
-23.217949691732951
10
8.7058157447071451
20
-23.117949691732946
10
8.7058157447071558
20
-21.667949691732929
10
8.1665613203482259
20
-21.667949691732929
10
8.0058157447071743
20
-21.667949691732929
10
8.0058157447071832
20
-20.667949691732936
10
8.1665613203482366
20
-20.667949691732936
10
8.7058157447071594
20
-20.667949691732936
10
8.7058157447071629
20
-19.217949691732947
10
8.7058157447071682
20
-19.117949691732939
10
8.8058157447071785
20
-19.117949691732939
10
8.8058157447071785
20
-19.112949691732936
10
8.8058157447071714
20
-18.912949691732948
10
8.8058157447071714
20
-18.167949691732943
10
8.8058157447071714
20
-17.967949691732947
10
8.805815744707175
20
-16.767949691732944
10
9.3058157447071821
20
-16.767949691732944
10
9.3058157447071856
20
-15.417949691732948
10
9.3058157447071927
20
-14.96794969173294
42
-0.41421356237308854
10
9.6058157447071935
20
-14.667949691732947
10
10.010011755552206
20
-14.66794969173295
42
-0.36597738186303874
10
10.305815744707187
20
-14.91794969173295
10
10.655815744707189
20
-14.91794969173295
10
10.655815744707198
20
-14.117949691732949
10
10.655815744707198
20
-13.517949691732944
10
12.455815744707195
20
-13.517949691732953
10
12.455815744707195
20
-14.117949691732949
10
12.455815744707195
20
-14.917949691732959
10
13.062166577396814
20
-14.917949691732959
42
-0.20128343207200386
10
13.155815744707198
20
-14.794744610976069
10
13.155815744707198
20
-14.117949691732958
10
13.155815744707198
20
-13.517949691732962
10
14.955815744707195
20
-13.517949691732971
10
14.955815744707195
20
-14.117949691732967
10
14.955815744707202
20
-14.794744610976085
42
-0.2012834320719728
10
15.049464912017561
20
-14.917949691732968
10
15.655815744707198
20
-14.917949691732977
10
15.655815744707198
20
-14.117949691732967
10
15.655815744707198
20
-13.517949691732971
10
17.455815744707195
20
-13.51794969173298
10
17.455815744707202
20
-14.117949691732985
10
17.455815744707195
20
-14.917949691732986
10
17.805815744707189
20
-14.917949691732986
42
-0.36597738186303874
10
18.101619733862169
20
-14.667949691732984
10
18.505815744707192
20
-14.667949691732984
42
-0.41421356237310375
10
18.805815744707189
20
-14.967949691732985
10
18.805815744707182
20
-15.417949691732993
10
18.805815744707175
20
-16.767949691732991
10
19.305815744707175
20
-16.767949691732991
10
19.305815744707175
20
-17.967949691733001
10
19.305815744707175
20
-18.167949691732996
10
19.305815744707175
20
-18.91294969173299
10
19.305815744707182
20
-19.112949691732979
10
19.305815744707182
20
-19.117949691732985
10
19.405815744707169
20
-19.117949691732996
10
19.405815744707162
20
-19.217949691733001
10
19.405815744707155
20
-20.667949691732979
10
19.945070169066128
20
-20.667949691732979
10
20.105815744707172
20
-20.667949691732979
0
CIRCLE
5
112
100
AcDbEntity
8
0
100
AcDbCircle
10
-0.12162420755230219
20
-41.176609945770707
30
0
40
1.5000000000000004
210
0
220
-0
230
1
0
CIRCLE
5
113
100
AcDbEntity
8
0
100
AcDbCircle
10
14.055815744706983
20
2.8320503082668669
30
0
40
3.0000000000000036
210
0
220
0
230
1
0
CIRCLE
5
114
100
AcDbEntity
8
0
100
AcDbCircle
10
14.055815744707143
20
-21.167949691732979
30
0
40
3.0000000000000124
210
-0
220
0
230
1
0
CIRCLE
5
115
100
AcDbEntity
8
0
100
AcDbCircle
10
-14.309064159811381
20
-21.167949691733234
30
0
40
3.0000000000000111
210
0
220
0
230
1
0
CIRCLE
5
116
100
AcDbEntity
8
0
100
AcDbCircle
10
-14.309064159811747
20
2.8320503082667869
30
2.2204460492503131e-15
40
3.000000000000008
210
0
220
-0
230
1
0
LWPOLYLINE
5
117
100
AcDbEntity
8
0
100
AcDbPolyline
90
6
70
1
43
0.0
10
-3.3097307075523008
20
-31.276609945770808
10
3.0664822924476964
20
-31.276609945770808
10
3.0664822924476991
20
-41.176609945770693
42
-0.4142135623730942
10
1.0664822924476942
20
-43.176609945770707
10
-1.3097307075522924
20
-43.176609945770707
42
-0.41421356237309503
10
-3.3097307075523026
20
-41.176609945770693
0
LINE
5
118
100
AcDbEntity
8
0
100
AcDbLine
10
-0.12162420755230219
20
-41.176609945770707
30
0
11
-0.12162420755230212
21
-31.276609945770808
31
0
0
ARC
5
119
100
AcDbEntity
8
0
100
AcDbCircle
10
5.066482292447696
20
-33.276611932536611
30
0
40
2.0000000000000018
210
0
220
-0
230
1
100
AcDbArc
50
90
51
179.9999430846029
0
ARC
5
120
100
AcDbEntity
8
0
100
AcDbCircle
10
-5.3097307075523004
20
-33.276611932536611
30
0
40
2.0000000000009859
210
0
220
-0
230
1
100
AcDbArc
50
5.6915397100136397e-05
51
90.000000000000071
0
CIRCLE
5
121
100
AcDbEntity
8
0
100
AcDbCircle
10
-21.621624207551871
20
-27.110683683011683
30
0
40
1.0000000000000022
210
0
220
-0
230
1
0
ENDSEC
0
SECTION
2
OBJECTS
0
DICTIONARY
5
C
100
AcDbDictionary
3
ACAD_GROUP
350
D
3
ACAD_MLINESTYLE
350
17
0
DICTIONARY
5
D
100
AcDbDictionary
0
DICTIONARY
5
1A
330
C
100
AcDbDictionary
0
DICTIONARY
5
17
100
AcDbDictionary
0
ENDSEC
0
EOF
