  0
SECTION
  2
HEADER
  9
$ANGBASE
  50
0.0
  9
$ANGDIR
  70
1
  9
$MEASUREMENT
  70
1
  0
ENDSEC
  0
SECTION
  2
TABLES
  0
TABLE
  2
LTYPE
  70
4
  0
LTYPE
  5
40F
  2
CONTINUOUS
  70
0
  3
Solid line
  72
65
  73
0
  40
0.0
  0
LTYPE
  5
410
  2
DASHDOT
 70
0
  3
Dash Dot ____ _ ____ _
 72
65
 73
4
 40
2.0
 49
1.25
 49
-0.25
 49
0.25
 49
-0.25
  0
LTYPE
  5
411
  2
DASHED
 70
0
  3
Dashed __ __ __ __ __
 72
65
 73
2
 40
0.75
 49
0.5
 49
-0.25
  0
LTYPE
  5
43B
  2
DOTTED
 70
0
  3
Dotted .  .  .  .
 72
65
 73
2
 40
0.2
 49
0.0
 49
-0.2
  0
ENDTAB
  0
TABLE
  2
STYLE
  70
4
  0
STYLE
  2
KICAD
  70
0
  40
0
  41
1
  42
1
  50
0
  71
0
  3
isocp.shx
  0
STYLE
  2
KICADB
  70
0
  40
0
  41
1
  42
1
  50
0
  71
0
  3
isocp.shx
  0
STYLE
  2
KICADI
  70
0
  40
0
  41
1
  42
1
  50
15
  71
0
  3
isocp.shx
  0
STYLE
  2
KICADBI
  70
0
  40
0
  41
1
  42
1
  50
15
  71
0
  3
isocp.shx
  0
ENDTAB
  0
TABLE
  2
LAYER
  70
1
  0
LAYER
  2
BLACK
  70
0
  62
7
  6
CONTINUOUS
  0
ENDTAB
  0
ENDSEC
  0
SECTION
  2
ENTITIES
0
LINE
8
BLACK
6
CONTINUOUS
10
236.626
20
-98.2988
11
236.608
21
-98.2564
0
LINE
8
BLACK
6
CONTINUOUS
10
236.608
20
-98.2564
11
236.608
21
-82.9564
0
LINE
8
BLACK
6
CONTINUOUS
10
236.608
20
-82.9564
11
236.626
21
-82.914
0
LINE
8
BLACK
6
CONTINUOUS
10
236.626
20
-82.914
11
236.668
21
-82.8964
0
LINE
8
BLACK
6
CONTINUOUS
10
236.668
20
-82.8964
11
239.328
21
-82.8964
0
LINE
8
BLACK
6
CONTINUOUS
10
239.328
20
-82.8964
11
239.37
21
-82.914
0
LINE
8
BLACK
6
CONTINUOUS
10
239.37
20
-82.914
11
239.388
21
-82.9564
0
LINE
8
BLACK
6
CONTINUOUS
10
239.388
20
-82.9564
11
239.388
21
-98.2564
0
LINE
8
BLACK
6
CONTINUOUS
10
239.388
20
-98.2564
11
239.37
21
-98.2988
0
LINE
8
BLACK
6
CONTINUOUS
10
239.37
20
-98.2988
11
239.328
21
-98.3164
0
LINE
8
BLACK
6
CONTINUOUS
10
239.328
20
-98.3164
11
236.668
21
-98.3164
0
LINE
8
BLACK
6
CONTINUOUS
10
236.668
20
-98.3164
11
236.626
21
-98.2988
0
LINE
8
BLACK
6
CONTINUOUS
10
236.728
20
-83.0164
11
236.728
21
-98.1964
0
LINE
8
BLACK
6
CONTINUOUS
10
236.728
20
-98.1964
11
239.268
21
-98.1964
0
LINE
8
BLACK
6
CONTINUOUS
10
239.268
20
-98.1964
11
239.268
21
-83.0164
0
LINE
8
BLACK
6
CONTINUOUS
10
239.268
20
-83.0164
11
236.728
21
-83.0164
0
LINE
8
BLACK
6
CONTINUOUS
10
239.37
20
-80.314
11
239.388
21
-80.3564
0
LINE
8
BLACK
6
CONTINUOUS
10
239.388
20
-80.3564
11
239.388
21
-81.6864
0
LINE
8
BLACK
6
CONTINUOUS
10
239.388
20
-81.6864
11
239.37
21
-81.7288
0
LINE
8
BLACK
6
CONTINUOUS
10
239.37
20
-81.7288
11
239.328
21
-81.7464
0
LINE
8
BLACK
6
CONTINUOUS
10
239.328
20
-81.7464
11
239.286
21
-81.7288
0
LINE
8
BLACK
6
CONTINUOUS
10
239.286
20
-81.7288
11
239.268
21
-81.6864
0
LINE
8
BLACK
6
CONTINUOUS
10
239.268
20
-81.6864
11
239.268
21
-80.4164
0
LINE
8
BLACK
6
CONTINUOUS
10
239.268
20
-80.4164
11
237.998
21
-80.4164
0
LINE
8
BLACK
6
CONTINUOUS
10
237.998
20
-80.4164
11
237.956
21
-80.3988
0
LINE
8
BLACK
6
CONTINUOUS
10
237.956
20
-80.3988
11
237.938
21
-80.3564
0
LINE
8
BLACK
6
CONTINUOUS
10
237.938
20
-80.3564
11
237.956
21
-80.314
0
LINE
8
BLACK
6
CONTINUOUS
10
237.956
20
-80.314
11
237.998
21
-80.2964
0
LINE
8
BLACK
6
CONTINUOUS
10
237.998
20
-80.2964
11
239.328
21
-80.2964
0
LINE
8
BLACK
6
CONTINUOUS
10
239.328
20
-80.2964
11
239.37
21
-80.314
0
LINE
8
BLACK
6
CONTINUOUS
10
238.389
20
-78.7606
11
238.406
21
-78.8088
0
LINE
8
BLACK
6
CONTINUOUS
10
238.406
20
-78.8088
11
238.406
21
-79.5109
0
LINE
8
BLACK
6
CONTINUOUS
10
238.406
20
-79.5109
11
238.445
21
-79.6254
0
LINE
8
BLACK
6
CONTINUOUS
10
238.445
20
-79.6254
11
238.515
21
-79.6956
0
LINE
8
BLACK
6
CONTINUOUS
10
238.515
20
-79.6956
11
238.629
21
-79.7338
0
LINE
8
BLACK
6
CONTINUOUS
10
238.629
20
-79.7338
11
238.712
21
-79.7338
0
LINE
8
BLACK
6
CONTINUOUS
10
238.712
20
-79.7338
11
238.738
21
-79.7383
0
LINE
8
BLACK
6
CONTINUOUS
10
238.738
20
-79.7383
11
238.777
21
-79.7713
0
LINE
8
BLACK
6
CONTINUOUS
10
238.777
20
-79.7713
11
238.786
21
-79.8218
0
LINE
8
BLACK
6
CONTINUOUS
10
238.786
20
-79.8218
11
238.76
21
-79.8662
0
LINE
8
BLACK
6
CONTINUOUS
10
238.76
20
-79.8662
11
238.712
21
-79.8838
0
LINE
8
BLACK
6
CONTINUOUS
10
238.712
20
-79.8838
11
238.617
21
-79.8838
0
LINE
8
BLACK
6
CONTINUOUS
10
238.617
20
-79.8838
11
238.595
21
-79.8799
0
LINE
8
BLACK
6
CONTINUOUS
10
238.595
20
-79.8799
11
238.593
21
-79.8799
0
LINE
8
BLACK
6
CONTINUOUS
10
238.593
20
-79.8799
11
238.45
21
-79.8323
0
LINE
8
BLACK
6
CONTINUOUS
10
238.45
20
-79.8323
11
238.428
21
-79.8199
0
LINE
8
BLACK
6
CONTINUOUS
10
238.428
20
-79.8199
11
238.425
21
-79.8161
0
LINE
8
BLACK
6
CONTINUOUS
10
238.425
20
-79.8161
11
238.421
21
-79.8142
0
LINE
8
BLACK
6
CONTINUOUS
10
238.421
20
-79.8142
11
238.326
21
-79.719
0
LINE
8
BLACK
6
CONTINUOUS
10
238.326
20
-79.719
11
238.311
21
-79.6976
0
LINE
8
BLACK
6
CONTINUOUS
10
238.311
20
-79.6976
11
238.311
21
-79.6932
0
LINE
8
BLACK
6
CONTINUOUS
10
238.311
20
-79.6932
11
238.308
21
-79.6896
0
LINE
8
BLACK
6
CONTINUOUS
10
238.308
20
-79.6896
11
238.26
21
-79.5468
0
LINE
8
BLACK
6
CONTINUOUS
10
238.26
20
-79.5468
11
238.257
21
-79.5246
0
LINE
8
BLACK
6
CONTINUOUS
10
238.257
20
-79.5246
11
238.256
21
-79.5231
0
LINE
8
BLACK
6
CONTINUOUS
10
238.256
20
-79.5231
11
238.256
21
-78.8088
0
LINE
8
BLACK
6
CONTINUOUS
10
238.256
20
-78.8088
11
238.261
21
-78.7831
0
LINE
8
BLACK
6
CONTINUOUS
10
238.261
20
-78.7831
11
238.294
21
-78.7438
0
LINE
8
BLACK
6
CONTINUOUS
10
238.294
20
-78.7438
11
238.344
21
-78.7349
0
LINE
8
BLACK
6
CONTINUOUS
10
238.344
20
-78.7349
11
238.389
21
-78.7606
0
LINE
8
BLACK
6
CONTINUOUS
10
237.634
20
-78.7371
11
237.638
21
-78.7368
0
LINE
8
BLACK
6
CONTINUOUS
10
237.638
20
-78.7368
11
237.656
21
-78.7497
0
LINE
8
BLACK
6
CONTINUOUS
10
237.656
20
-78.7497
11
237.674
21
-78.7606
0
LINE
8
BLACK
6
CONTINUOUS
10
237.674
20
-78.7606
11
237.676
21
-78.7646
0
LINE
8
BLACK
6
CONTINUOUS
10
237.676
20
-78.7646
11
237.679
21
-78.7672
0
LINE
8
BLACK
6
CONTINUOUS
10
237.679
20
-78.7672
11
237.771
21
-78.9039
0
LINE
8
BLACK
6
CONTINUOUS
10
237.771
20
-78.9039
11
237.852
21
-78.9852
0
LINE
8
BLACK
6
CONTINUOUS
10
237.852
20
-78.9852
11
237.936
21
-79.0274
0
LINE
8
BLACK
6
CONTINUOUS
10
237.936
20
-79.0274
11
237.957
21
-79.0429
0
LINE
8
BLACK
6
CONTINUOUS
10
237.957
20
-79.0429
11
237.978
21
-79.09
0
LINE
8
BLACK
6
CONTINUOUS
10
237.978
20
-79.09
11
237.963
21
-79.1392
0
LINE
8
BLACK
6
CONTINUOUS
10
237.963
20
-79.1392
11
237.92
21
-79.1674
0
LINE
8
BLACK
6
CONTINUOUS
10
237.92
20
-79.1674
11
237.869
21
-79.1616
0
LINE
8
BLACK
6
CONTINUOUS
10
237.869
20
-79.1616
11
237.774
21
-79.114
0
LINE
8
BLACK
6
CONTINUOUS
10
237.774
20
-79.114
11
237.756
21
-79.1006
0
LINE
8
BLACK
6
CONTINUOUS
10
237.756
20
-79.1006
11
237.754
21
-79.0999
0
LINE
8
BLACK
6
CONTINUOUS
10
237.754
20
-79.0999
11
237.692
21
-79.0375
0
LINE
8
BLACK
6
CONTINUOUS
10
237.692
20
-79.0375
11
237.692
21
-79.7338
0
LINE
8
BLACK
6
CONTINUOUS
10
237.692
20
-79.7338
11
237.903
21
-79.7338
0
LINE
8
BLACK
6
CONTINUOUS
10
237.903
20
-79.7338
11
237.928
21
-79.7383
0
LINE
8
BLACK
6
CONTINUOUS
10
237.928
20
-79.7383
11
237.968
21
-79.7713
0
LINE
8
BLACK
6
CONTINUOUS
10
237.968
20
-79.7713
11
237.977
21
-79.8218
0
LINE
8
BLACK
6
CONTINUOUS
10
237.977
20
-79.8218
11
237.951
21
-79.8662
0
LINE
8
BLACK
6
CONTINUOUS
10
237.951
20
-79.8662
11
237.903
21
-79.8838
0
LINE
8
BLACK
6
CONTINUOUS
10
237.903
20
-79.8838
11
237.331
21
-79.8838
0
LINE
8
BLACK
6
CONTINUOUS
10
237.331
20
-79.8838
11
237.306
21
-79.8793
0
LINE
8
BLACK
6
CONTINUOUS
10
237.306
20
-79.8793
11
237.266
21
-79.8463
0
LINE
8
BLACK
6
CONTINUOUS
10
237.266
20
-79.8463
11
237.257
21
-79.7958
0
LINE
8
BLACK
6
CONTINUOUS
10
237.257
20
-79.7958
11
237.283
21
-79.7513
0
LINE
8
BLACK
6
CONTINUOUS
10
237.283
20
-79.7513
11
237.331
21
-79.7338
0
LINE
8
BLACK
6
CONTINUOUS
10
237.331
20
-79.7338
11
237.542
21
-79.7338
0
LINE
8
BLACK
6
CONTINUOUS
10
237.542
20
-79.7338
11
237.542
21
-78.8088
0
LINE
8
BLACK
6
CONTINUOUS
10
237.542
20
-78.8088
11
237.547
21
-78.7831
0
LINE
8
BLACK
6
CONTINUOUS
10
237.547
20
-78.7831
11
237.549
21
-78.7798
0
LINE
8
BLACK
6
CONTINUOUS
10
237.549
20
-78.7798
11
237.55
21
-78.7755
0
LINE
8
BLACK
6
CONTINUOUS
10
237.55
20
-78.7755
11
237.566
21
-78.7605
0
LINE
8
BLACK
6
CONTINUOUS
10
237.566
20
-78.7605
11
237.58
21
-78.7438
0
LINE
8
BLACK
6
CONTINUOUS
10
237.58
20
-78.7438
11
237.584
21
-78.7431
0
LINE
8
BLACK
6
CONTINUOUS
10
237.584
20
-78.7431
11
237.587
21
-78.7401
0
LINE
8
BLACK
6
CONTINUOUS
10
237.587
20
-78.7401
11
237.609
21
-78.7387
0
LINE
8
BLACK
6
CONTINUOUS
10
237.609
20
-78.7387
11
237.63
21
-78.7349
0
LINE
8
BLACK
6
CONTINUOUS
10
237.63
20
-78.7349
11
237.634
21
-78.7371
  0
ENDSEC
  0
EOF
