  0
SECTION
  2
HEADER
  9
$ANGBASE
  50
0.0
  9
$ANGDIR
  70
1
  9
$MEASUREMENT
  70
1
  0
ENDSEC
  0
SECTION
  2
TABLES
  0
TABLE
  2
LTYPE
  70
4
  0
LTYPE
  5
40F
  2
CONTINUOUS
  70
0
  3
Solid line
  72
65
  73
0
  40
0.0
  0
LTYPE
  5
410
  2
DASHDOT
 70
0
  3
Dash Dot ____ _ ____ _
 72
65
 73
4
 40
2.0
 49
1.25
 49
-0.25
 49
0.25
 49
-0.25
  0
LTYPE
  5
411
  2
DASHED
 70
0
  3
Dashed __ __ __ __ __
 72
65
 73
2
 40
0.75
 49
0.5
 49
-0.25
  0
LTYPE
  5
43B
  2
DOTTED
 70
0
  3
Dotted .  .  .  .
 72
65
 73
2
 40
0.2
 49
0.0
 49
-0.2
  0
ENDTAB
  0
TABLE
  2
STYLE
  70
4
  0
STYLE
  2
KICAD
  70
0
  40
0
  41
1
  42
1
  50
0
  71
0
  3
isocp.shx
  0
STYLE
  2
KICADB
  70
0
  40
0
  41
1
  42
1
  50
0
  71
0
  3
isocp.shx
  0
STYLE
  2
KICADI
  70
0
  40
0
  41
1
  42
1
  50
15
  71
0
  3
isocp.shx
  0
STYLE
  2
KICADBI
  70
0
  40
0
  41
1
  42
1
  50
15
  71
0
  3
isocp.shx
  0
ENDTAB
  0
TABLE
  2
LAYER
  70
1
  0
LAYER
  2
BLACK
  70
0
  62
7
  6
CONTINUOUS
  0
ENDTAB
  0
ENDSEC
  0
SECTION
  2
ENTITIES
0
LINE
8
BLACK
6
CONTINUOUS
10
227.398
20
-110.74
11
227.463
21
-110.784
0
LINE
8
BLACK
6
CONTINUOUS
10
227.463
20
-110.784
11
227.506
21
-110.849
0
LINE
8
BLACK
6
CONTINUOUS
10
227.506
20
-110.849
11
227.515
21
-110.892
0
LINE
8
BLACK
6
CONTINUOUS
10
227.515
20
-110.892
11
227.517
21
-110.894
0
LINE
8
BLACK
6
CONTINUOUS
10
227.517
20
-110.894
11
227.517
21
-110.901
0
LINE
8
BLACK
6
CONTINUOUS
10
227.517
20
-110.901
11
227.522
21
-110.925
0
LINE
8
BLACK
6
CONTINUOUS
10
227.522
20
-110.925
11
227.517
21
-110.95
0
LINE
8
BLACK
6
CONTINUOUS
10
227.517
20
-110.95
11
227.517
21
-110.956
0
LINE
8
BLACK
6
CONTINUOUS
10
227.517
20
-110.956
11
227.515
21
-110.958
0
LINE
8
BLACK
6
CONTINUOUS
10
227.515
20
-110.958
11
227.506
21
-111.002
0
LINE
8
BLACK
6
CONTINUOUS
10
227.506
20
-111.002
11
227.463
21
-111.067
0
LINE
8
BLACK
6
CONTINUOUS
10
227.463
20
-111.067
11
227.398
21
-111.11
0
LINE
8
BLACK
6
CONTINUOUS
10
227.398
20
-111.11
11
227.322
21
-111.125
0
LINE
8
BLACK
6
CONTINUOUS
10
227.322
20
-111.125
11
227.245
21
-111.11
0
LINE
8
BLACK
6
CONTINUOUS
10
227.245
20
-111.11
11
227.18
21
-111.067
0
LINE
8
BLACK
6
CONTINUOUS
10
227.18
20
-111.067
11
227.137
21
-111.002
0
LINE
8
BLACK
6
CONTINUOUS
10
227.137
20
-111.002
11
227.128
21
-110.958
0
LINE
8
BLACK
6
CONTINUOUS
10
227.128
20
-110.958
11
227.127
21
-110.956
0
LINE
8
BLACK
6
CONTINUOUS
10
227.127
20
-110.956
11
227.127
21
-110.95
0
LINE
8
BLACK
6
CONTINUOUS
10
227.127
20
-110.95
11
227.122
21
-110.925
0
LINE
8
BLACK
6
CONTINUOUS
10
227.122
20
-110.925
11
227.127
21
-110.901
0
LINE
8
BLACK
6
CONTINUOUS
10
227.127
20
-110.901
11
227.127
21
-110.894
0
LINE
8
BLACK
6
CONTINUOUS
10
227.127
20
-110.894
11
227.128
21
-110.892
0
LINE
8
BLACK
6
CONTINUOUS
10
227.128
20
-110.892
11
227.137
21
-110.849
0
LINE
8
BLACK
6
CONTINUOUS
10
227.137
20
-110.849
11
227.18
21
-110.784
0
LINE
8
BLACK
6
CONTINUOUS
10
227.18
20
-110.784
11
227.245
21
-110.74
0
LINE
8
BLACK
6
CONTINUOUS
10
227.245
20
-110.74
11
227.322
21
-110.725
0
LINE
8
BLACK
6
CONTINUOUS
10
227.322
20
-110.725
11
227.398
21
-110.74
0
LINE
8
BLACK
6
CONTINUOUS
10
199.031
20
-110.731
11
199.096
21
-110.775
0
LINE
8
BLACK
6
CONTINUOUS
10
199.096
20
-110.775
11
199.14
21
-110.84
0
LINE
8
BLACK
6
CONTINUOUS
10
199.14
20
-110.84
11
199.148
21
-110.883
0
LINE
8
BLACK
6
CONTINUOUS
10
199.148
20
-110.883
11
199.15
21
-110.885
0
LINE
8
BLACK
6
CONTINUOUS
10
199.15
20
-110.885
11
199.15
21
-110.892
0
LINE
8
BLACK
6
CONTINUOUS
10
199.15
20
-110.892
11
199.155
21
-110.916
0
LINE
8
BLACK
6
CONTINUOUS
10
199.155
20
-110.916
11
199.15
21
-110.941
0
LINE
8
BLACK
6
CONTINUOUS
10
199.15
20
-110.941
11
199.15
21
-110.947
0
LINE
8
BLACK
6
CONTINUOUS
10
199.15
20
-110.947
11
199.148
21
-110.949
0
LINE
8
BLACK
6
CONTINUOUS
10
199.148
20
-110.949
11
199.14
21
-110.993
0
LINE
8
BLACK
6
CONTINUOUS
10
199.14
20
-110.993
11
199.096
21
-111.058
0
LINE
8
BLACK
6
CONTINUOUS
10
199.096
20
-111.058
11
199.031
21
-111.101
0
LINE
8
BLACK
6
CONTINUOUS
10
199.031
20
-111.101
11
198.955
21
-111.116
0
LINE
8
BLACK
6
CONTINUOUS
10
198.955
20
-111.116
11
198.878
21
-111.101
0
LINE
8
BLACK
6
CONTINUOUS
10
198.878
20
-111.101
11
198.813
21
-111.058
0
LINE
8
BLACK
6
CONTINUOUS
10
198.813
20
-111.058
11
198.77
21
-110.993
0
LINE
8
BLACK
6
CONTINUOUS
10
198.77
20
-110.993
11
198.762
21
-110.949
0
LINE
8
BLACK
6
CONTINUOUS
10
198.762
20
-110.949
11
198.76
21
-110.947
0
LINE
8
BLACK
6
CONTINUOUS
10
198.76
20
-110.947
11
198.76
21
-110.941
0
LINE
8
BLACK
6
CONTINUOUS
10
198.76
20
-110.941
11
198.755
21
-110.916
0
LINE
8
BLACK
6
CONTINUOUS
10
198.755
20
-110.916
11
198.76
21
-110.892
0
LINE
8
BLACK
6
CONTINUOUS
10
198.76
20
-110.892
11
198.76
21
-110.885
0
LINE
8
BLACK
6
CONTINUOUS
10
198.76
20
-110.885
11
198.762
21
-110.883
0
LINE
8
BLACK
6
CONTINUOUS
10
198.762
20
-110.883
11
198.77
21
-110.84
0
LINE
8
BLACK
6
CONTINUOUS
10
198.77
20
-110.84
11
198.813
21
-110.775
0
LINE
8
BLACK
6
CONTINUOUS
10
198.813
20
-110.775
11
198.878
21
-110.731
0
LINE
8
BLACK
6
CONTINUOUS
10
198.878
20
-110.731
11
198.955
21
-110.716
0
LINE
8
BLACK
6
CONTINUOUS
10
198.955
20
-110.716
11
199.031
21
-110.731
0
LINE
8
BLACK
6
CONTINUOUS
10
224.436
20
-108.761
11
224.422
21
-108.725
0
LINE
8
BLACK
6
CONTINUOUS
10
224.422
20
-108.725
11
224.422
21
-104.765
0
LINE
8
BLACK
6
CONTINUOUS
10
224.422
20
-104.765
11
224.436
21
-104.73
0
LINE
8
BLACK
6
CONTINUOUS
10
224.436
20
-104.73
11
224.472
21
-104.715
0
LINE
8
BLACK
6
CONTINUOUS
10
224.472
20
-104.715
11
224.507
21
-104.73
0
LINE
8
BLACK
6
CONTINUOUS
10
224.507
20
-104.73
11
224.522
21
-104.765
0
LINE
8
BLACK
6
CONTINUOUS
10
224.522
20
-104.765
11
224.522
21
-108.675
0
LINE
8
BLACK
6
CONTINUOUS
10
224.522
20
-108.675
11
235.122
21
-108.675
0
LINE
8
BLACK
6
CONTINUOUS
10
235.122
20
-108.675
11
235.122
21
-104.765
0
LINE
8
BLACK
6
CONTINUOUS
10
235.122
20
-104.765
11
235.136
21
-104.73
0
LINE
8
BLACK
6
CONTINUOUS
10
235.136
20
-104.73
11
235.172
21
-104.715
0
LINE
8
BLACK
6
CONTINUOUS
10
235.172
20
-104.715
11
235.207
21
-104.73
0
LINE
8
BLACK
6
CONTINUOUS
10
235.207
20
-104.73
11
235.222
21
-104.765
0
LINE
8
BLACK
6
CONTINUOUS
10
235.222
20
-104.765
11
235.222
21
-108.725
0
LINE
8
BLACK
6
CONTINUOUS
10
235.222
20
-108.725
11
235.207
21
-108.761
0
LINE
8
BLACK
6
CONTINUOUS
10
235.207
20
-108.761
11
235.172
21
-108.775
0
LINE
8
BLACK
6
CONTINUOUS
10
235.172
20
-108.775
11
224.472
21
-108.775
0
LINE
8
BLACK
6
CONTINUOUS
10
224.472
20
-108.775
11
224.436
21
-108.761
0
LINE
8
BLACK
6
CONTINUOUS
10
196.07
20
-108.751
11
196.055
21
-108.716
0
LINE
8
BLACK
6
CONTINUOUS
10
196.055
20
-108.716
11
196.055
21
-104.756
0
LINE
8
BLACK
6
CONTINUOUS
10
196.055
20
-104.756
11
196.07
21
-104.721
0
LINE
8
BLACK
6
CONTINUOUS
10
196.07
20
-104.721
11
196.105
21
-104.706
0
LINE
8
BLACK
6
CONTINUOUS
10
196.105
20
-104.706
11
196.14
21
-104.721
0
LINE
8
BLACK
6
CONTINUOUS
10
196.14
20
-104.721
11
196.155
21
-104.756
0
LINE
8
BLACK
6
CONTINUOUS
10
196.155
20
-104.756
11
196.155
21
-108.666
0
LINE
8
BLACK
6
CONTINUOUS
10
196.155
20
-108.666
11
206.755
21
-108.666
0
LINE
8
BLACK
6
CONTINUOUS
10
206.755
20
-108.666
11
206.755
21
-104.756
0
LINE
8
BLACK
6
CONTINUOUS
10
206.755
20
-104.756
11
206.77
21
-104.721
0
LINE
8
BLACK
6
CONTINUOUS
10
206.77
20
-104.721
11
206.805
21
-104.706
0
LINE
8
BLACK
6
CONTINUOUS
10
206.805
20
-104.706
11
206.84
21
-104.721
0
LINE
8
BLACK
6
CONTINUOUS
10
206.84
20
-104.721
11
206.855
21
-104.756
0
LINE
8
BLACK
6
CONTINUOUS
10
206.855
20
-104.756
11
206.855
21
-108.716
0
LINE
8
BLACK
6
CONTINUOUS
10
206.855
20
-108.716
11
206.84
21
-108.751
0
LINE
8
BLACK
6
CONTINUOUS
10
206.84
20
-108.751
11
206.805
21
-108.766
0
LINE
8
BLACK
6
CONTINUOUS
10
206.805
20
-108.766
11
196.105
21
-108.766
0
LINE
8
BLACK
6
CONTINUOUS
10
196.105
20
-108.766
11
196.07
21
-108.751
0
LINE
8
BLACK
6
CONTINUOUS
10
235.207
20
-97.3398
11
235.222
21
-97.3752
0
LINE
8
BLACK
6
CONTINUOUS
10
235.222
20
-97.3752
11
235.222
21
-99.6852
0
LINE
8
BLACK
6
CONTINUOUS
10
235.222
20
-99.6852
11
235.207
21
-99.7205
0
LINE
8
BLACK
6
CONTINUOUS
10
235.207
20
-99.7205
11
235.172
21
-99.7352
0
LINE
8
BLACK
6
CONTINUOUS
10
235.172
20
-99.7352
11
235.136
21
-99.7205
0
LINE
8
BLACK
6
CONTINUOUS
10
235.136
20
-99.7205
11
235.122
21
-99.6852
0
LINE
8
BLACK
6
CONTINUOUS
10
235.122
20
-99.6852
11
235.122
21
-97.4252
0
LINE
8
BLACK
6
CONTINUOUS
10
235.122
20
-97.4252
11
224.522
21
-97.4252
0
LINE
8
BLACK
6
CONTINUOUS
10
224.522
20
-97.4252
11
224.522
21
-99.6852
0
LINE
8
BLACK
6
CONTINUOUS
10
224.522
20
-99.6852
11
224.507
21
-99.7205
0
LINE
8
BLACK
6
CONTINUOUS
10
224.507
20
-99.7205
11
224.472
21
-99.7352
0
LINE
8
BLACK
6
CONTINUOUS
10
224.472
20
-99.7352
11
224.436
21
-99.7205
0
LINE
8
BLACK
6
CONTINUOUS
10
224.436
20
-99.7205
11
224.422
21
-99.6852
0
LINE
8
BLACK
6
CONTINUOUS
10
224.422
20
-99.6852
11
224.422
21
-97.3752
0
LINE
8
BLACK
6
CONTINUOUS
10
224.422
20
-97.3752
11
224.436
21
-97.3398
0
LINE
8
BLACK
6
CONTINUOUS
10
224.436
20
-97.3398
11
224.472
21
-97.3252
0
LINE
8
BLACK
6
CONTINUOUS
10
224.472
20
-97.3252
11
235.172
21
-97.3252
0
LINE
8
BLACK
6
CONTINUOUS
10
235.172
20
-97.3252
11
235.207
21
-97.3398
0
LINE
8
BLACK
6
CONTINUOUS
10
206.84
20
-97.3308
11
206.855
21
-97.3661
0
LINE
8
BLACK
6
CONTINUOUS
10
206.855
20
-97.3661
11
206.855
21
-99.6761
0
LINE
8
BLACK
6
CONTINUOUS
10
206.855
20
-99.6761
11
206.84
21
-99.7115
0
LINE
8
BLACK
6
CONTINUOUS
10
206.84
20
-99.7115
11
206.805
21
-99.7261
0
LINE
8
BLACK
6
CONTINUOUS
10
206.805
20
-99.7261
11
206.77
21
-99.7115
0
LINE
8
BLACK
6
CONTINUOUS
10
206.77
20
-99.7115
11
206.755
21
-99.6761
0
LINE
8
BLACK
6
CONTINUOUS
10
206.755
20
-99.6761
11
206.755
21
-97.4161
0
LINE
8
BLACK
6
CONTINUOUS
10
206.755
20
-97.4161
11
196.155
21
-97.4161
0
LINE
8
BLACK
6
CONTINUOUS
10
196.155
20
-97.4161
11
196.155
21
-99.6761
0
LINE
8
BLACK
6
CONTINUOUS
10
196.155
20
-99.6761
11
196.14
21
-99.7115
0
LINE
8
BLACK
6
CONTINUOUS
10
196.14
20
-99.7115
11
196.105
21
-99.7261
0
LINE
8
BLACK
6
CONTINUOUS
10
196.105
20
-99.7261
11
196.07
21
-99.7115
0
LINE
8
BLACK
6
CONTINUOUS
10
196.07
20
-99.7115
11
196.055
21
-99.6761
0
LINE
8
BLACK
6
CONTINUOUS
10
196.055
20
-99.6761
11
196.055
21
-97.3661
0
LINE
8
BLACK
6
CONTINUOUS
10
196.055
20
-97.3661
11
196.07
21
-97.3308
0
LINE
8
BLACK
6
CONTINUOUS
10
196.07
20
-97.3308
11
196.105
21
-97.3161
0
LINE
8
BLACK
6
CONTINUOUS
10
196.105
20
-97.3161
11
206.805
21
-97.3161
0
LINE
8
BLACK
6
CONTINUOUS
10
206.805
20
-97.3161
11
206.84
21
-97.3308
0
LINE
8
BLACK
6
CONTINUOUS
10
203.158
20
-94.4276
11
203.158
21
-94.4275
0
LINE
8
BLACK
6
CONTINUOUS
10
203.158
20
-94.4275
11
203.159
21
-94.4278
0
LINE
8
BLACK
6
CONTINUOUS
10
203.159
20
-94.4278
11
203.193
21
-94.4328
0
LINE
8
BLACK
6
CONTINUOUS
10
203.193
20
-94.4328
11
203.209
21
-94.4428
0
LINE
8
BLACK
6
CONTINUOUS
10
203.209
20
-94.4428
11
203.226
21
-94.4481
0
LINE
8
BLACK
6
CONTINUOUS
10
203.226
20
-94.4481
11
203.238
21
-94.4618
0
LINE
8
BLACK
6
CONTINUOUS
10
203.238
20
-94.4618
11
203.253
21
-94.4715
0
LINE
8
BLACK
6
CONTINUOUS
10
203.253
20
-94.4715
11
203.261
21
-94.4884
0
LINE
8
BLACK
6
CONTINUOUS
10
203.261
20
-94.4884
11
203.273
21
-94.5024
0
LINE
8
BLACK
6
CONTINUOUS
10
203.273
20
-94.5024
11
203.275
21
-94.5203
0
LINE
8
BLACK
6
CONTINUOUS
10
203.275
20
-94.5203
11
203.283
21
-94.5366
0
LINE
8
BLACK
6
CONTINUOUS
10
203.283
20
-94.5366
11
203.28
21
-94.5549
0
LINE
8
BLACK
6
CONTINUOUS
10
203.28
20
-94.5549
11
203.283
21
-94.5733
0
LINE
8
BLACK
6
CONTINUOUS
10
203.283
20
-94.5733
11
203.275
21
-94.5896
0
LINE
8
BLACK
6
CONTINUOUS
10
203.275
20
-94.5896
11
203.272
21
-94.6074
0
LINE
8
BLACK
6
CONTINUOUS
10
203.272
20
-94.6074
11
203.26
21
-94.6214
0
LINE
8
BLACK
6
CONTINUOUS
10
203.26
20
-94.6214
11
203.253
21
-94.6382
0
LINE
8
BLACK
6
CONTINUOUS
10
203.253
20
-94.6382
11
202.993
21
-94.9351
0
LINE
8
BLACK
6
CONTINUOUS
10
202.993
20
-94.9351
11
203.093
21
-94.9852
0
LINE
8
BLACK
6
CONTINUOUS
10
203.093
20
-94.9852
11
203.123
21
-95.006
0
LINE
8
BLACK
6
CONTINUOUS
10
203.123
20
-95.006
11
203.124
21
-95.0079
0
LINE
8
BLACK
6
CONTINUOUS
10
203.124
20
-95.0079
11
203.126
21
-95.009
0
LINE
8
BLACK
6
CONTINUOUS
10
203.126
20
-95.009
11
203.186
21
-95.0695
0
LINE
8
BLACK
6
CONTINUOUS
10
203.186
20
-95.0695
11
203.208
21
-95.0987
0
LINE
8
BLACK
6
CONTINUOUS
10
203.208
20
-95.0987
11
203.209
21
-95.1009
0
LINE
8
BLACK
6
CONTINUOUS
10
203.209
20
-95.1009
11
203.21
21
-95.1025
0
LINE
8
BLACK
6
CONTINUOUS
10
203.21
20
-95.1025
11
203.271
21
-95.2234
0
LINE
8
BLACK
6
CONTINUOUS
10
203.271
20
-95.2234
11
203.282
21
-95.258
0
LINE
8
BLACK
6
CONTINUOUS
10
203.282
20
-95.258
11
203.281
21
-95.2693
0
LINE
8
BLACK
6
CONTINUOUS
10
203.281
20
-95.2693
11
203.284
21
-95.2802
0
LINE
8
BLACK
6
CONTINUOUS
10
203.284
20
-95.2802
11
203.284
21
-95.5826
0
LINE
8
BLACK
6
CONTINUOUS
10
203.284
20
-95.5826
11
203.279
21
-95.6187
0
LINE
8
BLACK
6
CONTINUOUS
10
203.279
20
-95.6187
11
203.273
21
-95.6282
0
LINE
8
BLACK
6
CONTINUOUS
10
203.273
20
-95.6282
11
203.271
21
-95.6394
0
LINE
8
BLACK
6
CONTINUOUS
10
203.271
20
-95.6394
11
203.21
21
-95.7604
0
LINE
8
BLACK
6
CONTINUOUS
10
203.21
20
-95.7604
11
203.189
21
-95.7903
0
LINE
8
BLACK
6
CONTINUOUS
10
203.189
20
-95.7903
11
203.187
21
-95.7914
0
LINE
8
BLACK
6
CONTINUOUS
10
203.187
20
-95.7914
11
203.186
21
-95.7934
0
LINE
8
BLACK
6
CONTINUOUS
10
203.186
20
-95.7934
11
203.126
21
-95.8538
0
LINE
8
BLACK
6
CONTINUOUS
10
203.126
20
-95.8538
11
203.097
21
-95.8757
0
LINE
8
BLACK
6
CONTINUOUS
10
203.097
20
-95.8757
11
203.094
21
-95.8761
0
LINE
8
BLACK
6
CONTINUOUS
10
203.094
20
-95.8761
11
203.093
21
-95.8776
0
LINE
8
BLACK
6
CONTINUOUS
10
203.093
20
-95.8776
11
202.972
21
-95.9381
0
LINE
8
BLACK
6
CONTINUOUS
10
202.972
20
-95.9381
11
202.937
21
-95.9496
0
LINE
8
BLACK
6
CONTINUOUS
10
202.937
20
-95.9496
11
202.926
21
-95.9483
0
LINE
8
BLACK
6
CONTINUOUS
10
202.926
20
-95.9483
11
202.915
21
-95.9515
0
LINE
8
BLACK
6
CONTINUOUS
10
202.915
20
-95.9515
11
202.552
21
-95.9515
0
LINE
8
BLACK
6
CONTINUOUS
10
202.552
20
-95.9515
11
202.516
21
-95.9463
0
LINE
8
BLACK
6
CONTINUOUS
10
202.516
20
-95.9463
11
202.507
21
-95.9401
0
LINE
8
BLACK
6
CONTINUOUS
10
202.507
20
-95.9401
11
202.495
21
-95.9381
0
LINE
8
BLACK
6
CONTINUOUS
10
202.495
20
-95.9381
11
202.374
21
-95.8776
0
LINE
8
BLACK
6
CONTINUOUS
10
202.374
20
-95.8776
11
202.345
21
-95.8568
0
LINE
8
BLACK
6
CONTINUOUS
10
202.345
20
-95.8568
11
202.343
21
-95.8549
0
LINE
8
BLACK
6
CONTINUOUS
10
202.343
20
-95.8549
11
202.341
21
-95.8538
0
LINE
8
BLACK
6
CONTINUOUS
10
202.341
20
-95.8538
11
202.281
21
-95.7934
0
LINE
8
BLACK
6
CONTINUOUS
10
202.281
20
-95.7934
11
202.259
21
-95.7642
0
LINE
8
BLACK
6
CONTINUOUS
10
202.259
20
-95.7642
11
202.244
21
-95.6943
0
LINE
8
BLACK
6
CONTINUOUS
10
202.244
20
-95.6943
11
202.269
21
-95.6273
0
LINE
8
BLACK
6
CONTINUOUS
10
202.269
20
-95.6273
11
202.327
21
-95.5845
0
LINE
8
BLACK
6
CONTINUOUS
10
202.327
20
-95.5845
11
202.398
21
-95.5795
0
LINE
8
BLACK
6
CONTINUOUS
10
202.398
20
-95.5795
11
202.461
21
-95.6138
0
LINE
8
BLACK
6
CONTINUOUS
10
202.461
20
-95.6138
11
202.506
21
-95.6597
0
LINE
8
BLACK
6
CONTINUOUS
10
202.506
20
-95.6597
11
202.582
21
-95.6975
0
LINE
8
BLACK
6
CONTINUOUS
10
202.582
20
-95.6975
11
202.885
21
-95.6975
0
LINE
8
BLACK
6
CONTINUOUS
10
202.885
20
-95.6975
11
202.961
21
-95.6597
0
LINE
8
BLACK
6
CONTINUOUS
10
202.961
20
-95.6597
11
202.992
21
-95.6283
0
LINE
8
BLACK
6
CONTINUOUS
10
202.992
20
-95.6283
11
203.03
21
-95.5526
0
LINE
8
BLACK
6
CONTINUOUS
10
203.03
20
-95.5526
11
203.03
21
-95.3102
0
LINE
8
BLACK
6
CONTINUOUS
10
203.03
20
-95.3102
11
202.992
21
-95.2345
0
LINE
8
BLACK
6
CONTINUOUS
10
202.992
20
-95.2345
11
202.961
21
-95.2032
0
LINE
8
BLACK
6
CONTINUOUS
10
202.961
20
-95.2032
11
202.885
21
-95.1653
0
LINE
8
BLACK
6
CONTINUOUS
10
202.885
20
-95.1653
11
202.734
21
-95.1653
0
LINE
8
BLACK
6
CONTINUOUS
10
202.734
20
-95.1653
11
202.733
21
-95.1653
0
LINE
8
BLACK
6
CONTINUOUS
10
202.733
20
-95.1653
11
202.733
21
-95.1653
0
LINE
8
BLACK
6
CONTINUOUS
10
202.733
20
-95.1653
11
202.732
21
-95.1651
0
LINE
8
BLACK
6
CONTINUOUS
10
202.732
20
-95.1651
11
202.698
21
-95.1601
0
LINE
8
BLACK
6
CONTINUOUS
10
202.698
20
-95.1601
11
202.682
21
-95.1501
0
LINE
8
BLACK
6
CONTINUOUS
10
202.682
20
-95.1501
11
202.664
21
-95.1447
0
LINE
8
BLACK
6
CONTINUOUS
10
202.664
20
-95.1447
11
202.653
21
-95.1311
0
LINE
8
BLACK
6
CONTINUOUS
10
202.653
20
-95.1311
11
202.638
21
-95.1213
0
LINE
8
BLACK
6
CONTINUOUS
10
202.638
20
-95.1213
11
202.63
21
-95.1045
0
LINE
8
BLACK
6
CONTINUOUS
10
202.63
20
-95.1045
11
202.618
21
-95.0904
0
LINE
8
BLACK
6
CONTINUOUS
10
202.618
20
-95.0904
11
202.615
21
-95.0726
0
LINE
8
BLACK
6
CONTINUOUS
10
202.615
20
-95.0726
11
202.608
21
-95.0562
0
LINE
8
BLACK
6
CONTINUOUS
10
202.608
20
-95.0562
11
202.611
21
-95.0379
0
LINE
8
BLACK
6
CONTINUOUS
10
202.611
20
-95.0379
11
202.608
21
-95.0196
0
LINE
8
BLACK
6
CONTINUOUS
10
202.608
20
-95.0196
11
202.616
21
-95.0033
0
LINE
8
BLACK
6
CONTINUOUS
10
202.616
20
-95.0033
11
202.618
21
-94.9855
0
LINE
8
BLACK
6
CONTINUOUS
10
202.618
20
-94.9855
11
202.63
21
-94.9715
0
LINE
8
BLACK
6
CONTINUOUS
10
202.63
20
-94.9715
11
202.638
21
-94.9547
0
LINE
8
BLACK
6
CONTINUOUS
10
202.638
20
-94.9547
11
202.877
21
-94.6815
0
LINE
8
BLACK
6
CONTINUOUS
10
202.877
20
-94.6815
11
202.371
21
-94.6815
0
LINE
8
BLACK
6
CONTINUOUS
10
202.371
20
-94.6815
11
202.335
21
-94.6763
0
LINE
8
BLACK
6
CONTINUOUS
10
202.335
20
-94.6763
11
202.275
21
-94.6375
0
LINE
8
BLACK
6
CONTINUOUS
10
202.275
20
-94.6375
11
202.245
21
-94.5724
0
LINE
8
BLACK
6
CONTINUOUS
10
202.245
20
-94.5724
11
202.255
21
-94.5017
0
LINE
8
BLACK
6
CONTINUOUS
10
202.255
20
-94.5017
11
202.302
21
-94.4477
0
LINE
8
BLACK
6
CONTINUOUS
10
202.302
20
-94.4477
11
202.371
21
-94.4275
0
LINE
8
BLACK
6
CONTINUOUS
10
202.371
20
-94.4275
11
203.157
21
-94.4275
0
LINE
8
BLACK
6
CONTINUOUS
10
203.157
20
-94.4275
11
203.158
21
-94.4276
0
LINE
8
BLACK
6
CONTINUOUS
10
229.508
20
-94.4556
11
229.549
21
-94.5144
0
LINE
8
BLACK
6
CONTINUOUS
10
229.549
20
-94.5144
11
229.852
21
-95.4229
0
LINE
8
BLACK
6
CONTINUOUS
10
229.852
20
-95.4229
11
230.155
21
-94.5144
0
LINE
8
BLACK
6
CONTINUOUS
10
230.155
20
-94.5144
11
230.171
21
-94.4818
0
LINE
8
BLACK
6
CONTINUOUS
10
230.171
20
-94.4818
11
230.227
21
-94.4371
0
LINE
8
BLACK
6
CONTINUOUS
10
230.227
20
-94.4371
11
230.298
21
-94.4296
0
LINE
8
BLACK
6
CONTINUOUS
10
230.298
20
-94.4296
11
230.362
21
-94.4617
0
LINE
8
BLACK
6
CONTINUOUS
10
230.362
20
-94.4617
11
230.398
21
-94.5232
0
LINE
8
BLACK
6
CONTINUOUS
10
230.398
20
-94.5232
11
230.396
21
-94.5947
0
LINE
8
BLACK
6
CONTINUOUS
10
230.396
20
-94.5947
11
229.972
21
-95.8647
0
LINE
8
BLACK
6
CONTINUOUS
10
229.972
20
-95.8647
11
229.962
21
-95.885
0
LINE
8
BLACK
6
CONTINUOUS
10
229.962
20
-95.885
11
229.961
21
-95.8895
0
LINE
8
BLACK
6
CONTINUOUS
10
229.961
20
-95.8895
11
229.959
21
-95.8914
0
LINE
8
BLACK
6
CONTINUOUS
10
229.959
20
-95.8914
11
229.956
21
-95.8972
0
LINE
8
BLACK
6
CONTINUOUS
10
229.956
20
-95.8972
11
229.932
21
-95.9168
0
LINE
8
BLACK
6
CONTINUOUS
10
229.932
20
-95.9168
11
229.909
21
-95.9381
0
LINE
8
BLACK
6
CONTINUOUS
10
229.909
20
-95.9381
11
229.904
21
-95.939
0
LINE
8
BLACK
6
CONTINUOUS
10
229.904
20
-95.939
11
229.9
21
-95.942
0
LINE
8
BLACK
6
CONTINUOUS
10
229.9
20
-95.942
11
229.869
21
-95.9452
0
LINE
8
BLACK
6
CONTINUOUS
10
229.869
20
-95.9452
11
229.838
21
-95.9508
0
LINE
8
BLACK
6
CONTINUOUS
10
229.838
20
-95.9508
11
229.834
21
-95.949
0
LINE
8
BLACK
6
CONTINUOUS
10
229.834
20
-95.949
11
229.829
21
-95.9495
0
LINE
8
BLACK
6
CONTINUOUS
10
229.829
20
-95.9495
11
229.801
21
-95.9354
0
LINE
8
BLACK
6
CONTINUOUS
10
229.801
20
-95.9354
11
229.772
21
-95.9234
0
LINE
8
BLACK
6
CONTINUOUS
10
229.772
20
-95.9234
11
229.769
21
-95.9195
0
LINE
8
BLACK
6
CONTINUOUS
10
229.769
20
-95.9195
11
229.765
21
-95.9174
0
LINE
8
BLACK
6
CONTINUOUS
10
229.765
20
-95.9174
11
229.749
21
-95.8904
0
LINE
8
BLACK
6
CONTINUOUS
10
229.749
20
-95.8904
11
229.731
21
-95.8647
0
LINE
8
BLACK
6
CONTINUOUS
10
229.731
20
-95.8647
11
229.308
21
-94.5947
0
LINE
8
BLACK
6
CONTINUOUS
10
229.308
20
-94.5947
11
229.302
21
-94.5588
0
LINE
8
BLACK
6
CONTINUOUS
10
229.302
20
-94.5588
11
229.319
21
-94.4896
0
LINE
8
BLACK
6
CONTINUOUS
10
229.319
20
-94.4896
11
229.372
21
-94.4409
0
LINE
8
BLACK
6
CONTINUOUS
10
229.372
20
-94.4409
11
229.442
21
-94.4283
0
LINE
8
BLACK
6
CONTINUOUS
10
229.442
20
-94.4283
11
229.508
21
-94.4556
0
LINE
8
BLACK
6
CONTINUOUS
10
201.301
20
-94.4556
11
201.342
21
-94.5144
0
LINE
8
BLACK
6
CONTINUOUS
10
201.342
20
-94.5144
11
201.645
21
-95.4229
0
LINE
8
BLACK
6
CONTINUOUS
10
201.645
20
-95.4229
11
201.948
21
-94.5144
0
LINE
8
BLACK
6
CONTINUOUS
10
201.948
20
-94.5144
11
201.964
21
-94.4818
0
LINE
8
BLACK
6
CONTINUOUS
10
201.964
20
-94.4818
11
202.02
21
-94.4371
0
LINE
8
BLACK
6
CONTINUOUS
10
202.02
20
-94.4371
11
202.091
21
-94.4296
0
LINE
8
BLACK
6
CONTINUOUS
10
202.091
20
-94.4296
11
202.155
21
-94.4617
0
LINE
8
BLACK
6
CONTINUOUS
10
202.155
20
-94.4617
11
202.191
21
-94.5232
0
LINE
8
BLACK
6
CONTINUOUS
10
202.191
20
-94.5232
11
202.189
21
-94.5947
0
LINE
8
BLACK
6
CONTINUOUS
10
202.189
20
-94.5947
11
201.766
21
-95.8647
0
LINE
8
BLACK
6
CONTINUOUS
10
201.766
20
-95.8647
11
201.755
21
-95.885
0
LINE
8
BLACK
6
CONTINUOUS
10
201.755
20
-95.885
11
201.754
21
-95.8895
0
LINE
8
BLACK
6
CONTINUOUS
10
201.754
20
-95.8895
11
201.752
21
-95.8914
0
LINE
8
BLACK
6
CONTINUOUS
10
201.752
20
-95.8914
11
201.749
21
-95.8972
0
LINE
8
BLACK
6
CONTINUOUS
10
201.749
20
-95.8972
11
201.725
21
-95.9168
0
LINE
8
BLACK
6
CONTINUOUS
10
201.725
20
-95.9168
11
201.702
21
-95.9381
0
LINE
8
BLACK
6
CONTINUOUS
10
201.702
20
-95.9381
11
201.697
21
-95.939
0
LINE
8
BLACK
6
CONTINUOUS
10
201.697
20
-95.939
11
201.693
21
-95.942
0
LINE
8
BLACK
6
CONTINUOUS
10
201.693
20
-95.942
11
201.662
21
-95.9452
0
LINE
8
BLACK
6
CONTINUOUS
10
201.662
20
-95.9452
11
201.631
21
-95.9508
0
LINE
8
BLACK
6
CONTINUOUS
10
201.631
20
-95.9508
11
201.627
21
-95.949
0
LINE
8
BLACK
6
CONTINUOUS
10
201.627
20
-95.949
11
201.622
21
-95.9495
0
LINE
8
BLACK
6
CONTINUOUS
10
201.622
20
-95.9495
11
201.594
21
-95.9354
0
LINE
8
BLACK
6
CONTINUOUS
10
201.594
20
-95.9354
11
201.565
21
-95.9234
0
LINE
8
BLACK
6
CONTINUOUS
10
201.565
20
-95.9234
11
201.563
21
-95.9195
0
LINE
8
BLACK
6
CONTINUOUS
10
201.563
20
-95.9195
11
201.558
21
-95.9174
0
LINE
8
BLACK
6
CONTINUOUS
10
201.558
20
-95.9174
11
201.542
21
-95.8904
0
LINE
8
BLACK
6
CONTINUOUS
10
201.542
20
-95.8904
11
201.525
21
-95.8647
0
LINE
8
BLACK
6
CONTINUOUS
10
201.525
20
-95.8647
11
201.101
21
-94.5947
0
LINE
8
BLACK
6
CONTINUOUS
10
201.101
20
-94.5947
11
201.095
21
-94.5588
0
LINE
8
BLACK
6
CONTINUOUS
10
201.095
20
-94.5588
11
201.113
21
-94.4896
0
LINE
8
BLACK
6
CONTINUOUS
10
201.113
20
-94.4896
11
201.165
21
-94.4409
0
LINE
8
BLACK
6
CONTINUOUS
10
201.165
20
-94.4409
11
201.235
21
-94.4283
0
LINE
8
BLACK
6
CONTINUOUS
10
201.235
20
-94.4283
11
201.301
21
-94.4556
0
LINE
8
BLACK
6
CONTINUOUS
10
231.027
20
-94.4012
11
231.064
21
-94.4628
0
LINE
8
BLACK
6
CONTINUOUS
10
231.064
20
-94.4628
11
231.061
21
-94.5342
0
LINE
8
BLACK
6
CONTINUOUS
10
231.061
20
-94.5342
11
230.814
21
-95.2742
0
LINE
8
BLACK
6
CONTINUOUS
10
230.814
20
-95.2742
11
231.116
21
-95.2742
0
LINE
8
BLACK
6
CONTINUOUS
10
231.116
20
-95.2742
11
231.116
21
-94.9779
0
LINE
8
BLACK
6
CONTINUOUS
10
231.116
20
-94.9779
11
231.121
21
-94.9418
0
LINE
8
BLACK
6
CONTINUOUS
10
231.121
20
-94.9418
11
231.16
21
-94.8817
0
LINE
8
BLACK
6
CONTINUOUS
10
231.16
20
-94.8817
11
231.225
21
-94.8521
0
LINE
8
BLACK
6
CONTINUOUS
10
231.225
20
-94.8521
11
231.296
21
-94.8624
0
LINE
8
BLACK
6
CONTINUOUS
10
231.296
20
-94.8624
11
231.35
21
-94.9092
0
LINE
8
BLACK
6
CONTINUOUS
10
231.35
20
-94.9092
11
231.37
21
-94.9779
0
LINE
8
BLACK
6
CONTINUOUS
10
231.37
20
-94.9779
11
231.37
21
-95.2742
0
LINE
8
BLACK
6
CONTINUOUS
10
231.37
20
-95.2742
11
231.424
21
-95.2742
0
LINE
8
BLACK
6
CONTINUOUS
10
231.424
20
-95.2742
11
231.46
21
-95.2794
0
LINE
8
BLACK
6
CONTINUOUS
10
231.46
20
-95.2794
11
231.52
21
-95.3182
0
LINE
8
BLACK
6
CONTINUOUS
10
231.52
20
-95.3182
11
231.55
21
-95.3833
0
LINE
8
BLACK
6
CONTINUOUS
10
231.55
20
-95.3833
11
231.54
21
-95.4541
0
LINE
8
BLACK
6
CONTINUOUS
10
231.54
20
-95.4541
11
231.493
21
-95.5081
0
LINE
8
BLACK
6
CONTINUOUS
10
231.493
20
-95.5081
11
231.424
21
-95.5282
0
LINE
8
BLACK
6
CONTINUOUS
10
231.424
20
-95.5282
11
231.37
21
-95.5282
0
LINE
8
BLACK
6
CONTINUOUS
10
231.37
20
-95.5282
11
231.37
21
-95.8245
0
LINE
8
BLACK
6
CONTINUOUS
10
231.37
20
-95.8245
11
231.365
21
-95.8606
0
LINE
8
BLACK
6
CONTINUOUS
10
231.365
20
-95.8606
11
231.326
21
-95.9207
0
LINE
8
BLACK
6
CONTINUOUS
10
231.326
20
-95.9207
11
231.261
21
-95.9503
0
LINE
8
BLACK
6
CONTINUOUS
10
231.261
20
-95.9503
11
231.19
21
-95.94
0
LINE
8
BLACK
6
CONTINUOUS
10
231.19
20
-95.94
11
231.136
21
-95.8931
0
LINE
8
BLACK
6
CONTINUOUS
10
231.136
20
-95.8931
11
231.116
21
-95.8245
0
LINE
8
BLACK
6
CONTINUOUS
10
231.116
20
-95.8245
11
231.116
21
-95.5282
0
LINE
8
BLACK
6
CONTINUOUS
10
231.116
20
-95.5282
11
230.638
21
-95.5282
0
LINE
8
BLACK
6
CONTINUOUS
10
230.638
20
-95.5282
11
230.62
21
-95.5256
0
LINE
8
BLACK
6
CONTINUOUS
10
230.62
20
-95.5256
11
230.615
21
-95.5261
0
LINE
8
BLACK
6
CONTINUOUS
10
230.615
20
-95.5261
11
230.612
21
-95.5244
0
LINE
8
BLACK
6
CONTINUOUS
10
230.612
20
-95.5244
11
230.602
21
-95.523
0
LINE
8
BLACK
6
CONTINUOUS
10
230.602
20
-95.523
11
230.577
21
-95.5071
0
LINE
8
BLACK
6
CONTINUOUS
10
230.577
20
-95.5071
11
230.551
21
-95.494
0
LINE
8
BLACK
6
CONTINUOUS
10
230.551
20
-95.494
11
230.548
21
-95.488
0
LINE
8
BLACK
6
CONTINUOUS
10
230.548
20
-95.488
11
230.542
21
-95.4842
0
LINE
8
BLACK
6
CONTINUOUS
10
230.542
20
-95.4842
11
230.53
21
-95.4576
0
LINE
8
BLACK
6
CONTINUOUS
10
230.53
20
-95.4576
11
230.515
21
-95.4325
0
LINE
8
BLACK
6
CONTINUOUS
10
230.515
20
-95.4325
11
230.515
21
-95.4255
0
LINE
8
BLACK
6
CONTINUOUS
10
230.515
20
-95.4255
11
230.512
21
-95.4191
0
LINE
8
BLACK
6
CONTINUOUS
10
230.512
20
-95.4191
11
230.516
21
-95.3902
0
LINE
8
BLACK
6
CONTINUOUS
10
230.516
20
-95.3902
11
230.518
21
-95.361
0
LINE
8
BLACK
6
CONTINUOUS
10
230.518
20
-95.361
11
230.82
21
-94.4539
0
LINE
8
BLACK
6
CONTINUOUS
10
230.82
20
-94.4539
11
230.836
21
-94.4213
0
LINE
8
BLACK
6
CONTINUOUS
10
230.836
20
-94.4213
11
230.892
21
-94.3766
0
LINE
8
BLACK
6
CONTINUOUS
10
230.892
20
-94.3766
11
230.963
21
-94.3691
0
LINE
8
BLACK
6
CONTINUOUS
10
230.963
20
-94.3691
11
231.027
21
-94.4012
0
LINE
8
BLACK
6
CONTINUOUS
10
228.86
20
-94.4328
11
228.869
21
-94.4389
0
LINE
8
BLACK
6
CONTINUOUS
10
228.869
20
-94.4389
11
228.881
21
-94.4409
0
LINE
8
BLACK
6
CONTINUOUS
10
228.881
20
-94.4409
11
229.002
21
-94.5014
0
LINE
8
BLACK
6
CONTINUOUS
10
229.002
20
-94.5014
11
229.031
21
-94.5222
0
LINE
8
BLACK
6
CONTINUOUS
10
229.031
20
-94.5222
11
229.033
21
-94.5241
0
LINE
8
BLACK
6
CONTINUOUS
10
229.033
20
-94.5241
11
229.035
21
-94.5252
0
LINE
8
BLACK
6
CONTINUOUS
10
229.035
20
-94.5252
11
229.095
21
-94.5857
0
LINE
8
BLACK
6
CONTINUOUS
10
229.095
20
-94.5857
11
229.117
21
-94.6149
0
LINE
8
BLACK
6
CONTINUOUS
10
229.117
20
-94.6149
11
229.117
21
-94.6171
0
LINE
8
BLACK
6
CONTINUOUS
10
229.117
20
-94.6171
11
229.119
21
-94.6187
0
LINE
8
BLACK
6
CONTINUOUS
10
229.119
20
-94.6187
11
229.179
21
-94.7396
0
LINE
8
BLACK
6
CONTINUOUS
10
229.179
20
-94.7396
11
229.191
21
-94.7742
0
LINE
8
BLACK
6
CONTINUOUS
10
229.191
20
-94.7742
11
229.189
21
-94.7855
0
LINE
8
BLACK
6
CONTINUOUS
10
229.189
20
-94.7855
11
229.193
21
-94.7964
0
LINE
8
BLACK
6
CONTINUOUS
10
229.193
20
-94.7964
11
229.193
21
-94.9779
0
LINE
8
BLACK
6
CONTINUOUS
10
229.193
20
-94.9779
11
229.187
21
-95.0139
0
LINE
8
BLACK
6
CONTINUOUS
10
229.187
20
-95.0139
11
229.181
21
-95.0235
0
LINE
8
BLACK
6
CONTINUOUS
10
229.181
20
-95.0235
11
229.179
21
-95.0347
0
LINE
8
BLACK
6
CONTINUOUS
10
229.179
20
-95.0347
11
229.119
21
-95.1556
0
LINE
8
BLACK
6
CONTINUOUS
10
229.119
20
-95.1556
11
229.098
21
-95.1855
0
LINE
8
BLACK
6
CONTINUOUS
10
229.098
20
-95.1855
11
229.096
21
-95.1867
0
LINE
8
BLACK
6
CONTINUOUS
10
229.096
20
-95.1867
11
229.095
21
-95.1886
0
LINE
8
BLACK
6
CONTINUOUS
10
229.095
20
-95.1886
11
229.035
21
-95.2491
0
LINE
8
BLACK
6
CONTINUOUS
10
229.035
20
-95.2491
11
229.005
21
-95.2709
0
LINE
8
BLACK
6
CONTINUOUS
10
229.005
20
-95.2709
11
229.003
21
-95.2714
0
LINE
8
BLACK
6
CONTINUOUS
10
229.003
20
-95.2714
11
229.002
21
-95.2729
0
LINE
8
BLACK
6
CONTINUOUS
10
229.002
20
-95.2729
11
228.881
21
-95.3334
0
LINE
8
BLACK
6
CONTINUOUS
10
228.881
20
-95.3334
11
228.878
21
-95.3343
0
LINE
8
BLACK
6
CONTINUOUS
10
228.878
20
-95.3343
11
229.17
21
-95.7517
0
LINE
8
BLACK
6
CONTINUOUS
10
229.17
20
-95.7517
11
229.186
21
-95.7842
0
LINE
8
BLACK
6
CONTINUOUS
10
229.186
20
-95.7842
11
229.189
21
-95.8557
0
LINE
8
BLACK
6
CONTINUOUS
10
229.189
20
-95.8557
11
229.152
21
-95.9173
0
LINE
8
BLACK
6
CONTINUOUS
10
229.152
20
-95.9173
11
229.089
21
-95.9494
0
LINE
8
BLACK
6
CONTINUOUS
10
229.089
20
-95.9494
11
229.017
21
-95.942
0
LINE
8
BLACK
6
CONTINUOUS
10
229.017
20
-95.942
11
228.962
21
-95.8974
0
LINE
8
BLACK
6
CONTINUOUS
10
228.962
20
-95.8974
11
228.576
21
-95.3468
0
LINE
8
BLACK
6
CONTINUOUS
10
228.576
20
-95.3468
11
228.467
21
-95.3468
0
LINE
8
BLACK
6
CONTINUOUS
10
228.467
20
-95.3468
11
228.467
21
-95.8245
0
LINE
8
BLACK
6
CONTINUOUS
10
228.467
20
-95.8245
11
228.462
21
-95.8606
0
LINE
8
BLACK
6
CONTINUOUS
10
228.462
20
-95.8606
11
228.423
21
-95.9207
0
LINE
8
BLACK
6
CONTINUOUS
10
228.423
20
-95.9207
11
228.358
21
-95.9503
0
LINE
8
BLACK
6
CONTINUOUS
10
228.358
20
-95.9503
11
228.287
21
-95.94
0
LINE
8
BLACK
6
CONTINUOUS
10
228.287
20
-95.94
11
228.233
21
-95.8931
0
LINE
8
BLACK
6
CONTINUOUS
10
228.233
20
-95.8931
11
228.213
21
-95.8245
0
LINE
8
BLACK
6
CONTINUOUS
10
228.213
20
-95.8245
11
228.213
21
-94.5545
0
LINE
8
BLACK
6
CONTINUOUS
10
228.213
20
-94.5545
11
228.218
21
-94.5185
0
LINE
8
BLACK
6
CONTINUOUS
10
228.218
20
-94.5185
11
228.223
21
-94.5107
0
LINE
8
BLACK
6
CONTINUOUS
10
228.223
20
-94.5107
11
228.224
21
-94.5017
0
LINE
8
BLACK
6
CONTINUOUS
10
228.224
20
-94.5017
11
228.242
21
-94.4812
0
LINE
8
BLACK
6
CONTINUOUS
10
228.242
20
-94.4812
11
228.257
21
-94.4584
0
LINE
8
BLACK
6
CONTINUOUS
10
228.257
20
-94.4584
11
228.265
21
-94.4546
0
LINE
8
BLACK
6
CONTINUOUS
10
228.265
20
-94.4546
11
228.271
21
-94.4477
0
LINE
8
BLACK
6
CONTINUOUS
10
228.271
20
-94.4477
11
228.297
21
-94.44
0
LINE
8
BLACK
6
CONTINUOUS
10
228.297
20
-94.44
11
228.322
21
-94.4288
0
LINE
8
BLACK
6
CONTINUOUS
10
228.322
20
-94.4288
11
228.331
21
-94.4301
0
LINE
8
BLACK
6
CONTINUOUS
10
228.331
20
-94.4301
11
228.34
21
-94.4275
0
LINE
8
BLACK
6
CONTINUOUS
10
228.34
20
-94.4275
11
228.824
21
-94.4275
0
LINE
8
BLACK
6
CONTINUOUS
10
228.824
20
-94.4275
11
228.86
21
-94.4328
0
LINE
8
BLACK
6
CONTINUOUS
10
228.467
20
-94.6815
11
228.467
21
-95.0928
0
LINE
8
BLACK
6
CONTINUOUS
10
228.467
20
-95.0928
11
228.794
21
-95.0928
0
LINE
8
BLACK
6
CONTINUOUS
10
228.794
20
-95.0928
11
228.869
21
-95.0549
0
LINE
8
BLACK
6
CONTINUOUS
10
228.869
20
-95.0549
11
228.901
21
-95.0236
0
LINE
8
BLACK
6
CONTINUOUS
10
228.901
20
-95.0236
11
228.939
21
-94.9479
0
LINE
8
BLACK
6
CONTINUOUS
10
228.939
20
-94.9479
11
228.939
21
-94.8264
0
LINE
8
BLACK
6
CONTINUOUS
10
228.939
20
-94.8264
11
228.901
21
-94.7507
0
LINE
8
BLACK
6
CONTINUOUS
10
228.901
20
-94.7507
11
228.869
21
-94.7194
0
LINE
8
BLACK
6
CONTINUOUS
10
228.869
20
-94.7194
11
228.794
21
-94.6815
0
LINE
8
BLACK
6
CONTINUOUS
10
228.794
20
-94.6815
11
228.467
21
-94.6815
0
LINE
8
BLACK
6
CONTINUOUS
10
200.653
20
-94.4328
11
200.663
21
-94.4389
0
LINE
8
BLACK
6
CONTINUOUS
10
200.663
20
-94.4389
11
200.674
21
-94.4409
0
LINE
8
BLACK
6
CONTINUOUS
10
200.674
20
-94.4409
11
200.795
21
-94.5014
0
LINE
8
BLACK
6
CONTINUOUS
10
200.795
20
-94.5014
11
200.825
21
-94.5222
0
LINE
8
BLACK
6
CONTINUOUS
10
200.825
20
-94.5222
11
200.826
21
-94.5241
0
LINE
8
BLACK
6
CONTINUOUS
10
200.826
20
-94.5241
11
200.828
21
-94.5252
0
LINE
8
BLACK
6
CONTINUOUS
10
200.828
20
-94.5252
11
200.888
21
-94.5857
0
LINE
8
BLACK
6
CONTINUOUS
10
200.888
20
-94.5857
11
200.91
21
-94.6149
0
LINE
8
BLACK
6
CONTINUOUS
10
200.91
20
-94.6149
11
200.91
21
-94.6171
0
LINE
8
BLACK
6
CONTINUOUS
10
200.91
20
-94.6171
11
200.912
21
-94.6187
0
LINE
8
BLACK
6
CONTINUOUS
10
200.912
20
-94.6187
11
200.972
21
-94.7396
0
LINE
8
BLACK
6
CONTINUOUS
10
200.972
20
-94.7396
11
200.984
21
-94.7742
0
LINE
8
BLACK
6
CONTINUOUS
10
200.984
20
-94.7742
11
200.983
21
-94.7855
0
LINE
8
BLACK
6
CONTINUOUS
10
200.983
20
-94.7855
11
200.986
21
-94.7964
0
LINE
8
BLACK
6
CONTINUOUS
10
200.986
20
-94.7964
11
200.986
21
-94.9779
0
LINE
8
BLACK
6
CONTINUOUS
10
200.986
20
-94.9779
11
200.981
21
-95.0139
0
LINE
8
BLACK
6
CONTINUOUS
10
200.981
20
-95.0139
11
200.974
21
-95.0235
0
LINE
8
BLACK
6
CONTINUOUS
10
200.974
20
-95.0235
11
200.972
21
-95.0347
0
LINE
8
BLACK
6
CONTINUOUS
10
200.972
20
-95.0347
11
200.912
21
-95.1556
0
LINE
8
BLACK
6
CONTINUOUS
10
200.912
20
-95.1556
11
200.891
21
-95.1855
0
LINE
8
BLACK
6
CONTINUOUS
10
200.891
20
-95.1855
11
200.889
21
-95.1867
0
LINE
8
BLACK
6
CONTINUOUS
10
200.889
20
-95.1867
11
200.888
21
-95.1886
0
LINE
8
BLACK
6
CONTINUOUS
10
200.888
20
-95.1886
11
200.828
21
-95.2491
0
LINE
8
BLACK
6
CONTINUOUS
10
200.828
20
-95.2491
11
200.799
21
-95.2709
0
LINE
8
BLACK
6
CONTINUOUS
10
200.799
20
-95.2709
11
200.796
21
-95.2714
0
LINE
8
BLACK
6
CONTINUOUS
10
200.796
20
-95.2714
11
200.795
21
-95.2729
0
LINE
8
BLACK
6
CONTINUOUS
10
200.795
20
-95.2729
11
200.674
21
-95.3334
0
LINE
8
BLACK
6
CONTINUOUS
10
200.674
20
-95.3334
11
200.671
21
-95.3343
0
LINE
8
BLACK
6
CONTINUOUS
10
200.671
20
-95.3343
11
200.963
21
-95.7517
0
LINE
8
BLACK
6
CONTINUOUS
10
200.963
20
-95.7517
11
200.979
21
-95.7842
0
LINE
8
BLACK
6
CONTINUOUS
10
200.979
20
-95.7842
11
200.982
21
-95.8557
0
LINE
8
BLACK
6
CONTINUOUS
10
200.982
20
-95.8557
11
200.946
21
-95.9173
0
LINE
8
BLACK
6
CONTINUOUS
10
200.946
20
-95.9173
11
200.882
21
-95.9494
0
LINE
8
BLACK
6
CONTINUOUS
10
200.882
20
-95.9494
11
200.811
21
-95.942
0
LINE
8
BLACK
6
CONTINUOUS
10
200.811
20
-95.942
11
200.755
21
-95.8974
0
LINE
8
BLACK
6
CONTINUOUS
10
200.755
20
-95.8974
11
200.369
21
-95.3468
0
LINE
8
BLACK
6
CONTINUOUS
10
200.369
20
-95.3468
11
200.26
21
-95.3468
0
LINE
8
BLACK
6
CONTINUOUS
10
200.26
20
-95.3468
11
200.26
21
-95.8245
0
LINE
8
BLACK
6
CONTINUOUS
10
200.26
20
-95.8245
11
200.255
21
-95.8606
0
LINE
8
BLACK
6
CONTINUOUS
10
200.255
20
-95.8606
11
200.216
21
-95.9207
0
LINE
8
BLACK
6
CONTINUOUS
10
200.216
20
-95.9207
11
200.151
21
-95.9503
0
LINE
8
BLACK
6
CONTINUOUS
10
200.151
20
-95.9503
11
200.08
21
-95.94
0
LINE
8
BLACK
6
CONTINUOUS
10
200.08
20
-95.94
11
200.026
21
-95.8931
0
LINE
8
BLACK
6
CONTINUOUS
10
200.026
20
-95.8931
11
200.006
21
-95.8245
0
LINE
8
BLACK
6
CONTINUOUS
10
200.006
20
-95.8245
11
200.006
21
-94.5545
0
LINE
8
BLACK
6
CONTINUOUS
10
200.006
20
-94.5545
11
200.011
21
-94.5185
0
LINE
8
BLACK
6
CONTINUOUS
10
200.011
20
-94.5185
11
200.016
21
-94.5107
0
LINE
8
BLACK
6
CONTINUOUS
10
200.016
20
-94.5107
11
200.018
21
-94.5017
0
LINE
8
BLACK
6
CONTINUOUS
10
200.018
20
-94.5017
11
200.035
21
-94.4812
0
LINE
8
BLACK
6
CONTINUOUS
10
200.035
20
-94.4812
11
200.05
21
-94.4584
0
LINE
8
BLACK
6
CONTINUOUS
10
200.05
20
-94.4584
11
200.059
21
-94.4546
0
LINE
8
BLACK
6
CONTINUOUS
10
200.059
20
-94.4546
11
200.065
21
-94.4477
0
LINE
8
BLACK
6
CONTINUOUS
10
200.065
20
-94.4477
11
200.091
21
-94.44
0
LINE
8
BLACK
6
CONTINUOUS
10
200.091
20
-94.44
11
200.115
21
-94.4288
0
LINE
8
BLACK
6
CONTINUOUS
10
200.115
20
-94.4288
11
200.124
21
-94.4301
0
LINE
8
BLACK
6
CONTINUOUS
10
200.124
20
-94.4301
11
200.133
21
-94.4275
0
LINE
8
BLACK
6
CONTINUOUS
10
200.133
20
-94.4275
11
200.617
21
-94.4275
0
LINE
8
BLACK
6
CONTINUOUS
10
200.617
20
-94.4275
11
200.653
21
-94.4328
0
LINE
8
BLACK
6
CONTINUOUS
10
200.26
20
-94.6815
11
200.26
21
-95.0928
0
LINE
8
BLACK
6
CONTINUOUS
10
200.26
20
-95.0928
11
200.587
21
-95.0928
0
LINE
8
BLACK
6
CONTINUOUS
10
200.587
20
-95.0928
11
200.663
21
-95.0549
0
LINE
8
BLACK
6
CONTINUOUS
10
200.663
20
-95.0549
11
200.694
21
-95.0236
0
LINE
8
BLACK
6
CONTINUOUS
10
200.694
20
-95.0236
11
200.732
21
-94.9479
0
LINE
8
BLACK
6
CONTINUOUS
10
200.732
20
-94.9479
11
200.732
21
-94.8264
0
LINE
8
BLACK
6
CONTINUOUS
10
200.732
20
-94.8264
11
200.694
21
-94.7507
0
LINE
8
BLACK
6
CONTINUOUS
10
200.694
20
-94.7507
11
200.663
21
-94.7194
0
LINE
8
BLACK
6
CONTINUOUS
10
200.663
20
-94.7194
11
200.587
21
-94.6815
0
LINE
8
BLACK
6
CONTINUOUS
10
200.587
20
-94.6815
11
200.26
21
-94.6815
0
LINE
8
BLACK
6
CONTINUOUS
10
227.393
20
-86.7382
11
227.458
21
-86.7816
0
LINE
8
BLACK
6
CONTINUOUS
10
227.458
20
-86.7816
11
227.501
21
-86.8465
0
LINE
8
BLACK
6
CONTINUOUS
10
227.501
20
-86.8465
11
227.51
21
-86.8897
0
LINE
8
BLACK
6
CONTINUOUS
10
227.51
20
-86.8897
11
227.511
21
-86.8921
0
LINE
8
BLACK
6
CONTINUOUS
10
227.511
20
-86.8921
11
227.511
21
-86.8984
0
LINE
8
BLACK
6
CONTINUOUS
10
227.511
20
-86.8984
11
227.516
21
-86.923
0
LINE
8
BLACK
6
CONTINUOUS
10
227.516
20
-86.923
11
227.511
21
-86.9476
0
LINE
8
BLACK
6
CONTINUOUS
10
227.511
20
-86.9476
11
227.511
21
-86.9539
0
LINE
8
BLACK
6
CONTINUOUS
10
227.511
20
-86.9539
11
227.51
21
-86.9563
0
LINE
8
BLACK
6
CONTINUOUS
10
227.51
20
-86.9563
11
227.501
21
-86.9995
0
LINE
8
BLACK
6
CONTINUOUS
10
227.501
20
-86.9995
11
227.458
21
-87.0644
0
LINE
8
BLACK
6
CONTINUOUS
10
227.458
20
-87.0644
11
227.393
21
-87.1078
0
LINE
8
BLACK
6
CONTINUOUS
10
227.393
20
-87.1078
11
227.316
21
-87.123
0
LINE
8
BLACK
6
CONTINUOUS
10
227.316
20
-87.123
11
227.24
21
-87.1078
0
LINE
8
BLACK
6
CONTINUOUS
10
227.24
20
-87.1078
11
227.175
21
-87.0644
0
LINE
8
BLACK
6
CONTINUOUS
10
227.175
20
-87.0644
11
227.132
21
-86.9995
0
LINE
8
BLACK
6
CONTINUOUS
10
227.132
20
-86.9995
11
227.123
21
-86.9563
0
LINE
8
BLACK
6
CONTINUOUS
10
227.123
20
-86.9563
11
227.121
21
-86.9539
0
LINE
8
BLACK
6
CONTINUOUS
10
227.121
20
-86.9539
11
227.121
21
-86.9476
0
LINE
8
BLACK
6
CONTINUOUS
10
227.121
20
-86.9476
11
227.116
21
-86.923
0
LINE
8
BLACK
6
CONTINUOUS
10
227.116
20
-86.923
11
227.121
21
-86.8984
0
LINE
8
BLACK
6
CONTINUOUS
10
227.121
20
-86.8984
11
227.121
21
-86.8921
0
LINE
8
BLACK
6
CONTINUOUS
10
227.121
20
-86.8921
11
227.123
21
-86.8897
0
LINE
8
BLACK
6
CONTINUOUS
10
227.123
20
-86.8897
11
227.132
21
-86.8465
0
LINE
8
BLACK
6
CONTINUOUS
10
227.132
20
-86.8465
11
227.175
21
-86.7816
0
LINE
8
BLACK
6
CONTINUOUS
10
227.175
20
-86.7816
11
227.24
21
-86.7382
0
LINE
8
BLACK
6
CONTINUOUS
10
227.24
20
-86.7382
11
227.316
21
-86.723
0
LINE
8
BLACK
6
CONTINUOUS
10
227.316
20
-86.723
11
227.393
21
-86.7382
0
LINE
8
BLACK
6
CONTINUOUS
10
199.025
20
-86.7357
11
199.09
21
-86.779
0
LINE
8
BLACK
6
CONTINUOUS
10
199.09
20
-86.779
11
199.133
21
-86.8439
0
LINE
8
BLACK
6
CONTINUOUS
10
199.133
20
-86.8439
11
199.142
21
-86.8872
0
LINE
8
BLACK
6
CONTINUOUS
10
199.142
20
-86.8872
11
199.143
21
-86.8896
0
LINE
8
BLACK
6
CONTINUOUS
10
199.143
20
-86.8896
11
199.143
21
-86.8959
0
LINE
8
BLACK
6
CONTINUOUS
10
199.143
20
-86.8959
11
199.148
21
-86.9205
0
LINE
8
BLACK
6
CONTINUOUS
10
199.148
20
-86.9205
11
199.143
21
-86.9451
0
LINE
8
BLACK
6
CONTINUOUS
10
199.143
20
-86.9451
11
199.143
21
-86.9514
0
LINE
8
BLACK
6
CONTINUOUS
10
199.143
20
-86.9514
11
199.142
21
-86.9537
0
LINE
8
BLACK
6
CONTINUOUS
10
199.142
20
-86.9537
11
199.133
21
-86.997
0
LINE
8
BLACK
6
CONTINUOUS
10
199.133
20
-86.997
11
199.09
21
-87.0619
0
LINE
8
BLACK
6
CONTINUOUS
10
199.09
20
-87.0619
11
199.025
21
-87.1052
0
LINE
8
BLACK
6
CONTINUOUS
10
199.025
20
-87.1052
11
198.948
21
-87.1205
0
LINE
8
BLACK
6
CONTINUOUS
10
198.948
20
-87.1205
11
198.872
21
-87.1052
0
LINE
8
BLACK
6
CONTINUOUS
10
198.872
20
-87.1052
11
198.807
21
-87.0619
0
LINE
8
BLACK
6
CONTINUOUS
10
198.807
20
-87.0619
11
198.763
21
-86.997
0
LINE
8
BLACK
6
CONTINUOUS
10
198.763
20
-86.997
11
198.755
21
-86.9537
0
LINE
8
BLACK
6
CONTINUOUS
10
198.755
20
-86.9537
11
198.753
21
-86.9514
0
LINE
8
BLACK
6
CONTINUOUS
10
198.753
20
-86.9514
11
198.753
21
-86.9451
0
LINE
8
BLACK
6
CONTINUOUS
10
198.753
20
-86.9451
11
198.748
21
-86.9205
0
LINE
8
BLACK
6
CONTINUOUS
10
198.748
20
-86.9205
11
198.753
21
-86.8959
0
LINE
8
BLACK
6
CONTINUOUS
10
198.753
20
-86.8959
11
198.753
21
-86.8896
0
LINE
8
BLACK
6
CONTINUOUS
10
198.753
20
-86.8896
11
198.755
21
-86.8872
0
LINE
8
BLACK
6
CONTINUOUS
10
198.755
20
-86.8872
11
198.763
21
-86.8439
0
LINE
8
BLACK
6
CONTINUOUS
10
198.763
20
-86.8439
11
198.807
21
-86.779
0
LINE
8
BLACK
6
CONTINUOUS
10
198.807
20
-86.779
11
198.872
21
-86.7357
0
LINE
8
BLACK
6
CONTINUOUS
10
198.872
20
-86.7357
11
198.948
21
-86.7205
0
LINE
8
BLACK
6
CONTINUOUS
10
198.948
20
-86.7205
11
199.025
21
-86.7357
0
LINE
8
BLACK
6
CONTINUOUS
10
224.431
20
-84.7584
11
224.416
21
-84.723
0
LINE
8
BLACK
6
CONTINUOUS
10
224.416
20
-84.723
11
224.416
21
-80.763
0
LINE
8
BLACK
6
CONTINUOUS
10
224.416
20
-80.763
11
224.431
21
-80.7276
0
LINE
8
BLACK
6
CONTINUOUS
10
224.431
20
-80.7276
11
224.466
21
-80.713
0
LINE
8
BLACK
6
CONTINUOUS
10
224.466
20
-80.713
11
224.502
21
-80.7276
0
LINE
8
BLACK
6
CONTINUOUS
10
224.502
20
-80.7276
11
224.516
21
-80.763
0
LINE
8
BLACK
6
CONTINUOUS
10
224.516
20
-80.763
11
224.516
21
-84.673
0
LINE
8
BLACK
6
CONTINUOUS
10
224.516
20
-84.673
11
235.116
21
-84.673
0
LINE
8
BLACK
6
CONTINUOUS
10
235.116
20
-84.673
11
235.116
21
-80.763
0
LINE
8
BLACK
6
CONTINUOUS
10
235.116
20
-80.763
11
235.131
21
-80.7276
0
LINE
8
BLACK
6
CONTINUOUS
10
235.131
20
-80.7276
11
235.166
21
-80.713
0
LINE
8
BLACK
6
CONTINUOUS
10
235.166
20
-80.713
11
235.202
21
-80.7276
0
LINE
8
BLACK
6
CONTINUOUS
10
235.202
20
-80.7276
11
235.216
21
-80.763
0
LINE
8
BLACK
6
CONTINUOUS
10
235.216
20
-80.763
11
235.216
21
-84.723
0
LINE
8
BLACK
6
CONTINUOUS
10
235.216
20
-84.723
11
235.202
21
-84.7584
0
LINE
8
BLACK
6
CONTINUOUS
10
235.202
20
-84.7584
11
235.166
21
-84.773
0
LINE
8
BLACK
6
CONTINUOUS
10
235.166
20
-84.773
11
224.466
21
-84.773
0
LINE
8
BLACK
6
CONTINUOUS
10
224.466
20
-84.773
11
224.431
21
-84.7584
0
LINE
8
BLACK
6
CONTINUOUS
10
196.063
20
-84.7558
11
196.048
21
-84.7205
0
LINE
8
BLACK
6
CONTINUOUS
10
196.048
20
-84.7205
11
196.048
21
-80.7605
0
LINE
8
BLACK
6
CONTINUOUS
10
196.048
20
-80.7605
11
196.063
21
-80.7251
0
LINE
8
BLACK
6
CONTINUOUS
10
196.063
20
-80.7251
11
196.098
21
-80.7105
0
LINE
8
BLACK
6
CONTINUOUS
10
196.098
20
-80.7105
11
196.133
21
-80.7251
0
LINE
8
BLACK
6
CONTINUOUS
10
196.133
20
-80.7251
11
196.148
21
-80.7605
0
LINE
8
BLACK
6
CONTINUOUS
10
196.148
20
-80.7605
11
196.148
21
-84.6705
0
LINE
8
BLACK
6
CONTINUOUS
10
196.148
20
-84.6705
11
206.748
21
-84.6705
0
LINE
8
BLACK
6
CONTINUOUS
10
206.748
20
-84.6705
11
206.748
21
-80.7605
0
LINE
8
BLACK
6
CONTINUOUS
10
206.748
20
-80.7605
11
206.763
21
-80.7251
0
LINE
8
BLACK
6
CONTINUOUS
10
206.763
20
-80.7251
11
206.798
21
-80.7105
0
LINE
8
BLACK
6
CONTINUOUS
10
206.798
20
-80.7105
11
206.833
21
-80.7251
0
LINE
8
BLACK
6
CONTINUOUS
10
206.833
20
-80.7251
11
206.848
21
-80.7605
0
LINE
8
BLACK
6
CONTINUOUS
10
206.848
20
-80.7605
11
206.848
21
-84.7205
0
LINE
8
BLACK
6
CONTINUOUS
10
206.848
20
-84.7205
11
206.833
21
-84.7558
0
LINE
8
BLACK
6
CONTINUOUS
10
206.833
20
-84.7558
11
206.798
21
-84.7705
0
LINE
8
BLACK
6
CONTINUOUS
10
206.798
20
-84.7705
11
196.098
21
-84.7705
0
LINE
8
BLACK
6
CONTINUOUS
10
196.098
20
-84.7705
11
196.063
21
-84.7558
0
LINE
8
BLACK
6
CONTINUOUS
10
216.218
20
-76.2143
11
216.222
21
-76.2135
0
LINE
8
BLACK
6
CONTINUOUS
10
216.222
20
-76.2135
11
216.241
21
-76.2244
0
LINE
8
BLACK
6
CONTINUOUS
10
216.241
20
-76.2244
11
216.261
21
-76.2331
0
LINE
8
BLACK
6
CONTINUOUS
10
216.261
20
-76.2331
11
216.263
21
-76.237
0
LINE
8
BLACK
6
CONTINUOUS
10
216.263
20
-76.237
11
216.267
21
-76.2392
0
LINE
8
BLACK
6
CONTINUOUS
10
216.267
20
-76.2392
11
216.274
21
-76.2596
0
LINE
8
BLACK
6
CONTINUOUS
10
216.274
20
-76.2596
11
216.284
21
-76.2791
0
LINE
8
BLACK
6
CONTINUOUS
10
216.284
20
-76.2791
11
216.283
21
-76.2833
0
LINE
8
BLACK
6
CONTINUOUS
10
216.283
20
-76.2833
11
216.284
21
-76.2874
0
LINE
8
BLACK
6
CONTINUOUS
10
216.284
20
-76.2874
11
216.284
21
-77.2124
0
LINE
8
BLACK
6
CONTINUOUS
10
216.284
20
-77.2124
11
216.495
21
-77.2124
0
LINE
8
BLACK
6
CONTINUOUS
10
216.495
20
-77.2124
11
216.521
21
-77.2169
0
LINE
8
BLACK
6
CONTINUOUS
10
216.521
20
-77.2169
11
216.56
21
-77.2499
0
LINE
8
BLACK
6
CONTINUOUS
10
216.56
20
-77.2499
11
216.569
21
-77.3004
0
LINE
8
BLACK
6
CONTINUOUS
10
216.569
20
-77.3004
11
216.543
21
-77.3448
0
LINE
8
BLACK
6
CONTINUOUS
10
216.543
20
-77.3448
11
216.495
21
-77.3624
0
LINE
8
BLACK
6
CONTINUOUS
10
216.495
20
-77.3624
11
215.924
21
-77.3624
0
LINE
8
BLACK
6
CONTINUOUS
10
215.924
20
-77.3624
11
215.898
21
-77.3579
0
LINE
8
BLACK
6
CONTINUOUS
10
215.898
20
-77.3579
11
215.859
21
-77.3249
0
LINE
8
BLACK
6
CONTINUOUS
10
215.859
20
-77.3249
11
215.85
21
-77.2744
0
LINE
8
BLACK
6
CONTINUOUS
10
215.85
20
-77.2744
11
215.875
21
-77.2299
0
LINE
8
BLACK
6
CONTINUOUS
10
215.875
20
-77.2299
11
215.924
21
-77.2124
0
LINE
8
BLACK
6
CONTINUOUS
10
215.924
20
-77.2124
11
216.134
21
-77.2124
0
LINE
8
BLACK
6
CONTINUOUS
10
216.134
20
-77.2124
11
216.134
21
-76.5161
0
LINE
8
BLACK
6
CONTINUOUS
10
216.134
20
-76.5161
11
216.072
21
-76.5785
0
LINE
8
BLACK
6
CONTINUOUS
10
216.072
20
-76.5785
11
216.053
21
-76.5914
0
LINE
8
BLACK
6
CONTINUOUS
10
216.053
20
-76.5914
11
216.052
21
-76.5926
0
LINE
8
BLACK
6
CONTINUOUS
10
216.052
20
-76.5926
11
215.957
21
-76.6402
0
LINE
8
BLACK
6
CONTINUOUS
10
215.957
20
-76.6402
11
215.932
21
-76.6476
0
LINE
8
BLACK
6
CONTINUOUS
10
215.932
20
-76.6476
11
215.882
21
-76.6357
0
LINE
8
BLACK
6
CONTINUOUS
10
215.882
20
-76.6357
11
215.852
21
-76.5945
0
LINE
8
BLACK
6
CONTINUOUS
10
215.852
20
-76.5945
11
215.855
21
-76.5433
0
LINE
8
BLACK
6
CONTINUOUS
10
215.855
20
-76.5433
11
215.89
21
-76.506
0
LINE
8
BLACK
6
CONTINUOUS
10
215.89
20
-76.506
11
215.974
21
-76.4638
0
LINE
8
BLACK
6
CONTINUOUS
10
215.974
20
-76.4638
11
216.056
21
-76.3825
0
LINE
8
BLACK
6
CONTINUOUS
10
216.056
20
-76.3825
11
216.147
21
-76.2458
0
LINE
8
BLACK
6
CONTINUOUS
10
216.147
20
-76.2458
11
216.165
21
-76.2269
0
LINE
8
BLACK
6
CONTINUOUS
10
216.165
20
-76.2269
11
216.169
21
-76.2257
0
LINE
8
BLACK
6
CONTINUOUS
10
216.169
20
-76.2257
11
216.172
21
-76.2224
0
LINE
8
BLACK
6
CONTINUOUS
10
216.172
20
-76.2224
11
216.193
21
-76.2186
0
LINE
8
BLACK
6
CONTINUOUS
10
216.193
20
-76.2186
11
216.214
21
-76.2125
0
LINE
8
BLACK
6
CONTINUOUS
10
216.214
20
-76.2125
11
216.218
21
-76.2143
0
LINE
8
BLACK
6
CONTINUOUS
10
215.378
20
-76.2169
11
215.381
21
-76.2198
0
LINE
8
BLACK
6
CONTINUOUS
10
215.381
20
-76.2198
11
215.386
21
-76.2203
0
LINE
8
BLACK
6
CONTINUOUS
10
215.386
20
-76.2203
11
215.481
21
-76.2679
0
LINE
8
BLACK
6
CONTINUOUS
10
215.481
20
-76.2679
11
215.499
21
-76.2813
0
LINE
8
BLACK
6
CONTINUOUS
10
215.499
20
-76.2813
11
215.5
21
-76.282
0
LINE
8
BLACK
6
CONTINUOUS
10
215.5
20
-76.282
11
215.548
21
-76.3296
0
LINE
8
BLACK
6
CONTINUOUS
10
215.548
20
-76.3296
11
215.561
21
-76.348
0
LINE
8
BLACK
6
CONTINUOUS
10
215.561
20
-76.348
11
215.562
21
-76.3491
0
LINE
8
BLACK
6
CONTINUOUS
10
215.562
20
-76.3491
11
215.61
21
-76.4443
0
LINE
8
BLACK
6
CONTINUOUS
10
215.61
20
-76.4443
11
215.617
21
-76.4693
0
LINE
8
BLACK
6
CONTINUOUS
10
215.617
20
-76.4693
11
215.616
21
-76.4736
0
LINE
8
BLACK
6
CONTINUOUS
10
215.616
20
-76.4736
11
215.618
21
-76.4779
0
LINE
8
BLACK
6
CONTINUOUS
10
215.618
20
-76.4779
11
215.618
21
-76.6207
0
LINE
8
BLACK
6
CONTINUOUS
10
215.618
20
-76.6207
11
215.613
21
-76.6464
0
LINE
8
BLACK
6
CONTINUOUS
10
215.613
20
-76.6464
11
215.61
21
-76.6498
0
LINE
8
BLACK
6
CONTINUOUS
10
215.61
20
-76.6498
11
215.61
21
-76.6543
0
LINE
8
BLACK
6
CONTINUOUS
10
215.61
20
-76.6543
11
215.562
21
-76.7495
0
LINE
8
BLACK
6
CONTINUOUS
10
215.562
20
-76.7495
11
215.549
21
-76.7675
0
LINE
8
BLACK
6
CONTINUOUS
10
215.549
20
-76.7675
11
215.548
21
-76.769
0
LINE
8
BLACK
6
CONTINUOUS
10
215.548
20
-76.769
11
215.5
21
-76.8166
0
LINE
8
BLACK
6
CONTINUOUS
10
215.5
20
-76.8166
11
215.482
21
-76.8295
0
LINE
8
BLACK
6
CONTINUOUS
10
215.482
20
-76.8295
11
215.481
21
-76.8307
0
LINE
8
BLACK
6
CONTINUOUS
10
215.481
20
-76.8307
11
215.386
21
-76.8783
0
LINE
8
BLACK
6
CONTINUOUS
10
215.386
20
-76.8783
11
215.361
21
-76.8857
0
LINE
8
BLACK
6
CONTINUOUS
10
215.361
20
-76.8857
11
215.356
21
-76.8847
0
LINE
8
BLACK
6
CONTINUOUS
10
215.356
20
-76.8847
11
215.353
21
-76.8858
0
LINE
8
BLACK
6
CONTINUOUS
10
215.353
20
-76.8858
11
215.604
21
-77.2444
0
LINE
8
BLACK
6
CONTINUOUS
10
215.604
20
-77.2444
11
215.615
21
-77.268
0
LINE
8
BLACK
6
CONTINUOUS
10
215.615
20
-77.268
11
215.611
21
-77.3191
0
LINE
8
BLACK
6
CONTINUOUS
10
215.611
20
-77.3191
11
215.574
21
-77.3554
0
LINE
8
BLACK
6
CONTINUOUS
10
215.574
20
-77.3554
11
215.523
21
-77.3598
0
LINE
8
BLACK
6
CONTINUOUS
10
215.523
20
-77.3598
11
215.481
21
-77.3304
0
LINE
8
BLACK
6
CONTINUOUS
10
215.481
20
-77.3304
11
215.17
21
-76.8862
0
LINE
8
BLACK
6
CONTINUOUS
10
215.17
20
-76.8862
11
215.046
21
-76.8862
0
LINE
8
BLACK
6
CONTINUOUS
10
215.046
20
-76.8862
11
215.046
21
-77.2874
0
LINE
8
BLACK
6
CONTINUOUS
10
215.046
20
-77.2874
11
215.042
21
-77.313
0
LINE
8
BLACK
6
CONTINUOUS
10
215.042
20
-77.313
11
215.009
21
-77.3523
0
LINE
8
BLACK
6
CONTINUOUS
10
215.009
20
-77.3523
11
214.958
21
-77.3612
0
LINE
8
BLACK
6
CONTINUOUS
10
214.958
20
-77.3612
11
214.914
21
-77.3356
0
LINE
8
BLACK
6
CONTINUOUS
10
214.914
20
-77.3356
11
214.896
21
-77.2874
0
LINE
8
BLACK
6
CONTINUOUS
10
214.896
20
-77.2874
11
214.896
21
-76.2874
0
LINE
8
BLACK
6
CONTINUOUS
10
214.896
20
-76.2874
11
214.898
21
-76.2776
0
LINE
8
BLACK
6
CONTINUOUS
10
214.898
20
-76.2776
11
214.897
21
-76.2744
0
LINE
8
BLACK
6
CONTINUOUS
10
214.897
20
-76.2744
11
214.899
21
-76.2715
0
LINE
8
BLACK
6
CONTINUOUS
10
214.899
20
-76.2715
11
214.901
21
-76.2617
0
LINE
8
BLACK
6
CONTINUOUS
10
214.901
20
-76.2617
11
214.913
21
-76.2468
0
LINE
8
BLACK
6
CONTINUOUS
10
214.913
20
-76.2468
11
214.923
21
-76.2299
0
LINE
8
BLACK
6
CONTINUOUS
10
214.923
20
-76.2299
11
214.929
21
-76.2276
0
LINE
8
BLACK
6
CONTINUOUS
10
214.929
20
-76.2276
11
214.934
21
-76.2224
0
LINE
8
BLACK
6
CONTINUOUS
10
214.934
20
-76.2224
11
214.953
21
-76.219
0
LINE
8
BLACK
6
CONTINUOUS
10
214.953
20
-76.219
11
214.971
21
-76.2124
0
LINE
8
BLACK
6
CONTINUOUS
10
214.971
20
-76.2124
11
215.352
21
-76.2124
0
LINE
8
BLACK
6
CONTINUOUS
10
215.352
20
-76.2124
11
215.378
21
-76.2169
0
LINE
8
BLACK
6
CONTINUOUS
10
215.046
20
-76.3624
11
215.046
21
-76.7362
0
LINE
8
BLACK
6
CONTINUOUS
10
215.046
20
-76.7362
11
215.334
21
-76.7362
0
LINE
8
BLACK
6
CONTINUOUS
10
215.334
20
-76.7362
11
215.403
21
-76.7019
0
LINE
8
BLACK
6
CONTINUOUS
10
215.403
20
-76.7019
11
215.433
21
-76.6715
0
LINE
8
BLACK
6
CONTINUOUS
10
215.433
20
-76.6715
11
215.468
21
-76.603
0
LINE
8
BLACK
6
CONTINUOUS
10
215.468
20
-76.603
11
215.468
21
-76.4956
0
LINE
8
BLACK
6
CONTINUOUS
10
215.468
20
-76.4956
11
215.433
21
-76.427
0
LINE
8
BLACK
6
CONTINUOUS
10
215.433
20
-76.427
11
215.403
21
-76.3966
0
LINE
8
BLACK
6
CONTINUOUS
10
215.403
20
-76.3966
11
215.334
21
-76.3624
0
LINE
8
BLACK
6
CONTINUOUS
10
215.334
20
-76.3624
11
215.046
21
-76.3624
0
LINE
8
BLACK
6
CONTINUOUS
10
235.202
20
-73.3376
11
235.216
21
-73.373
0
LINE
8
BLACK
6
CONTINUOUS
10
235.216
20
-73.373
11
235.216
21
-75.683
0
LINE
8
BLACK
6
CONTINUOUS
10
235.216
20
-75.683
11
235.202
21
-75.7184
0
LINE
8
BLACK
6
CONTINUOUS
10
235.202
20
-75.7184
11
235.166
21
-75.733
0
LINE
8
BLACK
6
CONTINUOUS
10
235.166
20
-75.733
11
235.131
21
-75.7184
0
LINE
8
BLACK
6
CONTINUOUS
10
235.131
20
-75.7184
11
235.116
21
-75.683
0
LINE
8
BLACK
6
CONTINUOUS
10
235.116
20
-75.683
11
235.116
21
-73.423
0
LINE
8
BLACK
6
CONTINUOUS
10
235.116
20
-73.423
11
224.516
21
-73.423
0
LINE
8
BLACK
6
CONTINUOUS
10
224.516
20
-73.423
11
224.516
21
-75.683
0
LINE
8
BLACK
6
CONTINUOUS
10
224.516
20
-75.683
11
224.502
21
-75.7184
0
LINE
8
BLACK
6
CONTINUOUS
10
224.502
20
-75.7184
11
224.466
21
-75.733
0
LINE
8
BLACK
6
CONTINUOUS
10
224.466
20
-75.733
11
224.431
21
-75.7184
0
LINE
8
BLACK
6
CONTINUOUS
10
224.431
20
-75.7184
11
224.416
21
-75.683
0
LINE
8
BLACK
6
CONTINUOUS
10
224.416
20
-75.683
11
224.416
21
-73.373
0
LINE
8
BLACK
6
CONTINUOUS
10
224.416
20
-73.373
11
224.431
21
-73.3376
0
LINE
8
BLACK
6
CONTINUOUS
10
224.431
20
-73.3376
11
224.466
21
-73.323
0
LINE
8
BLACK
6
CONTINUOUS
10
224.466
20
-73.323
11
235.166
21
-73.323
0
LINE
8
BLACK
6
CONTINUOUS
10
235.166
20
-73.323
11
235.202
21
-73.3376
0
LINE
8
BLACK
6
CONTINUOUS
10
206.833
20
-73.3351
11
206.848
21
-73.3705
0
LINE
8
BLACK
6
CONTINUOUS
10
206.848
20
-73.3705
11
206.848
21
-75.6805
0
LINE
8
BLACK
6
CONTINUOUS
10
206.848
20
-75.6805
11
206.833
21
-75.7158
0
LINE
8
BLACK
6
CONTINUOUS
10
206.833
20
-75.7158
11
206.798
21
-75.7305
0
LINE
8
BLACK
6
CONTINUOUS
10
206.798
20
-75.7305
11
206.763
21
-75.7158
0
LINE
8
BLACK
6
CONTINUOUS
10
206.763
20
-75.7158
11
206.748
21
-75.6805
0
LINE
8
BLACK
6
CONTINUOUS
10
206.748
20
-75.6805
11
206.748
21
-73.4205
0
LINE
8
BLACK
6
CONTINUOUS
10
206.748
20
-73.4205
11
196.148
21
-73.4205
0
LINE
8
BLACK
6
CONTINUOUS
10
196.148
20
-73.4205
11
196.148
21
-75.6805
0
LINE
8
BLACK
6
CONTINUOUS
10
196.148
20
-75.6805
11
196.133
21
-75.7158
0
LINE
8
BLACK
6
CONTINUOUS
10
196.133
20
-75.7158
11
196.098
21
-75.7305
0
LINE
8
BLACK
6
CONTINUOUS
10
196.098
20
-75.7305
11
196.063
21
-75.7158
0
LINE
8
BLACK
6
CONTINUOUS
10
196.063
20
-75.7158
11
196.048
21
-75.6805
0
LINE
8
BLACK
6
CONTINUOUS
10
196.048
20
-75.6805
11
196.048
21
-73.3705
0
LINE
8
BLACK
6
CONTINUOUS
10
196.048
20
-73.3705
11
196.063
21
-73.3351
0
LINE
8
BLACK
6
CONTINUOUS
10
196.063
20
-73.3351
11
196.098
21
-73.3205
0
LINE
8
BLACK
6
CONTINUOUS
10
196.098
20
-73.3205
11
206.798
21
-73.3205
0
LINE
8
BLACK
6
CONTINUOUS
10
206.798
20
-73.3205
11
206.833
21
-73.3351
0
LINE
8
BLACK
6
CONTINUOUS
10
217.116
20
-66.3778
11
217.116
21
-72.9178
0
LINE
8
BLACK
6
CONTINUOUS
10
217.116
20
-72.9178
11
217.099
21
-72.9602
0
LINE
8
BLACK
6
CONTINUOUS
10
217.099
20
-72.9602
11
217.056
21
-72.9778
0
LINE
8
BLACK
6
CONTINUOUS
10
217.056
20
-72.9778
11
215.746
21
-72.9778
0
LINE
8
BLACK
6
CONTINUOUS
10
215.746
20
-72.9778
11
215.746
21
-73.6878
0
LINE
8
BLACK
6
CONTINUOUS
10
215.746
20
-73.6878
11
215.729
21
-73.7302
0
LINE
8
BLACK
6
CONTINUOUS
10
215.729
20
-73.7302
11
215.686
21
-73.7478
0
LINE
8
BLACK
6
CONTINUOUS
10
215.686
20
-73.7478
11
215.644
21
-73.7302
0
LINE
8
BLACK
6
CONTINUOUS
10
215.644
20
-73.7302
11
215.626
21
-73.6878
0
LINE
8
BLACK
6
CONTINUOUS
10
215.626
20
-73.6878
11
215.626
21
-72.9778
0
LINE
8
BLACK
6
CONTINUOUS
10
215.626
20
-72.9778
11
214.316
21
-72.9778
0
LINE
8
BLACK
6
CONTINUOUS
10
214.316
20
-72.9778
11
214.274
21
-72.9602
0
LINE
8
BLACK
6
CONTINUOUS
10
214.274
20
-72.9602
11
214.256
21
-72.9178
0
LINE
8
BLACK
6
CONTINUOUS
10
214.256
20
-72.9178
11
214.256
21
-66.3778
0
LINE
8
BLACK
6
CONTINUOUS
10
214.256
20
-66.3778
11
214.274
21
-66.3354
0
LINE
8
BLACK
6
CONTINUOUS
10
214.274
20
-66.3354
11
214.316
21
-66.3178
0
LINE
8
BLACK
6
CONTINUOUS
10
214.316
20
-66.3178
11
215.626
21
-66.3178
0
LINE
8
BLACK
6
CONTINUOUS
10
215.626
20
-66.3178
11
215.626
21
-65.6078
0
LINE
8
BLACK
6
CONTINUOUS
10
215.626
20
-65.6078
11
215.644
21
-65.5654
0
LINE
8
BLACK
6
CONTINUOUS
10
215.644
20
-65.5654
11
215.686
21
-65.5478
0
LINE
8
BLACK
6
CONTINUOUS
10
215.686
20
-65.5478
11
215.729
21
-65.5654
0
LINE
8
BLACK
6
CONTINUOUS
10
215.729
20
-65.5654
11
215.746
21
-65.6078
0
LINE
8
BLACK
6
CONTINUOUS
10
215.746
20
-65.6078
11
215.746
21
-66.3178
0
LINE
8
BLACK
6
CONTINUOUS
10
215.746
20
-66.3178
11
217.056
21
-66.3178
0
LINE
8
BLACK
6
CONTINUOUS
10
217.056
20
-66.3178
11
217.099
21
-66.3354
0
LINE
8
BLACK
6
CONTINUOUS
10
217.099
20
-66.3354
11
217.116
21
-66.3778
0
LINE
8
BLACK
6
CONTINUOUS
10
214.376
20
-72.8578
11
216.996
21
-72.8578
0
LINE
8
BLACK
6
CONTINUOUS
10
216.996
20
-72.8578
11
216.996
21
-66.4378
0
LINE
8
BLACK
6
CONTINUOUS
10
216.996
20
-66.4378
11
214.376
21
-66.4378
0
LINE
8
BLACK
6
CONTINUOUS
10
214.376
20
-66.4378
11
214.376
21
-72.8578
0
LINE
8
BLACK
6
CONTINUOUS
10
202.646
20
-70.3041
11
202.68
21
-70.309
0
LINE
8
BLACK
6
CONTINUOUS
10
202.68
20
-70.309
11
202.681
21
-70.3098
0
LINE
8
BLACK
6
CONTINUOUS
10
202.681
20
-70.3098
11
202.682
21
-70.31
0
LINE
8
BLACK
6
CONTINUOUS
10
202.682
20
-70.31
11
202.708
21
-70.3332
0
LINE
8
BLACK
6
CONTINUOUS
10
202.708
20
-70.3332
11
202.734
21
-70.3559
0
LINE
8
BLACK
6
CONTINUOUS
10
202.734
20
-70.3559
11
202.735
21
-70.357
0
LINE
8
BLACK
6
CONTINUOUS
10
202.735
20
-70.357
11
202.735
21
-70.3578
0
LINE
8
BLACK
6
CONTINUOUS
10
202.735
20
-70.3578
11
202.745
21
-70.3912
0
LINE
8
BLACK
6
CONTINUOUS
10
202.745
20
-70.3912
11
202.754
21
-70.4245
0
LINE
8
BLACK
6
CONTINUOUS
10
202.754
20
-70.4245
11
202.754
21
-71.5675
0
LINE
8
BLACK
6
CONTINUOUS
10
202.754
20
-71.5675
11
202.99
21
-71.5675
0
LINE
8
BLACK
6
CONTINUOUS
10
202.99
20
-71.5675
11
203.026
21
-71.5728
0
LINE
8
BLACK
6
CONTINUOUS
10
203.026
20
-71.5728
11
203.086
21
-71.6115
0
LINE
8
BLACK
6
CONTINUOUS
10
203.086
20
-71.6115
11
203.116
21
-71.6766
0
LINE
8
BLACK
6
CONTINUOUS
10
203.116
20
-71.6766
11
203.106
21
-71.7474
0
LINE
8
BLACK
6
CONTINUOUS
10
203.106
20
-71.7474
11
203.059
21
-71.8014
0
LINE
8
BLACK
6
CONTINUOUS
10
203.059
20
-71.8014
11
202.99
21
-71.8215
0
LINE
8
BLACK
6
CONTINUOUS
10
202.99
20
-71.8215
11
202.265
21
-71.8215
0
LINE
8
BLACK
6
CONTINUOUS
10
202.265
20
-71.8215
11
202.228
21
-71.8163
0
LINE
8
BLACK
6
CONTINUOUS
10
202.228
20
-71.8163
11
202.168
21
-71.7775
0
LINE
8
BLACK
6
CONTINUOUS
10
202.168
20
-71.7775
11
202.139
21
-71.7124
0
LINE
8
BLACK
6
CONTINUOUS
10
202.139
20
-71.7124
11
202.149
21
-71.6417
0
LINE
8
BLACK
6
CONTINUOUS
10
202.149
20
-71.6417
11
202.196
21
-71.5877
0
LINE
8
BLACK
6
CONTINUOUS
10
202.196
20
-71.5877
11
202.265
21
-71.5675
0
LINE
8
BLACK
6
CONTINUOUS
10
202.265
20
-71.5675
11
202.5
21
-71.5675
0
LINE
8
BLACK
6
CONTINUOUS
10
202.5
20
-71.5675
11
202.5
21
-70.7916
0
LINE
8
BLACK
6
CONTINUOUS
10
202.5
20
-70.7916
11
202.475
21
-70.8167
0
LINE
8
BLACK
6
CONTINUOUS
10
202.475
20
-70.8167
11
202.446
21
-70.8385
0
LINE
8
BLACK
6
CONTINUOUS
10
202.446
20
-70.8385
11
202.444
21
-70.839
0
LINE
8
BLACK
6
CONTINUOUS
10
202.444
20
-70.839
11
202.442
21
-70.8405
0
LINE
8
BLACK
6
CONTINUOUS
10
202.442
20
-70.8405
11
202.321
21
-70.901
0
LINE
8
BLACK
6
CONTINUOUS
10
202.321
20
-70.901
11
202.287
21
-70.9124
0
LINE
8
BLACK
6
CONTINUOUS
10
202.287
20
-70.9124
11
202.216
21
-70.9046
0
LINE
8
BLACK
6
CONTINUOUS
10
202.216
20
-70.9046
11
202.16
21
-70.8596
0
LINE
8
BLACK
6
CONTINUOUS
10
202.16
20
-70.8596
11
202.138
21
-70.7917
0
LINE
8
BLACK
6
CONTINUOUS
10
202.138
20
-70.7917
11
202.155
21
-70.7225
0
LINE
8
BLACK
6
CONTINUOUS
10
202.155
20
-70.7225
11
202.208
21
-70.6738
0
LINE
8
BLACK
6
CONTINUOUS
10
202.208
20
-70.6738
11
202.31
21
-70.6225
0
LINE
8
BLACK
6
CONTINUOUS
10
202.31
20
-70.6225
11
202.408
21
-70.525
0
LINE
8
BLACK
6
CONTINUOUS
10
202.408
20
-70.525
11
202.522
21
-70.3541
0
LINE
8
BLACK
6
CONTINUOUS
10
202.522
20
-70.3541
11
202.543
21
-70.33
0
LINE
8
BLACK
6
CONTINUOUS
10
202.543
20
-70.33
11
202.544
21
-70.3284
0
LINE
8
BLACK
6
CONTINUOUS
10
202.544
20
-70.3284
11
202.545
21
-70.3281
0
LINE
8
BLACK
6
CONTINUOUS
10
202.545
20
-70.3281
11
202.546
21
-70.327
0
LINE
8
BLACK
6
CONTINUOUS
10
202.546
20
-70.327
11
202.578
21
-70.3131
0
LINE
8
BLACK
6
CONTINUOUS
10
202.578
20
-70.3131
11
202.61
21
-70.2988
0
LINE
8
BLACK
6
CONTINUOUS
10
202.61
20
-70.2988
11
202.611
21
-70.299
0
LINE
8
BLACK
6
CONTINUOUS
10
202.611
20
-70.299
11
202.612
21
-70.2985
0
LINE
8
BLACK
6
CONTINUOUS
10
202.612
20
-70.2985
11
202.646
21
-70.3041
0
LINE
8
BLACK
6
CONTINUOUS
10
231.153
20
-70.3028
11
231.162
21
-70.3089
0
LINE
8
BLACK
6
CONTINUOUS
10
231.162
20
-70.3089
11
231.173
21
-70.3109
0
LINE
8
BLACK
6
CONTINUOUS
10
231.173
20
-70.3109
11
231.294
21
-70.3714
0
LINE
8
BLACK
6
CONTINUOUS
10
231.294
20
-70.3714
11
231.324
21
-70.3922
0
LINE
8
BLACK
6
CONTINUOUS
10
231.324
20
-70.3922
11
231.325
21
-70.3941
0
LINE
8
BLACK
6
CONTINUOUS
10
231.325
20
-70.3941
11
231.327
21
-70.3952
0
LINE
8
BLACK
6
CONTINUOUS
10
231.327
20
-70.3952
11
231.388
21
-70.4557
0
LINE
8
BLACK
6
CONTINUOUS
10
231.388
20
-70.4557
11
231.41
21
-70.4849
0
LINE
8
BLACK
6
CONTINUOUS
10
231.41
20
-70.4849
11
231.41
21
-70.4871
0
LINE
8
BLACK
6
CONTINUOUS
10
231.41
20
-70.4871
11
231.412
21
-70.4887
0
LINE
8
BLACK
6
CONTINUOUS
10
231.412
20
-70.4887
11
231.472
21
-70.6096
0
LINE
8
BLACK
6
CONTINUOUS
10
231.472
20
-70.6096
11
231.484
21
-70.6442
0
LINE
8
BLACK
6
CONTINUOUS
10
231.484
20
-70.6442
11
231.482
21
-70.6555
0
LINE
8
BLACK
6
CONTINUOUS
10
231.482
20
-70.6555
11
231.486
21
-70.6664
0
LINE
8
BLACK
6
CONTINUOUS
10
231.486
20
-70.6664
11
231.486
21
-70.7874
0
LINE
8
BLACK
6
CONTINUOUS
10
231.486
20
-70.7874
11
231.48
21
-70.8234
0
LINE
8
BLACK
6
CONTINUOUS
10
231.48
20
-70.8234
11
231.479
21
-70.8253
0
LINE
8
BLACK
6
CONTINUOUS
10
231.479
20
-70.8253
11
231.479
21
-70.8275
0
LINE
8
BLACK
6
CONTINUOUS
10
231.479
20
-70.8275
11
231.419
21
-71.009
0
LINE
8
BLACK
6
CONTINUOUS
10
231.419
20
-71.009
11
231.402
21
-71.0415
0
LINE
8
BLACK
6
CONTINUOUS
10
231.402
20
-71.0415
11
231.393
21
-71.0486
0
LINE
8
BLACK
6
CONTINUOUS
10
231.393
20
-71.0486
11
231.388
21
-71.0586
0
LINE
8
BLACK
6
CONTINUOUS
10
231.388
20
-71.0586
11
230.879
21
-71.5675
0
LINE
8
BLACK
6
CONTINUOUS
10
230.879
20
-71.5675
11
231.359
21
-71.5675
0
LINE
8
BLACK
6
CONTINUOUS
10
231.359
20
-71.5675
11
231.395
21
-71.5728
0
LINE
8
BLACK
6
CONTINUOUS
10
231.395
20
-71.5728
11
231.455
21
-71.6115
0
LINE
8
BLACK
6
CONTINUOUS
10
231.455
20
-71.6115
11
231.484
21
-71.6766
0
LINE
8
BLACK
6
CONTINUOUS
10
231.484
20
-71.6766
11
231.474
21
-71.7474
0
LINE
8
BLACK
6
CONTINUOUS
10
231.474
20
-71.7474
11
231.427
21
-71.8014
0
LINE
8
BLACK
6
CONTINUOUS
10
231.427
20
-71.8014
11
231.359
21
-71.8215
0
LINE
8
BLACK
6
CONTINUOUS
10
231.359
20
-71.8215
11
230.572
21
-71.8215
0
LINE
8
BLACK
6
CONTINUOUS
10
230.572
20
-71.8215
11
230.566
21
-71.8206
0
LINE
8
BLACK
6
CONTINUOUS
10
230.566
20
-71.8206
11
230.563
21
-71.8212
0
LINE
8
BLACK
6
CONTINUOUS
10
230.563
20
-71.8212
11
230.559
21
-71.8195
0
LINE
8
BLACK
6
CONTINUOUS
10
230.559
20
-71.8195
11
230.536
21
-71.8163
0
LINE
8
BLACK
6
CONTINUOUS
10
230.536
20
-71.8163
11
230.517
21
-71.804
0
LINE
8
BLACK
6
CONTINUOUS
10
230.517
20
-71.804
11
230.496
21
-71.7961
0
LINE
8
BLACK
6
CONTINUOUS
10
230.496
20
-71.7961
11
230.488
21
-71.785
0
LINE
8
BLACK
6
CONTINUOUS
10
230.488
20
-71.785
11
230.476
21
-71.7775
0
LINE
8
BLACK
6
CONTINUOUS
10
230.476
20
-71.7775
11
230.467
21
-71.7569
0
LINE
8
BLACK
6
CONTINUOUS
10
230.467
20
-71.7569
11
230.453
21
-71.7388
0
LINE
8
BLACK
6
CONTINUOUS
10
230.453
20
-71.7388
11
230.452
21
-71.725
0
LINE
8
BLACK
6
CONTINUOUS
10
230.452
20
-71.725
11
230.447
21
-71.7124
0
LINE
8
BLACK
6
CONTINUOUS
10
230.447
20
-71.7124
11
230.45
21
-71.69
0
LINE
8
BLACK
6
CONTINUOUS
10
230.45
20
-71.69
11
230.448
21
-71.6675
0
LINE
8
BLACK
6
CONTINUOUS
10
230.448
20
-71.6675
11
230.455
21
-71.6553
0
LINE
8
BLACK
6
CONTINUOUS
10
230.455
20
-71.6553
11
230.457
21
-71.6417
0
LINE
8
BLACK
6
CONTINUOUS
10
230.457
20
-71.6417
11
230.472
21
-71.6246
0
LINE
8
BLACK
6
CONTINUOUS
10
230.472
20
-71.6246
11
230.483
21
-71.6047
0
LINE
8
BLACK
6
CONTINUOUS
10
230.483
20
-71.6047
11
231.187
21
-70.9002
0
LINE
8
BLACK
6
CONTINUOUS
10
231.187
20
-70.9002
11
231.232
21
-70.7668
0
LINE
8
BLACK
6
CONTINUOUS
10
231.232
20
-70.7668
11
231.232
21
-70.6964
0
LINE
8
BLACK
6
CONTINUOUS
10
231.232
20
-70.6964
11
231.194
21
-70.6207
0
LINE
8
BLACK
6
CONTINUOUS
10
231.194
20
-70.6207
11
231.162
21
-70.5894
0
LINE
8
BLACK
6
CONTINUOUS
10
231.162
20
-70.5894
11
231.087
21
-70.5515
0
LINE
8
BLACK
6
CONTINUOUS
10
231.087
20
-70.5515
11
230.844
21
-70.5515
0
LINE
8
BLACK
6
CONTINUOUS
10
230.844
20
-70.5515
11
230.769
21
-70.5894
0
LINE
8
BLACK
6
CONTINUOUS
10
230.769
20
-70.5894
11
230.723
21
-70.6353
0
LINE
8
BLACK
6
CONTINUOUS
10
230.723
20
-70.6353
11
230.693
21
-70.6571
0
LINE
8
BLACK
6
CONTINUOUS
10
230.693
20
-70.6571
11
230.624
21
-70.6721
0
LINE
8
BLACK
6
CONTINUOUS
10
230.624
20
-70.6721
11
230.557
21
-70.647
0
LINE
8
BLACK
6
CONTINUOUS
10
230.557
20
-70.647
11
230.514
21
-70.5897
0
LINE
8
BLACK
6
CONTINUOUS
10
230.514
20
-70.5897
11
230.509
21
-70.5184
0
LINE
8
BLACK
6
CONTINUOUS
10
230.509
20
-70.5184
11
230.543
21
-70.4557
0
LINE
8
BLACK
6
CONTINUOUS
10
230.543
20
-70.4557
11
230.603
21
-70.3952
0
LINE
8
BLACK
6
CONTINUOUS
10
230.603
20
-70.3952
11
230.633
21
-70.3734
0
LINE
8
BLACK
6
CONTINUOUS
10
230.633
20
-70.3734
11
230.635
21
-70.3729
0
LINE
8
BLACK
6
CONTINUOUS
10
230.635
20
-70.3729
11
230.636
21
-70.3714
0
LINE
8
BLACK
6
CONTINUOUS
10
230.636
20
-70.3714
11
230.757
21
-70.3109
0
LINE
8
BLACK
6
CONTINUOUS
10
230.757
20
-70.3109
11
230.792
21
-70.2995
0
LINE
8
BLACK
6
CONTINUOUS
10
230.792
20
-70.2995
11
230.803
21
-70.3007
0
LINE
8
BLACK
6
CONTINUOUS
10
230.803
20
-70.3007
11
230.814
21
-70.2975
0
LINE
8
BLACK
6
CONTINUOUS
10
230.814
20
-70.2975
11
231.117
21
-70.2975
0
LINE
8
BLACK
6
CONTINUOUS
10
231.117
20
-70.2975
11
231.153
21
-70.3028
0
LINE
8
BLACK
6
CONTINUOUS
10
229.503
20
-70.3256
11
229.544
21
-70.3844
0
LINE
8
BLACK
6
CONTINUOUS
10
229.544
20
-70.3844
11
229.847
21
-71.2929
0
LINE
8
BLACK
6
CONTINUOUS
10
229.847
20
-71.2929
11
230.149
21
-70.3844
0
LINE
8
BLACK
6
CONTINUOUS
10
230.149
20
-70.3844
11
230.166
21
-70.3518
0
LINE
8
BLACK
6
CONTINUOUS
10
230.166
20
-70.3518
11
230.222
21
-70.3071
0
LINE
8
BLACK
6
CONTINUOUS
10
230.222
20
-70.3071
11
230.293
21
-70.2996
0
LINE
8
BLACK
6
CONTINUOUS
10
230.293
20
-70.2996
11
230.357
21
-70.3317
0
LINE
8
BLACK
6
CONTINUOUS
10
230.357
20
-70.3317
11
230.393
21
-70.3932
0
LINE
8
BLACK
6
CONTINUOUS
10
230.393
20
-70.3932
11
230.39
21
-70.4647
0
LINE
8
BLACK
6
CONTINUOUS
10
230.39
20
-70.4647
11
229.967
21
-71.7347
0
LINE
8
BLACK
6
CONTINUOUS
10
229.967
20
-71.7347
11
229.957
21
-71.755
0
LINE
8
BLACK
6
CONTINUOUS
10
229.957
20
-71.755
11
229.956
21
-71.7595
0
LINE
8
BLACK
6
CONTINUOUS
10
229.956
20
-71.7595
11
229.954
21
-71.7614
0
LINE
8
BLACK
6
CONTINUOUS
10
229.954
20
-71.7614
11
229.951
21
-71.7672
0
LINE
8
BLACK
6
CONTINUOUS
10
229.951
20
-71.7672
11
229.926
21
-71.7868
0
LINE
8
BLACK
6
CONTINUOUS
10
229.926
20
-71.7868
11
229.903
21
-71.8081
0
LINE
8
BLACK
6
CONTINUOUS
10
229.903
20
-71.8081
11
229.899
21
-71.809
0
LINE
8
BLACK
6
CONTINUOUS
10
229.899
20
-71.809
11
229.895
21
-71.812
0
LINE
8
BLACK
6
CONTINUOUS
10
229.895
20
-71.812
11
229.864
21
-71.8152
0
LINE
8
BLACK
6
CONTINUOUS
10
229.864
20
-71.8152
11
229.833
21
-71.8208
0
LINE
8
BLACK
6
CONTINUOUS
10
229.833
20
-71.8208
11
229.829
21
-71.819
0
LINE
8
BLACK
6
CONTINUOUS
10
229.829
20
-71.819
11
229.824
21
-71.8195
0
LINE
8
BLACK
6
CONTINUOUS
10
229.824
20
-71.8195
11
229.796
21
-71.8054
0
LINE
8
BLACK
6
CONTINUOUS
10
229.796
20
-71.8054
11
229.767
21
-71.7934
0
LINE
8
BLACK
6
CONTINUOUS
10
229.767
20
-71.7934
11
229.764
21
-71.7895
0
LINE
8
BLACK
6
CONTINUOUS
10
229.764
20
-71.7895
11
229.76
21
-71.7874
0
LINE
8
BLACK
6
CONTINUOUS
10
229.76
20
-71.7874
11
229.744
21
-71.7604
0
LINE
8
BLACK
6
CONTINUOUS
10
229.744
20
-71.7604
11
229.726
21
-71.7347
0
LINE
8
BLACK
6
CONTINUOUS
10
229.726
20
-71.7347
11
229.303
21
-70.4647
0
LINE
8
BLACK
6
CONTINUOUS
10
229.303
20
-70.4647
11
229.296
21
-70.4288
0
LINE
8
BLACK
6
CONTINUOUS
10
229.296
20
-70.4288
11
229.314
21
-70.3596
0
LINE
8
BLACK
6
CONTINUOUS
10
229.314
20
-70.3596
11
229.367
21
-70.3109
0
LINE
8
BLACK
6
CONTINUOUS
10
229.367
20
-70.3109
11
229.437
21
-70.2983
0
LINE
8
BLACK
6
CONTINUOUS
10
229.437
20
-70.2983
11
229.503
21
-70.3256
0
LINE
8
BLACK
6
CONTINUOUS
10
201.135
20
-70.3256
11
201.176
21
-70.3844
0
LINE
8
BLACK
6
CONTINUOUS
10
201.176
20
-70.3844
11
201.478
21
-71.2929
0
LINE
8
BLACK
6
CONTINUOUS
10
201.478
20
-71.2929
11
201.781
21
-70.3844
0
LINE
8
BLACK
6
CONTINUOUS
10
201.781
20
-70.3844
11
201.798
21
-70.3518
0
LINE
8
BLACK
6
CONTINUOUS
10
201.798
20
-70.3518
11
201.853
21
-70.3071
0
LINE
8
BLACK
6
CONTINUOUS
10
201.853
20
-70.3071
11
201.924
21
-70.2996
0
LINE
8
BLACK
6
CONTINUOUS
10
201.924
20
-70.2996
11
201.988
21
-70.3317
0
LINE
8
BLACK
6
CONTINUOUS
10
201.988
20
-70.3317
11
202.025
21
-70.3932
0
LINE
8
BLACK
6
CONTINUOUS
10
202.025
20
-70.3932
11
202.022
21
-70.4647
0
LINE
8
BLACK
6
CONTINUOUS
10
202.022
20
-70.4647
11
201.599
21
-71.7347
0
LINE
8
BLACK
6
CONTINUOUS
10
201.599
20
-71.7347
11
201.589
21
-71.755
0
LINE
8
BLACK
6
CONTINUOUS
10
201.589
20
-71.755
11
201.588
21
-71.7595
0
LINE
8
BLACK
6
CONTINUOUS
10
201.588
20
-71.7595
11
201.585
21
-71.7614
0
LINE
8
BLACK
6
CONTINUOUS
10
201.585
20
-71.7614
11
201.582
21
-71.7672
0
LINE
8
BLACK
6
CONTINUOUS
10
201.582
20
-71.7672
11
201.558
21
-71.7868
0
LINE
8
BLACK
6
CONTINUOUS
10
201.558
20
-71.7868
11
201.535
21
-71.8081
0
LINE
8
BLACK
6
CONTINUOUS
10
201.535
20
-71.8081
11
201.53
21
-71.809
0
LINE
8
BLACK
6
CONTINUOUS
10
201.53
20
-71.809
11
201.527
21
-71.812
0
LINE
8
BLACK
6
CONTINUOUS
10
201.527
20
-71.812
11
201.496
21
-71.8152
0
LINE
8
BLACK
6
CONTINUOUS
10
201.496
20
-71.8152
11
201.465
21
-71.8208
0
LINE
8
BLACK
6
CONTINUOUS
10
201.465
20
-71.8208
11
201.46
21
-71.819
0
LINE
8
BLACK
6
CONTINUOUS
10
201.46
20
-71.819
11
201.456
21
-71.8195
0
LINE
8
BLACK
6
CONTINUOUS
10
201.456
20
-71.8195
11
201.428
21
-71.8054
0
LINE
8
BLACK
6
CONTINUOUS
10
201.428
20
-71.8054
11
201.399
21
-71.7934
0
LINE
8
BLACK
6
CONTINUOUS
10
201.399
20
-71.7934
11
201.396
21
-71.7895
0
LINE
8
BLACK
6
CONTINUOUS
10
201.396
20
-71.7895
11
201.392
21
-71.7874
0
LINE
8
BLACK
6
CONTINUOUS
10
201.392
20
-71.7874
11
201.376
21
-71.7604
0
LINE
8
BLACK
6
CONTINUOUS
10
201.376
20
-71.7604
11
201.358
21
-71.7347
0
LINE
8
BLACK
6
CONTINUOUS
10
201.358
20
-71.7347
11
200.935
21
-70.4647
0
LINE
8
BLACK
6
CONTINUOUS
10
200.935
20
-70.4647
11
200.928
21
-70.4288
0
LINE
8
BLACK
6
CONTINUOUS
10
200.928
20
-70.4288
11
200.946
21
-70.3596
0
LINE
8
BLACK
6
CONTINUOUS
10
200.946
20
-70.3596
11
200.998
21
-70.3109
0
LINE
8
BLACK
6
CONTINUOUS
10
200.998
20
-70.3109
11
201.069
21
-70.2983
0
LINE
8
BLACK
6
CONTINUOUS
10
201.069
20
-70.2983
11
201.135
21
-70.3256
0
LINE
8
BLACK
6
CONTINUOUS
10
200.486
20
-70.3028
11
200.496
21
-70.3089
0
LINE
8
BLACK
6
CONTINUOUS
10
200.496
20
-70.3089
11
200.507
21
-70.3109
0
LINE
8
BLACK
6
CONTINUOUS
10
200.507
20
-70.3109
11
200.628
21
-70.3714
0
LINE
8
BLACK
6
CONTINUOUS
10
200.628
20
-70.3714
11
200.658
21
-70.3922
0
LINE
8
BLACK
6
CONTINUOUS
10
200.658
20
-70.3922
11
200.659
21
-70.3941
0
LINE
8
BLACK
6
CONTINUOUS
10
200.659
20
-70.3941
11
200.661
21
-70.3952
0
LINE
8
BLACK
6
CONTINUOUS
10
200.661
20
-70.3952
11
200.722
21
-70.4557
0
LINE
8
BLACK
6
CONTINUOUS
10
200.722
20
-70.4557
11
200.743
21
-70.4849
0
LINE
8
BLACK
6
CONTINUOUS
10
200.743
20
-70.4849
11
200.744
21
-70.4871
0
LINE
8
BLACK
6
CONTINUOUS
10
200.744
20
-70.4871
11
200.745
21
-70.4887
0
LINE
8
BLACK
6
CONTINUOUS
10
200.745
20
-70.4887
11
200.806
21
-70.6096
0
LINE
8
BLACK
6
CONTINUOUS
10
200.806
20
-70.6096
11
200.817
21
-70.6442
0
LINE
8
BLACK
6
CONTINUOUS
10
200.817
20
-70.6442
11
200.816
21
-70.6555
0
LINE
8
BLACK
6
CONTINUOUS
10
200.816
20
-70.6555
11
200.819
21
-70.6664
0
LINE
8
BLACK
6
CONTINUOUS
10
200.819
20
-70.6664
11
200.819
21
-70.8479
0
LINE
8
BLACK
6
CONTINUOUS
10
200.819
20
-70.8479
11
200.814
21
-70.8839
0
LINE
8
BLACK
6
CONTINUOUS
10
200.814
20
-70.8839
11
200.808
21
-70.8935
0
LINE
8
BLACK
6
CONTINUOUS
10
200.808
20
-70.8935
11
200.806
21
-70.9047
0
LINE
8
BLACK
6
CONTINUOUS
10
200.806
20
-70.9047
11
200.745
21
-71.0256
0
LINE
8
BLACK
6
CONTINUOUS
10
200.745
20
-71.0256
11
200.724
21
-71.0555
0
LINE
8
BLACK
6
CONTINUOUS
10
200.724
20
-71.0555
11
200.723
21
-71.0567
0
LINE
8
BLACK
6
CONTINUOUS
10
200.723
20
-71.0567
11
200.722
21
-71.0586
0
LINE
8
BLACK
6
CONTINUOUS
10
200.722
20
-71.0586
11
200.661
21
-71.1191
0
LINE
8
BLACK
6
CONTINUOUS
10
200.661
20
-71.1191
11
200.632
21
-71.1409
0
LINE
8
BLACK
6
CONTINUOUS
10
200.632
20
-71.1409
11
200.63
21
-71.1414
0
LINE
8
BLACK
6
CONTINUOUS
10
200.63
20
-71.1414
11
200.628
21
-71.1429
0
LINE
8
BLACK
6
CONTINUOUS
10
200.628
20
-71.1429
11
200.507
21
-71.2034
0
LINE
8
BLACK
6
CONTINUOUS
10
200.507
20
-71.2034
11
200.504
21
-71.2043
0
LINE
8
BLACK
6
CONTINUOUS
10
200.504
20
-71.2043
11
200.796
21
-71.6217
0
LINE
8
BLACK
6
CONTINUOUS
10
200.796
20
-71.6217
11
200.813
21
-71.6542
0
LINE
8
BLACK
6
CONTINUOUS
10
200.813
20
-71.6542
11
200.815
21
-71.7257
0
LINE
8
BLACK
6
CONTINUOUS
10
200.815
20
-71.7257
11
200.779
21
-71.7873
0
LINE
8
BLACK
6
CONTINUOUS
10
200.779
20
-71.7873
11
200.715
21
-71.8194
0
LINE
8
BLACK
6
CONTINUOUS
10
200.715
20
-71.8194
11
200.644
21
-71.812
0
LINE
8
BLACK
6
CONTINUOUS
10
200.644
20
-71.812
11
200.588
21
-71.7674
0
LINE
8
BLACK
6
CONTINUOUS
10
200.588
20
-71.7674
11
200.203
21
-71.2168
0
LINE
8
BLACK
6
CONTINUOUS
10
200.203
20
-71.2168
11
200.093
21
-71.2168
0
LINE
8
BLACK
6
CONTINUOUS
10
200.093
20
-71.2168
11
200.093
21
-71.6945
0
LINE
8
BLACK
6
CONTINUOUS
10
200.093
20
-71.6945
11
200.088
21
-71.7306
0
LINE
8
BLACK
6
CONTINUOUS
10
200.088
20
-71.7306
11
200.049
21
-71.7907
0
LINE
8
BLACK
6
CONTINUOUS
10
200.049
20
-71.7907
11
199.984
21
-71.8203
0
LINE
8
BLACK
6
CONTINUOUS
10
199.984
20
-71.8203
11
199.914
21
-71.81
0
LINE
8
BLACK
6
CONTINUOUS
10
199.914
20
-71.81
11
199.86
21
-71.7631
0
LINE
8
BLACK
6
CONTINUOUS
10
199.86
20
-71.7631
11
199.839
21
-71.6945
0
LINE
8
BLACK
6
CONTINUOUS
10
199.839
20
-71.6945
11
199.839
21
-70.4245
0
LINE
8
BLACK
6
CONTINUOUS
10
199.839
20
-70.4245
11
199.845
21
-70.3885
0
LINE
8
BLACK
6
CONTINUOUS
10
199.845
20
-70.3885
11
199.85
21
-70.3807
0
LINE
8
BLACK
6
CONTINUOUS
10
199.85
20
-70.3807
11
199.851
21
-70.3717
0
LINE
8
BLACK
6
CONTINUOUS
10
199.851
20
-70.3717
11
199.869
21
-70.3512
0
LINE
8
BLACK
6
CONTINUOUS
10
199.869
20
-70.3512
11
199.883
21
-70.3284
0
LINE
8
BLACK
6
CONTINUOUS
10
199.883
20
-70.3284
11
199.892
21
-70.3246
0
LINE
8
BLACK
6
CONTINUOUS
10
199.892
20
-70.3246
11
199.898
21
-70.3177
0
LINE
8
BLACK
6
CONTINUOUS
10
199.898
20
-70.3177
11
199.924
21
-70.31
0
LINE
8
BLACK
6
CONTINUOUS
10
199.924
20
-70.31
11
199.949
21
-70.2988
0
LINE
8
BLACK
6
CONTINUOUS
10
199.949
20
-70.2988
11
199.958
21
-70.3001
0
LINE
8
BLACK
6
CONTINUOUS
10
199.958
20
-70.3001
11
199.966
21
-70.2975
0
LINE
8
BLACK
6
CONTINUOUS
10
199.966
20
-70.2975
11
200.45
21
-70.2975
0
LINE
8
BLACK
6
CONTINUOUS
10
200.45
20
-70.2975
11
200.486
21
-70.3028
0
LINE
8
BLACK
6
CONTINUOUS
10
200.093
20
-70.5515
11
200.093
21
-70.9628
0
LINE
8
BLACK
6
CONTINUOUS
10
200.093
20
-70.9628
11
200.42
21
-70.9628
0
LINE
8
BLACK
6
CONTINUOUS
10
200.42
20
-70.9628
11
200.496
21
-70.9249
0
LINE
8
BLACK
6
CONTINUOUS
10
200.496
20
-70.9249
11
200.527
21
-70.8936
0
LINE
8
BLACK
6
CONTINUOUS
10
200.527
20
-70.8936
11
200.565
21
-70.8179
0
LINE
8
BLACK
6
CONTINUOUS
10
200.565
20
-70.8179
11
200.565
21
-70.6964
0
LINE
8
BLACK
6
CONTINUOUS
10
200.565
20
-70.6964
11
200.527
21
-70.6207
0
LINE
8
BLACK
6
CONTINUOUS
10
200.527
20
-70.6207
11
200.496
21
-70.5894
0
LINE
8
BLACK
6
CONTINUOUS
10
200.496
20
-70.5894
11
200.42
21
-70.5515
0
LINE
8
BLACK
6
CONTINUOUS
10
200.42
20
-70.5515
11
200.093
21
-70.5515
0
LINE
8
BLACK
6
CONTINUOUS
10
228.855
20
-70.3028
11
228.864
21
-70.3089
0
LINE
8
BLACK
6
CONTINUOUS
10
228.864
20
-70.3089
11
228.875
21
-70.3109
0
LINE
8
BLACK
6
CONTINUOUS
10
228.875
20
-70.3109
11
228.996
21
-70.3714
0
LINE
8
BLACK
6
CONTINUOUS
10
228.996
20
-70.3714
11
229.026
21
-70.3922
0
LINE
8
BLACK
6
CONTINUOUS
10
229.026
20
-70.3922
11
229.027
21
-70.3941
0
LINE
8
BLACK
6
CONTINUOUS
10
229.027
20
-70.3941
11
229.029
21
-70.3952
0
LINE
8
BLACK
6
CONTINUOUS
10
229.029
20
-70.3952
11
229.09
21
-70.4557
0
LINE
8
BLACK
6
CONTINUOUS
10
229.09
20
-70.4557
11
229.112
21
-70.4849
0
LINE
8
BLACK
6
CONTINUOUS
10
229.112
20
-70.4849
11
229.112
21
-70.4871
0
LINE
8
BLACK
6
CONTINUOUS
10
229.112
20
-70.4871
11
229.114
21
-70.4887
0
LINE
8
BLACK
6
CONTINUOUS
10
229.114
20
-70.4887
11
229.174
21
-70.6096
0
LINE
8
BLACK
6
CONTINUOUS
10
229.174
20
-70.6096
11
229.185
21
-70.6442
0
LINE
8
BLACK
6
CONTINUOUS
10
229.185
20
-70.6442
11
229.184
21
-70.6555
0
LINE
8
BLACK
6
CONTINUOUS
10
229.184
20
-70.6555
11
229.187
21
-70.6664
0
LINE
8
BLACK
6
CONTINUOUS
10
229.187
20
-70.6664
11
229.187
21
-70.8479
0
LINE
8
BLACK
6
CONTINUOUS
10
229.187
20
-70.8479
11
229.182
21
-70.8839
0
LINE
8
BLACK
6
CONTINUOUS
10
229.182
20
-70.8839
11
229.176
21
-70.8935
0
LINE
8
BLACK
6
CONTINUOUS
10
229.176
20
-70.8935
11
229.174
21
-70.9047
0
LINE
8
BLACK
6
CONTINUOUS
10
229.174
20
-70.9047
11
229.114
21
-71.0256
0
LINE
8
BLACK
6
CONTINUOUS
10
229.114
20
-71.0256
11
229.093
21
-71.0555
0
LINE
8
BLACK
6
CONTINUOUS
10
229.093
20
-71.0555
11
229.091
21
-71.0567
0
LINE
8
BLACK
6
CONTINUOUS
10
229.091
20
-71.0567
11
229.09
21
-71.0586
0
LINE
8
BLACK
6
CONTINUOUS
10
229.09
20
-71.0586
11
229.029
21
-71.1191
0
LINE
8
BLACK
6
CONTINUOUS
10
229.029
20
-71.1191
11
229
21
-71.1409
0
LINE
8
BLACK
6
CONTINUOUS
10
229
20
-71.1409
11
228.998
21
-71.1414
0
LINE
8
BLACK
6
CONTINUOUS
10
228.998
20
-71.1414
11
228.996
21
-71.1429
0
LINE
8
BLACK
6
CONTINUOUS
10
228.996
20
-71.1429
11
228.875
21
-71.2034
0
LINE
8
BLACK
6
CONTINUOUS
10
228.875
20
-71.2034
11
228.872
21
-71.2043
0
LINE
8
BLACK
6
CONTINUOUS
10
228.872
20
-71.2043
11
229.164
21
-71.6217
0
LINE
8
BLACK
6
CONTINUOUS
10
229.164
20
-71.6217
11
229.181
21
-71.6542
0
LINE
8
BLACK
6
CONTINUOUS
10
229.181
20
-71.6542
11
229.184
21
-71.7257
0
LINE
8
BLACK
6
CONTINUOUS
10
229.184
20
-71.7257
11
229.147
21
-71.7873
0
LINE
8
BLACK
6
CONTINUOUS
10
229.147
20
-71.7873
11
229.083
21
-71.8194
0
LINE
8
BLACK
6
CONTINUOUS
10
229.083
20
-71.8194
11
229.012
21
-71.812
0
LINE
8
BLACK
6
CONTINUOUS
10
229.012
20
-71.812
11
228.956
21
-71.7674
0
LINE
8
BLACK
6
CONTINUOUS
10
228.956
20
-71.7674
11
228.571
21
-71.2168
0
LINE
8
BLACK
6
CONTINUOUS
10
228.571
20
-71.2168
11
228.462
21
-71.2168
0
LINE
8
BLACK
6
CONTINUOUS
10
228.462
20
-71.2168
11
228.462
21
-71.6945
0
LINE
8
BLACK
6
CONTINUOUS
10
228.462
20
-71.6945
11
228.456
21
-71.7306
0
LINE
8
BLACK
6
CONTINUOUS
10
228.456
20
-71.7306
11
228.418
21
-71.7907
0
LINE
8
BLACK
6
CONTINUOUS
10
228.418
20
-71.7907
11
228.353
21
-71.8203
0
LINE
8
BLACK
6
CONTINUOUS
10
228.353
20
-71.8203
11
228.282
21
-71.81
0
LINE
8
BLACK
6
CONTINUOUS
10
228.282
20
-71.81
11
228.228
21
-71.7631
0
LINE
8
BLACK
6
CONTINUOUS
10
228.228
20
-71.7631
11
228.208
21
-71.6945
0
LINE
8
BLACK
6
CONTINUOUS
10
228.208
20
-71.6945
11
228.208
21
-70.4245
0
LINE
8
BLACK
6
CONTINUOUS
10
228.208
20
-70.4245
11
228.213
21
-70.3885
0
LINE
8
BLACK
6
CONTINUOUS
10
228.213
20
-70.3885
11
228.218
21
-70.3807
0
LINE
8
BLACK
6
CONTINUOUS
10
228.218
20
-70.3807
11
228.219
21
-70.3717
0
LINE
8
BLACK
6
CONTINUOUS
10
228.219
20
-70.3717
11
228.237
21
-70.3512
0
LINE
8
BLACK
6
CONTINUOUS
10
228.237
20
-70.3512
11
228.252
21
-70.3284
0
LINE
8
BLACK
6
CONTINUOUS
10
228.252
20
-70.3284
11
228.26
21
-70.3246
0
LINE
8
BLACK
6
CONTINUOUS
10
228.26
20
-70.3246
11
228.266
21
-70.3177
0
LINE
8
BLACK
6
CONTINUOUS
10
228.266
20
-70.3177
11
228.292
21
-70.31
0
LINE
8
BLACK
6
CONTINUOUS
10
228.292
20
-70.31
11
228.317
21
-70.2988
0
LINE
8
BLACK
6
CONTINUOUS
10
228.317
20
-70.2988
11
228.326
21
-70.3001
0
LINE
8
BLACK
6
CONTINUOUS
10
228.326
20
-70.3001
11
228.335
21
-70.2975
0
LINE
8
BLACK
6
CONTINUOUS
10
228.335
20
-70.2975
11
228.819
21
-70.2975
0
LINE
8
BLACK
6
CONTINUOUS
10
228.819
20
-70.2975
11
228.855
21
-70.3028
0
LINE
8
BLACK
6
CONTINUOUS
10
228.462
20
-70.5515
11
228.462
21
-70.9628
0
LINE
8
BLACK
6
CONTINUOUS
10
228.462
20
-70.9628
11
228.789
21
-70.9628
0
LINE
8
BLACK
6
CONTINUOUS
10
228.789
20
-70.9628
11
228.864
21
-70.9249
0
LINE
8
BLACK
6
CONTINUOUS
10
228.864
20
-70.9249
11
228.896
21
-70.8936
0
LINE
8
BLACK
6
CONTINUOUS
10
228.896
20
-70.8936
11
228.933
21
-70.8179
0
LINE
8
BLACK
6
CONTINUOUS
10
228.933
20
-70.8179
11
228.933
21
-70.6964
0
LINE
8
BLACK
6
CONTINUOUS
10
228.933
20
-70.6964
11
228.896
21
-70.6207
0
LINE
8
BLACK
6
CONTINUOUS
10
228.896
20
-70.6207
11
228.864
21
-70.5894
0
LINE
8
BLACK
6
CONTINUOUS
10
228.864
20
-70.5894
11
228.789
21
-70.5515
0
LINE
8
BLACK
6
CONTINUOUS
10
228.789
20
-70.5515
11
228.462
21
-70.5515
0
LINE
8
BLACK
6
CONTINUOUS
10
215.168
20
-60.563
11
215.17
21
-60.5629
0
LINE
8
BLACK
6
CONTINUOUS
10
215.17
20
-60.5629
11
215.313
21
-60.6105
0
LINE
8
BLACK
6
CONTINUOUS
10
215.313
20
-60.6105
11
215.335
21
-60.6229
0
LINE
8
BLACK
6
CONTINUOUS
10
215.335
20
-60.6229
11
215.338
21
-60.6268
0
LINE
8
BLACK
6
CONTINUOUS
10
215.338
20
-60.6268
11
215.342
21
-60.6287
0
LINE
8
BLACK
6
CONTINUOUS
10
215.342
20
-60.6287
11
215.437
21
-60.7239
0
LINE
8
BLACK
6
CONTINUOUS
10
215.437
20
-60.7239
11
215.45
21
-60.7423
0
LINE
8
BLACK
6
CONTINUOUS
10
215.45
20
-60.7423
11
215.451
21
-60.7434
0
LINE
8
BLACK
6
CONTINUOUS
10
215.451
20
-60.7434
11
215.499
21
-60.8386
0
LINE
8
BLACK
6
CONTINUOUS
10
215.499
20
-60.8386
11
215.502
21
-60.851
0
LINE
8
BLACK
6
CONTINUOUS
10
215.502
20
-60.851
11
215.504
21
-60.854
0
LINE
8
BLACK
6
CONTINUOUS
10
215.504
20
-60.854
11
215.552
21
-61.0445
0
LINE
8
BLACK
6
CONTINUOUS
10
215.552
20
-61.0445
11
215.553
21
-61.0594
0
LINE
8
BLACK
6
CONTINUOUS
10
215.553
20
-61.0594
11
215.554
21
-61.0626
0
LINE
8
BLACK
6
CONTINUOUS
10
215.554
20
-61.0626
11
215.554
21
-61.2055
0
LINE
8
BLACK
6
CONTINUOUS
10
215.554
20
-61.2055
11
215.552
21
-61.2202
0
LINE
8
BLACK
6
CONTINUOUS
10
215.552
20
-61.2202
11
215.552
21
-61.2237
0
LINE
8
BLACK
6
CONTINUOUS
10
215.552
20
-61.2237
11
215.504
21
-61.4142
0
LINE
8
BLACK
6
CONTINUOUS
10
215.504
20
-61.4142
11
215.499
21
-61.426
0
LINE
8
BLACK
6
CONTINUOUS
10
215.499
20
-61.426
11
215.499
21
-61.4295
0
LINE
8
BLACK
6
CONTINUOUS
10
215.499
20
-61.4295
11
215.451
21
-61.5248
0
LINE
8
BLACK
6
CONTINUOUS
10
215.451
20
-61.5248
11
215.438
21
-61.5428
0
LINE
8
BLACK
6
CONTINUOUS
10
215.438
20
-61.5428
11
215.437
21
-61.5443
0
LINE
8
BLACK
6
CONTINUOUS
10
215.437
20
-61.5443
11
215.342
21
-61.6395
0
LINE
8
BLACK
6
CONTINUOUS
10
215.342
20
-61.6395
11
215.321
21
-61.6544
0
LINE
8
BLACK
6
CONTINUOUS
10
215.321
20
-61.6544
11
215.316
21
-61.6548
0
LINE
8
BLACK
6
CONTINUOUS
10
215.316
20
-61.6548
11
215.313
21
-61.6576
0
LINE
8
BLACK
6
CONTINUOUS
10
215.313
20
-61.6576
11
215.17
21
-61.7052
0
LINE
8
BLACK
6
CONTINUOUS
10
215.17
20
-61.7052
11
215.148
21
-61.7085
0
LINE
8
BLACK
6
CONTINUOUS
10
215.148
20
-61.7085
11
215.146
21
-61.7091
0
LINE
8
BLACK
6
CONTINUOUS
10
215.146
20
-61.7091
11
214.908
21
-61.7091
0
LINE
8
BLACK
6
CONTINUOUS
10
214.908
20
-61.7091
11
214.898
21
-61.7074
0
LINE
8
BLACK
6
CONTINUOUS
10
214.898
20
-61.7074
11
214.895
21
-61.7079
0
LINE
8
BLACK
6
CONTINUOUS
10
214.895
20
-61.7079
11
214.892
21
-61.7063
0
LINE
8
BLACK
6
CONTINUOUS
10
214.892
20
-61.7063
11
214.882
21
-61.7046
0
LINE
8
BLACK
6
CONTINUOUS
10
214.882
20
-61.7046
11
214.867
21
-61.692
0
LINE
8
BLACK
6
CONTINUOUS
10
214.867
20
-61.692
11
214.85
21
-61.6823
0
LINE
8
BLACK
6
CONTINUOUS
10
214.85
20
-61.6823
11
214.848
21
-61.6759
0
LINE
8
BLACK
6
CONTINUOUS
10
214.848
20
-61.6759
11
214.843
21
-61.6716
0
LINE
8
BLACK
6
CONTINUOUS
10
214.843
20
-61.6716
11
214.84
21
-61.6524
0
LINE
8
BLACK
6
CONTINUOUS
10
214.84
20
-61.6524
11
214.833
21
-61.6341
0
LINE
8
BLACK
6
CONTINUOUS
10
214.833
20
-61.6341
11
214.833
21
-60.6341
0
LINE
8
BLACK
6
CONTINUOUS
10
214.833
20
-60.6341
11
214.835
21
-60.6243
0
LINE
8
BLACK
6
CONTINUOUS
10
214.835
20
-60.6243
11
214.834
21
-60.6211
0
LINE
8
BLACK
6
CONTINUOUS
10
214.834
20
-60.6211
11
214.836
21
-60.6182
0
LINE
8
BLACK
6
CONTINUOUS
10
214.836
20
-60.6182
11
214.837
21
-60.6084
0
LINE
8
BLACK
6
CONTINUOUS
10
214.837
20
-60.6084
11
214.85
21
-60.5935
0
LINE
8
BLACK
6
CONTINUOUS
10
214.85
20
-60.5935
11
214.86
21
-60.5766
0
LINE
8
BLACK
6
CONTINUOUS
10
214.86
20
-60.5766
11
214.866
21
-60.5743
0
LINE
8
BLACK
6
CONTINUOUS
10
214.866
20
-60.5743
11
214.87
21
-60.5691
0
LINE
8
BLACK
6
CONTINUOUS
10
214.87
20
-60.5691
11
214.89
21
-60.5657
0
LINE
8
BLACK
6
CONTINUOUS
10
214.89
20
-60.5657
11
214.908
21
-60.5591
0
LINE
8
BLACK
6
CONTINUOUS
10
214.908
20
-60.5591
11
215.146
21
-60.5591
0
LINE
8
BLACK
6
CONTINUOUS
10
215.146
20
-60.5591
11
215.168
21
-60.563
0
LINE
8
BLACK
6
CONTINUOUS
10
214.983
20
-60.7091
11
214.983
21
-61.5591
0
LINE
8
BLACK
6
CONTINUOUS
10
214.983
20
-61.5591
11
215.134
21
-61.5591
0
LINE
8
BLACK
6
CONTINUOUS
10
215.134
20
-61.5591
11
215.248
21
-61.5209
0
LINE
8
BLACK
6
CONTINUOUS
10
215.248
20
-61.5209
11
215.322
21
-61.4468
0
LINE
8
BLACK
6
CONTINUOUS
10
215.322
20
-61.4468
11
215.361
21
-61.3698
0
LINE
8
BLACK
6
CONTINUOUS
10
215.361
20
-61.3698
11
215.404
21
-61.1963
0
LINE
8
BLACK
6
CONTINUOUS
10
215.404
20
-61.1963
11
215.404
21
-61.0719
0
LINE
8
BLACK
6
CONTINUOUS
10
215.404
20
-61.0719
11
215.361
21
-60.8983
0
LINE
8
BLACK
6
CONTINUOUS
10
215.361
20
-60.8983
11
215.322
21
-60.8214
0
LINE
8
BLACK
6
CONTINUOUS
10
215.322
20
-60.8214
11
215.248
21
-60.7472
0
LINE
8
BLACK
6
CONTINUOUS
10
215.248
20
-60.7472
11
215.134
21
-60.7091
0
LINE
8
BLACK
6
CONTINUOUS
10
215.134
20
-60.7091
11
214.983
21
-60.7091
0
LINE
8
BLACK
6
CONTINUOUS
10
216.155
20
-60.561
11
216.159
21
-60.5602
0
LINE
8
BLACK
6
CONTINUOUS
10
216.159
20
-60.5602
11
216.178
21
-60.5711
0
LINE
8
BLACK
6
CONTINUOUS
10
216.178
20
-60.5711
11
216.198
21
-60.5798
0
LINE
8
BLACK
6
CONTINUOUS
10
216.198
20
-60.5798
11
216.2
21
-60.5837
0
LINE
8
BLACK
6
CONTINUOUS
10
216.2
20
-60.5837
11
216.203
21
-60.5859
0
LINE
8
BLACK
6
CONTINUOUS
10
216.203
20
-60.5859
11
216.211
21
-60.6063
0
LINE
8
BLACK
6
CONTINUOUS
10
216.211
20
-60.6063
11
216.221
21
-60.6258
0
LINE
8
BLACK
6
CONTINUOUS
10
216.221
20
-60.6258
11
216.22
21
-60.63
0
LINE
8
BLACK
6
CONTINUOUS
10
216.22
20
-60.63
11
216.221
21
-60.6341
0
LINE
8
BLACK
6
CONTINUOUS
10
216.221
20
-60.6341
11
216.221
21
-61.5591
0
LINE
8
BLACK
6
CONTINUOUS
10
216.221
20
-61.5591
11
216.432
21
-61.5591
0
LINE
8
BLACK
6
CONTINUOUS
10
216.432
20
-61.5591
11
216.457
21
-61.5636
0
LINE
8
BLACK
6
CONTINUOUS
10
216.457
20
-61.5636
11
216.497
21
-61.5966
0
LINE
8
BLACK
6
CONTINUOUS
10
216.497
20
-61.5966
11
216.506
21
-61.6471
0
LINE
8
BLACK
6
CONTINUOUS
10
216.506
20
-61.6471
11
216.48
21
-61.6915
0
LINE
8
BLACK
6
CONTINUOUS
10
216.48
20
-61.6915
11
216.432
21
-61.7091
0
LINE
8
BLACK
6
CONTINUOUS
10
216.432
20
-61.7091
11
215.86
21
-61.7091
0
LINE
8
BLACK
6
CONTINUOUS
10
215.86
20
-61.7091
11
215.835
21
-61.7046
0
LINE
8
BLACK
6
CONTINUOUS
10
215.835
20
-61.7046
11
215.795
21
-61.6716
0
LINE
8
BLACK
6
CONTINUOUS
10
215.795
20
-61.6716
11
215.786
21
-61.6211
0
LINE
8
BLACK
6
CONTINUOUS
10
215.786
20
-61.6211
11
215.812
21
-61.5766
0
LINE
8
BLACK
6
CONTINUOUS
10
215.812
20
-61.5766
11
215.86
21
-61.5591
0
LINE
8
BLACK
6
CONTINUOUS
10
215.86
20
-61.5591
11
216.071
21
-61.5591
0
LINE
8
BLACK
6
CONTINUOUS
10
216.071
20
-61.5591
11
216.071
21
-60.8628
0
LINE
8
BLACK
6
CONTINUOUS
10
216.071
20
-60.8628
11
216.009
21
-60.9252
0
LINE
8
BLACK
6
CONTINUOUS
10
216.009
20
-60.9252
11
215.99
21
-60.9381
0
LINE
8
BLACK
6
CONTINUOUS
10
215.99
20
-60.9381
11
215.989
21
-60.9393
0
LINE
8
BLACK
6
CONTINUOUS
10
215.989
20
-60.9393
11
215.894
21
-60.9869
0
LINE
8
BLACK
6
CONTINUOUS
10
215.894
20
-60.9869
11
215.869
21
-60.9943
0
LINE
8
BLACK
6
CONTINUOUS
10
215.869
20
-60.9943
11
215.819
21
-60.9824
0
LINE
8
BLACK
6
CONTINUOUS
10
215.819
20
-60.9824
11
215.788
21
-60.9412
0
LINE
8
BLACK
6
CONTINUOUS
10
215.788
20
-60.9412
11
215.791
21
-60.89
0
LINE
8
BLACK
6
CONTINUOUS
10
215.791
20
-60.89
11
215.827
21
-60.8527
0
LINE
8
BLACK
6
CONTINUOUS
10
215.827
20
-60.8527
11
215.911
21
-60.8105
0
LINE
8
BLACK
6
CONTINUOUS
10
215.911
20
-60.8105
11
215.992
21
-60.7292
0
LINE
8
BLACK
6
CONTINUOUS
10
215.992
20
-60.7292
11
216.084
21
-60.5925
0
LINE
8
BLACK
6
CONTINUOUS
10
216.084
20
-60.5925
11
216.102
21
-60.5736
0
LINE
8
BLACK
6
CONTINUOUS
10
216.102
20
-60.5736
11
216.106
21
-60.5724
0
LINE
8
BLACK
6
CONTINUOUS
10
216.106
20
-60.5724
11
216.108
21
-60.5691
0
LINE
8
BLACK
6
CONTINUOUS
10
216.108
20
-60.5691
11
216.13
21
-60.5653
0
LINE
8
BLACK
6
CONTINUOUS
10
216.13
20
-60.5653
11
216.151
21
-60.5592
0
LINE
8
BLACK
6
CONTINUOUS
10
216.151
20
-60.5592
11
216.155
21
-60.561
0
LINE
8
BLACK
6
CONTINUOUS
10
217.351
20
-59.245
11
217.377
21
-59.2828
0
LINE
8
BLACK
6
CONTINUOUS
10
217.377
20
-59.2828
11
217.369
21
-59.3279
0
LINE
8
BLACK
6
CONTINUOUS
10
217.369
20
-59.3279
11
217.215
21
-59.5365
0
LINE
8
BLACK
6
CONTINUOUS
10
217.215
20
-59.5365
11
217.036
21
-59.724
0
LINE
8
BLACK
6
CONTINUOUS
10
217.036
20
-59.724
11
216.834
21
-59.8874
0
LINE
8
BLACK
6
CONTINUOUS
10
216.834
20
-59.8874
11
216.614
21
-60.024
0
LINE
8
BLACK
6
CONTINUOUS
10
216.614
20
-60.024
11
216.378
21
-60.1318
0
LINE
8
BLACK
6
CONTINUOUS
10
216.378
20
-60.1318
11
216.13
21
-60.2088
0
LINE
8
BLACK
6
CONTINUOUS
10
216.13
20
-60.2088
11
215.875
21
-60.254
0
LINE
8
BLACK
6
CONTINUOUS
10
215.875
20
-60.254
11
215.616
21
-60.2666
0
LINE
8
BLACK
6
CONTINUOUS
10
215.616
20
-60.2666
11
215.357
21
-60.2463
0
LINE
8
BLACK
6
CONTINUOUS
10
215.357
20
-60.2463
11
215.103
21
-60.1936
0
LINE
8
BLACK
6
CONTINUOUS
10
215.103
20
-60.1936
11
214.858
21
-60.1093
0
LINE
8
BLACK
6
CONTINUOUS
10
214.858
20
-60.1093
11
214.625
21
-59.9946
0
LINE
8
BLACK
6
CONTINUOUS
10
214.625
20
-59.9946
11
214.409
21
-59.8515
0
LINE
8
BLACK
6
CONTINUOUS
10
214.409
20
-59.8515
11
214.213
21
-59.6823
0
LINE
8
BLACK
6
CONTINUOUS
10
214.213
20
-59.6823
11
214.044
21
-59.4955
0
LINE
8
BLACK
6
CONTINUOUS
10
214.044
20
-59.4955
11
214.044
21
-59.4952
0
LINE
8
BLACK
6
CONTINUOUS
10
214.044
20
-59.4952
11
214.043
21
-59.4942
0
LINE
8
BLACK
6
CONTINUOUS
10
214.043
20
-59.4942
11
214.039
21
-59.4896
0
LINE
8
BLACK
6
CONTINUOUS
10
214.039
20
-59.4896
11
214.039
21
-59.4896
0
LINE
8
BLACK
6
CONTINUOUS
10
214.039
20
-59.4896
11
214.034
21
-59.4721
0
LINE
8
BLACK
6
CONTINUOUS
10
214.034
20
-59.4721
11
214.026
21
-59.4528
0
LINE
8
BLACK
6
CONTINUOUS
10
214.026
20
-59.4528
11
214.026
21
-59.2968
0
LINE
8
BLACK
6
CONTINUOUS
10
214.026
20
-59.2968
11
214.044
21
-59.2544
0
LINE
8
BLACK
6
CONTINUOUS
10
214.044
20
-59.2544
11
214.086
21
-59.2368
0
LINE
8
BLACK
6
CONTINUOUS
10
214.086
20
-59.2368
11
214.128
21
-59.2544
0
LINE
8
BLACK
6
CONTINUOUS
10
214.128
20
-59.2544
11
214.146
21
-59.2968
0
LINE
8
BLACK
6
CONTINUOUS
10
214.146
20
-59.2968
11
214.146
21
-59.436
0
LINE
8
BLACK
6
CONTINUOUS
10
214.146
20
-59.436
11
214.306
21
-59.6119
0
LINE
8
BLACK
6
CONTINUOUS
10
214.306
20
-59.6119
11
214.507
21
-59.7803
0
LINE
8
BLACK
6
CONTINUOUS
10
214.507
20
-59.7803
11
214.729
21
-59.92
0
LINE
8
BLACK
6
CONTINUOUS
10
214.729
20
-59.92
11
214.967
21
-60.0284
0
LINE
8
BLACK
6
CONTINUOUS
10
214.967
20
-60.0284
11
215.219
21
-60.1035
0
LINE
8
BLACK
6
CONTINUOUS
10
215.219
20
-60.1035
11
215.478
21
-60.144
0
LINE
8
BLACK
6
CONTINUOUS
10
215.478
20
-60.144
11
215.74
21
-60.149
0
LINE
8
BLACK
6
CONTINUOUS
10
215.74
20
-60.149
11
216
21
-60.1186
0
LINE
8
BLACK
6
CONTINUOUS
10
216
20
-60.1186
11
216.254
21
-60.0532
0
LINE
8
BLACK
6
CONTINUOUS
10
216.254
20
-60.0532
11
216.497
21
-59.9541
0
LINE
8
BLACK
6
CONTINUOUS
10
216.497
20
-59.9541
11
216.724
21
-59.8231
0
LINE
8
BLACK
6
CONTINUOUS
10
216.724
20
-59.8231
11
216.931
21
-59.6626
0
LINE
8
BLACK
6
CONTINUOUS
10
216.931
20
-59.6626
11
217.115
21
-59.4755
0
LINE
8
BLACK
6
CONTINUOUS
10
217.115
20
-59.4755
11
217.266
21
-59.2728
0
LINE
8
BLACK
6
CONTINUOUS
10
217.266
20
-59.2728
11
217.268
21
-59.2629
0
LINE
8
BLACK
6
CONTINUOUS
10
217.268
20
-59.2629
11
217.306
21
-59.2368
0
LINE
8
BLACK
6
CONTINUOUS
10
217.306
20
-59.2368
11
217.351
21
-59.245
0
LINE
8
BLACK
6
CONTINUOUS
10
216.73
20
-59.255
11
216.747
21
-59.2977
0
LINE
8
BLACK
6
CONTINUOUS
10
216.747
20
-59.2977
11
216.729
21
-59.3398
0
LINE
8
BLACK
6
CONTINUOUS
10
216.729
20
-59.3398
11
216.562
21
-59.4794
0
LINE
8
BLACK
6
CONTINUOUS
10
216.562
20
-59.4794
11
216.378
21
-59.5945
0
LINE
8
BLACK
6
CONTINUOUS
10
216.378
20
-59.5945
11
216.179
21
-59.6829
0
LINE
8
BLACK
6
CONTINUOUS
10
216.179
20
-59.6829
11
215.97
21
-59.7428
0
LINE
8
BLACK
6
CONTINUOUS
10
215.97
20
-59.7428
11
215.755
21
-59.773
0
LINE
8
BLACK
6
CONTINUOUS
10
215.755
20
-59.773
11
215.537
21
-59.773
0
LINE
8
BLACK
6
CONTINUOUS
10
215.537
20
-59.773
11
215.322
21
-59.7428
0
LINE
8
BLACK
6
CONTINUOUS
10
215.322
20
-59.7428
11
215.113
21
-59.683
0
LINE
8
BLACK
6
CONTINUOUS
10
215.113
20
-59.683
11
214.914
21
-59.5947
0
LINE
8
BLACK
6
CONTINUOUS
10
214.914
20
-59.5947
11
214.73
21
-59.4796
0
LINE
8
BLACK
6
CONTINUOUS
10
214.73
20
-59.4796
11
214.563
21
-59.34
0
LINE
8
BLACK
6
CONTINUOUS
10
214.563
20
-59.34
11
214.563
21
-59.34
0
LINE
8
BLACK
6
CONTINUOUS
10
214.563
20
-59.34
11
214.545
21
-59.2979
0
LINE
8
BLACK
6
CONTINUOUS
10
214.545
20
-59.2979
11
214.562
21
-59.2552
0
LINE
8
BLACK
6
CONTINUOUS
10
214.562
20
-59.2552
11
214.604
21
-59.2368
0
LINE
8
BLACK
6
CONTINUOUS
10
214.604
20
-59.2368
11
214.647
21
-59.2536
0
LINE
8
BLACK
6
CONTINUOUS
10
214.647
20
-59.2536
11
214.65
21
-59.2622
0
LINE
8
BLACK
6
CONTINUOUS
10
214.65
20
-59.2622
11
214.814
21
-59.3976
0
LINE
8
BLACK
6
CONTINUOUS
10
214.814
20
-59.3976
11
215.005
21
-59.5108
0
LINE
8
BLACK
6
CONTINUOUS
10
215.005
20
-59.5108
11
215.21
21
-59.5936
0
LINE
8
BLACK
6
CONTINUOUS
10
215.21
20
-59.5936
11
215.425
21
-59.6441
0
LINE
8
BLACK
6
CONTINUOUS
10
215.425
20
-59.6441
11
215.646
21
-59.661
0
LINE
8
BLACK
6
CONTINUOUS
10
215.646
20
-59.661
11
215.867
21
-59.6441
0
LINE
8
BLACK
6
CONTINUOUS
10
215.867
20
-59.6441
11
216.082
21
-59.5936
0
LINE
8
BLACK
6
CONTINUOUS
10
216.082
20
-59.5936
11
216.288
21
-59.5107
0
LINE
8
BLACK
6
CONTINUOUS
10
216.288
20
-59.5107
11
216.478
21
-59.3975
0
LINE
8
BLACK
6
CONTINUOUS
10
216.478
20
-59.3975
11
216.642
21
-59.262
0
LINE
8
BLACK
6
CONTINUOUS
10
216.642
20
-59.262
11
216.645
21
-59.2534
0
LINE
8
BLACK
6
CONTINUOUS
10
216.645
20
-59.2534
11
216.688
21
-59.2366
0
LINE
8
BLACK
6
CONTINUOUS
10
216.688
20
-59.2366
11
216.73
21
-59.255
0
LINE
8
BLACK
6
CONTINUOUS
10
215.755
20
-56.6606
11
215.97
21
-56.6908
0
LINE
8
BLACK
6
CONTINUOUS
10
215.97
20
-56.6908
11
216.179
21
-56.7507
0
LINE
8
BLACK
6
CONTINUOUS
10
216.179
20
-56.7507
11
216.378
21
-56.8391
0
LINE
8
BLACK
6
CONTINUOUS
10
216.378
20
-56.8391
11
216.562
21
-56.9542
0
LINE
8
BLACK
6
CONTINUOUS
10
216.562
20
-56.9542
11
216.729
21
-57.0938
0
LINE
8
BLACK
6
CONTINUOUS
10
216.729
20
-57.0938
11
216.747
21
-57.1359
0
LINE
8
BLACK
6
CONTINUOUS
10
216.747
20
-57.1359
11
216.73
21
-57.1786
0
LINE
8
BLACK
6
CONTINUOUS
10
216.73
20
-57.1786
11
216.688
21
-57.197
0
LINE
8
BLACK
6
CONTINUOUS
10
216.688
20
-57.197
11
216.645
21
-57.1802
0
LINE
8
BLACK
6
CONTINUOUS
10
216.645
20
-57.1802
11
216.642
21
-57.1716
0
LINE
8
BLACK
6
CONTINUOUS
10
216.642
20
-57.1716
11
216.478
21
-57.0361
0
LINE
8
BLACK
6
CONTINUOUS
10
216.478
20
-57.0361
11
216.288
21
-56.9229
0
LINE
8
BLACK
6
CONTINUOUS
10
216.288
20
-56.9229
11
216.082
21
-56.84
0
LINE
8
BLACK
6
CONTINUOUS
10
216.082
20
-56.84
11
215.867
21
-56.7895
0
LINE
8
BLACK
6
CONTINUOUS
10
215.867
20
-56.7895
11
215.646
21
-56.7726
0
LINE
8
BLACK
6
CONTINUOUS
10
215.646
20
-56.7726
11
215.425
21
-56.7895
0
LINE
8
BLACK
6
CONTINUOUS
10
215.425
20
-56.7895
11
215.21
21
-56.84
0
LINE
8
BLACK
6
CONTINUOUS
10
215.21
20
-56.84
11
215.005
21
-56.9228
0
LINE
8
BLACK
6
CONTINUOUS
10
215.005
20
-56.9228
11
214.814
21
-57.036
0
LINE
8
BLACK
6
CONTINUOUS
10
214.814
20
-57.036
11
214.65
21
-57.1714
0
LINE
8
BLACK
6
CONTINUOUS
10
214.65
20
-57.1714
11
214.647
21
-57.18
0
LINE
8
BLACK
6
CONTINUOUS
10
214.647
20
-57.18
11
214.604
21
-57.1968
0
LINE
8
BLACK
6
CONTINUOUS
10
214.604
20
-57.1968
11
214.562
21
-57.1784
0
LINE
8
BLACK
6
CONTINUOUS
10
214.562
20
-57.1784
11
214.545
21
-57.1357
0
LINE
8
BLACK
6
CONTINUOUS
10
214.545
20
-57.1357
11
214.563
21
-57.0936
0
LINE
8
BLACK
6
CONTINUOUS
10
214.563
20
-57.0936
11
214.563
21
-57.0936
0
LINE
8
BLACK
6
CONTINUOUS
10
214.563
20
-57.0936
11
214.73
21
-56.954
0
LINE
8
BLACK
6
CONTINUOUS
10
214.73
20
-56.954
11
214.914
21
-56.8389
0
LINE
8
BLACK
6
CONTINUOUS
10
214.914
20
-56.8389
11
215.113
21
-56.7506
0
LINE
8
BLACK
6
CONTINUOUS
10
215.113
20
-56.7506
11
215.322
21
-56.6908
0
LINE
8
BLACK
6
CONTINUOUS
10
215.322
20
-56.6908
11
215.537
21
-56.6606
0
LINE
8
BLACK
6
CONTINUOUS
10
215.537
20
-56.6606
11
215.755
21
-56.6606
0
LINE
8
BLACK
6
CONTINUOUS
10
215.875
20
-56.1796
11
216.13
21
-56.2248
0
LINE
8
BLACK
6
CONTINUOUS
10
216.13
20
-56.2248
11
216.378
21
-56.3018
0
LINE
8
BLACK
6
CONTINUOUS
10
216.378
20
-56.3018
11
216.614
21
-56.4096
0
LINE
8
BLACK
6
CONTINUOUS
10
216.614
20
-56.4096
11
216.834
21
-56.5462
0
LINE
8
BLACK
6
CONTINUOUS
10
216.834
20
-56.5462
11
217.036
21
-56.7096
0
LINE
8
BLACK
6
CONTINUOUS
10
217.036
20
-56.7096
11
217.215
21
-56.8971
0
LINE
8
BLACK
6
CONTINUOUS
10
217.215
20
-56.8971
11
217.369
21
-57.1057
0
LINE
8
BLACK
6
CONTINUOUS
10
217.369
20
-57.1057
11
217.377
21
-57.1508
0
LINE
8
BLACK
6
CONTINUOUS
10
217.377
20
-57.1508
11
217.351
21
-57.1886
0
LINE
8
BLACK
6
CONTINUOUS
10
217.351
20
-57.1886
11
217.306
21
-57.1968
0
LINE
8
BLACK
6
CONTINUOUS
10
217.306
20
-57.1968
11
217.268
21
-57.1707
0
LINE
8
BLACK
6
CONTINUOUS
10
217.268
20
-57.1707
11
217.266
21
-57.1608
0
LINE
8
BLACK
6
CONTINUOUS
10
217.266
20
-57.1608
11
217.115
21
-56.9581
0
LINE
8
BLACK
6
CONTINUOUS
10
217.115
20
-56.9581
11
216.931
21
-56.771
0
LINE
8
BLACK
6
CONTINUOUS
10
216.931
20
-56.771
11
216.724
21
-56.6105
0
LINE
8
BLACK
6
CONTINUOUS
10
216.724
20
-56.6105
11
216.497
21
-56.4795
0
LINE
8
BLACK
6
CONTINUOUS
10
216.497
20
-56.4795
11
216.254
21
-56.3804
0
LINE
8
BLACK
6
CONTINUOUS
10
216.254
20
-56.3804
11
216
21
-56.315
0
LINE
8
BLACK
6
CONTINUOUS
10
216
20
-56.315
11
215.74
21
-56.2846
0
LINE
8
BLACK
6
CONTINUOUS
10
215.74
20
-56.2846
11
215.478
21
-56.2896
0
LINE
8
BLACK
6
CONTINUOUS
10
215.478
20
-56.2896
11
215.219
21
-56.3301
0
LINE
8
BLACK
6
CONTINUOUS
10
215.219
20
-56.3301
11
214.967
21
-56.4052
0
LINE
8
BLACK
6
CONTINUOUS
10
214.967
20
-56.4052
11
214.729
21
-56.5136
0
LINE
8
BLACK
6
CONTINUOUS
10
214.729
20
-56.5136
11
214.507
21
-56.6533
0
LINE
8
BLACK
6
CONTINUOUS
10
214.507
20
-56.6533
11
214.306
21
-56.8217
0
LINE
8
BLACK
6
CONTINUOUS
10
214.306
20
-56.8217
11
214.146
21
-56.9976
0
LINE
8
BLACK
6
CONTINUOUS
10
214.146
20
-56.9976
11
214.146
21
-57.1368
0
LINE
8
BLACK
6
CONTINUOUS
10
214.146
20
-57.1368
11
214.128
21
-57.1792
0
LINE
8
BLACK
6
CONTINUOUS
10
214.128
20
-57.1792
11
214.086
21
-57.1968
0
LINE
8
BLACK
6
CONTINUOUS
10
214.086
20
-57.1968
11
214.044
21
-57.1792
0
LINE
8
BLACK
6
CONTINUOUS
10
214.044
20
-57.1792
11
214.026
21
-57.1368
0
LINE
8
BLACK
6
CONTINUOUS
10
214.026
20
-57.1368
11
214.026
21
-56.9808
0
LINE
8
BLACK
6
CONTINUOUS
10
214.026
20
-56.9808
11
214.034
21
-56.9615
0
LINE
8
BLACK
6
CONTINUOUS
10
214.034
20
-56.9615
11
214.039
21
-56.944
0
LINE
8
BLACK
6
CONTINUOUS
10
214.039
20
-56.944
11
214.039
21
-56.944
0
LINE
8
BLACK
6
CONTINUOUS
10
214.039
20
-56.944
11
214.043
21
-56.9394
0
LINE
8
BLACK
6
CONTINUOUS
10
214.043
20
-56.9394
11
214.044
21
-56.9384
0
LINE
8
BLACK
6
CONTINUOUS
10
214.044
20
-56.9384
11
214.044
21
-56.9381
0
LINE
8
BLACK
6
CONTINUOUS
10
214.044
20
-56.9381
11
214.213
21
-56.7513
0
LINE
8
BLACK
6
CONTINUOUS
10
214.213
20
-56.7513
11
214.409
21
-56.5821
0
LINE
8
BLACK
6
CONTINUOUS
10
214.409
20
-56.5821
11
214.625
21
-56.439
0
LINE
8
BLACK
6
CONTINUOUS
10
214.625
20
-56.439
11
214.858
21
-56.3243
0
LINE
8
BLACK
6
CONTINUOUS
10
214.858
20
-56.3243
11
215.103
21
-56.24
0
LINE
8
BLACK
6
CONTINUOUS
10
215.103
20
-56.24
11
215.357
21
-56.1873
0
LINE
8
BLACK
6
CONTINUOUS
10
215.357
20
-56.1873
11
215.616
21
-56.167
0
LINE
8
BLACK
6
CONTINUOUS
10
215.616
20
-56.167
11
215.875
21
-56.1796
  0
ENDSEC
  0
EOF
